<?xml version="1.0" encoding="UTF-8"?>
<svg width=".71333in" height="1.1133in" version="1.1" viewBox="0 0 214 334" xmlns="http://www.w3.org/2000/svg">
 <path id="Selection" d="m75.45 271.91c-0.36 7-1.65 34.91 1.32 41.07 3.62 7.52 5.83 5.2 9.75 8.58 2.6 2.23 3.55 5.42 6.61 7.55 4.45 3.11 20.76 3.46 25.25 0.6 3.37-2.14 4.77-6.1 7.15-8.13 2.75-2.34 6.89-2 9.18-5.91 0.72-1.24 2.02-9.86 2.15-11.65v-10.02-21c9.18-2.82 7.72-14.51 8.23-22l0.91-11c0.06-12.19 1.32-21.36 8.09-32 5.73-9 14.81-14.49 22.45-21.59 10.97-10.21 19.76-22.25 26.31-35.69 1.67-3.43 2.49-7.99 3.66-11.72l4.02-13 0.64-10c3.14-32.99-9.71-67.91-35.17-89.7-21.34-18.27-46.28-25.62-74-25.3-9.32 0.11-22.15 2.8-31 5.78-12.34 4.15-26.64 12.02-36.42 20.66-15.98 14.11-28.34 37.64-32.27 58.56l-2.13 20 2.19 24c1.24 6.11 7.23 21.23 10.22 27 5.24 10.08 13.03 20.32 21.42 27.95 11.13 10.11 17.16 11.08 25.65 26.05 4.41 7.77 6.33 18.13 6.34 27 0.02 10.35-1.91 29.09 9.45 33.91zm112.55-104.91-14.09 14.72c-10.41 9.42-19.5 13.7-26.24 27.28-6.93 13.97-3.36 17.39-6.67 29 0 0-22-3-22-3v-47c0-9.59 1.4-17.26-3-26h14s2.63-7.08 2.63-7.08c0.16-5.75-8.14-8.85-12.63-9.92 4.66-2.87 18.45-7.61 9.85-15.61-0.83-0.78-1.87-1.45-2.85-2.03l-5-2.36v-2l4.98-2.48 2.79-2.05c7.59-7.19-4.14-11.79-8.77-15.47 2.84-1.51 8.47-3.82 10.26-6.26 5.13-7.02-6.5-11.69-11.26-13.74 3.72-2.29 8.67-3.41 11.26-7.18 4.84-7.06-5.88-11.8-11.26-12.82 2-1.8 6.97-4.47 7.38-6.9 0.53-3.16-4.45-3.06-6.38-3.1-4.56-0.08-3.58-0.26-8.04 0.83l0.04 5.17c-17.5 3.14-10.56-5.98-30-6 1.72 3.42 13.79 6.34 13.71 9.2-0.06 2.14-11.64 4.46-13.65 5.8-4.99 3.34-3.72 6.9 0.96 9.59l3.98 1.71c2.45 0.88 4.45 1.31 7 1.7v4c-2.55 0.39-4.55 0.82-7 1.7l-3.98 1.71c-1.44 0.83-3.2 2.05-3.85 3.65-2.48 6.15 10.05 7.49 12.52 9.22 1.75 1.23 1.69 1.9 2.31 3.72-3.58 1.19-13.37 3.71-14.83 7.21-2.39 5.71 11.14 8.95 14.83 9.79-1.43 8.33-12.69 4.09-14.66 11.1-1.85 6.54 11.77 7.17 13.49 10.35 0.97 1.78-0.56 2.97-1.98 3.7-2.54 1.3-7.47 1.7-10.48 5.17-3.37 3.89 0.54 7.9 4.65 8.63h4.98 4c-2.89 11.16-2 18.74-2 30.05v44s-22 3-22 3c-2.75-15.37-1.4-21.77-11.09-36-6.68-9.8-19.08-17.28-27.78-26.28-13.96-14.45-26.89-41.45-27.13-61.72v-11c0.03-20.46 9.65-44.24 22.47-60 18.08-22.25 42.33-34.35 70.53-37.17l16 0.01 16 2.13c25.68 6.02 50.76 25.43 63.96 48.07 13.64 23.38 17.46 56.27 8.5 81.96l-8.54 18.72c-1.93 3.49-4.94 6.41-5.92 10.28zm-85-86c-4.45-1.58-5.04-2.04-6-4 0.02-2.26-0.16-5.61 1.17-7.52 2.26-3.23 13.24-6 16.03-2.17 1.01 1.84 1.2 8.28 0 10.26-1.23 2.99-11.2 3.43-11.2 3.43zm25-9c-3.78 4.28-6.48 5.13-12 6v-11l12 5zm-33-3v7l-11-3 11-4zm20 31-12 1c-2.46-2.67-6.72-4.6-5.67-8.91 1.09-4.45 13.69-8.37 16.68-4.43 1.47 1.95 0.99 9.66 0.99 12.34zm13-8v2l-12 5v-12l12 5zm-33-2v6l-9.22-2.78 9.22-3.22zm2 28c-2.91-13.13 14.88-12.72 17.2-9.67 1.02 1.79 1.18 8.29 0 10.24-1.23 2.99-12.55 3.34-17.2-0.57zm31-5c-4.06 5.02-6.25 4.79-12 7v-12c5.46 0.86 7.49 1.81 12 5zm-33-3v7l-10-3 10-4zm16 32h-8c-1.94-3.09-2.53-3.07-6-4 0.03-1.97-0.15-4.82 1.02-6.49 1.87-2.67 12.42-5.78 15.24-3.52 2.18 1.75 2.37 10.17 0.75 12.29-0.91 1.18-1.8 1.23-3.01 1.72zm17.13-7.91-12.13 5.91v-12l12.13 6.09zm-33.13-3.09v6l-10-2 10-4zm20 32h-18c0-11.06-0.81-11.56 9-14.3 2.19-0.6 5.46-1.73 7.4 0 2.34 2.06 1.6 11.12 1.6 14.3zm2-15c6.36 3.32 9.99 3.43 12 11l-13 1 1-12zm-22 4v7h-12c1.02-5.9 6.79-6.2 12-7zm37.94 119v7.91s-0.77 32.03-4.27 35.24c-6.85 6.28-21.88 4.9-30.67 4.85-3.2-0.02-4.96 0.07-8-1.21-6.09-2.57-6.59-4.83-11-8.79 0-7.18 0.19-31.77 0-38l25 2 28.94-2zm-50.12 15.73c12.12 2.52 33.77 2.03 45.18-1.73-7.3-3.52-36-1.88-45.18 1.73zm0.18 7.27c6.01 3.49 45-1 45-1-8.38-3.12-37.64-1.16-45 1zm-0.27 8c4.87 3.5 37.49 1.21 45.27-1-6.01-3.49-45.27 1-45.27 1zm0.27 9c12.48 0 33.59 0.76 45-3-6.01-3.49-42.27-0.51-45 3z" stroke="#000"/>
</svg>
