<?xml version="1.0" encoding="utf-8"?>
<!-- Generator: Adobe Illustrator 19.2.1, SVG Export Plug-In . SVG Version: 6.00 Build 0)  -->
<svg version="1.2" baseProfile="tiny" id="Layer_1" xmlns="http://www.w3.org/2000/svg" xmlns:xlink="http://www.w3.org/1999/xlink"
	 x="0px" y="0px" viewBox="0 0 50.3 50.3" xml:space="preserve">
<path fill="none" stroke="#1D1D1A" stroke-width="0.3531" stroke-miterlimit="10" d="M45.6,40.7c-2.1-0.5-10.9-3.1-14.7-3.3h-5.8
	h-5.8c-3.8,0.2-12.5,2.8-14.7,3.3S3.6,41.8,4,42.1c0.9,0.7,12,8.1,21.2,8.1c9.1,0,20.3-7.4,21.2-8.1C46.8,41.8,47.8,41.3,45.6,40.7z
	"/>
<line fill="none" stroke="#1D1D1A" stroke-width="0.3531" stroke-miterlimit="10" x1="5" y1="40.7" x2="45.3" y2="40.7"/>
<line fill="none" stroke="#1D1D1A" stroke-width="0.3531" stroke-miterlimit="10" x1="4.6" y1="42.5" x2="45.8" y2="42.5"/>
<line fill="none" stroke="#1D1D1A" stroke-width="0.3531" stroke-linecap="round" stroke-linejoin="round" stroke-miterlimit="10" x1="25.2" y1="36.8" x2="25.2" y2="4.6"/>
<path fill="none" stroke="#1D1D1A" stroke-width="0.3531" stroke-linecap="round" stroke-linejoin="round" stroke-miterlimit="10" d="
	M25.2,36.8c0-1.1-0.5-1,3.1-4.4c3.5-3.4,7.3-7.4,2.1-11.2c-5.2-3.8-13.2-6.4-11.1-11.7C19.9,7.2,23,4.3,23,4.3"/>
<path fill="none" stroke="#1D1D1A" stroke-width="0.3531" stroke-linecap="round" stroke-linejoin="round" stroke-miterlimit="10" d="
	M19.4,37.4c1.8-0.4,3.8-0.6,5.8-0.6s4,0.2,5.8,0.6"/>
<path fill="none" stroke="#1D1D1A" stroke-width="0.3531" stroke-miterlimit="10" d="M20.1,0.2c0,2.4,2.3,4.4,5,4.4c2.8,0,5-2,5-4.4
	H20.1z"/>
</svg>
