<?xml version="1.0" encoding="UTF-8" standalone="no"?>
<svg
   xmlns:dc="http://purl.org/dc/elements/1.1/"
   xmlns:cc="http://creativecommons.org/ns#"
   xmlns:rdf="http://www.w3.org/1999/02/22-rdf-syntax-ns#"
   xmlns:svg="http://www.w3.org/2000/svg"
   xmlns="http://www.w3.org/2000/svg"
   xmlns:sodipodi="http://sodipodi.sourceforge.net/DTD/sodipodi-0.dtd"
   xmlns:inkscape="http://www.inkscape.org/namespaces/inkscape"
   version="1.2"
   id="Layer_1"
   x="0px"
   y="0px"
   viewBox="0 0 50.3 50.3"
   xml:space="preserve"
   sodipodi:docname="icon2.svg"
   inkscape:version="1.0 (4035a4fb49, 2020-05-01)"><metadata
   id="metadata19"><rdf:RDF><cc:Work
       rdf:about=""><dc:format>image/svg+xml</dc:format><dc:type
         rdf:resource="http://purl.org/dc/dcmitype/StillImage" /><dc:title></dc:title></cc:Work></rdf:RDF></metadata><defs
   id="defs17" /><sodipodi:namedview
   pagecolor="#ffffff"
   bordercolor="#666666"
   borderopacity="1"
   objecttolerance="10"
   gridtolerance="10"
   guidetolerance="10"
   inkscape:pageopacity="0"
   inkscape:pageshadow="2"
   inkscape:window-width="1680"
   inkscape:window-height="987"
   id="namedview15"
   showgrid="false"
   inkscape:zoom="8"
   inkscape:cx="35.871738"
   inkscape:cy="12.639164"
   inkscape:window-x="1672"
   inkscape:window-y="-8"
   inkscape:window-maximized="1"
   inkscape:current-layer="Layer_1"
   inkscape:document-rotation="0" />






<g
   transform="matrix(1.2240363,0,0,1.2240363,-3.0331961,-4.6972491)"
   id="g898"><path
     style="fill:#000000;fill-opacity:1;stroke:none;stroke-width:0.2;stroke-linecap:butt;stroke-linejoin:miter;stroke-miterlimit:4;stroke-dasharray:none;stroke-opacity:1"
     d="m 35.443727,26.737475 -8.352698,3.889087 c -0.59372,0.276441 -1.382373,-0.134051 -1.458408,-0.08839 -1.649458,0.990548 -2.430909,0.668044 -2.430909,0.668044"
     id="path864"
     sodipodi:nodetypes="cssc" /><path
     style="fill:#000000;fill-opacity:1;stroke:none;stroke-width:0.2;stroke-linecap:butt;stroke-linejoin:miter;stroke-miterlimit:4;stroke-dasharray:none;stroke-opacity:1"
     d="M 23.16462,31.176865 C 22.542039,30.818514 18.959849,28.752387 18.862808,28.598749 17.971989,27.188372 13.981073,20.444229 17.5,18.03125 l 1.09375,-0.75 C 19.215736,16.854745 18.63477,16.556583 20,15.71875 l 12.659367,-7.7500961 2.78436,18.7688211 -7.909131,3.724744 c -1.261618,0.604997 -1.755483,0.01816 -1.854824,0.07829 -1.684348,1.019495 -2.515152,0.636356 -2.515152,0.636356 z"
     id="path866"
     sodipodi:nodetypes="csssscccsc" /><path
     style="fill:#000000;fill-opacity:1;stroke:none;stroke-width:0.2;stroke-linecap:butt;stroke-linejoin:miter;stroke-miterlimit:4;stroke-dasharray:none;stroke-opacity:1"
     d="m 35.443727,26.737475 c 0,0 -4.050551,1.44014 -5.506227,-7.081225 -0.822096,-4.812456 1.162764,-11.8022281 4.15625,-12.5625 3.071458,-0.7800751 5.174646,4.940256 5.3125,8.84375 0.304953,8.635061 -3.962523,10.799975 -3.962523,10.799975"
     id="path868"
     sodipodi:nodetypes="csssc" /><path
     style="fill:#000000;fill-opacity:1;stroke:#ffffff;stroke-width:0.2;stroke-linecap:butt;stroke-linejoin:miter;stroke-miterlimit:4;stroke-dasharray:none;stroke-opacity:1"
     d="m 18.74977,17.003696 c 0,0 -0.980747,1.787853 -0.49977,3.840054 0.106287,0.453496 0.518927,1.413577 0.71124,1.849102 0.06089,0.137892 4.258402,6.052446 4.258402,6.052446"
     id="path870"
     sodipodi:nodetypes="cssc" /><path
     style="fill:#000000;fill-opacity:1;stroke:#ffffff;stroke-width:0.2;stroke-linecap:butt;stroke-linejoin:miter;stroke-miterlimit:4;stroke-dasharray:none;stroke-opacity:1"
     d="m 25.777344,30.675781 c 0,0 -1.291849,-0.879315 -2.479577,-2.242983"
     id="path872"
     sodipodi:nodetypes="cc" /><path
     style="fill:#000000;fill-opacity:1;stroke:#ffffff;stroke-width:0.2;stroke-linecap:butt;stroke-linejoin:miter;stroke-miterlimit:4;stroke-dasharray:none;stroke-opacity:1"
     d="m 30.40625,12.4375 c 0,0 4.542317,2.638922 5.625,7.4375 0.778477,3.4503 0.03978,4.925132 -1.21875,5.75 -0.729644,0.478224 -2.5,0.09375 -2.5,0.09375"
     id="path876"
     sodipodi:nodetypes="cssc" /><path
     sodipodi:nodetypes="csssc"
     id="path878"
     d="m 31.638933,24.663776 c 0,0 -3.165772,-4.943385 -1.420084,-11.476426 0,0 4.025719,2.818851 4.928494,6.151672 0.920117,3.396844 0.0286,5.143637 -0.910958,5.612309 -1.018154,0.507879 -2.597452,-0.287555 -2.597452,-0.287555"
     style="fill:#000000;fill-opacity:1;stroke:#ffffff;stroke-width:0.206426;stroke-linecap:butt;stroke-linejoin:miter;stroke-miterlimit:4;stroke-dasharray:none;stroke-opacity:1" /><path
     style="fill:#ffffff;fill-opacity:1;stroke:#ffffff;stroke-width:0.199672;stroke-linecap:butt;stroke-linejoin:miter;stroke-miterlimit:4;stroke-dasharray:none;stroke-opacity:1"
     d="m 31.638933,24.663776 c 0,0 -2.961272,-4.20211 -1.589691,-10.464155 0.15784,-0.720634 3.630923,2.097266 4.662884,5.673862 0.979714,3.395516 -0.661912,4.776843 -0.661912,4.776843 -0.981743,0.792291 -2.411281,0.01345 -2.411281,0.01345"
     id="path880"
     sodipodi:nodetypes="csssc" /><path
     style="fill:#000000;fill-opacity:1;stroke:none;stroke-width:0.2;stroke-linecap:butt;stroke-linejoin:miter;stroke-miterlimit:4;stroke-dasharray:none;stroke-opacity:1"
     d="m 17.21875,25.6875 c 0,0 -1.76999,2.051526 -2.5,3.1875 -1.591687,2.476836 -2.567758,4.3899 -2.78125,4.71875 C 11.09579,34.890267 9.9176887,36.464812 8.375,36.5625 7.0206643,36.64826 6.7789787,36.088634 4.71875,36.25 4.564367,36.26209 3.6374937,36.379353 3.875,36.5625 4.5135715,37.05492 4.5642078,36.924859 6,37.09375 c 0.7725132,0.09087 0.4070788,0.0687 2.3125,0.3125 1.3469468,0.172341 2.936615,-1.318881 3.53125,-2.03125 1.39921,-1.676245 1.861357,-3.256857 2.90625,-4.8125 0.904909,-1.347234 2.90625,-3.90625 2.90625,-3.90625"
     id="path882"
     sodipodi:nodetypes="cssssssssac" /><path
     style="fill:#000000;fill-opacity:1;stroke:#ffffff;stroke-width:0.2;stroke-linecap:butt;stroke-linejoin:miter;stroke-miterlimit:4;stroke-dasharray:none;stroke-opacity:1"
     d="m 21.061669,19.290831 c 1.151388,0.0065 2.176116,1.523727 2.18529,2.675096 l 0.07535,9.457029 c 0,0 0.228605,4.51622 1.394064,5.011095 0,0 3.583277,-0.0976 4.069159,0.263742 0.447298,0.33265 -1.525934,0.640515 -1.525934,0.640515 l 0.05652,3.05187 -2.298322,0.01884 0.01884,-2.957676 C 19.251123,37.75335 19.00036,34.360238 18.989413,31.535989 l -0.03768,-9.72077 c -0.0043,-1.09667 1.013268,-2.530551 2.109929,-2.524387 z"
     id="path852"
     sodipodi:nodetypes="asccsccccssaa" /><path
     style="fill:#000000;fill-opacity:0.995984;fill-rule:evenodd;stroke:none;stroke-width:1.15227;stroke-opacity:1"
     id="path858"
     sodipodi:type="arc"
     sodipodi:cx="20.982346"
     sodipodi:cy="22.104465"
     sodipodi:rx="1.3671553"
     sodipodi:ry="1.7535855"
     sodipodi:start="2.4065996"
     sodipodi:end="2.4059364"
     sodipodi:arc-type="slice"
     d="m 19.968141,23.280388 a 1.3671553,1.7535855 0 0 1 0.09725,-2.476599 1.3671553,1.7535855 0 0 1 1.930858,0.124322 1.3671553,1.7535855 0 0 1 -0.09661,2.476641 1.3671553,1.7535855 0 0 1 -1.93089,-0.123501 l 1.013596,-1.176786 z" /><path
     d="m 20.084053,23.145994 a 1.2109053,1.5531709 0 0 1 0.08573,-2.193085 1.2109053,1.5531709 0 0 1 1.709857,0.108612 1.2109053,1.5531709 0 0 1 -0.08363,2.193218 1.2109053,1.5531709 0 0 1 -1.70996,-0.105914"
     sodipodi:arc-type="arc"
     sodipodi:end="2.4041398"
     sodipodi:start="2.4065996"
     sodipodi:ry="1.5531709"
     sodipodi:rx="1.2109053"
     sodipodi:cy="22.104465"
     sodipodi:cx="20.982346"
     sodipodi:type="arc"
     id="path862"
     style="fill:#000000;fill-opacity:0.995984;fill-rule:evenodd;stroke:#ffffff;stroke-width:0.2;stroke-miterlimit:4;stroke-dasharray:none;stroke-opacity:1"
     sodipodi:open="true" /><path
     style="fill:#000000;fill-opacity:1;fill-rule:evenodd;stroke:none;stroke-width:1.21932;stroke-opacity:1"
     id="path848"
     sodipodi:type="arc"
     sodipodi:cx="26.144758"
     sodipodi:cy="40.400387"
     sodipodi:rx="5.9058266"
     sodipodi:ry="0.57536298"
     sodipodi:start="2.4065996"
     sodipodi:end="2.4059364"
     sodipodi:arc-type="slice"
     d="m 21.763607,40.786215 a 5.9058266,0.57536298 0 0 1 0.420084,-0.812589 5.9058266,0.57536298 0 0 1 8.340905,0.04079 5.9058266,0.57536298 0 0 1 -0.417318,0.812602 5.9058266,0.57536298 0 0 1 -8.341044,-0.04052 l 4.378524,-0.386111 z" /><path
     style="fill:#000000;fill-opacity:1;stroke:none;stroke-width:0.202681;stroke-linecap:butt;stroke-linejoin:miter;stroke-miterlimit:4;stroke-dasharray:none;stroke-opacity:1"
     d="m 20.237053,40.405189 v 0.502761 c 0,0 1.379986,0.571001 5.843001,0.579522 4.75512,0.009 5.975068,-0.618198 5.975068,-0.618198 v -0.483425"
     id="path856"
     sodipodi:nodetypes="ccscc" /></g></svg>
