<?xml version="1.0" encoding="utf-8"?>
<!-- Generator: Adobe Illustrator 23.0.6, SVG Export Plug-In . SVG Version: 6.00 Build 0)  -->
<svg version="1.1" id="Layer_1" xmlns="http://www.w3.org/2000/svg" xmlns:xlink="http://www.w3.org/1999/xlink" x="0px" y="0px"
	 viewBox="0 0 435 1183" style="enable-background:new 0 0 435 1183;" xml:space="preserve">
<g id="klLHCD.tif">
	<g>
		<g>
			<path d="M394,811.9c-117.7,0-235.3,0-353,0c0-147.4,0-294.6,0-442.1c117.7,0,235.3,0,353,0C394,517.3,394,664.5,394,811.9z
				 M145.7,426.5c0,109.8,0,219.2,0,328.8c-1.9,0-3.4,0-4.9,0c-20.4,0-40.8,0-61.3-0.1c-2.3,0-3.5,0.8-4.8,2.6
				c-3.5,4.8-5.1,9.9-4.4,15.8c0.2,1.3,0,2.7,0,4.1c0,4.5,0,4.5,4.4,4.5c26.5,0.1,52.9,0.3,79.4,0.3c67.9-0.1,135.8-0.2,203.8-0.4
				c1.6,0,3.2,0.1,4.7-0.1c0.7-0.1,1.9-1.1,1.9-1.7c0.2-7.6,1.8-15.4-3.8-22.1c-1.5-1.8-2.7-3-5.2-3c-20.6,0.1-41.3,0-61.9,0
				c-1.3,0-2.6,0-4,0c0-109.7,0-219.1,0-328.7c1.7,0,3,0,4.4,0c20.5,0,41,0,61.6-0.1c1.4,0,3.4-0.7,4.2-1.7c3.5-4.5,6-9.5,4.9-15.5
				c-0.3-1.8-0.2-3.8-0.1-5.6c0.2-2.7-0.6-3.8-3.6-3.8c-95.6,0.1-191.3,0.1-286.9,0.1c-1.1,0-2.2,0.2-3.5,0.3c0.2,8.3-2,16.6,4,23.7
				c1.5,1.8,2.6,2.8,5,2.8c20.4-0.1,40.8,0,61.3,0C142.4,426.5,143.8,426.5,145.7,426.5z"/>
		</g>
	</g>
</g>
</svg>
