<?xml version="1.0" encoding="UTF-8"?>
<svg width="228px" height="403px" viewBox="0 0 228 403" version="1.1" xmlns="http://www.w3.org/2000/svg" xmlns:xlink="http://www.w3.org/1999/xlink">
    <!-- Generator: Sketch 47.1 (45422) - http://www.bohemiancoding.com/sketch -->
    <title>Untitled 2</title>
    <desc>Created with Sketch.</desc>
    <defs></defs>
    <g id="Page-1" stroke="none" stroke-width="1" fill="none" fill-rule="evenodd">
        <path d="M116.131911,0.0180928573 C85.2965368,-0.282256048 53.903372,3.14623565 29.0977704,11.0956935 C18.438066,14.512207 10.0095248,20.7292058 5.0220346,29.1568531 C0.034544366,37.5845004 -1.42339928,48.1507927 1.4865883,59.8845127 C5.80834982,77.3110065 11.9518705,92.429462 19.3819303,106.219589 C20.64496,108.563964 22.011771,110.723928 23.6593546,112.461214 C25.3069382,114.198634 27.3208849,115.562853 29.7436547,115.865705 C83.3818573,122.570815 147.867482,121.499929 198.091004,114.975296 C201.33513,114.553824 204.787622,111.836515 208.033804,105.259545 C215.73248,89.6610674 222.025951,72.9720375 226.793543,53.1990679 C230.89925,36.1690168 218.217509,16.9806548 199.837229,11.3151448 C177.248041,4.35214544 146.967777,0.319335658 116.12838,0.0194337006 L116.131911,0.0180928573 Z M116.096155,4.76691298 C146.57844,5.0627924 176.527964,8.97510507 198.477569,15.7399278 C214.573052,20.7010481 225.679258,38.0640753 222.291394,52.1156665 C217.602464,71.5645989 211.443524,87.8866848 203.881168,103.210736 C200.985751,109.077373 198.545058,110.250611 197.500094,110.386483 C147.714582,116.853817 83.4434914,117.908614 30.3237482,111.268132 C29.2906731,111.138964 28.2147357,110.533484 27.0240222,109.277829 C25.8332639,108.022174 24.6192196,106.169933 23.4623847,104.022617 C16.1972486,90.5377555 10.220663,75.8090385 5.99477174,58.7691545 C3.32479511,48.0030765 4.68400799,38.8343898 9.01515542,31.51562 C13.3462581,24.1968502 20.7287627,18.6515691 30.5160251,15.5144427 C54.5962305,7.79654848 85.6157469,4.47259787 116.097585,4.76847729 L116.096155,4.76691298 Z" id="Shape" fill="#000000" fill-rule="nonzero"></path>
        <path d="M204.469553,116 C136.667576,124.468766 83.775776,124.955493 27,116.68964 C54.0586653,204.546165 53.7239014,244.440723 54.3491814,286.042622 C55.3504785,286.995202 55.3616075,287.836581 57.753672,288.617801 C58.0115608,290.159726 58.4526089,292.354732 59.3249616,293.689765 C59.9159159,294.594074 61.156777,295.456281 62.0572874,296.046699 C62.3093659,297.694327 62.7091607,299.823855 63.4627147,301.144585 C64.2617679,302.545096 66.8584898,304.322116 66.8584898,304.322116 C98.1046088,309.223792 131.312829,307.611115 162.558948,304.810987 C162.558948,304.810987 165.744881,302.591623 166.810181,300.90891 C167.518235,299.790557 168.157594,297.857776 168.617146,296.194952 C169.734024,295.435721 171.090063,294.437553 171.803392,293.45391 C172.643073,292.295958 173.330031,290.367915 173.837362,288.70509 C175.407534,288.098761 176.67919,287.451044 177.355332,286.740978 C175.398685,230.193145 190.197036,171.946911 204.468972,116.002458 L204.469553,116 Z M116.067753,175.832899 C129.711728,175.832899 140.824637,186.945808 140.824637,200.589783 C140.824637,214.233758 129.711728,225.337728 116.067753,225.337728 C102.423778,225.337728 91.3198075,214.233758 91.3198075,200.589783 C91.3198075,186.945808 102.423778,175.832899 116.067753,175.832899 Z M116.067753,180.302377 L116.067753,200.589783 L116.067753,220.868251 C127.296422,220.868251 136.355159,211.818452 136.355159,200.589783 C136.355159,189.361114 127.296422,180.302377 116.067753,180.302377 Z" id="Shape" fill="#000000" fill-rule="nonzero"></path>
        <path d="M65.7371082,304.000045 L65.7371082,321.373799 C98.2918903,321.577249 131.389267,323.441826 160.905698,314.187325 L160.664346,304.225753 L65.7371082,304 L65.7371082,304.000045 Z M160.190582,321.373799 C131.066571,329.494393 99.6157496,328.744861 69.3082209,325.305732 L63.3575582,332.031402 C98.893482,334.458776 137.774363,337.422487 162.566556,323.687781 L160.190224,321.373754 L160.190582,321.373799 Z M159.833023,335.624728 C130.709012,343.745323 99.2581914,343.005177 68.9506627,339.566093 L63,346.282377 C98.5359238,348.70975 137.416805,351.673461 162.208998,337.938756 L159.832621,335.624728 L159.833023,335.624728 Z M160.306341,349.066683 C131.18233,357.187277 99.7315091,356.437746 69.4239804,352.998617 L63.4733177,359.714901 C99.0092415,362.142274 137.890122,365.115371 162.682316,351.380666 L160.305939,349.066638 L160.306341,349.066683 Z M160.547693,362.264157 C131.423682,370.384751 99.9728609,369.644605 69.6653322,366.205521 L63.7146695,372.921805 C99.2505933,375.349179 138.131474,378.322275 162.923667,364.58757 L160.547291,362.264157 L160.547693,362.264157 Z M143.063096,387.624421 C125.202169,389.105874 106.418742,389.99092 84.7766365,389.016573 C87.1302188,390.974652 89.1986484,392.390269 95.2383431,401.527536 C110.475687,404.009392 121.976994,402.858457 132.82531,401.066643 C133.064427,397.539689 139.367732,392.273839 143.064884,387.624689 L143.063096,387.624421 Z" id="Shape" fill="#000000" fill-rule="nonzero"></path>
        <path stroke="#000000" stroke-width="1.2" transform="translate(165,300) scale(3,3)" fill="none" d="M11 9.791v-9.791l8 7-5.586 4.972 5.586 5.028-8 7v-9.847l-4.659 4.211-1.341-1.484 5.431-4.908-5.431-4.908 1.341-1.484 4.659 4.211zm1.998 9.803l2.987-2.614-2.989-2.686.002 5.3zm.002-9.948l2.974-2.636-2.974-2.602v5.238z"/>
    </g>
</svg>