<?xml version="1.0" encoding="UTF-8" standalone="no"?>
<svg
   xmlns:dc="http://purl.org/dc/elements/1.1/"
   xmlns:cc="http://creativecommons.org/ns#"
   xmlns:rdf="http://www.w3.org/1999/02/22-rdf-syntax-ns#"
   xmlns:svg="http://www.w3.org/2000/svg"
   xmlns="http://www.w3.org/2000/svg"
   xmlns:sodipodi="http://sodipodi.sourceforge.net/DTD/sodipodi-0.dtd"
   xmlns:inkscape="http://www.inkscape.org/namespaces/inkscape"
   inkscape:version="1.0 (4035a4fb49, 2020-05-01)"
   sodipodi:docname="icon.svg"
   xml:space="preserve"
   viewBox="0 0 50.3 50.3"
   y="0px"
   x="0px"
   id="Layer_1"
   version="1.2"><metadata
   id="metadata19"><rdf:RDF><cc:Work
       rdf:about=""><dc:format>image/svg+xml</dc:format><dc:type
         rdf:resource="http://purl.org/dc/dcmitype/StillImage" /></cc:Work></rdf:RDF></metadata><defs
   id="defs17" /><sodipodi:namedview
   inkscape:document-rotation="0"
   inkscape:current-layer="Layer_1"
   inkscape:window-maximized="1"
   inkscape:window-y="-8"
   inkscape:window-x="-8"
   inkscape:cy="28.905558"
   inkscape:cx="34.995315"
   inkscape:zoom="6.6352765"
   showgrid="false"
   id="namedview15"
   inkscape:window-height="987"
   inkscape:window-width="1680"
   inkscape:pageshadow="2"
   inkscape:pageopacity="0"
   guidetolerance="10"
   gridtolerance="10"
   objecttolerance="10"
   borderopacity="1"
   bordercolor="#666666"
   pagecolor="#ffffff" />






<path
   sodipodi:nodetypes="cssssccsscccscc"
   id="path849"
   d="m 13.337801,10.323609 c 0,0 1.902707,-1.7687623 5.651611,-5.3501915 0.272884,-0.2606937 1.441247,-0.3067199 1.959225,-0.2260645 6.527817,1.0164591 13.966618,2.2862594 17.331606,2.8634828 0.476761,0.081783 0.746158,0.54371 0.620339,0.5895175 l -0.243564,0.088676 V 40.540888 c 0,0 0.414304,0.498323 0.292669,0.416737 C 38.474276,40.638746 38.341091,40.485517 37.978824,40.465533 35.774453,40.34393 20.647218,39.410566 20.647218,39.410566 l -1.657806,0.150709 -5.576256,2.260645 c 0,0 -0.02804,0.295582 0.07536,0.301419 4.264492,0.240712 19.290831,1.205677 19.290831,1.205677 l 6.183666,-2.365123"
   style="fill:none;stroke:#000000;stroke-width:0.6;stroke-linecap:butt;stroke-linejoin:miter;stroke-miterlimit:4;stroke-dasharray:none;stroke-opacity:1" /><path
   sodipodi:nodetypes="cc"
   id="path851"
   d="M 13.413156,41.82192 13.526188,10.248254"
   style="fill:none;stroke:#000000;stroke-width:0.6;stroke-linecap:butt;stroke-linejoin:miter;stroke-miterlimit:4;stroke-dasharray:none;stroke-opacity:1" /><path
   sodipodi:nodetypes="cc"
   id="path853"
   d="M 19.008251,4.9357401 18.989412,39.561275"
   style="fill:none;stroke:#000000;stroke-width:0.3;stroke-linecap:butt;stroke-linejoin:miter;stroke-miterlimit:4;stroke-dasharray:none;stroke-opacity:1" /><path
   sodipodi:nodetypes="cc"
   id="path855"
   d="M 20.647218,39.410566 V 4.7285143"
   style="fill:none;stroke:#000000;stroke-width:0.3;stroke-linecap:butt;stroke-linejoin:miter;stroke-miterlimit:4;stroke-dasharray:none;stroke-opacity:1" /><path
   sodipodi:nodetypes="cc"
   id="path857"
   d="M 32.779347,43.329016 V 40.154694"
   style="fill:none;stroke:#000000;stroke-width:0.3;stroke-linecap:butt;stroke-linejoin:miter;stroke-miterlimit:4;stroke-dasharray:none;stroke-opacity:1" /></svg>
