<?xml version="1.0" encoding="UTF-8"?>
<svg width="750px" height="960px" viewBox="0 0 750 960" version="1.1" xmlns="http://www.w3.org/2000/svg" xmlns:xlink="http://www.w3.org/1999/xlink">
    <!-- Generator: Sketch 57.1 (83088) - https://sketch.com -->
    <title>socket_hue</title>
    <desc>Created with Sketch.</desc>
    <g id="socket_hue" stroke="none" stroke-width="1" fill="none" fill-rule="evenodd">
        <g id="Group" transform="translate(375.000000, 523.500000) scale(-1, 1) translate(-375.000000, -523.500000) translate(0.000000, 99.000000)" fill="#000000" fill-rule="nonzero">
            <path d="M134,98.4838178 L616,98.4838178 C690.006156,98.4838178 750,158.477661 750,232.483818 L750,714.483818 C750,788.489974 690.006156,848.483818 616,848.483818 L134,848.483818 C59.9938435,848.483818 0,788.489974 0,714.483818 L0,232.483818 C0,158.477661 59.9938435,98.4838178 134,98.4838178 Z M134,110.483818 C66.6212605,110.483818 12,165.105078 12,232.483818 L12,714.483818 C12,781.862557 66.6212605,836.483818 134,836.483818 L616,836.483818 C683.378739,836.483818 738,781.862557 738,714.483818 L738,232.483818 C738,165.105078 683.378739,110.483818 616,110.483818 L134,110.483818 Z" id="Rectangle"></path>
            <path d="M748.142517,203.55787 L736.504438,206.482785 L687.049387,9.7544178 L686.489126,7.42046742 C684.631631,-0.317541596 696.203335,-3.16007274 698.142517,4.55787044 L748.142517,203.55787 Z M736.504255,206.482057 L686.504255,7.48205679 L692.323386,6.01996362 L698.157646,4.61945981 L698.702594,6.8910928 L748.142334,203.557142 C750.092762,211.31574 738.453713,214.240898 736.504255,206.482057 Z" id="Path-5"></path>
        </g>
        <path d="M747.780982,302.518567 L736.156733,305.442917 L686.760451,108.752534 L686.200856,106.419035 C684.345568,98.6825197 695.903521,95.8405374 697.840399,103.55699 L747.780982,302.518567 Z M736.15655,305.442189 L686.215967,106.480612 L692.028183,105.018801 L697.85551,103.618568 L698.399811,105.889762 L747.780799,302.517839 C749.72891,310.274938 738.103691,313.199532 736.15655,305.442189 Z" id="Path-5" fill="#000000" fill-rule="nonzero"></path>
        <path d="M374.5,884 C547.088984,884 687,744.088984 687,571.5 C687,398.911016 547.088984,259 374.5,259 C201.911016,259 62,398.911016 62,571.5 C62,744.088984 201.911016,884 374.5,884 Z M374.5,877.703023 C205.38874,877.703023 68.2969772,740.61126 68.2969772,571.5 C68.2969772,402.38874 205.38874,265.296977 374.5,265.296977 C543.61126,265.296977 680.703023,402.38874 680.703023,571.5 C680.703023,740.61126 543.61126,877.703023 374.5,877.703023 Z" id="Oval" fill="#000000" fill-rule="nonzero"></path>
        <path d="M374.5,866 C537.147859,866 669,734.147859 669,571.5 C669,408.852141 537.147859,277 374.5,277 C211.852141,277 80,408.852141 80,571.5 C80,734.147859 211.852141,866 374.5,866 Z M374.5,859.703207 C215.329764,859.703207 86.2967925,730.670236 86.2967925,571.5 C86.2967925,412.329764 215.329764,283.296793 374.5,283.296793 C533.670236,283.296793 662.703207,412.329764 662.703207,571.5 C662.703207,730.670236 533.670236,859.703207 374.5,859.703207 Z" id="Oval" fill="#000000" fill-rule="nonzero"></path>
        <path d="M374.5,866 C537.147859,866 669,734.147859 669,571.5 C669,408.852141 537.147859,277 374.5,277 C211.852141,277 80,408.852141 80,571.5 C80,734.147859 211.852141,866 374.5,866 Z M374.5,859.703207 C215.329764,859.703207 86.2967925,730.670236 86.2967925,571.5 C86.2967925,412.329764 215.329764,283.296793 374.5,283.296793 C533.670236,283.296793 662.703207,412.329764 662.703207,571.5 C662.703207,730.670236 533.670236,859.703207 374.5,859.703207 Z" id="Oval" fill="#000000" fill-rule="nonzero"></path>
        <path d="M375,92 C406.263037,92 432,78.6549082 432,61 C432,43.3450918 406.263037,30 375,30 C343.736963,30 318,43.3450918 318,61 C318,78.6549082 343.736963,92 375,92 Z M375,86 C346.616284,86 324,74.2730378 324,61 C324,47.7269622 346.616284,36 375,36 C403.383716,36 426,47.7269622 426,61 C426,74.2730378 403.383716,86 375,86 Z" id="Oval" fill="#000000" fill-rule="nonzero"></path>
        <path d="M464,480.000612 C464,462.878935 477.878935,449 494.999388,449 C512.121065,449 526,462.878935 526,480.000612 C526,497.121065 512.121065,511 494.999388,511 C477.878935,511 464,497.121065 464,480.000612 Z" id="Combined-Shape-path" fill="#000000" fill-rule="nonzero"></path>
        <path d="M225,481.000612 C225,463.878935 238.878661,450 256,450 C273.121339,450 287,463.878935 287,481.000612 C287,498.121065 273.121339,512 256,512 C238.878661,512 225,498.121065 225,481.000612 Z" id="Combined-Shape-path" fill="#000000" fill-rule="nonzero"></path>
        <path d="M135.41344,533.492191 C134.35316,533.492191 133.381664,534.082867 132.895831,535.022915 L104.318624,590.317493 C103.346807,592.197881 104.715343,594.437407 106.836234,594.437407 L142.611039,594.437407 L142.611039,703.171326 C142.611039,706.282722 146.916297,707.108964 148.073738,704.219697 L184.797785,612.547106 C184.93137,612.213643 185,611.857835 185,611.498735 L185,519.826144 C185,518.246737 183.701953,516.974059 182.11879,517.000402 L153.871716,517.486284 C152.839276,517.504012 151.898313,518.080763 151.415992,518.991487 L143.736399,533.492191 L135.41344,533.492191 Z M148.275953,591.612088 C148.275953,590.051708 147.007819,588.786769 145.443496,588.786769 L111.483087,588.786769 L137.139945,539.142829 L145.443496,539.142829 C146.493576,539.142829 147.457484,538.563354 147.947972,537.637207 L155.643008,523.107344 L179.335086,522.700519 L179.335086,610.955145 L148.275953,688.486664 L148.275953,591.612088 Z" id="Path-12" fill="#000000" fill-rule="nonzero"></path>
        <polygon id="Path-13" fill="#000000" fill-rule="nonzero" points="181.012077 519 144 589.351165 148.987923 592 186 521.648835"></polygon>
        <path d="M106.739878,534.344706 C105.170905,534.401251 103.94507,535.712648 104.001899,537.273792 C104.058727,538.834937 105.3767,540.054656 106.945673,539.998111 L146.260158,538.581233 C147.789113,538.52613 149,537.276855 149,535.75453 L149,423.828556 C149,422.266388 147.727262,421 146.15726,421 C144.587259,421 143.314521,422.266388 143.314521,423.828556 L143.314521,533.02657 L106.739878,534.344706 Z" id="Path-14" fill="#000000" fill-rule="nonzero"></path>
        <path d="M143.388764,532.748058 C142.596055,534.096164 143.054206,535.827019 144.412072,536.61403 C145.769939,537.401041 147.513325,536.946184 148.306034,535.598078 L180.611698,480.658044 C180.865995,480.225578 181,479.733801 181,479.233035 L181,382.826473 C181,381.265455 179.725383,380 178.153063,380 C176.580744,380 175.306127,381.265455 175.306127,382.826473 L175.306127,478.468383 L143.388764,532.748058 Z" id="Path-15" fill="#000000" fill-rule="nonzero"></path>
        <path d="M106.556366,587.906307 C108.113619,587.753836 109.50008,588.888 109.653113,590.439534 C113.48487,629.287962 125.754981,666.343241 145.413397,699.411743 L145.4965,699.561739 C145.498094,699.564834 145.499686,699.567924 145.501278,699.571009 C145.958239,699.530695 146.431548,699.600625 146.881645,699.796269 C148.315852,700.419675 148.971273,702.083431 148.345568,703.512371 C147.451858,705.553362 145.41376,706.719659 143.224842,705.509337 C142.138769,704.908813 141.343596,703.849644 140.495356,702.217192 C120.441961,668.460579 107.924243,630.637852 104.013801,590.991681 C103.860768,589.440147 104.999113,588.058778 106.556366,587.906307 Z M178.166762,380 C179.731516,380 181,381.263825 181,382.822833 C181,384.38184 179.731516,385.645666 178.166762,385.645666 C177.46747,385.645666 176.609479,386.130011 175.524432,387.387665 C138.608921,428.572606 115.375718,480.495359 109.652072,536.40536 C109.493296,537.956321 108.102646,539.085383 106.545968,538.92719 C104.98929,538.768998 103.856066,537.383455 104.014842,535.832494 C109.860543,478.730237 133.591998,425.693965 171.262068,383.66798 C173.299131,381.305363 175.611509,380 178.166762,380 Z" id="Shape" fill="#000000" fill-rule="nonzero"></path>
        <path d="M595.41344,533.492191 C594.35316,533.492191 593.381664,534.082867 592.895831,535.022915 L564.318624,590.317493 C563.346807,592.197881 564.715343,594.437407 566.836234,594.437407 L602.611039,594.437407 L602.611039,703.171326 C602.611039,706.282722 606.916297,707.108964 608.073738,704.219697 L644.797785,612.547106 C644.93137,612.213643 645,611.857835 645,611.498735 L645,519.826144 C645,518.246737 643.701953,516.974059 642.11879,517.000402 L613.871716,517.486284 C612.839276,517.504012 611.898313,518.080763 611.415992,518.991487 L603.736399,533.492191 L595.41344,533.492191 Z M608.275953,591.612088 C608.275953,590.051708 607.007819,588.786769 605.443496,588.786769 L571.483087,588.786769 L597.139945,539.142829 L605.443496,539.142829 C606.493576,539.142829 607.457484,538.563354 607.947972,537.637207 L615.643008,523.107344 L639.335086,522.700519 L639.335086,610.955145 L608.275953,688.486664 L608.275953,591.612088 Z" id="Path-12" fill="#000000" fill-rule="nonzero" transform="translate(604.500000, 611.500000) scale(-1, 1) translate(-604.500000, -611.500000) "></path>
        <polygon id="Path-13" fill="#000000" fill-rule="nonzero" transform="translate(586.000000, 555.500000) scale(-1, 1) translate(-586.000000, -555.500000) " points="602.012077 519 565 589.351165 569.987923 592 607 521.648835"></polygon>
        <path d="M602.739878,534.344706 C601.170905,534.401251 599.94507,535.712648 600.001899,537.273792 C600.058727,538.834937 601.3767,540.054656 602.945673,539.998111 L642.260158,538.581233 C643.789113,538.52613 645,537.276855 645,535.75453 L645,423.828556 C645,422.266388 643.727262,421 642.15726,421 C640.587259,421 639.314521,422.266388 639.314521,423.828556 L639.314521,533.02657 L602.739878,534.344706 Z" id="Path-14" fill="#000000" fill-rule="nonzero" transform="translate(622.500000, 480.500000) scale(-1, 1) translate(-622.500000, -480.500000) "></path>
        <path d="M568.388764,532.748058 C567.596055,534.096164 568.054206,535.827019 569.412072,536.61403 C570.769939,537.401041 572.513325,536.946184 573.306034,535.598078 L605.611698,480.658044 C605.865995,480.225578 606,479.733801 606,479.233035 L606,382.826473 C606,381.265455 604.725383,380 603.153063,380 C601.580744,380 600.306127,381.265455 600.306127,382.826473 L600.306127,478.468383 L568.388764,532.748058 Z" id="Path-15" fill="#000000" fill-rule="nonzero" transform="translate(587.000000, 458.500000) scale(-1, 1) translate(-587.000000, -458.500000) "></path>
        <path d="M570.556366,587.906307 C572.113619,587.753836 573.50008,588.888 573.653113,590.439534 C577.48487,629.287962 589.754981,666.343241 609.413397,699.411743 L609.4965,699.561739 C609.498094,699.564834 609.499686,699.567924 609.501278,699.571009 C609.958239,699.530695 610.431548,699.600625 610.881645,699.796269 C612.315852,700.419675 612.971273,702.083431 612.345568,703.512371 C611.451858,705.553362 609.41376,706.719659 607.224842,705.509337 C606.138769,704.908813 605.343596,703.849644 604.495356,702.217192 C584.441961,668.460579 571.924243,630.637852 568.013801,590.991681 C567.860768,589.440147 568.999113,588.058778 570.556366,587.906307 Z M642.166762,380 C643.731516,380 645,381.263825 645,382.822833 C645,384.38184 643.731516,385.645666 642.166762,385.645666 C641.46747,385.645666 640.609479,386.130011 639.524432,387.387665 C602.608921,428.572606 579.375718,480.495359 573.652072,536.40536 C573.493296,537.956321 572.102646,539.085383 570.545968,538.92719 C568.98929,538.768998 567.856066,537.383455 568.014842,535.832494 C573.860543,478.730237 597.591998,425.693965 635.262068,383.66798 C637.299131,381.305363 639.611509,380 642.166762,380 Z" id="Shape" fill="#000000" fill-rule="nonzero" transform="translate(606.500000, 543.000000) scale(-1, 1) translate(-606.500000, -543.000000) "></path>
        <path d="M62.9877347,106.150787 C74.7191698,53.2282403 121.499281,14.9827497 175.965637,14.9827497 L573.162899,14.9827497 C627.38549,14.9827497 674.015328,52.8904904 685.993801,105.496534 L687.323957,111.338199 L699,108.676227 L697.669844,102.834562 C684.459518,44.8185706 633.019017,3 573.162899,3 L175.965637,3 C115.840455,3 64.2344894,45.1909103 51.2966054,103.555958 L50,109.405171 L61.6911293,112 L62.9877347,106.150787 Z" id="Shape" fill="#000000" fill-rule="nonzero"></path>
        <path d="M179,616.866922 C226.362898,675.943719 297.782782,711 374.954495,711 C452.177408,711 523.639609,675.896883 571,616.753336 L566.31617,613 C520.082884,670.73602 450.335999,704.996552 374.954495,704.996552 C299.622962,704.996552 229.917396,670.78174 183.681665,613.110884 L179,616.866922 Z" id="Path" fill="#000000" fill-rule="nonzero"></path>
    </g>
</svg>