<svg height="960" viewBox="0 0 960 960" width="960" xmlns="http://www.w3.org/2000/svg"><g fill="none" fill-rule="evenodd"><path d="m773 4h-586c-101.0681092 0-183 81.9318908-183 183v586c0 101.068109 81.9318908 183 183 183h586c101.068109 0 183-81.931891 183-183v-586c0-101.0681092-81.931891-183-183-183zm-586 40h586c78.976719 0 143 64.023281 143 143v586c0 78.976719-64.023281 143-143 143h-586c-78.976719 0-143-64.023281-143-143v-586c0-78.976719 64.023281-143 143-143z" fill="#000" fill-rule="nonzero"/><g transform="translate(130 130)"><path d="m463 347.000947c0-26.510983 21.042256-48.000947 46.999072-48.000947 25.958672 0 47.000928 21.489964 47.000928 48.000947 0 26.509089-21.042256 47.999053-47.000928 47.999053-25.956816 0-46.999072-21.489964-46.999072-47.999053z" fill="#000" fill-rule="nonzero"/><path d="m145 347.000947c0-26.510983 21.041841-48.000947 47-48.000947s47 21.489964 47 48.000947c0 26.509089-21.041841 47.999053-47 47.999053s-47-21.489964-47-47.999053z" fill="#000" fill-rule="nonzero"/><g stroke="#000"><ellipse cx="351" cy="350" rx="351" ry="350" stroke-width="30"/><path d="m79 142v163.584l-54.3030303.000906v84.679245l54.3030303-.000151v159.736c-22.5432183-35.485996-37.6517551-64.382424-45.3256104-86.689285-7.6738554-22.306862-13.8986519-60.151174-18.6743896-113.532937 6.5966767-55.477775 13.930948-95.391288 22.0028139-119.740539 8.0718658-24.349252 22.0709279-53.694998 41.9971861-88.037239z" fill="#000" stroke-linejoin="round" stroke-width="10"/><path d="m687 142v163.584l-54.30303.000906v84.679245l54.30303-.000151v159.736c-22.543218-35.485996-37.651755-64.382424-45.32561-86.689285-7.673856-22.306862-13.898652-60.151174-18.67439-113.532937 6.596677-55.477775 13.930948-95.391288 22.002814-119.740539 8.071866-24.349252 22.070928-53.694998 41.997186-88.037239z" fill="#000" stroke-linejoin="round" stroke-width="10" transform="matrix(-1 0 0 1 1310 0)"/></g></g></g></svg>