<svg height="960" viewBox="0 0 960 960" width="960" xmlns="http://www.w3.org/2000/svg"><g fill="#000" fill-rule="evenodd"><path d="m473.485249 21.9606675c-18.021848.0326668-33.168303 7.11562-49.199692 23.9961089l-1.013721 1.079189-1.016284 1.1053971c-.169606.1864255-.339328.3739493-.50917.5625748-.319236.3545428-.640177.7143512-.962845 1.0794665l-.973211 1.1113083c-.163074.1878853-.326585.3771076-.490537.5676722l-.989024 1.159536c-.331453.3919086-.664693.7892275-.999742 1.191998l-1.0106 1.2247082-1.0216 1.2576664c-.171192.2123714-.342847.4261264-.514969.6412701l-1.038364 1.3075692-1.049715 1.3411477c-.175906.2263366-.352292.4540827-.529159.6832434l-1.067007 1.3919809-1.07871 1.4261799-1.090556 1.4606271c-.548262.7389666-1.101019 1.4909439-1.65835 2.2560716l-1.120783 1.5478304-1.133121 1.5831459c-.18989.2668144-.380299.5351107-.571232.8048939l-1.151891 1.6365846-1.164582 1.6725205-1.177412 1.7087046-1.190384 1.7451368c-.199486.2939059-.399518.5893402-.6001.886308l-1.210105 1.8002503-1.223428 1.8373029-1.236894 1.8746036-1.250498 1.9121524-1.264245 1.9499493c-.211861.3281551-.4243.6578954-.637321.9892261l-1.285128 2.00711-1.299227 2.0455273-1.313465 2.0841928-1.327846 2.1231063-1.342366 2.1622681-1.357029 2.2016774-2.063341 3.376954-2.097123 3.467021-1.417083 2.361798-1.43245 2.402449-1.447957 2.443348-1.463604 2.484495-1.479393 2.525889-2.249001 3.866993-2.285318 3.961527-1.543956 2.693951-1.560448 2.736586-1.577082 2.77947-1.593857 2.822602-1.610772 2.865982-1.627829 2.909611c-.272734.488584-.546184.978997-.820354 1.471243-35.259188 63.304569-61.956643 153.84679-68.979452 246.781268l-.252952 3.464907c-7.970831 113.160367 12.718041 223.683498 66.931458 321.946435l.892578 1.605597.597425 1.430657.933865 2.299811.820752 2.060768.864891 2.202581.894292 2.3069.908953 2.373727.908876 2.403063 1.078215 2.892186.744227 2.025876.706265 1.948767.447597 1.250484.63329 1.793901.583681 1.685171.529706 1.564583.37719 1.142378.437308 1.368793.205467.674354.211926 1.909484.178566 1.722254.177739 1.814247.314076 3.445749.27805 3.284617.292163 3.648848.31548 4.126801.573339 13.463553.128879 3.38132.141059 4.122319.109889 3.820775.066059 2.881896.015746.811046c.228888 10.720955.228888 20.839892.00242 30.26889-.007688.320093-.011533.640266-.011533.960451v3.350806c0 8.246588 2.548843 16.291624 7.297581 23.033709l26.079865 37.027241c.6008.852995 1.234745 1.682157 1.900378 2.485583l17.00374 20.523685.492281.582785.417297.475941.184195.245309c9.154625 12.08398 21.075874 18.440073 37.723643 20.834708l1.257476.172197c2.532798.32965 5.173045.571161 7.927356.730494.769224.044498 1.539573.066761 2.310083.066761h.242652c.75899 0 1.517826-.021602 2.275588-.064781.683299-.038935 1.359799-.082717 2.029594-.131463l1.330677-.10415 1.312963-.117602c18.692981-1.783075 31.978433-7.777714 42.066152-20.80446l.486517-.637366.138104-.186647.421481-.478459c.165894-.19263.329985-.386881.492249-.582728l17.004346-20.523685c.665796-.803595 1.29989-1.632936 1.900825-2.486122l26.079864-37.027241c4.748738-6.742085 7.297581-14.787121 7.297581-23.033709v-3.350806l-.002898-.481463-.008693-.481394c-.213644-8.872882-.226212-18.356965-.035674-28.378939l.035014-1.751417.110831-4.111493.155462-4.941351.189379-5.307486.290836-7.373974.289397-6.869733.40637-5.269543.325452-3.986439.2665-3.063403.260528-2.791493.172953-1.735403.218096-2.054823.140101-1.250896.277608-.961246.296349-.987273.375912-1.216264.319833-1.01226.523765-1.624837.774162-2.346474.63218-1.879312.671832-1.968362.467899-1.355785.843806-2.417762.880239-2.487737.881746-2.459069.865191-2.381109.830577-2.253858.941778-2.509763.712123-1.852889-1.121718 1.997156c56.743254-100.228223 78.212869-213.510181 69.617911-329.545012-6.840789-92.352974-33.12789-182.409701-67.99407-245.85882l-1.059166-1.914531-2.471731-4.422859-1.626052-2.892928-1.608808-2.848711-2.381199-4.190722-2.343222-4.092676-1.541294-2.674409c-.255503-.44215-.510317-.882511-.764446-1.321088l-1.51658-2.610105-1.500287-2.567554-1.48414-2.525262-1.46814-2.483226-1.452286-2.441446-1.436578-2.399922-1.421017-2.358656-1.405602-2.317645-1.390333-2.276892-1.375211-2.2363946-1.360234-2.1961539-1.345406-2.1561697-1.330721-2.116442-1.316185-2.076971-1.301795-2.0377563c-.215774-.3363725-.430955-.6711216-.645546-1.0042529l-1.280483-1.9794154-1.266458-1.9408422-1.252579-1.9025253c-.207615-.3139088-.414658-.6262317-.621132-.9369741l-1.232036-1.8455312c-.204209-.3044417-.407856-.6073137-.610942-.9086212l-1.211822-1.7891142-1.19853-1.7518235-1.185382-1.7147893-1.172383-1.6780117c-.194322-.2766181-.388108-.5517144-.581362-.8252944l-1.153156-1.6233262c-.191136-.2675359-.381745-.5335661-.571831-.7980959l-1.134259-1.5692179c-.188005-.2585499-.375492-.5156101-.562465-.7711861l-1.115692-1.5156867c-.369857-.4993202-.737681-.992746-1.103496-1.48032l-1.091448-1.4452097-1.079544-1.410356-1.067788-1.3757588-1.056178-1.3414181-1.044714-1.3073339c-.346344-.4301258-.690801-.8546136-1.033397-1.2735062l-1.022226-1.2399352c-.508344-.6116175-1.012555-1.2107421-1.512713-1.797518l-.994938-1.1571296c-.824654-.9506252-1.638205-1.8672157-2.441034-2.7504395-8.654632-9.5213037-16.994396-16.278524-26.172106-20.6520937-5.090965-2.4260619-10.27128-4.0236259-15.543007-4.8542127-2.162687-.3407421-4.226753-.5372957-6.28541-.6317804l-.465235-.0199684-.860805-.0282943c-.139107-.0035616-.27716-.0065926-.41585-.0091629l-.853298-.0129914zm80.996532 144.0498005c56.186872 100.879824 113.190516 330.766422 2.963339 532.057244l-3.42306 6.148515-.074274.147851-.088947.190026-.219947.501434-.427676 1.036313-.437554 1.101971-.947703 2.46213-1.115385 2.977621-1.238256 3.375919-1.316319 3.657025-1.349571 3.820938-.572449 1.644216-.787994 2.289045-.918328 2.711166-.873396 2.632512-.549361 1.690544-.64131 2.018751-.470928 1.524271-.219786.727609-.405237 1.378375-.271541.960412-.164489.602415-.220434.842941-.128556.519234-.163744.710868-.088901.426317-.071997.386425-.054497.344974c-.382178 3.103551-.721338 6.355764-1.035682 9.74413l-.23139 2.566609c-.075769.863915-.150271 1.736145-.223791 2.616494l-.217898 2.665207-.319532 4.086582-.210634 2.78186c-.42358 9.801107-.846556 20.187767-1.089207 29.989711-.242046 11.308969-.242046 22.03071 0 32.083127v3.350806l-26.079865 37.027241-17.004346 20.523685-.42358.335081c-.303933.362921-.578763.725859-.842706 1.086169l-.817511 1.124579-.245062.324594-.255279.323815-.266694.319704-.185773.210616-.193299.208433-.201806.206108-.211294.203641-.221764.201031-.233215.198279-.245647.195384-.259061.192348c-.044349.031796-.089298.063461-.134867.09499l-.28102.187525-.296886.184132c-.101716.060796-.206239.121003-.313734.180597l-.331562.176919-.350373.173098c-.060017.028524-.120859.056882-.182546.085073l-.380427.167101-.40169.162926-.423933.158607c-.072564.026067-.146096.051948-.220615.07764l-.45914.151862-.483837.147188c-.082752.024133-.166574.048067-.251486.071796l-.522722.139909c-.178711.045806-.361947.090773-.549872.134879l-.578003.129705-.607116.124391-.637209.118932-.668284.113333-.700341.10759c-.119449.017446-.240274.034646-.362497.051597l-.750264.09871c-.127893.015947-.257223.03164-.388012.047077l-.802395.089508-.838376.083196c-.142783.013333-.287105.026396-.432988.039187l-.894187.073461-.932621.066794-.972036.059982h-.242652l-.943191-.059018-.905531-.065625-.868796-.072095c-.14179-.012548-.282087-.025359-.420912-.038432l-.815428-.081547-.781006-.087677-.74751-.093673c-.121844-.016104-.242332-.032452-.361482-.049041l-.698999-.10241c-.113875-.017543-.226451-.035322-.337747-.053334l-.65257-.11084c-.106253-.018932-.211264-.038091-.315054-.057473l-.608222-.118966-.579814-.124213c-.09432-.021132-.187495-.042477-.279543-.064032l-.538937-.131828-.512841-.136735-.487671-.141505c-.079233-.023975-.157455-.048142-.234686-.0725l-.451651-.148407c-.073344-.025107-.145737-.0504-.217196-.075874l-.417712-.155002c-.135607-.052379-.267637-.105463-.396242-.159229l-.375699-.163321c-.060956-.027553-.121094-.055271-.180434-.083151l-.346617-.169202c-.112449-.057033-.22186-.114692-.328386-.172953l-.31108-.176567c-.050456-.029722-.100229-.059588-.149339-.089597l-.286856-.181735c-.093068-.061132-.183638-.122809-.271863-.18501l-.257795-.188149-.244652-.191152-.232435-.194019-.221143-.19675-.210776-.199345-.201334-.201804-.192818-.204127-.185226-.206314-.17856-.208365-.257365-.316096-.408718-.535156-.319071-.437126c-.4259-.589685-.849851-1.19137-1.353801-1.793011l-.42358-.335081-17.003741-20.523685-26.079865-37.027241v-3.350806c.241441-10.052417.241441-20.774158 0-32.083127-.109283-5.881167-.32727-11.972831-.575668-18.022215l-.255634-6.025928-.25851-5.941568-.316209-4.155695-.213594-2.712747-.217808-2.665207c-.036748-.440175-.073741-.878319-.111017-1.31441l-.227324-2.591697c-.346914-3.849987-.722419-7.529631-1.15237-11.021126-.042388-.322557-.115166-.712424-.21539-1.162421l-.133254-.568402-.158472-.623371-.182559-.675585-.205516-.725042-.227343-.771743-.248039-.815688-.267605-.856876-.286041-.895307-.303346-.930984-.484994-1.457337-.517572-1.522104-.546336-1.577566-.964118-2.727262-1.015758-2.812418-1.262207-3.426668-1.280616-3.412853-1.268507-3.324619-1.225877-3.161962-1.152728-2.924885-1.04906-2.613387-.773007-1.886181-.662159-1.575114-.438049-1.007182-.269122-.593384-.149003-.313278-.123356-.244213-.051706-.095346c-113.293248-202.26688-55.894711-434.615671.677561-536.185884 54.927266-98.6166829 70.436804-103.7669933 79.34035-104.0352912l.548167-.0135378h1.348703.545849c.184626.0105713.372031.0160977.56252.0242154l.581027.0329521c9.060338.6497784 25.294286 8.5293843 78.46462 103.9916615z" fill-rule="nonzero"/><path d="m473.774419 463.960469c30.334635 0 59.123931 1.294858 85.884805 3.545373l3.90169.336127 3.872392.349534c3.857632.356159 7.670815.732076 11.438034 1.126688l3.141504.334556 3.72358.411203 3.630366.416815 2.367957.280644 2.325775.282614 2.283293.284372 3.344627.429396 2.17577.287849 2.132235.288873 2.088398.289685 2.04426.290287 2.982973.436102 1.400257.210131 1.996493.306228 1.87081.29476 2.296938.3738 3.179511.54626.250102.045764-3.640497 19.665879-1.184704-.209746-2.40754-.405319-2.242561-.361466-1.205464-.189045-3.256469-.494981-1.918079-.282049-1.962484-.281918-3.026318-.422172-3.124518-.4207-2.137061-.279301-2.179946-.278124-2.222526-.276738-2.264802-.275144-2.306775-.273341-2.348444-.271329-2.389809-.269107-3.661606-.39904c-2.497103-.266767-5.015402-.525174-7.554415-.77489l-3.823994-.368015c-.639902-.060236-1.281083-.119919-1.923536-.179043l-3.869924-.347999-3.90009-.334345c-2.610036-.218291-5.239942-.427316-7.889237-.626743l-3.988423-.291903c-22.682783-1.612865-46.748971-2.520482-71.902548-2.520482-31.672441 0-65.687588 2.043389-99.714758 5.450252l-3.089753.313181-3.049889.316697-3.008887.319876-2.966751.322714-2.923478.325216-2.879071.327378-2.833527.329201-2.786848.330687-2.739034.331833-4.016414.499158-2.614529.333218-3.82409.499996-4.111623.556933-4.444649.632758-2.970356-19.778195 1.526064-.22276 2.49624-.352683 3.400545-.465289 3.76741-.498919 2.931334-.3778 2.687224-.339077 2.737597-.338529 2.786846-.337642 2.834975-.336415 2.881982-.334849 2.927866-.332943 2.97263-.330698 3.01627-.328113 3.05879-.325189 3.100188-.321926c.520085-.053363 1.041849-.106577 1.565267-.159633l1.575196-.158689c34.639166-3.468137 69.290577-5.549749 101.707233-5.549749z" fill-rule="nonzero"/><path d="m389.214719 825.960469c-6.527956 38 21.355594 57 83.650651 57s88.84355-19 79.64548-57c-25.166341 6.046899-51.67684 9.070349-79.531498 9.070349s-55.776202-3.02345-83.764633-9.070349z"/><g fill-rule="nonzero"><path d="m390.580915 755.227377.654943.152951 1.328312.301375c.446864.099452.897821.197897 1.352869.295335l1.377417.28929 1.401956.28324 1.426484.277187c.239791.045692.480604.091133.722438.136321l1.463261.268096 1.487766.262031 1.512263.255961 1.536749.249886 1.561226.243806c.262244.040128.525507.080002.78979.119622l1.597924.234679 1.622378.228588 1.646822.222493 1.671257.216392 1.695682.210288 1.720098.204179 1.744504.198065 1.768901.191946 1.793289.185824 1.817667.179696 1.842035.173563 1.866394.167428c.313095.027392.627205.054529.942329.08141l1.902915.158214 1.927251.152065 1.951577.145912 2.972956.207322 2.01235.13051 2.036644.124342 2.060927.118167 2.085201.11199 2.109466.105807 3.209674.147109 2.170087.09033 2.194317.084132 2.21854.077928 2.242753.071721 2.266956.065508 2.291149.059291 2.315334.053069 2.339509.046843 2.363674.040612 2.387831.034377 3.627017.039864 3.681315.025808 2.48436.009389 2.508468.00313v20l-2.593147-.003269-3.844497-.017171-3.790259-.031905-3.736051-.046654-2.460601-.039305-2.436533-.045872-3.609692-.081131-3.555591-.095932-2.340354-.072185-2.316332-.078775-2.29232-.085369-2.268318-.091968-2.244326-.098572-2.220342-.10518-2.196367-.111793c-.364064-.019184-.72713-.038643-1.089197-.058378l-2.160424-.12172-3.195733-.195003-3.141876-.209923-2.06468-.148245-2.040767-.154888-2.016864-.161535-1.99297-.168186-1.969086-.174843-1.945211-.181504-1.921346-.18817-1.897489-.19484-1.873644-.201514-1.849806-.208194-1.825979-.214877-1.80216-.221566-1.778352-.22826c-.294408-.038601-.587825-.077481-.880251-.116641l-1.742656-.238307c-.288461-.040277-.57593-.080832-.862409-.121668l-1.706982-.248366c-.282516-.041953-.564041-.084186-.844577-.126699l-1.671329-.258435-1.647573-.265153c-.272617-.044753-.544243-.089785-.814881-.135098l-1.611956-.275239-1.588222-.281969-1.564499-.288704-1.540784-.295443-1.51708-.302186c-.250872-.050926-.500756-.102134-.749654-.153623l-1.48154-.31231c-.24495-.052615-.488913-.105511-.731889-.158688l-1.446023-.322444c-.239031-.054305-.477076-.10889-.714135-.163758l-.70822-.165449z"/><path d="m390.306553 788.166741.658007.13446 1.334409.264934 1.35893.259613 1.383441.254289c.232616.041937.466253.083653.70091.125147l1.420194.246296 1.444683.240963 1.469165.235626 1.493638.230286 1.518102.224942 1.542556.219595 1.567004.214243 1.591441.208889 1.61587.203531 1.640291.198169 1.664702.192803 1.689105.187435 1.713499.182061 2.615968.263012 1.774446.168614 1.79881.163229 1.823165.15784 1.84751.152448 1.871849.147052 1.896176.141653 1.920497.136249 2.926326.194234 1.981258.122726 3.017428.173932 2.041965.109179 3.108447.153596 2.102618.09561 2.126864.090177 2.1511.084739 3.272076.116906 2.211655.07113 2.235862.06568 2.260059.060226 2.284248.05477 2.308428.049308 2.3326.043844 2.356763.038377 2.380917.032904 3.616644.03909 3.670943.026759 2.477446.010983 3.761372.006179v20l-3.872964-.00642-3.818697-.019269-3.76446-.032129-2.479522-.02857-3.674129-.053591-3.619969-.066484-2.383239-.051492-2.35919-.057231-2.33515-.062973-3.457668-.105236-2.275088-.077346-2.251077-.083102-3.331618-.135452-2.191092-.097506-2.167112-.103274-2.143143-.109046-2.11918-.114821-3.133862-.183068-2.059315-.129274-2.035384-.135063-2.011461-.140854-1.987547-.146649-1.963643-.152447-1.939746-.15825-1.915859-.164055-1.891981-.169865-1.86811-.175678-1.844249-.181494-1.820396-.187315-1.796553-.193138-1.772718-.198965-1.748891-.204797c-.289497-.034619-.578001-.069481-.865513-.104586l-1.713169-.21355-1.689363-.219389-1.665568-.225234c-.275612-.038026-.550233-.076295-.823863-.114809l-1.629891-.234005-1.606116-.239858c-.265705-.040464-.530421-.081172-.794146-.122125l-1.570472-.248643-1.546719-.254505c-.255808-.042906-.510627-.086057-.764456-.129452l-1.511108-.263304c-.249873-.044373-.498758-.08899-.746654-.133853l-1.475516-.272111-1.451798-.277987c-.239991-.046821-.478993-.093887-.717008-.141198l-1.416239-.286808z"/><path d="m361.478371 729.606777 1.914219-19.908184 5.731502.545487 5.616248.523186 5.500948.50089 4.050018.361037 5.299064.461877 6.46151.546005 6.281072.511184 4.894883.383881 3.595315.273291 3.53028.26076 4.605845.328191 2.259539.155744 3.335066.223177 2.187205.141827 4.287577.266954 4.171757.244691 4.055895.222432 2.965858.152218 2.900641.1397 2.835404.127183 1.854017.077836 3.621005.138985 2.63958.08964 1.723437.052809 2.530715.068788 1.650842.038909 2.421797.047939 1.578213.025011 2.312826.027093 1.505548.011115 2.203803.006252 1.582282-.003273 2.418798-.017187 2.473232-.03192 2.527649-.046657 1.715323-.039292 2.618309-.071221 2.672681-.085963 2.727038-.100707 1.848215-.075331 1.872362-.081885 2.853805-.135118 2.908106-.149871 1.968897-.10811 2.998571-.174461 2.029191-.124506 3.08899-.199059 3.143219-.213819 4.275287-.308059 2.173772-.163873 3.305806-.258117 3.359969-.272887 2.270061-.190131 4.612297-.399962 3.522357-.317211 3.576452-.33199 3.630532-.346771 3.684595-.361554 3.73864-.376341 3.79267-.391128 3.846683-.405918 5.212902-.564236 5.308855-.590539 2.239741 19.874194-4.10157.457679-2.703797.296615-4.009837.432165-3.954819.416853-5.18754.531982-3.826513.381116-5.016528.484324-2.471636.231948-3.661686.335151-3.606777.319824-2.374022.204701-2.349632.197887-3.478725.284054-3.423874.268719-3.36904.253384-3.314224.238044-2.179038.150174-3.222901.212475-2.118172.133125-2.093834.126305-3.09513.176667-2.033013.10925-3.003922.151081-2.94922.135728-2.894535.120371-1.899318.071715-1.875026.064889-1.85074.05806-1.826459.051233-2.694172.064045-2.639567.048678-2.584979.033308c-.284188.002847-.567366.005409-.849532.007687l-1.680878.010249-1.656631.003417-2.27267-.006348-1.550844-.011285-1.579433-.016927-2.42277-.035969-1.650934-.03103-2.530046-.057122-2.594438-.069812-3.559449-.112821-2.744759-.099418-2.809214-.112104-2.873688-.124789-2.938181-.137472-3.002693-.150155-4.103975-.219933-2.095023-.118419-2.12372-.124054-4.333554-.265012-4.448411-.287547-3.411711-.230448-4.64952-.326976-3.562594-.260017-4.850766-.366397-3.713581-.289578-5.05215-.405808-3.864671-.319133-3.929455-.331798-5.340082-.462095-5.455334-.484604-6.981309-.637404-7.161548-.672564z"/></g></g></svg>