<?xml version="1.0" encoding="UTF-8"?>
<svg width="285px" height="421px" viewBox="0 0 285 421" version="1.1" xmlns="http://www.w3.org/2000/svg" xmlns:xlink="http://www.w3.org/1999/xlink">
    <!-- Generator: Sketch 47.1 (45422) - http://www.bohemiancoding.com/sketch -->
    <title>Untitled 5</title>
    <desc>Created with Sketch.</desc>
    <defs></defs>
    <g id="Page-1" stroke="none" stroke-width="1" fill="none" fill-rule="evenodd">
        <path d="M142.701649,1.00047667 C64.4325091,1.00075666 0.979999032,15.9533731 0.970665722,34.3959942 L0.588,43.9388373 C0.590473327,48.8546919 5.21610858,53.5176137 13.3121019,57.7199367 L13.3760351,59.9620778 C14.0540068,86.9964777 15.696996,121.734592 19.911219,152.977848 C24.1254419,184.221571 30.2725934,211.815036 42.6975627,225.969001 L77.5243434,265.63557 L82.4919978,368.026651 C84.9823584,378.871957 99.2835564,388.3994 106.563538,390.338862 L107.383843,390.903948 L107.411843,390.913281 L107.411843,399.982459 C103.796165,400.87505 101.649457,402.307713 101.642457,403.837909 C101.644977,403.861242 101.646704,403.886909 101.651791,403.910709 L101.642457,403.910709 L101.642457,416.096745 L101.661124,416.096745 C101.651791,416.144812 101.647124,416.194279 101.642457,416.242345 C101.642457,418.871305 107.848642,421 115.496823,421 C123.144537,421 129.341856,418.871119 129.341856,416.242345 C129.337982,416.194279 129.332522,416.144812 129.323189,416.096745 L129.341856,416.096745 L129.341856,403.910709 L129.332522,403.910709 C129.336022,403.887376 129.336676,403.861709 129.341856,403.837909 C129.340502,402.393113 127.427734,401.031336 124.146468,400.128292 L124.146468,393.602441 C136.648904,395.330037 149.502272,396.108901 162.81064,394.313406 L162.81064,399.836859 C159.194915,400.72945 157.039387,402.162066 157.031921,403.692309 C157.034441,403.715643 157.04592,403.741309 157.050587,403.765109 L157.031921,403.765109 L157.031921,415.951146 L157.05992,415.951146 C157.050587,415.999212 157.036587,416.048212 157.031921,416.096745 C157.031921,418.725659 163.238105,420.8544 170.886286,420.8544 C178.534001,420.8544 184.731319,418.725519 184.731319,416.096745 C184.727445,416.048679 184.721986,415.999679 184.712652,415.951146 L184.731319,415.951146 L184.731319,403.765109 L184.721986,403.765109 C184.725486,403.741776 184.726139,403.716109 184.731319,403.692309 C184.729965,402.247466 182.81715,400.885736 179.535932,399.982692 L179.535932,390.148183 C192.504566,386.211253 200.47148,376.31435 205.530601,365.47511 L206.633471,268.968682 C221.217235,255.783981 229.151016,242.73368 239.764856,230.404844 C256.282949,211.218358 263.570398,182.002297 267.245388,151.207039 C270.920099,120.411315 270.807446,87.8758622 271.274019,62.167259 L271.356152,57.70113 C279.438798,53.5015137 284.04992,48.8494186 284.05272,43.9382307 L284.435386,34.3953876 C284.426053,15.9522998 220.973543,0.99987 142.704403,0.99987 L142.701649,1.00047667 Z M142.911182,7.12546155 C213.592848,7.12490095 270.896348,19.5827922 270.908199,34.9522595 C270.913323,42.3345264 257.430074,49.4148012 233.425288,54.6351508 C209.420501,59.8555005 176.861019,62.7881934 142.911182,62.7879242 C108.962962,62.7876551 76.405878,59.8547246 52.4031102,54.6344332 C28.4003423,49.4141419 14.9183749,42.3341747 14.9234979,34.9522595 C14.9353489,19.5835848 72.2331613,7.12602168 142.911182,7.12546155 L142.911182,7.12546155 Z M22.9174782,61.7019935 L31.2208577,64.627753 C44.9580905,68.7166295 62.7296466,72.0071347 83.0207299,74.2251959 C83.1975961,90.2038232 84.992485,117.887355 92.7549058,143.450358 C97.0633019,157.637923 103.173213,170.987357 111.995525,180.856399 C120.817837,190.725442 132.519941,197.054359 147.287105,196.75196 C161.907268,196.452828 173.182841,189.395445 181.44842,178.923938 C189.714,168.45243 195.165586,154.603664 198.866244,140.1235 C205.355695,114.732229 206.365559,88.1136283 206.568092,73.651664 C221.509321,71.8427751 235.006688,69.4503677 246.30746,66.5695482 L261.838555,61.8207599 C261.441423,86.903098 261.355136,121.759279 257.973958,150.095209 C254.394214,180.094801 246.967185,207.719066 232.681154,224.313692 C219.36812,239.551721 209.649811,254.118219 197.325641,264.991992 L196.21367,362.399085 C192.470173,372.669459 185.575097,380.848239 173.709659,382.624368 C163.384218,384.170011 123.63645,386.354846 111.157814,382.01369 C102.239369,378.911857 91.2003963,370.274719 91.6619285,364.240267 L86.7036074,261.919186 L49.7259654,219.791423 C40.5564547,209.346049 33.3068059,182.365782 29.1726161,151.714258 C25.2624258,122.72453 23.6608297,87.8510823 22.9202315,61.6991468 L22.9174782,61.7019935 Z M201.87437,74.2072293 C201.677904,88.4377275 200.714799,114.243397 194.391388,138.985069 C190.786351,153.090035 185.465477,166.388135 177.821029,176.072378 C170.176581,185.756621 160.401806,191.870872 147.187238,192.141538 C133.760338,192.416404 123.584696,186.895284 115.441383,177.785974 C107.29807,168.676663 101.363951,155.903094 97.1756283,142.111728 C89.6389802,117.292123 87.9146511,90.2885229 87.7419849,74.7018948 C104.55921,76.367704 122.923898,77.3358949 142.318517,77.3359882 C163.631598,77.3358483 183.769615,76.203531 201.87437,74.2097026 L201.87437,74.2072293 Z M132.159209,85.6097345 C118.25491,85.6097345 106.930338,96.9347732 106.930338,110.838606 C106.930338,120.321715 112.202725,128.596162 119.964305,132.904884 C119.959639,133.146617 119.926972,133.38149 119.926972,133.624949 C119.926972,147.529248 131.242678,158.85382 145.146977,158.85382 C159.051276,158.85382 170.375848,147.528782 170.375848,133.624949 C170.375848,133.554016 170.366514,133.485883 170.366514,133.415416 C178.446361,129.207354 183.983814,120.769248 183.983814,111.048138 C183.983814,97.1438394 172.668109,85.8192673 158.76381,85.8192673 C153.949688,85.8192673 149.462233,87.2041906 145.629975,89.5562314 C141.727065,87.0749709 137.114263,85.6096412 132.158742,85.6096412 L132.159209,85.6097345 Z M132.159209,90.2763896 C135.587567,90.2763896 138.764859,91.1893274 141.601719,92.6644104 C136.667664,97.273339 133.535405,103.78505 133.535405,111.048232 C133.535405,111.119165 133.544738,111.187298 133.544738,111.257765 C127.113621,114.607163 122.308833,120.636808 120.611104,127.864524 C115.164184,124.171333 111.596993,117.935748 111.596993,110.838699 C111.596993,99.456727 120.777237,90.276483 132.159209,90.276483 L132.159209,90.2763896 Z M158.764743,90.4859225 C170.146715,90.4859225 179.318092,99.6661665 179.318092,111.048138 C179.318092,118.34772 175.519715,124.702771 169.811649,128.347429 C168.266053,121.128113 163.622731,115.051662 157.342813,111.567537 C157.352146,111.322538 157.380146,111.084865 157.380146,110.838372 C157.380146,103.71659 154.38826,97.302739 149.623699,92.7093503 C152.386405,91.3323604 155.460751,90.4854091 158.765676,90.4854091 L158.764743,90.4859225 Z M145.585175,95.3714437 C149.605966,98.8644351 152.214159,103.855889 152.575825,109.526342 C150.226164,108.800724 147.73137,108.405225 145.147443,108.405225 C142.799789,108.405225 140.533381,108.750091 138.375193,109.353163 C138.839992,103.725643 141.515385,98.7929886 145.584709,95.3713971 L145.585175,95.3714437 Z M145.14791,113.072067 C147.69525,113.072067 150.099698,113.598559 152.348559,114.439257 C151.493674,119.286978 148.936861,123.483234 145.330376,126.516094 C141.763045,123.419488 139.299191,119.147912 138.53106,114.25679 C140.617894,113.546479 142.815842,113.07188 145.148377,113.07188 L145.14791,113.072067 Z M134.101004,116.325985 C135.170928,121.323506 137.746361,125.753562 141.301653,129.177487 C138.539506,130.555177 135.465534,131.401428 132.159675,131.401428 C129.612288,131.401428 127.207887,130.875636 124.959026,130.034238 C125.973931,124.265319 129.356276,119.355531 134.101004,116.325939 L134.101004,116.325985 Z M156.696015,116.599451 C161.298223,119.71757 164.480929,124.680231 165.38206,130.416951 C163.295225,131.127309 161.097277,131.601861 158.764743,131.601861 C155.336898,131.601861 152.160026,130.68729 149.322233,129.21384 C152.904871,125.864115 155.537751,121.530193 156.696015,116.599405 L156.696015,116.599451 Z M145.293509,132.331213 C149.197633,134.810513 153.809688,136.268703 158.764743,136.268703 C161.11235,136.268703 163.378805,135.923837 165.536993,135.320765 C164.663955,145.890272 155.94795,154.188052 145.14791,154.188052 C134.21907,154.188052 125.422425,145.696606 124.731294,134.947433 C127.080954,135.673518 129.575748,136.06855 132.159675,136.06855 C136.973797,136.06855 141.462652,134.683627 145.293509,132.331586 L145.293509,132.331213 Z" id="Shape" fill="#000000" fill-rule="nonzero"></path>
    </g>
</svg>