<svg height="960" viewBox="0 0 960 960" width="960" xmlns="http://www.w3.org/2000/svg"><g fill="#000" fill-rule="evenodd"><g fill-rule="nonzero"><path d="m164.82795 148.629618c178.346426-26.543814 431.671909-26.809252 611.517028-.796314l5.427207.796315-2.944235 19.7821c-176.412973-26.256187-427.774284-26.518748-605.68711-.787686l-5.368662.787686z"/><path d="m473.052814 369.520668-.232814-.004668-.306384-.000376c-33.753423-.329431-60.600655-16.785721-80.53772-46.371186l-.608159-.909776c-14.382266-21.688942-24.8739-49.813743-32.081342-83.031445l-.521522-2.439633c-.085946-.408114-.171406-.81698-.256381-1.226596l-.504037-2.466681c-.083039-.412608-.165595-.82596-.247669-1.240055l-.486672-2.493466c-.320604-1.668227-.633535-3.348262-.938862-5.039947-7.936717-43.973927-9.986668-89.924385-8.743033-129.645677l.10124-3.006731.094877-2.4256184.172362-3.6484723.037313-.6568553 19.963103 1.2143336-.098616 1.8850377-.092111 2.0530885-.068056 1.7099905-.044409 1.2194476-.021822.6332436c-1.312545 38.8123445.625755 84.1465995 8.381145 127.1158715l.444559 2.424013.455396 2.4057c.076804.399416.15406.798064.23177 1.195939l.471698 2.377969c.079523.394777.159501.788777.239933 1.181995l.488052 2.349925c.164504.780171.330831 1.557197.498983 2.331055l.509939 2.312045c6.700513 29.932421 16.184133 55.010669 28.682439 73.858536 16.539397 24.941968 37.683916 38.074887 64.692781 38.335051l.572205.002274.572053-.002274c26.735813-.257536 47.725155-13.129061 64.189486-37.582802l.502598-.752201c12.498146-18.847864 21.981606-43.926113 28.681961-73.858536l.509927-2.312045.498971-2.331054c.1645-.780171.327179-1.563487.488039-2.349925l.477131-2.368656c.471685-2.377975.927042-4.783838 1.366176-7.216962 7.64271-42.346136 9.63586-86.989251 8.435649-125.4235809l-.09893-2.9425378-.090392-2.3120599-.12309-2.6826624-.067667-1.2558522 19.963099-1.2143668.112494 2.1398819.097213 2.1658179.071498 1.7953707.069333 1.9388228c1.356393 40.1065377-.637396 86.7417067-8.687196 131.3434137-.534307 2.960448-1.091901 5.885216-1.673158 8.773466l-.504024 2.466681c-7.222691 34.817403-17.950432 64.215232-32.858693 86.697675-19.997804 30.157743-47.047586 46.948217-81.145245 47.28101l-.307233.000376-.231958.004668z"/><path d="m160.283346 76.4213124c-19.543077 2.9734601-33.983282 19.776912-33.983282 39.5448996v26.430976c0 16.044494 9.58698 30.536437 24.352988 36.812647l.699159.291413c.698167.285253 1.393448.552141 2.086667.80166l.644122.226092.091181 1.389835c6.440479 95.878118 25.350886 182.304189 53.367834 253.210398l.843855 2.12399c26.512558 66.367962 59.749158 115.423116 93.302914 134.97518l.936216.536597.078379.492414c.287285 1.936263.453795 4.326215.47472 7.139135l.006498 6.018677c.001418.894108.003191 1.784592.005319 2.671617l.017041 5.281934.025598 5.206757.034181 5.139442.042788 5.079991.051421 5.028404c.009291.834205.018942 1.666588.028955 2.497314l.064417 4.965766c.01146.824749.023283 1.648167.035468 2.470419l.077469 4.920822.086202 4.900689c.015096.815541.030557 1.63057.046383 2.445252l.099348 4.885232.108144 4.884758c.018758.814524.037884 1.629355.057378 2.444659l.121384 4.89879.130242 4.917974.139125 4.945021.148033 4.979933.156967 5.022707.165925 5.073345.174908 5.131847.279261 7.824662.810745 21.07091.700925 17.927499.233889 6.328087.173938 4.975043.127963 3.89099.135134 4.43331.117176 4.252328c.343359 13.185787 4.541136 23.925069 14.02976 33.491305l1.038284 1.040648.493665.510466.739248.780982.837843.902231 1.455936 1.596326 8.567836 9.613407 1.379694 1.539823 1.284287 1.419593 1.242882 1.362116c.2041.222636.406779.443183.608187.661791l1.19442 1.289624 1.17121 1.250443 1.155279 1.218581c5.878954 6.161975 11.166374 11.107737 16.641139 15.245777 3.973457 3.003293 8.009618 5.549104 12.383991 7.615691 6.677007 3.15442 13.810321 5.071136 21.767836 5.071136h159.457404c7.957709 0 15.091046-1.916828 21.768078-5.071377 4.374204-2.066583 8.410212-4.612359 12.383545-7.615601 5.474614-4.137984 10.761999-9.083727 16.640836-15.245575l1.155311-1.218615 1.171239-1.250475 1.194444-1.28965 1.224921-1.33614 1.262674-1.389942 2.172789-2.420014 7.012784-7.882612 1.462655-1.626717 1.269049-1.392301 1.089971-1.17375.57407-.605945.678702-.700344.448051-.449013c9.65287-9.525292 13.996108-20.207379 14.462161-33.314685l.136458-4.878874.184573-5.965695.221857-6.478787.264511-7.183585 1.212055-30.997887.102138-2.688019.197477-5.312504.18843-5.234343.17941-5.164047.170413-5.101613.161443-5.047043.152497-5.000337.143576-4.961494.13468-4.930515c.021707-.819608.043044-1.638252.064012-2.456097l.121384-4.89879.112551-4.88747.103743-4.884012c.016557-.814151.032749-1.628485.048576-2.443167l.090577-4.893571.081833-4.909773c.012911-.820082.025459-1.641167.037644-2.463419l.068762-4.948819.060078-4.98468.051421-5.028404c.00785-.842148.01534-1.686445.022472-2.533055l.038481-5.108734.029886-5.172117c.004267-.867738.008176-1.738445.011728-2.612284l.017041-5.281934.008508-5.364977c.000709-.901519.001063-1.806827.001063-2.716086 0-3.078415.169161-5.673799.476966-7.748366l.077251-.492414.935433-.535613c33.912993-19.76086 67.500275-69.655183 94.14969-137.100099l.930526-2.369284c27.505281-70.458799 46.068316-156.028527 52.436477-250.839333l.090874-1.391671.64425-.226092c.924291-.332692 1.85225-.696262 2.785826-1.093073 14.766008-6.27621 24.352988-20.768153 24.352988-36.812647v-26.430976c0-19.7679876-14.440205-36.5714395-33.983282-39.5448996-183.159416-27.8675253-442.87402-27.8675253-626.033436 0zm6.016718 39.5448996c177.379508-26.9881177 429.723278-27.2579988 608.60207-.809643l5.39793.809643v26.430976c-2.487178 1.057161-5.729799 1.22306-9.081402 1.15214l-.960008-.026141-1.443803-.055958-3.004184-.136281-.903742-.034304-.888404-.02527-.870001-.013128-.568261-.000474-.55781.007222-.546448.015839-.53418.025374c-.087957.005075-.175364.010586-.262204.016552l-.514071.041404c-3.464168.322325-5.90981 1.473703-6.03191 4.775261-8.402249 226.797718-86.960251 368.974691-132.118441 391.007533-12.345031 6.022334-17.284576 18.802494-18.360226 34.591801l-.0681 1.093643-.056106 1.102911-.044371 1.111906c-.012864.372105-.023814.745662-.032894 1.120628l-.021675 1.129077-.010713 1.137251-.01005 7.877474-.025579 7.127695-.025979 4.655037-.032814 4.579184-.039386 4.504668-.045696 4.431486-.051743 4.359638-.057528 4.289125-.06305 4.219946-.104355 6.203129-.075707 4.052838-.122109 5.958723-.131579 5.818085-.140165 5.681951-.147864 5.550321-.102415 3.629312-.212863 7.094459-.221824 6.884474-.28668 8.326565-.352389 9.610162-.705004 18.109203-.447415 11.365411-.361158 9.559332-.234073 6.641229-.169771 5.216879-.15195 5.143018-.07797 2.863685-.024885.592041c-.137947 2.641372-.60433 3.639512-2.366588 5.412598l-.540173.537133-.708843.716847-.729603.753311-.749474.787648-.768451.819855-.786538.849932-.803732.877882-1.235889 1.364569-2.133158 2.383867-4.953541 5.578354-1.867837 2.089078-1.417147 1.571248-.950842 1.045621-1.433147 1.560292-.958721 1.031663-.960313 1.022354-.961013 1.010917-.960821.997349-.959738.981654-.957764.963829-.954897.943876c-6.513305 6.376788-12.763392 11.206855-17.470039 11.433243l-.341615.008304h-159.457404c-4.743922 0-11.139936-4.909227-17.812112-11.441547l-.954898-.943876-.957764-.963829-.959738-.981654-.960822-.997349-.961012-1.010917-.960314-1.022354-.958721-1.031663-1.433149-1.560292-1.424555-1.569261-1.880836-2.09388-6.747678-7.589547-1.685463-1.876347-.820065-.903702-1.199255-1.306475-.777643-.83516-.759115-.804017-.739694-.770746c-.121615-.125566-.242383-.249658-.362287-.37223l-.708893-.716847-.346384-.344084c-1.789767-1.766112-2.342441-2.731338-2.525464-5.063909l-.03494-.541738c-.004927-.094335-.009434-.190765-.013567-.289402l-.020652-.619176-.068636-2.547148-.15195-5.143018-.169771-5.216879-.234073-6.641229-.202188-5.422099-.379018-9.756317-.754819-19.196095-.354494-9.414466-.291143-8.149721-.227165-6.733991-.165643-5.182458-.160602-5.300574-.154676-5.423197-.147864-5.550321-.140165-5.681951-.088728-3.86332-.125364-5.911343-.078041-4.020417-.108103-6.153247-.065713-4.185857-.060321-4.254369-.054669-4.324214-.048752-4.395395-.042574-4.46791-.036133-4.54176-.029429-4.616944-.022463-4.693462c-.003149-.788694-.005997-1.580633-.008537-2.375843l-.011522-4.810743-.003899-4.890598c0-.572582-.003965-1.142253-.01204-1.708857l-.021675-1.129077c-.00454-.187483-.009548-.374614-.015028-.561387l-.0386-1.116301c-.007394-.18532-.015271-.37027-.023637-.554846l-.056106-1.102911-.0681-1.093643c-.160729-2.359322-.407731-4.651455-.752822-6.863894l-.166281-1.015422c-2.079978-12.116056-7.224546-21.728484-17.441123-26.712485-45.157273-22.032842-123.714357-164.209815-132.118441-391.007533-.116923-3.161589-2.364554-4.351447-5.596914-4.729696l-.504901-.051945-.519512-.040077c-.087751-.005743-.176073-.011031-.264945-.015882l-.539689-.024036-.551982-.014516-.563347-.005933-.864302.005138-.587704.011415-.896489.02676-2.145277.090986-1.646153.075591-.962622.039114c-.160454.005963-.320871.011601-.481181.016844l-.960008.026141c-3.192002.067543-6.285156-.079716-8.721022-1.00711l-.36038-.14503z"/><path d="m619.814733 549.834434 4.970662 19.372468c-6.06339 1.555769-14.027787 2.870824-23.978362 3.963538l-2.243968.239173c-.758911.078509-1.528754.155806-2.309564.231898l-2.375369.224667-2.44138.217482-2.507599.210341-2.574027.203245c-.869103.066571-1.749312.131967-2.640661.196194l-2.707504.189188c-.456833.03095-.916459.06161-1.378883.091981l-2.808158.178762c-.947268.058436-1.905763.115723-2.875519.171868l-2.943089.165019c-.496157.026934-.995138.053586-1.496948.079954l-3.044832.154828-3.112921.148091-3.181218.141398-3.249723.13475-3.318434.128147-3.387353.121589-3.456481.115075-3.525817.108606-3.595358.102182-3.66511.095803-3.735067.089469-3.805234.08318-3.875607.076934-5.945816.103791-6.105324.089993-4.159179.052404-4.230591.046382-4.30221.040407-4.374038.034476-4.446074.02859-4.518316.022748-4.590768.016951-4.663425.011199c-.783304.00139-1.569644.002542-2.359025.003457l-4.75778-.008453-7.006176-.023596-4.58382-.023067-4.514272-.028982-4.444745-.034935-4.375241-.040927-4.305756-.046959-4.236292-.053029-4.166851-.059139-4.09743-.065288-4.028029-.071475-3.958651-.077702-3.889293-.083969-3.819956-.090273-3.75064-.096618-3.681346-.103-3.612072-.109423-3.542819-.115884-3.473588-.122384-3.404377-.128924-3.335188-.135502-3.26602-.14212-3.196872-.148777c-.527051-.025353-1.051222-.050985-1.572513-.076897l-3.093191-.158834c-.509773-.027035-1.016668-.05435-1.520684-.081948l-2.989557-.168981c-.492503-.02873-.98213-.057744-1.468878-.087043l-2.885971-.179215c-.950484-.060881-1.889462-.122908-2.816939-.186086l-2.747929-.192997c-.904476-.065489-1.797455-.132135-2.678939-.199947l-2.609971-.206935c-.858498-.070148-1.705505-.141467-2.541024-.213964l-2.472098-.22103c-1.218821-.112288-2.411802-.227241-3.578956-.344881l-2.299875-.238868c-9.816929-1.050675-17.694515-2.304252-23.640471-3.775037l-.6775-.170671 4.970662-19.372468c5.396743 1.384718 12.996256 2.57543 22.74851 3.577731l2.202584.219635c.745993.072179 1.503777.143327 2.273333.213445l2.343962.20727 2.414467.201108 2.484852.19496 2.555114.188825 2.625254.182705c.443381.029941.889679.059628 1.338892.089061l2.730235.173548c.921724.056834 1.855088.112654 2.800071.167462l2.869783.161388 2.939375.155329c.991377.050768 1.994331.100528 3.008844.149283l3.078191.14325 3.147416.137232c.530331.022371 1.063542.044492 1.599629.066364l3.251025.128229 3.319945.122245 3.388743.116275 3.457419.110317 3.525973.104373 3.594406.098444 3.662715.092527 3.730903.086625 3.79897.080735 3.866913.074861 3.934736.068998 6.029003.092537 4.103757.054404 4.171152.04859 6.382826.062014 4.339106.034115 4.406074.028348 4.47292.022596 4.539644.016857 4.606245.011132c.773251.001379 1.549272.00252 2.328061.003423l6.850105-.014347 6.692783-.027019 4.374578-.025085 4.304841-.030768 6.326667-.056847 4.130823-.045059 6.065986-.078378 3.957265-.059476 3.887971-.065276 3.818751-.071098 3.749604-.07694 3.680532-.082802 3.611532-.088682 3.542606-.094584 3.473755-.100506 3.404977-.106447 3.336272-.112408 3.267642-.11839 3.199084-.124391 3.130602-.130413 3.062192-.136454 2.993856-.142515c.986571-.048517 1.961765-.098048 2.925594-.148596l2.857405-.154697 2.789291-.160819 2.72125-.16696 2.653283-.173121 2.585389-.179303c.425245-.0304.847663-.061058 1.267258-.091975l2.483687-.188612c.408303-.031954.813785-.064167 1.216448-.096641l2.38215-.197965 2.314553-.204227c.760259-.069122 1.509264-.13929 2.247027-.210508l2.179575-.216809c9.656437-.989847 17.266279-2.171696 22.859755-3.553738z"/></g><path d="m524 835h28v35h12v30.152277c-11.011775 2.41244-22.022642 3.29187-33.033509 2.639211-3.842902-.227693-7.685803-.641597-11.527796-1.242633-2.480171-.38717-4.959433-.853618-7.438695-1.396578v-30.152277h12z" stroke="#000" stroke-linejoin="round" stroke-width="11"/><path d="m407 835h28v35h12v30.152277c-11.011775 2.41244-22.022642 3.29187-33.033509 2.639211-3.842902-.227693-7.685803-.641597-11.527796-1.242633-2.480171-.38717-4.959433-.853618-7.438695-1.396578v-30.152277h12z" stroke="#000" stroke-linejoin="round" stroke-width="11"/><path d="m524 829.5-.221207.004367c-2.935013.116094-5.278793 2.532154-5.278793 5.495633v29.5h-6.5c-3.037566 0-5.5 2.462434-5.5 5.5v30.152277c0 2.584172 1.799036 4.819834 4.323381 5.372668 2.59903.56919 5.187529 1.055423 7.767003 1.458096 4.011209.627508 8.029221 1.060538 12.050801 1.298818 11.518123.682726 23.034435-.237295 34.535831-2.757001 2.524156-.552987 4.322984-2.788562 4.322984-5.372581v-30.152277l-.004367-.221207c-.116094-2.935013-2.532154-5.278793-5.495633-5.278793h-6.5v-29.5c0-3.037566-2.462434-5.5-5.5-5.5zm22.5 11v29.5l.004367.221207c.116094 2.935013 2.532154 5.278793 5.495633 5.278793h6.5v20.143l-.029551.006784c-9.066134 1.638459-18.122483 2.188129-27.178522 1.651341-3.669608-.217426-7.337384-.612711-11.003159-1.186179l-1.416939-.230214-1.371829-.240732v-20.144h6.5l.221207-.004367c2.935013-.116094 5.278793-2.532154 5.278793-5.495633v-29.5z" fill-rule="nonzero"/><path d="m407 829.5-.221207.004367c-2.935013.116094-5.278793 2.532154-5.278793 5.495633v29.5h-6.5c-3.037566 0-5.5 2.462434-5.5 5.5v30.152277c0 2.584172 1.799036 4.819834 4.323381 5.372668 2.59903.56919 5.187529 1.055423 7.767003 1.458096 4.011209.627508 8.029221 1.060538 12.050801 1.298818 11.518123.682726 23.034435-.237295 34.535831-2.757001 2.524156-.552987 4.322984-2.788562 4.322984-5.372581v-30.152277l-.004367-.221207c-.116094-2.935013-2.532154-5.278793-5.495633-5.278793h-6.5v-29.5c0-3.037566-2.462434-5.5-5.5-5.5zm22.5 11v29.5l.004367.221207c.116094 2.935013 2.532154 5.278793 5.495633 5.278793h6.5v20.143l-.029551.006784c-9.066134 1.638459-18.122483 2.188129-27.178522 1.651341-3.669608-.217426-7.337384-.612711-11.003159-1.186179l-1.416939-.230214-1.371829-.240732v-20.144h6.5l.221207-.004367c2.935013-.116094 5.278793-2.532154 5.278793-5.495633v-29.5z" fill-rule="nonzero"/></g></svg>