<?xml version="1.0" encoding="UTF-8"?>
<svg width="344px" height="509px" viewBox="0 0 344 509" version="1.1" xmlns="http://www.w3.org/2000/svg" xmlns:xlink="http://www.w3.org/1999/xlink">
    <!-- Generator: Sketch 47.1 (45422) - http://www.bohemiancoding.com/sketch -->
    <title>Untitled 2</title>
    <desc>Created with Sketch.</desc>
    <defs></defs>
    <g id="Page-1" stroke="none" stroke-width="1" fill="none" fill-rule="evenodd">
        <path d="M172.228199,0.000735220368 C77.3734604,0.00107455285 0.475065468,18.1222206 0.463754386,40.4729198 L0,52.0379362 C0.00294088147,57.9954834 5.60882652,63.6465002 15.4203989,68.7393152 L15.4978798,71.4565765 C16.3195734,104.219693 18.3106633,146.318977 23.4178998,184.182826 C28.5251364,222.04724 35.9856437,255.48789 51.0440879,272.641147 L93.250827,320.713248 L99.2705852,444.801479 C102.288665,457.944957 119.620354,469.49131 128.442998,471.841753 L129.437129,472.526583 L129.471063,472.537894 L129.471063,483.528873 C125.089206,484.610608 122.4876,486.346859 122.479117,488.201311 C122.482114,488.229589 122.484207,488.260695 122.490428,488.289538 L122.479117,488.289538 L122.479117,503.057853 L122.501739,503.057853 C122.490428,503.116105 122.484772,503.176054 122.479117,503.234306 C122.479117,506.420355 129.989676,509.00013 139.257977,509.00013 C148.526278,509.00013 156.036837,506.420129 156.036837,503.234306 C156.032143,503.176054 156.025526,503.116105 156.014214,503.057853 L156.036837,503.057853 L156.036837,488.289538 L156.025526,488.289538 C156.029767,488.26126 156.030559,488.230155 156.036837,488.201311 C156.035197,486.450356 153.717103,484.800012 149.740523,483.705608 L149.740523,475.7969 C164.892283,477.890581 180.469341,478.834491 196.597813,476.658521 L196.597813,483.35242 C192.216013,484.434155 189.614351,486.17035 189.605868,488.024858 C189.608922,488.053136 189.610958,488.084242 189.617179,488.113085 L189.605868,488.113085 L189.605868,502.8814 L189.62849,502.8814 C189.617179,502.939652 189.611523,502.999035 189.605868,503.057853 C189.605868,506.243845 197.116426,508.823677 206.384727,508.823677 C215.653028,508.823677 223.163587,506.243676 223.163587,503.057853 C223.158893,502.999601 223.152276,502.940218 223.140965,502.8814 L223.163587,502.8814 L223.163587,488.113085 L223.152276,488.113085 C223.156518,488.084807 223.15731,488.053702 223.163587,488.024858 C223.161947,486.273846 220.854882,484.623559 216.878584,483.529156 L216.878584,471.610668 C232.595334,466.839484 242.239163,454.845381 248.3709,441.709256 L249.707474,324.752662 C267.381607,308.774061 276.996592,292.95834 289.859555,278.016965 C309.877909,254.764773 318.720914,219.357691 323.174087,182.036774 C327.627486,144.715291 327.479933,105.285423 328.045374,74.129046 L328.144912,68.7165233 C337.940309,63.6269886 343.529115,57.9890926 343.531943,52.037201 L343.995697,40.4721846 C343.984386,18.1209198 267.085991,0 172.231253,0 L172.228199,0.000735220368 Z M172.493444,7.42363316 C258.148469,7.42431199 327.587957,22.5216912 327.602319,41.1470603 C327.608528,50.093238 311.269668,58.6734835 282.180601,64.9999791 C253.091534,71.3264747 213.635451,74.8809069 172.493444,74.881233 C131.349476,74.8815593 91.8904877,71.327415 62.7989741,65.0008487 C33.7074605,58.6742824 17.3670483,50.0936642 17.3732573,41.1470603 C17.3876202,22.5207307 86.8340014,7.42295378 172.493444,7.42363316 Z M27.0725106,73.5651886 L37.1354152,77.1109302 C53.7836321,82.0662589 75.3097534,86.0540376 99.9006125,88.7421164 C100.114957,108.10669 102.290135,141.656492 111.697506,172.636416 C116.918815,189.830393 124.323502,206.008634 135.015303,217.968973 C145.707669,229.929311 159.888939,237.599356 177.785334,237.232877 C195.503579,236.870357 209.168498,228.317482 219.185593,215.627013 C229.202687,202.936544 235.808925,186.15316 240.294335,168.60458 C248.158931,137.83278 249.38279,105.573573 249.62824,88.0470504 C267.735587,85.8548494 284.093109,82.9554796 297.788568,79.4642009 L316.610775,73.7091221 C316.129488,104.106525 316.024917,146.348894 311.927251,180.689341 C307.588942,217.045988 298.588092,250.523965 281.274783,270.63507 C265.140655,289.102109 253.36299,306.755315 238.427271,319.933292 L237.079669,437.981405 C232.542963,450.428121 224.198042,460.340022 209.818263,462.492521 C197.304812,464.365693 149.12865,467.013505 134.000077,461.752437 C123.191772,457.993312 109.8249,447.525923 110.383667,440.212743 L104.374655,316.209344 L59.5499655,265.154511 C48.4373924,252.495713 39.651509,219.798201 34.641265,182.651475 C29.9024869,147.518687 27.9728162,105.255392 27.0747163,73.5617387 L27.0725106,73.5651886 Z M243.951208,88.7203425 C243.71311,105.96635 242.546032,137.240362 234.882548,167.224911 C230.513585,184.318785 224.065194,200.434815 214.800852,212.171194 C205.536509,223.907574 193.689847,231.317464 177.675051,231.645485 C161.402362,231.978597 149.059708,225.287526 139.190789,214.247909 C129.321869,203.208293 122.130283,187.727945 117.054435,171.014124 C107.920736,140.935128 105.831013,108.209338 105.621758,89.3198299 C126.002632,91.3386319 148.258884,92.5119871 171.763313,92.5121002 C197.592736,92.5119305 222.008839,91.13967 243.950642,88.72334 L243.951208,88.7203425 Z M175.587025,118.124633 C158.322354,118.124633 144.271727,132.197316 144.271727,149.461987 C144.271727,166.726658 158.322354,180.777285 175.587025,180.777285 C192.851696,180.777285 206.913634,166.726658 206.913634,149.461987 C206.913634,132.197316 192.851696,118.124633 175.587025,118.124633 Z M175.587025,123.780174 C189.795441,123.780174 201.258092,135.253571 201.258092,149.461987 C201.258092,163.670403 189.795441,175.121743 175.587025,175.121743 L175.587025,149.461987 L175.587025,123.780174 Z" id="Shape" fill="#000000" fill-rule="nonzero"></path>
    </g>
</svg>