<?xml version="1.0" encoding="UTF-8" standalone="no"?>
<!-- Generator: Adobe Illustrator 19.2.1, SVG Export Plug-In . SVG Version: 6.00 Build 0)  -->

<svg
   xmlns:dc="http://purl.org/dc/elements/1.1/"
   xmlns:cc="http://creativecommons.org/ns#"
   xmlns:rdf="http://www.w3.org/1999/02/22-rdf-syntax-ns#"
   xmlns:svg="http://www.w3.org/2000/svg"
   xmlns="http://www.w3.org/2000/svg"
   xmlns:sodipodi="http://sodipodi.sourceforge.net/DTD/sodipodi-0.dtd"
   xmlns:inkscape="http://www.inkscape.org/namespaces/inkscape"
   version="1.2"
   id="Layer_1"
   x="0px"
   y="0px"
   viewBox="0 0 50.5 50.5"
   xml:space="preserve"
   sodipodi:docname="icon.svg"
   inkscape:version="0.92.3 (2405546, 2018-03-11)"><metadata
   id="metadata15"><rdf:RDF><cc:Work
       rdf:about=""><dc:format>image/svg+xml</dc:format><dc:type
         rdf:resource="http://purl.org/dc/dcmitype/StillImage" /></cc:Work></rdf:RDF></metadata><defs
   id="defs13" /><sodipodi:namedview
   pagecolor="#ffffff"
   bordercolor="#666666"
   borderopacity="1"
   objecttolerance="10"
   gridtolerance="10"
   guidetolerance="10"
   inkscape:pageopacity="0"
   inkscape:pageshadow="2"
   inkscape:window-width="1680"
   inkscape:window-height="987"
   id="namedview11"
   showgrid="false"
   inkscape:zoom="9.3465346"
   inkscape:cx="28.740472"
   inkscape:cy="27.509686"
   inkscape:window-x="-8"
   inkscape:window-y="-8"
   inkscape:window-maximized="1"
   inkscape:current-layer="layer2" />




<g
   inkscape:groupmode="layer"
   id="layer3"
   inkscape:label="Layer 3" /><g
   inkscape:groupmode="layer"
   id="layer2"
   inkscape:label="Layer 2"><path
     style="fill:#000000;stroke-width:0.12260903"
     d="m 25.601098,48.324532 c -0.842937,-0.05815 -1.918832,-0.17808 -2.390876,-0.266515 -0.736649,-0.138007 -0.863811,-0.199691 -0.897417,-0.435324 -0.0278,-0.194894 0.04334,-0.305835 0.245218,-0.382436 0.333824,-0.126667 2.577083,-0.339273 4.790253,-0.453998 l 1.563265,-0.08103 v -1.272647 -1.272648 l 0.337175,-0.01 0.337175,-0.01 -0.367827,-0.168425 c -0.202305,-0.09264 -0.560937,-0.203722 -0.796959,-0.246862 -0.968335,-0.176993 -1.351357,-0.32154 -1.477732,-0.557671 -0.232643,-0.434698 0.03188,-0.559297 1.385285,-0.652511 2.353642,-0.162105 3.398358,-0.542666 4.33533,-1.579242 1.556438,-1.721895 2.006618,-4.289014 2.008912,-11.455665 l 0.0013,-3.952006 -2.580965,2.079298 c -2.718487,2.190088 -3.183892,2.452955 -4.342938,2.452955 -1.345799,0 -3.67625,-1.014763 -4.938865,-2.150562 -0.421659,-0.379307 -0.813738,-0.67131 -0.871287,-0.648895 -0.110375,0.04299 -2.314155,2.593434 -4.378905,5.067725 -2.313553,2.772444 -3.056083,3.851782 -4.343952,6.314365 -2.308568,4.4143 -4.0054496,6.11205 -6.6818586,6.685282 -0.832072,0.178212 -3.755446,0.261265 -3.99456,0.113484 -0.194935,-0.120477 0.119682,-0.53956 0.536133,-0.714156 L 3.4702034,44.5622 3.0410724,44.374888 c -0.422509,-0.184422 -0.414647,-0.186321 0.509374,-0.123063 2.097318,0.143585 4.187888,-0.541607 5.453485,-1.787399 0.849661,-0.836364 1.9525596,-2.498875 2.9421706,-4.435033 1.423611,-2.78527 2.559131,-4.348724 6.718332,-9.250211 2.564299,-3.021945 2.344316,-2.664592 1.98788,-3.229224 -0.535203,-0.847818 -1.279894,-2.418678 -1.49121,-3.145583 -0.153774,-0.528963 -0.195483,-1.046795 -0.162299,-2.014999 0.06418,-1.872553 0.07081,-1.881492 3.994036,-5.378727 4.427028,-3.946338 11.791914,-10.5578772 12.846145,-11.5321232 1.194337,-1.103723 1.670689,-1.298086 2.996162,-1.222511 1.669391,0.09518 3.06621,0.75848 4.917884,2.335311 1.710284,1.456427 3.207647,3.59378 3.960753,5.6536222 0.316164,0.86475 0.365024,1.170177 0.374829,2.343069 0.0098,1.172283 -0.02437,1.415358 -0.261231,1.858305 -0.303046,0.566723 -0.233338,0.504723 -4.080115,3.62898 -3.654523,2.968114 -4.781752,3.903386 -4.781752,3.967465 0,0.02923 0.289664,-0.176273 0.643697,-0.456682 0.632326,-0.500826 0.644482,-0.504668 0.688121,-0.217417 0.02443,0.16083 0.01535,3.271818 -0.02018,6.913306 -0.06971,7.143717 -0.159505,8.380392 -0.765619,10.544378 -0.413362,1.475809 -0.807734,2.255016 -1.55529,3.072961 -0.975537,1.067393 -1.632411,1.335551 -4.209313,1.718386 -0.711836,0.105753 -1.470288,0.268839 -1.685449,0.362413 l -0.3912,0.170136 0.337175,0.0048 0.337175,0.0048 v 1.287394 1.287395 l 0.521088,0.0011 c 1.090339,0.0023 4.595912,0.252622 5.331463,0.380713 0.685506,0.119376 0.768336,0.164707 0.768336,0.4205 0,0.157685 -0.0541,0.320137 -0.120231,0.361007 -0.06612,0.04087 -0.71442,0.158787 -1.440656,0.262042 -1.56525,0.222545 -9.382522,0.33146 -11.803496,0.164454 z M 45.670343,14.725959 c 0.900674,-0.340298 1.503006,-1.343584 1.50725,-2.510577 0.0069,-1.905425 -1.044673,-4.1155132 -2.878085,-6.0487042 -1.054295,-1.111673 -2.121119,-1.885577 -3.284214,-2.382462 -0.751575,-0.32108 -1.032933,-0.376946 -1.8659,-0.370487 -0.539479,0.0042 -1.069142,0.03071 -1.177025,0.05894 -0.418238,0.109457 -0.854486,0.49687 -1.119724,0.994375 -0.360938,0.677012 -0.380925,2.267 -0.0412,3.277999 1.012383,3.0128262 3.678103,5.8910742 6.319921,6.8237842 0.862841,0.304629 1.96763,0.373002 2.538982,0.157131 z"
     id="path835"
     inkscape:connector-curvature="0" /></g><g
   inkscape:groupmode="layer"
   id="layer1"
   inkscape:label="Layer 1" /></svg>