<svg height="960" viewBox="0 0 960 960" width="960" xmlns="http://www.w3.org/2000/svg"><g fill="#000" fill-rule="evenodd"><path d="m563.447668 19.1775907c-22.369007 1.0380369-43.04207 8.6182906-59.713003 23.4231953l-294.405932 262.321384-1.828549 1.669573-.190547.177406c-17.587571 16.481851-28.671112 37.183088-33.293494 60.471931-3.919592 19.747996-3.10264 40.713825 1.648326 62.219124 7.779357 35.213342 26.338082 71.675846 48.526274 98.727273 22.198099 27.062236 54.477636 52.54486 87.427273 66.823387 20.484474 8.876824 41.170796 13.526517 61.545855 12.917541l.831433-.027807c23.816519-.881333 46.088912-9.00627 65.088756-24.555363l15.41594-12.625235-.071497 3.009767-.114878 3.929678-.12313 3.634146-.172424 4.549373-.235 5.606601-.31275 6.825503-.363973 7.372614-.415193 7.918231-.412061 7.495269-.571988 9.972067-.299106 5.041751-.080933 1.164159-.199086 2.707134c-.136266 1.795467-.279672 3.572379-.430566 5.330859l-.231998 2.623909c-.039617.43502-.079713.868891-.120293 1.301616l-.249332 2.582609c-.382844 3.853326-.805785 7.614116-1.272771 11.283771l-.317892 2.432951c-2.217445 16.533112-5.367163 31.181356-9.822385 44.077264l-.438326 1.251538c-.073251.206294-.146598.411443-.220042.615449l-.441806 1.21036-.44406 1.183103c-.222586.584764-.445997 1.159365-.670205 1.723893l-.44947 1.115649c-.150171.367423-.300688.730395-.451541 1.088941l-.453562 1.062392c-.151519.349722-.303365.695046-.455531 1.035997l-.457446 1.009761c-.229194.498347-.459086.986914-.689649 1.46579l-.462008.944854-.463743.919167c-.077432.151063-.154934.301061-.232505.45l-.466246.880928c-.077843.144709-.155752.288365-.233727.430969l-.468632.843044c-.156467.276829-.313189.549481-.470157.817982l-.47163.793079c-1.810674 2.992604-3.652676 5.439741-5.512803 7.381161l-.485653.495011c-3.078297 3.062749-6.202937 4.754486-9.314378 5.254478l-1.855633.297414c-.485719.07785-.969961.164654-1.452478.260366l-3.62741.713431-4.763097.91601-3.786719.708002-2.944684.535412-2.751132.48563-2.555882.435706-1.902984.312522-1.776068.280403-1.64828.248213-1.519626.215947-.985369.131698-1.493741.184943-1.342188.15467-2.256479.242877-2.101379.212064-3.275853.311111-4.215189.375005-4.095268.344315-4.470016.358647-4.126024.318256c-2.274574.172475-4.530226.539204-6.742288 1.096176l-.776351.196165-.223701.058393c-6.803488 1.796922-13.091897 4.557096-19.089915 9.295706-10.080709 7.964056-16.661816 19.943949-16.958595 33.82635l-.008976.650385c-.082053 11.255597 3.652499 21.586438 10.113607 30.599588l.193094.267777-1.425653.105345-3.271932.251985-3.127914.254184-2.880101.246406-2.968727.267549-1.938371.182352-1.905639.185576-2.796881.284472-1.8234.193764-1.790342.197092-2.623325.301942-1.707289.20554-2.498309.314754-1.623654.214175-1.590036.217681c-.2622.036574-.522994.073295-.782383.110164l-1.539436.222995-1.505587.226575-1.471643.230185-1.437608.233824c-.236759.039276-.472097.078704-.706011.118286l-1.386378.239339-1.35211.243053-1.317748.246796c-.216756.041447-.432076.08305-.645959.124811l-1.26603.252468c-.208125.042395-.414808.084949-.620048.127663-6.279292 1.306828-11.590183 2.810183-16.516835 4.930199-4.480386 1.927981-8.615467 4.311087-12.697839 7.851015-8.515641 7.384129-14.579798 17.919233-14.579798 31.589626v11.855962c0 1.051269.041444 2.102129.124234 3.150132l.020174.255368c.081881 1.036484.204142 2.069381.366506 3.096338 1.725265 10.912393 7.09455 19.201155 14.133461 25.377201 3.777103 3.314087 7.688982 5.705451 11.904747 7.677053 5.022757 2.349011 10.476888 4.068875 16.838567 5.562154l.663462.154057 1.354066.30445 1.390136.299593c.234688.04953.470872.098859.70855.147988l1.443971.292378 1.479681.287614c.249581.047541.500644.094884.753186.142032l1.532973.280537c.258446.046366.518364.092537.779752.138514l1.585941.273543 1.621072.268926 1.656059.264346 1.690902.259803c.284712.042923.57087.08566.858471.128209l1.742893.253057 1.777375.248605c.299094.041066.599619.081947.901572.122646l1.828825.241998 2.807167.354835 1.913853.23117 1.947611.226902c.327407.037464.656215.074751.98642.111863l1.997978.220571 2.031375.216395 2.064627.212258 2.197549.217823 2.231557.21302 2.264928.208186 2.297664.203318 2.329764.198416 2.361228.193483 2.392058.188515 2.422251.183516 2.451808.178482 2.480729.173416 3.773933.250554 3.83543.238969 3.894784.227273 2.628436.144963 3.988937.207533 2.689218.1317 2.71242.126337 4.110739.179377 4.159365.167124 4.205844.15476 2.828659.09625 2.847728.090672 2.86616.085061 4.332412.117 4.370309.104191 4.406062.091269 2.956178.053613 4.460882.069487 2.990738.038989 4.509742.047395 3.021325.024157 4.552643.024994 3.047938.012168h3.057472 3.014262l3.004983-.011827 4.488748-.024294 4.464448-.037397 4.438094-.050391 4.409685-.063279 4.379222-.076059 4.346703-.088733 2.878721-.066142 2.862747-.071696 2.846164-.077217 4.236819-.126109 2.802042-.090881 2.783327-.096292 2.764004-.10167 2.744073-.107016 4.077404-.170481 2.69158-.120244 2.669516-.125479 3.961576-.197966 3.908511-.209567 2.575178-.146103 2.550072-.15118 2.524356-.156225 3.736986-.243726 2.457405-.168698 2.429558-.173631 2.401103-.178533 2.372039-.183403 2.342366-.188241 2.312086-.193048 3.410018-.298515 2.233718-.204925 2.201306-.20962 2.168285-.214284 3.104713-.321075 2.000334-.216247 2.938724-.332061 1.917793-.226567 1.884572-.23077 1.851233-.235018 1.817776-.239308c.300168-.040245.598938-.08067.896306-.121277l1.767372-.245826 1.733622-.250225 1.699755-.254669 1.66577-.259154 1.631669-.263684c.269096-.044328.536767-.088845.803009-.133555l1.580296-.27056 1.5459-.275198 1.511387-.27988 1.476758-.284605 1.44201-.289373 1.407145-.294185c.463224-.098869.920618-.198546 1.372162-.299041l1.337064-.303939c.439824-.102134.873779-.205092 1.301846-.308881 6.528832-1.582981 12.095588-3.41842 17.270518-6.011872 4.584947-2.297779 8.800256-5.126935 12.782145-9.147868 7.377954-7.450297 12.355513-17.5204 12.355513-29.724837v-11.855962c0-1.049727-.041322-2.099046-.12387-3.145522l-.01498-.189901c-.081629-1.03481-.203507-2.066051-.365358-3.09138-1.923798-12.187258-8.184638-20.756056-16.18157-26.87913-3.832531-2.934484-7.673974-4.970993-11.807611-6.641886-4.807381-1.943232-10.048656-3.366566-16.216015-4.610721l-.639263-.12758c-.80467-.158879-1.630296-.315528-2.476696-.469969l-1.720443-.305945-1.775516-.3001c-1.201963-.198127-2.440426-.392384-3.714956-.582825l-1.15973-.170857.181854-.114449c1.797788-1.150802 3.57587-2.347674 5.334099-3.591735 42.175451-29.841865 66.464225-82.208648 71.231308-158.787287l.546902-8.921878.264079-4.411033.257878-4.378149.375268-6.506202.478982-8.562552.454811-8.436241.430921-8.312254.407312-8.190586.29016-6.064493.366672-7.983257.260003-5.911663.326893-7.783038.230491-5.764165.218041-5.702585.138503-3.767995.133057-3.741352.249917-7.403934c.019933-.612667.039643-1.22426.059131-1.834785l.198301-6.433536.190544-6.713657.027942-1.616719.041269-3.740728.062843-8.982989.121952-29.68884.180867-76.037898 103.021849-84.3674.859953-.719115c16.749259-14.199256 27.212848-33.268958 31.956402-55.065702 3.743612-17.201982 3.832094-35.68573.953709-54.20982-6.440707-41.439209-26.137654-81.963509-54.986357-118.173965-28.71766-36.0461465-63.134176-63.8088315-101.557311-78.463017l-1.165562-.4400489c-17.852286-6.672121-36.40952-10.0722438-54.358015-9.2393414zm40.354462 46.7080017c33.988806 12.7015868 63.098695 38.3148746 85.441306 66.3591176 22.788653 28.603973 41.098796 63.058427 46.745801 99.390993 4.01857 25.861843 1.029816 55.429637-19.250571 72.622422l-.61986.517189-117.409028 96.147549.009316 4.092461.024275 4.217326-.160937 72.937716-.112128 33.336905-.07192 13.887638-.05402 6.600909-.036053 2.584025-.013527.594339-.178218 6.230462-.196921 6.389555-.249374 7.513701-.228135 6.427214-.351773 9.256809-.275306 6.800506-.357866 8.372274-.321921 7.156481-.344176 7.322648-.291813 5.97959-.385916 7.628617-.41004 7.802415-.43483 7.978939-.460286 8.158187-.387006 6.65744-.404067 6.775299-.529596 8.636988c-8.953529 143.829884-90.242349 149.340065-137.712907 149.447733l.001586 49.050685 5.986806.131976 3.937569.099626 3.892811.108775c.644984.018884 1.288037.038143 1.929126.057775l3.822699.122236 3.773976.131035 3.723665.139694 4.581417.186578 4.497232.199613 3.535089.168891 3.477641.176917 3.418608.184803c.56476.03145 1.126994.063223 1.68667.095315l4.14907.246644 4.050015.258362 3.166608.214942c.522232.036427 1.041674.073152 1.558292.110174l3.065566.225666 1.506878.115456 2.960955.236073 3.713466.314503 1.629818.144991 1.604693.147178 2.359251.224807 3.05484.30714 2.221655.235783 1.447439.159723 2.119889.243315 2.057438.247711 1.336414.167538 1.95103.254832 1.264508.172199 1.841722.261696 1.190668.17669 1.160592.178438 1.130204.180158 1.099508.181853 1.591028.275893 1.021413.185966.989633.187564.957544.189134 1.375471.286585.875967.192939.842794.194414.809313.195861c.132078.032762.262748.065584.392004.098464l.758509.19798.724254.199358.689689.200709.654814.202033.61963.203329.584137.204598.548334.205839c2.298093.894621 3.579016 1.823437 3.729447 2.776418l.01498.189901v11.855962c0 6.822862-43.147459 12.612375-102.986714 14.655265l-4.518827.14615-4.578942.131845c-12.288459.332289-25.191679.509287-38.498014.509287-10.703283 0-21.145743-.114521-31.217229-.332266l-4.621636-.107786-4.566547-.122198c-62.778436-1.788954-109.053211-7.643967-110.156911-14.624929l-.020174-.255368v-11.855962c0-1.072259 1.431245-2.114942 4.13389-3.113908l.577256-.206055c.099216-.034236.19993-.06842.302136-.10255l.631091-.204131c.216297-.067825.43851-.135431.666586-.202813l.701768-.201469.736635-.200096.771187-.198695.805425-.197266.839348-.19581c.142701-.032513.286802-.064963.432297-.097351l1.34691-.28979.939229-.191274.971894-.189707 1.004245-.188111 1.566334-.279115 1.083743-.184 1.684109-.272819 1.753357-.268915 1.206852-.177063 1.866411-.262201 1.93283-.258049 1.324926-.169678 2.041166-.250918 2.10475-.246514 2.167276-.242015 1.479061-.158799 1.506063-.15673 2.309036-.231156 2.368021-.226344 3.247281-.294147 2.880101-.246406 2.953146-.239618 3.024578-.232686 2.055273-.151204c.345105-.024936.691483-.04974 1.039124-.07441l3.162605-.218397 1.606376-.106447 3.261892-.207305 3.326068-.199733c1.119206-.065299 2.24884-.129313 3.388632-.192017l3.449584-.184158 3.508922-.176158 3.56665-.168015 3.622764-.159729 3.677265-.151299 1.858568-.072445 3.755995-.138389 3.806467-.129605 3.855326-.120676c1.293072-.038721 2.594019-.075931 3.902572-.111605l3.948206-.102393 3.992227-.093036c1.3379-.029437 2.682869-.057291 4.034637-.083538l.020115-48.012445-.000911-1.998485-3.104783-.430989-3.477865-.499973-2.168349-.322883-2.541431-.391869-1.89794-.304106-1.777758-.29576-1.657576-.287414-1.537395-.279069-1.417213-.270724-.98404-.197565-1.206895-.256119-.826301-.186612-.758699-.181917-.468243-.11867-.646029-.174094-.393129-.113454-.363084-.111368-.333038-.109282-.302993-.107195-.272947-.105108c-.042987-.017345-.084723-.034602-.125206-.051772l-.22788-.101979-.699743-.334978c-.111496-.053949-.220492-.106999-.327081-.159212l-.611416-.303739c-.097342-.049117-.192467-.097521-.285469-.145277l-.533295-.279238c-.169778-.090814-.33182-.17953-.486884-.266647l-.445008-.25705c-.922096-.54871-1.581261-1.05093-2.185106-1.643722l-.275525-.280526-.272205-.296383-.273421-.315235c-2.87689-3.40058-3.870584-6.292237-3.823224-8.625023.05763-2.695725 2.556327-4.321753 6.272092-5.303152l.552317-.139067 5.832209-.452888 5.955576-.489022 3.614113-.31397 2.251066-.20396 3.139086-.297909 2.398184-.240897 2.200256-.234206 2.002328-.227513 1.459354-.177193 1.439881-.187237 1.33414-.184551 1.407118-.204195 1.989681-.302817 1.043493-.164503 2.750636-.449455 2.346467-.398849 2.476208-.433772 2.605948-.468692 3.439883-.634974 2.897864-.547266 4.590061-.886376 3.222215-.634569 1.87168-.299989c55.114996-8.856688 66.410632-93.816025 69.762619-138.401454l.197522-2.705349c.031337-.441969.061908-.879392.091753-1.312141l.435427-7.392086.567874-9.992239.551061-10.219808.473955-9.411409.296265-6.336906.225777-5.194042.219796-5.535187.138084-3.87079.132103-4.211936.103921-4.020291.056197-2.791803.035878-2.208642.047854-3.89972.032925-4.173031.017996-4.446343.003019-1.855064-.00384-5.252264-.019153-5.135822-.051993-7.65111-.042899-4.613518-.067112-6.013841-.100318-7.578792-.058251-3.937562-.111878-23.985729-.01966-2.388754-80.440042 65.879429c-51.213118 41.911792-125.851233-9.604983-158.632795-49.569772-33.176646-40.448345-67.725556-122.566918-20.456536-166.864161l1.457524-1.330682 294.176417-262.1159727c19.886792-17.660803 48.961376-15.7973295 73.506646-6.6237699z" fill-rule="nonzero"/><path d="m526.144504 48.8874481c-22.564621 19.8652493-29.443971 52.4345959-23.773302 88.6127759 5.930201 37.826748 24.309357 75.520585 51.499232 109.053434 27.095454 33.416556 59.777566 58.934066 95.263249 72.174242 33.59652 12.534566 66.636059 11.709492 89.692179-7.058271 23.329984-18.991477 30.574258-51.220387 24.927195-87.247334-5.970232-38.079041-24.658992-76.195624-52.336509-110.634715-27.732678-34.507895-60.565829-60.6412686-96.170348-73.8312464-33.598618-12.4475196-66.539445-10.9318926-89.101696 8.9311145zm82.153806 9.823267c31.857178 11.8017453 61.896862 35.7116737 87.528762 67.6055619 25.628735 31.889795 42.786477 66.883797 48.1673 101.203496 4.658147 29.717891-1.021298 54.985061-17.794562 68.639125-16.570574 13.488505-42.456445 14.134935-70.074845 3.830753-31.851557-11.884236-61.729706-35.21247-86.719646-66.032316-25.09947-30.954785-41.933387-65.479489-47.275409-99.554441-4.718459-30.103197.750594-55.9956823 17.230266-70.5039159 15.929777-14.0240116 41.036747-15.312109 68.116773-5.4893792z" fill-rule="nonzero"/><path d="m266.338436 261.667787 13.481701 14.773075c-21.672723 19.778224-27.108026 42.142252-23.01498 77.08307 4.18012 35.682243 20.919962 71.441801 46.734511 102.738854 25.719962 31.182136 57.384151 54.307353 91.416445 65.090189l1.618492.509619 1.580171.490894 2.301099.70153 2.221804.660167 1.439204.417359 1.407041.399317 1.37611.38141c.226843.062083.452448.123427.676841.184032l1.332024.354807 1.304172.337241 1.277552.319813 1.252163.30252 1.228008.285365 1.205082.268345c.199005.043313.397107.085923.59433.127833l1.173004.243071c.969064.195592 1.917456.37381 2.848382.53501l1.108934.185294c.183494.029528.36634.058381.548565.086563l1.086094.161044 1.072407.145047 1.059952.129188c.175689.020217.35091.039779.52569.058689l1.043578.105653c.173114.016312.345837.031978.518196.046999l1.029975.082427 1.022448.067112c2.038187.119002 4.038592.146938 6.045558.088718 13.253486-.384466 25.292529-5.026905 37.584627-15.412661l.576383-.491044 13.031767 15.171454c-15.94705 13.697978-32.543189 20.199664-50.612846 20.723842-4.837955.140342-9.522174-.091346-14.419453-.721246l-1.282625-.173372c-2.790538-.395285-5.659332-.918515-8.672614-1.574416l-1.401246-.312161c-.470663-.107206-.944986-.217569-1.423212-.331106l-1.446626-.350153-1.471485-.369303c-.494799-.126305-.993983-.255818-1.497793-.388558l-1.525547-.407915c-.256651-.069605-.514519-.14002-.773634-.211249l-1.569891-.437144-1.601264-.45676-1.634082-.476479c-.275162-.081062-.551752-.16295-.8298-.245666l-1.686024-.506251-1.722461-.526228-1.760344-.546308-1.799675-.566491c-37.978085-12.033026-72.770934-37.443188-100.804254-71.429971-28.129578-34.10375-46.511203-73.370477-51.169899-113.137929-2.190729-18.701444-1.967884-33.819113 1.519976-48.170217 4.162741-17.127965 12.953583-32.178824 27.215346-45.403833z" fill-rule="nonzero"/><path d="m679.547853 136.133283c17.463314 21.899451 31.683252 48.125066 36.493764 75.554513 3.458278 19.721444 1.648964 42.170578-13.604987 54.69971-14.978709 12.302792-36.941753 9.937412-55.315097 2.611618-25.208899-10.052656-47.14632-29.014658-64.175697-50.191146-17.318668-21.533824-31.126985-47.358991-35.86972-74.402085-3.492993-19.917937-1.831631-42.643156 12.984249-55.8529668 14.534027-12.9577689 36.24084-11.0732588 54.691053-3.7640457 25.551091 10.1198111 47.675311 29.8735895 64.796435 51.3444025"/><g fill-rule="nonzero"><path d="m458.715599 94.5989082 13.329181 14.9108328c-11.793008 10.542076-18.05309 21.504599-20.396709 34.128741-.724236 3.90117-1.097029 7.872609-1.134131 12.214857l-.002074 1.141369c.0046.95848.025 1.93572.061038 2.934806l.050741 1.209587c.009705.203411.020032.407746.030981.613029l.073144 1.24327c.026861.418346.056198.840683.088 1.267206l.102796 1.29233c.018362.217547.037338.436191.056926.655956l.124872 1.332236.139511 1.360323.154089 1.389596.168604 1.420053.183057 1.451698.197449 1.484526.211777 1.518542.226044 1.553743.240249 1.590129.254391 1.627701.268472 1.666458c5.744617 35.159867 23.888856 70.823612 50.942602 102.779446 26.972098 31.858709 59.27895 55.995647 93.736301 68.28357 33.005238 11.769902 55.299812 11.86388 75.977401-3.726651l.626108-.477246 12.206927 15.842694c-14.841303 11.435347-31.104503 16.727345-48.899351 16.747299-14.340597.01475-28.932603-3.237452-46.628906-9.548079-38.041302-13.566004-73.169347-39.8107-102.282793-74.19871-29.252662-34.553189-49.039256-73.445095-55.416582-112.477456l-.29632-1.84021c-.048128-.303474-.095625-.605352-.142488-.905662l-.273549-1.783263-.2582-1.746959c-.041747-.288209-.082849-.574959-.123302-.860281l-.234924-1.694992-.219238-1.662007c-.035226-.274326-.069791-.547333-.103695-.819049l-.195457-1.61502c-.031245-.266661-.061822-.532087-.091729-.796303l-.171373-1.571021c-.027214-.259494-.053752-.517835-.079611-.77505l-.146985-1.53001c-.208193-2.275422-.360946-4.464171-.456215-6.586415l-.054974-1.405199c-.239798-7.211574.207807-13.687302 1.426401-20.251383 3.115834-16.783757 11.436852-31.512673 26.10786-44.8272825z"/><path d="m524.276657 39.368412-318.790416 287.395998c-27.612657 24.851852-35.352976 61.199917-26.501885 102.98926 7.094758 33.497034 24.937381 69.157601 46.011776 95.154002 20.828965 25.692445 51.618995 50.285745 82.213818 63.700124 38.66531 16.952905 75.095197 15.851241 103.834443-7.94565l327.663555-271.492955c23.441386-19.476026 30.708831-52.475381 25.036533-89.410276-6.005571-39.095073-24.816424-78.252572-52.683519-113.64328-27.938418-35.4814574-61.019715-62.3553323-96.908503-75.9250471-33.886964-12.8142321-67.137871-11.2530289-89.875802 9.1778241zm82.802099 9.5294666c32.116948 12.1435646 62.414561 36.756091 88.268799 69.5906634 25.867954 32.851836 43.191955 68.914239 48.628746 104.306668 4.715811 30.706768-1.044423 56.862315-18.039054 70.982132l-327.650732 271.482319c-22.162878 18.351476-50.69772 19.214389-83.045546 5.031401-19.205702-8.42079-38.783814-21.968355-55.287012-37.31303l-1.469586-1.378865c-6.575326-6.225716-12.634583-12.727135-17.952167-19.286354-19.156188-23.63019-35.571783-56.438674-41.981901-86.703261-7.499893-35.409826-1.299725-64.525437 20.321537-83.984938l318.78433-287.3905244c16.214097-14.5689338 41.826683-15.7715011 69.422586-5.336211z"/><path d="m580.142806 741.721734 16.774153 10.89164c-16.198899 24.947832-45.224621 38.120203-84.525479 43.430127l-1.503773.199692-1.491401.190993-1.480998.182468-1.472564.174114-1.466099.165932-1.461605.157923-1.459079.150087-1.458523.142421-1.459936.134929-1.463319.12761-1.468671.120461-1.475993.113486-1.485283.106683-1.496544.100053-2.270237.138022-1.533311.084229-1.551465.078202-1.571587.072346-2.399419.097916-1.63051.058462-2.497036.077897-1.701742.045653-2.613115.059493-1.785283.033922-1.822146.029531-2.806644.036441-3.889594.034828-4.072495.020366-3.183877.006613-11.96747-.006314-11.110919.057263-5.875073.014943-3.853013.000873-4.707619-.01055-4.482617-.024206-5.098443-.047944-3.238106-.043911-3.116341-.05384-3.000504-.064086-2.177928-.054979-2.118606-.061054-2.061787-.067263-2.664986-.099575-1.938936-.082271-2.510264-.120072-2.430005-.132219-2.355676-.144686-1.721544-.116885-1.685571-.124209-2.195793-.177236-1.611361-.141819-2.105925-.201202-6.150312-.642556-2.556745-.281451-1.77871-.20481-1.222638-.147117-1.49278-.19101-1.024117-.141789-.640536-.094853-.901822-.144133-.564422-.098122-.537011-.100388-.511334-.103199-.48739-.106557-.46518-.110462-.444703-.114913c-.072508-.019554-.144234-.039315-.215215-.059297l-.41724-.122615-.401097-.128432-.386688-.134797-.374014-.141709c-.061376-.024224-.122296-.048759-.182796-.073616l-.358252-.1531-.349911-.161377-.343304-.170202-.338431-.179572-.335291-.189489c-.055717-.032439-.111375-.065313-.16701-.098635-1.456815-.87253-2.746331-2.016612-3.780981-3.770643-1.705486-2.891291-1.917896-6.449735-.481562-9.559719 1.479708-3.203901 3.482491-4.562822 6.203143-5.678931.678558-.278369 1.434407-.534486 2.29027-.7778l.661006-.180233c.113412-.029688.228474-.059213.345233-.088593l.721259-.174692c.123719-.028875.249224-.057643.376557-.086321l.786304-.171144.832331-.169887.880488-.169514.930775-.170028.484911-.085483.642471 3.687157.72573.112683.957037.135542 1.073575.14083 1.19635.14712 2.129826.244855 2.627758.284155 4.985013.51912 1.832623.175717 2.356225.204186 1.942689.15125.992089.071668 2.028413.135559 2.09105.125376 2.158078.115412 2.229496.10567 2.305304.096149 2.385503.086849 1.844398.059165 2.536413.071105 1.962624.047611 2.70077.056036 3.517038.058391 3.681791.045843 3.855119.033727 4.86701.025087 6.029009.008997 7.38174-.015 11.883025-.059195 8.570043.007512 3.83933-.00141 3.974067-.012561 3.790666-.025221 2.731292-.027953 2.64228-.036268 2.559335-.045093 2.482453-.054429 2.411637-.064278 2.346885-.074638 2.2882-.085508 2.235579-.09689 1.464146-.071169 2.161355-.116996 2.124907-.129742 1.39935-.093827 1.387645-.099871 1.377735-.106066 1.369622-.112413 1.363307-.11891 1.358789-.125559 1.356068-.132361 2.032931-.211624 1.357126-.150025 1.360696-.157356 1.36606-.164839 2.063082-.26162 1.387337-.184208c33.754014-4.560492 57.606904-15.277766 70.055451-33.934076zm-219.378806 34.804266 2.245 12.879.131318-.211326c.116677-.196423.229512-.402213.338174-.618054l.159822-.331386c1.3467-2.915906 1.145669-6.283709-.449135-8.987363-.679042-1.151171-1.44364-1.97586-2.259796-2.607339z"/><path d="m367.564376 827.046324 19.999994.016002-.02837 34.409674.963161.045131 1.791627.07461 2.390086.085341 2.564198.07716 2.728102.068789 2.881795.060231 3.802821.062963 4.007074.048927 4.191386.034519 4.355757.019745 3.589553.004909 3.932742-.007309 2.901782-.01491 3.790878-.032104 3.685018-.045682 2.683445-.042911 3.456373-.068405 3.300925-.080796 3.127445-.092759 2.220889-.077159 1.416988-.054954 2.077081-.090043 1.313424-.063841.82045-.043452.000882-32.020171h20v40.841888c0 5.270269-2.403201 7.605269-5.712112 9.129813l-.446424.198657c-.075255.032371-.150924.064388-.226991.096076-.850857.354441-1.629347.569989-2.498489.749685-.88739.183468-1.917986.330632-3.159798.463481l-.835378.084297-.758239.068893-1.233222.100008-.884959.064428-1.419775.093237-1.528322.089105-1.634331.08492-2.339623.106625-1.441266.05842-2.258386.082138-3.179564.099-3.355623.086608-2.62151.056581-1.793386.033637-2.753067.044204-2.821951.03655-3.856729.036533-2.95337.018026-2.997131.009803-3.86028.000623-3.616899-.010019-3.520161-.019877-5.076993-.047936-4.02304-.0562-3.81332-.070628-2.179206-.049168-2.092462-.054174-2.647726-.079899-2.476022-.088509-2.244506-.094632-2.059567-.102409-1.421421-.081977-1.314304-.086462-.816038-.060155-1.132832-.094039-.693832-.065251c-1.410782-.139746-2.554685-.296982-3.542189-.507673-.886793-.189204-1.686883-.420295-2.567551-.807236l-.226398-.101231-.44564-.210418c-3.084435-1.511887-5.409671-3.867648-5.516154-8.686852l-.003665-.552721z"/></g></g></svg>