<?xml version="1.0" encoding="UTF-8"?>
<svg width="5.0694in" height="9.3611in" version="1.1" viewBox="0 0 365 674" xmlns="http://www.w3.org/2000/svg">
 <path d="m99.88 608.75s8.44 20.8 19.12 26.14c3.64 1.82 8.86 2.84 11.41 5.41 5.99 6.05 11.74 19.21 18.63 23.13 5.61 3.2 8.22 2.19 13.96 2.74l27 0.83c4.86-0.01 16.09-0.46 19.96-3.03 5.94-3.94 14.26-19.72 18.51-23.66 2.82-2.62 5.14-2.17 8.53-3.52l7-3.74c6.45-3.51 9.28-4.7 9.83-13.05 0.16-2.29-0.43-4.75-0.83-7 8.13-4.24 8.6-97.99 8.6-97.99 1.31-3.44 5.37-5.99 7.88-9.05 5.96-7.24 11.4-17.47 11.52-26.96 0.07-6.3 0.96-56.17 0.96-56.17l1.04-10.83v-17l1.83-22s0.63-9 0.63-9l3.67-14 3.19-12 6.94-17 10.25-15c2.09-3.51 1.31-4.07 4.65-9l19.62-29c13.82-25.69 20.17-52.97 20.22-82l0.83-15.42c0.05-7.53-5.1-31.39-7.63-38.58l-9.59-23c-8.24-17.74-19.81-34.1-33.61-48-46.09-46.41-119.52-62.14-181-40.46-38.53 13.59-70.42 39.7-91.83 74.46-9.53 15.47-22.71 61-22.71 61s-2.45 29-2.45 29l4.18 37c3.89 17.51 7.7 28.84 15.78 45 6.48 12.95 16.16 24 24.14 36 6.64 9.98 13.09 23.7 17.2 35 9.17 25.27 8.65 42.98 8.69 69l1.25 18v19l0.71 10v13c0.04 6.17-0.41 15.32 1.86 21 1.06 2.63 9.64 16.86 11.51 18.94 6.38 7.13 8.65 2 8.67 14.06 0.01 6.98-1.75 77.88-0.12 87.75zm175.5-181.13c-8.65-2.96-36.58-4.42-36.58-4.42l-25.8-0.2v-115s20.2 1.13 27.94-3.79c4.01-2.55 9.16-14.46 1.02-18.41-6.58-3.19-33.86-7.09-42.96-8.8l1-8s37-5.93 37-5.93c3.74-1.05 10.12-4.21 9.18-9.05-0.88-4.5-7.42-6.14-11.18-7.14-9.18-2.42-7.84-1.2-15-2.32l-21-3.56 1-9c9.48-0.21 25.2-3.58 34.91-5.31 4.02-0.71 9.94-2.25 11.25-6.73 1.55-5.32-5.19-7.63-9.08-8.69 0 0-38.08-6.27-38.08-6.27 0.51-2.81 0.61-7.84 3.29-9.28 2.05-1.1 9.1-1.65 11.71-2 0 0 26-4.86 26-4.86 1.38-0.56 2.74-1.27 3.85-2.28 9.01-8.13-7.57-12.01-12.85-12.96l-13-1.82s-43.73-8.25-43.73-8.25l63.73-10.59c3.78-1 10.19-3.86 7.92-8.91-2.12-4.72-9.44-5.53-13.92-6.18l-35-5.87v-9l18-2.75c3.71-0.61 18.64-2.7 20.86-4.18 3.73-2.5 4.55-7.62-0.89-9.33-3.09-0.97-9.52 0.69-12.97 1.11 0 0-14 2.2-14 2.2h-11s-29.62 0.98-31 0.95l-39.98 2.22c-4.95 0.98-6.37 5.71-3.42 9.39 1.32 1.65 4.52 3.3 6.4 4.39v2c-3.33 1.51-5.06 2.4-8 4.68-1.92 1.48-4.12 3.39-5.57 5.33-8.49 11.34 5.6 20.13 14.57 23.99v2c-8.73 3.34-21.49 12.11-15.35 22.99 3.22 5.71 9.87 8.85 15.35 12.01-4.54 4.55-11.28 6.65-15 12.17-7.93 11.76 6.56 20.47 16 23.83-5.77 6.16-26.85 12.71-15.44 26.91 1.58 1.97 3.32 3.29 5.44 4.62l10 5.47c-4.45 4.26-11.34 5.66-16.3 12.29-3.09 4.11-0.12 18.56 1.78 20.31 2.96 2.73 7.75 2.47 11.52 2.39l22.12 0.13c-0.12 6.88-0.12 63.88-0.12 63.88v50l-63 5-2.84-11v-27c-0.19-17.05-4.73-42.09-10.9-58-4.43-11.4-9.35-21.78-16.15-32-6.97-10.48-17.53-22.98-22.95-34-4.34-8.81-8.7-17.66-11.81-27-7.19-21.6-9.68-46.41-7.27-69l3.05-19c4.7-18.79 8.98-32.03 18.98-49 10.95-18.57 25.8-34.85 42.89-47.88 43.53-33.2 101.89-43.54 154-25.88 0 0 48.04 24.23 60.83 36.34 18.57 17.58 32.18 38.65 41.36 62.42 5.25 13.6 9.74 30.38 9.81 45l1 17-0.91 10c-1.96 28.01-10.8 52.14-25.52 76l-14.12 19.17-14.37 23.83c-8.33 18.04-16.05 47.1-16.08 67v22c-0.02 13.01-0.62 21.62-0.62 21.62zm-113.38-311.62v2c-10.57 3.5-15.53 4.59-26 0 4.18-2.4 21.1-2.79 26-2zm31.18 19.27 30.37 10.55-26.55 2.18-25 4c1.4-8.38 4.41-8.62 9.95-14.08 2.93-2.9 6.32-1.83 11.23-2.65zm-33.39 1.73v14.94c-0.75 5.21-8.52 6.16-12.79 5.72-3.94-0.4-13.43-4.2-17-6.15-1.46-0.8-4.14-2.31-4.83-3.88-1.6-3.64 4.26-6.94 6.83-8.26 11.43-5.86 16.12-6.26 27.79-2.37zm3.59 0.38c1.94 0.52 4.38 0.78 5.63 2.35 1.18 1.49 2.45 12.02-2.14 13.61-2.75 0.96-3.79 0.15-4.75-2.34-0.13-1.15 0.28-10.21 1.26-13.62zm32.35 38.35 16.54 7.09-14.27 1.18-25 5c-1.9-10.28 6.18-12.82 9.82-15 0 0 12.91 1.73 12.91 1.73zm-36.73 17.44c-6.14-0.03-6.82 1.69-14 0-4.43-0.78-18.04-5.34-19.83-9.48-2.03-4.69 8.63-8.82 11.83-10.1 5.33-2.06 16.64-5.55 21.05 0 1.56 1.92 1.52 16.62 0.95 19.58zm11.09-23.9-0.09 20.89c-1.65 0.12-4.18 0.73-5.77 0-4.85-1.59-2.5-17.25-3.14-20.98l9 0.09zm59.91 49.23c2.31 3.6-17.88 3.25-31.75 4.5-7.37 0.38-19.51 1.98-26.25 2 1.71-10.87-0.39-7.49 6.38-15.12 6.1-6.89 49.98 6.03 51.62 8.62zm-70.12-13.5c-1.8 7.37-0.85 16.68 0.12 24-14.53 2.05-10.51 2.46-25-2.86-2.9-1.07-8.57-3.29-9.83-6.28-1.53-3.62 4.34-6.03 6.83-7.26 3.73-1.84 15.14-6.34 19-6.04l8.88-1.56zm3.87 0.25c1.75 0.34 5.15-0.67 6.5 0.5 2.22 1.94 0.31 18.44-1.85 20.51-0.85 0.82-2.12 1.3-3.31 1.2-4.08-0.33-2.46-18.26-1.34-22.21zm65.5 49.75c-4.85 1.39-42 6.75-42 6.75-6.5 0.25-7.35 1.37-13.25-0.25 0.25-5.25-2.38-7.5 1.12-16.38 5.09-6.04 54.13 9.88 54.13 9.88zm-71.5 9.88c-9.39 3.42-15.9 0.9-24.75-3.2-1.86-0.87-6.99-3.33-7.83-5.14-1.6-3.42 3.53-5.72 5.83-6.83 5.9-2.85 19.57-11.07 25.88-8.33 1.22 0.53 0.87 23.5 0.87 23.5zm12.87-25.76c-0.19 14.74 1.2 23.4-7.62 25.88-2.78-5.99-1.77-18.1-1.88-24.62l9.5-1.26zm18.38 36.93c0.23-1.35 0.17-2.37 1.02-3.54 4.56-6.26 11.75 2.55 2.96 3.54h-3.98zm-30.73 28.77c-5.18 0.54-30.15-0.44-34.52-1.94-6.87-14.74 6.14-18.21 17.52-21.79 4.54-1.43 12.22-4.94 17-3.09 2 3.82 2.73 25.82 0 26.82zm83.46-8.09c-5.23 1.27-17.89 6.12-23.73 6.25-6.35 0.13-34.33 4.25-34.36-1.71l-0.55-18c8.77 0.08 32.94 5.96 41.55 7.46 5.35 0.93 17.09 6 17.09 6zm-133.35 207.27s18.62-3 18.62-3h92s34.24 0.9 35.55 3.57c0.95 1.93-8.69 112.02-9.3 114.43-1.17 4.54-6.28 7.75-10.25 9.61-10.5 4.91-15.52 1.97-26 0.67l-18-1.28-39 1.09c-6.92 0.51-12.09 2.98-19 1.97-8.65-1.25-18.78-6.65-22.33-15.07-2.97-7.03-3.09-20.45-2.22-23.94 0.72-2.88-0.07-88.05-0.07-88.05zm122.62 30c-6.05-2.51-8.66-2.02-15-2-13.22 0.04-47.56 3.92-60 7.29-4.56 1.24-19.84 3.97-21.83 8.04-1.32 2.7 1.84 3.83 3.85 4.22 5.57 1.05 12.4 0.04 17.98 0 11.61-0.08 44.98-5.66 57-8.45 6.18-1.43 15.48-2.56 18-9.1zm0 27c-6.05-2.51-8.66-2.02-15-2-13.22 0.04-47.56 3.92-60 7.29-4.56 1.24-19.84 3.97-21.83 8.04-1.32 2.7 1.84 3.83 3.85 4.22 5.57 1.05 12.4 0.04 17.98 0 11.61-0.08 44.98-5.66 57-8.45 6.18-1.43 15.48-2.56 18-9.1zm0 26c-6.05-2.51-8.66-2.02-15-2-13.22 0.04-47.56 3.92-60 7.29-4.56 1.24-19.84 3.97-21.83 8.04-1.32 2.7 1.84 3.83 3.85 4.22 5.57 1.05 12.4 0.04 17.98 0 11.61-0.08 44.98-5.66 57-8.45 6.18-1.43 15.48-2.56 18-9.1zm-67.62-306.12c0.89-3.24 13.76-4.4 13.74-4.38l1.5 29.5s-16.12-0.88-16.12-0.88l0.88-24.24z" stroke="#000"/>
</svg>
