<?xml version="1.0" encoding="UTF-8"?>
<svg width="55px" height="91px" viewBox="0 0 55 91" version="1.1" xmlns="http://www.w3.org/2000/svg" xmlns:xlink="http://www.w3.org/1999/xlink">
    <!-- Generator: Sketch 47.1 (45422) - http://www.bohemiancoding.com/sketch -->
    <title>Untitled 6</title>
    <desc>Created with Sketch.</desc>
    <defs></defs>
    <g id="Page-1" stroke="none" stroke-width="1" fill="none" fill-rule="evenodd">
        <g id="noun_250927_cc" transform="translate(-22.000000, 0.000000)" fill-rule="nonzero" fill="#000000">
            <path d="M50.065,0.0059 C43.7224,-0.00094 37.521,1.6543 32.725,5.0274 C27.9268,8.4023 24.5485,13.517 23.9192,20.3184 C23.35339,26.4343 23.51402,27.3164 24.89849,33.7764 C24.9352872,33.9477371 25.070566,34.0807116 25.24251,34.11456 C42.51051,37.49256 58.99151,37.52876 74.49851,35.06062 C74.6669417,35.0333526 74.8042615,34.9108571 74.85051,34.74662 C76.37951,29.26962 76.60551,29.84162 76.22451,20.23362 C75.83251,10.34662 65.77451,-0.28538 50.07551,0.00662 L50.06571,0.00662 L50.065,0.0059 Z M50.08259,0.88159 C65.38459,0.59259 74.97859,10.95059 75.34859,20.26759 C75.71859,29.62359 75.51059,29.15359 74.07559,34.22759 C58.83659,36.62159 42.65759,36.57559 25.70359,33.29559 C24.40359,27.22459 24.24159,26.36059 24.79259,20.40059 C25.39959,13.84359 28.61159,8.99159 33.22859,5.74459 C37.84659,2.49689 43.87959,0.87479 50.07259,0.88309 C50.075864,0.882477242 50.0791308,0.8818272 50.08239,0.88114 L50.08259,0.88159 Z M25.10759,34.62459 C33.54029,53.17659 36.41859,53.70059 35.60959,65.53359 C35.48045,66.17105 36.2265,68.46369 37.68149,69.99219 C37.56079,71.05879 37.78841,70.79842 37.96101,71.36049 C38.11778,71.63527 38.62755,71.98207 38.62755,71.98207 C38.73,71.99814 38.84963,72.00777 38.95398,72.02312 L38.95398,73.99342 C46.25018,74.03333 53.66698,74.39983 60.28298,72.58412 L60.2693,72.0935 C60.33335,72.0879 60.40932,72.0836 60.47258,72.07786 C60.47258,72.07786 61.09625,71.64568 61.30527,71.31554 C61.44418,71.09613 61.57085,70.45333 61.66102,70.12714 C62.57424,68.67264 63.34762,67.43684 63.82682,66.16304 C62.51312,55.29104 67.43772,49.82304 71.84872,41.29204 C72.71998,39.60694 73.83732,37.85174 74.39172,35.69194 C61.34672,38.21174 36.32072,37.43594 25.10672,34.62474 L25.10759,34.62459 Z M60.12359,73.99359 C53.59629,75.58679 46.54659,75.44039 39.75359,74.76568 L38.42049,76.08508 C46.38479,76.56132 55.09849,77.14378 60.65449,74.44898 L60.12282,73.99354 L60.12359,73.99359 Z M60.04345,76.79069 C53.51615,78.38389 46.46845,78.23749 39.67545,77.56278 L38.34045,78.88218 C46.30475,79.35842 55.01845,79.93888 60.57445,77.24418 L60.04278,76.7907 L60.04345,76.79069 Z M60.149,79.42749 C53.6217,81.02069 46.574,80.87229 39.781,80.19763 L38.4479,81.51703 C46.4122,81.99327 55.1239,82.57573 60.6799,79.88093 L60.14823,79.42745 L60.149,79.42749 Z M60.20373,82.01739 C53.67643,83.61059 46.62673,83.46419 39.83373,82.78948 L38.50063,84.10888 C46.46493,84.58512 55.18063,85.16758 60.73663,82.47278 L60.20301,82.01734 L60.20373,82.01739 Z M56.28463,86.99199 C52.28163,87.28265 48.07243,87.4568 43.22163,87.26564 C43.74911,87.6498 44.21164,87.92609 45.56523,89.71874 C48.98023,90.20567 51.55853,89.98233 53.98983,89.63078 C54.04337,88.9388 55.45603,87.90418 56.28463,86.99198 L56.28463,86.99199 Z" id="Shape"></path>
        </g>
    </g>
</svg>