<svg height="960" viewBox="0 0 960 960" width="960" xmlns="http://www.w3.org/2000/svg"><g fill="#000" fill-rule="evenodd"><g fill-rule="nonzero"><path d="m480.321099 4.92190057c-154.099903 0-279.000545 125.22643843-279.000545 279.67504243v1.716072c.335463 54.889666 16.507359 107.3958 46.062793 152.23748l.293653.442505.087896 3.407082.042673 1.129082.056423 1.029922c.187718 2.960851.467918 4.968544 1.551382 7.822909l.139712.357681 1.623979 3.822619 3.146826 7.339162 2.81095 6.513115c.341471.788864.683236 1.577538 1.025155 2.365677l2.052262 4.719656 2.049323 4.690271 2.039731 4.644337 2.023484 4.581856 2.663985 5.989363 2.636012 5.872277 2.1859 4.820349 1.49121 3.257578 1.711071 3.701179 1.359676 2.908214 1.551001 3.274911 1.461809 3.036475.924333 1.889786.88371 1.780716.842693 1.670406.801282 1.558856.75948 1.446068.541939 1.009788.518038.945124.331998.5939c7.460252 13.23493 13.59584 25.719565 19.104608 40.400883 7.714681 20.560259 12.055392 40.566084 12.055392 59.232811v41.598535c0 6.486299 1.097392 14.928992 3.825585 23.658284l.221177.697125c4.107337 12.754252 11.102154 24.050381 21.68558 32.64229l.435725.348713.778289.898421.692719.811644.729243.866316c2.493916 2.982893 4.987409 6.166819 7.279358 9.371271 2.110934 2.951369 3.929561 5.754954 5.360184 8.292887.309087.548322.596074 1.077422.86027 1.584773l.379112.744399c.542767 1.091185.968396 2.065872 1.268996 2.895285l.252853.7314.585007 1.728678.518002 1.560058.34747 1.068797.412506 1.302611.358944 1.177005.310271 1.067039.266485.972715.11835.455874.209973.860556.136498.608322.120805.583859.107175.565994.095607.554727.113045.733517.101034.740859.127521.973809c.043362.319866.086025.621485.129789.914842l.13639.865264.16539 1.005171.248978 1.595593.242907 1.643595.298071 2.143594.236382 1.803432.236652 1.897507.238873 2.005757.243044 2.128183.441231 4.061546.401045 3.871884.167531 1.659816.76738 13.439977.176678 3.408085.169258 3.554447.074039 1.694897.098033 2.451506.082628 2.355371.067476 2.273716.019169.742262c.324186 11.367218.324186 22.043739.004131 32.014979-.161022 5.016624 1.570092 9.910405 4.849722 13.709941l36.015304 41.724665c.540925.626675 1.120237 1.219161 1.734593 1.774038l23.481521 21.208155.429917.377274c.435158.370993.885893.723039 1.350936 1.055203l.159215.110484.393704.336292c.42526.358962.853733.708565 1.286223 1.049005l.651847.50381.658476.49021c.551658.402882 1.110849.79175 1.679142 1.166982l.686421.443759c.921322.583018 1.867554 1.13152 2.845127 1.647063l.739157.380502c3.353557 1.684669 7.082431 2.998351 11.433878 4.000898l.977337.217691c.329262.070873.662041.140062.998436.207594l1.020138.197642c.343731.064239.691178.126843 1.042444.187838l1.065352.178178 1.088862.168664 1.112977.159297 1.137694.150076c.191709.024252.384473.048126.578304.071626l1.1759.136517 1.202125.12766 1.228952.11895 1.256382.110386 1.284416.101967 1.313053.093694c.221261.014934.443742.02953.667453.04379l1.357137.081559 1.387281.07365 1.418028.065889c.288143.018712.576521.018712.864933.018712h.335092c.284096 0 .56816 0 .851999-.018156l1.429526-.06548 1.399357-.073329c.230743-.012883.460252-.0261.688539-.039653l1.355144-.085375c.223444-.014909.445688-.030161.666745-.045758l1.312181-.09775 1.284233-.106182 1.25684-.11476 1.230003-.123483 1.20372-.132353c.19846-.022807.395849-.045988.592177-.069549l1.165337-.145931 1.140443-.155166c11.469836-1.624951 19.166079-4.704218 25.714251-9.927507l.415973-.336211.364649-.300645.33506-.281514.486552-.418099.15093-.103369c.62002-.442849 1.214608-.921039 1.780754-1.432356l23.482351-21.208155c.614452-.554945 1.193852-1.14751 1.734853-1.774274l36.015305-41.724665c3.279992-3.799956 5.011113-8.694382 4.84967-13.711547l-.050157-1.806049-.049305-2.538953-.015515-1.102625-.028158-2.97281-.012816-3.279787.000022-2.338483.009908-3.170998.028639-4.328304.058126-5.6496.063393-4.752025.405887-9.021248.440678-9.338094.335389-6.655945.271046-4.977713.372623-3.647778.262363-2.49807.376979-3.454117.362998-3.145419.296607-2.420184.236193-1.82469.177799-1.312882.17928-1.271898.242779-1.642533.340379-2.167429.892372-4.909178.256166-1.358428.245689-1.256297.159525-.786178.235219-1.110311.155461-.698951.155466-.669713.156404-.643708.158276-.620933.161079-.601389.164815-.585076.169484-.571993.26502-.84053.185236-.553423.193169-.55165.202034-.553107.211831-.557795.222563-.565713.356002-.870486.385392-.906477c.044571-.103123.089744-.207115.135539-.312042l.168052-.372417.195899-.411125.223092-.448578.24963-.484774.275514-.519712.300743-.553395.325317-.585821.532622-.936781.584233-1.002671.41707-.702958.665341-1.103062.711062-1.157641.49835-.799989.940432-1.488114.498621-.779175.505603-.783893 1.053266-1.614668 1.10023-1.66374.49683-.744462c1.426894-2.132514 2.88285-4.259622 4.303333-6.298472l1.640018-2.339174.056749-.045353c10.451531-8.686394 17.31741-20.032198 21.293731-32.798723 2.708048-8.694563 3.774478-17.03073 3.774478-23.551336v-41.598535c0-18.666727 4.340711-38.672552 12.055392-59.232811 5.325142-14.191941 11.236013-26.331203 18.363657-39.080998l1.078332-1.923475.706188-1.293678.749764-1.411512.391092-.749536.606757-1.17857.846289-1.671868 1.117191-2.249424.94071-1.925619 1.233901-2.562483 1.033027-2.172765 1.347981-2.867289 1.410223-3.033056.875672-1.898342 1.816985-3.970761 1.903338-4.199193 2.669687-5.946651 1.669532-3.747424 1.004685-2.264831 2.025173-4.585654 2.040813-4.646773 2.049935-4.691646 2.052537-4.720275c.341945-.788195.683726-1.576907 1.025208-2.365796l3.917153-9.086933 3.518072-8.233082c.099974-.235684.195413-.473265.286265-.712613 1.32085-3.479756 1.555693-6.048257 1.471154-9.353419l-.025415-.783477-.017963-.404105-.046858-.812823c-.009092-.137631-.018848-.276891-.029301-.418603l-.075134-.919568.097422-.144189c30.27286-45.505534 46.721132-99.015544 46.721132-154.948868 0-154.448058-124.901186-279.67504243-278.999455-279.67504243zm0 40.00000003c131.983519 0 238.999455 107.2950814 238.999455 239.6750424 0 49.981249-15.280479 97.613673-43.332527 137.636767-2.507425 3.577453-3.369351 6.711214-3.73958 10.174712-.151456 1.416879-.176657 2.724985-.131543 4.116425l.029961.75368.026112.489239.050681.753536.067262.824548.120857 1.302024.065223.669126-3.280696 7.647311-2.397996 5.554071-2.023066 4.663237-2.022617 4.640532-2.01532 4.600867-2.001174 4.544239-1.98018 4.47065-2.463685 5.521713-2.296232 5.099077-1.641006 3.611467-1.821374 3.971012-1.477318 3.186842-1.396187 2.978206-1.521641 3.200217-.61547 1.278114-1.162599 2.382764-.897131 1.804213-.669303 1.321289-.625148 1.210206-.439255.833333-.545363 1.010114-.378216.680542c-8.386423 14.878011-15.361584 29.071001-21.711094 45.992968-9.27567 24.720421-14.604971 49.282543-14.604971 73.285069l-.000671 41.711998-.010671.431455-.025287.552405c-.003699.067352-.007708.136572-.012038.207534-.049879.817333-.13404 1.721446-.257613 2.687402-.321965 2.516766-.866147 5.119707-1.658638 7.664108-1.95231 6.268158-5.096613 11.263865-9.553123 14.630788-.831092.627896-1.611863 1.319759-2.335186 2.069274l-.521556.540442c-.658222.682056-1.267123 1.410041-1.8221 2.178453l-1.86426 2.619122-.598281.850621-.794923 1.136251-1.610748 2.324407c-1.081037 1.570152-2.173698 3.178038-3.261295 4.803485l-.524083.785301c-.425088.638683-.842336 1.269587-1.252139 1.893475l-1.207464 1.851377-1.324884 2.064907-.906108 1.435623-.79893 1.284049-.767712 1.251689-.73642 1.219948-.705051 1.188827-.673608 1.158327c-.109644.190547-.217974.379849-.32499.567919l-.626302 1.113737c-.10175.183193-.202182.36518-.301295.545974l-.578827 1.070543c-.844453 1.584645-1.58177 3.074719-2.210809 4.479638l-.42708.974923-.426247.996568-.405112.96893-.385134.944841c-.062589.155663-.124393.31047-.185438.464495l-.357344.915359c-.058102.151193-.115493.301752-.172196.45175l-.332163.893861c-.05405.148053-.107461.295695-.160257.442997l-.309591.880347c-.100867.292489-.199467.584216-.295994.875772l-.283555.874746-.272276.877269-.262158.88334c-.042914.147926-.085455.296253-.127647.445055l-.249154.899099c-.081783.301992-.162364.606475-.241934.91404l-.235875.93253-.230975.954568-.227235.980154-.224654 1.009289-.223233 1.041972-.222973 1.078203-.223871 1.117983-.22593 1.161311-.345291 1.830967-.478417 2.626055-.387716 2.147415-.087591.474288-.187257 1.141102-.217994 1.383835-.281825 1.87196-.273859 1.917553-.268221 1.979416-.264907 2.057547-.263918 2.151946-.332049 2.847466-.270196 2.423825-.276765 2.571098-.507139 4.902725-.151644 1.504971c-.028089.280163-.050258.560887-.066493.841985l-.297892 5.433652-.334237 6.614417-.502518 10.660979-.383396 8.553647-.010768.293313-.061003 4.271132-.062005 5.605437-.028122 3.496567-.020269 4.100679-.003475 1.556358-.000019 2.396137.007706 2.460076.010243 1.650892.007117.928026-30.201 34.987-21.336 19.272-.43962.321415c-.444062.334578-.874236.687721-1.289351 1.058572l-.551017.49049-.429012.371523-.30639.249227-.068385.043191-.145547.070661-.190252.080277c-.035701.01418-.073465.02876-.113391.04374l-.266319.094677-.323038.104261-.384562.113831-.233451.06491-.256006.067936-.539488.133349c-.092989.021937-.18752.043729-.283607.065372l-.595249.128043c-.102345.021034-.206264.041912-.311769.062631l-.652137.12238c-.111888.02007-.225382.039975-.340493.059711l-.710149.11636c-.121619.019047-.244876.037919-.369781.056611l-.769286.109984-.809335.105534-.849885.100926c-.145055.016428-.29182.032657-.440305.048685l-.911648.093715c-.15541.015206-.312563.030204-.471467.04499l-.974535.086147-1.017084.080904-1.060134.075501-1.103683.06994-1.147734.06422-1.05089.051286-1.491091-.076734-1.060658-.063261-1.020415-.068301-.980637-.073187-.941322-.077919-.902471-.0825-.864084-.086925c-.140841-.014848-.280102-.029874-.417792-.045075l-.807373-.093278-.770145-.097321-.733381-.101211-.697082-.104948-.661245-.108531c-.107247-.018379-.21302-.036901-.317329-.055562l-.608361-.113619-.573684-.11682c-.09275-.019728-.184074-.039583-.273983-.059562l-.522538-.121333c-.084284-.020461-.167171-.04104-.248672-.061732l-.472437-.125502-.439615-.128088-.532598-.169388-.245131-.083432c-.249146-.09058-.38637-.167112-.590338-.33041l-.313087-.265702-.404923-.355394-.455035-.405518-.42005-.364868c-.28332-.239269-.573159-.470542-.869168-.693566l-.446355-.327313-21.33-19.265-30.162-34.945.019964-1.28513c.102862-7.449669.051864-15.190652-.152355-23.198893l-.097188-3.611568-.050027-1.636515-.057163-1.673197-.135938-3.47292-.121064-2.731625-.187224-3.837852-.422995-7.77-.512777-8.846612c-.0162-.280498-.038309-.560624-.066313-.84019l-.444723-4.368825-.282878-2.690701-.409681-3.743618-.200365-1.754963-.264699-2.234073-.264011-2.127861-.198946-1.5359-.268362-1.980817-.274023-1.918978-.281991-1.873276-.218112-1.384671-.219483-1.337913-.060768-.423409-.098074-.750516c-.044281-.34347-.090062-.684128-.137675-1.023082l-.097767-.675965-.103244-.673393-.166423-1.009577-.119516-.675585-.127057-.67991-.206017-1.032287-.148494-.699347-.158101-.710571-.168299-.723765-.179087-.738932-.190465-.756068-.202433-.775175-.214992-.796254-.228141-.819303-.241879-.844324-.256209-.871314-.412472-1.361891-.448033-1.433708-.319428-.998988-.511727-1.568183-.746226-2.231368-.401838-1.180314c-1.359014-3.970495-3.248591-8.006987-5.60329-12.184235-2.197337-3.898089-4.778089-7.87656-7.670718-11.920844-2.928116-4.093899-6.02755-8.05155-9.126561-11.758176l-.801183-.952511-1.146436-1.342444-1.260691-1.44659-.999262-1.119917-.096316-.105805c-.583329-.638766-1.207485-1.239013-1.868536-1.79696l-.430944-.36373-.417329-.342698-.426429-.331307c-4.455955-3.366504-7.625163-8.405396-9.604229-14.737737-.804108-2.572872-1.358863-5.205267-1.689152-7.746321-.105611-.812505-.183455-1.58083-.236359-2.288895l-.04116-.624116-.026049-.545732-.011011-.415626-.000693-41.703976c0-24.002526-5.329301-48.564648-14.604971-73.285069-6.157101-16.40918-12.902509-30.25227-20.951866-44.640986l-1.00771-1.797034-.395983-.724898-.56859-1.068212-.614048-1.182256-.829905-1.634603-.897279-1.804509-1.16281-2.3832-1.470854-3.070631-1.588577-3.37115-1.700725-3.659033-2.073862-4.518051-1.922277-4.233372-2.016909-4.48154-1.495499-3.346038-.968977-2.177467-1.978137-4.466056-1.999805-4.54116-2.014489-4.599-2.022191-4.639573-2.022909-4.662884-3.507586-8.133672-2.613974-6.102659-.063912-2.550773-.037259-1.115328c-.006784-.179313-.013885-.355553-.021348-.529043l-.049478-1.010524c-.063623-1.146467-.149354-2.189804-.272529-3.240662-.517895-4.418361-1.353125-7.724329-4.084629-11.711321-27.13066-39.60078-41.871291-86.434161-41.871291-135.527406 0-132.380507 107.015392-239.6750424 239.000545-239.6750424z"/><path d="m692.376979 426.112593c5.417531-1.073407 10.679476 2.448201 11.752883 7.865732s-2.448202 10.679476-7.865733 11.752883c-27.729168 5.494142-66.442455 9.767906-117.853977 12.133221l-4.857085.216137c-2.447195.105251-4.92241.206262-7.42582.302961l-5.044467.187629-5.119969.176006-5.195785.164257c-.8723.02639-1.747772.052285-2.626422.077683l-5.310098.146396c-.891391.023398-1.785973.046293-2.683754.068682l-5.425117.128253-5.502188.116-5.579574.10362c-1.87279.032463-3.758531.062842-5.657273.091115l-5.735286.078484c-3.849599.048084-7.751415.087664-11.705868.11857l-5.971209.039835c-1.001798.005548-2.006899.010548-3.01531.014999l-6.09023.020084c-1.021674.002241-2.046671.003926-3.074997.005054l-3.094972.001707c-2.068948 0-4.124569-.002278-6.166914-.006755l-6.08726-.020066c-1.007922-.004447-2.012539-.009444-3.013857-.014987l-5.968365-.039799c-2.964439-.02316-5.899301-.051194-8.804764-.084031l-5.771776-.072059c-3.821787-.052281-7.591517-.113018-11.309607-.182042l-5.538457-.109732-5.461312-.122039-5.38448-.134218c-.891028-.023378-1.778868-.047258-2.663526-.071638l-5.269819-.152254-5.193772-.16412-5.118037-.17586c-.846713-.030281-1.690283-.061046-2.530717-.092293l-5.005024-.193235-4.930074-.20466c-1.630901-.070111-3.249362-.142105-4.855437-.215961l-4.781114-.227135c-6.32541-.31024-12.453462-.649943-18.387502-1.017768l-4.414204-.28112c-8.026209-.524977-15.687194-1.102486-22.991652-1.729041l-3.948945-.3466c-25.438991-2.284245-46.416235-5.17703-63.31934-8.522929-5.417728-1.072417-8.940298-6.333718-7.867882-11.751445 1.072417-5.417727 6.333718-8.940297 11.751445-7.867881 23.05901 4.564435 54.268705 8.282111 94.697668 10.703875l4.447056.25903c4.483731.253846 9.077641.492076 13.783118.714105l4.742717.216608c.796668.035194 1.596448.069933 2.399347.104213l4.854862.200165c1.630795.064875 3.274114.127896 4.93001.189041l5.005468.177788 5.081232.166404c3.412812.107113 6.876339.206551 10.390993.298141l5.310377.131478c1.782942.04185 3.578717.081716 5.387376.119577l5.464682.107545c5.503438.101487 11.123298.184732 16.860968.249154l5.776991.058126c6.785758.060442 13.732497.094999 20.84242.102743l3.057108.001675c8.183007-.000074 16.152238-.035372 23.910984-.104508l5.779645-.058176c4.783568-.053731 9.485237-.120544 14.10581-.200103l5.505812-.101567c.911165-.01794 1.819099-.036384 2.723808-.055331l5.389613-.119676c.891837-.020942 1.780462-.04238 2.665881-.064312l5.274107-.137494c2.617873-.071686 5.207014-.147766 7.767597-.228166l5.08314-.16654 5.007292-.177931 4.931754-.189193c.815681-.032463 1.628228-.065391 2.437647-.098779l4.819024-.205842c2.390795-.105666 4.753552-.215433 7.088444-.329229l4.632685-.23294c16.084723-.833941 30.809767-1.862887 44.234652-3.061791l3.800354-.347147c.627513-.058622 1.252091-.117623 1.87374-.177002l3.694797-.360777c2.439835-.243508 4.833014-.492966 7.179946-.748201l3.485765-.387163c16.105526-1.826778 29.955082-3.932381 41.689753-6.25744z"/><path d="m334.903711 699.522201c2.929854-4.566942 8.951987-5.950903 13.570492-3.170104l.246051.152961c.988206.633968 2.01144 1.229152 3.076215 1.786886.721964.3784 1.633118.751877 2.723982 1.119457l.612782.199908.648085.198703.683046.197464.717664.196189c.122477.03259.246382.065125.371708.097606l.768952.194211c.130982.032256.26337.064455.397159.096597l.81947.192154.852721.19074.88563.18929.918197.187805.950423.186284.982306.18473 1.013848.183139 1.045046.181514 1.075905.179854 1.670966.26659 1.151552.17555 1.181212.173766 1.210531.171948 1.239508.170095 1.912845.251591 1.976119.247223 2.03824.242739 2.099205.238135 2.159017.233413 2.217674.228573 3.04615.29703 2.350055.216819 2.404865.211584 3.289753.273764 2.528269.198909 2.579232.19328 2.629042.187533 3.580877.240898 2.740776.173661c13.715421.846611 28.381916 1.443798 43.104679 1.833204l3.685397.093136 4.238499.09622 3.057938.061939 5.777541.098911 6.532955.077692 7.611949-.002448 4.155381-.045937 4.904431-.074703 3.954591-.07321 4.147603-.088369 3.228367-.076661c14.726286-.365105 29.44894-.935542 43.273156-1.752952l3.348815-.204032 1.822021-.116451 3.580877-.240899 2.629043-.187533 2.579236-.193281 2.528273-.198912 3.289762-.273769 2.404874-.211589 2.350067-.216825 2.294105-.221943 2.236989-.226943 2.17872-.231824 1.419539-.157204 1.392787-.159286 2.038272-.242756 1.976158-.247244 1.912889-.251613 1.23954-.170112 1.210566-.171967 1.18125-.173786 1.716161-.264014 1.106465-.178182 1.075953-.179879 1.555971-.272924.998176-.183969.966468-.185543.934417-.187082.902024-.188588.86929-.190056.836214-.191492c.136594-.032033.271795-.064124.405597-.096272l.785959-.193578.752028-.194924c.122491-.032598.243555-.065251.363183-.097957l.700491-.196879c.227718-.065839.449639-.131887.665705-.198139l.630578-.199364c1.225802-.399928 2.238788-.806993 3.026654-1.219934.850023-.445246 1.674898-.915212 2.476808-1.409981l.597161-.375728c4.648494-2.982172 10.834371-1.631351 13.816543 3.017143s1.631351 10.83437-3.017143 13.816542c-1.479375.949071-3.009397 1.839037-4.591061 2.667518-1.83761.963142-4.091767 1.855024-6.752726 2.682426l-.90204.273421c-.152846.045176-.306945.090154-.462295.134937l-.947089.266362-.977023.261725-1.006876.257143c-.170296.042479-.341832.084769-.514607.126871l-1.051505.250377c-.177724.041358-.356683.08253-.536877.123519l-1.095953.243735c-.185122.040257-.371474.080334-.559056.120229l-1.140221.237219-1.169632.232944c-.197386.038471-.395993.076766-.595821.114887l-1.2136.226637-1.242811.222503-1.271942.218423-1.300993.2144-1.329964.210432c-.22407.034745-.449344.069326-.675821.103746l-1.373269.204586-1.402039.200757-1.43073.196985-2.199712.288527-2.263814.280353-1.544687.182453-2.370047.267148-2.433427.259475-1.657362.168815-2.538458.247107-1.727132.160744-2.642737.235262-1.796401.153021-2.746265.223939-1.865168.145647-2.84904.213141-2.910344.206911-3.975353.266519-3.052335.19311c-13.973992.862571-28.864847 1.468953-43.803208 1.864079l-4.828663.12036-5.284248.114453-4.980852.090482-4.573806.066933-4.037159.042255-8.096302-.004246-3.491918-.038009-4.573807-.066933-4.980852-.090482-4.204516-.089576-3.271897-.077693c-14.940942-.370427-29.885516-.949468-43.964366-1.782055l-4.516957-.277674-3.011917-.196949-1.974153-.134573-2.910343-.206911-2.849037-.213139-2.78746-.219555-2.725613-.226159-2.663495-.232952-1.741018-.159167-2.559361-.244689-1.671345-.167167-2.454475-.256951-1.60117-.175514-2.348836-.269734-2.28509-.277654c-.250348-.031297-.49951-.062745-.747485-.094344l-1.47359-.191419-1.445018-.195106-1.416366-.198849-1.387633-.202649-1.358821-.206503-1.329927-.210413-1.300954-.214379c-.214406-.036064-.427603-.072295-.639586-.108695l-1.257343-.220433-1.228169-.224538-1.198914-.228699-1.169579-.232917-1.140164-.237188c-.187572-.039891-.373914-.079962-.559026-.120214l-1.095891-.243702-1.066275-.248114-1.036578-.252582c-.170284-.042472-.339327-.085133-.507128-.127984l-.991884-.259387-.961986-.263994-.932009-.268657-.901951-.273376-.871814-.278149c-.285572-.093518-.566109-.187841-.841595-.282979l-.811297-.287865c-1.592241-.580652-3.002209-1.190951-4.227013-1.832904-1.58391-.829658-3.113931-1.719624-4.593307-2.668695-4.648494-2.982172-5.999314-9.168048-3.017143-13.816542z"/></g><path d="m387.372423 839.921901c-7.393106 36 24.185855 54 94.736883 54s100.617996-18 90.200905-54c-28.501639 5.728641-58.525578 8.592961-90.071817 8.592961s-63.168229-2.86432-94.865971-8.592961z"/><path d="m376.495241 750.060929c1.027786-5.42637 6.259913-8.992128 11.686284-7.964342l1.661061.308655c.279377.050929.560022.101601.841933.152017l1.706666.299412c.286978.049388.575221.09852.864732.147394l1.752254.290163 1.782635.283992 1.813008.277819 1.843374.271642c.619518.089518 1.244095.178006 1.87373.265463l1.904078.259281 1.934419.253095 1.964751.246906 1.995074.240714 2.02539.23452c.340091.03857.681445.076882 1.024061.114936l2.070847.225221c.347666.03702.696595.073782 1.046785.110285l2.116287.215917 2.14657.20971c.360284.034434.72183.068609 1.084638.102526l2.191977.200393 2.22224.194179 2.252494.187961 2.282738.18174 2.312976.175516 2.343206.169289 2.373425.163058 2.403639.156826 2.433842.15059 2.464039.14435 2.494226.138108 2.524406.131862 3.843178.186077 2.599819.116235 2.629969.109979 2.660112.10372 2.690247.097458 4.091853.134438 4.159609.120331 2.810701.072378 2.840794.0661 2.870879.059819 2.900955.053536 2.931024.047249 2.961084.040959 2.991136.034666 4.543032.040193 3.06623.01892 4.655635.01656c1.042089.002104 2.08918.003156 3.141271.003156 5.522848 0 10 4.477152 10 10 0 5.522847-4.477152 10-10 10l-1.608614-.000812-3.194703-.00649-3.164678-.012983-3.13466-.01948-3.104651-.025979-3.07465-.032482-3.044658-.038987-3.014673-.045496-2.984697-.052007-2.954729-.058522-2.924769-.06504-2.894818-.07156-4.286085-.119574-2.819975-.087876-2.790052-.094408-2.760138-.100942-2.730232-.10748-2.700334-.114021-2.670444-.120564-2.640562-.127112-2.61069-.133661-2.580824-.140215-2.550967-.146771-2.521119-.153329-2.491279-.159892-2.461447-.166458c-.407755-.02829-.814268-.056854-1.219539-.085691l-2.416714-.176311c-.400301-.029933-.79936-.06014-1.197177-.090621l-2.372-.186171-2.342201-.19275-2.31241-.19933-2.282627-.205913-2.252853-.212501-2.223087-.21909-2.193329-.225683c-.363075-.038164-.724911-.076602-1.085508-.115315l-2.148707-.235578-2.11897-.242179c-.350684-.040914-.70013-.082102-1.048337-.123566l-2.074379-.252086c-1.02976-.127694-2.048376-.257867-3.055853-.390519l-2.000104-.268612c-.330875-.04532-.660514-.090916-.988915-.136787l-1.955562-.278537-1.925878-.285158c-.318507-.048078-.635777-.096432-.951811-.145062l-1.881368-.295094c-.311089-.049735-.620942-.099746-.92956-.150033l-1.836876-.305037c-.303675-.051392-.606115-.103061-.907319-.155006l-1.792403-.314988c-.296264-.053051-.591293-.106379-.885087-.159983l-1.747949-.324945c-5.426371-1.027786-8.992128-6.259914-7.964342-11.686285z" fill-rule="nonzero"/><path d="m376.495241 781.060929c1.027786-5.42637 6.259913-8.992128 11.686284-7.964342l1.661061.308655c.279377.050929.560022.101601.841933.152017l1.706666.299412c.286978.049388.575221.09852.864732.147394l1.752254.290163 1.782635.283992 1.813008.277819 1.843374.271642c.619518.089518 1.244095.178006 1.87373.265463l1.904078.259281 1.934419.253095 1.964751.246906 1.995074.240714 2.02539.23452c.340091.03857.681445.076882 1.024061.114936l2.070847.225221c.347666.03702.696595.073782 1.046785.110285l2.116287.215917 2.14657.20971c.360284.034434.72183.068609 1.084638.102526l2.191977.200393 2.22224.194179 2.252494.187961 2.282738.18174 2.312976.175516 2.343206.169289 2.373425.163058 2.403639.156826 2.433842.15059 2.464039.14435 2.494226.138108 2.524406.131862 3.843178.186077 2.599819.116235 2.629969.109979 2.660112.10372 2.690247.097458 4.091853.134438 4.159609.120331 2.810701.072378 2.840794.0661 2.870879.059819 2.900955.053536 2.931024.047249 2.961084.040959 2.991136.034666 4.543032.040193 3.06623.01892 4.655635.01656c1.042089.002104 2.08918.003156 3.141271.003156 5.522848 0 10 4.477152 10 10 0 5.522847-4.477152 10-10 10l-1.608614-.000812-3.194703-.00649-3.164678-.012983-3.13466-.01948-3.104651-.025979-3.07465-.032482-3.044658-.038987-3.014673-.045496-2.984697-.052007-2.954729-.058522-2.924769-.06504-2.894818-.07156-4.286085-.119574-2.819975-.087876-2.790052-.094408-2.760138-.100942-2.730232-.10748-2.700334-.114021-2.670444-.120564-2.640562-.127112-2.61069-.133661-2.580824-.140215-2.550967-.146771-2.521119-.153329-2.491279-.159892-2.461447-.166458c-.407755-.02829-.814268-.056854-1.219539-.085691l-2.416714-.176311c-.400301-.029933-.79936-.06014-1.197177-.090621l-2.372-.186171-2.342201-.19275-2.31241-.19933-2.282627-.205913-2.252853-.212501-2.223087-.21909-2.193329-.225683c-.363075-.038164-.724911-.076602-1.085508-.115315l-2.148707-.235578-2.11897-.242179c-.350684-.040914-.70013-.082102-1.048337-.123566l-2.074379-.252086c-1.02976-.127694-2.048376-.257867-3.055853-.390519l-2.000104-.268612c-.330875-.04532-.660514-.090916-.988915-.136787l-1.955562-.278537-1.925878-.285158c-.318507-.048078-.635777-.096432-.951811-.145062l-1.881368-.295094c-.311089-.049735-.620942-.099746-.92956-.150033l-1.836876-.305037c-.303675-.051392-.606115-.103061-.907319-.155006l-1.792403-.314988c-.296264-.053051-.591293-.106379-.885087-.159983l-1.747949-.324945c-5.426371-1.027786-8.992128-6.259914-7.964342-11.686285z" fill-rule="nonzero"/><path d="m376.495241 813.060929c1.027786-5.42637 6.259913-8.992128 11.686284-7.964342l1.661061.308655c.279377.050929.560022.101601.841933.152017l1.706666.299412c.286978.049388.575221.09852.864732.147394l1.752254.290163 1.782635.283992 1.813008.277819 1.843374.271642c.619518.089518 1.244095.178006 1.87373.265463l1.904078.259281 1.934419.253095 1.964751.246906 1.995074.240714 2.02539.23452c.340091.03857.681445.076882 1.024061.114936l2.070847.225221c.347666.03702.696595.073782 1.046785.110285l2.116287.215917 2.14657.20971c.360284.034434.72183.068609 1.084638.102526l2.191977.200393 2.22224.194179 2.252494.187961 2.282738.18174 2.312976.175516 2.343206.169289 2.373425.163058 2.403639.156826 2.433842.15059 2.464039.14435 2.494226.138108 2.524406.131862 3.843178.186077 2.599819.116235 2.629969.109979 2.660112.10372 2.690247.097458 4.091853.134438 4.159609.120331 2.810701.072378 2.840794.0661 2.870879.059819 2.900955.053536 2.931024.047249 2.961084.040959 2.991136.034666 4.543032.040193 3.06623.01892 4.655635.01656c1.042089.002104 2.08918.003156 3.141271.003156 5.522848 0 10 4.477152 10 10 0 5.522847-4.477152 10-10 10l-1.608614-.000812-3.194703-.00649-3.164678-.012983-3.13466-.01948-3.104651-.025979-3.07465-.032482-3.044658-.038987-3.014673-.045496-2.984697-.052007-2.954729-.058522-2.924769-.06504-2.894818-.07156-4.286085-.119574-2.819975-.087876-2.790052-.094408-2.760138-.100942-2.730232-.10748-2.700334-.114021-2.670444-.120564-2.640562-.127112-2.61069-.133661-2.580824-.140215-2.550967-.146771-2.521119-.153329-2.491279-.159892-2.461447-.166458c-.407755-.02829-.814268-.056854-1.219539-.085691l-2.416714-.176311c-.400301-.029933-.79936-.06014-1.197177-.090621l-2.372-.186171-2.342201-.19275-2.31241-.19933-2.282627-.205913-2.252853-.212501-2.223087-.21909-2.193329-.225683c-.363075-.038164-.724911-.076602-1.085508-.115315l-2.148707-.235578-2.11897-.242179c-.350684-.040914-.70013-.082102-1.048337-.123566l-2.074379-.252086c-1.02976-.127694-2.048376-.257867-3.055853-.390519l-2.000104-.268612c-.330875-.04532-.660514-.090916-.988915-.136787l-1.955562-.278537-1.925878-.285158c-.318507-.048078-.635777-.096432-.951811-.145062l-1.881368-.295094c-.311089-.049735-.620942-.099746-.92956-.150033l-1.836876-.305037c-.303675-.051392-.606115-.103061-.907319-.155006l-1.792403-.314988c-.296264-.053051-.591293-.106379-.885087-.159983l-1.747949-.324945c-5.426371-1.027786-8.992128-6.259914-7.964342-11.686285z" fill-rule="nonzero"/></g></svg>