<?xml version="1.0" encoding="UTF-8" standalone="no"?>
<!-- Generator: Adobe Illustrator 19.2.1, SVG Export Plug-In . SVG Version: 6.00 Build 0)  -->

<svg
   xmlns:dc="http://purl.org/dc/elements/1.1/"
   xmlns:cc="http://creativecommons.org/ns#"
   xmlns:rdf="http://www.w3.org/1999/02/22-rdf-syntax-ns#"
   xmlns:svg="http://www.w3.org/2000/svg"
   xmlns="http://www.w3.org/2000/svg"
   xmlns:sodipodi="http://sodipodi.sourceforge.net/DTD/sodipodi-0.dtd"
   xmlns:inkscape="http://www.inkscape.org/namespaces/inkscape"
   version="1.2"
   id="Layer_1"
   x="0px"
   y="0px"
   viewBox="0 0 50.3 50.3"
   xml:space="preserve"
   sodipodi:docname="icon.svg"
   inkscape:version="0.92.4 (5da689c313, 2019-01-14)"><metadata
   id="metadata19"><rdf:RDF><cc:Work
       rdf:about=""><dc:format>image/svg+xml</dc:format><dc:type
         rdf:resource="http://purl.org/dc/dcmitype/StillImage" /></cc:Work></rdf:RDF></metadata><defs
   id="defs17" /><sodipodi:namedview
   pagecolor="#ffffff"
   bordercolor="#666666"
   borderopacity="1"
   objecttolerance="10"
   gridtolerance="10"
   guidetolerance="10"
   inkscape:pageopacity="0"
   inkscape:pageshadow="2"
   inkscape:window-width="1680"
   inkscape:window-height="987"
   id="namedview15"
   showgrid="false"
   showguides="false"
   inkscape:zoom="11.313709"
   inkscape:cx="-1.9477505"
   inkscape:cy="26.623153"
   inkscape:window-x="1672"
   inkscape:window-y="-8"
   inkscape:window-maximized="1"
   inkscape:current-layer="Layer_1" />






<path
   style="fill:none;stroke:#000000;stroke-width:0.1505474;stroke-linecap:butt;stroke-linejoin:miter;stroke-miterlimit:4;stroke-dasharray:none;stroke-opacity:1"
   d="M 39.961414,6.6914799 V 43.825712 L 28.390054,46.850905 13.700309,44.101492 13.662297,6.5205595 28.314424,3.7419179 Z"
   id="path837"
   inkscape:connector-curvature="0"
   sodipodi:nodetypes="ccccccc" /><path
   style="fill:none;stroke:#000000;stroke-width:0.1505474;stroke-linecap:butt;stroke-linejoin:miter;stroke-miterlimit:4;stroke-dasharray:none;stroke-opacity:1"
   d="m 28.314424,3.7419179 0.07563,43.1089871"
   id="path839"
   inkscape:connector-curvature="0"
   sodipodi:nodetypes="cc" /><path
   style="fill:none;stroke:#000000;stroke-width:0.1505474;stroke-linecap:butt;stroke-linejoin:miter;stroke-miterlimit:4;stroke-dasharray:none;stroke-opacity:1"
   d="M 25.958522,7.0054895 15.637201,8.6900574 15.66394,41.819892 25.958522,43.477721 Z"
   id="path841"
   inkscape:connector-curvature="0" /><path
   style="fill:none;stroke:#000000;stroke-width:0.1505474;stroke-linecap:butt;stroke-linejoin:miter;stroke-miterlimit:4;stroke-dasharray:none;stroke-opacity:1"
   d="m 38.338759,8.8772317 -8.42284,-1.845003 V 43.557939 l 8.556536,-1.871742 z"
   id="path843"
   inkscape:connector-curvature="0" /><path
   style="fill:none;stroke:#000000;stroke-width:0.1505474;stroke-linecap:butt;stroke-linejoin:miter;stroke-miterlimit:4;stroke-dasharray:none;stroke-opacity:1"
   d="m 13.716471,41.603672 -0.298621,0.04241 0.0032,-32.6743186 0.265485,0.037298 m 1.965435,0.2761225 4.305913,0.6049347 0.05007,30.8428684 -4.35028,0.594949"
   id="path845"
   inkscape:connector-curvature="0"
   sodipodi:nodetypes="cccccccc" /><path
   style="fill:none;stroke:#000000;stroke-width:0.04996318;stroke-linecap:butt;stroke-linejoin:miter;stroke-miterlimit:4;stroke-dasharray:none;stroke-opacity:1"
   d="m 25.894247,8.1851087 -5.903488,1.0399836 0.01736,0.6056442"
   id="path847"
   inkscape:connector-curvature="0"
   sodipodi:nodetypes="ccc" /><path
   style="fill:none;stroke:#000000;stroke-width:0.05018247;stroke-linecap:butt;stroke-linejoin:miter;stroke-miterlimit:4;stroke-dasharray:none;stroke-opacity:1"
   d="M 33.392184,9.1706485 29.932459,8.2613617"
   id="path849"
   inkscape:connector-curvature="0" /><path
   style="fill:none;stroke:#000000;stroke-width:0.1505474;stroke-linecap:butt;stroke-linejoin:miter;stroke-miterlimit:4;stroke-dasharray:none;stroke-opacity:1"
   d="m 33.478875,40.619553 4.939836,0.815465"
   id="path851"
   inkscape:connector-curvature="0" /><path
   style="fill:none;stroke:#000000;stroke-width:0.1505474;stroke-linecap:butt;stroke-linejoin:miter;stroke-miterlimit:4;stroke-dasharray:none;stroke-opacity:1"
   d="M 37.650292,41.231152 V 9.3182416 l -4.241986,0.6743268"
   id="path853"
   inkscape:connector-curvature="0"
   sodipodi:nodetypes="ccc" /><path
   style="fill:none;stroke:#000000;stroke-width:0.05018247;stroke-linecap:butt;stroke-linejoin:miter;stroke-miterlimit:4;stroke-dasharray:none;stroke-opacity:1"
   d="m 33.392184,9.1706485 0.08669,32.4839185 -3.544139,0.752737"
   id="path855"
   inkscape:connector-curvature="0"
   sodipodi:nodetypes="ccc" /><path
   style="fill:none;stroke:#000000;stroke-width:0.05018247;stroke-linecap:butt;stroke-linejoin:miter;stroke-miterlimit:4;stroke-dasharray:none;stroke-opacity:1"
   d="m 20.057897,40.782891 -0.0074,0.703767 5.901033,0.904964"
   id="path857"
   inkscape:connector-curvature="0"
   sodipodi:nodetypes="ccc" /><path
   style="opacity:1;fill:#000000;fill-opacity:1;stroke:#000000;stroke-width:0.01774218;stroke-linecap:butt;stroke-linejoin:miter;stroke-miterlimit:4;stroke-dasharray:none;stroke-dashoffset:0;stroke-opacity:1;paint-order:markers stroke fill"
   d="M 28.524939,25.319514 V 3.9501841 l 5.677103,1.4417778 5.598977,1.4261529 0.03417,18.4543042 -0.04396,18.438678 -5.254875,1.368818 c -2.890182,0.752849 -5.425096,1.422843 -5.633142,1.488874 l -0.378267,0.120058 z m 5.927112,17.40899 4.241606,-0.925406 -0.126899,-16.504424 C 38.496963,16.22124 38.500177,8.7882759 38.479373,8.767472 38.420761,8.7088598 29.939065,7.0031543 29.777199,6.867208 c 0,0 -0.01031,5.662253 -0.01031,18.418399 0,14.570872 0.03475,17.059959 0.0229,18.409923 0.121978,0.0014 2.329374,-0.458055 4.662257,-0.967026 z"
   id="path859"
   inkscape:connector-curvature="0"
   sodipodi:nodetypes="ccccccscccccscsscsc" /><path
   style="opacity:1;fill:#000000;fill-opacity:1;stroke:#000000;stroke-width:0.01774218;stroke-linecap:butt;stroke-linejoin:miter;stroke-miterlimit:4;stroke-dasharray:none;stroke-dashoffset:0;stroke-opacity:1;paint-order:markers stroke fill"
   d="M 23.379706,45.767618 C 20.891365,45.29486 17.717733,44.694962 16.327189,44.434512 l -2.52826,-0.473548 V 25.305743 6.650522 l 6.963806,-1.3095856 c 3.830093,-0.7202719 7.290168,-1.4087685 7.412146,-1.4536031 -0.003,0.4272585 -0.0048,4.3354496 -0.0048,21.3792917 0,11.769071 0.09637,21.421065 0.02318,21.410682 -0.07319,-0.01038 -2.325232,-0.436929 -4.813573,-0.909689 z m 2.692577,-20.427324 c 0,-16.0649314 0.03544,-17.843319 -0.0056,-18.473086 -0.593298,0 -10.257229,1.6693573 -10.558034,1.7189357 0,0 -0.02795,7.6675683 0.02219,16.7955303 l 0.02083,16.553324 5.058087,0.857422 c 2.743275,0.447947 5.34169,0.851499 5.463667,0.863018 0.03376,-11.806382 0.0498,-6.199182 -0.0011,-18.315144 z"
   id="path861"
   inkscape:connector-curvature="0"
   sodipodi:nodetypes="cccccscscscccscscccc" /><path
   style="opacity:1;fill:#000000;fill-opacity:1;stroke:#000000;stroke-width:0.01774218;stroke-linecap:butt;stroke-linejoin:miter;stroke-miterlimit:4;stroke-dasharray:none;stroke-dashoffset:0;stroke-opacity:1;paint-order:markers stroke fill"
   d="m 15.750569,25.293397 c 0,-15.069359 7.95e-4,-14.710871 0.02143,-15.8520306 0.170768,0.049595 1.377988,0.2197851 2.329413,0.3400061 L 19.83127,9.9999561 V 25.295864 40.591772 l -1.46373,0.206123 c -0.805051,0.113368 -1.723209,0.251198 -2.040351,0.306289 l -0.57662,0.100165 z"
   id="path863"
   inkscape:connector-curvature="0"
   sodipodi:nodetypes="scscccsscs" /><path
   style="opacity:1;fill:#000000;fill-opacity:1;stroke:#000000;stroke-width:0.0031364;stroke-linecap:butt;stroke-linejoin:miter;stroke-miterlimit:4;stroke-dasharray:none;stroke-dashoffset:0;stroke-opacity:1;paint-order:markers stroke fill"
   d="m 13.51347,25.29917 c 0,-10.799685 0.0105,-16.2308909 0.03136,-16.2308909 0.02076,0 0.03136,1.4619159 0.03136,4.3230199 0,2.37766 0.0094,9.681561 0.0209,16.23089 0.01948,11.100213 0.0173,11.910138 -0.03137,11.907871 -0.08386,-0.0039 -0.05226,-1.104676 -0.05226,-16.23089 z"
   id="path865"
   inkscape:connector-curvature="0"
   sodipodi:nodetypes="csssscc" /></svg>