<?xml version="1.0" encoding="UTF-8" standalone="no"?>
<!-- Generator: Adobe Illustrator 19.2.1, SVG Export Plug-In . SVG Version: 6.00 Build 0)  -->

<svg
   xmlns:dc="http://purl.org/dc/elements/1.1/"
   xmlns:cc="http://creativecommons.org/ns#"
   xmlns:rdf="http://www.w3.org/1999/02/22-rdf-syntax-ns#"
   xmlns:svg="http://www.w3.org/2000/svg"
   xmlns="http://www.w3.org/2000/svg"
   xmlns:sodipodi="http://sodipodi.sourceforge.net/DTD/sodipodi-0.dtd"
   xmlns:inkscape="http://www.inkscape.org/namespaces/inkscape"
   version="1.2"
   id="Layer_1"
   x="0px"
   y="0px"
   viewBox="0 0 50.5 50.5"
   xml:space="preserve"
   sodipodi:docname="icon.svg"
   inkscape:version="0.92.3 (2405546, 2018-03-11)"><metadata
   id="metadata15"><rdf:RDF><cc:Work
       rdf:about=""><dc:format>image/svg+xml</dc:format><dc:type
         rdf:resource="http://purl.org/dc/dcmitype/StillImage" /></cc:Work></rdf:RDF></metadata><defs
   id="defs13" /><sodipodi:namedview
   pagecolor="#ffffff"
   bordercolor="#666666"
   borderopacity="1"
   objecttolerance="10"
   gridtolerance="10"
   guidetolerance="10"
   inkscape:pageopacity="0"
   inkscape:pageshadow="2"
   inkscape:window-width="1680"
   inkscape:window-height="987"
   id="namedview11"
   showgrid="false"
   inkscape:zoom="6.608998"
   inkscape:cx="56.585054"
   inkscape:cy="36.79856"
   inkscape:window-x="1672"
   inkscape:window-y="-8"
   inkscape:window-maximized="1"
   inkscape:current-layer="layer3" />




<g
   inkscape:groupmode="layer"
   id="layer3"
   inkscape:label="Layer 3"><path
     inkscape:connector-curvature="0"
     d="m 1.8955169,25.307851 a 5.791362,23.700178 89.971871 0 1 23.6741061,-5.336872 5.791362,23.700178 89.971871 0 1 23.580854,5.339703 m -47.2677911,0.07963 a 6.6647277,23.700178 89.966948 0 1 11.3016301,-6.185744 6.6647277,23.700178 89.966948 0 1 24.711326,-0.0059 6.6647277,23.700178 89.966948 0 1 11.256103,6.180326"
     style="opacity:1;fill:none;fill-opacity:1;stroke:#000000;stroke-width:0.17161457;stroke-linecap:round;stroke-linejoin:round;stroke-miterlimit:4;stroke-dasharray:none;stroke-opacity:1;paint-order:markers stroke fill"
     id="path824" /><path
     style="opacity:1;fill:none;fill-opacity:1;stroke:#000000;stroke-width:0.17225589;stroke-miterlimit:4;stroke-dasharray:none;stroke-opacity:1"
     id="path826"
     sodipodi:type="arc"
     sodipodi:cx="26.305681"
     sodipodi:cy="-22.086771"
     sodipodi:rx="6.058578"
     sodipodi:ry="23.640135"
     sodipodi:start="4.736357"
     sodipodi:end="4.7345461"
     d="m 26.450879,-45.720116 a 6.058578,23.640135 0 0 1 5.911705,24.189198 6.058578,23.640135 0 0 1 -6.196617,23.0779952 6.058578,23.640135 0 0 1 -5.917315,-24.1683022 6.058578,23.640135 0 0 1 6.191259,-23.099878"
     sodipodi:open="true"
     transform="matrix(0.13060918,0.99143393,-0.99995963,0.00898599,0,0)" /><path
     style="opacity:1;fill:#000000;fill-opacity:1;stroke:#000000;stroke-width:0.23110762;stroke-linecap:round;stroke-linejoin:round;stroke-miterlimit:4;stroke-dasharray:none;stroke-dashoffset:0;stroke-opacity:1;paint-order:markers stroke fill"
     d="m 1.8816212,24.82405 c 0.037728,-0.639772 0.3227624,-1.160732 0.9741398,-1.780438 2.4606079,-2.340968 9.235683,-4.103205 17.774517,-4.623258 2.964484,-0.18055 6.916175,-0.180455 9.867387,2.37e-4 8.258764,0.505654 14.837704,2.165064 17.497679,4.41345 0.772976,0.653369 1.210819,1.442619 1.168445,2.106218 l -0.01331,0.208377 -0.146478,-0.259669 C 47.709473,22.594121 40.447028,20.618581 31.19011,20.04321 27.627492,19.821774 23.452104,19.821815 19.894549,20.043324 15.43497,20.320996 11.38518,20.915461 8.2642421,21.750527 4.7960918,22.678496 2.7787672,23.704094 2.0268853,24.921567 L 1.859926,25.191914 Z"
     id="path858"
     inkscape:connector-curvature="0" /></g><g
   inkscape:groupmode="layer"
   id="layer2"
   inkscape:label="Layer 2" /><g
   inkscape:groupmode="layer"
   id="layer1"
   inkscape:label="Layer 1" /></svg>