<?xml version="1.0" encoding="UTF-8"?>
<svg width="17.778in" height="17.778in" version="1.1" viewBox="0 0 1280 1280" xmlns="http://www.w3.org/2000/svg">
 <g fill="none" stroke="#000" stroke-width="6">
  <path id="Selection" d="m782 624c-3.77 4.43-4.65 13.25-5.8 19l-4.12 21-1.06 9-2.27 11-8.92 73-3.74 37-2 28-2.37 33c-2.94 17.46-12.93 20.97-21.6 33.99-4.46 6.7-6.99 4.56-7.12 14.01v19c-0.09 6.2-1.22 10-7 13 3.14 6.63 13.52 13.05 4.85 21.86-1.7 1.73-2.76 2.15-4.85 3.14 2.88 6.38 10.8 10.41 7.26 18.83-1.43 3.41-4.41 4.16-7.26 10.17 6.58 3.15 9.57 10.52 5.26 16.91-1.63 2.42-3.83 3.66-6.26 5.09 1.63 1.95 3.13 3.39 3.67 6 1.45 7.03-6.33 9.98-10.58 13.53l-9.26 9.7-8.66 6.32c-10.08 8.43-17.12 22.25-23.18 26.66-10.79 7.86-37.98 7.73-50.99 5.92-5.84-0.81-11.82-1.65-16.82-5.06-7.22-4.92-11.46-14.12-16.3-21.07-2.97-4.27-5.25-8.44-10.88-9l-7.66-8-5.51-7.41c-3.82-3.89-12.47-10.72-14.13-15.6-2.82-8.31 5.17-11.22 5.19-15.54 0.01-3.54-4.91-4.24-5.66-10.45-0.89-7.34 5.97-10.39 5.83-14.83-0.1-3.41-5.01-5.25-5.74-10.18-0.96-6.47 6.37-11.48 6.26-14.79-0.13-3.73-6.87-5.46-6.32-12.2 0.57-6.87 7.65-8.02 2.74-14-0.12-4.83-1.9-4.92-2.21-12 0.18-2.78 0.61-12.65 0-14.58-1.07-2.04-3.91-4.44-5.36-6.42-2.74-3.75-1.9-5.28-4.74-9-4.67-6.12-9.17-8.18-13.17-17-3.62-7.95-3.43-11.65-3.52-20l-1-19-1.91-25-3-38-1.26-21-1.66-12-1.34-20c-2.74-28.76-6.66-57.65-12.29-86l-2.5-9-9.75-37-7.51-22-5.03-13c-1.31-4.54 0.28-5.55-1.3-10l-8.85-20-17.62-49c-4.11-13.34-11.82-39.65-11.98-53-0.1-8.99 0.09-22.66 3.26-31 11.61-30.51 50.57-41.54 79.74-46.43 52.41-8.8 97.29-8.65 150-8.57l17 1 27 1.83c19 1.82 38.39 3.23 57 7.8 26.88 6.59 65.44 15.96 78.51 43.37 5.91 12.39 5.64 20.82 5.49 34-0.13 11.02-4.71 26.35-7.98 37l-20.42 58-9.22 23-3.8 7.72c-0.6 2.13 0.41 3.52 0 6.29l-6.68 15.99c-5.63 14.04-11.46 31.36-15.27 46-1.63 6.27-4.62 13.54-3.63 20zm-312.33-93.67c7.6 23.49 324.58 30.92 338.33 4.67m-268.36 352.82c10.72 17.45 171.09 14.73 186.72 5.09m-205.52-32.44c11.55 22.66 205.34 19.71 227.89 4.48m-181.06 80.38c-0.34 13 131.88 4.79 129.33-8.66-0.27-11.64-134.08-0.71-129.33 8.66z"/>
  <path d="m567.89 975.69c-0.34 13 131.88 4.79 129.33-8.6599-0.27-11.64-134.08-0.7101-129.33 8.6599z"/>
  <path d="m567.64 1009c-0.34 13 131.88 4.7899 129.33-8.6599-0.27-11.64-134.08-0.71015-129.33 8.6599z"/>
 </g>
 <g>
  <path transform="scale(.75)" d="m885.8 1329.1c-40.529 1.3209-81.847 2.2064-121.21 12.718-5.5616 0.5973-5.6123 6.6643 0.0826 7.0007 32.682 7.1472 66.66 2.1747 99.707 0.3679 20.419-3.0698 43.333-2.131 61.243-13.566 2.1724-5.5605-8.5859-4.7243-11.702-5.6076-9.3408-0.8953-18.743-0.9378-28.118-0.9127z" stroke-width=".6"/>
  <path transform="scale(.75)" d="m889.27 1284.4c-41.932 1.504-84.754 2.2307-125.41 13.528-5.0859 0.4702-4.7442 6.0465 0.28528 6.1299 32.258 7.4464 65.882 2.7187 98.587 1.3802 21.28-2.949 44.486-3.2602 63.546-13.993 2.7775-5.1418-7.484-5.5162-10.293-6.1299-8.8677-0.9447-17.808-0.94-26.716-0.9159z" stroke-width=".4"/>
  <path transform="scale(.75)" d="m879.58 1244.3c-39.723 0.7985-80.212 2.7745-118.56 13.761-9.6104 2.1428 4.8994 6.2052 8.3117 6.6968 42.276 6.933 85.478 1.1532 127.53-4.7662 9.858-2.9411 23.279-2.3367 30.476-10.406-5.0122-6.9766-16.87-3.9113-24.403-5.2098-7.7838-0.1877-15.571-0.1566-23.356-0.076z" stroke-width="1.9219"/>
  <path transform="scale(.75)" d="m704.62 1157c-3.0049 3.0158 5.7608 7.6948 6.6704 10.668 6.296 5.5386 6.046 15.562 15.045 18.45 22.989 9.9898 49.017 9.5037 73.577 12.2 47.823 0 95.891 0.7773 143.53-3.734 13.782-1.1126 28.725-5.114 35.507-18.529 3.4731-5.9923 11.252-11.107 12.994-17.448-70.511 13.878-143.31 12.448-214.88 9.193-24.455-1.4494-48.898-4.0056-72.444-10.8z" stroke-width="1.9219"/>
 </g>
</svg>
