<?xml version="1.0" encoding="utf-8"?>
<!-- Generator: Adobe Illustrator 23.0.6, SVG Export Plug-In . SVG Version: 6.00 Build 0)  -->
<svg version="1.1"
	 id="Layer_1" xmlns:cc="http://creativecommons.org/ns#" xmlns:dc="http://purl.org/dc/elements/1.1/" xmlns:rdf="http://www.w3.org/1999/02/22-rdf-syntax-ns#" xmlns:svg="http://www.w3.org/2000/svg"
	 xmlns="http://www.w3.org/2000/svg" xmlns:xlink="http://www.w3.org/1999/xlink" x="0px" y="0px" viewBox="0 0 50.5 50.5"
	 style="enable-background:new 0 0 50.5 50.5;" xml:space="preserve">
<style type="text/css">
	.st0{fill:#FFFFFF;stroke:#000000;stroke-width:0.5;stroke-miterlimit:10;}
	.st1{stroke:#000000;stroke-width:0.5;stroke-miterlimit:10;}
</style>
<g>
	<path class="st0" d="M33.6,31.8c0-6.3,0-12.7,0-19c-0.5,0-0.9,0-1.3,0c-0.2,0-0.4-0.2-0.4-0.2c0-0.8,0-1.5,0-2.4c0.6,0,1.2,0,1.7,0
		c0-0.4,0-0.7,0-1.1c-0.5,0-1.1,0-1.7,0c0-0.9,0-1.7,0-2.6c0.6,0,1.2,0,1.7,0c0-0.4,0-0.8,0-1.2c-0.6,0-1.2,0-1.7,0
		c0-0.9,0-1.5,0-2.4c0.5,0,0.9,0,1.3,0c0.4,0,0.5-0.2,0.5-0.5c0-0.2,0-0.5-0.1-0.7c-5.6,0-11.3,0-16.9,0c0,0.4,0,0.7,0,1.2
		c0.5,0,0.9,0,1.4,0c0.2,0,0.4,0.2,0.4,0.3c0.1,0.7,0,1.3,0,2.1c-0.7,0-1.2,0-1.8,0c0,0.4,0,0.8,0,1.1c0.6,0.1,1.5,0,1.7,0.3
		c0.3,0.4,0.1,1.2,0.1,1.8c0,0.4-0.2,0.5-0.5,0.5c-0.4,0-0.9,0-1.2,0c0,0.4,0,0.7,0,1.1c0.5,0,0.9,0,1.2,0c0.4,0,0.5,0.1,0.5,0.5
		c0,0.5,0,1.1,0,1.6c0,0.4-0.2,0.5-0.5,0.5c-0.4,0-0.9,0-1.2,0c0,6.3,0,12.7,0,19C22.4,31.8,28.1,31.8,33.6,31.8z"/>
	<path class="st1" d="M33.6,31.8c-5.6,0-11.2,0-16.9,0c0-6.3,0-12.6,0-19c0.4,0,0.9,0,1.2,0s0.5-0.2,0.5-0.5c0-0.5,0-1.1,0-1.6
		c0-0.4-0.2-0.5-0.5-0.5c-0.4,0-0.9,0-1.2,0c0-0.4,0-0.7,0-1.1c0.4,0,0.9,0,1.2,0c0.4,0,0.5-0.2,0.5-0.5c0-0.6,0.2-1.4-0.1-1.8
		c-0.2-0.3-1.1-0.2-1.7-0.3c0-0.3,0-0.6,0-1.1c0.5,0,1.2,0,1.8,0c0-0.8,0-1.4,0-2.1c0-0.1-0.2-0.3-0.4-0.3c-0.5-0.1-0.9,0-1.4,0
		c0-0.4,0-0.8,0-1.2c5.6,0,11.2,0,16.9,0c0,0.2,0,0.5,0.1,0.7c0,0.3-0.1,0.5-0.5,0.5s-0.8,0-1.3,0c0,0.8,0,1.5,0,2.4
		c0.5,0,1.1,0,1.7,0c0,0.4,0,0.8,0,1.2c-0.5,0-1.1,0-1.7,0c0,0.9,0,1.7,0,2.6c0.5,0,1.2,0,1.7,0c0,0.4,0,0.7,0,1.1
		c-0.5,0-1.1,0-1.7,0c0,0.9,0,1.6,0,2.4c0,0.1,0.2,0.2,0.4,0.2c0.4,0,0.8,0,1.3,0C33.6,19.1,33.6,25.5,33.6,31.8z M33.5,31.7
		c0-6,0-11.9,0-17.8c-5.6,0-11.1,0-16.7,0c0,6,0,11.8,0,17.8C22.4,31.7,28,31.7,33.5,31.7z M31.8,12.7c0-0.9,0-1.7,0-2.5
		c-4.4,0-8.7,0-13.1,0c0,0.9,0,1.6,0,2.5C23,12.7,27.4,12.7,31.8,12.7z M31.8,6.6c-4.4,0-8.7,0-13.1,0c0,0.9,0,1.6,0,2.5
		c0.3,0,0.5,0,0.8,0c3.6,0,7.3,0,10.9,0c0.4,0,0.7,0,1.1,0c0.2,0,0.4-0.2,0.4-0.3C31.8,8,31.8,7.3,31.8,6.6z M31.8,5.3
		c0-0.6,0-1.2,0-1.7s-0.2-0.7-0.6-0.7c-3.9,0-8,0-11.9,0c-0.2,0-0.4,0-0.5,0c0,0.8,0,1.5,0,2.3C23.1,5.3,27.4,5.3,31.8,5.3z
		 M33.5,5.5c-5.6,0-11.1,0-16.7,0c0,0.3,0,0.5,0,0.9c5.6,0,11.1,0,16.7,0C33.5,6.1,33.5,5.9,33.5,5.5z M33.5,2.1
		c-5.6,0-11.1,0-16.7,0c0,0.3,0,0.5,0,0.8c5.6,0,11.1,0,16.7,0C33.5,2.5,33.5,2.3,33.5,2.1z M16.9,10c5.6,0,11.1,0,16.7,0
		c0-0.3,0-0.5,0-0.8c-5.6,0-11.1,0-16.7,0C16.9,9.5,16.9,9.7,16.9,10z M33.5,12.9c-5.6,0-11.1,0-16.7,0c0,0.3,0,0.5,0,0.8
		c5.6,0,11.1,0,16.7,0C33.5,13.4,33.5,13.2,33.5,12.9z"/>
	<path class="st0" d="M33.5,48.7c-5.6,0-11.1,0-16.7,0c0-6,0-28.8,0-34.8c5.6,0,11.1,0,16.7,0C33.5,19.8,33.5,42.8,33.5,48.7z"/>
	<path class="st0" d="M31.8,12.7c-4.4,0-8.7,0-13.1,0c0-0.9,0-1.6,0-2.5c4.3,0,8.7,0,13.1,0C31.8,11,31.8,11.8,31.8,12.7z"/>
	<path class="st0" d="M31.8,6.6c0,0.8,0,1.5,0,2.2c0,0.2-0.2,0.3-0.4,0.3c-0.3,0.1-0.7,0-1.1,0c-3.6,0-7.3,0-10.9,0
		c-0.2,0-0.5,0-0.8,0c0-0.9,0-1.6,0-2.5C23,6.6,27.4,6.6,31.8,6.6z"/>
	<path class="st0" d="M31.8,5.3c-4.4,0-8.7,0-13.1,0c0-0.8,0-1.5,0-2.3c0.2,0,0.4,0,0.5,0c3.9,0,8,0,11.9,0c0.5,0,0.7,0.2,0.6,0.7
		C31.8,4.2,31.8,4.7,31.8,5.3z"/>
	<path class="st0" d="M33.5,5.5c0,0.3,0,0.5,0,0.9c-5.6,0-11.1,0-16.7,0c0-0.3,0-0.5,0-0.9C22.4,5.5,28,5.5,33.5,5.5z"/>
	<path class="st0" d="M33.5,2.1c0,0.2,0,0.5,0,0.8c-5.6,0-11.1,0-16.7,0c0-0.2,0-0.5,0-0.8C22.4,2.1,28,2.1,33.5,2.1z"/>
	<path class="st0" d="M16.9,10c0-0.2,0-0.5,0-0.8c5.6,0,11.1,0,16.7,0c0,0.2,0,0.5,0,0.8C28,10,22.5,10,16.9,10z"/>
	<path class="st0" d="M33.5,12.9c0,0.2,0,0.5,0,0.8c-5.6,0-11.1,0-16.7,0c0-0.2,0-0.5,0-0.8C22.4,12.9,28,12.9,33.5,12.9z"/>
</g>
</svg>
