<?xml version="1.0" encoding="UTF-8" standalone="no"?>
<!-- Generator: Adobe Illustrator 20.0.0, SVG Export Plug-In . SVG Version: 6.00 Build 0)  -->

<svg
   xmlns:dc="http://purl.org/dc/elements/1.1/"
   xmlns:cc="http://creativecommons.org/ns#"
   xmlns:rdf="http://www.w3.org/1999/02/22-rdf-syntax-ns#"
   xmlns:svg="http://www.w3.org/2000/svg"
   xmlns="http://www.w3.org/2000/svg"
   xmlns:sodipodi="http://sodipodi.sourceforge.net/DTD/sodipodi-0.dtd"
   xmlns:inkscape="http://www.inkscape.org/namespaces/inkscape"
   version="1.1"
   id="Layer_1"
   x="0px"
   y="0px"
   viewBox="0 0 1999.35 1999.35"
   style="enable-background:new 0 0 1999.35 1999.35;"
   xml:space="preserve"
   sodipodi:docname="icon.svg"
   inkscape:version="0.92.3 (2405546, 2018-03-11)"><metadata
   id="metadata41"><rdf:RDF><cc:Work
       rdf:about=""><dc:format>image/svg+xml</dc:format><dc:type
         rdf:resource="http://purl.org/dc/dcmitype/StillImage" /></cc:Work></rdf:RDF></metadata><defs
   id="defs39" /><sodipodi:namedview
   pagecolor="#ffffff"
   bordercolor="#666666"
   borderopacity="1"
   objecttolerance="10"
   gridtolerance="10"
   guidetolerance="10"
   inkscape:pageopacity="0"
   inkscape:pageshadow="2"
   inkscape:window-width="1680"
   inkscape:window-height="987"
   id="namedview37"
   showgrid="false"
   inkscape:zoom="0.23607673"
   inkscape:cx="1227.9833"
   inkscape:cy="1190.1303"
   inkscape:window-x="-8"
   inkscape:window-y="-8"
   inkscape:window-maximized="1"
   inkscape:current-layer="Layer_1" />
<path
   id="path2"
   d="M 368.5,2 C 267.15,2 175.02023,43.450436 108.24023,110.23047 41.450366,177.02047 0,269.15 0,370.5 v 1260.3398 c 0,101.36 41.450436,193.4893 108.23047,260.2793 66.79,66.79 158.91953,108.2403 260.26953,108.2403 h 1260.3398 c 101.36,0 193.4896,-41.4603 260.2696,-108.2403 66.79,-66.79 108.2402,-158.9195 108.2402,-260.2695 V 370.50977 c 0,-101.36 -41.4602,-193.48954 -108.2402,-260.26954 C 1822.3194,43.450366 1730.1898,2 1628.8398,2 Z m 0,28.349609 h 1260.3398 c 93.53,0 178.5705,38.269955 240.2305,99.919921 C 1930.7303,191.93953 1969,276.97 1969,370.5 v 1260.3496 c 0,93.52 -38.2697,178.5607 -99.9297,240.2207 -61.66,61.66 -146.7005,99.9297 -240.2305,99.9297 H 368.5 c -93.52,0 -178.5607,-38.2697 -240.2207,-99.9297 -61.660102,-61.66 -99.929691,-146.6907 -99.929691,-240.2207 V 370.50977 c 0,-93.53 38.269589,-178.57047 99.929691,-240.23047 C 189.9393,68.619198 274.97,30.349609 368.5,30.349609 Z" />

<path
   id="path6"
   style="stroke-width:1.96991909"
   d="m 998.66992,209.17578 c -218.56253,0 -416.441,88.58749 -559.67383,231.82031 -143.23282,143.23283 -231.82031,341.11196 -231.82031,559.67381 0,218.5625 88.58749,416.4411 231.82031,559.6739 143.23283,143.2327 341.1113,231.8203 559.67383,231.8203 218.56248,0 416.44108,-88.5876 559.67388,-231.8203 143.2327,-143.2329 231.8203,-341.1114 231.8203,-559.6739 0,-218.56185 -88.5876,-416.44098 -231.8203,-559.67381 C 1415.1101,297.76327 1217.2324,209.17578 998.66992,209.17578 Z m 0,13.94727 c 214.72118,0 409.09338,87.03086 549.80468,227.74218 140.7114,140.71132 227.7422,335.10386 227.7422,549.80467 0,8.1129 -0.1297,16.1958 -0.3789,24.2481 0.01,0.053 0.017,0.049 0.029,0.123 0.01,0.021 0.011,0.043 0.014,0.062 0.01,0.056 0.017,0.1132 0.025,0.1699 -0.01,-0.037 -0.029,-0.071 -0.045,-0.1054 5e-4,0.01 0,0.012 0,0.018 0.023,0.079 0.044,0.1577 0.066,0.2364 0.031,0.108 0.061,0.2163 0.092,0.3242 v 0.4687 0.4786 0.3007 c 0,0.017 0.012,0.032 0.016,0.049 0.036,0.1688 0.015,0.3374 0,0.5058 -0.016,0.1561 0,0.315 0,0.4727 -10e-5,0.029 10e-5,0.059 0,0.088 0.012,0.1 0.024,0.193 0.021,0.332 v 0.9453 c 2e-4,0.2468 4e-4,0.4954 0,0.7422 -2e-4,0.2607 -7e-4,0.5205 0,0.7813 0.1079,0.2073 0.1459,0.3641 0.1504,0.5976 0,0.071 -0,0.2724 -0.022,0.3984 0.016,0.1087 0.03,0.2174 0.043,0.3262 0.019,0.085 0.037,0.1961 0.1094,0.5098 0,0.01 -0.013,0.1514 -0.016,0.1738 0,0.01 0,0.035 -0.01,0.027 -0.01,-0.012 -0.01,-0.032 -0.01,-0.047 -0.012,-0.034 -0.024,-0.068 -0.037,-0.1016 v 0.02 c 0.041,0.1803 0.087,0.3597 0.1231,0.541 0.014,0.069 -0.014,0.1471 0,0.2168 0.01,0.1584 0.01,0.3111 -0.014,0.4687 0.021,0.043 0.051,0.082 0.066,0.127 0.076,0.2158 0.072,0.4192 0.07,0.6367 v 0.5312 0.5098 0.6191 0.5157 0.5039 c 0,0.1671 -10e-5,0.3329 0,0.5 v 0.5781 c 7e-4,0.1804 0,0.3606 0,0.541 0,0.1544 0.041,0.4278 0.012,0.627 -0.015,0.092 -0.022,0.1868 -0.047,0.2773 -0.01,0.026 -0.018,0.076 -0.027,0.1172 v 0.027 c 6e-4,0.1813 0,0.3618 0,0.543 0,0.1253 0.039,0.4685 0.01,0.668 -0.02,0.09 -0.038,0.1795 -0.059,0.2695 v 0.1113 0.502 0.2793 c 0.053,0.083 0.081,0.1581 0.01,0.2012 h -0.01 v 0.049 0.5195 0.5567 0.5097 c -10e-5,0.4221 -10e-5,0.538 -0.1875,0.5215 10e-5,0.043 0,0.086 0,0.1289 -6e-4,0.2128 -10e-5,0.4261 0,0.6387 0.076,0.092 0.061,0.2937 0.061,0.7285 v 0.957 0.6504 1.0332 c 0.01,0.1561 -0.018,0.3026 -0.041,0.4512 0.1311,0.012 0.1777,0.1068 0.1836,0.2949 0,2e-4 0.01,-10e-5 0.012,0 -10e-5,0.2069 0,0.4141 0,0.6211 v 0.3633 c 0.01,0.1473 0.029,0.3397 0.01,0.4922 0,0.022 -0.01,0.044 -0.01,0.066 v 0.064 c 0.047,0.066 0.08,0.1436 0.1075,0.2208 0.1192,0.3421 0.1411,0.4808 0.121,0.8359 -0.025,0.4435 -0.056,0.1335 -0.039,0.2871 0,0.2 0.013,0.3563 0.012,0.5605 0,0.3739 -0.01,0.6236 -0.1777,0.8965 -0.027,0.2356 -0.076,0.4271 -0.1602,0.5567 0,0.047 8e-4,0.096 -0.01,0.1406 -10e-5,0 3e-4,-6e-4 0,0.01 v 0.623 0.5801 c 0.01,0.064 0.01,0.126 0,0.1855 v 0.8731 0.5058 c 0,0.1821 -0.027,0.3276 -0.078,0.4864 0.029,0.1214 0.059,0.2427 0.084,0.3652 0.01,0.03 0,0.063 0,0.094 v 0.3339 0.4961 0.4746 0.4161 c 0.024,0.031 0.056,0.057 0.078,0.09 0.1157,0.1737 0.1082,0.402 0.1621,0.6035 v 0.4277 c 0.1086,0.1547 0.1992,0.3252 0.2559,0.5235 0.077,0.2675 0.023,0.4675 -0.01,0.707 0.022,0.061 0.046,0.1218 0.059,0.1856 0.023,0.1192 0.023,0.2424 0.035,0.3632 -0.026,0.1686 -0.024,0.3171 -0.019,0.4805 0.01,0.2138 -0.022,0.4291 -0.078,0.6367 0.01,0.054 0.02,0.1206 0.016,0.127 -0.04,0.065 -0.074,0.1379 -0.1114,0.207 0,0.096 0,0.1913 0,0.2871 0,0.1667 0,0.3334 0,0.5 -10e-5,0.1647 0,0.3295 0,0.4942 -0.09,0.2096 -0.1778,0.4201 -0.2695,0.6289 0.056,-0.078 0.1114,-0.1551 0.1582,-0.2383 0.041,-0.073 0.02,-0.3278 0.041,-0.047 0.022,0.2868 -0,0.5182 -0.1055,0.8086 -0.021,0.06 -0.059,0.1119 -0.092,0.166 -0.01,0.092 -0.01,0.1852 -0.025,0.2754 -0.018,0.086 -0.075,0.1586 -0.1172,0.2363 0,0 -0,0.01 -0,0.01 0.01,-0.021 0.03,-0.09 0.062,-0.1211 0.033,-0.031 -0.035,0.085 -0.051,0.1269 -0.01,0.013 -0.017,0.025 -0.025,0.037 -0.012,0.032 -0.023,0.064 -0.041,0.1016 0,0.025 0.012,0.051 0.01,0.074 -0.057,0.1682 -0.1275,0.3314 -0.1895,0.4981 0,0.017 2e-4,0.034 0,0.051 v 0.037 c 0.026,-0.035 0.051,-0.072 0.076,-0.1074 -0.023,0.1396 -0.043,0.2811 -0.076,0.3281 2e-4,0.2297 0,0.4599 0,0.6895 v 0.4199 0.4453 c 0,0.05 0.01,0.1009 0,0.1504 -0.017,0.1407 -0.043,0.28 -0.066,0.4199 -0.023,0.07 -0.047,0.1389 -0.068,0.209 -0.01,0.024 -0.015,0.048 -0.024,0.072 -0.01,0.097 -0.019,0.194 -0.029,0.291 -0.01,0.052 -0.019,0.1057 -0.025,0.1582 -0.038,0.3008 0.1981,-0.1978 -0.1231,0.6074 -0.01,0.021 -0.027,0.037 -0.037,0.057 -0.011,0.1359 -0.015,0.1445 -0.072,0.3926 -0.01,0.03 0.016,-0.059 0.025,-0.088 0.023,-0.1332 -0.028,0.1111 -0.064,0.2793 -0,0.017 0,0.034 0,0.051 0,-0.035 -9e-4,-0.089 0.01,-0.055 0.022,0.2876 0.034,0.57 -0.1406,0.8418 -0.013,0.049 -0.026,0.099 -0.051,0.1425 -0,0.031 -0.011,0.062 -0.01,0.094 0,0.018 -0,0.01 -0,0.022 v 0.019 c -0,0.013 -0,0.021 -0,0.033 -0,0.026 0,0.077 -0.018,0.1152 -0.017,0.1308 -0.038,0.2644 -0.066,0.3809 0.01,0.036 0.014,0.072 0.02,0.1074 0,0.01 0,0.011 0.01,0.016 0.112,0.2413 0.1799,0.3422 0.2109,0.627 0.014,0.1315 5e-4,0.2664 -0.01,0.3984 0,0.036 -0.041,0.2216 -0.021,0.1485 0.014,0.1594 0.011,0.3186 0.01,0.4785 0,0.1633 -10e-5,0.3269 0,0.4902 0.01,0.4212 -0.1254,0.786 -0.373,1.0371 0.089,0.2045 0.1538,0.4156 0.1308,0.6426 -0.011,0.1075 -0.037,0.2142 -0.068,0.3184 0,0.031 -0.01,0.07 0,0.094 0.01,0.1561 0.014,0.3105 0.01,0.4668 -0.029,0.1092 -0.057,0.2189 -0.086,0.3281 v 0 c -9e-4,0.012 3e-4,0.051 -0.012,0.076 v 0.01 c -0.1204,0.7218 0,0.2886 -1.3242,1.164 -0.07,-0.074 -0.1393,-0.1484 -0.209,-0.2226 -0.012,0.031 -0.02,0.066 -0.035,0.096 -0.06,0.1175 -0.1467,0.2208 -0.2148,0.334 -0.019,0.034 0.071,-0.099 0.1055,-0.1485 -0.058,0.1212 -0.099,0.1692 -0.1114,0.1875 -0.01,0.025 -0.01,0.059 -0.014,0.094 -0.04,0.1002 -0.07,0.2061 -0.1211,0.3008 -0.01,0.012 -0.015,0.022 -0.022,0.033 0,0.057 -0.01,0.1144 -0.01,0.1718 -0.071,0.4382 -0.1292,0.582 -0.2324,0.9161 0,0.01 -4e-4,-9e-4 0,0.01 -0.039,0.395 -0.037,0.461 -0.1445,0.5723 -0.01,0.099 -0.018,0.1977 -0.027,0.2969 -0.044,0.08 -0.05,0.099 -0.082,0.1601 -0.055,0.3889 -0.07,0.52 -0.1289,0.6192 0,0.1022 0.01,0.216 0.01,0.2636 -0.033,0.087 -0.01,0.028 -0.033,0.098 0,0.2774 -0.015,0.4614 -0.1582,0.5215 -0.037,0.081 -0.013,0.025 -0.017,0.012 -0.052,0.018 -0.1834,0.023 -0.2696,0.031 -0.034,0.089 -0.098,0.1655 -0.1465,0.2481 -0.046,0.042 -0.01,0.01 -0.043,0.043 v 0.012 c 2e-4,0.1362 0,0.2728 0,0.4082 0,0.09 0.014,0.1696 0.018,0.2617 0.014,0.3422 -2e-4,0.275 -0.078,0.668 -0.056,0.078 -7e-4,8e-4 -0.051,0.064 0,0.1236 -0.024,0.2265 -0.068,0.3086 -0.012,0.1799 -0.086,0.3955 -0.061,0.5176 -0.01,0.098 0.036,0.3182 0.016,0.4043 -0.063,0.2249 -0.1268,0.4509 -0.2168,0.666 4e-4,0.01 0,0.017 0,0.027 0.013,-0.023 0.023,-0.043 0.033,-0.068 -0.013,0.05 -0.03,0.099 -0.043,0.1484 0,0.037 -0.013,0.072 -0.018,0.1094 v 0.018 c -0.025,0.1722 -0.07,0.3393 -0.1445,0.4961 0.019,-0.038 0.039,-0.077 0.059,-0.1153 0.023,-0.047 -0.087,0.1896 -0.064,0.1426 0,0.01 -0.01,0.011 -0.01,0.018 -9e-4,0 -10e-5,0.012 0,0.012 0,0.01 2e-4,0.014 -0.012,0.02 0,0.01 5e-4,0.013 -0.012,0.021 -0.01,0.013 -0.014,0.026 -0.02,0.039 -20.4347,179.1137 -101.7271,339.735 -222.6914,460.6992 -140.7113,140.7112 -335.0834,227.7422 -549.80469,227.7422 -214.72119,0 -409.09337,-87.0309 -549.80469,-227.7422 -119.56521,-119.5653 -200.35641,-277.8794 -221.94336,-454.4961 -0.21829,-0.3636 -0.29294,-0.8667 -0.29297,-1.7539 -0.0962,0.064 -0.19373,0.1279 -0.28516,0.1817 -0.0802,0.071 -0.16844,0.1238 -0.25195,0.1875 0.008,-0.012 0.015,-0.022 0.0234,-0.033 -0.21511,0.1174 -0.30064,0.1548 -0.0352,0.045 -0.25372,0.1913 -0.5196,0.3512 -0.82812,0.3828 -0.71852,0.074 -1.45376,-0.2587 -2.06055,-0.6758 -0.11841,0 -0.23682,-0.01 -0.35547,-0.01 -0.0563,0 -0.11459,0.011 -0.16992,0 -0.35237,-0.068 -0.7006,-0.1578 -1.05078,-0.2363 -0.29769,-0.2044 -0.65027,-0.3436 -0.89258,-0.6113 -0.473,-0.5227 -0.7146,-1.1161 -0.81836,-1.7695 -0.5984,-1.0461 -0.28686,-1.8468 0.50977,-3.1739 0.15509,-0.2584 0.5135,-0.3194 0.76953,-0.4785 0.34099,-0.098 0.50425,-0.1581 0.66601,-0.1953 -0.002,-0.044 10e-4,-0.069 0,-0.1133 -0.0663,-0.1306 -0.12842,-0.2632 -0.16406,-0.4043 -0.18123,-0.718 -0.15383,-1.4053 -0.0918,-2.125 0.0191,-0.1504 0.003,-0.2755 -0.004,-0.5371 -0.11567,-0.2949 -0.23625,-0.5878 -0.30274,-0.8965 -0.0531,-0.2465 -0.0163,-0.5062 -0.004,-0.7578 0.009,-0.1614 0.13009,-0.3263 0.0703,-0.4766 -0.006,-0.015 -0.0109,0.031 -0.0137,0.047 -0.027,-0.3757 -0.0169,-0.7543 -0.0137,-1.1308 0.008,0.057 -0.003,-0.061 -0.002,-0.062 -0.0568,-0.2232 -0.12558,-0.5066 -0.13281,-0.5352 -0.007,-0.1301 -0.0145,-0.2606 -0.0215,-0.3906 -0.0245,-0.084 -0.0471,-0.168 -0.0762,-0.25 -0.0103,-0.102 -0.0192,-0.2048 -0.0312,-0.3067 -0.0231,-0.084 -0.0459,-0.1696 -0.082,-0.3398 -0.0458,-0.2159 -0.0538,-0.4391 -0.0801,-0.6582 0.0229,-0.1863 0.0142,-0.2599 0.0137,-0.4043 -0.0944,-0.2593 -0.1459,-0.4662 -0.15235,-0.9785 -0.001,-0.1038 0.008,-0.2081 0.0195,-0.3125 -0.10308,-0.349 -0.13111,-0.6602 -0.1289,-0.9707 -0.35469,-0.8232 -0.26006,-0.7233 -0.28516,-1.7129 0.004,-0.025 0.009,-0.051 0.0137,-0.076 -0.0736,-0.2133 -0.11839,-0.452 -0.13867,-0.8535 -0.002,-0.011 -0.004,-0.013 -0.006,-0.02 -0.033,-0.14 -0.0585,-0.2812 -0.0879,-0.4219 -0.0287,-0.3512 -0.0377,-0.4437 -0.0371,-0.5449 -0.032,-0.1073 -0.064,-0.2659 -0.0879,-0.4551 -0.27658,-0.6492 -0.32505,-0.6795 -0.32617,-1.5332 -0.003,-0.01 -0.009,-0.014 -0.0117,-0.023 -0.14118,-0.4061 -0.1955,-0.6904 -0.2168,-0.9825 -0.004,-0.013 -0.0139,-0.024 -0.0176,-0.037 -0.004,-0.017 -0.007,-0.031 -0.01,-0.047 0.0103,0.024 0.0156,0.037 0.0254,0.061 -0.0126,-0.2012 -0.0204,-0.3959 0.006,-0.6758 -0.0661,-0.1035 -0.0945,-0.1361 -0.14453,-0.209 0.006,0.2615 0.0356,0.5282 0.11133,0.8164 -0.29591,-0.6742 -0.74313,-1.741 -0.11133,-0.8203 -0.002,-0.075 0.004,-0.1558 0.006,-0.2324 -0.10121,-0.2771 -0.19503,-0.5575 -0.29297,-0.8359 -0.008,-1.1059 -0.0529,-0.4553 0.0742,-1.252 7e-5,-4e-4 -0.0234,0.085 -0.0312,0.021 -0.0399,-0.2315 0.0172,-0.4758 -0.0117,-0.707 -0.005,-0.043 -0.0339,-0.08 -0.041,-0.1231 -0.0487,-0.2956 -0.0803,-0.6669 -0.10937,-0.9707 -0.0354,-0.3247 0.008,-0.6477 0.0508,-0.9687 0.006,-0.044 -0.0174,0.1775 -0.0215,0.1328 -0.005,-0.051 -0.002,-0.1028 -0.004,-0.1543 -0.001,-0.069 -0.005,-0.1382 -0.006,-0.2071 -10e-4,-0.061 -0.002,-0.1039 -0.002,-0.1484 -0.0912,-0.2447 -0.13108,-0.4175 -0.16406,-1.0176 -0.0138,-0.2512 0.0445,-0.5021 0.0391,-0.7539 -0.0152,-0.3376 -0.01,-0.6759 -0.01,-1.0136 0.001,-0.3262 0,-0.6524 0,-0.9786 2.1e-4,-0.327 2e-5,-0.6534 0,-0.9804 -2e-5,-0.3355 0,-0.6723 0,-1.0078 v -1.0332 -1.002 -1.0098 -1.0664 -0.9062 -0.9141 -1.0156 -0.9922 -1.0312 -1.0059 -1.0098 -1.0293 -0.8906 c -0.15654,-0.5157 -0.13084,-0.5778 -0.16601,-1.125 0.0148,-0.098 0.007,-0.1207 0.0117,-0.209 -0.0324,-0.1002 -0.0653,-0.2006 -0.0977,-0.3008 -0.0162,-0.2093 -0.0449,-0.419 -0.0488,-0.6289 -2.5e-4,-0.012 0.002,-0.025 0.002,-0.037 -0.0356,-0.1023 -0.0617,-0.2345 -0.084,-0.4023 -0.26793,-0.4363 -0.2908,-0.5489 -0.31641,-1.332 h -0.002 c -0.0143,-0.036 -0.0221,-0.043 -0.0293,-0.064 -0.0762,-0.2366 -0.16236,-0.4713 -0.20117,-0.7168 -0.0487,-0.3079 -0.0263,-0.6081 0,-0.9102 -0.0147,-0.049 -0.0161,-0.071 -0.0273,-0.1113 -0.3657,-0.5711 -0.438,-1.1753 -0.38086,-1.8086 -0.0374,-0.1234 -0.0779,-0.2461 -0.0996,-0.373 -0.0347,-0.2033 -0.0366,-0.4099 -0.0547,-0.6153 0.001,-0.016 0.003,-0.033 0.004,-0.049 -0.0338,-0.143 -0.0699,-0.312 -0.0859,-0.4023 -0.033,-0.1861 -0.0281,-0.378 -0.043,-0.5664 0.018,-0.081 0.0217,-0.1926 0.0254,-0.3008 -0.11623,-0.2893 -0.16927,-0.466 -0.21875,-0.6543 -0.19989,-0.026 -0.2722,-0.1468 -0.28906,-0.4512 h -0.0117 v -0.1328 c -0.003,-0.1899 3.5e-4,-0.4256 0,-0.7344 v -1.0078 -0.5469 c -0.0624,-0.369 -0.0215,-0.7239 0,-1.0996 -10e-6,-0.1712 -7e-5,-0.3422 0,-0.5136 0,-0.086 8e-5,-0.1732 0,-0.2598 -3.1e-4,-0.1022 -0.006,-0.2042 -0.006,-0.3066 8.9e-4,-0.1014 -1.9e-4,-0.2033 0,-0.3047 -0.103,-0.321 -0.1532,-0.6547 -0.16601,-1.0059 -0.007,-0.2004 0.0402,-0.4289 0.0449,-0.6367 -0.014,-0.3097 -0.0133,-0.6179 -0.0117,-0.9277 0.003,-0.3262 1.3e-4,-0.6524 0,-0.9786 0,-0.045 -1e-5,-0.092 0,-0.1367 0,0 2e-5,10e-4 0,-0.01 -0.0456,-0.1545 -0.0842,-0.2768 -0.12695,-0.42 -0.097,-0.4603 0.0152,-0.9222 0,-1.3633 -5.7e-4,-0.04 -3.7e-4,-0.081 -0.002,-0.121 -0.27034,-0.5371 -0.34481,-1.0935 -0.30859,-1.7247 0.004,-0.073 0.0376,-0.2083 0.0606,-0.3125 0.21563,2.588 1.55157,0.5621 2.75781,-0.8476 -6e-5,-0.1916 -1.5e-4,-0.3826 0,-0.5742 6e-4,-0.3536 1e-5,-0.707 -0.004,-1.0606 2.9e-4,-0.2419 0.0109,-0.4963 0.0156,-0.7285 -0.0357,-0.392 -0.0668,-0.7631 -0.0117,-1.1582 0.0247,-0.1748 0.0703,-0.3455 0.11719,-0.5156 0.003,-0.01 0.008,-0.036 0.0117,-0.049 1.3e-4,-0.1965 0.002,-0.3935 0.002,-0.5899 -0.001,-0.3491 -0.007,-0.6958 0.004,-1.0449 0.0126,-0.5003 -0.0947,-0.9966 0.0117,-1.4961 0.0446,-0.1323 0.0768,-0.2693 0.11524,-0.4043 v -0.9688 -1.4804 c 0,-2.0705 0.91713,-3.2315 1.94726,-3.4844 -0.0196,-1.9706 -0.0371,-3.9409 -0.0371,-5.916 0,-214.72098 87.03085,-409.09339 227.74219,-549.8047 140.70192,-140.69664 335.07959,-227.75 549.80078,-227.75 z m -782.5,797.73435 c 0.002,0.029 0.008,0.08 0.0137,0.031 0.0331,-0.057 0.0222,0.01 0.004,0.094 -0.002,-0.01 -0.007,-0.019 -0.008,-0.031 -0.01,-0.1317 -0.0102,-0.1208 -0.01,-0.094 z m 1560.04098,12.836 c 0.026,0.053 0.053,0.105 0.082,0.1562 -0.014,-0.035 -0.027,-0.071 -0.043,-0.1055 -0.01,-0.019 -0.048,-0.07 -0.039,-0.051 z m -1557.42965,9.1132 c 0.004,0.018 0.003,0.031 0.008,0.049 0.0191,0.074 0.0797,0.1314 0.11914,0.1972 -0.0702,-0.1329 -0.0774,-0.1567 -0.12695,-0.2461 z m 0.0254,0.8965 c 0.002,0.012 -5.8e-4,-3e-4 0.002,0.016 0.004,0.024 0.0328,0.093 0.0254,0.07 -0.009,-0.029 -0.0182,-0.057 -0.0273,-0.086 z m 1557.62886,7.711 v 0.01 c 0.01,0.036 0.014,0.049 0.027,0.096 -0.01,-0.034 -0.016,-0.064 -0.027,-0.1015 z m 0.2989,13.0566 c -0.015,0.043 -0.02,0.091 -0.041,0.1328 -0.017,0.034 0.027,-0.072 0.041,-0.1074 3e-4,-0.015 10e-5,-0.017 0,-0.025 z m -1557.38674,3.4316 c -0.011,-0.053 -0.0311,0.025 0,0.2539 0.002,-0.027 -7.8e-4,-0.05 0.002,-0.078 0.006,-0.091 0.004,-0.1492 -0.002,-0.1758 z m 1556.79884,0.088 c -0.04,0.057 -0.078,0.1149 -0.1153,0.1739 2e-4,0 0,0 0,0.01 0.024,-0.024 0.081,-0.091 0.1094,-0.1445 0,-0.01 0,-0.024 0.01,-0.035 z m 0.035,0.012 c -0,0.01 -0.01,0.016 -0.01,0.021 0,0.01 -0.01,0.028 0,0.022 0,-0.014 0.01,-0.029 0.01,-0.043 z m -1555.76168,5.1816 c 0.0258,0.098 0.074,0.1561 0.30469,0.4453 -0.1332,-0.2038 -0.2217,-0.3258 -0.30469,-0.4453 z m 0.0156,0.9629 c -6.6e-4,-0.01 7.1e-4,0.028 -0.01,0.037 -0.005,0.01 -0.009,-0.022 -0.008,-0.022 0.004,0.025 0.006,0.025 0.01,0.049 0.004,-0.022 0.01,-0.042 0.008,-0.064 z m 1554.79105,0.414 v 0.016 c 0,0.01 0.01,0.018 0.014,0.029 0,-0 0,-0.01 0,-0.01 -8e-4,-0 -0.013,-0.028 -0.017,-0.037 z m 0.074,0.1758 c 5e-4,0 0,0.01 0,0.01 0.013,0.027 -8e-4,2e-4 0.014,0.031 0.01,0.013 -0.013,-0.035 -0.016,-0.041 z m -0.291,3.4532 -0.045,0.096 v 0.025 c -0.01,0.031 0.1246,-0.2779 0.049,-0.121 z m 0.084,1.5234 c -0.014,0.051 -0.028,0.1015 -0.041,0.1523 0.01,-0.022 0.018,-0.044 0.025,-0.066 0.01,-0.036 0.01,-0.044 0.016,-0.086 z m -2.3555,3.5957 c -0.017,0.019 -0.033,0.044 -0.059,0.076 -0.01,0.052 -0.022,0.1027 -0.031,0.1543 0.043,-0.065 0.064,-0.1411 0.09,-0.2149 0,-0.01 2e-4,-0.01 0,-0.016 z m -0.076,0.1035 c 0,0.01 -0.012,0.02 -0.016,0.025 -0.01,0.019 -0.013,0.073 -0.022,0.082 -0.026,0.028 0.012,-0.051 0.037,-0.1074 z m -0.1309,0.1934 v 0.012 l 0.01,-0.01 z m 0,0.012 c 0,0 -0.01,0.01 -0.01,0.012 0,0.021 -0.01,0.043 -0.01,0.062 0.01,-0.01 0.012,-0.011 0.018,-0.021 z m 0.072,0.2031 c -0.01,0.011 -0.012,0.021 -0.018,0.031 -0.01,0.038 -0.015,0.076 -0.025,0.1132 0.01,-0.015 0.017,-0.029 0.024,-0.045 0.01,-0.032 0.014,-0.066 0.019,-0.1 z m -0.3945,0.9141 c -0.014,0.016 -0.018,0.022 -0.033,0.039 v 0.018 c 0.013,-0.019 0.024,-0.038 0.037,-0.057 z m -0.041,0.049 c 0,0.01 4e-4,0.015 -0.01,0.023 0,0 -4e-4,-0.01 0.01,-0.01 z m -0.047,0.047 c -5e-4,0 -0,0 -0,0 h 0.01 z m -0,0 h -0 c -0.01,0.012 -0.012,0.023 -0.017,0.035 0.01,-0.01 0.016,-0.022 0.021,-0.035 z m 0.3106,0.064 c -0.059,0.1695 -0.1232,0.3539 -0.1211,0.3692 0,0 0.01,-0.01 0.012,-0.01 0.037,-0.083 0.08,-0.1659 0.088,-0.2012 0.01,-0.047 0.03,-0.094 0.021,-0.1406 z m -1550.29689,2.2754 c -0.009,-0.022 0.018,0.093 0.0156,0.07 -0.001,-0.015 -0.004,-0.03 -0.006,-0.045 -0.003,-0.01 -0.006,-0.017 -0.01,-0.025 z m 1549.25979,1.7754 c -0.01,0.012 -0.01,0.025 -0.012,0.037 0,-0.01 0.01,-0.014 0.012,-0.023 4e-4,-0.01 1e-4,-0.01 0,-0.014 z m -1549.54104,2.3086 c -0.007,0.013 -0.0128,0.026 -0.0195,0.039 l 0.0195,0.086 c 0.0296,0.065 0.0582,0.1289 0.0879,0.1934 -0.0197,-0.1049 -0.0575,-0.2123 -0.0879,-0.3184 z" />


<path
   id="path862"
   style="stroke-width:1.38679159"
   d="m 998.6875,611.58594 -0.0176,0.002 c -218.56253,0 -416.441,43.90343 -559.67383,114.88867 -143.23282,70.98527 -231.82031,169.05165 -231.82031,277.37114 0,24.4439 4.56433,48.3567 13.21094,71.5605 -0.02,-0.1958 -0.007,-0.407 -0.0195,-0.8828 0.004,-0.025 0.009,-0.051 0.0137,-0.076 -0.0736,-0.2133 -0.11839,-0.452 -0.13867,-0.8535 -0.002,-0.011 -0.004,-0.016 -0.006,-0.023 -0.033,-0.14 -0.0585,-0.2812 -0.0879,-0.4219 -0.0287,-0.3512 -0.0377,-0.4457 -0.0371,-0.5469 -0.032,-0.1073 -0.064,-0.2639 -0.0879,-0.4531 -0.27658,-0.6492 -0.32505,-0.6795 -0.32617,-1.5332 -0.003,-0.01 -0.009,-0.023 -0.0117,-0.029 -0.14118,-0.4061 -0.1955,-0.6884 -0.2168,-0.9805 -0.004,-0.013 -0.0139,-0.01 -0.0176,-0.022 -0.003,-0.013 -0.004,-0.028 -0.006,-0.043 0.006,0.015 0.0122,0.028 0.0195,0.045 -0.0126,-0.2012 -0.0203,-0.3959 0.006,-0.6758 -0.0657,-0.103 -0.0951,-0.1351 -0.14453,-0.207 0.006,0.2547 0.0358,0.515 0.10742,0.7949 -0.29555,-0.6744 -0.72638,-1.7078 -0.10351,-0.8008 -0.002,-0.074 0.002,-0.1525 0.004,-0.2285 -0.10121,-0.2772 -0.19502,-0.5595 -0.29296,-0.8379 -0.008,-1.1059 -0.0529,-0.4533 0.0742,-1.25 7e-5,-4e-4 -0.0234,0.085 -0.0312,0.019 -0.0399,-0.2315 0.0172,-0.4758 -0.0117,-0.707 -0.005,-0.043 -0.0339,-0.08 -0.041,-0.123 -0.0487,-0.2956 -0.0803,-0.667 -0.10937,-0.9707 -0.0354,-0.3247 0.008,-0.6478 0.0508,-0.9688 0.006,-0.044 -0.0174,0.1775 -0.0215,0.1328 -0.005,-0.051 -0.002,-0.1028 -0.004,-0.1543 -0.001,-0.069 -0.003,-0.1382 -0.004,-0.207 -0.001,-0.061 -0.002,-0.1039 -0.002,-0.1484 -0.0912,-0.2447 -0.13109,-0.4174 -0.16407,-1.0176 -0.0138,-0.2512 0.0464,-0.502 0.041,-0.7539 -0.0152,-0.3375 -0.01,-0.676 -0.008,-1.0137 0.001,-0.3262 0,-0.6523 0,-0.9785 2.1e-4,-0.327 2e-5,-0.6535 0,-0.9805 -2e-5,-0.3355 0,-0.6723 0,-1.0078 v -1.0332 -1.0019 -1.0098 -1.0664 -0.9063 -0.914 -1.0157 -0.9921 -1.0313 -1.0059 -1.0097 -1.0293 -0.8906 c -0.15654,-0.5157 -0.13086,-0.5777 -0.16602,-1.125 0.0148,-0.098 0.007,-0.1207 0.0117,-0.209 -0.0324,-0.1002 -0.0653,-0.2006 -0.0977,-0.3008 -0.0162,-0.2093 -0.0449,-0.419 -0.0488,-0.6289 -2.6e-4,-0.012 0.002,-0.023 0.002,-0.035 -0.0356,-0.1023 -0.0617,-0.2345 -0.084,-0.4023 -0.26793,-0.4363 -0.29078,-0.5509 -0.3164,-1.334 h -0.002 c -0.0143,-0.036 -0.0221,-0.04 -0.0293,-0.061 -0.0762,-0.2366 -0.16236,-0.4713 -0.20117,-0.7168 -0.0487,-0.3079 -0.0263,-0.6081 0,-0.9102 -0.0147,-0.049 -0.0161,-0.071 -0.0273,-0.1113 -0.3657,-0.5711 -0.438,-1.1753 -0.38086,-1.8086 -0.0374,-0.1234 -0.0779,-0.2462 -0.0996,-0.3731 -0.0347,-0.2033 -0.0366,-0.4098 -0.0547,-0.6152 0.001,-0.016 0.003,-0.033 0.004,-0.049 -0.0338,-0.143 -0.0699,-0.3121 -0.0859,-0.4024 -0.033,-0.1861 -0.03,-0.378 -0.0449,-0.5664 0.018,-0.081 0.0217,-0.1926 0.0254,-0.3008 -0.11624,-0.2894 -0.17122,-0.466 -0.2207,-0.6543 -0.19989,-0.026 -0.2722,-0.1467 -0.28906,-0.4511 h -0.0117 v -0.1328 c -0.003,-0.1899 3.4e-4,-0.4257 0,-0.7344 v -1.0078 -0.5469 c -0.0607,-0.3586 -0.0219,-0.7047 0,-1.0684 -1e-5,-0.1816 -7e-5,-0.3631 0,-0.5449 0,-0.1373 1.1e-4,-0.2748 0,-0.4121 10e-5,-0.051 -0.002,-0.1028 -0.002,-0.1543 8.9e-4,-0.1014 -1.9e-4,-0.2033 0,-0.3047 -0.103,-0.321 -0.15321,-0.6546 -0.16602,-1.0058 -0.007,-0.2004 0.0402,-0.429 0.0449,-0.6368 -0.014,-0.3096 -0.0133,-0.6179 -0.0117,-0.9277 0.003,-0.3262 1.3e-4,-0.6523 0,-0.9785 0,-0.045 -1e-5,-0.092 0,-0.1367 0,0 2e-5,4e-4 0,-0.01 -0.0456,-0.1545 -0.0842,-0.2787 -0.12695,-0.4219 -0.097,-0.4603 0.0152,-0.9223 0,-1.3633 -5.7e-4,-0.04 -3.5e-4,-0.079 -0.002,-0.1191 -0.27033,-0.5371 -0.34482,-1.0954 -0.3086,-1.7266 0.004,-0.075 0.0396,-0.2186 0.0625,-0.3242 -0.001,-0.016 -0.005,-0.021 -0.006,-0.037 -0.0195,-0.2635 -0.007,0.031 0.004,-0.066 0.0346,-0.06 0.0231,0.01 0.002,0.1035 0.2125,2.6063 1.54971,0.574 2.75782,-0.8379 -6e-5,-0.1916 -1.5e-4,-0.3826 0,-0.5742 6e-4,-0.3536 0.001,-0.7069 -0.002,-1.0605 2.9e-4,-0.2419 0.009,-0.4964 0.0137,-0.7285 -0.0357,-0.392 -0.0611,-0.7631 -0.008,-1.1582 0.0247,-0.1748 0.0703,-0.3456 0.11719,-0.5157 0.003,-0.01 0.008,-0.034 0.0117,-0.047 1.3e-4,-0.1965 0.002,-0.3934 0.002,-0.5899 -10e-4,-0.3491 -0.007,-0.6979 0.004,-1.0469 0.0126,-0.5003 -0.0947,-0.9946 0.0117,-1.4941 0.0446,-0.1323 0.0768,-0.2693 0.11523,-0.4043 v -0.9688 -1.4804 c 0,-2.0756 0.92187,-3.2355 1.95508,-3.4844 -0.0153,-0.9127 -0.0449,-1.824 -0.0449,-2.7383 0,-106.41486 87.0308,-202.74483 227.74219,-272.48045 C 589.58158,661.63659 783.94873,618.5 998.66992,618.5 c 214.72118,0 409.09338,43.13158 549.80468,112.86719 140.7114,69.73562 227.7422,166.07452 227.7422,272.48051 0,5.7403 -0.2711,11.4485 -0.7754,17.1269 0.01,0.021 0.018,0.043 0.025,0.062 0.014,-10e-5 0.019,0 0.033,0 v 0.1406 c 0,1e-4 -10e-4,-10e-5 0.01,0 0,-0.019 -0.01,-0.067 0.01,-0.059 0.022,0.01 0.014,0.037 0.02,0.061 0.055,0.2735 0.059,0.4469 0.033,0.7226 0,0.1012 -3e-4,0.2034 0.01,0.3047 0.039,0.1601 0.066,0.3238 0.061,0.4961 0,0.06 -0.01,0.2545 -0.024,0.3321 0,0.022 -0.054,-0.1838 -0.025,-0.061 0,0.091 0.069,0.3324 0.078,0.3711 0.034,0.1844 0.074,0.3675 0.1035,0.5527 0.01,0.035 0,0.072 0,0.1075 3e-4,0.177 0,0.3541 0,0.5312 0,0.022 10e-5,0.043 0,0.062 0.031,0.049 0.056,0.1703 0.1,0.4277 0.01,0.021 0.015,0.043 0.018,0.062 0.01,0.056 0.013,0.1133 0.023,0.17 -0.01,-0.037 -0.029,-0.073 -0.045,-0.1075 5e-4,0.01 0,0.013 0,0.018 0.023,0.079 0.044,0.1576 0.066,0.2363 0.031,0.108 0.061,0.2164 0.092,0.3243 v 0.4687 0.4785 0.3008 c 0,0.017 0.012,0.032 0.016,0.049 0.036,0.1688 0.015,0.3375 0,0.5059 -0.016,0.1561 0,0.315 0,0.4727 -1e-4,0.029 10e-5,0.061 0,0.09 0.012,0.1 0.026,0.193 0.024,0.332 v 0.9453 c 2e-4,0.2468 4e-4,0.4954 0,0.7422 -2e-4,0.2607 -7e-4,0.5206 0,0.7813 0.1079,0.2074 0.1458,0.3641 0.1504,0.5976 0,0.071 6e-4,0.2724 -0.014,0.3985 0.016,0.1083 0.03,0.2174 0.043,0.3262 0.019,0.085 0.035,0.1941 0.1075,0.5078 0,0.01 -0.017,0.1534 -0.02,0.1757 0,0.01 3e-4,0.033 -0.01,0.025 -0.01,-0.012 -0.01,-0.032 -0.01,-0.047 -0.012,-0.034 -0.024,-0.068 -0.037,-0.1016 v 0.02 c 0.041,0.1803 0.087,0.3597 0.123,0.541 0.014,0.069 -0.014,0.1471 0,0.2168 0.01,0.1584 0.011,0.3112 -0.012,0.4688 0.021,0.043 0.049,0.082 0.062,0.1269 0.076,0.2158 0.074,0.4193 0.072,0.6368 v 0.5312 0.5098 0.6191 0.5156 0.504 c 0,0.167 -10e-5,0.3329 0,0.5 v 0.5781 c 7e-4,0.1804 0,0.3606 0,0.541 0,0.1544 0.039,0.4277 0.01,0.6269 -0.015,0.092 -0.022,0.1869 -0.047,0.2774 -0.01,0.026 -0.018,0.076 -0.027,0.1172 v 0.027 c 6e-4,0.1813 0,0.3618 0,0.543 0,0.1253 0.043,0.4685 0.014,0.668 -0.02,0.09 -0.043,0.1795 -0.062,0.2695 v 0.1113 0.502 0.2793 c 0.053,0.083 0.081,0.158 0.01,0.2011 h -0.01 v 0.049 0.5195 0.5566 0.5098 c -2e-4,0.4221 0,0.538 -0.1875,0.5215 2e-4,0.043 10e-5,0.086 0,0.1289 -5e-4,0.2128 -10e-5,0.4261 0,0.6387 0.076,0.092 0.062,0.2937 0.062,0.7285 v 0.957 0.6504 1.0332 c 0.01,0.1588 -0.019,0.3077 -0.043,0.459 0.1283,0.013 0.172,0.1086 0.1778,0.2949 0,2e-4 0.01,-10e-5 0.012,0 -10e-5,0.2069 0,0.4141 0,0.6211 v 0.3633 c 0.01,0.1473 0.029,0.3397 0.01,0.4922 0,0.022 -0.01,0.042 -0.01,0.064 v 0.062 c 0.047,0.066 0.08,0.1455 0.1074,0.2227 0.1192,0.3421 0.1411,0.4789 0.1211,0.834 -0.025,0.4435 -0.056,0.1335 -0.039,0.2871 0,0.2 0.013,0.3563 0.012,0.5605 0,0.3729 -0.01,0.6244 -0.1758,0.8965 -0.028,0.2379 -0.077,0.4326 -0.1621,0.5625 0,0.036 6e-4,0.071 -0.01,0.1055 v 0.033 0.623 0.5801 c 0.01,0.064 0.01,0.1261 0,0.1856 v 0.873 0.5059 c 0,0.1853 -0.029,0.3319 -0.082,0.4941 0.03,0.1228 0.061,0.2452 0.086,0.3691 0.01,0.03 0,0.063 0,0.094 v 0.334 0.4961 0.4746 0.416 c 0.024,0.031 0.056,0.057 0.078,0.09 0.1157,0.1737 0.1083,0.4021 0.1621,0.6036 v 0.4277 c 0.1087,0.1547 0.1992,0.3251 0.2559,0.5234 0.077,0.2675 0.023,0.4676 -0.01,0.7071 0.022,0.061 0.046,0.1217 0.059,0.1855 0.023,0.1192 0.023,0.2425 0.035,0.3633 -0.026,0.1686 -0.024,0.3171 -0.02,0.4805 0.01,0.2138 -0.022,0.4291 -0.078,0.6367 0.01,0.054 0.018,0.1205 0.014,0.1269 -0.041,0.067 -0.076,0.1404 -0.1133,0.211 0,0.096 0,0.1926 0,0.289 0,0.1667 0,0.3334 0,0.5 -10e-5,0.1647 0,0.3295 0,0.4942 -0.09,0.2096 -0.1778,0.4201 -0.2695,0.6289 0.056,-0.078 0.1114,-0.1551 0.1582,-0.2383 0.041,-0.073 0.02,-0.3278 0.041,-0.047 0.022,0.2868 -0,0.5182 -0.1055,0.8086 -0.021,0.06 -0.059,0.1119 -0.092,0.166 -0.01,0.092 -0.01,0.1852 -0.025,0.2754 -0.018,0.086 -0.075,0.1586 -0.1172,0.2363 0,0 -0,0.01 -0,0.01 0.01,-0.021 0.03,-0.09 0.062,-0.1211 0.033,-0.031 -0.035,0.085 -0.051,0.1269 -0.01,0.013 -0.017,0.025 -0.025,0.037 -0.012,0.032 -0.023,0.064 -0.041,0.1016 0,0.025 0.012,0.051 0.01,0.074 -0.057,0.1682 -0.1275,0.3314 -0.1895,0.4981 0,0.017 2e-4,0.034 0,0.051 v 0.037 c 0.026,-0.035 0.051,-0.072 0.076,-0.1074 -0.023,0.1396 -0.043,0.2811 -0.076,0.3281 2e-4,0.2297 0,0.4599 0,0.6895 v 0.4199 0.4453 c 0,0.05 0.01,0.1009 0,0.1504 -0.017,0.1407 -0.043,0.28 -0.066,0.4199 -0.023,0.07 -0.047,0.1389 -0.068,0.209 -0.01,0.024 -0.015,0.048 -0.024,0.072 -0.01,0.097 -0.019,0.194 -0.029,0.291 -0.01,0.052 -0.019,0.1057 -0.025,0.1582 -0.038,0.3008 0.1981,-0.1978 -0.1231,0.6074 -0.01,0.021 -0.027,0.037 -0.037,0.057 -0.011,0.1359 -0.015,0.1445 -0.072,0.3926 -0.01,0.03 0.016,-0.059 0.025,-0.088 0.023,-0.1332 -0.028,0.1111 -0.064,0.2793 -0,0.017 0,0.034 0,0.051 0,-0.035 -9e-4,-0.089 0.01,-0.055 0.022,0.2876 0.034,0.57 -0.1406,0.8418 -0.013,0.049 -0.026,0.099 -0.051,0.1425 -0,0.031 -0.011,0.062 -0.01,0.094 0,0.018 -0,0.01 -0,0.022 v 0.019 c -0,0.013 -0,0.021 -0,0.033 -0,0.026 0,0.077 -0.018,0.1152 -0.017,0.1308 -0.038,0.2644 -0.066,0.3809 0.01,0.036 0.014,0.072 0.02,0.1074 0,0.01 0,0.011 0.01,0.016 0.112,0.2413 0.1799,0.3422 0.2109,0.627 0.014,0.1315 5e-4,0.2664 -0.01,0.3984 0,0.036 -0.041,0.2216 -0.021,0.1485 0.014,0.1594 0.011,0.3186 0.01,0.4785 0,0.1633 -10e-5,0.3269 0,0.4902 0.01,0.4206 -0.1241,0.786 -0.3711,1.0371 0.088,0.2038 0.1518,0.4145 0.1289,0.6407 -0.011,0.1075 -0.037,0.2141 -0.068,0.3183 0,0.031 -0.01,0.07 0,0.094 0.01,0.1561 0.016,0.3105 0.012,0.4668 -0.029,0.1092 -0.057,0.2189 -0.086,0.3281 v 0 c -9e-4,0.012 -0,0.051 -0.014,0.076 v 0.01 c -0.1204,0.7218 0,0.2887 -1.3242,1.1641 -0.069,-0.073 -0.1381,-0.1472 -0.2071,-0.2207 -0.011,0.029 -0.017,0.06 -0.031,0.088 -0.06,0.1175 -0.1468,0.2208 -0.2149,0.334 -0.019,0.034 0.071,-0.099 0.1055,-0.1485 -0.058,0.1212 -0.099,0.1692 -0.1113,0.1875 -0.01,0.025 -0.014,0.059 -0.018,0.094 -0.04,0.1002 -0.07,0.2061 -0.1211,0.3008 -0.01,0.012 -0.012,0.022 -0.018,0.033 0,0.057 -0.01,0.1144 -0.01,0.1718 -0.071,0.4382 -0.1312,0.582 -0.2344,0.9161 0,0.01 -4e-4,-9e-4 0,0.01 -0.039,0.395 -0.037,0.461 -0.1445,0.5723 -0.01,0.099 -0.016,0.1977 -0.025,0.2969 -0.044,0.08 -0.05,0.099 -0.082,0.1601 -0.055,0.3889 -0.07,0.52 -0.1289,0.6192 0,0.1022 0.01,0.216 0.01,0.2636 -0.033,0.087 -0.01,0.028 -0.033,0.098 0,0.2774 -0.015,0.4614 -0.1582,0.5215 -0.037,0.081 -0.013,0.029 -0.018,0.016 -0.052,0.018 -0.1833,0.019 -0.2695,0.027 -0.034,0.089 -0.098,0.1674 -0.1465,0.25 -0.023,0.021 -0.022,0.02 -0.023,0.022 2e-4,0.1419 0,0.2842 0,0.4258 0,0.09 0.015,0.1696 0.019,0.2617 0.014,0.3422 -4e-4,0.275 -0.08,0.668 -0.056,0.078 2e-4,4e-4 -0.049,0.066 0,0.1236 -0.026,0.2265 -0.07,0.3086 -0.012,0.1799 -0.089,0.3935 -0.062,0.5156 -0.01,0.098 0.032,0.3182 0.012,0.4043 -0.063,0.2249 -0.1269,0.451 -0.2168,0.666 4e-4,0.01 0,0.017 0,0.027 0.013,-0.023 0.027,-0.043 0.037,-0.068 -0.013,0.05 -0.03,0.1009 -0.043,0.1504 0,0.057 -0.013,0.1102 -0.023,0.166 12.3008,-27.4717 18.8125,-56.0214 18.8125,-85.3281 0,-108.3192 -88.5899,-206.38779 -231.8223,-277.37306 -143.2482,-70.97254 -341.1269,-114.875 -559.68942,-114.875 z m 777.5195,422.11136 c 0.026,0.053 0.053,0.105 0.082,0.1562 -0.014,-0.035 -0.027,-0.071 -0.043,-0.1055 -0.01,-0.019 -0.048,-0.07 -0.039,-0.051 z m -1557.42966,9.1132 c 0.004,0.018 0.003,0.031 0.008,0.049 0.0191,0.074 0.0797,0.1314 0.11914,0.1972 -0.0702,-0.1329 -0.0774,-0.1567 -0.12696,-0.2461 z m 0.0254,0.8965 c 0.002,0.012 -5.6e-4,-3e-4 0.002,0.016 0.004,0.024 0.0328,0.093 0.0254,0.07 -0.009,-0.029 -0.0183,-0.057 -0.0274,-0.086 z m 1557.63087,7.711 v 0.01 c 0.01,0.036 0.014,0.049 0.027,0.096 -0.01,-0.034 -0.016,-0.064 -0.027,-0.1015 z m 0.3027,13.0527 c -0.015,0.043 -0.02,0.091 -0.041,0.1328 -0.017,0.034 0.027,-0.072 0.041,-0.1074 3e-4,-0.015 10e-5,-0.017 0,-0.025 z m -1557.39255,3.4355 c -0.011,-0.053 -0.0311,0.025 0,0.254 0.002,-0.027 -7.8e-4,-0.05 0.002,-0.078 0.006,-0.091 0.004,-0.1492 -0.002,-0.1758 z m 1556.80275,0.084 c -0.04,0.057 -0.078,0.1149 -0.1153,0.1739 2e-4,0 0,0 0,0.01 0.024,-0.024 0.081,-0.091 0.1094,-0.1445 0,-0.01 0,-0.024 0.01,-0.035 z m 0.035,0.012 c -0,0.01 -0.01,0.016 -0.01,0.021 0,0.01 -0.01,0.028 0,0.022 0,-0.014 0.01,-0.029 0.01,-0.043 z m -1555.76558,5.1855 c 0.0258,0.098 0.074,0.1561 0.30468,0.4453 -0.1332,-0.2038 -0.22169,-0.3258 -0.30468,-0.4453 z m 0.0156,0.9609 c -9.2e-4,-0.013 0.001,0.029 -0.01,0.039 -0.005,0.01 -0.009,-0.023 -0.008,-0.022 0.004,0.025 0.006,0.025 0.01,0.049 0.004,-0.022 0.01,-0.044 0.008,-0.066 z m 1554.79496,0.4121 v 0.016 c 0,0.01 0.01,0.018 0.014,0.029 0,-0 0,-0.01 0,-0.01 -8e-4,-0 -0.013,-0.028 -0.017,-0.037 z m 0.074,0.1758 c 5e-4,0 0,0.01 0,0.01 0.013,0.027 -8e-4,2e-4 0.014,0.031 0.01,0.013 -0.013,-0.035 -0.016,-0.041 z m -0.2891,3.4532 -0.045,0.096 v 0.025 c -0.01,0.031 0.1245,-0.276 0.049,-0.1191 z m 0.082,1.5234 c -0.014,0.051 -0.028,0.1015 -0.041,0.1523 0.01,-0.022 0.018,-0.044 0.025,-0.066 0.01,-0.036 0.01,-0.044 0.016,-0.086 z m -2.3536,3.5957 c -0.017,0.019 -0.033,0.044 -0.059,0.076 -0.01,0.052 -0.022,0.1027 -0.031,0.1543 0.043,-0.065 0.064,-0.1411 0.09,-0.2149 0,-0.01 2e-4,-0.01 0,-0.016 z m -0.076,0.1035 c 0,0.01 -0.012,0.02 -0.016,0.025 -0.01,0.019 -0.012,0.073 -0.021,0.082 -0.026,0.028 0.012,-0.051 0.037,-0.1074 z m -0.1309,0.1934 v 0.012 l 0.01,-0.01 z m 0,0.012 c 0,0 -0.01,0.012 -0.01,0.014 0,0.021 -0.01,0.04 -0.01,0.06 0.01,-0.01 0.012,-0.01 0.017,-0.019 z m 0.072,0.2031 c -0.01,0.011 -0.012,0.021 -0.018,0.031 -0.01,0.038 -0.015,0.076 -0.025,0.1132 0.01,-0.015 0.017,-0.029 0.023,-0.045 0.01,-0.032 0.015,-0.066 0.02,-0.1 z m -0.3946,0.9141 c -0.014,0.016 -0.018,0.022 -0.033,0.039 v 0.02 c 0.013,-0.019 0.024,-0.04 0.037,-0.059 z m -0.041,0.049 c 0,0.01 5e-4,0.015 -0.01,0.023 0,0 -5e-4,-0.01 0.01,-0.01 z m -0.047,0.049 c -4e-4,0 -0,0 -0,0 h 0.01 z m -0,0 h -0 c -0.01,0.012 -0.012,0.021 -0.018,0.033 0.01,-0.01 0.016,-0.02 0.022,-0.033 z m 0.3105,0.062 c -0.059,0.1695 -0.1232,0.3539 -0.1211,0.3692 0,0 0.01,-0.01 0.012,-0.01 0.037,-0.083 0.08,-0.1659 0.088,-0.2012 0.01,-0.047 0.03,-0.094 0.021,-0.1406 z m -1.0429,4.0547 c -0.01,0.012 -0.01,0.025 -0.012,0.037 0,-0.01 0.01,-0.012 0.012,-0.021 4e-4,-0.01 10e-5,-0.013 0,-0.016 z m -0.022,0.1602 c 0,0.011 -0.01,0.021 -0.01,0.031 0,-0.01 0.01,-0.012 0.01,-0.018 z m -0.3672,0.664 v 0.01 c 0,0 -0.01,0.014 -0.01,0.016 0,0.01 -0,0.016 -0.014,0.022 0.01,-0.01 0.014,-0.015 0.016,-0.022 0,-0.01 -2e-4,-0.012 0.01,-0.016 l 0.01,-0.01 z m -6.0723,10.795 c -5e-4,0 -4e-4,0.01 -0.01,0.01 -0.026,0.2791 -0.05,0.5781 -0.078,0.8907 0.06,-0.2367 0.071,-0.5143 0.086,-0.8965 z M 261.6875,1127 c 0.005,0.4294 0.015,0.7275 0.0195,1.3145 0.005,0.58 0.0872,-0.2235 0.082,-1.1661 -0.0336,-0.049 -0.068,-0.099 -0.10156,-0.1484 z m 1473.5781,20.3906 c -0.2142,0.3373 -0.4283,0.6745 -0.6426,1.0117 0,0.044 -6e-4,0.064 0.01,0.074 0.052,-0.065 0.1007,-0.1307 0.1524,-0.1954 0.1461,-0.2552 0.3524,-0.6896 0.4804,-0.8906 z m -1423.31833,37.5957 v 0 c 0.0301,0.043 0.0613,0.087 0.0898,0.1289 h 0.002 c 0.34213,0.2827 0.31219,0.2542 0.7461,0.6133 -0.56554,-0.5128 -0.67726,-0.6088 -0.83789,-0.7461 z M 301.5,1186.0605 c 0.0467,0.053 0.092,0.1085 0.13867,0.1622 0.007,0 0.0144,0.01 0.0215,0.01 -0.0594,-0.06 -0.10286,-0.1128 -0.16016,-0.1719 z m 14.20703,2.0997 c 0.0512,0.071 0.10716,0.1404 0.15235,0.2089 -0.0359,-0.06 -0.0604,-0.099 -0.0957,-0.1582 -0.0188,-0.017 -0.0379,-0.034 -0.0566,-0.051 z m -1.71875,0.01 c 0.0777,0.1258 0.1547,0.2677 0.23242,0.3985 0.0246,0.017 0.0416,0.031 0.0684,0.049 -0.0941,-0.164 -0.18591,-0.3057 -0.27734,-0.4473 z m -10.24609,0.4356 c 0.0519,0.053 0.17242,0.1187 0.27734,0.1836 -0.0109,-0.012 -0.0223,-0.026 -0.0332,-0.037 -0.0815,-0.049 -0.18054,-0.1076 -0.24414,-0.1465 z m 39.29687,34.5254 c 0.03,0.2464 0.0542,0.4268 0.0781,0.5625 0.0825,0.06 0.16348,0.1213 0.24609,0.1816 0.0204,-0.03 0.0361,-0.045 0.0606,-0.084 -0.0804,-0.1727 -0.23395,-0.4174 -0.38477,-0.6601 z m 1.03125,0.1757 c 0.24245,0.4052 0.49028,0.8056 0.78907,1.1446 0.12369,0.1403 0.60202,0.4282 0.48632,0.2812 -0.37978,-0.4826 -0.82076,-0.9542 -1.27539,-1.4258 z" /><path
   style="fill:none;stroke:#000000;stroke-width:9.10000038;stroke-linecap:butt;stroke-linejoin:miter;stroke-miterlimit:4;stroke-dasharray:none;stroke-opacity:1"
   d="m 223.59411,1106.8955 -2.38889,-20.6494 -3.99197,-69.3618 -0.53616,-22.23841 -0.26475,8e-5"
   id="path1431"
   inkscape:connector-curvature="0" /><path
   inkscape:connector-curvature="0"
   id="path1620"
   d="m 1780.6029,979.46038 -0.129,21.37342 -3.7562,71.1418 -1.8171,22.689 0.2181,0.043"
   style="fill:none;stroke:#000000;stroke-width:8.40880585;stroke-linecap:butt;stroke-linejoin:miter;stroke-miterlimit:4;stroke-dasharray:none;stroke-opacity:1" /></svg>