<svg height="960" viewBox="0 0 960 960" width="960" xmlns="http://www.w3.org/2000/svg"><g fill="#000" fill-rule="evenodd"><path d="m799 2h-638c-87.8132752 0-159 71.1867248-159 159v638c0 87.813275 71.1867248 159 159 159h638c87.813275 0 159-71.186725 159-159v-638c0-87.8132752-71.186725-159-159-159zm-638 40h638c65.721885 0 119 53.2781148 119 119v638c0 65.721885-53.278115 119-119 119h-638c-65.7218852 0-119-53.278115-119-119v-638c0-65.7218852 53.2781148-119 119-119z" fill-rule="nonzero"/><path d="m480 140c-187.776815 0-340 152.223185-340 340s152.223185 340 340 340 340-152.223185 340-340-152.223185-340-340-340zm0 20c176.73112 0 320 143.26888 320 320s-143.26888 320-320 320-320-143.26888-320-320 143.26888-320 320-320z" fill-rule="nonzero"/><path d="m479.5 419c120.882806 0 228.170884 23.134145 295.366541 58.87084l.093937 4.234259.039522 4.894901c0 163.476286-132.075999 296-295 296s-295-132.523714-295-296c0-3.233652.051677-6.455193.154249-9.663838 67.250123-35.433216 174.068505-58.336162 294.345751-58.336162z"/><path d="m479.5 381c-132.581614 0-255.008241 25.538973-334.107872 68.446943-3.130155 1.697967-5.121191 4.932404-5.227368 8.491855-.109771 3.679968-.16476 7.367319-.16476 11.061202 0 194.32589 152.141685 352 340 352s340-157.67411 340-352l-.046576-5.873065-.099154-4.558403c-.077797-3.576505-2.060176-6.83903-5.198678-8.555785-79.04998-43.240224-201.972409-69.012747-335.155592-69.012747zm3.898863 20.007519c124.661813.480964 239.44699 24.007977 314.718752 62.864284l1.849385.964197.033306 4.242169c0 183.35871-143.350686 331.921831-320.000306 331.921831s-320-148.563121-320-332l.009751-2.620066.022249-2.061934 1.841392-.95111c76.092302-38.968543 192.02541-62.36689 317.626608-62.36689z" fill-rule="nonzero"/></g></svg>