<?xml version="1.0" encoding="UTF-8" standalone="no"?>
<svg
   xmlns:dc="http://purl.org/dc/elements/1.1/"
   xmlns:cc="http://creativecommons.org/ns#"
   xmlns:rdf="http://www.w3.org/1999/02/22-rdf-syntax-ns#"
   xmlns:svg="http://www.w3.org/2000/svg"
   xmlns="http://www.w3.org/2000/svg"
   xmlns:sodipodi="http://sodipodi.sourceforge.net/DTD/sodipodi-0.dtd"
   xmlns:inkscape="http://www.inkscape.org/namespaces/inkscape"
   version="1.1"
   id="Layer_1"
   x="0px"
   y="0px"
   viewBox="0 0 615.76 1000"
   style="enable-background:new 0 0 615.76 1000;"
   xml:space="preserve"
   sodipodi:docname="icon.svg"
   inkscape:version="1.0.2 (e86c870879, 2021-01-15, custom)"><metadata
   id="metadata71"><rdf:RDF><cc:Work
       rdf:about=""><dc:format>image/svg+xml</dc:format><dc:type
         rdf:resource="http://purl.org/dc/dcmitype/StillImage" /></cc:Work></rdf:RDF></metadata><defs
   id="defs69">
	
	
	
	
	
	
	
	
	
	
	
	
	
	
	
	
	
	
	
	
	
	
	
	
	
	
	
	
	
	
	
</defs><sodipodi:namedview
   pagecolor="#ffffff"
   bordercolor="#666666"
   borderopacity="1"
   objecttolerance="10"
   gridtolerance="10"
   guidetolerance="10"
   inkscape:pageopacity="0"
   inkscape:pageshadow="2"
   inkscape:window-width="1680"
   inkscape:window-height="987"
   id="namedview67"
   showgrid="true"
   inkscape:zoom="0.28991378"
   inkscape:cx="-227.65179"
   inkscape:cy="384.13097"
   inkscape:window-x="-8"
   inkscape:window-y="-8"
   inkscape:window-maximized="1"
   inkscape:current-layer="Layer_1"><inkscape:grid
     type="xygrid"
     id="grid935" /></sodipodi:namedview>
<path
   d="M 597.64604,0 H 18.750701 C 1.4007012,0 0,1.4007012 0,18.750701 V 981.46488 C 0,998.81488 1.6162825,1000 18.966283,1000 H 596.78372 c 17.35,0 18.96628,-1.4007 18.96628,-18.7507 V 18.750701 C 615.76,1.4007012 615.00604,0 597.64604,0 Z M 611.12,981.2493 c 0,14.8 0.46372,14.1107 -14.32628,14.1107 H 18.966283 C 4.1662825,995.36 4.64,996.25488 4.64,981.46488 V 18.750701 C 4.64,3.9507012 3.9607012,4.64 18.750701,4.64 H 597.64604 c 14.8,0 13.46396,-0.6792989 13.46396,14.110701 0.075,316.588729 -0.10904,645.927529 0.01,962.498599 z"
   id="path2"
   sodipodi:nodetypes="ssssssscscsssssscc" /><path
   d="M 434.93,96.63 H 180.82 c -12.79,0 -23.19,10.4 -23.19,23.19 v 760.36 c 0,12.79 10.4,23.19 23.19,23.19 h 254.11 c 12.79,0 23.19,-10.4 23.19,-23.19 V 119.82 c 0,-12.79 -10.4,-23.19 -23.19,-23.19 z M 166.91,355.77 H 448.85 V 502.32 H 166.91 Z m 0,146.55 H 448.85 V 644.23 H 166.91 Z m 13.91,-396.41 h 254.11 c 7.67,0 13.91,6.24 13.91,13.91 V 351.14 H 166.91 V 119.82 c 0,-7.67 6.24,-13.91 13.91,-13.91 z M 434.93,894.09 H 180.82 c -7.67,0 -13.91,-6.24 -13.91,-13.91 V 648.87 h 281.94 v 231.32 c 0,7.66 -6.24,13.9 -13.92,13.9 z"
   id="path8"
   sodipodi:nodetypes="sssssssssccccccccccsssccsssssccss" /><polygon
   points="304.51,959.31 316.36,959.31 317.35,955 311.06,955 311.06,937.84 304.51,937.84 "
   id="polygon10" /><rect
   x="319.67999"
   y="937.84003"
   width="6.5500002"
   height="21.469999"
   id="rect12" /><path
   d="m 339.16,937.39 c -2.6,0 -5.75,0.18 -7.99,0.45 v 21.47 h 6.56 v -5.12 h 2.34 c 6.1,0 9.96,-3.15 9.96,-8.62 -0.01,-6.03 -4.13,-8.18 -10.87,-8.18 z m -0.36,12.94 h -1.08 v -8.87 c 0.38,-0.02 0.74,-0.02 1.08,-0.02 3.23,0 4.76,1.53 4.76,4.22 0,2.78 -1.34,4.67 -4.76,4.67 z"
   id="path14" /><path
   d="m 358.55,943.32 c 0,-1.17 1.17,-1.71 3.05,-1.71 2.07,0 4.31,0.45 5.84,1.08 l -0.54,-4.67 c -1.71,-0.36 -3.23,-0.63 -6.02,-0.63 -5.3,0 -8.89,2.09 -8.89,6.47 0,7.54 10.24,6.02 10.24,9.52 0,1.35 -0.99,2.06 -3.41,2.06 -2.15,0 -5.48,-0.72 -7.45,-1.71 l 0.72,4.94 c 1.97,0.72 4.67,1.08 6.82,1.08 5.47,0 9.96,-1.8 9.96,-7.19 0.01,-7.17 -10.32,-5.83 -10.32,-9.24 z"
   id="path16" /><rect
   x="293.10999"
   y="937.84003"
   width="6.5500002"
   height="21.469999"
   id="rect18" /><path
   d="m 254.87,937.39 c -2.6,0 -5.75,0.18 -7.99,0.45 v 21.47 h 6.55 v -5.12 h 2.33 c 6.1,0 9.96,-3.15 9.96,-8.62 0.01,-6.03 -4.12,-8.18 -10.85,-8.18 z m -0.36,12.94 h -1.08 v -8.87 c 0.38,-0.02 0.74,-0.02 1.08,-0.02 3.23,0 4.76,1.53 4.76,4.22 0,2.78 -1.35,4.67 -4.76,4.67 z"
   id="path20" /><polygon
   points="274.89,937.84 268.33,937.84 268.33,959.31 274.89,959.31 274.89,950.86 281.71,950.86 281.71,959.31 288.26,959.31 288.26,937.84 281.71,937.84 281.71,946.37 274.89,946.37 "
   id="polygon22" /><path
   d="M 303.04712,217.29379 C 292.24554,219.53349 284.1,229.12539 284.1,240.58 c 0,13.11 10.67,23.78 23.78,23.78 13.11,0 23.78,-10.67 23.78,-23.78 0,-11.48327 -8.17388,-21.08203 -19.00346,-23.29822 m -0.33234,8.10288 c 6.57291,1.92493 11.3858,8.00767 11.3858,15.19534 0,8.73 -7.1,15.83 -15.83,15.83 -8.73,0 -15.83,-7.1 -15.83,-15.83 0,-7.04261 4.62058,-13.02443 10.99001,-15.07374"
   id="path26"
   sodipodi:nodetypes="csssccsssc" /><path
   d="m 309.37,417.91 c -5.08,0 -9.21,4.13 -9.21,9.21 0,5.08 4.13,9.21 9.21,9.21 5.08,0 9.21,-4.13 9.21,-9.21 0,-5.08 -4.13,-9.21 -9.21,-9.21 z"
   id="path28" /><path
   d="m 297.24,426.9 c 0,-1.1 -0.89,-1.99 -1.99,-1.99 h -12.62 c -1.1,0 -1.99,0.89 -1.99,1.99 0,1.1 0.89,1.99 1.99,1.99 h 12.62 c 1.1,0 1.99,-0.89 1.99,-1.99 z"
   id="path30" /><path
   d="m 297.82,435.54 -8.92,8.92 c -0.78,0.78 -0.78,2.03 0,2.81 0.39,0.39 0.9,0.58 1.41,0.58 0.51,0 1.02,-0.19 1.41,-0.58 l 8.92,-8.92 c 0.78,-0.78 0.78,-2.03 0,-2.81 -0.78,-0.77 -2.04,-0.77 -2.82,0 z"
   id="path32" /><path
   d="m 309.15,439.25 c -1.1,0 -1.99,0.89 -1.99,1.99 v 12.62 c 0,1.1 0.89,1.99 1.99,1.99 1.1,0 1.99,-0.89 1.99,-1.99 v -12.62 c -0.01,-1.1 -0.9,-1.99 -1.99,-1.99 z"
   id="path34" /><path
   d="m 320.6,435.86 c -0.78,-0.78 -2.04,-0.78 -2.81,0 -0.78,0.78 -0.78,2.03 0,2.81 l 8.92,8.92 c 0.39,0.39 0.9,0.58 1.41,0.58 0.51,0 1.02,-0.19 1.41,-0.58 0.78,-0.78 0.78,-2.03 0,-2.81 z"
   id="path36" /><path
   d="m 336.11,425.36 h -12.62 c -1.1,0 -1.99,0.89 -1.99,1.99 0,1.1 0.89,1.99 1.99,1.99 h 12.62 c 1.1,0 1.99,-0.89 1.99,-1.99 0,-1.1 -0.89,-1.99 -1.99,-1.99 z"
   id="path38" /><path
   d="m 319.51,419.29 c 0.51,0 1.02,-0.19 1.41,-0.58 l 8.92,-8.92 c 0.78,-0.78 0.78,-2.03 0,-2.81 -0.78,-0.78 -2.04,-0.78 -2.81,0 l -8.92,8.92 c -0.78,0.78 -0.78,2.03 0,2.81 0.38,0.38 0.89,0.58 1.4,0.58 z"
   id="path40" /><path
   d="m 309.59,414.99 c 1.1,0 1.99,-0.89 1.99,-1.99 v -12.62 c 0,-1.1 -0.89,-1.99 -1.99,-1.99 -1.1,0 -1.99,0.89 -1.99,1.99 V 413 c 0.01,1.1 0.9,1.99 1.99,1.99 z"
   id="path42" /><path
   d="m 298.14,418.39 c 0.39,0.39 0.9,0.58 1.41,0.58 0.51,0 1.02,-0.19 1.41,-0.58 0.78,-0.78 0.78,-2.03 0,-2.81 l -8.92,-8.92 c -0.78,-0.78 -2.03,-0.78 -2.81,0 -0.78,0.78 -0.78,2.03 0,2.81 z"
   id="path44" /><circle
   cx="309.37"
   cy="571.78003"
   r="6.1799998"
   id="circle46" /><path
   d="m 301.21,571.63 c 0,-0.73 -0.59,-1.33 -1.32,-1.33 h -8.48 c -0.73,0 -1.32,0.59 -1.32,1.33 0,0.73 0.59,1.33 1.32,1.33 h 8.48 c 0.73,0 1.32,-0.6 1.32,-1.33 z"
   id="path48" /><path
   d="m 301.62,577.44 -5.99,5.99 c -0.52,0.52 -0.52,1.36 0,1.87 0.26,0.26 0.6,0.39 0.94,0.39 0.34,0 0.68,-0.13 0.94,-0.39 l 5.99,-5.99 c 0.52,-0.52 0.52,-1.36 0,-1.87 -0.52,-0.51 -1.36,-0.51 -1.88,0 z"
   id="path50" /><path
   d="m 309.22,579.94 c -0.73,0 -1.32,0.59 -1.32,1.33 v 8.48 c 0,0.73 0.59,1.33 1.32,1.33 0.73,0 1.33,-0.59 1.33,-1.33 v -8.48 c -0.01,-0.74 -0.6,-1.33 -1.33,-1.33 z"
   id="path52" /><path
   d="m 316.91,577.66 c -0.52,-0.52 -1.36,-0.52 -1.87,0 -0.52,0.52 -0.52,1.36 0,1.87 l 5.99,5.99 c 0.26,0.26 0.6,0.39 0.94,0.39 0.34,0 0.68,-0.13 0.94,-0.39 0.52,-0.52 0.52,-1.36 0,-1.87 z"
   id="path54" /><path
   d="m 327.33,570.61 h -8.48 c -0.73,0 -1.33,0.59 -1.33,1.33 0,0.74 0.59,1.33 1.33,1.33 h 8.48 c 0.73,0 1.33,-0.59 1.33,-1.33 0,-0.74 -0.6,-1.33 -1.33,-1.33 z"
   id="path56" /><path
   d="m 316.18,566.51 c 0.34,0 0.68,-0.13 0.94,-0.39 l 5.99,-5.99 c 0.52,-0.52 0.52,-1.36 0,-1.87 -0.52,-0.52 -1.36,-0.52 -1.87,0 l -5.99,5.99 c -0.52,0.52 -0.52,1.36 0,1.87 0.25,0.26 0.59,0.39 0.93,0.39 z"
   id="path58" /><path
   d="m 309.52,563.62 c 0.73,0 1.33,-0.59 1.33,-1.33 v -8.48 c 0,-0.73 -0.59,-1.33 -1.33,-1.33 -0.73,0 -1.33,0.59 -1.33,1.33 v 8.48 c 0.01,0.74 0.6,1.33 1.33,1.33 z"
   id="path60" /><path
   d="m 301.83,565.91 c 0.26,0.26 0.6,0.39 0.94,0.39 0.34,0 0.68,-0.13 0.94,-0.39 0.52,-0.52 0.52,-1.36 0,-1.87 l -5.99,-5.99 c -0.52,-0.52 -1.36,-0.52 -1.87,0 -0.52,0.52 -0.52,1.36 0,1.87 z"
   id="path62" />
<path
   style="fill:#ffffff;fill-opacity:1;stroke:#ffffff;stroke-width:1px;stroke-linecap:butt;stroke-linejoin:miter;stroke-opacity:1"
   d="m 301.04533,217.29379 13.41974,-0.012 -0.63722,9.073 -11.875,0.1216 z"
   id="path929"
   sodipodi:nodetypes="ccccc" /><path
   d="m 307.88,230.38677 c 2.2,0 3.98,-1.78 3.98,-3.98 l 0,-14.5061 c 0,-2.2 -1.78,-3.98 -3.98,-3.98 -2.2,0 -3.98,1.78 -3.98,3.98 l 0,14.5061 c 0,2.2 1.78,3.98 3.98,3.98 z"
   id="path24"
   sodipodi:nodetypes="sssssss" /><path
   d="m 328.62725,338.65467 c 0.55154,10e-4 1.04708,-0.22364 1.40861,-0.58336 0.36153,-0.35972 0.58905,-0.85412 0.59043,-1.40566 0.003,-1.10309 -0.87889,-1.99109 -1.98197,-1.99196 l -40.41336,-0.0317 c -1.10308,-0.003 -1.98918,0.87889 -1.99195,1.98198 -0.003,1.10308 0.87889,1.98918 1.98198,1.99195 z"
   id="path931"
   sodipodi:nodetypes="cscscccc" /><g
   id="g963"
   transform="matrix(1.8944225,0,0,1.8944225,1052.2239,-291.33686)"><g
     aria-label="hue"
     id="text945"
     style="font-style:normal;font-weight:normal;font-size:40px;line-height:1.25;font-family:sans-serif;letter-spacing:0px;word-spacing:0px;fill:#000000;fill-opacity:1;stroke:none"
     transform="translate(0.14453,-0.10105)"><path
       d="m -426.38672,559.986 v -17.05344 h 3.67188 v 10.99609 c 1.14583,-0.95052 2.33073,-1.69271 3.55468,-2.22656 1.22396,-0.53385 2.48047,-0.80078 3.76954,-0.80078 2.35677,0 4.15364,0.70963 5.39062,2.1289 1.23698,1.41927 1.85547,3.46354 1.85547,6.13281 v 0.82298 m 0,2.76291 v 10.57427 h -3.67188 v -9.87887 c 0.002,-0.23321 0.003,-0.45352 0.003,-0.69506 m -0.0198,-2.76406 c -0.0251,-0.66305 -0.078,-1.29518 -0.15879,-1.89638 -0.11719,-0.88542 -0.33203,-1.57553 -0.64453,-2.07032 -0.32552,-0.54687 -0.79427,-0.95052 -1.40625,-1.21093 -0.61198,-0.27344 -1.40625,-0.41016 -2.38281,-0.41016 -1.00261,0 -2.05078,0.2474 -3.14453,0.74219 -1.09375,0.49479 -2.14193,1.1263 -3.14453,1.89453 v 2.96535 m 0,2.8295 v 10.49421 h -3.67188 v -10.49421"
       id="path947"
       sodipodi:nodetypes="ccccssssccccccccccsscccccc" /><path
       d="m -401.23047,559.986 v -8.47923 h 3.67188 v 8.47923 m 0,2.81603 v 1.12662 c 0,1.10677 0.0521,2.05729 0.15625,2.85156 0.10417,0.78125 0.32552,1.45183 0.66406,2.01172 0.35156,0.57292 0.80729,0.98959 1.36719,1.25 0.55989,0.26042 1.37369,0.39063 2.4414,0.39063 0.95052,0 1.98568,-0.2474 3.10547,-0.74219 1.13281,-0.49479 2.1875,-1.1263 3.16406,-1.89453 v -4.98143 m 0,-2.82965 v -8.47799 h 3.67188 v 8.47799 m 0,2.80107 v 10.53735 h -3.67188 v -2.42187 c -1.23697,0.97656 -2.42187,1.72526 -3.55468,2.24609 -1.13281,0.52083 -2.38281,0.78125 -3.75,0.78125 -2.29167,0 -4.07552,-0.69661 -5.35157,-2.08984 -1.27604,-1.40625 -1.91406,-3.46355 -1.91406,-6.17188 v -2.83796"
       id="path949"
       sodipodi:nodetypes="cccccsccsscccccccccccsscsc" /><path
       d="m -357.5,562.79584 h -16.07422 c 0,1.34115 0.20182,2.51302 0.60547,3.51562 0.40365,0.98959 0.95703,1.80339 1.66016,2.44141 0.67708,0.625 1.47786,1.09375 2.40234,1.40625 0.9375,0.3125 1.9665,0.49651 3.08594,0.46875 4.34579,-0.10779 6.52389,-0.62787 6.52389,-0.62787 L -359,573.25104 c 0,0 -2.54594,0.45868 -6.78125,0.57995 -3.61831,0.1036 -6.44531,-0.97656 -8.47656,-2.92968 -2.03125,-1.96615 -3.04688,-4.75261 -3.04688,-8.35938 0,-3.56771 0.97005,-6.39974 2.91016,-8.49609 1.95313,-2.09635 4.51823,-3.14453 7.69531,-3.14453 2.94271,0 5.20833,0.85937 6.79688,2.57812 1.60156,1.71875 2.40234,4.16016 2.40234,7.32422 z m -3.57422,-2.8125 c -0.013,-1.92709 -0.50128,-3.41797 -1.46484,-4.47266 -0.95052,-1.05469 -2.40234,-1.58203 -4.35547,-1.58203 -1.96615,0 -3.53516,0.57943 -4.70703,1.73828 -1.15885,1.15885 -1.81641,2.59766 -1.97266,4.31641 z"
       id="path951"
       sodipodi:nodetypes="cccccsccscscscscccsccc" /></g><path
     style="fill:#000000;fill-opacity:1;stroke:none;stroke-width:1px;stroke-linecap:butt;stroke-linejoin:miter;stroke-opacity:1"
     d="M -373.57422,559.98334 -379,560 v 2.81137 l 5.42578,-0.0155 z"
     id="path954"
     sodipodi:nodetypes="ccccc" /></g></svg>
