<?xml version="1.0" encoding="UTF-8" standalone="no"?>
<svg
   xmlns:dc="http://purl.org/dc/elements/1.1/"
   xmlns:cc="http://creativecommons.org/ns#"
   xmlns:rdf="http://www.w3.org/1999/02/22-rdf-syntax-ns#"
   xmlns:svg="http://www.w3.org/2000/svg"
   xmlns="http://www.w3.org/2000/svg"
   xmlns:sodipodi="http://sodipodi.sourceforge.net/DTD/sodipodi-0.dtd"
   xmlns:inkscape="http://www.inkscape.org/namespaces/inkscape"
   version="1.2"
   id="Layer_1"
   x="0px"
   y="0px"
   viewBox="0 0 50.8 50.8"
   xml:space="preserve"
   sodipodi:docname="icon.svg"
   inkscape:version="1.0.2 (e86c870879, 2021-01-15, custom)"><metadata
   id="metadata37"><rdf:RDF><cc:Work
       rdf:about=""><dc:format>image/svg+xml</dc:format><dc:type
         rdf:resource="http://purl.org/dc/dcmitype/StillImage" /></cc:Work></rdf:RDF></metadata><defs
   id="defs35" /><sodipodi:namedview
   pagecolor="#ffffff"
   bordercolor="#666666"
   borderopacity="1"
   objecttolerance="10"
   gridtolerance="10"
   guidetolerance="10"
   inkscape:pageopacity="0"
   inkscape:pageshadow="2"
   inkscape:window-width="1680"
   inkscape:window-height="987"
   id="namedview33"
   showgrid="false"
   inkscape:zoom="4.0354331"
   inkscape:cx="-19.454104"
   inkscape:cy="23.58532"
   inkscape:window-x="-8"
   inkscape:window-y="-8"
   inkscape:window-maximized="1"
   inkscape:current-layer="Layer_1" />













<g
   id="g896"
   transform="matrix(0.0701769,0,0,0.0701769,-2.8770038,-3.3446385)"><path
     style="fill:none;fill-rule:evenodd;stroke:#000000;stroke-width:6.75;stroke-linecap:butt;stroke-linejoin:miter;stroke-miterlimit:4;stroke-dasharray:none;stroke-opacity:1"
     d="m 516.00761,151.82532 -356.24372,81.37043 3.96929,52.59308 352.27443,-78.39347 z"
     id="path850" /><path
     style="fill:none;fill-rule:evenodd;stroke:#000000;stroke-width:6.75;stroke-linecap:butt;stroke-linejoin:miter;stroke-miterlimit:4;stroke-dasharray:none;stroke-opacity:1"
     d="M 516.00761,151.82532 657.9097,267.92703 v 52.59308 L 516.00761,207.39536 v 0"
     id="path852" /><path
     style="fill:none;fill-rule:evenodd;stroke:#000000;stroke-width:6.75;stroke-linecap:butt;stroke-linejoin:miter;stroke-miterlimit:4;stroke-dasharray:none;stroke-opacity:1"
     d="M 657.9097,320.52011 477.30704,351.2821"
     id="path854" /><path
     style="fill:none;fill-rule:evenodd;stroke:#000000;stroke-width:6.75;stroke-linecap:butt;stroke-linejoin:miter;stroke-miterlimit:4;stroke-dasharray:none;stroke-opacity:1"
     d="M 279.8349,351.2821 163.73318,285.78883"
     id="path856" /><path
     style="fill:none;fill-rule:evenodd;stroke:#000000;stroke-width:6.75;stroke-linecap:butt;stroke-linejoin:miter;stroke-miterlimit:4;stroke-dasharray:none;stroke-opacity:1"
     d="m 439.10263,368.64775 37.70825,-11.90787 0.99232,-33.2428 -159.26773,-58.05086 -39.6929,14.88484 1.98465,217.81474 26.29654,9.42707 36.21977,-9.92322 -28.77735,-10.41939 -33.2428,11.41171"
     id="path858" /><path
     style="fill:none;fill-rule:evenodd;stroke:#000000;stroke-width:6.75;stroke-linecap:butt;stroke-linejoin:miter;stroke-miterlimit:4;stroke-dasharray:none;stroke-opacity:1"
     d="m 314.56618,487.23026 3.96929,-221.78404"
     id="path860" /><path
     style="fill:none;fill-rule:evenodd;stroke:#000000;stroke-width:6.75;stroke-linecap:butt;stroke-linejoin:miter;stroke-miterlimit:4;stroke-dasharray:none;stroke-opacity:1"
     d="M 476.81089,356.73988 349.79362,314.07002 343.34353,497.64965"
     id="path862" /><path
     style="fill:none;fill-rule:evenodd;stroke:#000000;stroke-width:6.75;stroke-linecap:butt;stroke-linejoin:miter;stroke-miterlimit:4;stroke-dasharray:none;stroke-opacity:1"
     d="M 371.62471,350.28978 349.29746,342.3512"
     id="path864" /><path
     style="fill:none;fill-rule:evenodd;stroke:#000000;stroke-width:6.75;stroke-linecap:butt;stroke-linejoin:miter;stroke-miterlimit:4;stroke-dasharray:none;stroke-opacity:1"
     d="m 440.71515,309.91466 c 0,0 0.35741,-12.54759 -8.22771,-14.51818 -22.29815,-5.11821 -31.2171,0.25355 -31.2171,0.25355"
     id="path866"
     sodipodi:nodetypes="csc" /><path
     style="fill:none;fill-rule:evenodd;stroke:#000000;stroke-width:6.75;stroke-linecap:butt;stroke-linejoin:miter;stroke-miterlimit:4;stroke-dasharray:none;stroke-opacity:1"
     d="m 348.30514,357.7322 c 0,0 57.41853,-19.89562 74.42417,-3.47314 56.59747,54.65665 157.28309,152.32149 157.28309,152.32149"
     id="path868"
     sodipodi:nodetypes="csc" /><path
     style="fill:none;fill-rule:evenodd;stroke:#000000;stroke-width:6.75;stroke-linecap:butt;stroke-linejoin:miter;stroke-miterlimit:4;stroke-dasharray:none;stroke-opacity:1"
     d="m 279.33873,420.24851 c 0,0 -28.53222,56.1678 -4.21737,84.34739 63.83637,73.98288 135.70008,155.7946 135.70008,155.7946"
     id="path870"
     sodipodi:nodetypes="csc" /><path
     style="fill:none;fill-rule:evenodd;stroke:#000000;stroke-width:6.75;stroke-linecap:butt;stroke-linejoin:miter;stroke-miterlimit:4;stroke-dasharray:none;stroke-opacity:1"
     d="m 345.08009,450.3903 c 0,0 8.15148,3.14534 7.31838,18.23392 -0.43734,7.92086 -8.66777,19.3791 -8.66777,19.3791"
     id="path872"
     sodipodi:nodetypes="csc" /><path
     style="fill:none;fill-rule:evenodd;stroke:#000000;stroke-width:6.75;stroke-linecap:butt;stroke-linejoin:miter;stroke-miterlimit:4;stroke-dasharray:none;stroke-opacity:1"
     d="m 580.01241,506.58055 c 0,0 -49.78712,-35.47386 -120.76426,23.18623 -77.7982,64.29745 -48.42671,130.62372 -48.42671,130.62372 0,0 38.24964,57.95408 117.19114,3.74758 29.81702,-20.47436 36.7969,-29.17981 48.70124,-47.50966 50.48284,-77.73152 3.29859,-110.04787 3.29859,-110.04787 z"
     id="path874"
     sodipodi:nodetypes="cscssc" /><path
     style="fill:none;fill-rule:evenodd;stroke:#000000;stroke-width:6.75;stroke-linecap:butt;stroke-linejoin:miter;stroke-miterlimit:4;stroke-dasharray:none;stroke-opacity:1"
     d="m 459.94983,532.57348 c 36.06322,-32.32897 97.08756,-47.73679 124.54782,-16.13858 30.33581,34.90706 1.27739,93.8162 -32.97886,127.00368 -43.44397,42.08856 -110.22468,53.53928 -133.31879,19.29615 -24.05995,-35.67525 -1.63239,-91.27114 41.74983,-130.16125 z"
     id="path876"
     sodipodi:nodetypes="sssss" /><path
     style="fill:none;fill-rule:evenodd;stroke:#000000;stroke-width:6.75;stroke-linecap:butt;stroke-linejoin:miter;stroke-miterlimit:4;stroke-dasharray:none;stroke-opacity:1"
     d="m 468.87655,544.36116 c 26.18718,-23.47558 70.4998,-34.66391 90.43998,-11.71898 22.02824,25.34764 0.92757,68.12431 -23.94749,92.22328 -31.54669,30.56248 -80.03928,38.87737 -96.80899,14.01184 -17.47106,-25.90546 -1.18536,-66.27623 30.3165,-94.51614 z"
     id="path878"
     sodipodi:nodetypes="sssss" /></g></svg>
