<svg height="960" viewBox="0 0 960 960" width="960" xmlns="http://www.w3.org/2000/svg"><g fill="#000" fill-rule="nonzero"><path d="m285.55369 94.6693123c33.948916-6.7012584 73.528977-3.261972 116.864717 9.5087627 43.381282 12.783635 90.024491 34.798694 136.923497 64.357608 42.073599 26.518521 84.552386 59.456515 124.846209 96.770045 40.100158 37.133886 77.388408 77.993596 109.719674 120.407882 31.587413 41.438905 57.675336 82.821853 77.84325 123.157024 20.530302 41.062831 34.749828 80.707096 42.324162 117.615744 7.772606 37.875167 8.234889 72.384016 1.038493 101.646295-7.297586 29.674553-22.367829 53.594264-44.938444 70.252802-6.598878 4.872192-13.746652 9.059858-21.407723 12.555712l-.877525.394813-2.936043 1.462347c-102.761479 50.682462-209.345626 56.276918-311.672213 21.227996l-3.131108-1.085617c-93.744965-32.897218-180.420965-99.157585-247.634763-186.063-64.644355-83.5832-107.141872-181.22708-118.335513-272.927553-11.850898-97.084853 11.708502-182.067797 71.138187-241.211035l1.647453-1.624138.282267-.303746c16.923393-18.163841 39.632014-30.312382 67.37867-35.9562235zm470.914254 301.1625777c-31.269185-40.770738-67.235729-80.076375-105.868832-115.851726-39.41267-36.497551-80.91871-68.681279-121.92133-94.524774-19.255064-12.135838-38.433118-22.943382-57.300431-32.299489l-2.90018-1.427933c-24.630158-12.039816-48.708431-21.586788-71.71214-28.365542-2.022862-.596123-4.035606-1.170349-6.037998-1.722627l-2.397885-.652194c-37.089723-9.945603-70.564915-12.290495-98.902286-6.696913-24.430671 4.822579-43.819114 15.195769-58.006339 30.652399-.178066.193999-.358433.378871-.540868.554825l-.275655.257084-1.1827 1.16563c-54.139344 53.88718-76.093856 131.6712-65.716086 221.841995l.327787 2.764187c10.738892 87.975091 51.781726 182.276636 114.30332 263.115171 64.957966 83.988691 148.531163 147.877088 238.436831 179.427011 98.291173 34.492584 200.432716 29.575428 299.348217-19.214604l3.007721-1.497578.359349-.173202 1.115761-.501339c6.005256-2.75076 11.602948-5.993073 16.783105-9.724003l.909809-.663471c18.65551-13.768944 31.173173-33.637162 37.395245-58.938297 6.427079-26.134049 6.004207-57.70093-1.20887-92.849562-7.20716-35.11946-20.839821-73.127536-40.621064-112.692168-19.295339-38.590049-44.243915-78.286606-74.462057-118.137264l-1.398424-1.839368z"/><path d="m270.204176 84.7944932c-29.968397 6.0872075-54.791916 19.2618848-73.444692 39.0141598l-.717484.766347.368593-.361727c-58.873214 57.362144-85.320843 138.027137-79.667344 230.541447l.165147 2.569674c5.374783 79.722321 34.467774 165.204525 82.232736 244.063036l.743868 1.22157-152.9892028 147.674538c-.2959676.285684-.5830508.58043-.8608402.88382l-.7698199.840763c-.2135374.233216-.421514.471463-.6237542.714541-9.2744691 11.147233-8.5053578 25.329953.0184396 36.484768 5.3250223 6.968683 13.5554465 12.896242 24.4906929 18.397777 2.1856133 1.099584 4.4912325 2.18553 6.9108922 3.255953l1.4654329.640377c.4930074.212828.9905288.42502 1.4925163.636561l1.5193132.632655c.7663082.315336 1.5425579.629173 2.328588.941461l1.585053.622495c.266333.1034.5337408.206624.8022175.30967l1.6236378.616128 1.6490032.611769c.8307952.304781 1.6709949.607893 2.5204382.909287l1.7111636.60048c.5744643.199386 1.1529891.397993 1.7355267.595806l1.7596034.591042 1.7833938.586187c.2991989.097288.5993772.19437.9005288.291245l1.818542.578735 1.841617.573655 1.864406.568483 1.886907.563223c.316343.093427.633613.186631.951802.27961l1.920123.55516 1.941908.549674c.325451.09115.651798.182067.979035.272751l1.974051.541273c.330772.089738.662422.179239.994945.2685l2.005548.532669c.335986.088293.672832.176343 1.010533.264147l2.036402.523862 2.056613.517878c.344437.08581.689705.171366 1.035796.256667l2.086393.508732c.349365.084274.699542.168289 1.050525.252043l2.115528.499383c.354185.082704.709164.165144 1.064932.247317l2.14402.489831c.358897.081101.718571.161931 1.079016.24249l2.171866.480075c.363503.079463.727765.158651 1.092779.237561l2.199069.470116 2.216846.463363 2.234337.45652 2.251541.449587 2.268459.442564 2.285091.435449 2.301437.428246c80.118346 14.730076 176.271648 14.797492 267.406617-3.708779l.407578-.087189c2.843424-.639276 5.482234-1.884719 7.752976-3.619215l.255938-.200704 3.66821 1.98251c125.800333 67.276774 263.664402 73.946701 395.499655 9.28792l3.775135-1.87543-.424276.192198c8.883419-3.951401 17.167964-8.748971 24.799347-14.382596 24.946208-18.408925 41.573193-44.79529 49.546-77.21034 7.719547-31.384505 7.228563-68.030001-.976067-108.003973-7.908044-38.528591-22.703826-79.772859-44.017897-122.396483-20.859475-41.711587-47.80388-84.446313-80.394927-127.195016-33.333779-43.722442-71.759353-85.821663-113.081937-124.08142-41.543348-38.464471-85.360878-72.43508-128.813028-99.818099l-1.550181-.974272-3.099916-1.932664c-47.010203-29.151128-93.764181-50.967444-137.506665-63.855454-45.625158-13.4432553-87.560641-17.0866309-123.902093-9.9142534zm113.55519 48.0915808c28.056093 8.266271 57.802249 20.699426 88.255821 36.797645l2.902447 1.544229c13.554443 7.257962 27.24246 15.236741 40.977783 23.89228 41.310198 26.033186 83.182195 58.495474 122.963169 95.328185 39.654995 36.715769 76.527369 77.113297 108.447783 118.981891 31.111134 40.807545 56.720871 81.425443 76.428662 120.834068 19.815582 39.626964 33.437322 77.598508 40.610807 112.548273 7.085224 34.520087 7.497361 65.280704 1.316922 90.407829-5.821282 23.667592-17.342175 41.950792-34.457494 54.580953l-.883646.643826c-4.737123 3.406388-9.86375 6.375145-15.37968 8.905158l-.46794.210589-.676713.30182-.35647.168415-.385615.189664c-127.418547 64.023852-260.208161 54.5916-381.336298-17.126224l-.31241-.18126c-9.505537-5.403153-21.627742-2.165467-27.156233 7.319553l-1.728261 2.964032-1.598834.301584c-82.901335 15.42236-169.663729 14.832519-241.872345 1.556679l-2.047042-.380757-2.030943-.386555-2.014544-.392233-1.997845-.397793-1.980846-.403232c-.328708-.067653-.656695-.135527-.983955-.20362l-1.954786-.411169-1.937038-.416312-1.918989-.421335-1.90064-.426239c-.315228-.071442-.629679-.143083-.943346-.214921l-1.872556-.433371c-.31051-.072616-.620224-.145424-.929135-.218421l-1.843797-.440235-1.824248-.444663-1.804401-.448971-1.784252-.453159-1.763806-.45723-1.743057-.46118-1.72201-.465011-1.700663-.468723-1.679015-.472316-1.657068-.47579-1.634821-.479145c-.270599-.08013-.54026-.160396-.808974-.240793l-1.600888-.483953-1.577891-.48701-1.554594-.489948-1.530998-.492765c-.253183-.082356-.50537-.164825-.756556-.247403l-1.49504-.49677-1.470693-.49929c-.486141-.166837-.968173-.334074-1.446048-.501691l-1.421101-.503974-1.395854-.506136c-.230522-.08453-.45998-.169145-.688366-.253842l-1.357423-.509157-1.3314274-.511022-1.3051311-.512768c-.2153139-.0856-.4295196-.171268-.6426109-.257002l-1.2651249-.515163c-.2086087-.085984-.4160904-.172029-.6224391-.258132l-1.2244439-.51729-1.1969484-.518559c-.5915504-.259577-1.1726774-.519585-1.7432125-.779957l-1.1268974-.521211c-.1854458-.086942-.3697023-.173921-.5527631-.260932l-1.0839671-.522443c-.3565066-.174267-.7081806-.348646-1.0549721-.523117l-.4061528-.205578c-.9393957-.478386-1.8206417-.947482-2.6417952-1.402896l-.1827061-.10208 155.430232-150.029162c6.866902-6.628303 8.093615-17.185024 2.929611-25.211343-50.384182-78.311238-80.797202-164.208416-85.588073-242.606602l-.141211-2.44299c-4.341608-79.683089 17.901335-147.456907 66.307262-195.543209l.729179-.719694.39774-.370422c.364898-.351879.72566-.721595 1.081823-1.109564 13.014987-14.177234 30.919379-23.754892 53.863946-28.283391 29.091407-5.741503 64.271599-2.767721 103.656868 8.690571z"/><path d="m282.227082 115.619011c34.332158-6.824421 74.895196-2.96717 119.577216 10.643648 42.274569 12.878067 87.709295 34.407183 133.450233 62.98292 41.70623 26.054803 83.895842 58.398452 123.89825 94.926077 40.319503 36.817513 77.832431 77.270987 110.093879 118.928777 17.103385 22.083965 32.587301 44.161949 46.408285 66.108839l1.429763 2.280356c10.611017 17.367818 20.182701 34.628935 28.693074 51.708115 9.602165 19.269733 17.773931 38.229533 24.471368 56.725555 6.758526 18.662185 12.013301 36.840799 15.730824 54.360228 7.675867 36.173713 8.333269 69.121521 1.633779 97.038144-6.664447 27.768775-20.539755 50.229439-41.364884 65.966281l-.646292.484561-.214577.152488-.562902.41733c-11.013589 8.065145-23.682961 14.101614-37.80603 18.096195l-1.011261.281855c-14.808258 4.066892-31.150716 5.905983-48.788743 5.557517-17.114904-.338683-35.436228-2.778074-54.751223-7.260956-19.225735-4.461542-39.381651-10.938133-60.228769-19.344487-22.556287-9.095172-45.852473-20.449358-69.467995-33.867556-23.462032-13.331612-47.154375-28.655361-70.690238-45.74874-24.768001-17.988582-49.252786-37.863958-73.068525-59.368841-23.587404-21.298528-46.450844-44.129355-68.292441-68.263267-23.253936-25.616585-44.6282-51.860213-63.882524-78.374848-19.377732-26.685188-36.507909-53.517067-51.152065-80.070674-14.38152-26.078614-26.329448-51.751744-35.644472-76.576159-9.35595-24.932028-16.031023-48.933664-19.886648-71.583684-4.755027-27.932805-5.211961-53.441942-1.296345-75.899468.028482-.16335.061021-.325966.097589-.487697 10.79209-47.731116 42.52344-79.160807 91.763151-89.503354l1.497468-.306951 1.887973 9.442785zm113.74918 29.775663c-41.342851-12.593657-78.353508-16.199724-108.925489-10.339915l-.913396.178264c-41.917039 8.381247-67.985869 33.570434-77.394382 73.397827l-.224995.96815-.126317.744861c-3.259519 19.507295-2.855874 41.978695 1.266058 66.851737l.212795 1.266798c3.633497 21.345119 9.96954 44.127704 18.895336 67.913444 8.965208 23.892161 20.505882 48.690201 34.432766 73.944406 14.237236 25.815755 30.922261 51.95037 49.821925 77.977209 18.823506 25.921365 39.738501 51.601096 62.517996 76.695054 21.400204 23.646176 43.787888 46.001925 66.877354 66.850834 23.292398 21.032322 47.226492 40.460679 71.417812 58.030426 22.943421 16.663108 46.011997 31.583416 68.817876 44.542188 22.860955 12.989458 45.358586 23.954442 67.066899 32.707692 19.916922 8.031264 39.089847 14.191996 57.27072 18.411066 18.011855 4.180432 34.960916 6.437113 50.62522 6.747091 15.790138.311957 30.226203-1.312599 43.096974-4.847385 12.194786-3.348834 22.9557-8.409551 32.189079-15.149057l.745304-.550124.159203-.11524.453544-.339593c16.739339-12.675875 28.027774-30.80356 33.709225-53.811926l.198193-.814085c5.945215-24.773575 5.346629-54.773664-1.75038-88.219415-3.521463-16.595467-8.520193-33.888307-14.971404-51.70191-6.431846-17.76255-14.300562-36.019223-23.567124-54.615465-7.892561-15.839316-16.738279-31.861096-26.519536-47.99947l-1.339605-2.201403.053209.086108c-13.807829-22.094433-29.368494-44.359274-46.636933-66.656357-31.547831-40.736328-68.280883-80.348794-107.767571-116.405827-39.130218-35.731197-80.358964-67.338221-121.008724-92.733024-16.436955-10.268659-32.809963-19.587446-48.970533-27.877717l-2.935912-1.495971c-26.401541-13.361424-52.210146-23.956043-76.775187-31.439271z"/><path d="m446.575988 311.786403c15.049433-2.926436 32.395627-1.428336 51.2704 4.050416 18.79115 5.452767 38.913823 14.810474 59.117389 27.351368 18.088992 11.228313 36.334857 25.164204 53.645868 40.952182 17.217879 15.702656 33.226168 32.978016 47.11295 50.920358 13.572 17.535422 24.795808 35.069714 33.488507 52.193451 8.870823 17.474109 15.030657 34.376029 18.321114 50.167111 3.40248 16.32622 3.618506 31.301888.410987 44.14738-3.283413 13.150368-10.134512 23.886108-20.399674 31.34707-10.975308 7.980348-25.070212 11.720881-41.363291 11.38274-15.815573-.328637-33.625969-4.499209-52.570803-12.203835-20.632114-8.389998-42.314091-20.862264-63.572445-36.630982-20.870307-15.480503-41.011715-33.88586-59.420536-54.479656-19.593379-21.914971-35.834618-44.723569-47.981617-67.192718-12.378648-22.89893-20.298224-45.072001-23.190969-65.058725-2.908854-20.100285-.649448-37.500706 7.012199-50.948783 7.816658-13.720671 20.924963-22.655484 38.119921-25.997377zm226.173088 183.291644c-8.019556-15.58286-18.350824-31.63624-30.842654-47.77605-13.171831-17.018594-28.396053-33.447827-44.773819-48.384303-16.427061-14.981798-33.698524-28.173457-50.716536-38.736985-18.734987-11.629308-37.220045-20.22547-54.144118-25.136453-16.03757-4.655202-30.264681-5.883922-41.879334-3.625397-11.636386 2.261568-19.719966 7.771455-24.558835 16.265178-5.226957 9.174596-6.914018 22.167197-4.596132 38.183868 2.530535 17.484122 9.666824 37.464163 20.990935 58.412332 11.383578 21.056997 26.718661 42.593023 45.298285 63.37412 17.508711 19.58685 36.646879 37.07544 56.425208 51.74597 19.955853 14.802567 40.182684 26.43778 59.191539 34.167684 16.820399 6.840644 32.281564 10.461109 45.451864 10.73478 12.190968.253006 22.026911-2.357275 29.187809-7.564096 6.310497-4.586618 10.569981-11.261272 12.755656-20.015098 2.413723-9.666491 2.240744-21.657961-.586114-35.222157-2.846678-13.661363-8.219416-28.536539-16.026738-44.10664l-.548646-1.087407z"/><path d="m359.03286 198.791921c24.848874-4.950266 53.760599-2.398782 85.386954 7.006942 31.725755 9.436036 65.809454 25.676483 100.076612 47.473907 30.751707 19.561407 61.796757 43.858451 91.25131 71.386394l1.916632 1.797699 1.948264 1.841766c.32887.312094.660202.627118.994565.945621 1.703725 1.654062 3.362726 3.278471 4.986337 4.883008 30.809744 30.450168 59.297425 63.723768 83.647128 97.827537 2.429013 3.402344 4.807469 6.793058 7.135675 10.172558l1.736736 2.532529-8.281073 5.652118 8.342106-5.561652c12.970551 19.453751 24.252314 38.779719 33.765333 57.7788l.886662 1.7802c14.992998 30.265613 25.37982 59.479071 30.910869 86.68063 5.663465 27.84803 6.014214 53.232973.761547 74.789704-5.301899 21.759019-16.269539 39.3576-32.709143 51.603363-17.726348 13.208628-40.712752 19.472881-67.552741 18.900522-26.405099-.562795-56.326694-7.736497-88.256342-21.042442-34.949265-14.565221-71.757757-36.262292-107.887313-63.72448-35.508586-26.990876-69.792994-59.095957-101.136083-95.026967-33.34373-38.218529-60.955032-77.955064-81.571059-117.036304-20.929583-39.675009-34.280723-77.993895-39.131276-112.342037-4.812071-34.071696-1.095529-63.256868 11.286272-85.529229 12.52463-22.530152 33.533929-37.220976 61.492028-42.790187zm79.685506 26.177062c-28.726423-8.543281-54.44283-10.812775-75.778146-6.562462-22.336123 4.449322-38.320024 15.626119-47.918918 32.89326-10.042825 18.065015-13.210651 42.941251-8.963254 73.014798 4.053975 28.70734 14.664755 60.868376 31.263459 94.532719l1.240477 2.496375c1.45998 2.915578 2.964575 5.842022 4.513419 8.778076 19.874462 37.675476 46.601608 76.139587 78.952569 113.220205 30.454604 34.91247 63.745192 66.086905 98.16781 92.252312 34.823838 26.469708 70.168833 47.304109 103.477972 61.185802 29.765964 12.40428 57.288877 19.002897 80.98917 19.508042 22.650668.483023 41.293143-4.597423 55.177654-14.94334 12.53922-9.34039 20.98483-22.892144 25.226474-40.299871 4.49574-18.450332 4.185241-40.922226-.928956-66.06943-5.16972-25.424551-14.978483-53.012189-29.233374-81.787823-9.018517-18.203609-19.76522-36.779618-32.165854-55.527622l-1.183868-1.782024-1.649232-2.405147c-1.698232-2.465056-3.424439-4.936941-5.1787-7.415741l-1.763614-2.481108c-23.676191-33.16046-51.420293-65.565561-81.428527-95.223571-1.580306-1.561742-3.197076-3.144801-4.789229-4.691199-1.556468-1.482033-3.10655-2.944253-4.652914-4.388985-28.576832-26.707632-58.650402-50.244358-88.330765-69.124275-32.786479-20.855561-65.214244-36.306977-95.043653-45.178991z"/></g></svg>