<?xml version="1.0" encoding="UTF-8"?>
<svg width="322px" height="291px" viewBox="0 0 322 291" version="1.1" xmlns="http://www.w3.org/2000/svg" xmlns:xlink="http://www.w3.org/1999/xlink">
    <!-- Generator: Sketch 47.1 (45422) - http://www.bohemiancoding.com/sketch -->
    <title>Untitled 3</title>
    <desc>Created with Sketch.</desc>
    <defs></defs>
    <g id="Page-1" stroke="none" stroke-width="1" fill="none" fill-rule="evenodd">
        <path d="M65.6670327,0.378363549 C55.4875417,0.554871072 47.2790342,3.42575502 41.79445,9.3341042 C40.1039554,11.1552487 38.7555831,13.22792 37.6673691,15.5010067 L37.6205734,15.482103 C37.5350428,15.7038475 37.4713051,15.9247717 37.3866306,16.1465163 C36.7241076,17.6288556 36.1727958,19.1921601 35.7489595,20.8442765 C12.7202688,85.75904 25.9828543,150.338529 64.1413217,194.858644 L2.32249304,260.440389 L2.28504221,260.496529 C1.43212642,261.882174 -0.0547426733,262.961507 0.00168323653,266.616707 L0.00168323653,266.747714 L0.0672043468,266.869376 C1.06742672,268.928886 3.3330233,270.621948 6.55226056,272.109994 C9.77160482,273.597934 13.9693073,274.87119 18.9238731,275.937469 C28.8322914,278.06999 41.763883,279.380484 55.7861853,279.849118 C83.8293631,280.786459 116.213983,278.349873 137.407584,272.175622 L137.641526,272.100757 L142.638893,263.275915 C152.411418,269.225603 162.560949,274.449102 173.043256,278.679261 C213.77192,295.11518 259.518995,296.377095 307.053009,266.813057 C308.137906,266.241878 309.167911,265.605606 310.141204,264.903992 C310.46592,264.693162 310.789567,264.518819 311.114426,264.305064 L311.077011,264.248924 C312.032114,263.491061 312.930541,262.684335 313.762806,261.787727 C320.022444,255.028744 322.069755,245.024024 320.489687,232.847156 C318.913186,220.670287 313.723572,206.271337 305.441589,190.53129 C288.881191,159.04763 259.915653,122.213852 222.446994,87.4309518 C184.974768,52.6480522 146.086545,26.5002427 113.461526,12.3224304 C97.1472332,5.23530756 82.4058751,1.13462054 70.1434049,0.466925834 C68.6097045,0.383107321 67.1152382,0.347796543 65.6600062,0.373120434 L65.6670327,0.378363549 Z M65.6855797,1.58556415 C67.1072487,1.56155995 68.5686156,1.5877634 70.0744598,1.6697857 C82.1218552,2.32595983 96.7651278,6.38216953 112.989539,13.4329115 C145.440857,27.5347522 184.249542,53.6122968 221.636166,88.3167281 C259.022789,123.022229 287.916993,159.783603 304.388222,191.096059 C312.625264,206.753001 317.74604,221.045662 319.295791,233.012449 C320.845399,244.97781 318.840389,254.549884 312.885636,260.965032 C311.864334,262.065266 310.699578,263.018835 309.479287,263.903459 C308.463157,264.5632 307.452235,265.153247 306.437888,265.784454 C300.890529,268.691743 293.840144,269.908325 285.47577,269.452851 C273.434438,268.793003 258.789382,264.748314 242.564257,257.696859 C210.114009,243.593948 171.314954,217.51034 133.924764,182.802342 C96.5381401,148.097911 67.6475036,111.346168 51.1727073,80.0337112 C42.9335258,64.3756996 37.8045461,50.0730511 36.2565787,38.1101876 C35.4400794,31.8056087 35.637356,26.1794247 36.8555065,21.3122441 C37.4329983,19.6827409 37.9443269,18.0570184 38.5680436,16.4272298 C39.6350354,14.0961835 40.975347,11.9802119 42.6762208,10.1479748 C47.8868789,4.53463115 55.7362152,1.75328321 65.6877911,1.58528951 L65.6855797,1.58556415 Z M70.8231196,6.41422387 C61.0341872,6.58385827 53.1349165,9.33941865 47.8582736,15.0236335 C41.8279774,21.5201033 39.8755411,31.1460354 41.3917645,42.8545901 C42.9081306,54.5631447 47.889661,68.403543 55.849923,83.5333196 C71.7708038,113.794656 99.6138872,149.193533 135.627314,182.624636 C171.644308,216.056453 209.013098,241.18346 240.371922,254.811993 C256.052404,261.625903 270.235923,265.5775 282.024373,266.219515 C293.813179,266.8616 303.254354,264.181227 309.28465,257.685007 C315.314946,251.188537 317.276656,241.571878 315.760433,229.863324 C314.248133,218.157266 309.26539,204.307594 301.304414,189.177461 C285.382463,158.917194 257.544017,123.517247 221.527023,90.086144 C185.51003,56.6550408 148.134106,31.5237537 116.771715,17.8952202 C101.092303,11.0827367 86.9180575,7.14148322 75.1299645,6.49946908 C73.6563637,6.41921731 72.2236378,6.39100435 70.8252596,6.41525822 L70.8231196,6.41422387 Z M70.8512969,7.61207959 C72.2173246,7.58889575 73.6249763,7.61742971 75.0718265,7.69629045 C86.6466282,8.32674834 100.710661,12.2157134 116.303402,18.9914593 C147.489239,32.5433079 184.781344,57.6121769 220.712735,90.9648117 C256.644127,124.318873 284.414805,159.646058 300.247588,189.738688 C308.163622,204.785003 313.095361,218.520182 314.58412,230.014375 C316.072951,241.509995 314.125009,250.712911 308.407587,256.872324 C302.697228,263.035659 293.662663,265.657217 282.088574,265.025903 C270.514486,264.398156 256.450809,260.499704 240.856999,253.722888 C209.669379,240.169256 172.379057,215.10217 136.447665,181.749535 C100.516274,148.3969 72.7562955,113.068289 56.9235133,82.975659 C49.0053389,67.9275608 44.0653967,54.2027251 42.578064,42.7071051 C41.0892332,31.2114852 43.0277949,21.9989389 48.7449665,15.8398832 C53.7476834,10.4505311 61.2959863,7.77654221 70.8580737,7.61425531 L70.8512969,7.61207959 Z M34.7094673,27.4513867 C34.4667502,30.8276677 34.5580233,34.4265137 35.0557269,38.269325 C36.632906,50.4472633 41.8218426,64.8455006 50.1034684,80.5851907 C66.66672,112.067424 95.640105,148.899062 133.108764,183.681962 C170.580989,218.464862 209.458513,244.612671 242.083531,258.790484 C258.396754,265.87939 273.140609,269.979363 285.401653,270.647058 C291.061364,270.955332 296.171797,270.49433 300.683373,269.280781 C255.528378,295.104373 212.310126,293.229692 173.48967,277.562763 C131.88002,260.774093 95.3565488,228.102707 67.2719967,196.740316 C28.8938178,153.882305 14.3735979,91.1610897 34.714746,27.451886 L34.7094673,27.4513867 Z M106.654286,46.0648035 C98.4575484,45.618354 91.8783301,47.4809797 87.6852644,51.9977275 C83.4925554,56.5146537 82.129702,63.2094345 83.1840319,71.3501739 C84.2383618,79.4912699 87.7091616,89.1100685 93.2440369,99.6305403 C104.313787,120.671127 123.668017,145.281313 148.710492,168.525792 C173.752254,191.770984 199.739917,209.247322 221.54343,218.724164 C232.4459,223.461872 242.300461,226.203986 250.497555,226.650542 C258.694292,227.096992 265.264237,225.243746 269.456946,220.726892 C273.649655,216.210037 275.012508,209.515185 273.958178,201.374445 C272.905989,193.231566 269.446246,183.60492 263.910657,173.083022 C252.83948,152.042792 233.48632,127.435816 208.444202,104.191337 C183.402083,80.9432919 157.414777,63.4698069 135.611264,53.9929648 C124.707723,49.2563271 114.852806,46.5135 106.656426,46.0676569 L106.654286,46.0648035 Z M106.60749,46.8976741 C114.655494,47.3360271 124.439076,50.0471815 135.280912,54.758424 C156.964583,64.1810516 182.889827,81.6049588 207.871311,104.796293 C232.854935,127.987627 252.159587,152.551445 263.170129,173.473973 C268.673974,183.935593 272.10126,193.489834 273.136686,201.48291 C274.171862,209.475986 272.825879,215.869734 268.850528,220.152325 C264.87539,224.434916 258.593995,226.252172 250.545991,225.813819 C242.502981,225.37511 232.726532,222.675084 221.887193,217.963413 C200.201382,208.540072 174.271144,191.105821 149.286094,167.914844 C124.301043,144.723866 104.997818,120.170392 93.9872753,99.2442974 C88.4837874,88.7830336 85.0561452,79.2312899 84.021789,71.2382137 C82.9866126,63.2451376 84.3325952,56.8417599 88.3079468,52.5595255 C92.2830844,48.2769345 98.5644795,46.4596778 106.612483,46.8980308 L106.60749,46.8976741 Z M133.633789,84.562504 C128.515866,84.5079328 124.357041,85.8581599 121.618137,88.7923072 C118.879127,91.7265258 117.842381,95.942918 118.27731,101.014116 C118.712381,106.085315 120.614883,112.026799 123.789358,118.466914 C130.138164,131.347501 141.57529,146.2433 156.608408,160.119365 C171.641526,173.995788 187.427227,184.23092 200.814648,189.569268 C207.509072,192.238548 213.608207,193.688502 218.72613,193.743073 C223.844052,193.797644 227.993604,192.447417 230.732507,189.51327 C233.471518,186.579051 234.517894,182.362659 234.082716,177.29146 C233.654706,172.219549 231.753631,166.280918 228.579228,159.839376 C222.230421,146.959859 210.781169,132.072264 195.750904,118.194058 C180.717073,104.319419 164.930659,94.0757269 151.541097,88.7363093 C144.846316,86.0683838 138.757882,84.6167185 133.639603,84.5632173 L133.633789,84.562504 Z M133.624515,85.0771853 C138.649346,85.1307578 144.694979,86.5603807 151.348742,89.2135398 C164.656626,94.5197867 180.403449,104.729595 195.398046,118.569993 C210.392287,132.410392 221.794458,147.261249 228.104744,160.065507 C231.259851,166.466745 233.142771,172.361505 233.569711,177.340681 C233.996864,182.319501 232.976097,186.366687 230.35989,189.169435 C227.743682,191.972077 223.752494,193.284389 218.727663,193.230888 C213.709253,193.177387 207.663619,191.757822 201.008073,189.104164 C187.700546,183.800414 171.964066,173.578122 156.969469,159.73915 C141.974872,145.900179 130.564854,131.055385 124.251715,118.254336 C121.098712,111.852029 119.215471,105.959765 118.787461,100.980589 C118.360308,96.0017693 119.390455,91.9545835 122.006663,89.1518351 C124.622871,86.3491937 128.604428,85.0276076 133.629616,85.0811087 L133.624515,85.0771853 Z M64.9218682,195.785391 C65.4225323,196.360707 65.8727269,196.976292 66.3817371,197.544724 C87.2422033,220.840207 112.763692,244.864733 141.622228,262.630691 L136.85884,271.062477 C115.893511,277.130937 83.6893684,279.583075 55.8259545,278.651798 C41.8546567,278.184839 28.9772796,276.867498 19.1812138,274.758695 C14.2822892,273.704365 10.156635,272.454827 7.06248347,271.024669 C4.03142769,269.623759 2.09757408,268.041337 1.26973251,266.439262 C1.28613954,263.361945 2.31346917,262.741974 3.30045892,261.151919 L64.9231166,195.787745 L64.9218682,195.785391 Z" id="Shape" fill="#000000" fill-rule="nonzero"></path>
    </g>
</svg>