<?xml version="1.0" encoding="utf-8"?>
<!-- Generator: Adobe Illustrator 19.2.1, SVG Export Plug-In . SVG Version: 6.00 Build 0)  -->
<svg version="1.2" baseProfile="tiny" id="Layer_1" xmlns="http://www.w3.org/2000/svg" xmlns:xlink="http://www.w3.org/1999/xlink"
	 x="0px" y="0px" viewBox="0 0 50.5 50.5" xml:space="preserve">
<path fill="none" stroke="#1D1D1A" stroke-width="0.4962" stroke-miterlimit="10" d="M34.4,47.2c0,0-2.9-31.3-3-32.4
	c-0.1-1.1,1.5-1.3,1.9-1.3c0.4-0.1,0.3-0.3,0.3-0.4c-0.7,0.1-4.5,0.2-8.3,0.2c-3.9,0-7.6-0.1-8.3-0.2c-0.1,0.1-0.1,0.4,0.3,0.4
	c0.4,0.1,1.9,0.3,1.9,1.3c-0.1,1.1-3,32.4-3,32.4c0,0.4,0.2,0.7,0.3,0.9c0.1,0.2,0.4,0.5,0.6,0.7c0.2,0.1,1.5,1.2,7.1,1.4l0,0
	c0.4,0,0.8,0,1.2,0c0.4,0,0.8,0,1.2,0l0,0c5.6-0.2,6.9-1.3,7.1-1.4c0.2-0.1,0.5-0.5,0.6-0.7C34.2,47.9,34.5,47.6,34.4,47.2z"/>
<path fill="none" stroke="#1D1D1A" stroke-width="0.4962" stroke-miterlimit="10" d="M6.1,8.7C6.1,8.7,6.1,8.7,6.1,8.7L6.1,8.7
	c0.1,0.1,0.2,0.1,0.4,0.2c2.4,1.2,8.7,3.7,10.4,4.2l8.3,0.2l8.3-0.2c1.8-0.5,8-3,10.4-4.2c0.1-0.1,0.2-0.1,0.3-0.2h0c0,0,0,0,0,0"/>
<path fill="none" stroke="#1D1D1A" stroke-width="0.4962" stroke-miterlimit="10" d="M44.1,6.1L44.1,6.1c-8.8-4.6-14.7-5.9-18.9-5.9
	S15.2,1.5,6.4,6.1h0"/>
<path fill="none" stroke="#1D1D1A" stroke-width="0.4962" stroke-miterlimit="10" d="M44.1,6.1H6.4C5.4,6.5,4.6,6.8,4.6,7.2
	c0,0.4,0.7,1.1,1.5,1.5h38.2c0.8-0.4,1.5-1.1,1.5-1.5C45.9,6.8,45.1,6.5,44.1,6.1z"/>
</svg>
