<?xml version="1.0" encoding="UTF-8" standalone="no"?>
<!-- Generator: Adobe Illustrator 19.2.1, SVG Export Plug-In . SVG Version: 6.00 Build 0)  -->

<svg
   version="1.2"
   id="Layer_1"
   x="0px"
   y="0px"
   viewBox="0 0 50.3 50.3"
   xml:space="preserve"
   sodipodi:docname="icon.svg"
   inkscape:version="1.1 (c68e22c387, 2021-05-23)"
   xmlns:inkscape="http://www.inkscape.org/namespaces/inkscape"
   xmlns:sodipodi="http://sodipodi.sourceforge.net/DTD/sodipodi-0.dtd"
   xmlns="http://www.w3.org/2000/svg"
   xmlns:svg="http://www.w3.org/2000/svg"
   xmlns:rdf="http://www.w3.org/1999/02/22-rdf-syntax-ns#"
   xmlns:cc="http://creativecommons.org/ns#"
   xmlns:dc="http://purl.org/dc/elements/1.1/"><metadata
   id="metadata19"><rdf:RDF><cc:Work
       rdf:about=""><dc:format>image/svg+xml</dc:format><dc:type
         rdf:resource="http://purl.org/dc/dcmitype/StillImage" /></cc:Work></rdf:RDF></metadata><defs
   id="defs17"><linearGradient
     id="linearGradient3847"
     inkscape:swatch="solid"><stop
       style="stop-color:#000000;stop-opacity:1;"
       offset="0"
       id="stop3845" /></linearGradient></defs><sodipodi:namedview
   pagecolor="#ffffff"
   bordercolor="#666666"
   borderopacity="1"
   objecttolerance="10"
   gridtolerance="10"
   guidetolerance="10"
   inkscape:pageopacity="0"
   inkscape:pageshadow="2"
   inkscape:window-width="1680"
   inkscape:window-height="987"
   id="namedview15"
   showgrid="false"
   inkscape:zoom="8.0000005"
   inkscape:cx="9.4374994"
   inkscape:cy="9.0624994"
   inkscape:window-x="-8"
   inkscape:window-y="-8"
   inkscape:window-maximized="1"
   inkscape:current-layer="Layer_1"
   inkscape:pagecheckerboard="0" />






<path
   style="fill:#000000;fill-opacity:1;stroke:#000000;stroke-width:0.299221px;stroke-linecap:butt;stroke-linejoin:miter;stroke-opacity:1"
   d="M 24.995642,4.9515083 33.860057,3.7359238"
   id="path1429"
   sodipodi:nodetypes="cc" /><path
   style="fill:#000000;fill-opacity:1;stroke:#000000;stroke-width:0.299221px;stroke-linecap:butt;stroke-linejoin:miter;stroke-opacity:1"
   d="m 26.996681,2.9878718 -0.01871,-0.5049349 0.785454,-0.1122078 6.096623,1.3651947 -0.07935,10.4481592 -8.803773,1.707685 -5.647793,-2.337662 0.01871,-10.1922082 5.647792,1.5896105 -0.01871,10.9402597"
   id="path1563"
   sodipodi:nodetypes="cccccccccc" /><path
   style="fill:#000000;fill-opacity:1;stroke:#000000;stroke-width:0.299221px;stroke-linecap:butt;stroke-linejoin:miter;stroke-opacity:1"
   d="m 19.215612,3.3156144 1.347822,-0.084625 5.516883,1.5709091"
   id="path1565"
   sodipodi:nodetypes="ccc" /><path
   style="fill:#000000;fill-opacity:1;stroke:#000000;stroke-width:0.299221px;stroke-linecap:butt;stroke-linejoin:miter;stroke-opacity:1"
   d="m 24.948888,16.225459 8.832587,-1.719052 -7.49e-4,31.677218 -8.803774,2.76559 -5.647792,-3.81873 V 13.911174 l 5.619741,2.314285 -0.01871,32.681678"
   id="path2620"
   sodipodi:nodetypes="cccccccc" /><path
   style="fill:#ffffff;fill-opacity:1;fill-rule:evenodd;stroke:none;stroke-opacity:1"
   id="path3727"
   sodipodi:type="arc"
   sodipodi:cx="29.531744"
   sodipodi:cy="44.85743"
   sodipodi:rx="0.2644763"
   sodipodi:ry="0.31737155"
   sodipodi:start="2.4065996"
   sodipodi:end="2.4059364"
   sodipodi:open="true"
   sodipodi:arc-type="arc"
   d="m 29.335546,45.070253 a 0.2644763,0.31737155 0 0 1 0.01881,-0.448226 0.2644763,0.31737155 0 0 1 0.373525,0.0225 0.2644763,0.31737155 0 0 1 -0.01869,0.448233 0.2644763,0.31737155 0 0 1 -0.373531,-0.02235" /><path
   style="fill:#ffffff;fill-opacity:1;fill-rule:evenodd;stroke:none;stroke-opacity:1"
   id="path4309"
   sodipodi:type="arc"
   sodipodi:cx="22.020937"
   sodipodi:cy="44.143341"
   sodipodi:rx="0.23770703"
   sodipodi:ry="0.31737155"
   sodipodi:start="2.4065996"
   sodipodi:end="2.4059364"
   sodipodi:open="true"
   sodipodi:arc-type="arc"
   d="m 21.844597,44.356165 a 0.23770703,0.31737155 0 0 1 0.01691,-0.448226 0.23770703,0.31737155 0 0 1 0.335718,0.0225 0.23770703,0.31737155 0 0 1 -0.0168,0.448234 0.23770703,0.31737155 0 0 1 -0.335724,-0.02235" /><path
   style="fill:#ffffff;fill-opacity:1;stroke:#000000;stroke-width:0.299221px;stroke-linecap:butt;stroke-linejoin:miter;stroke-opacity:1"
   d="m 32.083434,3.9416382 -4.45091,-1.0098703 -5.362596,0.7854547 3.810389,1.0846753 -0.05611,10.2483111 6.057891,-1.092421 z"
   id="path1427"
   sodipodi:nodetypes="ccccccc" /><path
   style="fill:#ffffff;fill-opacity:1;stroke:#000000;stroke-width:0.299221px;stroke-linecap:butt;stroke-linejoin:miter;stroke-opacity:1"
   d="m 26.080317,4.8018979 -0.05611,10.2483111 6.057891,-1.092421 0.0013,-10.0161498 -4.450896,-1.0098703"
   id="path6076"
   sodipodi:nodetypes="ccccc" /><path
   style="fill:#000000;fill-opacity:1;stroke:#000000;stroke-width:0.299221px;stroke-linecap:butt;stroke-linejoin:miter;stroke-opacity:1"
   d="M 20.563434,3.2309887 26.080317,4.8018979 26.024207,15.050209 24.903402,15.209635 24.995642,4.9515083 19.34785,3.3618978 Z"
   id="path7208" /><path
   style="fill:none;stroke:#000000;stroke-width:0.299221px;stroke-linecap:butt;stroke-linejoin:miter;stroke-opacity:1"
   d="m 27.772977,2.9214045 -0.638049,0.079343"
   id="path7906" /><path
   style="fill:none;stroke:#000000;stroke-width:0.299221px;stroke-linecap:butt;stroke-linejoin:miter;stroke-opacity:1"
   d="m 32.083434,3.9416382 -6.003117,0.8602597 v 0"
   id="path8021" /></svg>
