<?xml version="1.0" encoding="UTF-8"?>
<svg width="33px" height="90px" viewBox="0 0 33 90" version="1.1" xmlns="http://www.w3.org/2000/svg" xmlns:xlink="http://www.w3.org/1999/xlink">
    <!-- Generator: Sketch 47.1 (45422) - http://www.bohemiancoding.com/sketch -->
    <title>Untitled 7</title>
    <desc>Created with Sketch.</desc>
    <defs></defs>
    <g id="Page-1" stroke="none" stroke-width="1" fill="none" fill-rule="evenodd">
        <g id="icon" fill-rule="nonzero" fill="#000000">
            <path d="M31.5644995,28.889 C28.4224995,12.36 22.8754995,4.753 20.5844995,2.208 C20.2294995,1.718 19.7954995,1.297 19.2974995,0.952 C18.3894995,0.326 17.3384995,0 16.2464995,0 C15.1554995,0 14.1034995,0.326 13.2074995,0.944 C12.6974995,1.296 12.2654995,1.718 11.9074995,2.208 C9.6174995,4.753 4.0684995,12.36 0.9274995,28.89 C-0.0035005,33.788 -0.2345005,38.768 0.2384995,43.69 C0.6174995,47.627 1.4464995,51.535 2.7014995,55.309 C4.5784995,60.952 6.8264995,64.555 7.4294995,65.471 L7.4294995,70.84 C7.4294995,71.494 7.9614995,72.028 8.6164995,72.028 L9.7404995,72.028 L9.7404995,84.453 C9.7404995,85.107 10.2724995,85.639 10.9284995,85.639 L12.2104995,85.639 L12.2104995,85.916 C12.2104995,88.141 14.0214995,89.951 16.2484995,89.951 C18.4754995,89.951 20.2854995,88.14 20.2854995,85.916 L20.2854995,85.639 L21.5664995,85.639 C22.2224995,85.639 22.7544995,85.108 22.7544995,84.453 L22.7544995,72.027 L23.8794995,72.027 C24.5334995,72.027 25.0674995,71.494 25.0674995,70.839 L25.0674995,65.47 C25.6694995,64.554 27.9174995,60.95 29.7964995,55.308 C31.0484995,51.535 31.8784995,47.626 32.2574995,43.689 C32.7264995,38.767 32.4944995,33.788 31.5644995,28.889 Z M14.1254995,65.724 L18.3654995,65.724 L22.6894995,65.724 L22.6894995,69.652 L21.5644995,69.652 L10.9274995,69.652 L9.8034995,69.652 L9.8034995,65.724 L14.1254995,65.724 Z M19.0964995,83.265 L13.3964995,83.265 L12.1144995,83.265 L12.1144995,81.503 L20.3774995,79.78 L20.3774995,83.264 L19.0964995,83.264 L19.0964995,83.265 Z M20.3774995,78.326 L12.1144995,80.047 L12.1144995,76.965 L20.3774995,75.244 L20.3774995,78.326 Z M20.3774995,73.789 L12.1144995,75.51 L12.1144995,71.076 L20.3774995,71.076 L20.3774995,73.789 Z M16.2464995,87.576 C15.3294995,87.576 14.5834995,86.83 14.5834995,85.916 L14.5834995,84.689 L17.9084995,84.689 L17.9084995,85.916 C17.9084995,86.83 17.1624995,87.576 16.2464995,87.576 Z M27.5664995,54.472 C25.8284995,59.728 23.7124995,63.183 23.1254995,64.093 C23.0947725,64.118329 24.993523,61.5969044 26.3772879,58.3985043 C28.3260491,53.8941853 30.9624162,43.2543879 30.9284995,43.3 L19.0784995,43.3 L13.4124995,43.299 C5.9771662,43.2996667 2.2594995,43.3 2.2594995,43.3 C2.2594995,43.3 3.0313512,50.1314492 3.8768328,52.3048943 C5.6981822,56.9869633 9.4160389,64.1316608 9.3654995,64.09 C8.8939728,63.3658123 10.8174178,59.8251666 9.3654995,56.2124839 C9.161453,55.7047726 7.829007,55.5723442 6.6770573,55.3527348 C5.8390466,55.1929752 5.0965573,54.9870781 4.9534995,54.557 C4.8267615,54.1761131 4.7002995,53.7802474 4.5752627,53.3699171 C2.8415897,47.680563 1.3819155,39.2104684 3.2594995,29.331 C6.3094995,13.283 11.5864995,6.095 13.7124995,3.75 C13.7444995,3.715 13.7754995,3.678 13.8014995,3.639 C14.0074995,3.348 14.2594995,3.099 14.5514995,2.899 C15.0554995,2.553 15.6384995,2.373 16.2454995,2.373 C16.8504995,2.373 17.4344995,2.554 17.9314995,2.894 C18.2304995,3.099 18.4844995,3.348 18.6894995,3.639 C18.7164995,3.677 18.7464995,3.715 18.7794995,3.75 C20.9064995,6.095 26.1814995,13.283 29.2304995,29.331 C31.2364995,39.885 29.4344995,48.828 27.5664995,54.472 Z" id="Shape"></path>
        </g>
    </g>
</svg>