<?xml version="1.0" encoding="UTF-8"?>
<svg width="70px" height="101px" viewBox="0 0 70 101" version="1.1" xmlns="http://www.w3.org/2000/svg" xmlns:xlink="http://www.w3.org/1999/xlink">
    <!-- Generator: Sketch 47.1 (45422) - http://www.bohemiancoding.com/sketch -->
    <title>Untitled 3</title>
    <desc>Created with Sketch.</desc>
    <defs></defs>
    <g id="Page-1" stroke="none" stroke-width="1" fill="none" fill-rule="evenodd">
        <g id="noun_679162_cc" transform="translate(-10.000000, -4.000000)" fill-rule="nonzero" fill="#000000">
            <path d="M60.5644995,38.889 C57.4224995,22.36 51.8754995,14.753 49.5844995,12.208 C49.2294995,11.718 48.7954995,11.297 48.2974995,10.952 C47.3894995,10.326 46.3384995,10 45.2464995,10 C44.1554995,10 43.1034995,10.326 42.2074995,10.944 C41.6974995,11.296 41.2654995,11.718 40.9074995,12.208 C38.6174995,14.753 33.0684995,22.36 29.9274995,38.89 C28.9964995,43.788 28.7654995,48.768 29.2384995,53.69 C29.6174995,57.627 30.4464995,61.535 31.7014995,65.309 C33.5784995,70.952 35.8264995,74.555 36.4294995,75.471 L36.4294995,80.84 C36.4294995,81.494 36.9614995,82.028 37.6164995,82.028 L38.7404995,82.028 L38.7404995,94.453 C38.7404995,95.107 39.2724995,95.639 39.9284995,95.639 L41.2104995,95.639 L41.2104995,95.916 C41.2104995,98.141 43.0214995,99.951 45.2484995,99.951 C47.4754995,99.951 49.2854995,98.14 49.2854995,95.916 L49.2854995,95.639 L50.5664995,95.639 C51.2224995,95.639 51.7544995,95.108 51.7544995,94.453 L51.7544995,82.027 L52.8794995,82.027 C53.5334995,82.027 54.0674995,81.494 54.0674995,80.839 L54.0674995,75.47 C54.6694995,74.554 56.9174995,70.95 58.7964995,65.308 C60.0484995,61.535 60.8784995,57.626 61.2574995,53.689 C61.7264995,48.767 61.4944995,43.788 60.5644995,38.889 Z M43.1254995,75.724 L47.3654995,75.724 L51.6894995,75.724 L51.6894995,79.652 L50.5644995,79.652 L39.9274995,79.652 L38.8034995,79.652 L38.8034995,75.724 L43.1254995,75.724 Z M48.0964995,93.265 L42.3964995,93.265 L41.1144995,93.265 L41.1144995,91.503 L49.3774995,89.78 L49.3774995,93.264 L48.0964995,93.264 L48.0964995,93.265 Z M49.3774995,88.326 L41.1144995,90.047 L41.1144995,86.965 L49.3774995,85.244 L49.3774995,88.326 Z M49.3774995,83.789 L41.1144995,85.51 L41.1144995,81.076 L49.3774995,81.076 L49.3774995,83.789 Z M45.2464995,97.576 C44.3294995,97.576 43.5834995,96.83 43.5834995,95.916 L43.5834995,94.689 L46.9084995,94.689 L46.9084995,95.916 C46.9084995,96.83 46.1624995,97.576 45.2464995,97.576 Z M56.5664995,64.472 C54.8284995,69.728 52.7124995,73.183 52.1254995,74.093 C52.0947725,74.118329 53.993523,71.5969044 55.3772879,68.3985043 C57.3260491,63.8941853 59.9624162,53.2543879 59.9284995,53.3 L48.0784995,53.3 L42.4124995,53.299 C34.9771662,53.2996667 31.2594995,53.3 31.2594995,53.3 C31.2594995,53.3 32.0313512,60.1314492 32.8768328,62.3048943 C34.6981822,66.9869633 38.4160389,74.1316608 38.3654995,74.09 C37.8939728,73.3658123 39.8174178,69.8251666 38.3654995,66.2124839 C38.161453,65.7047726 36.829007,65.5723442 35.6770573,65.3527348 C34.8390466,65.1929752 34.0965573,64.9870781 33.9534995,64.557 C33.8267615,64.1761131 33.7002995,63.7802474 33.5752627,63.3699171 C31.8415897,57.680563 30.3819155,49.2104684 32.2594995,39.331 C35.3094995,23.283 40.5864995,16.095 42.7124995,13.75 C42.7444995,13.715 42.7754995,13.678 42.8014995,13.639 C43.0074995,13.348 43.2594995,13.099 43.5514995,12.899 C44.0554995,12.553 44.6384995,12.373 45.2454995,12.373 C45.8504995,12.373 46.4344995,12.554 46.9314995,12.894 C47.2304995,13.099 47.4844995,13.348 47.6894995,13.639 C47.7164995,13.677 47.7464995,13.715 47.7794995,13.75 C49.9064995,16.095 55.1814995,23.283 58.2304995,39.331 C60.2364995,49.885 58.4344995,58.828 56.5664995,64.472 Z" id="Shape"></path>
        </g>
    </g>
</svg>