<?xml version="1.0" encoding="UTF-8" standalone="no"?>
<svg
   xmlns:dc="http://purl.org/dc/elements/1.1/"
   xmlns:cc="http://creativecommons.org/ns#"
   xmlns:rdf="http://www.w3.org/1999/02/22-rdf-syntax-ns#"
   xmlns:svg="http://www.w3.org/2000/svg"
   xmlns="http://www.w3.org/2000/svg"
   xmlns:sodipodi="http://sodipodi.sourceforge.net/DTD/sodipodi-0.dtd"
   xmlns:inkscape="http://www.inkscape.org/namespaces/inkscape"
   inkscape:version="1.0 (4035a4fb49, 2020-05-01)"
   sodipodi:docname="icon.svg"
   xml:space="preserve"
   viewBox="0 0 50.3 50.3"
   y="0px"
   x="0px"
   id="Layer_1"
   version="1.2"><metadata
   id="metadata19"><rdf:RDF><cc:Work
       rdf:about=""><dc:format>image/svg+xml</dc:format><dc:type
         rdf:resource="http://purl.org/dc/dcmitype/StillImage" /><dc:title /></cc:Work></rdf:RDF></metadata><defs
   id="defs17" /><sodipodi:namedview
   inkscape:document-rotation="0"
   inkscape:current-layer="Layer_1"
   inkscape:window-maximized="1"
   inkscape:window-y="-8"
   inkscape:window-x="-8"
   inkscape:cy="-6.6330082"
   inkscape:cx="52.167324"
   inkscape:zoom="5.6568543"
   showgrid="false"
   id="namedview15"
   inkscape:window-height="987"
   inkscape:window-width="1680"
   inkscape:pageshadow="2"
   inkscape:pageopacity="0"
   guidetolerance="10"
   gridtolerance="10"
   objecttolerance="10"
   borderopacity="1"
   bordercolor="#666666"
   pagecolor="#ffffff" />






<path
   sodipodi:nodetypes="cccccccc"
   id="path858"
   d="M 9.3276515,26.103554 9.2807765,9.8670224 42.338018,9.8665634 V 36.82501 H 28.782169 m -17.515625,0 H 9.2807765 l 0.046875,-2.627706"
   style="fill:#ffffff;fill-opacity:1;stroke:#000000;stroke-width:1;stroke-linecap:butt;stroke-linejoin:miter;stroke-miterlimit:4;stroke-dasharray:none;stroke-opacity:1" /><path
   sodipodi:nodetypes="csscsccsccc"
   id="path860"
   d="m 26.971727,39.63984 c 0,0 -4.379938,5.196195 -12.441291,-0.121209 C 11.835369,37.74092 10.23744,35.885079 9.3236138,34.152437 7.1443005,30.020399 8.8557184,26.589039 8.8557184,26.589039 c 0,0 4.5766196,-6.066807 13.3952006,0.264515 8.845184,6.350421 4.682139,12.852578 4.682139,12.852578 L 36.969669,24.166054 c 0,0 1.991814,-6.327436 -3.375,-10.5 -6.408542,-4.9824826 -11.625,-1.5 -11.625,-1.5 L 9.2832939,26.118783 8.8557184,26.589039"
   style="fill:#ffffff;fill-opacity:1;stroke:#000000;stroke-width:1;stroke-linecap:butt;stroke-linejoin:miter;stroke-miterlimit:4;stroke-dasharray:none;stroke-opacity:1" /><path
   style="fill:#ffffff;fill-opacity:1;fill-rule:evenodd;stroke:#000000;stroke-width:0.237455;stroke-miterlimit:4;stroke-dasharray:none;stroke-opacity:1"
   id="path872"
   sodipodi:type="arc"
   sodipodi:cx="35.484978"
   sodipodi:cy="13.318032"
   sodipodi:rx="9.4439268"
   sodipodi:ry="6.4038334"
   sodipodi:start="2.4065996"
   sodipodi:end="2.4037062"
   sodipodi:arc-type="arc"
   d="M 28.479138,17.612328 A 9.4439268,6.4038334 0 0 1 29.146984,8.5705494 9.4439268,6.4038334 0 0 1 42.481648,9.0168687 9.4439268,6.4038334 0 0 1 41.833093,18.059293 9.4439268,6.4038334 0 0 1 28.497491,17.626055"
   transform="matrix(0.76299447,0.64640501,-0.68015729,0.7330662,0,0)"
   sodipodi:open="true" /><path
   sodipodi:open="true"
   transform="matrix(0.76299447,0.64640501,-0.68015729,0.7330662,0,0)"
   d="M 29.581207,16.936802 A 7.9583292,5.3964643 0 0 1 30.143996,9.3173607 7.9583292,5.3964643 0 0 1 41.381021,9.6934707 7.9583292,5.3964643 0 0 1 40.834489,17.313456 7.9583292,5.3964643 0 0 1 29.596673,16.94837"
   sodipodi:arc-type="arc"
   sodipodi:end="2.4037062"
   sodipodi:start="2.4065996"
   sodipodi:ry="5.3964643"
   sodipodi:rx="7.9583292"
   sodipodi:cy="13.31803"
   sodipodi:cx="35.484978"
   sodipodi:type="arc"
   id="path870"
   style="fill:#ffffff;fill-opacity:1;fill-rule:evenodd;stroke:#000000;stroke-width:0.200102;stroke-miterlimit:4;stroke-dasharray:none;stroke-opacity:1" /></svg>
