<?xml version="1.0" encoding="UTF-8"?>
<svg width="33px" height="90px" viewBox="0 0 33 90" version="1.1" xmlns="http://www.w3.org/2000/svg" xmlns:xlink="http://www.w3.org/1999/xlink">
    <!-- Generator: Sketch 47.1 (45422) - http://www.bohemiancoding.com/sketch -->
    <title>Untitled</title>
    <desc>Created with Sketch.</desc>
    <defs></defs>
    <g id="Page-1" stroke="none" stroke-width="1" fill="none" fill-rule="evenodd">
        <g id="icon" fill-rule="nonzero" fill="#000000">
            <g id="Group">
                <g id="icon">
                    <path d="M31.5644995,28.889 C28.4224995,12.36 22.8754995,4.753 20.5844995,2.208 C20.2294995,1.718 19.7954995,1.297 19.2974995,0.952 C18.3894995,0.326 17.3384995,0 16.2464995,0 C15.1554995,0 14.1034995,0.326 13.2074995,0.944 C12.6974995,1.296 12.2654995,1.718 11.9074995,2.208 C9.6174995,4.753 4.0684995,12.36 0.9274995,28.89 C-0.0035005,33.788 -0.2345005,38.768 0.2384995,43.69 C0.6174995,47.627 1.4464995,51.535 2.7014995,55.309 C4.5784995,60.952 6.8264995,64.555 7.4294995,65.471 L7.4294995,70.84 C7.4294995,71.494 7.9614995,72.028 8.6164995,72.028 L9.7404995,72.028 L9.7404995,84.453 C9.7404995,85.107 10.2724995,85.639 10.9284995,85.639 L12.2104995,85.639 L12.2104995,85.916 C12.2104995,88.141 14.0214995,89.951 16.2484995,89.951 C18.4754995,89.951 20.2854995,88.14 20.2854995,85.916 L20.2854995,85.639 L21.5664995,85.639 C22.2224995,85.639 22.7544995,85.108 22.7544995,84.453 L22.7544995,72.027 L23.8794995,72.027 C24.5334995,72.027 25.0674995,71.494 25.0674995,70.839 L25.0674995,65.47 C25.6694995,64.554 27.9174995,60.95 29.7964995,55.308 C31.0484995,51.535 31.8784995,47.626 32.2574995,43.689 C32.7264995,38.767 32.4944995,33.788 31.5644995,28.889 Z M14.1254995,65.724 L18.3654995,65.724 L22.6894995,65.724 L22.6894995,69.652 L21.5644995,69.652 L10.9274995,69.652 L9.8034995,69.652 L9.8034995,65.724 L14.1254995,65.724 Z M19.0964995,83.265 L13.3964995,83.265 L12.1144995,83.265 L12.1144995,81.503 L20.3774995,79.78 L20.3774995,83.264 L19.0964995,83.264 L19.0964995,83.265 Z M20.3774995,78.326 L12.1144995,80.047 L12.1144995,76.965 L20.3774995,75.244 L20.3774995,78.326 Z M20.3774995,73.789 L12.1144995,75.51 L12.1144995,71.076 L20.3774995,71.076 L20.3774995,73.789 Z M16.2464995,87.576 C15.3294995,87.576 14.5834995,86.83 14.5834995,85.916 L14.5834995,84.689 L17.9084995,84.689 L17.9084995,85.916 C17.9084995,86.83 17.1624995,87.576 16.2464995,87.576 Z M15.7004272,47.9400983 C15.9958983,48.104647 16.2650563,48.3107509 16.5,48.5505086 C16.7349437,48.3107509 17.0041017,48.104647 17.2995728,47.9400983 C17.0609358,47.6828899 16.7925928,47.45363 16.5,47.2577745 C16.2074072,47.45363 15.9390642,47.6828899 15.7004272,47.9400983 Z M11.7076227,53.6448795 C11.5969994,53.9956154 11.5281766,54.3649035 11.5069979,54.7469003 C11.8160564,54.952943 12.1520513,55.1217656 12.508578,55.2469635 C12.5028911,55.165381 12.5,55.0830281 12.5,55 C12.5,54.7264389 12.5313846,54.4602081 12.5907495,54.2047117 C12.2678841,54.0625283 11.9705754,53.8729845 11.7076227,53.6448795 Z M15.7004272,54.0599017 C15.9390642,54.3171101 16.2074072,54.54637 16.5,54.7422255 C16.7925928,54.54637 17.0609358,54.3171101 17.2995728,54.0599017 C17.0041017,53.895353 16.7349437,53.6892491 16.5,53.4494914 C16.2650563,53.6892491 15.9958983,53.895353 15.7004272,54.0599017 Z M17.4092505,51.7952883 C17.7321159,51.9374717 18.0294246,52.1270155 18.2923773,52.3551205 C18.4030006,52.0043846 18.4718234,51.6350965 18.4930021,51.2530997 C18.1839436,51.047057 17.8479487,50.8782344 17.491422,50.7530365 C17.4971089,50.834619 17.5,50.9169719 17.5,51 C17.5,51.2735611 17.4686154,51.5397919 17.4092505,51.7952883 Z M16.5,47.2577745 C17.215049,46.7791358 18.0749267,46.5 19,46.5 C21.4852814,46.5 23.5,48.5147186 23.5,51 C23.5,52.9618029 22.2446235,54.6303969 20.4933752,55.2462771 C20.3655077,57.6170263 18.4026499,59.5 16,59.5 C13.5147186,59.5 11.5,57.4852814 11.5,55 C11.5,54.9150633 11.5023532,54.8306761 11.5069979,54.7469003 C10.2970868,53.9402781 9.5,52.5632238 9.5,51 C9.5,48.5147186 11.5147186,46.5 14,46.5 C14.9250733,46.5 15.784951,46.7791358 16.5,47.2577745 Z M17.2995728,47.9400983 C18.0445306,48.743031 18.5,49.8183252 18.5,51 C18.5,51.0849367 18.4976468,51.1693239 18.4930021,51.2530997 C19.4905628,51.9181524 20.2074917,52.9709764 20.4284184,54.1962015 C21.6493532,53.6497193 22.5,52.4241993 22.5,51 C22.5,49.0670034 20.9329966,47.5 19,47.5 C18.3828561,47.5 17.8030186,47.6597279 17.2995728,47.9400983 Z M16.5,54.7422255 C15.784951,55.2208642 14.9250733,55.5 14,55.5 C13.4772508,55.5 12.9753203,55.4108646 12.508578,55.2469635 C12.6352905,57.0647208 14.1500315,58.5 16,58.5 C17.7715548,58.5 19.2356981,57.1838151 19.4679082,55.4759671 C19.3141053,55.4918568 19.1580036,55.5 19,55.5 C18.0749267,55.5 17.215049,55.2208642 16.5,54.7422255 Z M17.2995728,54.0599017 C17.8030186,54.3402721 18.3828561,54.5 19,54.5 C19.1559716,54.5 19.3095603,54.4897977 19.4601352,54.470024 C19.3324816,53.6296245 18.9059628,52.8873905 18.2923773,52.3551205 C18.0897347,52.9976075 17.7468268,53.577841 17.2995728,54.0599017 Z M19.4679082,55.4759671 C19.8236665,55.439213 20.1671257,55.3610128 20.4933752,55.2462771 C20.4977728,55.1647428 20.5,55.0826315 20.5,55 C20.5,54.72564 20.475447,54.4570147 20.4284184,54.1962015 C20.1259486,54.3315849 19.800753,54.4252936 19.4601352,54.470024 C19.4863876,54.6428551 19.5,54.8198379 19.5,55 C19.5,55.1614419 19.4890695,55.3203308 19.4679082,55.4759671 Z M27.5664995,54.472 C25.8284995,59.728 23.7124995,63.183 23.1254995,64.093 C23.0947725,64.118329 24.993523,61.5969044 26.3772879,58.3985043 C28.3260491,53.8941853 30.9624162,43.2543879 30.9284995,43.3 L19.0784995,43.3 L13.4124995,43.299 C5.9771662,43.2996667 2.2594995,43.3 2.2594995,43.3 C2.2594995,43.3 3.0313512,50.1314492 3.8768328,52.3048943 C5.6981822,56.9869633 9.4160389,64.1316608 9.3654995,64.09 C8.8939728,63.3658123 10.8174178,59.8251666 9.3654995,56.2124839 C9.161453,55.7047726 7.829007,55.5723442 6.6770573,55.3527348 C5.8390466,55.1929752 5.0965573,54.9870781 4.9534995,54.557 C4.8267615,54.1761131 4.7002995,53.7802474 4.5752627,53.3699171 C2.8415897,47.680563 1.3819155,39.2104684 3.2594995,29.331 C6.3094995,13.283 11.5864995,6.095 13.7124995,3.75 C13.7444995,3.715 13.7754995,3.678 13.8014995,3.639 C14.0074995,3.348 14.2594995,3.099 14.5514995,2.899 C15.0554995,2.553 15.6384995,2.373 16.2454995,2.373 C16.8504995,2.373 17.4344995,2.554 17.9314995,2.894 C18.2304995,3.099 18.4844995,3.348 18.6894995,3.639 C18.7164995,3.677 18.7464995,3.715 18.7794995,3.75 C20.9064995,6.095 26.1814995,13.283 29.2304995,29.331 C31.2364995,39.885 29.4344995,48.828 27.5664995,54.472 Z M15.7004272,47.9400983 C15.1969814,47.6597279 14.6171439,47.5 14,47.5 C12.0670034,47.5 10.5,49.0670034 10.5,51 C10.5,52.0562094 10.9678513,53.0031463 11.7076227,53.6448795 C12.1330965,52.2958965 13.1769206,51.2213542 14.5066248,50.7537229 C14.5651152,49.6692719 15.0075624,48.686884 15.7004272,47.9400983 Z M12.5907495,54.2047117 C13.0219087,54.3945855 13.4986439,54.5 14,54.5 C14.6171439,54.5 15.1969814,54.3402721 15.7004272,54.0599017 C15.1284329,53.443393 14.7271063,52.6663139 14.5715816,51.8037985 C13.5851647,52.245312 12.8404473,53.1300565 12.5907495,54.2047117 Z M16.5,53.4494914 C16.9411462,52.9993061 17.2616651,52.4304696 17.4092505,51.7952883 C16.9780913,51.6054145 16.5013561,51.5 16,51.5 C15.8440284,51.5 15.6904397,51.5102023 15.5398648,51.529976 C15.6525743,52.2719918 15.9982699,52.9374808 16.5,53.4494914 Z M17.491422,50.7530365 C17.4317891,49.8975712 17.0647367,49.1268169 16.5,48.5505086 C15.9861269,49.074911 15.6359324,49.7603109 15.5320918,50.5240329 C15.6858947,50.5081432 15.8419964,50.5 16,50.5 C16.5227492,50.5 17.0246797,50.5891354 17.491422,50.7530365 Z M14.5715816,51.8037985 C14.8740514,51.6684151 15.199247,51.5747064 15.5398648,51.529976 C15.5136124,51.3571449 15.5,51.1801621 15.5,51 C15.5,50.8385581 15.5109305,50.6796692 15.5320918,50.5240329 C15.1763335,50.560787 14.8328743,50.6389872 14.5066248,50.7537229 C14.5022272,50.8352572 14.5,50.9173685 14.5,51 C14.5,51.27436 14.524553,51.5429853 14.5715816,51.8037985 Z" id="Shape"></path>
                </g>
            </g>
        </g>
    </g>
</svg>