<svg height="960" viewBox="0 0 960 960" width="960" xmlns="http://www.w3.org/2000/svg"><g fill="#000" fill-rule="nonzero"><path d="m542.377098 13c-40.250761.0672936-75.270295 16.0089579-101.150439 42.4920917l-.658285.6780861c-21.644972 22.4436756-35.502523 51.4678872-35.502523 76.3168512l-.000851 693.034971-.034676 1.022803-.010343.377905-.018587 1.339964v1.083437l.015141 1.105239.028879 1.137018.046554 1.225578.066082 1.29374.087475 1.354725c.791476 11.085658 3.369404 22.732892 8.452754 34.408512l.347323.788807c6.778246 15.222819 17.231783 28.846898 31.63644 39.766615l.163958.122657.931453.742973 1.604179 1.26385 1.206664.932298.932587.709811 1.007635.756858 1.080776.800477 1.152315.840901 1.22247.878288 1.291402.912745 1.359231.944344 1.426058.973134 1.338606.897734c10.146266 6.743187 21.066618 12.723792 32.784677 17.476148 15.391777 6.242263 31.147004 9.94181 47.211637 10.299567l1.29348.021872h2.261814.83705c2.170889-.054198 4.329103-.154217 6.46024-.312829l.839044-.064292c57.39617-4.32015 103.913206-52.483361 103.913206-109.228567v-716.790534l-.013625-1.6811c-.88906-54.8322599-45.177153-101.3548999-100.538195-107.2394004l-.260704-.0262776-.271625-.041092c-1.251598-.1844473-2.522839-.3113535-3.811058-.3778767l-1.36507-.069983-1.571033-.0651534c-.522712-.0189902-1.044456-.035249-1.565223-.048766l-.863567-.0154995c-.399695-.0131397-.786387-.0222135-1.174762-.0282456l-1.015429-.0103838zm2.049064 40.0170325c1.141026.0176445 2.29202.0536091 3.452583.1076774l1.163737.0600949-.001031.0761952 1.088579.0906789c36.42312 3.3103573 65.870494 34.149512 65.870494 69.2520991v716.790534c0 35.459069-30.045275 66.56623-66.974367 69.345873l-.746699.057312c-1.437445.106983-2.89002.172395-4.328474.202503h-1.994143c-14.711755-.196909-28.801619-4.815243-40.538619-10.380582l-1.185415-.569097-1.168788-.574813c-.19339-.096233-.386071-.192671-.578033-.289296l-1.14309-.581867-1.125452-.585553-1.107409-.588429c-.183043-.098266-.365316-.196618-.546813-.295039l-1.079587-.591219c-.356709-.197258-.710243-.394658-1.060534-.592063l-1.554189-.887904-1.011129-.590624-.990659-.588627-.969785-.585818-.948506-.582196-.926822-.577764c-.152641-.095879-.304362-.19154-.455153-.286965l-1.331823-.852015-.859345-.559592-.836043-.551911-1.191293-.799358-1.138278-.778216-1.083962-.754455-1.028341-.728077-.971418-.699083-.91319-.66747-.853661-.633242-.792827-.596396-.730689-.556933-.976678-.75568-1.298647-1.025076-1.176868-.939975-.065719-.050038c-14.651752-10.908604-20.877645-24.817259-23.487317-35.558752l-.209205-.887661-.193081-.872205-.177577-.855956c-.028339-.141261-.056057-.281812-.083168-.421637l-.155479-.830095c-.049466-.273704-.096605-.544369-.141521-.811864l-.128181-.792838-.11546-.773021c-.018218-.127141-.035931-.253423-.053153-.378831l-.097538-.741806c-.015307-.12184-.03015-.242771-.044539-.362778l-.081007-.708808-.10249-1.019857-.056549-.649845-.047847-.624871-.052549-.814006-.038972-.763617-.026985-.711187-.016589-.65672-.008345-.600214v-.54167l.009208-.698272.022698-.707094.033421-.585248v-694.048745c0-24.892484 33.613292-79.3804464 97.311247-79.487029h.500121 1.031341z"/><path d="m480.64 97.8721443v767.2137117c0 40.930004 37.044265 71.287964 81.566041 68.174205l.830833-.057436c43.422198-3.036671 78.603126-36.911762 78.603126-76.581398v-750.284454c0-39.6679941-35.181313-73.5427536-78.59519-76.578846l-.846746-.0585424c-44.513406-3.1131765-81.558064 27.2443846-81.558064 68.1727597zm80.170692-48.2209394.846787.0585454c33.365577 2.3333808 59.982521 27.9618321 59.982521 56.6270227v750.284454c0 28.666934-26.616637 54.295621-59.990456 56.629575l-.830875.057439c-33.507987 2.343474-60.178669-19.513282-60.178669-48.222385v-767.2137117c0-28.707353 26.670983-50.563838 60.170692-48.2209394z"/><path d="m406.290723 347.891053 7.506432 18.537894c-39.264632 15.899177-68.311523 54.254167-74.445199 100.433709-7.977178 60.05332 24.996856 115.839826 76.56761 132.356386l1.568419.488445-5.793059 19.142635c-62.127109-18.80128-101.482291-84.507906-92.168836-154.620909 6.999427-52.697658 40.082465-96.816733 85.388011-115.771493z"/></g></svg>