<svg xmlns="http://www.w3.org/2000/svg" width="435" height="1183" viewBox="0 0 435 1183">
  <g fill="none" fill-rule="evenodd">
    <rect width="153" height="999" x="127.5" y="45.5" stroke="#FFF" stroke-width="9" rx="76.5"/>
    <path stroke="#FFF" stroke-width="5" d="M12.2315354,40.4384966 C5.00553883,37.0562532 0,29.7198226 0,21.2142857 C0,9.49795924 9.49795924,0 21.2142857,0 C25.5753457,0 29.6290546,1.31592605 33,3.57236559 C36.3709454,1.31592605 40.4246543,0 44.7857143,0 C56.5020408,0 66,9.49795924 66,21.2142857 C66,29.7198226 60.9944612,37.0562532 53.7684646,40.4384966 C54.0606885,41.8417142 54.2142857,43.295777 54.2142857,44.7857143 C54.2142857,56.5020408 44.7163265,66 33,66 C21.2836735,66 11.7857143,56.5020408 11.7857143,44.7857143 C11.7857143,43.295777 11.9393115,41.8417142 12.2315354,40.4384966 Z M41.9827503,25.5615034 C42.2749742,24.1582858 42.4285714,22.704223 42.4285714,21.2142857 C42.4285714,13.8590192 38.6853614,7.37802622 33,3.57236559 C27.3146386,7.37802622 23.5714286,13.8590192 23.5714286,21.2142857 C23.5714286,22.704223 23.7250258,24.1582858 24.0172497,25.5615034 C26.7450205,24.2847267 29.7892104,23.5714286 33,23.5714286 C36.2107896,23.5714286 39.2549795,24.2847267 41.9827503,25.5615034 Z M12.2315354,40.4384966 C14.9593062,41.7152733 18.0034961,42.4285714 21.2142857,42.4285714 C25.5753457,42.4285714 29.6290546,41.1126454 33,38.8562058 C36.3709454,41.1126454 40.4246543,42.4285714 44.7857143,42.4285714 C47.9965039,42.4285714 51.0406938,41.7152733 53.7684646,40.4384966 C52.3924831,33.8312297 47.94295,28.3512703 41.9827503,25.5615034 C40.8323733,31.0854498 37.5336924,35.821448 33,38.8562058 C28.4663076,35.821448 25.1676267,31.0854498 24.0172497,25.5615034 C18.05705,28.3512703 13.6075169,33.8312297 12.2315354,40.4384966 Z" transform="translate(171 944)"/>
    <path stroke="#FFF" stroke-linecap="square" stroke-width="8" d="M204.5,1045.5 L204.5,1146"/>
  </g>
</svg>
