<?xml version="1.0" encoding="UTF-8"?>
<svg width="11.444in" height="11.444in" version="1.1" viewBox="0 0 824 824" xmlns="http://www.w3.org/2000/svg">
 <path id="Unnamed" d="m187.14 83.87c-25.78 3.87-44.14 6.63-44.14 6.63l-0.5 639s18.14 2.67 43.69 6.42c60.87 8.95 163.81 24.08 163.81 24.08s360-89 360-89v-522.5s-360.5-89-360.5-89-101.71 15.27-162.36 24.37zm29.95 583.95 2-515.64-31.95-68.14-0.97 651.9 30.92-68.12zm132.44-608.32s0.03 29.66 0.07 76.78c0.15 181.86 0.52 623.72 0.52 623.72m-0.53-623.71s-130.59 15.71-130.59 15.71m157.67-9.33s284.66 55.33 284.66 55.33l0.67 424.67-286 56 0.67-536zm0.08 0.58s-27.5-83.75-27.25-83.75m311.5 138.5 49-49.25m-47.82 473.8s47.82 48.42 47.82 48.42m-319.5-436.47 198.5 24.5 1 301s-203 27-203 27l-11-0.09m-86-347.91m-1.5 342.5 61 4.5m-60-347 60-4m26.88-0.25 14.12-0.13m179.5-27.29 92-8.66v424s-93.33-10-93.33-10v-48.67m0.42-307.64 0.91-49.03m-282 374.67 1.5-343.5m85.83-68.5s195.34 37.33 195.34 37.33m-222-40.66-102-18m103.33 535.33s-132-14-132-14m352.67-58s-194.67 40.67-194.67 40.67m-26 5.33-92.67 16" fill="none" stroke="#000"/>
 <g stroke-width="1.2805">
  <path transform="scale(.75)" d="m247.34 113.68c-18.414 2.1728-36.909 5.0348-55.099 8.0481-0.33138 283.14-1.1476 566.28-0.97288 849.42 18.175 3.5361 36.855 6.6959 55.436 8.1156 0.90386-217.91 0.9862-436.2 1.4524-654.26-0.12854-70.398 0.63173-141.16-0.20695-211.33-0.20325-0.0159-0.40754 0.0109-0.61023 0.015z"/>
  <path transform="scale(.75)" d="m251.42 119.76c-1.2305 283.83-2.3567 567.67-1.383 851.5 1.312 2.9459 4.259-8.4933 5.9296-10.254 10.684-23.957 22.603-47.691 32.256-71.907 0.95676-228.49 1.9679-456.98 2.8907-685.46-13.302-27.81-26.037-56.798-39.693-83.882z"/>
  <path transform="scale(.75)" d="m463.21 81.249c-69.202 10.403-138.61 19.655-207.53 31.832-3.9672-0.18828-3.8054 2.614-1.6181 5.257 12.626 27.543 25.453 55.093 38.482 82.387 44.641-3.6418 89.046-10.258 133.57-15.249 12.727-1.6577 25.681-2.8784 38.265-4.8088-0.17326-33.126 1.3593-66.443-0.39015-99.461l-0.13755-0.03251z"/>
  <path transform="scale(.75)" d="m468.68 82.067c10.672 35.648 22.078 71.232 34.531 106.27 124.02 25.66 248.47 49.275 372.84 73.216 6.5273 2.114 10.134-6.5138 14.974-9.3165 17.656-17.406 36.335-34.205 51.7-53.671-23.342-6.6892-48.14-11.978-72.033-18.144-133.92-32.877-267.67-66.468-401.78-98.549z"/>
  <path transform="scale(.75)" d="m914.13 233.04c-10.246 10.296-20.629 20.502-30.789 30.854 0.0384 188.18-0.0767 376.4 0.0575 564.56 20.522 20.565 40.668 42.434 61.486 62.159 0.56237-229.38 0.22168-458.76 0.32013-688.14-10.503 9.3689-20.706 20.527-31.074 30.569z"/>
  <path transform="scale(.75)" d="m467.82 90.358c-0.0744 283.84-1.4231 567.68 0.49761 851.52 0.48648 23.073-0.0515 46.559 1.2456 69.394 157.77-38.863 315.6-77.692 473.23-116.98-18.834-21.816-39.953-42.063-59.956-62.894-127.16 24.69-254.17 50.196-381.48 74.121-0.84303-238.22-0.28694-476.44-0.44517-714.66-11.164-33.478-21.286-67.128-33.098-100.5z"/>
  <path transform="scale(.75)" d="m289.37 895.28c-13.449 26.112-24.923 53.717-36.882 80.716-2.071 2.8584-1.6859 5.1527 2.3096 4.6278 70.192 10.783 140.7 21.272 210.86 31.154 0.65539-32.94 0.90102-66.085-1.0729-98.886-58.394-5.8916-116.69-13.162-175.21-17.612z"/>
 </g>
</svg>
