<?xml version="1.0" encoding="UTF-8"?>
<svg width="189px" height="334px" viewBox="0 0 189 334" version="1.1" xmlns="http://www.w3.org/2000/svg" xmlns:xlink="http://www.w3.org/1999/xlink">
    <!-- Generator: Sketch 47.1 (45422) - http://www.bohemiancoding.com/sketch -->
    <title>Group</title>
    <desc>Created with Sketch.</desc>
    <defs></defs>
    <g id="Page-1" stroke="none" stroke-width="1" fill="none" fill-rule="evenodd">
        <g id="Group" fill-rule="nonzero" fill="#000000">
            <path d="M96.0587238,0.0149653159 C70.5531153,-0.233466896 44.5869406,2.60241582 24.0684581,9.17786682 C15.251166,12.0038433 8.27946547,17.1464751 4.15396046,24.1170668 C0.0284554485,31.0880281 -1.17729649,39.8276966 1.2296239,49.5335931 C4.80437159,63.9479102 9.88612438,76.4530585 16.031689,87.8611278 C17.0763906,89.8002741 18.2069586,91.5866869 19.5697688,93.0238308 C20.932579,94.4609378 22.5984166,95.5893619 24.60236,95.8398641 C68.9697435,101.385879 122.308187,100.500232 163.851553,95.1033648 C166.534924,94.7547613 169.390546,92.5071169 172.07595,87.0667435 C178.444035,74.1646064 183.649616,60.3598187 187.59289,44.0041744 C190.989843,29.9099618 180.503276,14.0392797 165.29646,9.35303722 C146.615067,3.5933724 121.56485,0.257779064 96.0599806,0.00938381553 L96.0587238,0.0149653159 Z M96.029153,3.94308482 C121.24238,4.18782067 146.015,7.42390805 164.17151,13.0194916 C177.485052,17.1231881 186.671241,31.4850169 183.869401,43.1074749 C179.990813,59.1947636 174.896493,72.6957107 168.641146,85.3679344 C166.246202,90.220513 164.227695,91.1908069 163.362747,91.3031762 C122.18532,96.6529149 69.0206053,97.5252554 25.0819994,92.0324307 C24.2274754,91.9256059 23.3375403,91.4247494 22.3526457,90.3861468 C21.3677142,89.3475442 20.3635247,87.8154408 19.4066485,86.0392299 C13.3971099,74.8851004 8.45360089,62.7022746 4.9583249,48.6062139 C2.74986196,39.7009485 3.87410921,32.1171311 7.45661925,26.0636058 C11.03839,20.012668 17.1447732,15.4258575 25.2397969,12.8313839 C45.1557731,6.44740423 70.8158894,3.69805326 96.0287464,3.94275215 L96.029153,3.94308482 Z" id="Shape"></path>
            <path d="M165.79346,97 C109.712318,104.004598 65.965923,104.407501 19,97.5692391 C41.3818165,170.239635 41.1045897,203.240718 41.6220798,237.650113 C42.4502857,238.438029 42.4595266,239.133979 44.438113,239.780176 C44.6514298,241.055568 45.0162234,242.871182 45.7378264,243.975173 C46.2266328,244.723168 47.2530004,245.436343 47.9978535,245.924743 C48.2063651,247.28759 48.5370412,249.049015 49.1603581,250.141548 C49.8213038,251.299986 51.9691834,252.769843 51.9691834,252.769843 C77.8144873,256.824378 105.281753,255.490363 131.126687,253.174188 C131.126687,253.174188 133.761932,251.338466 134.643106,249.946602 C135.228757,249.021551 135.757632,247.42284 136.137729,246.047314 C137.061559,245.419303 138.183219,244.593684 138.773232,243.780042 C139.467777,242.822242 140.035981,241.227448 140.455629,239.851923 C141.754381,239.350401 142.806254,238.814651 143.365513,238.227299 C141.753901,191.457283 153.996238,143.282651 165.798709,97.0042508 L165.79346,97 Z M82.1374887,137.955645 C86.0633904,137.955645 89.7176097,139.116486 92.8096131,141.082136 C95.8458384,139.218875 99.4009584,138.121722 103.214491,138.121722 C114.229268,138.121722 123.193675,147.093153 123.193675,158.108299 C123.193675,165.809291 118.807207,172.493785 112.406224,175.82753 C112.406224,175.88353 112.413617,175.937459 112.413617,175.993607 C112.413617,187.008384 103.441817,195.980184 92.4270401,195.980184 C81.4122633,195.980184 72.4478562,187.008754 72.4478562,175.993607 C72.4478562,175.800731 72.4737307,175.614767 72.477427,175.423185 C66.3289054,172.009747 62.152021,165.454847 62.152021,157.94237 C62.152021,146.927593 71.1234511,137.955793 82.1385976,137.955793 L82.1374887,137.955645 Z M82.1374887,141.652742 C73.1205933,141.652742 65.8480092,148.925326 65.8480092,157.942222 C65.8480092,163.564752 68.6739857,168.504564 72.989003,171.430232 C74.3340337,165.704573 78.1402473,160.92777 83.2349373,158.274524 C83.2349373,158.218524 83.2275446,158.164558 83.2275446,158.108447 C83.2275446,152.354327 85.7090575,147.19569 89.6178081,143.544427 C87.3703486,142.375898 84.8532028,141.652631 82.137119,141.652631 L82.1374887,141.652742 Z M103.214491,141.81882 C100.596471,141.81882 98.1608304,142.489783 95.9722169,143.580652 C99.7465679,147.219383 102.117042,152.30036 102.117042,157.94248 C102.117042,158.137796 102.094864,158.326162 102.087471,158.52011 C107.06203,161.280218 110.740645,166.094317 111.965248,171.813322 C116.487373,168.925727 119.496208,163.891288 119.496208,158.108706 C119.496171,149.09181 112.230647,141.819226 103.213752,141.819226 L103.214491,141.81882 Z M92.7737584,145.688906 C89.549943,148.399482 87.4303035,152.306865 87.0621463,156.765412 C88.7717487,156.287547 90.5672176,156.01446 92.4270401,156.01446 C94.474083,156.01446 96.4505256,156.327764 98.3116418,156.902584 C98.0247674,152.41077 95.9587621,148.456037 92.7733888,145.688943 L92.7737584,145.688906 Z M92.4270031,159.71141 C90.5792677,159.71141 88.8380984,160.087366 87.1848284,160.6501 C87.7933967,164.524622 89.7453324,167.908638 92.5715307,170.36191 C95.4286305,167.959241 97.4540498,164.634773 98.1312226,160.794627 C96.3498738,160.128617 94.4449927,159.71152 92.4270031,159.71152 L92.4270031,159.71141 Z M83.6758759,162.289176 C79.9170495,164.689369 77.2375597,168.578898 76.4336019,173.149075 C78.2148767,173.815639 80.1198317,174.232145 82.1378213,174.232145 C84.756543,174.232145 87.1918515,173.561736 89.3800953,172.470313 C86.5636924,169.757962 84.5234507,166.248234 83.6758759,162.289434 L83.6758759,162.289176 Z M101.575489,162.505782 C100.658053,166.412093 98.572235,169.84527 95.7341345,172.498886 C97.9822224,173.666158 100.499109,174.390682 103.214454,174.390682 C105.062189,174.390682 106.803396,174.014725 108.456629,173.451991 C107.742714,168.907319 105.22128,164.975873 101.575489,162.505597 L101.575489,162.505782 Z M92.5426991,174.968422 C89.5075827,176.831682 85.9513538,177.928835 82.1378213,177.928835 C80.0907784,177.928835 78.1143358,177.615939 76.2532196,177.040711 C76.8007242,185.556381 83.7697633,192.283382 92.4273727,192.283382 C100.983332,192.283382 107.888129,185.710149 108.579717,177.33679 C106.870115,177.814655 105.074572,178.087742 103.214824,178.087742 C99.2892915,178.087742 95.6358114,176.932556 92.5426991,174.968459 L92.5426991,174.968422 Z" id="Shape"></path>
            <path d="M54.2607294,252 L54.2607294,266.37107 C81.1886965,266.539365 108.563923,268.081633 132.982063,260.426587 L132.782423,252.187036 L54.2606925,252.000296 L54.2607294,252 Z M132.390646,266.37107 C108.300742,273.088091 82.2865148,272.467842 57.2178157,269.623384 L52.2957456,275.186403 C81.6891833,277.19419 113.851193,279.645689 134.35489,268.284933 L132.392124,266.37022 L132.390646,266.37107 Z M132.0949,278.158755 C108.004997,284.875776 81.9907692,284.26329 56.9220701,281.418869 L52,286.974125 C81.3934377,288.981913 113.555448,291.433411 134.059145,280.072655 L132.096379,278.157942 L132.0949,278.158755 Z M132.486418,289.277399 C108.396515,295.994421 82.3822874,295.374172 57.3135884,292.529714 L52.3915182,298.08497 C81.784956,300.092758 113.946966,302.552019 134.450663,291.191263 L132.485051,289.277215 L132.486418,289.277399 Z M132.686059,300.193853 C108.596155,306.910875 82.5819277,306.298388 57.5132286,303.453967 L52.5911585,309.009223 C81.9845962,311.017011 114.146606,313.476272 134.650303,302.115516 L132.684691,300.193705 L132.686059,300.193853 Z M118.223689,321.170684 C103.449716,322.396064 87.9131846,323.128127 70.0120931,322.32221 C71.9588539,323.941807 73.6697501,325.112776 78.6656365,332.670534 C91.2691079,334.723417 100.782424,333.77142 109.755703,332.289291 C109.953495,329.371978 115.16717,325.016338 118.225537,321.170647 L118.223689,321.170684 Z" id="Shape"></path>
            <path stroke="#000000" stroke-width="1.2" transform="translate(135,250) scale(2.5,2.5)" fill="none" d="M11 9.791v-9.791l8 7-5.586 4.972 5.586 5.028-8 7v-9.847l-4.659 4.211-1.341-1.484 5.431-4.908-5.431-4.908 1.341-1.484 4.659 4.211zm1.998 9.803l2.987-2.614-2.989-2.686.002 5.3zm.002-9.948l2.974-2.636-2.974-2.602v5.238z"/>
        </g>
    </g>
</svg>