<?xml version="1.0" encoding="UTF-8" standalone="no"?>
<!-- Generator: Adobe Illustrator 19.2.1, SVG Export Plug-In . SVG Version: 6.00 Build 0)  -->

<svg
   xmlns:dc="http://purl.org/dc/elements/1.1/"
   xmlns:cc="http://creativecommons.org/ns#"
   xmlns:rdf="http://www.w3.org/1999/02/22-rdf-syntax-ns#"
   xmlns:svg="http://www.w3.org/2000/svg"
   xmlns="http://www.w3.org/2000/svg"
   xmlns:sodipodi="http://sodipodi.sourceforge.net/DTD/sodipodi-0.dtd"
   xmlns:inkscape="http://www.inkscape.org/namespaces/inkscape"
   version="1.2"
   id="Layer_1"
   x="0px"
   y="0px"
   viewBox="0 0 50.3 50.3"
   xml:space="preserve"
   sodipodi:docname="icon.svg"
   inkscape:version="0.92.4 (5da689c313, 2019-01-14)"><metadata
   id="metadata19"><rdf:RDF><cc:Work
       rdf:about=""><dc:format>image/svg+xml</dc:format><dc:type
         rdf:resource="http://purl.org/dc/dcmitype/StillImage" /></cc:Work></rdf:RDF></metadata><defs
   id="defs17" /><sodipodi:namedview
   pagecolor="#ffffff"
   bordercolor="#666666"
   borderopacity="1"
   objecttolerance="10"
   gridtolerance="10"
   guidetolerance="10"
   inkscape:pageopacity="0"
   inkscape:pageshadow="2"
   inkscape:window-width="1680"
   inkscape:window-height="987"
   id="namedview15"
   showgrid="false"
   inkscape:zoom="8"
   inkscape:cx="27.32923"
   inkscape:cy="31.053175"
   inkscape:window-x="1672"
   inkscape:window-y="-8"
   inkscape:window-maximized="1"
   inkscape:current-layer="Layer_1" />






<g
   id="g965"
   transform="matrix(0.89024446,0,0,0.89024446,4.9484998,4.2970986)"><path
     d="M 12.839023,34.007307 A 19.667606,15.146317 0 0 1 14.237988,12.61607 19.667606,15.146317 0 0 1 42.014902,13.689887 19.667606,15.146317 0 0 1 40.625148,35.081481 19.667606,15.146317 0 0 1 12.847773,34.014757"
     sodipodi:open="true"
     sodipodi:end="2.4059364"
     sodipodi:start="2.4065996"
     sodipodi:ry="15.146317"
     sodipodi:rx="19.667606"
     sodipodi:cy="23.85046"
     sodipodi:cx="27.42915"
     sodipodi:type="arc"
     id="path837"
     style="fill:none;fill-rule:evenodd;stroke:#000000;stroke-width:0.30000001;stroke-miterlimit:4;stroke-dasharray:none;stroke-opacity:1" /><path
     sodipodi:nodetypes="caaaac"
     inkscape:connector-curvature="0"
     id="path839"
     d="m 7.6995233,26.855085 c 0,0 -2.1261857,0.857313 -3.2503178,1.012394 -0.633652,0.08742 -1.3610986,0.260997 -1.9182203,-0.05328 C 1.758587,27.378476 1.6688622,26.250105 1.09232,25.576272 0.67518616,25.088748 0.23211928,24.575053 -0.34634534,24.297458 -0.77676328,24.090908 -1.7583685,24.057681 -1.7583685,24.057681"
     style="fill:none;stroke:#000000;stroke-width:0.80000001;stroke-linecap:square;stroke-linejoin:miter;stroke-miterlimit:4;stroke-dasharray:none;stroke-opacity:1" /><path
     transform="rotate(-179.99327)"
     style="fill:none;fill-rule:evenodd;stroke:#000000;stroke-width:0.1;stroke-miterlimit:4;stroke-dasharray:none;stroke-opacity:1"
     id="path843"
     sodipodi:type="arc"
     sodipodi:cx="-27.413866"
     sodipodi:cy="-23.109844"
     sodipodi:rx="19.667606"
     sodipodi:ry="15.146317"
     sodipodi:start="3.1135018"
     sodipodi:end="0.034305775"
     sodipodi:open="true"
     d="m -47.073713,-22.684427 a 19.667606,15.146317 0 0 1 9.702105,-13.486941 19.667606,15.146317 0 0 1 20.020699,0.04791 19.667606,15.146317 0 0 1 9.5930772,13.533116" /><path
     d="m -47.077669,-22.337343 a 19.667606,15.146317 0 0 1 19.540548,-14.852844 19.667606,15.146317 0 0 1 19.7809714,14.662883"
     sodipodi:open="true"
     sodipodi:end="6.251282"
     sodipodi:start="3.16095"
     sodipodi:ry="15.146317"
     sodipodi:rx="19.667606"
     sodipodi:cy="-22.044168"
     sodipodi:cx="-27.413748"
     sodipodi:type="arc"
     id="path845"
     style="fill:none;fill-rule:evenodd;stroke:#000000;stroke-width:0.1;stroke-miterlimit:4;stroke-dasharray:none;stroke-opacity:1"
     transform="rotate(-179.99327)" /><path
     transform="rotate(-179.99327)"
     style="fill:none;fill-rule:evenodd;stroke:#000000;stroke-width:0.09926181;stroke-miterlimit:4;stroke-dasharray:none;stroke-opacity:1"
     id="path847"
     sodipodi:type="arc"
     sodipodi:cx="-27.413567"
     sodipodi:cy="-20.446526"
     sodipodi:rx="19.522423"
     sodipodi:ry="15.034508"
     sodipodi:start="3.2022649"
     sodipodi:end="6.214901"
     sodipodi:open="true"
     d="m -46.900068,-21.358143 a 19.522423,15.034508 0 0 1 19.412199,-14.122781 19.522423,15.034508 0 0 1 19.5512288,14.008575" /><path
     d="m -46.564378,-20.610167 a 19.520033,15.032668 0 0 1 19.295856,-12.123529 19.520033,15.032668 0 0 1 19.0603107,12.342537"
     sodipodi:open="true"
     sodipodi:end="6.1032917"
     sodipodi:start="3.3363145"
     sodipodi:ry="15.032668"
     sodipodi:rx="19.520033"
     sodipodi:cy="-17.701441"
     sodipodi:cx="-27.413244"
     sodipodi:type="arc"
     id="path849"
     style="fill:none;fill-rule:evenodd;stroke:#000000;stroke-width:0.09924967;stroke-miterlimit:4;stroke-dasharray:none;stroke-opacity:1"
     transform="rotate(-179.99327)" /><path
     transform="rotate(-179.99327)"
     style="fill:none;fill-rule:evenodd;stroke:#000000;stroke-width:0.09242399;stroke-miterlimit:4;stroke-dasharray:none;stroke-opacity:1"
     id="path851"
     sodipodi:type="arc"
     sodipodi:cx="-27.413013"
     sodipodi:cy="-15.72264"
     sodipodi:rx="18.177586"
     sodipodi:ry="13.99883"
     sodipodi:start="3.2798782"
     sodipodi:end="6.1367762"
     sodipodi:open="true"
     d="m -45.417072,-17.652312 a 18.177586,13.99883 0 0 1 17.930225,-12.069042 18.177586,13.99883 0 0 1 18.0569429,11.956472" /><path
     d="m -43.823524,-15.435867 a 16.567711,12.759041 0 0 1 16.384961,-11.0069 16.567711,12.759041 0 0 1 16.429378,10.967563"
     sodipodi:open="true"
     sodipodi:end="6.1423125"
     sodipodi:start="3.2793522"
     sodipodi:ry="12.759041"
     sodipodi:rx="16.567711"
     sodipodi:cy="-13.683742"
     sodipodi:cx="-27.412773"
     sodipodi:type="arc"
     id="path853"
     style="fill:none;fill-rule:evenodd;stroke:#000000;stroke-width:0.08423857;stroke-miterlimit:4;stroke-dasharray:none;stroke-opacity:1"
     transform="rotate(-179.99327)" /><path
     transform="rotate(-179.99327)"
     style="fill:none;fill-rule:evenodd;stroke:#000000;stroke-width:0.07177254;stroke-miterlimit:4;stroke-dasharray:none;stroke-opacity:1"
     id="path855"
     sodipodi:type="arc"
     sodipodi:cx="-27.252813"
     sodipodi:cy="-12.75816"
     sodipodi:rx="14.115938"
     sodipodi:ry="10.870895"
     sodipodi:start="3.1778642"
     sodipodi:end="6.2235429"
     sodipodi:open="true"
     d="m -41.359467,-13.152377 a 14.115938,10.870895 0 0 1 13.941707,-10.475936 14.115938,10.870895 0 0 1 14.255786,10.222171" /><path
     d="m -39.503593,-11.813821 a 12.304838,9.4761391 0 0 1 12.094749,-9.574234 12.304838,9.4761391 0 0 1 12.51084,9.251699"
     sodipodi:open="true"
     sodipodi:end="6.2596432"
     sodipodi:start="3.1310959"
     sodipodi:ry="9.4761391"
     sodipodi:rx="12.304838"
     sodipodi:cy="-11.913288"
     sodipodi:cx="-27.199432"
     sodipodi:type="arc"
     id="path857"
     style="fill:none;fill-rule:evenodd;stroke:#000000;stroke-width:0.06256398;stroke-miterlimit:4;stroke-dasharray:none;stroke-opacity:1"
     transform="rotate(-179.99327)" /><path
     transform="rotate(-179.99327)"
     style="fill:none;fill-rule:evenodd;stroke:#000000;stroke-width:0.05252742;stroke-miterlimit:4;stroke-dasharray:none;stroke-opacity:1"
     id="path859"
     sodipodi:type="arc"
     sodipodi:cx="-27.412483"
     sodipodi:cy="-11.235702"
     sodipodi:rx="10.330886"
     sodipodi:ry="7.9559693"
     sodipodi:start="3.1135018"
     sodipodi:end="0.034305775"
     sodipodi:open="true"
     d="m -37.739293,-11.012241 a 10.330886,7.9559693 0 0 1 5.096265,-7.084342 10.330886,7.9559693 0 0 1 10.516357,0.02517 10.330886,7.9559693 0 0 1 5.038995,7.108597" /><path
     d="m -36.264616,-10.260493 a 8.8557158,6.8199177 0 0 1 4.368559,-6.072752 8.8557158,6.8199177 0 0 1 9.014702,0.02157 8.8557158,6.8199177 0 0 1 4.319467,6.093543"
     sodipodi:open="true"
     sodipodi:end="0.034305775"
     sodipodi:start="3.1135018"
     sodipodi:ry="6.8199177"
     sodipodi:rx="8.8557158"
     sodipodi:cy="-10.452045"
     sodipodi:cx="-27.412394"
     sodipodi:type="arc"
     id="path861"
     style="fill:none;fill-rule:evenodd;stroke:#000000;stroke-width:0.04502691;stroke-miterlimit:4;stroke-dasharray:none;stroke-opacity:1"
     transform="rotate(-179.99327)" /><path
     transform="rotate(-179.99327)"
     style="fill:none;fill-rule:evenodd;stroke:#000000;stroke-width:0.03785178;stroke-miterlimit:4;stroke-dasharray:none;stroke-opacity:1"
     id="path863"
     sodipodi:type="arc"
     sodipodi:cx="-27.412327"
     sodipodi:cy="-9.9108696"
     sodipodi:rx="7.44454"
     sodipodi:ry="5.733151"
     sodipodi:start="3.1135018"
     sodipodi:end="0.034305775"
     sodipodi:open="true"
     d="m -34.85393,-9.7498417 a 7.44454,5.733151 0 0 1 3.67242,-5.1050473 7.44454,5.733151 0 0 1 7.578192,0.01813 7.44454,5.733151 0 0 1 3.631151,5.122526" /><path
     d="m -33.534876,-9.4428353 a 6.1250038,4.7169566 0 0 1 3.021488,-4.2001837 6.1250038,4.7169566 0 0 1 6.234966,0.01492 6.1250038,4.7169566 0 0 1 2.987533,4.2145639"
     sodipodi:open="true"
     sodipodi:end="0.034305775"
     sodipodi:start="3.1135018"
     sodipodi:ry="4.7169566"
     sodipodi:rx="6.1250038"
     sodipodi:cy="-9.5753212"
     sodipodi:cx="-27.412289"
     sodipodi:type="arc"
     id="path865"
     style="fill:none;fill-rule:evenodd;stroke:#000000;stroke-width:0.0311426;stroke-miterlimit:4;stroke-dasharray:none;stroke-opacity:1"
     transform="rotate(-179.99327)" /><path
     transform="matrix(-0.99999999,-1.2366895e-4,1.1156403e-4,-0.99999999,0,0)"
     style="fill:none;fill-rule:evenodd;stroke:#000000;stroke-width:0.02755032;stroke-miterlimit:4;stroke-dasharray:none;stroke-opacity:1"
     id="path867"
     sodipodi:type="arc"
     sodipodi:cx="-27.412193"
     sodipodi:cy="-9.2278471"
     sodipodi:rx="5.2807298"
     sodipodi:ry="4.281714"
     sodipodi:start="3.1135018"
     sodipodi:end="6.2829055"
     sodipodi:open="true"
     d="m -32.69084,-9.1075859 a 5.2807298,4.281714 0 0 1 2.552684,-3.7873881 5.2807298,4.281714 0 0 1 5.322533,-0.06122 5.2807298,4.281714 0 0 1 2.684159,3.7271508" /><path
     d="m -31.349538,-8.9697804 a 3.9388642,3.0333779 0 0 1 1.943057,-2.7010516 3.9388642,3.0333779 0 0 1 4.009579,0.0096 3.9388642,3.0333779 0 0 1 1.921221,2.7102996"
     sodipodi:open="true"
     sodipodi:end="0.034305775"
     sodipodi:start="3.1135018"
     sodipodi:ry="3.0333779"
     sodipodi:rx="3.9388642"
     sodipodi:cy="-9.0549793"
     sodipodi:cx="-27.412228"
     sodipodi:type="arc"
     id="path869"
     style="fill:none;fill-rule:evenodd;stroke:#000000;stroke-width:0.02002717;stroke-miterlimit:4;stroke-dasharray:none;stroke-opacity:1"
     transform="rotate(-179.99327)" /><path
     transform="rotate(-179.99327)"
     style="fill:none;fill-rule:evenodd;stroke:#000000;stroke-width:0.01349237;stroke-miterlimit:4;stroke-dasharray:none;stroke-opacity:1"
     id="path871"
     sodipodi:type="arc"
     sodipodi:cx="-27.412193"
     sodipodi:cy="-8.759923"
     sodipodi:rx="2.6536257"
     sodipodi:ry="2.0435967"
     sodipodi:start="3.1135018"
     sodipodi:end="0.034305775"
     sodipodi:open="true"
     d="m -30.064772,-8.7025242 a 2.6536257,2.0435967 0 0 1 1.309044,-1.8197078 2.6536257,2.0435967 0 0 1 2.701266,0.0065 2.6536257,2.0435967 0 0 1 1.294333,1.8259374" /><path
     transform="rotate(-179.99327)"
     style="fill:none;fill-rule:evenodd;stroke:#000000;stroke-width:0.1;stroke-miterlimit:4;stroke-dasharray:none;stroke-opacity:1"
     id="path873"
     sodipodi:type="arc"
     sodipodi:cx="-27.413671"
     sodipodi:cy="-21.290613"
     sodipodi:rx="19.667606"
     sodipodi:ry="15.146317"
     sodipodi:start="3.211322"
     sodipodi:end="6.2121925"
     sodipodi:open="true"
     d="m -47.033483,-22.3459 a 19.667606,15.146317 0 0 1 19.607387,-14.091027 19.667606,15.146317 0 0 1 19.6304895,14.071937" /><path
     d="m -47.036565,-22.311359 a 19.667606,15.146317 0 0 1 19.548166,-14.125461 19.667606,15.146317 0 0 1 19.686982,14.010656"
     sodipodi:open="true"
     sodipodi:end="6.2081428"
     sodipodi:start="3.2090361"
     sodipodi:ry="15.146317"
     sodipodi:rx="19.667606"
     sodipodi:cy="-21.290613"
     sodipodi:cx="-27.413671"
     sodipodi:type="arc"
     id="path875"
     style="fill:none;fill-rule:evenodd;stroke:#000000;stroke-width:0.1;stroke-miterlimit:4;stroke-dasharray:none;stroke-opacity:1"
     transform="rotate(-179.99327)" /><path
     d="m -46.779467,-21.212223 a 19.522423,15.034508 0 0 1 19.4575,-13.135234 19.522423,15.034508 0 0 1 19.2968486,13.275045"
     sodipodi:open="true"
     sodipodi:end="6.1658993"
     sodipodi:start="3.2682477"
     sodipodi:ry="15.034508"
     sodipodi:rx="19.522423"
     sodipodi:cy="-19.313114"
     sodipodi:cx="-27.41342"
     sodipodi:type="arc"
     id="path895"
     style="fill:none;fill-rule:evenodd;stroke:#000000;stroke-width:0.09926181;stroke-miterlimit:4;stroke-dasharray:none;stroke-opacity:1"
     transform="rotate(-179.99327)" /><path
     transform="matrix(-0.99999999,-1.1962176e-4,1.153386e-4,-0.99999999,0,0)"
     style="fill:none;fill-rule:evenodd;stroke:#000000;stroke-width:0.0983523;stroke-miterlimit:4;stroke-dasharray:none;stroke-opacity:1"
     id="path897"
     sodipodi:type="arc"
     sodipodi:cx="-27.492577"
     sodipodi:cy="-15.701066"
     sodipodi:rx="19.168013"
     sodipodi:ry="15.725894"
     sodipodi:start="3.3638484"
     sodipodi:end="6.0724767"
     sodipodi:open="true"
     d="m -46.189108,-19.167532 a 19.168013,15.725894 0 0 1 18.807199,-12.259166 19.168013,15.725894 0 0 1 18.6334052,12.436516" /><path
     transform="rotate(-179.99327)"
     style="fill:none;fill-rule:evenodd;stroke:#000000;stroke-width:0.08423857;stroke-miterlimit:4;stroke-dasharray:none;stroke-opacity:1"
     id="path899"
     sodipodi:type="arc"
     sodipodi:cx="-27.412773"
     sodipodi:cy="-13.683742"
     sodipodi:rx="16.567711"
     sodipodi:ry="12.759041"
     sodipodi:start="3.2793522"
     sodipodi:end="6.1423125"
     sodipodi:open="true"
     d="m -43.823524,-15.435867 a 16.567711,12.759041 0 0 1 16.384961,-11.0069 16.567711,12.759041 0 0 1 16.429378,10.967563" /><path
     d="m -44.692254,-16.688699 a 17.373669,12.758153 0 0 1 17.297001,-11.434141 17.373669,12.758153 0 0 1 17.266244,11.459182"
     sodipodi:open="true"
     sodipodi:end="6.1811941"
     sodipodi:start="3.245557"
     sodipodi:ry="12.758153"
     sodipodi:rx="17.373669"
     sodipodi:cy="-15.364694"
     sodipodi:cx="-27.412394"
     sodipodi:type="arc"
     id="path901"
     style="fill:none;fill-rule:evenodd;stroke:#000000;stroke-width:0.08626019;stroke-miterlimit:4;stroke-dasharray:none;stroke-opacity:1"
     transform="matrix(-0.99999999,-1.120039e-4,1.2318326e-4,-0.99999999,0,0)" /><path
     d="m -42.574711,-14.274209 a 15.332178,10.759297 0 0 1 15.189589,-10.768243 15.332178,10.759297 0 0 1 15.472353,10.568136"
     sodipodi:open="true"
     sodipodi:end="6.2654605"
     sodipodi:start="3.140718"
     sodipodi:ry="10.759297"
     sodipodi:rx="15.332178"
     sodipodi:cy="-14.28362"
     sodipodi:cx="-27.242538"
     sodipodi:type="arc"
     id="path903"
     style="fill:none;fill-rule:evenodd;stroke:#000000;stroke-width:0.07441571;stroke-miterlimit:4;stroke-dasharray:none;stroke-opacity:1"
     transform="matrix(-0.99999999,-1.0703281e-4,1.2890446e-4,-0.99999999,0,0)" /><path
     transform="matrix(-0.99999999,-1.280634e-4,1.0773574e-4,-0.99999999,0,0)"
     style="fill:none;fill-rule:evenodd;stroke:#000000;stroke-width:0.07166592;stroke-miterlimit:4;stroke-dasharray:none;stroke-opacity:1"
     id="path905"
     sodipodi:type="arc"
     sodipodi:cx="-27.122572"
     sodipodi:cy="-11.226162"
     sodipodi:rx="13.498887"
     sodipodi:ry="11.334076"
     sodipodi:start="3.259232"
     sodipodi:end="6.1369523"
     sodipodi:open="true"
     d="m -40.528161,-12.556422 a 13.498887,11.334076 0 0 1 13.212604,-10.002658 13.498887,11.334076 0 0 1 13.547798,9.681403" /><path
     d="m -38.780294,-11.548505 a 11.4033,9.1626205 0 0 1 11.45368,-8.91693 11.4033,9.1626205 0 0 1 11.347127,9.004453"
     sodipodi:open="true"
     sodipodi:end="6.2659336"
     sodipodi:start="3.1683989"
     sodipodi:ry="9.1626205"
     sodipodi:rx="11.4033"
     sodipodi:cy="-11.302919"
     sodipodi:cx="-27.38109"
     sodipodi:type="arc"
     id="path907"
     style="fill:none;fill-rule:evenodd;stroke:#000000;stroke-width:0.05922375;stroke-miterlimit:4;stroke-dasharray:none;stroke-opacity:1"
     transform="matrix(-0.99999999,-1.2255359e-4,1.1257938e-4,-0.99999999,0,0)" /><path
     transform="matrix(-0.99999999,-1.2199643e-4,1.1309354e-4,-0.99999999,0,0)"
     style="fill:none;fill-rule:evenodd;stroke:#000000;stroke-width:0.05067732;stroke-miterlimit:4;stroke-dasharray:none;stroke-opacity:1"
     id="path909"
     sodipodi:type="arc"
     sodipodi:cx="-27.411171"
     sodipodi:cy="-10.461687"
     sodipodi:rx="9.7799768"
     sodipodi:ry="7.8225431"
     sodipodi:start="3.1731037"
     sodipodi:end="6.2494637"
     sodipodi:open="true"
     d="m -37.186293,-10.708143 a 9.7799768,7.8225431 0 0 1 9.764312,-7.576082 9.7799768,7.8225431 0 0 1 9.785227,7.558799" /><path
     d="m -35.549314,-10.092198 a 8.1868992,6.224781 0 0 1 4.038629,-5.542816 8.1868992,6.224781 0 0 1 8.333879,0.01969 8.1868992,6.224781 0 0 1 3.993244,5.561794"
     sodipodi:open="true"
     sodipodi:end="0.034305775"
     sodipodi:start="3.1135018"
     sodipodi:ry="6.224781"
     sodipodi:rx="8.1868992"
     sodipodi:cy="-10.267035"
     sodipodi:cx="-27.365644"
     sodipodi:type="arc"
     id="path911"
     style="fill:none;fill-rule:evenodd;stroke:#000000;stroke-width:0.04136113;stroke-miterlimit:4;stroke-dasharray:none;stroke-opacity:1"
     transform="matrix(-0.99999999,-1.1596891e-4,1.1897159e-4,-0.99999999,0,0)" /><path
     transform="matrix(-0.99999999,-1.2912649e-4,1.0684877e-4,-0.99999999,0,0)"
     style="fill:none;fill-rule:evenodd;stroke:#000000;stroke-width:0.0372107;stroke-miterlimit:4;stroke-dasharray:none;stroke-opacity:1"
     id="path913"
     sodipodi:type="arc"
     sodipodi:cx="-27.396215"
     sodipodi:cy="-9.2007656"
     sodipodi:rx="6.9800406"
     sodipodi:ry="5.9093046"
     sodipodi:start="3.2244708"
     sodipodi:end="6.2046655"
     sodipodi:open="true"
     d="m -34.352298,-9.6899573 a 6.9800406,5.9093046 0 0 1 6.971293,-5.4200987 6.9800406,5.9093046 0 0 1 6.943324,5.4457696" /><path
     transform="matrix(-0.99999999,-1.2488364e-4,1.1047888e-4,-0.99999999,0,0)"
     style="fill:none;fill-rule:evenodd;stroke:#000000;stroke-width:0.02419449;stroke-miterlimit:4;stroke-dasharray:none;stroke-opacity:1"
     id="path915"
     sodipodi:type="arc"
     sodipodi:cx="-27.430882"
     sodipodi:cy="-8.975769"
     sodipodi:rx="4.6148891"
     sodipodi:ry="3.7785914"
     sodipodi:start="3.194916"
     sodipodi:end="6.229242"
     sodipodi:open="true"
     d="m -32.039211,-9.1771607 a 4.6148891,3.7785914 0 0 1 4.606899,-3.5771993 4.6148891,3.7785914 0 0 1 4.609607,3.5748601" /><path
     d="m -30.667457,-8.7054363 a 3.2676992,2.6702342 0 0 1 1.611969,-2.3776927 3.2676992,2.6702342 0 0 1 3.326364,0.0084 3.2676992,2.6702342 0 0 1 1.593854,2.3858339"
     sodipodi:open="true"
     sodipodi:end="0.034305775"
     sodipodi:start="3.1135018"
     sodipodi:ry="2.6702342"
     sodipodi:rx="3.2676992"
     sodipodi:cy="-8.7804356"
     sodipodi:cx="-27.401047"
     sodipodi:type="arc"
     id="path917"
     style="fill:none;fill-rule:evenodd;stroke:#000000;stroke-width:0.01711458;stroke-miterlimit:4;stroke-dasharray:none;stroke-opacity:1"
     transform="matrix(-0.99999999,-1.2463621e-4,1.1069822e-4,-0.99999999,0,0)" /><path
     d="m -29.340942,-8.6994851 a 1.9519745,1.4675542 0 0 1 0.962916,-1.3067739 1.9519745,1.4675542 0 0 1 1.987018,0.0046 1.9519745,1.4675542 0 0 1 0.952096,1.3112482"
     sodipodi:open="true"
     sodipodi:end="0.034305775"
     sodipodi:start="3.1135018"
     sodipodi:ry="1.4675542"
     sodipodi:rx="1.9519745"
     sodipodi:cy="-8.7407045"
     sodipodi:cx="-27.389738"
     sodipodi:type="arc"
     id="path919"
     style="fill:none;fill-rule:evenodd;stroke:#000000;stroke-width:0.0098063;stroke-miterlimit:4;stroke-dasharray:none;stroke-opacity:1"
     transform="matrix(-0.99999999,-1.1467187e-4,1.2031727e-4,-0.99999999,0,0)" /><path
     transform="matrix(-0.99999999,-1.0734198e-4,1.2853317e-4,-0.99999999,0,0)"
     style="fill:none;fill-rule:evenodd;stroke:#000000;stroke-width:0.00649958;stroke-miterlimit:4;stroke-dasharray:none;stroke-opacity:1"
     id="path921"
     sodipodi:type="arc"
     sodipodi:cx="-27.410955"
     sodipodi:cy="-8.7208967"
     sodipodi:rx="1.3372024"
     sodipodi:ry="0.94108725"
     sodipodi:start="3.1135018"
     sodipodi:end="0.034305775"
     sodipodi:open="true"
     d="m -28.74763,-8.6944643 a 1.3372024,0.94108725 0 0 1 0.659647,-0.8379851 1.3372024,0.94108725 0 0 1 1.361209,0.00298 1.3372024,0.94108725 0 0 1 0.652234,0.8408541" /></g></svg>