<?xml version="1.0" encoding="UTF-8" standalone="no"?>
<svg
   xmlns:dc="http://purl.org/dc/elements/1.1/"
   xmlns:cc="http://creativecommons.org/ns#"
   xmlns:rdf="http://www.w3.org/1999/02/22-rdf-syntax-ns#"
   xmlns:svg="http://www.w3.org/2000/svg"
   xmlns="http://www.w3.org/2000/svg"
   xmlns:sodipodi="http://sodipodi.sourceforge.net/DTD/sodipodi-0.dtd"
   xmlns:inkscape="http://www.inkscape.org/namespaces/inkscape"
   version="1.2"
   id="Layer_1"
   x="0px"
   y="0px"
   viewBox="0 0 50.5 50.5"
   xml:space="preserve"
   sodipodi:docname="icon1.svg"
   inkscape:version="0.92.4 (5da689c313, 2019-01-14)"><sodipodi:namedview
   pagecolor="#ffffff"
   bordercolor="#666666"
   borderopacity="1"
   objecttolerance="10"
   gridtolerance="10"
   guidetolerance="10"
   inkscape:pageopacity="0"
   inkscape:pageshadow="2"
   inkscape:window-width="1680"
   inkscape:window-height="987"
   id="namedview8"
   showgrid="false"
   inkscape:zoom="13.217996"
   inkscape:cx="30.897386"
   inkscape:cy="23.061492"
   inkscape:window-x="1672"
   inkscape:window-y="-8"
   inkscape:window-maximized="1"
   inkscape:current-layer="Layer_1" /><metadata
   id="metadata15"><rdf:RDF><cc:Work
       rdf:about=""><dc:format>image/svg+xml</dc:format><dc:type
         rdf:resource="http://purl.org/dc/dcmitype/StillImage" /><dc:title /></cc:Work></rdf:RDF></metadata><defs
   id="defs13" />




<g
   id="layer3" /><g
   id="layer1" /><path
   style="fill:none;stroke:#000000;stroke-width:0.36111343;stroke-miterlimit:4;stroke-dasharray:none"
   inkscape:connector-curvature="0"
   id="Unnamed"
   d="m 17.150217,7.8514106 11.224298,-3.741433 c 0.752083,-0.2304506 1.782332,0.06778 1.802937,0.5422367 l -0.08134,2.602736 c 0,0.1729735 -0.294977,0.4440919 -0.66424,0.5557925 L 18.318737,11.294614 c -0.770519,0.307991 -1.53941,-0.135559 -1.599599,-0.637128 L 16.567312,8.2987559 c 0.04935,-0.091638 0.08622,-0.2743718 0.582905,-0.4473453 z m -0.432163,2.8055324 c 0.04283,-0.139355 0.403424,-0.325341 0.731477,-0.41481 l 11.38697,-3.5982834 c 0.463612,-0.1675512 1.183161,0.039041 1.262327,0.620861 M 17.814457,10.797383 17.489114,36.716295 M 28.876084,7.3270678 29.454651,33.969325 M 2.5776056,40.22294 46.844723,30.079861 c 0.704908,-0.180022 1.243349,-0.07483 1.280763,0.111701 l 0.271119,3.632985 c 0.03361,0.267866 -0.179481,0.450599 -0.704908,0.542237 L 2.9197568,44.0289 c -0.6040516,0.131221 -1.106705,-0.03795 -1.1012826,-0.281421 l 0.1084473,-3.25342 C 1.9572865,40.320543 2.2473834,40.283128 2.5776056,40.22294 Z M 1.8184742,43.747479 C 1.8661913,43.581013 2.1373094,43.503473 2.3558308,43.4666 L 47.055654,33.775205 c 0.64255,-0.143694 1.338782,-0.214185 1.340409,0.04989 m -1.55134,-3.745229 c 0,0 0.02386,0.534957 0.211473,3.695344 M 2.3558308,43.466605 2.5141855,40.237044 m -0.6555641,3.43507 c -0.015725,0.105193 0.5303075,0.330221 1.0199472,0.22828 L 47.933014,34.16941 c 0.131221,-0.01843 0.470662,-0.273829 0.463612,-0.344863"
   sodipodi:nodetypes="cccccccccccccccccccccccccccccccccccccc" /><g
   id="g840"
   transform="matrix(0.05422367,0,0,0.05422367,-4.4399719,-6.4269641)"
   style="fill:#000000;fill-opacity:1;stroke-width:1.88660097;stroke-miterlimit:4;stroke-dasharray:none"><path
     style="fill:#000000;fill-opacity:1;stroke-width:2.51546788;stroke-miterlimit:4;stroke-dasharray:none"
     inkscape:connector-curvature="0"
     transform="scale(0.75)"
     d="m 162.13,1203.4 c -0.13472,0.076 -0.15487,0.246 -0.21792,0.3744 -0.0554,0.1486 -0.13352,0.2978 -0.10054,0.4614 0.0279,0.8764 0.39621,1.7121 0.91789,2.4055 0.62638,0.8186 1.4461,1.4684 2.3212,2.0033 1.5182,0.9219 3.2073,1.5268 4.9219,1.9666 2.4395,0.616 4.9557,0.8917 7.4681,0.9468 0.84695,-10e-4 1.6942,0 2.5409,-0.024 2.0742,-0.088 4.1427,-0.3076 6.1883,-0.663 1.2948,-0.2191 2.5745,-0.5168 3.8591,-0.7875 0.77808,-0.1696 1.5584,-0.3324 2.335,-0.5064 0.12875,-0.033 0.16083,-0.1781 0.14595,-0.294 -0.002,-0.6365 0.004,-1.2739 -0.003,-1.91 -0.005,-0.1406 -0.16487,-0.2213 -0.28952,-0.1722 -1.6893,0.3611 -3.3768,0.7372 -5.0672,1.0875 -1.6519,0.3259 -3.3228,0.4943 -5.0035,0.5578 -0.83353,0.018 -1.681,0.02 -2.5164,0 -2.168,-0.082 -4.3242,-0.3391 -6.4562,-0.7701 -2.0127,-0.4096 -3.9972,-0.9609 -5.9117,-1.7048 -1.2087,-0.4751 -2.3958,-1.0216 -3.4832,-1.727 -0.51749,-0.34 -1.0174,-0.7189 -1.4224,-1.1909 -0.0613,-0.06 -0.14641,-0.078 -0.22709,-0.049 z"
     id="path816" /><path
     style="fill:#000000;fill-opacity:1;stroke-width:2.51546788;stroke-miterlimit:4;stroke-dasharray:none"
     inkscape:connector-curvature="0"
     transform="scale(0.75)"
     d="m 226.57,1199.8 c -5.6235,1.2087 -11.245,2.4271 -16.868,3.64 -5.7438,1.2405 -11.488,2.4812 -17.231,3.7216 -0.12816,0.03 -0.17565,0.1685 -0.15744,0.287 0.006,0.6266 -0.005,1.2536 0.0138,1.8799 -0.004,0.144 0.14477,0.2632 0.28331,0.2143 8.2265,-1.7781 16.455,-3.5509 24.682,-5.3275 3.1211,-0.6736 6.2423,-1.347 9.3634,-2.0206 0.12766,-0.03 0.17522,-0.1675 0.1581,-0.2856 -0.002,-0.6401 0.0146,-1.2806 -0.005,-1.9205 -0.008,-0.1186 -0.1218,-0.2092 -0.23929,-0.1886 z"
     id="path818" /><path
     style="fill:#000000;fill-opacity:1;stroke-width:2.51546788;stroke-miterlimit:4;stroke-dasharray:none"
     inkscape:connector-curvature="0"
     transform="scale(0.75)"
     d="m 271.53,1190.1 c -14.917,3.2219 -29.834,6.4437 -44.751,9.6655 -0.16326,0.041 -0.16951,0.223 -0.15776,0.3605 0.003,0.616 -0.006,1.2334 0.005,1.8484 0.0115,0.1625 0.20009,0.2137 0.33251,0.1604 14.84,-3.1979 29.679,-6.4015 44.517,-9.6084 0.1377,-0.013 0.31244,-0.08 0.30212,-0.246 10e-4,-0.6677 0.003,-1.3369 -0.01,-2.0036 -0.009,-0.1165 -0.12535,-0.1965 -0.23761,-0.1768 z"
     id="path820" /><path
     style="fill:#000000;fill-opacity:1;stroke-width:2.51546788;stroke-miterlimit:4;stroke-dasharray:none"
     inkscape:connector-curvature="0"
     transform="scale(0.75)"
     d="m 339.12,1175.5 c -17.452,3.7664 -34.904,7.5364 -52.355,11.307 -0.17154,0.044 -0.16612,0.2369 -0.15726,0.3787 0.003,0.6153 -0.006,1.2321 0.005,1.8465 0.0116,0.1641 0.20257,0.2144 0.33454,0.1559 17.418,-3.7604 34.837,-7.5182 52.255,-11.278 0.16314,-0.041 0.16935,-0.223 0.15762,-0.3605 -0.003,-0.6236 0.006,-1.2487 -0.005,-1.8713 -0.009,-0.1162 -0.12236,-0.1959 -0.23465,-0.1784 z"
     id="path822" /><g
     style="fill:#000000;fill-opacity:1;stroke-width:1.88660097;stroke-miterlimit:4;stroke-dasharray:none"
     id="g830"><path
       inkscape:connector-curvature="0"
       transform="scale(0.75)"
       d="m 286.35,1186.9 c -4.8366,1.0489 -9.6758,2.093 -14.515,3.1347 -0.32158,0.5868 -0.15042,1.5362 -0.0822,2.2108 2.4333,-0.3364 4.8669,-1.0243 7.3001,-1.4932 2.504,-0.572 5.0582,-1.0281 7.5354,-1.6436 0.21465,-0.6478 0.26558,-1.477 0.0149,-2.1173 -0.0647,-0.068 -0.16109,-0.098 -0.25356,-0.091 z"
       id="path824"
       style="fill:#000000;fill-opacity:1;stroke-width:2.51546788;stroke-miterlimit:4;stroke-dasharray:none" /><path
       inkscape:connector-curvature="0"
       transform="scale(0.75)"
       d="m 553.51,1129.3 c -71.29,15.376 -142.58,30.754 -213.86,46.188 -0.64969,0.4503 -0.21362,1.4566 -0.35299,2.1068 0.54571,0.4412 1.5239,-0.2459 2.2276,-0.2368 70.925,-15.308 141.85,-30.617 212.78,-45.916 0.33404,-0.557 0.1247,-1.4119 0.0931,-2.0833 -0.10815,-0.3986 -0.62875,-0.049 -0.88532,-0.058 z"
       id="path826"
       style="fill:#000000;fill-opacity:1;stroke-width:2.51546788;stroke-miterlimit:4;stroke-dasharray:none" /><path
       inkscape:connector-curvature="0"
       transform="scale(0.75)"
       d="m 806.03,1074.7 c -83.828,18.093 -167.65,36.208 -251.48,54.313 -0.33185,0.5506 -0.19439,1.3953 -0.18652,2.0647 0.31674,0.6215 1.188,-0.1026 1.6994,-0.047 83.436,-18.048 166.89,-35.999 250.33,-54.058 0.65529,-0.4726 0.20766,-1.5001 0.35156,-2.1709 -0.0665,-0.3649 -0.49825,-0.104 -0.71544,-0.1026 z"
       id="path828"
       style="fill:#000000;fill-opacity:1;stroke-width:2.51546788;stroke-miterlimit:4;stroke-dasharray:none" /></g><path
     style="fill:#000000;fill-opacity:1;stroke-width:2.51546788;stroke-miterlimit:4;stroke-dasharray:none"
     inkscape:connector-curvature="0"
     transform="scale(0.75)"
     d="m 1300.6,966.49 c -1.4298,0.8988 -2.9143,1.7856 -4.5282,2.2807 -40.374,8.7759 -80.762,17.487 -121.14,26.222 -27.902,6.028 -55.804,12.06 -83.709,18.067 -0.2696,0.3317 -0.095,0.8438 -0.1563,1.2444 0.067,0.3824 -0.137,0.9059 0.1738,1.2051 0.475,0.06 0.9592,-0.208 1.437,-0.2525 63.604,-13.747 127.22,-27.463 190.83,-41.167 3.1351,-0.69253 6.2799,-1.3234 9.4125,-2.0179 2.6919,-0.67247 5.3962,-1.4715 7.8229,-2.8444 0.3586,-0.28467 0.1228,-0.83611 0.1917,-1.2297 -0.042,-0.49199 0.059,-1.0168 -0.088,-1.4856 -0.087,-0.0273 -0.1541,-0.085 -0.242,-0.0226 z"
     id="path832" /><path
     style="fill:#000000;fill-opacity:1;stroke-width:2.51546788;stroke-miterlimit:4;stroke-dasharray:none"
     inkscape:connector-curvature="0"
     transform="scale(0.75)"
     d="m 1029.6,1026.4 c -74.296,16.043 -148.59,32.098 -222.89,48.133 -0.3386,0.4179 -0.088,1.1129 -0.15154,1.6494 -0.061,0.4015 0.1883,0.9244 0.6775,0.6316 74.2,-15.96 148.38,-32.013 222.58004,-47.999 0.3425,-0.4235 0.079,-1.1273 0.156,-1.6684 -0.01,-0.2648 0.044,-0.7831 -0.3683,-0.7473 z"
     id="path834" /><path
     style="fill:#000000;fill-opacity:1;stroke-width:2.51546788;stroke-miterlimit:4;stroke-dasharray:none"
     inkscape:connector-curvature="0"
     transform="scale(0.75)"
     d="m 1090.9,1013.1 c -20.314,4.3878 -40.628,8.775 -60.941,13.163 -0.3433,0.4068 -0.076,1.0956 -0.1556,1.6191 0,0.318 -0.091,1.0052 0.4627,0.7758 20.248,-4.3582 40.491,-8.7367 60.726,-13.154 0.3813,-0.3409 0.1007,-0.9862 0.1736,-1.4428 -0.085,-0.2916 0.1662,-0.9127 -0.2656,-0.9616 z"
     id="path836" /><path
     style="fill:#000000;fill-opacity:1;stroke-width:2.51546788;stroke-miterlimit:4;stroke-dasharray:none"
     inkscape:connector-curvature="0"
     transform="scale(0.75)"
     d="m 1305.7,962.72 c -1.287,0.74049 -2.309,1.9223 -3.5621,2.7424 -0.6089,0.50661 -1.6985,0.78007 -1.3898,1.7865 0.091,0.54423 -0.1889,1.3081 0.2256,1.732 0.9742,-0.2603 1.6812,-1.1739 2.4683,-1.7767 1.1807,-1.1535 2.3322,-2.6155 2.5127,-4.3017 -0.027,-0.11266 -0.1395,-0.19324 -0.2547,-0.18251 z"
     id="path838" /></g></svg>