<?xml version="1.0" encoding="UTF-8" standalone="no"?>
<svg
   xmlns:dc="http://purl.org/dc/elements/1.1/"
   xmlns:cc="http://creativecommons.org/ns#"
   xmlns:rdf="http://www.w3.org/1999/02/22-rdf-syntax-ns#"
   xmlns:svg="http://www.w3.org/2000/svg"
   xmlns="http://www.w3.org/2000/svg"
   xmlns:sodipodi="http://sodipodi.sourceforge.net/DTD/sodipodi-0.dtd"
   xmlns:inkscape="http://www.inkscape.org/namespaces/inkscape"
   version="1.2"
   id="Layer_1"
   x="0px"
   y="0px"
   viewBox="0 0 50.3 50.3"
   xml:space="preserve"
   sodipodi:docname="icon.svg"
   inkscape:version="1.0.2 (e86c870879, 2021-01-15, custom)"><metadata
   id="metadata19"><rdf:RDF><cc:Work
       rdf:about=""><dc:format>image/svg+xml</dc:format><dc:type
         rdf:resource="http://purl.org/dc/dcmitype/StillImage" /></cc:Work></rdf:RDF></metadata><defs
   id="defs17" /><sodipodi:namedview
   pagecolor="#ffffff"
   bordercolor="#666666"
   borderopacity="1"
   objecttolerance="10"
   gridtolerance="10"
   guidetolerance="10"
   inkscape:pageopacity="0"
   inkscape:pageshadow="2"
   inkscape:window-width="1680"
   inkscape:window-height="987"
   id="namedview15"
   showgrid="false"
   inkscape:zoom="5.6568543"
   inkscape:cx="52.221674"
   inkscape:cy="35.488244"
   inkscape:window-x="-8"
   inkscape:window-y="-8"
   inkscape:window-maximized="1"
   inkscape:current-layer="Layer_1"
   inkscape:document-rotation="0" />






<path
   style="fill:none;stroke:#000000;stroke-width:0.577426;stroke-linecap:butt;stroke-linejoin:miter;stroke-miterlimit:4;stroke-dasharray:none;stroke-opacity:1"
   d="M 45.08347,23.129854 H 9.052599 L 8.7449228,9.8997887 H 44.799093"
   id="path848"
   sodipodi:nodetypes="cccc" /><path
   style="fill:none;stroke:#000000;stroke-width:0.577426;stroke-linecap:butt;stroke-linejoin:miter;stroke-miterlimit:4;stroke-dasharray:none;stroke-opacity:1"
   d="m 9.052599,23.129854 1.298499,3.761646 2.049074,-0.0068 m 10.871586,-0.03913 4.330966,-0.01365 m 10.420788,-0.03868 7.912196,-0.02775"
   id="path850"
   sodipodi:nodetypes="ccccccc" /><g
   id="g903"
   transform="matrix(5.0908813,-2.7249187,2.7249187,5.0908813,-95.426067,-79.651694)"><path
     style="fill:none;stroke:#000000;stroke-width:0.1;stroke-linecap:butt;stroke-linejoin:miter;stroke-miterlimit:4;stroke-dasharray:none;stroke-opacity:1"
     d="m 10.845288,26.180584 c -0.332889,-0.013 -0.907317,0.07195 -0.913677,0.405032 -0.0065,0.342563 0.580485,0.455118 0.923097,0.452128 0.303299,-0.0026 0.806666,-0.11116 0.810064,-0.414451 0.0035,-0.310454 -0.509247,-0.430597 -0.819484,-0.442709 z"
     id="path874"
     sodipodi:nodetypes="aaaaa" /><path
     style="fill:none;stroke:#000000;stroke-width:0.1;stroke-linecap:butt;stroke-linejoin:miter;stroke-miterlimit:4;stroke-dasharray:none;stroke-opacity:1"
     d="m 9.93163,26.595035 0.0094,1.930967 c -0.0065,0.342563 0.580485,0.455128 0.923097,0.452128 0.303299,-0.0026 0.806664,-0.11116 0.810064,-0.414451 v -1.959225"
     id="path876"
     sodipodi:nodetypes="cac" /></g><path
   style="fill:none;stroke:#000000;stroke-width:0.577426;stroke-linecap:butt;stroke-linejoin:miter;stroke-miterlimit:4;stroke-dasharray:none;stroke-opacity:1"
   d="m 13.766972,29.674666 c 3.226815,0.412006 5.566176,3.800071 4.731926,6.254844 -0.848172,2.495723 -3.453311,3.000699 -5.275823,2.556325 C 10.535231,37.830457 8.6487234,35.182959 9.0350513,32.88367 9.3508466,31.004212 10.8952,29.308011 13.766972,29.674666 Z"
   id="path878"
   sodipodi:nodetypes="sssas" /><path
   style="fill:none;stroke:#000000;stroke-width:0.577426;stroke-linecap:butt;stroke-linejoin:miter;stroke-miterlimit:4;stroke-dasharray:none;stroke-opacity:1"
   d="m 18.390122,36.310238 4.89509,-7.995325"
   id="path880" /><path
   style="fill:none;stroke:#000000;stroke-width:0.577426;stroke-linecap:butt;stroke-linejoin:miter;stroke-miterlimit:4;stroke-dasharray:none;stroke-opacity:1"
   d="M 9.5789537,31.360753 14.310879,24.344462"
   id="path882"
   sodipodi:nodetypes="cc" /><path
   style="fill:none;stroke:#000000;stroke-width:0.577426;stroke-linecap:butt;stroke-linejoin:miter;stroke-miterlimit:4;stroke-dasharray:none;stroke-opacity:1"
   d="m 19.346585,23.102759 c 4.952416,0.550117 3.82585,5.460276 3.82585,5.460276"
   id="path884"
   sodipodi:nodetypes="cc" /><path
   style="fill:none;stroke:#000000;stroke-width:0.577426;stroke-linecap:butt;stroke-linejoin:miter;stroke-miterlimit:4;stroke-dasharray:none;stroke-opacity:1"
   d="M 14.31789,25.62383 V 23.187808"
   id="path886" /><path
   style="fill:none;stroke:#000000;stroke-width:0.577426;stroke-linecap:butt;stroke-linejoin:miter;stroke-miterlimit:4;stroke-dasharray:none;stroke-opacity:1"
   d="M 17.047136,25.556162 V 23.12014"
   id="path888" /><path
   style="fill:none;stroke:#000000;stroke-width:0.577426;stroke-linecap:butt;stroke-linejoin:miter;stroke-miterlimit:4;stroke-dasharray:none;stroke-opacity:1"
   d="m 17.137359,25.308026 c 0,0 -0.530541,0.554558 -1.488678,0.563913 -0.869161,0.0086 -1.421014,-0.541336 -1.421014,-0.541336"
   id="path890"
   sodipodi:nodetypes="csc" /><path
   style="fill:none;stroke:#000000;stroke-width:0.577426;stroke-linecap:butt;stroke-linejoin:miter;stroke-miterlimit:4;stroke-dasharray:none;stroke-opacity:1"
   d="m 40.079466,23.174499 2.264804,3.572647"
   id="path905" /><path
   style="fill:#000000;fill-opacity:1;stroke:none;stroke-width:0.577426;stroke-linecap:butt;stroke-linejoin:miter;stroke-miterlimit:4;stroke-dasharray:none;stroke-opacity:1"
   d="m 40.079466,23.174499 2.264804,3.572647 -4.320758,0.04564 c -0.293431,-0.511542 -0.981345,-2.612554 -2.157956,-3.644497 z"
   id="path925"
   sodipodi:nodetypes="ccccc" /><path
   style="fill:#010000;fill-opacity:1;stroke:none;stroke-width:0.577426;stroke-linecap:butt;stroke-linejoin:miter;stroke-miterlimit:4;stroke-dasharray:none;stroke-opacity:1"
   d="m 33.596312,23.120595 -13.96326,0.02775 c 0,0 1.447773,0.18282 2.443575,1.057204 0.990254,0.869538 1.195131,2.639786 1.195131,2.639786 l 4.330966,-0.01365 c 0,0 1.018328,-1.292318 2.500706,-2.208785 1.351342,-0.835458 3.492877,-1.502064 3.492882,-1.502064 z"
   id="path927"
   sodipodi:nodetypes="ccsccsc" /><path
   style="fill:#010000;fill-opacity:1;stroke:none;stroke-width:0.577426;stroke-linecap:butt;stroke-linejoin:miter;stroke-miterlimit:4;stroke-dasharray:none;stroke-opacity:1"
   d="m 14.31789,23.187808 -5.265291,-0.05797 1.298499,3.761645 2.049074,-0.0068 1.910707,-2.540108 0.007,-1.156654"
   id="path929"
   sodipodi:nodetypes="cccccc" /><path
   style="fill:none;stroke:#000000;stroke-width:0.477489;stroke-linecap:butt;stroke-linejoin:miter;stroke-miterlimit:4;stroke-dasharray:none;stroke-opacity:1"
   d="m 13.777351,30.445455 c 2.668342,0.340661 4.602824,3.142382 3.91296,5.172301 -0.701376,2.063784 -2.855638,2.481363 -4.362723,2.113893 -2.222652,-0.541918 -3.7826576,-2.731232 -3.4631924,-4.63258 0.2611414,-1.554177 1.5382074,-2.956814 3.9129554,-2.653614 z"
   id="path938"
   sodipodi:nodetypes="sssas" /></svg>
