<?xml version="1.0" encoding="UTF-8" standalone="no"?>
<svg
   xmlns:dc="http://purl.org/dc/elements/1.1/"
   xmlns:cc="http://creativecommons.org/ns#"
   xmlns:rdf="http://www.w3.org/1999/02/22-rdf-syntax-ns#"
   xmlns:svg="http://www.w3.org/2000/svg"
   xmlns="http://www.w3.org/2000/svg"
   xmlns:sodipodi="http://sodipodi.sourceforge.net/DTD/sodipodi-0.dtd"
   xmlns:inkscape="http://www.inkscape.org/namespaces/inkscape"
   inkscape:version="1.0 (4035a4fb49, 2020-05-01)"
   sodipodi:docname="icon.svg"
   id="svg4"
   viewBox="0 0 984 984"
   version="1.1"
   height="13.667in"
   width="13.667in">
  <metadata
     id="metadata10">
    <rdf:RDF>
      <cc:Work
         rdf:about="">
        <dc:format>image/svg+xml</dc:format>
        <dc:type
           rdf:resource="http://purl.org/dc/dcmitype/StillImage" />
      </cc:Work>
    </rdf:RDF>
  </metadata>
  <defs
     id="defs8" />
  <sodipodi:namedview
     inkscape:current-layer="svg4"
     inkscape:window-maximized="1"
     inkscape:window-y="-8"
     inkscape:window-x="-8"
     inkscape:cy="656.01599"
     inkscape:cx="656.01599"
     inkscape:zoom="0.62498476"
     showgrid="false"
     id="namedview6"
     inkscape:window-height="987"
     inkscape:window-width="1680"
     inkscape:pageshadow="2"
     inkscape:pageopacity="0"
     guidetolerance="10"
     gridtolerance="10"
     objecttolerance="10"
     borderopacity="1"
     bordercolor="#666666"
     pagecolor="#ffffff" />
  <path
     style="stroke-width:4.49989031;stroke-miterlimit:4;stroke-dasharray:none"
     id="path2"
     stroke="#000"
     fill="none"
     d="m456 328.21c-5.29 0.96-9.71 0.78-15 0.79l-13 0.96-52 4.2c-71.21 7.63-147.98 18.042-209 56.59-34.647 21.888-78.676 52.408-79.986 93.369-1.3476 42.141 41.726 83.711 75.986 101.12 62.14 31.59 130.98 48.66 200 56.91l65 5.89 19 0.96 17 1h48l17-1 34-1.91c50.35-3.46 103.3-11.13 152-24.67 26.9-7.48 57.03-16.72 82-29.17 41.82-20.86 96.62-52.8 96-106.25-0.2-16.54-7.62-32.02-17.37-45-18.92-25.18-46.98-41.42-74.63-55.25-46.48-23.24-104.81-37.57-156-46.16-32.07-5.38-64.55-9.22-97-10.63l-11-1h-13l-11-0.75zm0 52c-5.37 0.98-54 3.96-54 3.96-47.87 4.78-116.16 18.22-159 39.58-24.98 12.46-55.42 29.32-65.3 57.25-13.37 37.78 23.47 68.08 53.3 83.24 54.87 27.89 115.19 39.85 176 45.93l40 2.83 15 1c85.83 1 173.61-6.54 254-38.8 29.7-11.92 73.13-36.76 78.56-71.2 6.28-39.83-37.63-65.32-67.56-80.25-26.38-13.15-62.08-22.81-91-28.96-33.79-7.18-80.62-13.39-115-13.79l-15-0.79zm-368.99 103.91c-0.39999-101.08 0 11.353-0.39999-100.68 24.736-24.532 68.908-52.386 84.386-59.691 65.272-30.803 144.91-47.269 209-56.59s111.45-9.7046 172-4.2c32.45 1.41 64.93 5.2491 97 10.63 51.19 8.5891 110.09 22.347 156.57 45.587 13.825 6.915 30.804 17.796 46.693 30.097 3.972 3.075 7.8759 6.2388 11.645 9.4514 3.7693 3.2126 7.4041 6.474 10.838 9.7446 3.4339 3.2705 5.8615 6.8344 19.381 22.414-0.55674 98.41-1.1298 90.711-1.1302 96.117" />
</svg>
