<?xml version="1.0" encoding="UTF-8"?>
<svg width="14.833in" height="14.833in" version="1.1" viewBox="0 0 1068 1068" xmlns="http://www.w3.org/2000/svg">
 <path id="Unnamed" d="m403.75 241 207-69c13.87-4.25 32.87 1.25 33.25 10l-1.5 48c0 3.19-5.44 8.19-12.25 10.25l-204.95 64.25c-14.21 5.68-28.39-2.5-29.5-11.75l-2.8-43.5c0.91-1.69 1.59-5.06 10.75-8.25zm-7.97 51.74c0.79-2.57 7.44-6 13.49-7.65l210-66.36c8.55-3.09 21.82 0.72 23.28 11.45m-226.55 65.15-6 478m210-542 10.67 491.34m-495.67 115.33 816.38-187.06c13-3.32 22.93-1.38 23.62 2.06l5 67c0.62 4.94-3.31 8.31-13 10l-825.69 178.19c-11.14 2.42-20.41-0.7-20.31-5.19l2-60c0.56-3.2 5.91-3.89 12-5zm-14 65c0.88-3.07 5.88-4.5 9.91-5.18l824.36-178.73c11.85-2.65 24.69-3.95 24.72 0.92m-28.61-69.07s3.72 68.15 3.9 68.15m-824.37 178.73 2.9204-59.56m-12.09 63.35c-0.29 1.94 9.78 6.09 18.81 4.21l830.9-179.46c2.42-0.34 8.68-5.05 8.55-6.36" fill="none" stroke="#000"/>
 <g>
  <path transform="scale(.75)" d="m162.13 1203.4c-0.13472 0.076-0.15487 0.246-0.21792 0.3744-0.0554 0.1486-0.13352 0.2978-0.10054 0.4614 0.0279 0.8764 0.39621 1.7121 0.91789 2.4055 0.62638 0.8186 1.4461 1.4684 2.3212 2.0033 1.5182 0.9219 3.2073 1.5268 4.9219 1.9666 2.4395 0.616 4.9557 0.8917 7.4681 0.9468 0.84695-1e-3 1.6942 0 2.5409-0.024 2.0742-0.088 4.1427-0.3076 6.1883-0.663 1.2948-0.2191 2.5745-0.5168 3.8591-0.7875 0.77808-0.1696 1.5584-0.3324 2.335-0.5064 0.12875-0.033 0.16083-0.1781 0.14595-0.294-2e-3 -0.6365 4e-3 -1.2739-3e-3 -1.91-5e-3 -0.1406-0.16487-0.2213-0.28952-0.1722-1.6893 0.3611-3.3768 0.7372-5.0672 1.0875-1.6519 0.3259-3.3228 0.4943-5.0035 0.5578-0.83353 0.018-1.681 0.02-2.5164 0-2.168-0.082-4.3242-0.3391-6.4562-0.7701-2.0127-0.4096-3.9972-0.9609-5.9117-1.7048-1.2087-0.4751-2.3958-1.0216-3.4832-1.727-0.51749-0.34-1.0174-0.7189-1.4224-1.1909-0.0613-0.06-0.14641-0.078-0.22709-0.049z" stroke-width=".012966"/>
  <path transform="scale(.75)" d="m226.57 1199.8c-5.6235 1.2087-11.245 2.4271-16.868 3.64-5.7438 1.2405-11.488 2.4812-17.231 3.7216-0.12816 0.03-0.17565 0.1685-0.15744 0.287 6e-3 0.6266-5e-3 1.2536 0.0138 1.8799-4e-3 0.144 0.14477 0.2632 0.28331 0.2143 8.2265-1.7781 16.455-3.5509 24.682-5.3275 3.1211-0.6736 6.2423-1.347 9.3634-2.0206 0.12766-0.03 0.17522-0.1675 0.1581-0.2856-2e-3 -0.6401 0.0146-1.2806-5e-3 -1.9205-8e-3 -0.1186-0.1218-0.2092-0.23929-0.1886z" stroke-width=".012966"/>
  <path transform="scale(.75)" d="m271.53 1190.1c-14.917 3.2219-29.834 6.4437-44.751 9.6655-0.16326 0.041-0.16951 0.223-0.15776 0.3605 3e-3 0.616-6e-3 1.2334 5e-3 1.8484 0.0115 0.1625 0.20009 0.2137 0.33251 0.1604 14.84-3.1979 29.679-6.4015 44.517-9.6084 0.1377-0.013 0.31244-0.08 0.30212-0.246 1e-3 -0.6677 3e-3 -1.3369-0.01-2.0036-9e-3 -0.1165-0.12535-0.1965-0.23761-0.1768z" stroke-width=".018337"/>
  <path transform="scale(.75)" d="m339.12 1175.5c-17.452 3.7664-34.904 7.5364-52.355 11.307-0.17154 0.044-0.16612 0.2369-0.15726 0.3787 3e-3 0.6153-6e-3 1.2321 5e-3 1.8465 0.0116 0.1641 0.20257 0.2144 0.33454 0.1559 17.418-3.7604 34.837-7.5182 52.255-11.278 0.16314-0.041 0.16935-0.223 0.15762-0.3605-3e-3 -0.6236 6e-3 -1.2487-5e-3 -1.8713-9e-3 -0.1162-0.12236-0.1959-0.23465-0.1784z" stroke-width=".018337"/>
  <g stroke-width=".1467">
   <path transform="scale(.75)" d="m286.35 1186.9c-4.8366 1.0489-9.6758 2.093-14.515 3.1347-0.32158 0.5868-0.15042 1.5362-0.0822 2.2108 2.4333-0.3364 4.8669-1.0243 7.3001-1.4932 2.504-0.572 5.0582-1.0281 7.5354-1.6436 0.21465-0.6478 0.26558-1.477 0.0149-2.1173-0.0647-0.068-0.16109-0.098-0.25356-0.091z"/>
   <path transform="scale(.75)" d="m553.51 1129.3c-71.29 15.376-142.58 30.754-213.86 46.188-0.64969 0.4503-0.21362 1.4566-0.35299 2.1068 0.54571 0.4412 1.5239-0.2459 2.2276-0.2368 70.925-15.308 141.85-30.617 212.78-45.916 0.33404-0.557 0.1247-1.4119 0.0931-2.0833-0.10815-0.3986-0.62875-0.049-0.88532-0.058z"/>
   <path transform="scale(.75)" d="m806.03 1074.7c-83.828 18.093-167.65 36.208-251.48 54.313-0.33185 0.5506-0.19439 1.3953-0.18652 2.0647 0.31674 0.6215 1.188-0.1026 1.6994-0.047 83.436-18.048 166.89-35.999 250.33-54.058 0.65529-0.4726 0.20766-1.5001 0.35156-2.1709-0.0665-0.3649-0.49825-0.104-0.71544-0.1026z"/>
  </g>
  <path transform="scale(.75)" d="m1300.6 966.49c-1.4298 0.8988-2.9143 1.7856-4.5282 2.2807-40.374 8.7759-80.762 17.487-121.14 26.222-27.902 6.028-55.804 12.06-83.709 18.067-0.2696 0.3317-0.095 0.8438-0.1563 1.2444 0.067 0.3824-0.137 0.9059 0.1738 1.2051 0.475 0.06 0.9592-0.208 1.437-0.2525 63.604-13.747 127.22-27.463 190.83-41.167 3.1351-0.69253 6.2799-1.3234 9.4125-2.0179 2.6919-0.67247 5.3962-1.4715 7.8229-2.8444 0.3586-0.28467 0.1228-0.83611 0.1917-1.2297-0.042-0.49199 0.059-1.0168-0.088-1.4856-0.087-0.0273-0.1541-0.085-0.242-0.0226z" stroke-width=".073348"/>
  <path transform="scale(.75)" d="m1029.6 1026.4c-74.296 16.043-148.59 32.098-222.89 48.133-0.3386 0.4179-0.088 1.1129-0.15154 1.6494-0.061 0.4015 0.1883 0.9244 0.6775 0.6316 74.2-15.96 148.38-32.013 222.58-47.999 0.3425-0.4235 0.079-1.1273 0.156-1.6684-0.01-0.2648 0.044-0.7831-0.3683-0.7473z" stroke-width=".10373"/>
  <path transform="scale(.75)" d="m1090.9 1013.1c-20.314 4.3878-40.628 8.775-60.941 13.163-0.3433 0.4068-0.076 1.0956-0.1556 1.6191 0 0.318-0.091 1.0052 0.4627 0.7758 20.248-4.3582 40.491-8.7367 60.726-13.154 0.3813-0.3409 0.1007-0.9862 0.1736-1.4428-0.085-0.2916 0.1662-0.9127-0.2656-0.9616z" stroke-width=".10373"/>
  <path transform="scale(.75)" d="m1305.7 962.72c-1.287 0.74049-2.309 1.9223-3.5621 2.7424-0.6089 0.50661-1.6985 0.78007-1.3898 1.7865 0.091 0.54423-0.1889 1.3081 0.2256 1.732 0.9742-0.2603 1.6812-1.1739 2.4683-1.7767 1.1807-1.1535 2.3322-2.6155 2.5127-4.3017-0.027-0.11266-0.1395-0.19324-0.2547-0.18251z" stroke-width=".1467"/>
 </g>
</svg>
