<?xml version="1.0" encoding="utf-8"?>
<!-- Generator: Adobe Illustrator 23.0.6, SVG Export Plug-In . SVG Version: 6.00 Build 0)  -->
<svg version="1.1"
	 id="Layer_1" xmlns:cc="http://creativecommons.org/ns#" xmlns:dc="http://purl.org/dc/elements/1.1/" xmlns:rdf="http://www.w3.org/1999/02/22-rdf-syntax-ns#" xmlns:svg="http://www.w3.org/2000/svg"
	 xmlns="http://www.w3.org/2000/svg" xmlns:xlink="http://www.w3.org/1999/xlink" x="0px" y="0px" viewBox="0 0 50.5 50.5"
	 style="enable-background:new 0 0 50.5 50.5;" xml:space="preserve">
<style type="text/css">
	.st0{fill:#FFFFFF;stroke:#000000;stroke-width:0.5;stroke-miterlimit:10;}
	.st1{stroke:#000000;stroke-width:0.5;stroke-miterlimit:10;}
</style>
<g>
	<path class="st0" d="M36.1,44.7c0-8.2,0-16.4,0-24.6c-0.6,0-1.2,0-1.7,0c-0.2,0-0.5-0.2-0.5-0.3c0-1,0-2,0-3.1c0.8,0,1.5,0,2.2,0
		c0-0.5,0-0.9,0-1.4c-0.7,0-1.4,0-2.2,0c0-1.1,0-2.2,0-3.3c0.8,0,1.5,0,2.2,0c0-0.5,0-1,0-1.5c-0.8,0-1.5,0-2.2,0c0-1.1,0-2,0-3.1
		c0.6,0,1.1,0,1.7,0c0.5,0,0.6-0.2,0.6-0.6c0-0.3,0-0.6-0.1-0.9c-7.3,0-14.6,0-21.9,0c0,0.5,0,0.9,0,1.5c0.6,0,1.2,0,1.8,0
		c0.2,0,0.5,0.2,0.5,0.4c0.1,0.9,0,1.7,0,2.7c-0.9,0-1.6,0-2.3,0c0,0.5,0,1,0,1.4c0.8,0.1,1.9,0,2.2,0.4c0.4,0.5,0.1,1.5,0.1,2.3
		c0,0.5-0.2,0.7-0.7,0.7c-0.5,0-1.1,0-1.6,0c0,0.5,0,0.9,0,1.4c0.6,0,1.1,0,1.6,0c0.5,0,0.7,0.1,0.7,0.6c0,0.7,0,1.4,0,2.1
		c0,0.5-0.2,0.7-0.7,0.7c-0.5,0-1.1,0-1.6,0c0,8.2,0,16.4,0,24.6C21.6,44.7,28.9,44.7,36.1,44.7z"/>
	<path class="st1" d="M36.1,44.7c-7.3,0-14.5,0-21.9,0c0-8.2,0-16.3,0-24.6c0.5,0,1.1,0,1.6,0c0.5,0,0.7-0.2,0.7-0.7
		c0-0.7,0-1.4,0-2.1c0-0.5-0.2-0.7-0.7-0.6c-0.5,0-1.1,0-1.6,0c0-0.5,0-0.9,0-1.4c0.5,0,1.1,0,1.6,0c0.5,0,0.7-0.2,0.7-0.7
		c0-0.8,0.2-1.8-0.1-2.3c-0.3-0.4-1.4-0.3-2.2-0.4c0-0.4,0-0.8,0-1.4c0.7,0,1.5,0,2.3,0c0-1,0-1.8,0-2.7c0-0.1-0.3-0.4-0.5-0.4
		c-0.6-0.1-1.2,0-1.8,0c0-0.5,0-1,0-1.5c7.3,0,14.5,0,21.9,0c0,0.3,0,0.6,0.1,0.9c0,0.4-0.1,0.6-0.6,0.6c-0.5,0-1.1,0-1.7,0
		c0,1,0,2,0,3.1c0.7,0,1.4,0,2.2,0c0,0.5,0,1,0,1.5c-0.7,0-1.4,0-2.2,0c0,1.1,0,2.2,0,3.3c0.7,0,1.5,0,2.2,0c0,0.5,0,0.9,0,1.4
		c-0.7,0-1.4,0-2.2,0c0,1.1,0,2.1,0,3.1c0,0.1,0.3,0.3,0.5,0.3c0.5,0,1.1,0,1.7,0C36.1,28.3,36.1,36.5,36.1,44.7z M36,44.6
		c0-7.7,0-15.4,0-23c-7.2,0-14.4,0-21.6,0c0,7.7,0,15.3,0,23C21.6,44.6,28.8,44.6,36,44.6z M33.7,20c0-1.1,0-2.2,0-3.2
		c-5.7,0-11.3,0-16.9,0c0,1.1,0,2.1,0,3.2C22.4,20,28.1,20,33.7,20z M33.8,12c-5.7,0-11.3,0-17,0c0,1.1,0,2.1,0,3.2c0.4,0,0.7,0,1,0
		c4.7,0,9.4,0,14.1,0c0.5,0,0.9,0,1.4,0c0.2,0,0.5-0.3,0.5-0.4C33.8,13.9,33.8,13,33.8,12z M33.8,10.4c0-0.8,0-1.5,0-2.2
		c0-0.7-0.2-0.9-0.8-0.9c-5.1,0-10.3,0-15.4,0c-0.2,0-0.5,0-0.7,0c0,1,0,2,0,3C22.5,10.4,28.1,10.4,33.8,10.4z M36,10.7
		c-7.2,0-14.4,0-21.6,0c0,0.4,0,0.7,0,1.1c7.2,0,14.4,0,21.6,0C36,11.4,36,11.1,36,10.7z M36,6.2c-7.3,0-14.4,0-21.6,0
		c0,0.4,0,0.7,0,1c7.2,0,14.4,0,21.6,0C36,6.8,36,6.5,36,6.2z M14.4,16.5c7.2,0,14.4,0,21.6,0c0-0.4,0-0.7,0-1c-7.2,0-14.4,0-21.6,0
		C14.4,15.8,14.4,16.1,14.4,16.5z M36,20.2c-7.3,0-14.4,0-21.6,0c0,0.4,0,0.7,0,1c7.2,0,14.4,0,21.6,0C36,20.9,36,20.6,36,20.2z"/>
	<path class="st0" d="M36,44.6c-7.2,0-14.4,0-21.6,0c0-7.7,0-15.3,0-23c7.2,0,14.3,0,21.6,0C36,29.2,36,36.9,36,44.6z"/>
	<path class="st0" d="M33.7,20c-5.7,0-11.3,0-16.9,0c0-1.1,0-2.1,0-3.2c5.6,0,11.2,0,16.9,0C33.7,17.8,33.7,18.8,33.7,20z"/>
	<path class="st0" d="M33.8,12c0,1,0,1.9,0,2.8c0,0.2-0.3,0.4-0.5,0.4c-0.4,0.1-0.9,0-1.4,0c-4.7,0-9.4,0-14.1,0c-0.3,0-0.6,0-1,0
		c0-1.1,0-2.1,0-3.2C22.4,12,28.1,12,33.8,12z"/>
	<path class="st0" d="M33.8,10.4c-5.7,0-11.3,0-17,0c0-1,0-2,0-3c0.3,0,0.5,0,0.7,0c5.1,0,10.3,0,15.4,0c0.7,0,0.9,0.2,0.8,0.9
		C33.8,8.9,33.8,9.6,33.8,10.4z"/>
	<path class="st0" d="M36,10.7c0,0.4,0,0.7,0,1.1c-7.2,0-14.4,0-21.6,0c0-0.4,0-0.7,0-1.1C21.6,10.7,28.8,10.7,36,10.7z"/>
	<path class="st0" d="M36,6.2c0,0.3,0,0.7,0,1c-7.2,0-14.3,0-21.6,0c0-0.3,0-0.6,0-1C21.6,6.2,28.8,6.2,36,6.2z"/>
	<path class="st0" d="M14.4,16.5c0-0.3,0-0.7,0-1c7.2,0,14.4,0,21.6,0c0,0.3,0,0.7,0,1C28.8,16.5,21.7,16.5,14.4,16.5z"/>
	<path class="st0" d="M36,20.2c0,0.3,0,0.7,0,1c-7.2,0-14.3,0-21.6,0c0-0.3,0-0.6,0-1C21.6,20.2,28.8,20.2,36,20.2z"/>
</g>
</svg>
