<svg height="960" viewBox="0 0 960 960" width="960" xmlns="http://www.w3.org/2000/svg"><g fill="none" fill-rule="evenodd"><path d="m620.819798 162.63527-.166354 171.315686v.012736c-3.902913 21.970081-67.322051 40.781565-145.380312 42.539171-80.911866 1.821288-146.92868-15.359952-147.453334-38.374408v-169.265144c.332707 14.44294 66.183168 24.682908 147.107831 22.86162 80.220858-1.808552 145.111586-14.774083 145.892169-29.089661" fill="#000"/><path d="m608.819798 270.63527c-3.585256 20.59458-61.842729 38.228317-133.54785 39.875883-74.326473 1.707261-134.970198-14.398298-135.45215-35.971867" stroke="#000" stroke-width="1.163"/><path d="m608.967053 262.63527c.022.666667-.058 1.333334-.298 2" stroke="#000" stroke-width="1.163"/><g fill="#000"><path d="m473.97442 43.7784032-2.923259.051796-2.91302.0595368-2.902016.0672168-2.890301.0748369-2.877874.082397-2.864735.0898971c-.476321.0156046-.952065.0315191-1.427217.0477425l-2.843691.101035-2.828772.1083853-2.813142.1156756-2.796798.1229061-2.779744.1300765-2.761978.137187-2.743499.1442376-2.724308.1512281-2.704407.1581589-2.683792.1650295-2.662466.1718403-2.640428.1785911c-.438195.0303244-.875443.0609276-1.311727.0918083l-2.606037.1886049-2.582218.1952059-2.557689.2017468-2.532447.2082278-2.506494.214649-2.479829.2210101-2.452451.2273113-2.424362.2335525-2.395561.2397338-2.366048.2458552-2.335823.2519165-2.304886.257918c-.38153.0434831-.761741.0872138-1.140619.1311908l-2.257146.2668078-2.22443.2726593c-.735944.0918551-1.466318.1846754-2.191001.278451l-2.156861.2841827-2.122008.2898543c-.350724.0487784-.699966.0977906-1.047712.1470354l-2.068395.2982496-.922162.1365016-1.820092.2760929-1.787613.2802238-1.754927.2843679-1.722034.2885254-1.688933.2926964-1.655627.2968806-1.622112.3010784-1.588393.3052894-1.554465.3095139c-.256238.0519385-.511055.1040535-.764445.1563453l-1.503186.3158757-1.468742.3201336-1.43409.3244049c-1.18058.2721208-2.324849.5487049-3.432269.829787l-1.311183.3394599c-.215571.0569372-.429659.1140549-.64226.1713534l-1.257732.3459622-1.22184.3503137c-1.003187.2937451-1.968771.5920369-2.896213.8949106-4.980536 1.6264876-9.115224 3.4445192-12.617733 5.7714034-2.674672 1.7769127-5.02252 3.8670697-6.992847 6.5265843-2.795359 3.7731285-4.507523 8.3229555-4.569516 13.3337433l-.000815 757.1304041-.136251.599956c-.702689 3.206555-1.024072 6.467717-.927106 9.765111.415029 13.244759 7.069381 24.922981 18.134921 34.504028 9.023244 7.812733 21.128129 14.370046 35.704681 19.658405 27.888611 10.117961 64.459068 15.42447 103.048697 14.793128 38.603305-.631666 74.838029-7.134922 102.122723-18.176475 14.306055-5.789366 26.068049-12.781867 34.678041-20.960141l.457819-.438874c10.159853-9.829642 15.97149-21.539661 15.747022-34.425651l-.004547-.152487.896047-633.861144.153206-114.6798123.024258-13.0662544.014103-1.3575371.00586-1.1814565-.003856-1.3689391-.007384-.6195216-.011649-.566061c-.002328-.0905445-.004858-.1793536-.007601-.2666732-.169358-5.3491021-2.172654-10.0661998-5.309995-13.8727613-2.063172-2.5032633-4.462115-4.4505588-7.167011-6.089999-3.577208-2.1681496-7.772237-3.829093-12.800957-5.2767073-1.507635-.4340018-3.112459-.853274-4.812205-1.258005l-1.292573-.3008247c-.436766-.0993681-.87943-.1978302-1.327956-.2953894l-1.363127-.2899717c-.460214-.0957562-.926254-.1906124-1.398085-.2845716l-1.432832-.2791892c-.241689-.046084-.484817-.0919445-.729379-.1375818l-1.484553-.2711487c-.250283-.0447461-.501991-.0892698-.75512-.1335714l-1.535795-.2631479-1.569692-.2578361c-.264428-.042531-.53026-.0848415-.79749-.1269317l-1.620138-.2499014-1.653502-.2446338-1.686655-.2393837-1.719596-.2341514-1.752322-.2289365-1.784838-.2237395-1.817141-.21856-1.849231-.2133981-1.03765-.115935-2.102135-.2268188-2.13732-.2200537c-.359112-.0361098-.719661-.0719362-1.081631-.1074784l-2.188755-.2098371c-.367595-.0344024-.736582-.0685192-1.106946-.1023495l-2.238581-.1995381-2.270905-.1926263-2.302512-.1856778-2.333406-.1786927-2.363582-.1716708-2.393045-.1646125-2.421791-.1575173-2.449824-.1503856-2.477139-.1432171-2.50374-.1360121-2.529626-.1287704-2.554797-.121492-2.579252-.114177-2.602991-.1068253c-.435771-.0171895-.8725-.0340712-1.310175-.0506443l-2.63726-.095729-2.659212-.0882858-2.680448-.0808057-2.700969-.0732891-2.720775-.0657358-2.739866-.0581459-2.758241-.0505192-2.7759-.042856-2.792846-.0351562-2.809075-.0274195-2.824589-.0196463-2.839388-.0158264h-2.853471-2.86684l-2.879493.0157064-2.89143.0197696-2.902653.0277627-2.91316.0357926zm-115.152956 805.6822938-.003276-.045973c0 .016511 0 .022992.004858.01899l.258398-.830975c.543003-1.838473.819126-3.746365.819126-5.665161l-.00057-748.416578.668846-.1764075 1.026605-.2623851 1.070574-.2622666 1.113951-.2619747 1.156739-.2615091c.196322-.0435364.394403-.0870462.59423-.1305258l1.219811-.2604853 1.261122-.2595858 1.301841-.2585127c.220334-.0429864.44234-.0859208.666006-.1287997l1.361812-.2565776 1.401055-.2550706 1.439707-.25339 1.477768-.2515358 1.515238-.249508 1.552118-.2473067 1.588407-.2449317 1.624105-.2423832 1.872608-.2700283 1.90739-.2653243 1.941503-.2605589 1.974946-.2557324 2.007719-.2508443 2.039825-.245895 2.07126-.2408842 2.102026-.2358123c.352865-.0388759.706983-.077538 1.062342-.1159849l2.146921-.2280891 2.176014-.2228637 2.204439-.2175769 3.358488-.3163184 2.272571-.2040916 2.298653-.19859 2.324065-.1930272 2.348808-.187403 2.372882-.1817175 2.396288-.1759705 2.419023-.1701623 2.441089-.1642927 2.462487-.1583617 2.483214-.1523694 2.503274-.1463158 2.522663-.1402008 2.541383-.1340244 2.559434-.1277867 3.871534-.1798502 2.601634-.1119241 2.617343-.1054716 2.632383-.0989579 2.646753-.0923827 2.660454-.0857462c.444514-.0137346.889571-.0271901 1.335156-.0403653l4.02418-.1109724 2.697542-.0654687 2.708567-.0585869 2.718921-.0516436 2.743924-.0448718 2.75439-.0377224 2.744225-.0302584 2.733362-.0228354c.454617-.0031896.908751-.0060716 1.362389-.0086468l4.06895-.0149184h4.039791l2.67583.0115698 2.661123.0172604 2.645718.0244178 2.629614.0315342 2.612812.0386097 2.59531.0456444 2.577111.0526381 2.558211.059591 2.538614.066503 2.518318.0733741 2.497323.0802043c.414432.0139343.82796.0281515 1.240569.0426507l2.464521.090373 2.441778.097101 2.418338.1037882 2.394199.1104344 2.36936.1170397 2.343824.1236043 2.317589.1301278c.38404.0222294.766957.0447288 1.148738.0674975l2.276925.1398366 2.248943.146258 2.220262.1526385 2.190883.1589781 2.160804.1652769 2.130027.1715347 2.098551.1777517 2.066377.1839278 2.033503.190063c.336139.0321862.670879.0646263 1.004206.0973195l1.982883.1991891 1.948263.2052222c.321787.0347042.642102.069658.960931.1048607l2.510033.2859713 1.617509.1941842 1.580953.1978215 1.543789.2013045 1.506021.2046332 1.467647.2078075 1.428666.2108274c.234829.035381.468009.0708814.699526.106498l1.36906.2150678 1.328565.217702 1.287464.2201816 1.245758.2225069 1.203445.2246778 1.160527.2266945c.189811.0379419.377808.0759613.56398.1140552l1.095013.2294299c.178817.0383785.355782.076825.530883.1153361l.962955.2164854-.010696 6.1024283-.153257 114.7509557-.895751 634.025702c-.000309.218331.002958.436653.009799.654878l-.003278.054435-.017769.090937c-.043873.188675-.13793.4465-.306482.78494-.573839 1.152228-1.692535 2.605716-3.430681 4.256709-4.564982 4.336087-12.134239 8.836007-22.135302 12.883231-8.910062 3.605719-19.246886 6.669436-30.60192 9.08686l-1.956475.408065c-3.277162.669492-6.635537 1.285738-10.065596 1.846308l-2.066562.32964-2.083308.316162c-12.549177 1.856296-25.977984 2.978401-39.841842 3.252826l-1.156319.020904c-17.962981.293882-35.311791-.856651-51.074219-3.239873l-2.046892-.317828c-13.245285-2.111098-25.319879-5.101647-35.631294-8.842619-10.319576-3.743932-18.24342-8.036341-23.163558-12.29642-1.912504-1.655932-3.186704-3.148703-3.88141-4.367896-.326696-.573342-.432255-.884528-.451724-1.064648z" fill-rule="nonzero"/><path d="m477.368909 45.8007134c-4.053293.0992857-8.078687.2423812-12.067569.4279351l-2.65375.1299779c-.441359.0227064-.882243.0459333-1.322642.0696788l-2.636459.1486814c-.438406.0258125-.876302.0521399-1.313677.0789804l-2.617892.1671847c-1.305722.0866559-2.606536.1778958-3.902124.2736698l-2.584111.1975786c-.858985.0678647-1.715552.1377298-2.569607.2095803l-2.554535.2214932c-2.546809.22742-5.07016.4725756-7.567501.7350666l-2.488575.2682545-2.470668.2797224c-1.230762.1427134-2.454597.2896938-3.671184.4408912l-2.423417.3080027c-.804522.1045319-1.605729.2109233-2.403525.3191591l-2.383065.3302266c-.395441.055955-.790006.1123676-1.183683.1692357l-2.351312.3466607-2.329434.3575057c-.386384.0604831-.771833.1214143-1.156336.1827919l-2.295554.3736062c-3.426002.5683984-6.773382 1.1726475-10.033526 1.8113958l-2.160411.4309284-2.133996.4410614c-3.180901.6691473-6.270737 1.3721931-9.260896 2.1077859l-1.978578.4952021c-1.636352.4166618-3.241349.8432764-4.813513 1.2796118-13.048945 3.6215791-23.627527 7.852948-31.238433 12.625515-9.526255 5.9736243-15.165394 13.2303003-14.980982 22.1096916.186685 8.9020241 6.146694 15.9032411 15.935376 21.4171921 7.810575 4.399686 18.560952 8.110788 31.753384 11.090946 6.673615 1.507563 13.918546 2.815429 21.624786 3.911812l2.21424.307488 2.238776.295917c1.500568.193407 3.017113.379061 4.548875.556879l2.308959.260839c.773394.084981 1.550497.167993 2.331214.249025l2.352897.237149c4.7271.462382 9.580883.853142 14.540824 1.170082l2.488722.152309 2.505844.139943c2.514216.133742 5.05326.248844 7.614567.345034l2.568634.089875c1.287932.041775 2.581216.078799 3.879531.111038l2.603244.058085c3.044723.060299 6.115673.094418 9.208777.101922h2.656562c3.549064-.008945 7.125542-.052718 10.723353-.132071l1.350167-.031426c.900755-.022063 1.800132-.04629 2.698036-.072666l2.689198-.085557c1.789727-.061315 3.573185-.131165 5.349617-.209431l2.659284-.123695 2.64818-.136231c3.082843-.166213 6.141855-.357837 9.172984-.574236l2.591187-.191537c.430694-.032929.860797-.06636 1.290294-.100291l2.569638-.209572c.854065-.071848 1.705617-.145681 2.554563-.221485l2.53892-.233307c.843637-.07973 1.684573-.161416 2.522712-.245042l2.505935-.256687c.416226-.043747.83173-.087975 1.246499-.132683l2.479708-.273988c1.647137-.186476 3.282144-.380567 4.904266-.582155l2.423425-.30799c1.206785-.156791 2.40611-.317766 3.597656-.482874l2.372623-.335713 2.35131-.346646c.780155-.117361 1.556664-.236529 2.329431-.35749l2.306983-.368246c1.912976-.311329 3.801978-.633768 5.665531-.967087l2.223953-.40519c5.897461-1.094353 11.528267-2.299161 16.844027-3.606832l1.978548-.495184c1.636325-.416646 3.241294-.843245 4.813429-1.279564 1.779404-.493844 3.512869-.999027 5.199135-1.515377l1.670486-.520065c9.927961-3.142645 18.14163-6.685186 24.368687-10.590092 9.377257-5.880356 14.985058-13.0041461 14.985058-21.6970524l-.004389-.4151352c-.186644-8.8999992-6.146652-15.9012159-15.935334-21.4151667-7.810575-4.399686-18.560952-8.1107879-31.753384-11.0909457-6.991406-1.579352-14.609835-2.9395351-22.728804-4.0669986l-2.226579-.3017099c-.746266-.0986399-1.496574-.1953464-2.250829-.2901091l-2.274509-.2784471c-3.810264-.4543262-7.716818-.8598063-11.707784-1.2151676l-2.404613-.2071924c-1.609702-.1341052-3.23253-.2601506-4.867723-.3780549l-2.461968-.1707404c-.823685-.0548714-1.650365-.1076973-2.479947-.1584676l-2.497354-.1461336-2.514192-.1337386c-1.681614-.0850139-3.374073-.1617236-5.076616-.2300479l-2.561284-.0961871c-2.140547-.074898-4.296258-.13663-6.465648-.185037l-2.609738-.0516821c-.436019-.0075443-.872562-.0145531-1.309616-.021025l-2.628366-.0323795c-3.073367-.0302368-6.170633-.0340448-9.287725-.0109873l-2.676553.026353c-2.234349.0274605-4.478219.0686915-6.730125.1238521zm94.113153 27.5056339 1.498365.3511805 1.468898.3571389 1.439057.3629235 1.408846.3685345c.232269.0618803.463264.1239872.692977.186317l1.362832.3766249c1.122769.3160352 2.2131.6374626 3.270024.9638296l1.252212.3939825c5.356229 1.7172812 9.798673 3.5632371 13.191199 5.4742424 2.522612 1.420984 4.286346 2.7813558 5.263304 3.9289869l.105968.1274391c.06658.0820875.125118.1584001.176154.2287515l.090102.1307014-.027573.0482412c-.084229.13694-.196697.2993976-.341699.4860031-.936651 1.2053886-2.651092 2.6586474-5.121192 4.207615-3.568914 2.2380191-8.356554 4.4592309-14.196839 6.5763817l-1.267541.4520506c-.213922.0750657-.429171.1499907-.64574.2247711l-1.315196.4469146c-1.109095.3709292-2.250811.7380434-3.424202 1.1008457l-1.423212.433261c-.479432.143709-.963872.286697-1.453258.428931l-1.482939.42441-.752487.210449c-3.523125.977784-7.237606 1.905224-11.122883 2.778829l-1.956776.432301-1.984671.423231c-.666143.139555-1.336839.277582-2.011995.414065l-2.038747.404802-2.064928.395443c-1.731523.325608-3.489724.641366-5.273114.94702l-2.152065.36192c-.721322.119013-1.446579.236393-2.175676.352124l-2.198715.342231c-.736682.112417-1.477108.22317-2.221184.332241l-2.243082.322154-2.264408.311971c-.379147.051141-.759159.101854-1.140023.152137l-2.295327.296513c-.384228.048553-.769286.096672-1.155161.144354l-2.32496.280838-2.344003.270268c-.392222.044158-.785214.087872-1.178963.131139l-2.371494.254229-2.389108.243416-2.406151.232505-2.422622.221498-2.438523.210394c-.407714.034135-.816066.067803-1.225045.101003l-2.461303.193556-2.475775.182209c-2.069017.147087-4.152516.282253-6.249007.405247l-2.521931.141734-2.533834.129951-2.545164.118072-2.555925.106096-2.566114.094022-2.575731.081852c-.860117.025245-1.721741.048446-2.584778.069586-2.157473.052847-4.306664.092397-6.446076.118828l-2.562505.025432c-.42627.003193-.852125.005864-1.277553.008015l-2.547346.006679c-1.271015 0-2.53797-.004218-3.800544-.013271l-2.519207-.024253c-.837725-.01013-1.673405-.022302-2.506947-.036503l-2.49411-.048683c-2.902085-.063876-5.776789-.152479-8.620007-.265317l-2.429236-.102642c-.403556-.018092-.806445-.036676-1.208656-.055751l-2.405026-.120318-2.388167-.132017-2.370733-.143646c-1.57455-.099625-3.137094-.206957-4.686866-.321904l-2.314983-.17812c-.384203-.030635-.767583-.061743-1.150128-.093322l-2.28517-.195125c-.379161-.033461-.757464-.06739-1.134897-.101786l-2.254062-.211975-2.232604-.223121c-.370281-.038112-.739644-.076686-1.108077-.11572l-2.199341-.239713c-.364666-.040869-.728377-.082195-1.091122-.123976l-2.164786-.25615c-.717668-.087199-1.431377-.17621-2.14103-.267021l-2.1167-.277823-2.091794-.288558c-7.277027-1.028654-14.08586-2.253274-20.315613-3.660569l-.760117-.173302-1.498365-.35118c-.247282-.059032-.493336-.118311-.738155-.177836l-1.454024-.360053-1.423998-.36575-1.3936-.371275-1.362832-.376625c-1.571877-.442449-3.080175-.895467-4.522236-1.357812l-1.21977-.398551c-4.8137-1.603108-8.839866-3.3116865-11.971429-5.0756914-2.522613-1.420984-4.286346-2.7813558-5.263304-3.9289869l-.105968-.1274392c-.06658-.0820875-.125118-.1584-.176154-.2287514l-.090698-.1312421.028069-.0471808c.084222-.136916.196683-.2993543.341681-.4859441.936682-1.2053605 2.65119-2.6586162 5.121369-4.2075905 2.166901-1.3587975 4.783055-2.7114076 7.811284-4.0383005l1.085837-.4672155 1.119694-.464889c.947086-.3863851 1.929061-.7701481 2.94498-1.1507919l1.235336-.4552437 1.267559-.4520586 1.29942-.4486826c1.096023-.3724426 2.224856-.7411698 3.385552-1.1056848l1.408069-.4353643c.474414-.1444263.953866-.2881468 1.438294-.4311297l1.468157-.4267045c.247162-.070738.495552-.1412837.745164-.211633l.752493-.2104552c3.229596-.8963359 6.619977-1.7503676 10.155304-2.5594073l1.942639-.4368163c.326138-.0720536.653449-.1437314.981923-.2150313l1.984692-.4232485c4.663048-.9769235 9.549221-1.8789888 14.625866-2.7006551l2.187271-.3472041c1.832285-.2852079 3.688271-.5600598 5.566468-.8243035l2.264404-.3119841 2.285157-.3017033c.382557-.0494217.765955-.098411 1.150182-.1469659l2.315214-.2861002c.387496-.0468091.775796-.0931797 1.16489-.1391099l2.343987-.2702789 2.362456-.2596103c.790499-.0847479 1.583982-.1677015 2.380351-.2488448l2.397678-.2379823c.80205-.0775062 1.606892-.1531859 2.414431-.2270229l2.430615-.2159666 2.446226-.2048133c.408973-.0332008.818574-.0659327 1.228789-.098194l2.468573-.1879017 2.482757-.1765063c1.244829-.0853881 2.494763-.1664665 3.74948-.2431807l2.515717-.1475934 2.527902-.1358586 2.539515-.1240269 2.550558-.1120982 2.561028-.1000728 2.570928-.0879503 2.580257-.0757309c.430788-.0115981.861941-.0226831 1.293448-.0332529 1.294483-.0317084 2.585985-.0586297 3.874183-.0808025l2.571892-.0380258c2.139412-.0264312 4.269045-.0401179 6.387403-.0401179l2.536522.0057506 2.525122.0181031c.419872.0040428.839245.0085973 1.258107.0136623l2.506946.0365028c2.500625.0426045 4.981995.1034795 7.441525.1823149l2.452154.0848109c1.222342.0453873 2.439007.095239 3.649674.1495162l2.41324.1144436c.400842.0200536.800993.040596 1.200442.0616258l2.388166.1320167c.396591.0229738.792456.0464321 1.187582.0703736l2.361801.1494347c.784249.0517364 1.565449.1053937 2.343504.1609606l2.324635.1724176 2.305189.1838057c1.147637.0947384 2.287767.1937216 3.420066.2969107l2.254062.2119747c.747809.0725199 1.492043.1468976 2.232604.2231217l2.210573.2341999c1.099683.119858 2.190889.2438444 3.273294.3719206l2.15298.2615938 2.128936.2724309c5.644597.7408705 11.026603 1.5966013 16.096976 2.5613139l1.886686.3668643 1.856896.3770125 1.826531.3870918c.301859.0653514.602429.1311199.901699.197304z" fill-rule="nonzero"/><path d="m575.819798 86.6942059c.194442 9.5691304-43.299091 18.4201861-97.145654 19.7678771-53.847737 1.347692-97.657421-5.316617-97.854346-14.8870482-.194443-9.5691304 43.299091-18.4188849 97.145653-19.7665764 53.848913-1.3476916 97.658597 5.3166171 97.854347 14.8857475"/></g></g></svg>