<?xml version="1.0" encoding="utf-8"?>
<!-- Generator: Adobe Illustrator 24.0.1, SVG Export Plug-In . SVG Version: 6.00 Build 0)  -->
<svg version="1.1" id="Layer_1" xmlns="http://www.w3.org/2000/svg" xmlns:xlink="http://www.w3.org/1999/xlink" x="0px" y="0px"
	 viewBox="0 0 1068 1068" style="enable-background:new 0 0 1068 1068;" xml:space="preserve">
<style type="text/css">
	.st0{fill:none;stroke:#000000;stroke-width:3;stroke-miterlimit:10;}
</style>
<path d="M191.5,508.6v-53.4c0,0-1.1-6.5,12-14.2s54.5-18.5,54.5-18.5l104.6-16.3l119.9-8.7h98.1l110.1,7.6l85,9.8l47.9,10.9
	l29.4,9.8l19.6,12l3.5,7.4v4.2v46.5c0,0-23.1-16.7-44.9-20s-61-13.1-61-13.1l-55.6-5.4l-112.2-6.5h-98.1l-135.1,5.4l-66.5,6.5
	l-73,15.3l-27.2,12L191.5,508.6z"/>
<path class="st0" d="M193.4,503.4c0,0-19.4,182.8,340.4,182.8c340.9,0,340.8-185.6,340.8-185.6"/>
</svg>
