<?xml version="1.0" encoding="utf-8"?>
<!-- Generator: Adobe Illustrator 20.0.0, SVG Export Plug-In . SVG Version: 6.00 Build 0)  -->
<svg version="1.1" id="Layer_1" xmlns="http://www.w3.org/2000/svg" xmlns:xlink="http://www.w3.org/1999/xlink" x="0px" y="0px"
	 viewBox="0 0 1999.35 1999.35" style="enable-background:new 0 0 1999.35 1999.35;" xml:space="preserve">
<path d="M1628.84,30.35H368.5c-93.53,0-178.56,38.27-240.22,99.93c-61.66,61.66-99.93,146.7-99.93,240.23v1260.34
	c0,93.53,38.27,178.56,99.93,240.22c61.66,61.66,146.7,99.93,240.22,99.93h1260.34c93.53,0,178.57-38.27,240.23-99.93
	s99.93-146.7,99.93-240.22V370.5c0-93.53-38.27-178.56-99.93-240.23C1807.41,68.62,1722.37,30.35,1628.84,30.35 M368.5,2h1260.34
	c101.35,0,193.48,41.45,260.27,108.24c66.78,66.78,108.24,158.91,108.24,260.27v1260.34c0,101.35-41.45,193.48-108.24,260.27
	c-66.78,66.78-158.91,108.24-260.27,108.24H368.5c-101.35,0-193.48-41.45-260.27-108.24C41.45,1824.33,0,1732.2,0,1630.84V370.5
	c0-101.35,41.45-193.48,108.24-260.27C175.02,43.45,267.15,2,368.5,2z"/>
<path d="M1040.33,359.02c-10.66-10.66-25.39-17.25-41.66-17.25c-16.27,0-31,6.59-41.66,17.25c-10.66,10.66-17.25,25.39-17.25,41.66
	c0,16.27,6.59,31,17.25,41.66c10.66,10.66,25.39,17.25,41.66,17.25c16.27,0,31-6.59,41.66-17.25
	c10.66-10.66,17.25-25.39,17.25-41.66C1057.59,384.4,1050.99,369.68,1040.33,359.02 M998.67,327.59c20.18,0,38.45,8.18,51.68,21.41
	c13.23,13.23,21.41,31.5,21.41,51.68c0,20.18-8.18,38.45-21.41,51.68c-13.23,13.23-31.5,21.41-51.68,21.41
	c-20.18,0-38.45-8.18-51.68-21.41c-13.23-13.23-21.41-31.5-21.41-51.68c0-20.18,8.18-38.45,21.41-51.68
	C960.22,335.77,978.49,327.59,998.67,327.59z"/>
<path d="M1277.77,721.57c-71.43-71.43-170.1-115.61-279.1-115.61S791,650.15,719.57,721.57c-71.43,71.43-115.61,170.1-115.61,279.1
	c0,109,44.18,207.67,115.61,279.1c71.43,71.43,170.1,115.61,279.1,115.61s207.67-44.18,279.1-115.61
	c71.43-71.43,115.61-170.1,115.61-279.1C1393.38,891.68,1349.2,793,1277.77,721.57 M998.67,598.88
	c110.95,0,211.4,44.97,284.11,117.68c72.71,72.71,117.68,173.16,117.68,284.11s-44.97,211.4-117.68,284.11
	c-72.71,72.71-173.16,117.68-284.11,117.68s-211.4-44.97-284.11-117.68c-72.71-72.71-117.68-173.16-117.68-284.11
	s44.97-211.4,117.68-284.11C787.27,643.85,887.72,598.88,998.67,598.88z"/>
<g>
	<path d="M969.43,942.64c9.54-6.1,19.09-12.38,28.63-18.53c-0.18-23.78-0.42-47.63-0.48-71.47c-2.36-2.23-54.24-32.72-54.66-32.66
		c-1.45,0.12-50.01,36.22-55.81,40.32c-1.09,19.44-2.6,49.38-2.72,67.91c4.17,3.02,56.23,32.36,56.41,32.36
		C942.19,960.5,966.05,944.75,969.43,942.64z"/>
	<path d="M879.92,928.75c1.21-19.98,1.93-46.3,2.9-66.95c0.06-1.57-1.33-1.81-2.54-2.41c-1.21-0.54-2.36-1.15-3.56-1.81
		c-6.7-3.38-13.41-6.7-20.05-10.02c-2.9-1.33-25.37-12.56-26.39-12.5c-1.69,0-25.25,16.72-28.81,19.14
		c-5.68,3.74-25.73,15.7-29.17,18.65c-2.36,20.4-4.47,40.87-6.28,61.27c1.03,0.72,2.05,1.51,3.14,2.23
		c8.82,4.35,50.91,27.53,52.12,27.53C823.45,963.88,872.07,932.68,879.92,928.75z"/>
	<path d="M882.1,932.68c-2.78,0-52,32.42-58.52,35.01c-0.54,21.73-0.6,43.46-0.12,65.2c9.72,5.67,19.45,11.41,29.11,17.2
		c3.38,1.93,28.08,17.69,29.11,17.87c1.69,0.24,11.41-5.98,13.71-7.24c9.54-5.37,19.09-10.87,28.63-16.48
		c4.83-2.78,9.78-6.28,14.43-8.33c-0.12-23.66-0.06-47.39,0-71.11C930.59,961.41,884.51,932.68,882.1,932.68z"/>
	<path d="M1059.96,960.44c2.48,0.24,49.46-29.46,56.29-32.05c-0.18-15.03-2.78-52.04-4.05-68.64c-7.31-4.35-54.42-39.72-56.29-39.96
		c-1.45-0.3-10.93,5.86-13.05,7.18c-4.53,2.78-9,5.19-13.59,8.15c-9.12,5.55-18.3,11.35-27.48,17.14
		c0.24,24.09,0.48,48.17,0.72,72.2C1010.74,928.51,1057.73,960.08,1059.96,960.44z"/>
	<path d="M1135.46,937.63c4.95,2.9,9.72,6.1,14.8,9.11c3.62,2.11,28.14,17.14,29.59,17.14c18.06-9.78,35.94-19.26,53.57-28.55
		c1.03-0.91,1.33-0.36,1.09-2.72c-1.99-17.75-4.65-43.4-7.43-60.31c-7.43-3.8-56.23-36.88-58.1-37.25
		c-2.29-0.48-45.42,22.58-52.24,25.23c1.51,22.82,2.9,45.64,4.23,68.4C1125.01,930.56,1131.11,934.97,1135.46,937.63z"/>
	<path d="M1118.97,1067.78c1.39-0.06,25.55-15.39,29.23-17.63c9.78-5.92,19.69-11.77,29.59-17.57c0.54-21.55,0.54-43.1-0.12-64.71
		c-4.71-3.2-58.1-35.19-58.95-35.31c-1.21-0.12-35.94,20.34-41.98,23.78c-3.8,2.23-10.63,5.92-14.01,8.69
		c0.18,23.48,0.18,46.9-0.06,70.33C1065.46,1037.71,1118.55,1067.84,1118.97,1067.78z"/>
	<path d="M830.09,1041.52c-10.93-6.28-5.86-7.24-29.23,5.86c-9.48,5.07-18.9,10.02-28.27,14.91c-7.49,3.86-7.01,2.72-6.46,7.24
		c1.93,19.32,3.2,38.88,5.86,58.19c3.2,2.66,56.83,37.55,57.68,37.79c1.51,0.24,33.7-15.88,39.56-18.77
		c4.23-2.05,9.48-5.31,13.59-6.7c-1.03-22.64-2.05-45.4-2.9-68.15C863.31,1061.56,846.64,1051.42,830.09,1041.52z"/>
	<path d="M1180.15,1036.69c-1.09-0.06-38.23,22.15-44.09,25.84c-3.99,2.54-11.17,7.49-14.92,9.12c-1.33,22.82-2.78,45.64-4.29,68.4
		c6.7,2.84,50.19,25.6,52,25.41c2.72-0.24,51.7-34.23,58.58-37.19c2.72-20.89,5.31-41.71,7.67-62.54
		c-4.47-1.75-9.42-4.71-13.65-6.94C1207.75,1051.54,1193.98,1044.23,1180.15,1036.69z"/>
	<path d="M1199.58,799.77c-51.42-51.42-122.45-83.22-200.91-83.22s-149.49,31.8-200.91,83.22
		c-51.42,51.42-83.22,122.45-83.22,200.91c0,78.46,31.8,149.49,83.22,200.91s122.45,83.22,200.91,83.22
		c78.46,0,149.49-31.8,200.91-83.22c51.42-51.42,83.22-122.45,83.22-200.91C1282.8,922.22,1251,851.18,1199.58,799.77z
		 M1239.28,1065.72c-2.36,21.25-5.07,42.44-7.91,63.69c-1.33,1.69-55.02,36.04-60.76,39.54c-1.54,17.36-2.94,34.73-4.08,52.12
		c-1.36,1.04-2.73,2.07-4.11,3.08c1.12-17.61,2.48-35.23,4.03-52.84c0.24-2.72-8.15-5.25-11.96-7.24
		c-5.38-2.72-38.83-19.68-40.1-19.56c-1.15,0.12-42.64,30.12-50.19,35.74c-2.17,1.63-6.22,3.32-6.34,6.28
		c-0.79,22.58-1.45,45.15-1.99,67.67c0,2.17,3.86,3.56,5.62,4.47c2.42,1.21,4.23,2.17,6.58,3.32c1.61,0.77,5.07,2.4,9.33,4.38
		c-2.32,0.69-4.66,1.35-7.01,1.97c-0.71-0.35-1.43-0.69-2.14-1.04c-18.18-9.78-12.02-9.18-27.42,2.72c-2.46,1.9-4.75,3.71-7.05,5.51
		c-2.93,0.37-5.88,0.68-8.83,0.96c11.54-8.84,23.24-17.88,26.82-20.05c0.54-23.72,1.21-47.45,1.93-71.23
		c-6.7-3.14-52.3-32.72-54.05-32.66c-16.19,10.2-32.31,19.98-48.26,29.22c-1.21,0.66-1.99,1.09-3.2,1.81
		c-0.18,0.12-1.69,1.09-1.75,1.09c-1.57,1.27-0.48-0.18-1.33,1.69c0.36,23.06,0.6,46.12,0.79,69.12
		c1.15,2.41,10.21,8.87,12.68,10.81c2,1.58,7.32,5.6,13.45,10.17c-2.72-0.26-5.43-0.55-8.12-0.89c-2.86-2.2-5.03-3.88-5.99-4.64
		c-18.18-14.19-9.97-13.1-28.27-3.86c-0.92,0.44-1.8,0.86-2.66,1.28c-2.32-0.62-4.64-1.27-6.94-1.95
		c10.47-5.04,21.47-10.59,21.68-11.52c-0.3-23.36-0.72-46.78-1.09-70.21c-7.07-4.35-53.81-40.2-55.87-40.26
		c-0.6-0.06-23.92,11.71-26.7,13.1c-2.78,1.39-24.88,10.93-25.91,13.22c1.26,17.89,2.3,35.78,3.14,53.71c-1.35-0.99-2.7-1.99-4.03-3
		c-0.92-17.39-2.05-34.73-3.28-52.16c-8.88-7.49-50.31-32.48-59.85-39.48c-2.42-21.37-4.77-42.8-6.76-64.23
		c-11.99-6.5-23.97-12.86-35.95-19.12c-0.27-1.6-0.53-3.21-0.77-4.82c16.68,8.97,36.88,20.09,38.23,20.32
		c2.78,0.36,50.07-27.23,56.05-29.04c-0.54-21.67-0.48-43.46,0-65.26c-8.27-3.08-52.73-29.1-55.44-29.04
		c-1.38-0.04-21.92,11.21-38.7,20.26c0.24-1.59,0.51-3.17,0.78-4.76c11.99-6.27,23.99-12.63,35.99-19.07
		c2.05-21.49,4.41-42.92,6.76-64.35c11.9-8.21,51.64-32.36,59.85-39.3c1.22-17.13,2.33-34.33,3.21-51.53
		c1.36-1.03,2.73-2.05,4.1-3.05c-0.88,17.66-1.95,35.38-3.15,53.01c0.24,1.81,10.69,5.92,12.68,6.82
		c13.17,6.4,26.45,12.92,39.86,19.62c18.42-13.1,36.6-26.32,54.6-39.6c1.15-1.09,1.33-0.48,1.39-3.2c0.3-17.93,1.27-52.4,0.79-68.34
		c-1.3-0.99-10.69-5.46-21.14-10.28c2.52-0.74,5.05-1.45,7.6-2.12c5.26,2.53,10.52,5.13,15.78,7.81c0.25-0.05,9.28-6.74,19.87-14.71
		c2.37-0.3,4.76-0.57,7.15-0.8c-6.42,4.87-12.84,9.83-19.29,14.85c-2.72,2.11-5.62,3.14-5.68,7.18c-0.18,22.4-0.48,44.79-0.79,67.25
		c0.36,1.87,3.87,3.08,5.92,4.35c15.94,9.3,32.01,18.95,48.2,29.16c1.45,0.36,24.1-14.73,27.18-16.54
		c4.41-2.78,8.94-5.55,13.59-8.27c4.17-2.29,9.18-5.98,13.47-7.73c-0.72-23.72-1.27-47.45-1.75-71.23
		c-2.91-1.71-14.05-10.32-25.43-19.03c2.65,0.26,5.29,0.56,7.92,0.89c10.23,7.65,18.83,13.99,19.15,14.09
		c1.17,0.28,9.1-3.6,16.16-7.19c2.16,0.57,4.31,1.17,6.46,1.79c-3.28,1.51-5.9,2.73-7.21,3.35c-3.26,1.63-10.99,5.31-12.92,7.24
		c0.54,23.36,1.21,46.66,1.93,70.03c2.11,2.47,55.87,40.87,56.35,40.93c0.36,0.12,51.88-24.57,52.12-26.38
		c-1.47-17.54-2.76-35.03-3.86-52.56c1.36,1,2.71,2.01,4.05,3.03c1.09,16.73,2.37,33.43,3.79,50.13
		c0.66,2.17,12.44,9.54,14.37,10.81c15.34,10.14,30.74,19.86,46.32,29.22c2.78,21.49,5.56,42.98,7.97,64.41
		c10.86,5.85,21.69,11.6,32.54,17.27c0.29,1.64,0.56,3.28,0.82,4.93c-4.25-2.25-8.45-4.51-13.01-6.87
		c-6.95-3.68-13.89-7.36-20.72-11.17c-2.11-0.84-3.14,0.18-4.89,1.21c-1.81,0.97-2.9,1.51-4.65,2.54c-3.14,1.75-6.34,3.38-9.36,5.01
		c-11.78,6.34-23.68,12.68-35.63,19.14c-1.87,1.21-1.33,0.54-1.87,2.11c0.6,21.25,0.6,42.5,0.06,63.75
		c3.44,1.15,10.33,5.37,13.83,7.36c14.01,7.43,27.9,14.73,41.61,21.91c0.37-0.03,18.47-9.33,34.66-17.83c-0.24,1.5-0.48,3-0.74,4.49
		C1260.8,1054.25,1250.04,1059.94,1239.28,1065.72z"/>
	<path d="M1058.21,964.61c-3.2-1.27-11.11-6.58-14.43-8.81c-14.43-8.99-28.93-18.05-43.18-27.1c-2.29-0.24-49.83,32.36-57.44,35.98
		c-0.12,23.78-0.18,47.57-0.06,71.29c7.97,3.86,54.9,35.56,57.19,35.68c2.96,0.18,51.1-32.96,57.92-35.92
		C1058.39,1012.06,1058.39,988.33,1058.21,964.61z"/>
	<path d="M884.39,1072.36c0.79,22.64,1.63,45.28,2.6,67.85c5.38,4.1,54.36,40.32,55.87,40.51c1.27,0.12,50.01-29.52,54.72-32.9
		c0.24-23.84,0.42-47.69,0.6-71.53c-3.8-3.14-56.71-36.16-57.38-36.22C940.62,1040.07,888.68,1069.28,884.39,1072.36z"/>
	<path d="M1002.65,1076.05c-0.24,24.09-0.54,48.17-0.79,72.2c9.06,5.73,18.06,11.47,27.12,16.9c2.48,1.63,26.03,15.57,26.63,15.57
		c2.84,0,50.19-36.76,56.77-40.08c1.39-18.05,3.8-51.67,4.05-68.7c-5.25-1.81-53.69-31.87-55.93-31.93
		C1058.15,1039.89,1010.56,1072.18,1002.65,1076.05z"/>
</g>
<path d="M1037.51,361.84c-9.94-9.94-23.67-16.09-38.84-16.09c-15.17,0-28.9,6.15-38.84,16.09c-9.94,9.94-16.09,23.67-16.09,38.84
	c0,15.17,6.15,28.9,16.09,38.84c9.94,9.94,23.67,16.09,38.84,16.09c15.17,0,28.9-6.15,38.84-16.09
	c9.94-9.94,16.09-23.67,16.09-38.84C1053.6,385.51,1047.45,371.78,1037.51,361.84z"/>
</svg>
