<?xml version="1.0" encoding="UTF-8"?>
<svg id="svg" width="134.05" height="291.23" version="1.1" viewBox="0 0 134.05 291.23" xmlns="http://www.w3.org/2000/svg">
 <g id="svgg" transform="translate(-133.28 -55.545)">
  <path d="m197.33 55.683c-11.438 4.358-23.712 6.3899-34.869 11.837-18.191 8.6061-30.63 28.13-29.052 48.448 1.4527 25.852 9.9327 50.615 15.192 75.833 3.6723 17.632 9.4024 34.915 11.452 52.829-0.24645 6.8283 1.4427 13.017 1.0073 19.605 0.7255 8.421-1.457 17.829 4.8229 24.643 6.3644 2.7382 6.5597 10.236 4.9164 15.715 3.8948 2.7651-3.2614 7.2911 1.886 10.489-4.7025 7.2984 2.8326 16.774 9.0442 21.693 5.545 9.5772 15.346 11.302 25.999 9.2139 9.022-4.1817 14.719-14.078 22.121-20.956-1.2366-5.1476-0.65602-7.1233-0.18477-12.198-3.9758-2.4015 3.4795-7.5447-1.5366-10.169 4.2284-2.3151 0.63499-8.5586 2.8266-11.246 10.145-4.3218 8.1798-17.429 8.6604-26.567-0.35575-6.9175 1.3214-13.267 1.0115-20.372 2.5771-20.07 8.8875-39.49 13.039-59.28 5.0071-23.962 13.35-47.583 13.636-72.263 0.70875-21.622-14.992-40.69-34.723-47.964-11.105-3.2542-21.901-7.9066-33.297-9.4277zm6.934 3.158c9.9896 4.8883 21.484 5.4084 31.389 10.734 17.043 7.7308 29.541 25.209 28.854 44.273-0.8248 24.442-8.9334 47.864-13.929 71.644-4.0545 18.731-9.6275 37.176-12.641 56.108-0.29053 7.2703 2.1541 19.847-9.4303 16.013-4.5765 0.51948-8.1132-0.32918-12.146-0.51586-4.6099 0.7081-1.3652-6.5916-2.357-9.5723-0.0795-18.343 0.0602-36.713-1.0466-54.978-5.5819-6.2458 9.5054 1.3887 9.307-5.122 3.0429 1.0877 11.323-1.657 3.0615-3.5724-3.4026-1.3769-18.119-5.1034-5.9955-6.2426 9.2045 0.83061 11.936-10.503 0.8-10.011-9.6878 2e-3 -5.3326-5.8003 1.6899-4.8359 11.08-1.123 4.6989-11.003-3.4229-9.3531-12.412-4.2744 6.3871-4.21 9.5081-7.8074 2.5715-7.7737-22.028-5.6571-10.908-10.872 8.4254 2.3057 16.528-8.427 4.333-8.582-6.9852 2.6105-11.332-7.4274-2.1199-6.0831 7.1489 2.6066 13.042-8.8471 3.4329-6.6099-4.618-0.80334-14.398 0.23261-15.898-2.256-7.1139-6.4114-13.774 3.759-21.697-0.4035-9.2729-4.0809-18.239 7.3387-6.943 11.964-8.7846 2.5998-4.5798 12.805 0.13504 14.447-10.459 2.4665-2.3854 13.075-0.30542 14.483-9.2894 2.3282-4.1189 12.708 1.1682 13.833-12.634 2.1832-1.7271 14.053 0.426 14.494-4.3831 0.7527-13.059 9.1109-2.8931 5.6052 1.3496 5.6416 17.807-0.0696 10.487 8.6589-0.26872 21.095-0.38035 42.204-0.32618 63.319-6.0419 1.4795-13.697 0.39563-20.368 0.93636-7.1879-4.749-1.0983-19.502-5.4982-27.424-7.6552-33.724-16.611-67.172-23.291-101.1-3.8012-18.207-0.75934-39.395 14.36-51.802 10.238-9.4231 23.96-13.264 37.122-16.34 4.4364-2.8366 9.9413-4.2108 15.142-3.0253zm-21.134 55.163c4.9187-0.12994 16.473 0.26753 6.2322 3.3516-2.0065 7.3688-18.605-6.188-6.2322-3.3516zm28.021 7.596c5.1959 6.6507-12.387 0.91246-3.621 0.053 1.1436 0.19663 2.5493-0.98102 3.621-0.053zm-23.973 7.833c2.8138 9.5233-16.573-1.7961-3.232-2.506 3.3306-1.7797 3.4967-0.71806 3.232 2.506zm5.152-2.195c10.124-0.15093-4.0368 11.57-3 3.11-0.27811-2.1736-0.0587-4.777 3-3.11zm13.467 2.511c5.2028 0.41908-3.8588 0.98974 0 0zm5.147 6.245c5.471 5.3136-12.804 0.54132-2.88 0.073l2.452-0.452zm-23.747 7.988c2.9002 8.5211-16.201-2.0251-3.4109-2.6103 3.5584-1.5759 3.687-1.4015 3.4109 2.6103zm3.933-3.235c12.783 0.0562-2.4377 13.612-1.8 2.7514-0.0567-1.2505-0.33126-3.655 1.8-2.7514zm15.534 2.905c9.1822 0.74685-6.6736 1.452 0 0zm4.266 6.619c4.2478 4.5665-12.125-0.10412-2.313 0.197zm-18.571 4.599c7.4348-0.95927 2.3368 12.096-3.029 5.865 0.43346-2.3467-1.5716-8.2453 3.029-5.865zm-5.164 2.963c2.3653 7.8704-14.962-1.3109-3.665-1.938 2.7957-1.0044 4.4252-2.0769 3.665 1.938zm19.669-0.36c10.423-0.0379-5.1048 3.9436-1.519-0.264zm-14.467 11.128c5.212-1.327 5.1508 10.39-0.852 7.689-3.3272-0.2537-3.8347-10.156 0.852-7.689zm-5.2 3.388c1.8481 7.4908-14.516-1.4506-3.3371-1.8158 2.3711-0.9285 4.1354-1.8934 3.3371 1.8158zm18.632-0.919c10.932-0.98964-1.223 6.7754-0.799-0.0437zm5.328 8.311c3.1746 1.7193-5.8597-0.71826 0 0zm-16.746 3.439c3.6785 0.73892 0.93153 11.447-1.599 3.763 1.8102-1.1853-2.8823-5.0549 1.599-3.763zm-4.708 1.069c-0.45234 3.2028-0.36946-2.963 0 0zm-2.703 0.249c2.0348 5.3183-12.465-0.17685-3.203 0.527l2.362-0.63062zm19.864 0.929c4.9673 1.8296-5.6117 8.4618-1.749-0.267zm6.078 1.068c6.0479 0.33519 9.4143 1.3358 0.69186 1.2007-2.3175 1.4468-3.5927-2.498-0.69186-1.2007zm-37.405 104.53c15.909 1.2153 31.788 0.96514 47.706 0.237 3.2836-0.68083 4.8985-0.85422 4.2207 5.4772-0.59886 4.2536-3.6468 7.476-0.32549 11.146-4.1613 4.331 2.1848 8.0965-1.8485 12.869 4.1666 5.4993-7.0524 13.962-12.993 14.65-9.1843-0.42075-20.695 2.6139-28.557-1.9418-8.3048-3.4295-11.045-12.764-8.3708-19.79-4.0406-3.0708 2.7233-7.4658-1.6974-11.004 6.4315-2.2134-5.9966-12.245 1.865-11.643zm24.127 10.663c-4.6828 0.37558-22.101 1.6105-12.976 6.6381 9.8251-1.8076 20.767-1.2215 29.924-4.7273 0.57732-7.9069-12.414-1.0139-16.949-1.9108zm0.266 9.867c-4.6821 0.37586-22.1 1.6104-12.975 6.6375 9.8249-1.8071 20.767-1.2206 29.924-4.7268 0.5771-7.9082-12.414-1.013-16.949-1.9107zm0.534 9.466c-4.6822 0.3765-22.101 1.6108-12.976 6.6385 9.8252-1.8069 20.767-1.2209 29.924-4.7276 0.57748-7.9065-12.414-1.0136-16.949-1.9108z" fill-rule="evenodd"/>
 </g>
</svg>
