<?xml version="1.0" encoding="UTF-8" standalone="no"?>
<svg
   xmlns:dc="http://purl.org/dc/elements/1.1/"
   xmlns:cc="http://creativecommons.org/ns#"
   xmlns:rdf="http://www.w3.org/1999/02/22-rdf-syntax-ns#"
   xmlns:svg="http://www.w3.org/2000/svg"
   xmlns="http://www.w3.org/2000/svg"
   xmlns:sodipodi="http://sodipodi.sourceforge.net/DTD/sodipodi-0.dtd"
   xmlns:inkscape="http://www.inkscape.org/namespaces/inkscape"
   version="1.2"
   id="Layer_1"
   x="0px"
   y="0px"
   viewBox="0 0 50.3 50.3"
   xml:space="preserve"
   sodipodi:docname="icon.svg"
   inkscape:version="1.0 (4035a4fb49, 2020-05-01)"><metadata
   id="metadata19"><rdf:RDF><cc:Work
       rdf:about=""><dc:format>image/svg+xml</dc:format><dc:type
         rdf:resource="http://purl.org/dc/dcmitype/StillImage" /><dc:title /></cc:Work></rdf:RDF></metadata><defs
   id="defs17" /><sodipodi:namedview
   pagecolor="#ffffff"
   bordercolor="#666666"
   borderopacity="1"
   objecttolerance="10"
   gridtolerance="10"
   guidetolerance="10"
   inkscape:pageopacity="0"
   inkscape:pageshadow="2"
   inkscape:window-width="1680"
   inkscape:window-height="987"
   id="namedview15"
   showgrid="false"
   inkscape:zoom="5.6568543"
   inkscape:cx="24.497632"
   inkscape:cy="14.403948"
   inkscape:window-x="1672"
   inkscape:window-y="-8"
   inkscape:window-maximized="1"
   inkscape:current-layer="Layer_1"
   inkscape:document-rotation="0" />






<g
   transform="matrix(0.88726903,0,0,0.88726903,4.4797433,3.2526622)"
   id="g880"><path
     style="fill:none;stroke:#000000;stroke-width:1px;stroke-linecap:butt;stroke-linejoin:miter;stroke-opacity:1"
     d="M 20.5,6.1874999 V 12.9375 l -17.0625,8.5 v -5.625 z"
     id="path847" /><path
     style="fill:none;stroke:#000000;stroke-width:1px;stroke-linecap:butt;stroke-linejoin:miter;stroke-opacity:1"
     d="M 20.831456,5.8339465 44.6875,13.8125 v 6 l -24,-7.171875"
     id="path849"
     sodipodi:nodetypes="cccc" /><path
     style="fill:none;stroke:#000000;stroke-width:1px;stroke-linecap:butt;stroke-linejoin:miter;stroke-opacity:1"
     d="M 15.21875,24.78125 3.046875,21.765625"
     id="path851"
     sodipodi:nodetypes="cc" /><path
     style="fill:none;stroke:#000000;stroke-width:1px;stroke-linecap:butt;stroke-linejoin:miter;stroke-opacity:1"
     d="M 32.578125,24.796875 45,20.015625"
     id="path853"
     sodipodi:nodetypes="cc" /><path
     style="fill:#000000;fill-opacity:1;fill-rule:evenodd;stroke-width:1.1683"
     id="path855"
     sodipodi:type="arc"
     sodipodi:cx="11.468389"
     sodipodi:cy="13.867906"
     sodipodi:rx="0.59662133"
     sodipodi:ry="0.87481821"
     sodipodi:start="0.83683651"
     sodipodi:end="0.83455187"
     sodipodi:open="true"
     sodipodi:arc-type="arc"
     d="m 11.868015,14.517483 a 0.59662133,0.87481821 0 0 1 -0.842406,-0.06324 0.59662133,0.87481821 0 0 1 0.04265,-1.235245 0.59662133,0.87481821 0 0 1 0.842454,0.06183 0.59662133,0.87481821 0 0 1 -0.04168,1.235315" /><path
     style="fill:none;stroke:#000000;stroke-width:1px;stroke-linecap:butt;stroke-linejoin:miter;stroke-opacity:1"
     d="m 37.211494,31.55464 c 0,0 -1.721213,-4.946196 -5.391689,-7.866563 -6.554929,-5.215345 -13.753287,-3.328596 -17.854446,2.563262 -3.48845,5.011621 -1.347005,14.374749 4.861359,17.854446 3.772047,2.114177 9.722718,1.37002 9.722718,1.37002"
     id="path857"
     sodipodi:nodetypes="csssc" /><path
     style="fill:none;fill-opacity:1;fill-rule:evenodd;stroke:#000000;stroke-width:0.730654;stroke-opacity:1"
     id="path859"
     sodipodi:type="arc"
     sodipodi:cx="52.640903"
     sodipodi:cy="-7.9801416"
     sodipodi:rx="3.0429521"
     sodipodi:ry="6.1221237"
     sodipodi:start="0.83683651"
     sodipodi:end="0.83029566"
     sodipodi:open="true"
     sodipodi:arc-type="arc"
     d="m 54.679119,-3.4342941 a 3.0429521,6.1221237 0 0 1 -4.294356,-0.4377284 3.0429521,6.1221237 0 0 1 0.210547,-8.6405315 3.0429521,6.1221237 0 0 1 4.295044,0.40947 3.0429521,6.1221237 0 0 1 -0.1965,8.6418709"
     transform="matrix(0.52988464,0.84806973,-0.59022297,0.80724026,0,0)" /><path
     transform="matrix(0.52988464,0.84806973,-0.59022297,0.80724026,0,0)"
     d="m 55.296517,-2.0199247 a 4.0066071,8.0609045 0 0 1 -5.654311,-0.5763502 4.0066071,8.0609045 0 0 1 0.277224,-11.3768521 4.0066071,8.0609045 0 0 1 5.655218,0.539143 4.0066071,8.0609045 0 0 1 -0.258729,11.3786154"
     sodipodi:arc-type="arc"
     sodipodi:open="true"
     sodipodi:end="0.83029566"
     sodipodi:start="0.83683651"
     sodipodi:ry="8.0609045"
     sodipodi:rx="4.0066071"
     sodipodi:cy="-8.0053711"
     sodipodi:cx="52.612831"
     sodipodi:type="arc"
     id="path861"
     style="fill:none;fill-opacity:1;fill-rule:evenodd;stroke:#000000;stroke-width:0.962041;stroke-opacity:1" /><path
     transform="matrix(0.50767098,0.86155103,-0.56767348,0.8232538,0,0)"
     d="m 55.112087,-6.2633087 a 2.3375678,4.6847858 0 0 1 -3.298885,-0.3349595 2.3375678,4.6847858 0 0 1 0.16174,-6.6119278 2.3375678,4.6847858 0 0 1 3.299414,0.313336 2.3375678,4.6847858 0 0 1 -0.15095,6.6129522"
     sodipodi:arc-type="arc"
     sodipodi:open="true"
     sodipodi:end="0.83029566"
     sodipodi:start="0.83683651"
     sodipodi:ry="4.6847858"
     sodipodi:rx="2.3375678"
     sodipodi:cy="-9.7418928"
     sodipodi:cx="53.546349"
     sodipodi:type="arc"
     id="path863"
     style="fill:none;fill-opacity:1;fill-rule:evenodd;stroke:#000000;stroke-width:0.560198;stroke-opacity:1" /><path
     style="fill:none;fill-opacity:1;fill-rule:evenodd;stroke:#000000;stroke-width:0.380451;stroke-opacity:1"
     id="path865"
     sodipodi:type="arc"
     sodipodi:cx="53.546326"
     sodipodi:cy="-9.74189"
     sodipodi:rx="1.587526"
     sodipodi:ry="3.1816058"
     sodipodi:start="0.83683651"
     sodipodi:end="0.83029566"
     sodipodi:open="true"
     sodipodi:arc-type="arc"
     d="m 54.609675,-7.3794589 a 1.587526,3.1816058 0 0 1 -2.240391,-0.227483 1.587526,3.1816058 0 0 1 0.109843,-4.4903971 1.587526,3.1816058 0 0 1 2.24075,0.212798 1.587526,3.1816058 0 0 1 -0.102515,4.4910925"
     transform="matrix(0.50767098,0.86155103,-0.56767348,0.8232538,0,0)" /><path
     style="fill:none;stroke:#000000;stroke-width:0.4;stroke-linecap:butt;stroke-linejoin:miter;stroke-miterlimit:4;stroke-dasharray:none;stroke-opacity:1"
     d="m 31.863999,23.864854 c 0,0 -5.728533,0.423893 -10.032077,7.645592 -4.034453,6.770143 -3.226175,12.595339 -3.226175,12.595339"
     id="path867"
     sodipodi:nodetypes="csc" /></g></svg>
