<?xml version="1.0" encoding="UTF-8" standalone="no"?>
<svg
   xmlns:dc="http://purl.org/dc/elements/1.1/"
   xmlns:cc="http://creativecommons.org/ns#"
   xmlns:rdf="http://www.w3.org/1999/02/22-rdf-syntax-ns#"
   xmlns:svg="http://www.w3.org/2000/svg"
   xmlns="http://www.w3.org/2000/svg"
   xml:space="preserve"
   viewBox="0 0 50.5 50.5"
   y="0px"
   x="0px"
   id="Layer_1"
   version="1.2"><metadata
   id="metadata15"><rdf:RDF><cc:Work
       rdf:about=""><dc:format>image/svg+xml</dc:format><dc:type
         rdf:resource="http://purl.org/dc/dcmitype/StillImage" /><dc:title></dc:title></cc:Work></rdf:RDF></metadata><defs
   id="defs13" />




<g
   id="layer3"><path
     d="m 25.694359,11.584402 a 3.7356908,1.2149704 0 0 1 -3.616586,-1.251636 3.7356908,1.2149704 0 0 1 3.845745,-1.1771607 3.7356908,1.2149704 0 0 1 3.622288,1.2498907 3.7356908,1.2149704 0 0 1 -3.840375,1.179014"
     id="path859"
     style="opacity:1;fill:#000000;fill-opacity:1;stroke:#000000;stroke-width:0.24527633;stroke-miterlimit:4;stroke-dasharray:none;stroke-opacity:0.79906509" /><path
     id="path871"
     d="M 25.946956,9.5891617 25.408976,28.946393"
     style="fill:none;stroke:#818181;stroke-width:0.17200167;stroke-linecap:butt;stroke-linejoin:miter;stroke-miterlimit:4;stroke-dasharray:none;stroke-opacity:0.83529412" /><path
     id="path883"
     d="m 26.218926,10.350607 c 0,0 -0.298363,1.634537 -0.237556,2.464908 0.06508,0.888558 0.348172,1.636049 0.614377,2.280877 0.451814,1.094429 1.261819,1.26767 1.610663,2.556154 0.09382,0.346503 0.146548,0.835952 0.08302,1.21909 -0.233493,1.408317 -0.933824,2.143714 -1.511035,2.792108 -0.835885,0.938969 -1.823266,0.803655 -2.706581,1.455041 -0.426882,0.314798 -1.005686,0.285889 -1.245359,1.179764 -0.10105,0.376891 -0.06872,0.961511 0.03322,1.337066 0.287857,1.060509 0.916932,1.302694 1.411407,1.769645 0.555091,0.524197 1.726896,1.140439 1.726896,1.140439 v 0"
     style="fill:none;stroke:#818181;stroke-width:0.09553535;stroke-linecap:butt;stroke-linejoin:miter;stroke-miterlimit:4;stroke-dasharray:none;stroke-opacity:0.83529412" /><path
     style="fill:none;stroke:#818181;stroke-width:0.1710071;stroke-linecap:butt;stroke-linejoin:miter;stroke-miterlimit:4;stroke-dasharray:none;stroke-opacity:0.83529412"
     d="M 28.065334,9.7405052 27.527246,28.870705"
     id="path834" /><path
     id="path836"
     d="M 23.677431,10.345774 23.139235,29.248942"
     style="fill:none;stroke:#818181;stroke-width:0.17000639;stroke-linecap:butt;stroke-linejoin:miter;stroke-miterlimit:4;stroke-dasharray:none;stroke-opacity:0.83529412" /></g><g
   id="layer2"><path
     id="path20"
     d="m 6.3781299,40.023487 c 0,-0.191724 0,-7.045844 0,-7.045844 0,0 1.91637,-4.500547 18.6930601,-4.505506 17.542148,-0.0052 19.459948,4.409645 19.459948,4.409645 l 0.0479,7.237568 c 0,0 -0.19205,-4.455229 -19.747538,-4.265851 C 8.1996399,36.014564 6.3780999,40.023487 6.3780999,40.023487 Z"
     style="fill:#000000;stroke:#000000;stroke-width:0.07002989px;stroke-linecap:butt;stroke-linejoin:miter;stroke-opacity:1" /><path
     id="path22"
     d="m 6.3781299,40.023487 c 0,0 0.1438,4.169989 19.1723701,4.169989 19.028568,0 19.028568,-4.074126 19.028568,-4.074126"
     style="fill:none;stroke:#000000;stroke-width:0.07002989px;stroke-linecap:butt;stroke-linejoin:miter;stroke-opacity:1" /><ellipse
     cx="25.454628"
     cy="40.550724"
     rx="3.3551636"
     ry="0.86275625"
     id="path24"
     style="fill:#000000;stroke-width:0.08214483" /><path
     style="fill:#000000;stroke:#000000;stroke-width:0.01777522px;stroke-linecap:butt;stroke-linejoin:miter;stroke-opacity:1"
     d="m 21.952401,10.395967 -0.01337,-1.8249761 c 0,0 0.426245,-1.0111048 3.806522,-1.0126902 3.534505,-0.00166 3.920916,1.008786 3.920916,1.008786 l -0.01705,1.8595323 c 0,0 0.294313,-1.358849 -3.96549,-1.3239042 -3.767334,0.030905 -3.731484,1.2932522 -3.731484,1.2932522 z"
     id="path852" /></g><g
   id="layer1" /></svg>