<?xml version="1.0" encoding="utf-8"?>
<!-- Generator: Adobe Illustrator 19.2.1, SVG Export Plug-In . SVG Version: 6.00 Build 0)  -->
<svg version="1.2" baseProfile="tiny" id="Layer_1" xmlns="http://www.w3.org/2000/svg" xmlns:xlink="http://www.w3.org/1999/xlink"
	 x="0px" y="0px" viewBox="0 0 50.8 50.8" xml:space="preserve">
<ellipse transform="matrix(0.7765 -0.6301 0.6301 0.7765 -7.668 23.8541)" fill="none" stroke="#000000" stroke-width="0.8" stroke-miterlimit="10" cx="29.8" cy="22.7" rx="10.2" ry="27.5"/>
<ellipse transform="matrix(0.7765 -0.6301 0.6301 0.7765 -7.6679 23.8544)" fill="none" stroke="#000000" stroke-width="0.8" stroke-miterlimit="10" cx="29.8" cy="22.7" rx="8" ry="24.9"/>
<path fill="none" stroke="#000000" stroke-width="0.8" stroke-miterlimit="10" d="M9.2,41.3c-1.6,2.4-1.5,5.3,0.3,6.6
	c1.7,1.2,4.3,0.5,6.1-1.6C13.1,44.9,10.9,43.2,9.2,41.3z"/>
<path fill="none" stroke="#000000" stroke-width="0.8" stroke-miterlimit="10" d="M47.1,44.1c-4.4,3.6-15.7-3.1-25.3-14.9
	C12.3,17.4,8.1,4.9,12.4,1.4C8.1,4.9-5.1,17.4,6.7,38.1c4,6.6,13.2,12.1,23.1,12.3C36.7,50.5,42.7,47.7,47.1,44.1z"/>
</svg>
