<?xml version="1.0" encoding="UTF-8"?>
<svg width="52px" height="51px" viewBox="0 0 52 51" version="1.1" xmlns="http://www.w3.org/2000/svg" xmlns:xlink="http://www.w3.org/1999/xlink">
    <!-- Generator: Sketch 47.1 (45422) - http://www.bohemiancoding.com/sketch -->
    <title>Untitled</title>
    <desc>Created with Sketch.</desc>
    <defs></defs>
    <g id="Page-1" stroke="none" stroke-width="1" fill="none" fill-rule="evenodd" stroke-linecap="round" stroke-linejoin="round">
        <g id="iris" transform="translate(1.000000, 0.000000)" stroke="#000000" stroke-width="0.8">
            <path d="M50.1,29.1 C48.6,32 41.5,33 26.2,21.7 C18.4,15.6 13.4,8.4 13.2,4.2 C13.2,3.4 13.2,2.3 14.2,1.6 C10.7,4.7 -1,17.7 0.5,30.8 C2,43.9 13.9,49.4 19.4,50.1 C22.9,50.5 26.9,50.1 30.7,48.6 C38.8,45.3 46.6,37.2 50.1,29.1 Z" id="Shape"></path>
            <path d="M40.2,23.3 C39.5,24.8 35.9,25.1 28.2,19.5 C24.3,16.4 22.1,13.6 22,11.2 C22,10.6 21.8,8.9 24.1,8.9 C26.5,8.9 30.6,10.6 35,14.4 C37.2,16.1 41.5,20.4 40.2,23.3 Z" id="Shape"></path>
            <path d="M17.9,0.6 C22.7,0.7 30.9,4 39.6,11.6 C47.1,18 51.7,25.5 50.1,29 C48.6,31.9 41.5,32.9 26.2,21.6 C18.4,15.5 13.4,8.3 13.2,4.1 C13.2,2.9 13.2,0.7 17.9,0.6 Z" id="Shape"></path>
            <path d="M5.7,12.1 C5.8,14.2 6.9,22.3 19.7,31.9 C32.3,41.4 39.9,41.2 43.2,39.6" id="Shape"></path>
            <path d="M14.8,27.8 C13.8,31 12.9,36 9.5,39.1 C9.3,39.9 9.5,41.3 11,42.4 C12.5,43.4 13.6,43.9 15,43.6 C15.4,42.7 20.3,36.8 25.1,35.7" id="Shape"></path>
            <path d="M10.1,38.4 C9.7,38.4 9.4,38.5 9.1,38.7 C8.4,39.1 8,41.3 10.1,43 C12.1,44.7 14.3,45.1 15.5,44.2 C16,43.8 16,43.3 15.7,42.7" id="Shape"></path>
        </g>
    </g>
</svg>