<svg height="960" viewBox="0 0 960 960" width="960" xmlns="http://www.w3.org/2000/svg"><g fill="none" fill-rule="evenodd"><g fill="#000" fill-rule="nonzero"><path d="m330.708013 23.8922771-.044398.0054618c-19.023208 2.3509685-35.857219 8.0629931-50.00217 17.4238613l-.929224.6233602-.375899.260796-.568335.4075007-.575218.4284727-.583786.4510244-.594037.4751555-.605973.5008663-.619594.5281566-.421461.3680457-.646038.5771505-.664149.608653-.683947.641735-.705427.6763966-.728592.7126377-1.010402 1.0092888-1.058573 1.0802697-.827942.8590359-.858969.9026483-1.196464 1.2741027-1.912465 2.0699842-1.710252 1.8786252-2.58805 2.8794656-1.587665 1.7829062-3.885833 4.3999726-3.848278 4.3904463-3.527024 4.0409145-2.799464 3.2214496-3.827927 4.4273361-2.936099 3.4122525-2.986522 3.4846371-4.052029 4.7490453-3.085192 3.6316291-3.119345 3.6852372-3.148616 3.733214-3.173005 3.775556-4.260177 5.090206-4.283288 5.142116-3.220672 3.882622-4.295892 5.200831-3.468124 4.217386-3.934011 4.803657-2.593722 3.178857-2.570099 3.159492-3.809988 4.701995-2.509308 3.10921-3.716947 4.624565-2.446043 3.056253-3.620193 4.543123-2.380305 3.000622-2.353316 2.97762-2.325931 2.954191-2.298152 2.930333-2.269976 2.906049-2.241403 2.881335-2.212437 2.856195-2.183072 2.830626-3.218686 4.197062-2.107932 2.764832-2.077183 2.737766-2.046037 2.710271-3.009794 4.01292-1.966443 2.639664-1.933913 2.610671c-.319586.432673-.6378.864119-.954634 1.294331l-1.884375 2.566381c-.31128.425237-.621163.849222-.929642 1.271945l-1.833946 2.521129c-.302826.417641-.60423.834003-.904205 1.249077l-1.782627 2.474913c-.294223.409885-.587.818465-.878322 1.225729l-1.730417 2.427734-1.695115 2.395748-1.659418 2.363332-1.623324 2.33049c-.535049.771308-1.064016 1.537071-1.586835 2.297218l-1.54995 2.26352c-.255229.374421-.508905.747421-.76102 1.118989l-1.49388 2.212169-1.456005 2.177401c-.23949.359979-.477385.718492-.713676 1.075529l-1.398452 2.124445c-.459695.7022-.912912 1.398426-1.359587 2.088608l-1.320326 2.052341c-.216761.339011-.431869.676493-.645317 1.012438l-1.260694 1.99714c-.82709 1.319028-1.627347 2.613167-2.400242 3.881844l-1.138757 1.883848c-.745403 1.243074-1.46318 2.460401-2.152805 3.651411-39.0266723 67.402472-63.0475652 133.626238-71.5083748 197.88787-8.6040869 65.344788-8.1500064 118.630363 4.015516 169.854743 14.2473712 59.991223 44.5416834 114.541064 93.8170888 166.129563l1.488981 1.552052c2.993502 3.107771 6.079387 6.236723 9.242387 9.372262l1.428368 1.410762 5.397905 5.410693 1.242055 1.225361.876006.851092.290193.279218c.324006.310995.646007.617373.968887.921766l.503538.472419c1.345825 1.256533 2.721763 2.492152 4.263391 3.828738l.542025.467713-.618026-.572452c6.171672 5.740854 12.425501 11.3443 18.632288 16.696838 59.836694 51.595752 132.829721 82.410208 210.401798 91.878305 81.686514 9.971624 164.587248-4.602432 228.011428-39.080123 63.466614-34.501041 116.880267-71.80163 165.493209-118.658207l1.715715-1.659744c55.392513-53.782835 101.689379-117.927449 138.494685-195.174602l1.249903-2.639015.359968-.601231c1.070072-1.822378 2.076711-3.684137 3.019817-5.5832 6.25581-12.600105 9.576901-26.55825 10.207803-41.454104.564813-13.372283-1.044651-27.445626-4.62007-42.123752-3.34255-13.720039-8.412021-28.011345-15.085351-42.754885-3.110068-6.871355-6.592278-13.912907-10.438214-21.112892-3.773854-7.066938-7.861034-14.208265-12.251394-21.407603-4.355405-7.140995-9.017937-14.358932-13.980529-21.642972-4.876613-7.156619-10.087633-14.432812-15.628235-21.82122-5.872475-7.832449-11.987542-15.633195-18.333559-23.384385-6.26749-7.657743-12.94247-15.486579-20.015016-23.473338-6.947357-7.845476-14.141313-15.67978-21.573392-23.490787-7.406752-7.783091-15.101248-15.599714-23.078971-23.44284-8.103759-7.966666-16.417899-15.861881-24.908988-23.656299-8.525821-7.827306-17.293672-15.614944-26.266489-23.331993-8.956656-7.702889-18.0793-15.300487-27.328894-22.761694-9.308487-7.509182-18.7044-14.849881-28.148589-21.993005-9.209532-6.966333-18.683194-13.89632-28.379422-20.760801-9.657019-6.836005-19.204663-13.370226-28.606269-19.576512-9.54963-6.304133-19.106772-12.383613-28.633474-18.213442-9.546062-5.843143-19.012109-11.4060044-28.354958-16.6618654-10.344986-5.8175374-20.595336-11.3102307-30.714857-16.4559002-10.138136-5.1552872-20.212354-9.9952476-30.179963-14.4968772-9.965843-4.4996397-19.776545-8.6362942-29.398914-12.3912883-9.645201-3.7625843-19.131847-7.1492967-28.431917-10.1446232-9.880387-3.1838526-19.546828-5.9175528-28.962652-8.1807287-9.561983-2.2987581-18.805678-4.1003785-27.706575-5.3840419-9.152933-1.31895-18.024847-2.1036466-26.603847-2.3310151-8.883337-.2364395-17.406461.1252773-25.551036 1.1225721zm4.861648 39.7034556c6.149154-.7529576 12.707717-1.0243027 19.629644-.8400684 7.027032.1862368 14.35937.8410697 21.95397 1.9354615 7.685691 1.1084096 15.725737 2.6804089 24.068085 4.6859595 8.456462 2.032585 17.155167 4.4967189 26.048067 7.3623634 8.558564 2.7565056 17.290302 5.8764736 26.153172 9.3338706 9.006012 3.5144697 18.180193 7.3853926 27.476496 11.5827308 9.422429 4.2554119 18.941955 8.8302299 28.513534 13.6974199 9.648655 4.90624 19.408422 10.137893 29.233254 15.66292 8.918925 5.017381 17.961975 10.33214 27.088107 15.918245 9.14315 5.595115 18.314328 11.429536 27.475496 17.477227 9.043049 5.969592 18.233246 12.259591 27.53055 18.840962 9.337344 6.610407 18.472486 13.291904 27.362382 20.016456 9.080086 6.867734 18.148161 13.950742 27.164184 21.223992 8.899906 7.179131 17.700713 14.507451 26.360379 21.954922 8.618625 7.412427 17.065077 14.912966 25.299317 22.472581 8.125131 7.458485 16.110122 15.039126 23.915933 22.712886 7.709716 7.579639 15.090101 15.080178 22.143159 22.491604 7.147153 7.511553 14.016026 14.995071 20.605621 22.436534 6.768773 7.643722 13.104113 15.077175 19.011024 22.294354 6.017022 7.349347 11.778788 14.702699 17.282295 22.043034 5.207211 6.943831 10.064071 13.72846 14.572583 20.344874 4.604608 6.758596 8.900907 13.412058 12.886896 19.947369 4.008011 6.572359 7.715721 13.0526 11.120128 19.427708 3.453456 6.465222 6.546552 12.723181 9.279286 18.76086 5.668673 12.523927 9.926934 24.498156 12.662672 35.727437 2.709712 11.124148 3.918922 21.508354 3.519522 30.96438-.3994 9.429993-2.38839 17.941818-6.069073 25.355247-.841843 1.695156-1.770772 3.332238-2.788791 4.908242-37.811839 80.76071-84.338399 141.890454-133.985081 189.74131-45.922556 44.263393-94.499708 77.146394-141.307102 103.693535l-3.117822 1.760478-3.112288 1.742038c-1.036474.577642-2.071977 1.152267-3.106461 1.723929l-3.100343 1.706152c-1.032396.565792-2.063724 1.128676-3.093935 1.688708-54.084123 29.400391-128.173265 43.781681-204.061207 34.5179-65.553601-8.001176-132.500596-33.638782-189.125261-82.464878-5.786791-4.990347-11.667676-10.257045-17.511524-15.692958l-.79757-.685213-.744506-.647916-.699268-.617297-.661851-.593359-.632259-.576099-.610492-.565516-.892037-.843045-.887068-.856804-.908505-.893106-5.660947-5.671843c-3.942946-3.879935-7.774781-7.763874-11.449458-11.609765-46.57661-48.763016-71.9109626-97.578099-83.824885-147.743899-9.871939-41.566974-10.5075085-84.007896-6.3756934-128.090508l.3069273-3.189566c.0525177-.532074.1057119-1.064389.1595746-1.596947l.3311369-3.198265.3468076-3.204146c.354518-3.207107.7319794-6.423132 1.130696-9.648364l.4057392-3.228312c.1375664-1.077134.277432-2.155302.4195342-3.234515 7.7157212-58.60253 29.8728946-119.865443 66.4665146-183.06582 22.785682-39.351807 80.607564-110.896928 121.01503-158.476923l3.73558-4.3887 3.623939-4.237997c4.753222-5.545623 9.183123-10.661949 13.18726-15.2392925l2.921671-3.3302351c10.408342-11.8277439 17.403162-19.3720658 18.853974-20.3518719 8.634641-5.8314163 19.708723-9.6953304 33.263287-11.3704608z"/><path d="m468.226285 213.119275c11.765276-1.350295 25.815239.584682 41.628273 5.417929 15.4455 4.72094 32.499426 12.20085 50.088995 21.882468 15.726142 8.656236 31.971964 19.174286 47.761492 30.910805 15.168048 11.273212 29.709418 23.517182 42.863806 36.128999l1.402149 1.352524c12.839899 12.425025 23.97041 24.741864 33.206745 36.686064l.860352 1.118669c9.673486 12.645455 17.170223 24.813753 22.285657 36.144469 5.469071 12.113951 8.141504 23.252249 7.609942 32.988877-.596319 10.902371-5.231676 19.930279-13.781619 25.810019-8.504147 5.849359-19.928149 7.97329-33.595306 6.852812-12.579541-1.032616-27.201793-4.838839-43.200018-11.163053-17.26125-6.823457-35.964842-16.519767-54.853213-28.475919-18.490684-11.702531-36.88526-25.396428-54.296028-40.525499-18.558383-16.124677-34.668954-32.705136-47.571289-48.860959-13.274716-16.623366-22.988336-32.590414-28.477299-46.917904-5.847422-15.264021-6.887832-28.645809-2.312228-39.322245 4.932079-11.506992 15.655804-18.340215 30.379589-20.028056zm169.836734 110.063476c-12.887688-12.475985-27.263166-24.633259-42.288679-35.800537-15.079053-11.208415-30.564336-21.234069-45.474906-29.441385-16.449302-9.053993-32.259353-15.988335-46.290908-20.277101-13.398104-4.095125-24.832408-5.66987-33.503153-4.674733-8.065615.924591-12.415404 3.696303-14.275921 8.037058-2.197301 5.12705-1.551212 13.43707 2.605874 24.288665 4.679003 12.213302 13.349367 26.465467 25.429032 41.592321 12.118014 15.173726 27.386915 30.887967 45.061057 46.24436 16.650804 14.4687 34.23561 27.559762 51.87441 38.723147 17.870469 11.311829 35.466684 20.434054 51.509418 26.775824 14.295349 5.651056 27.06107 8.974017 37.482736 9.829499 9.466157.776067 16.443074-.52107 20.626625-3.398618 3.199864-2.200525 4.873462-5.460057 5.144887-10.422447.334487-6.126816-1.612647-14.242177-5.868143-23.668069-4.445129-9.845987-11.149145-20.727583-19.942732-32.22281-8.511489-11.127997-18.888979-22.714213-30.953601-34.481472z"/><path d="m427.153807 145.259937c16.800339-1.936078 37.260873 1.181977 60.506959 8.796877 22.980207 7.528375 48.504708 19.415879 74.844924 34.733577 21.865776 12.715953 44.481398 28.000616 66.490771 44.904925 20.010188 15.143798 39.162744 31.460183 56.552314 48.223796l1.677225 1.623888 1.558503 1.519821c5.177111 5.068242 10.153195 10.125588 14.889286 15.128495l1.413588 1.499195c15.891154 16.637337 29.651509 32.932315 41.163507 48.672409 13.549465 18.526293 23.90908 36.185721 30.898543 52.559471 7.195849 16.861557 10.586742 32.166565 9.716959 45.274563-.943298 14.199025-6.906852 25.728665-17.785925 33.218951-11.049424 7.623556-26.132611 10.421871-44.383686 8.87392-17.216651-1.458788-37.374153-6.80555-59.553709-15.707557-24.383544-9.786436-50.997292-23.786535-78.06328-41.139095-26.513195-16.997342-53.057492-36.945814-78.40321-59.076396-27.700053-24.156965-52.000431-49.154604-71.69075-73.602414-20.073779-24.924648-35.046046-48.898168-43.887546-70.354131-.30951-.751118-.61134-1.498713-.905458-2.24274l-.577944-1.483288c-8.041581-20.945527-9.874288-39.005603-4.749882-53.228648 5.819707-16.149427 19.956913-25.85489 40.288811-28.195619zm246.132867 152.62481c-17.232682-16.750688-36.349305-33.097828-56.416034-48.284733-21.405198-16.439963-43.313808-31.246794-64.419219-43.520562-25.197426-14.653127-49.47067-25.957883-71.016886-33.01648l-1.87642-.606122c-19.926269-6.345046-36.996893-8.840105-50.115775-7.328279-13.243773 1.524702-20.715518 6.654198-23.761561 15.10683-3.025065 8.39622-2.022519 20.655809 3.368836 35.926011l.466063 1.297588c.476526 1.304715.984468 2.63076 1.524043 3.977618l.550127 1.353777c7.808016 18.947975 21.215182 40.602297 39.336893 63.38566l1.63542 2.043277c18.931352 23.505466 42.416801 47.664792 69.264179 71.078149 24.610903 21.488977 50.36668 40.844864 76.047718 57.308718 26.050471 16.701492 51.55794 30.119635 74.718538 39.415236 20.466835 8.214588 38.755677 13.065689 53.793575 14.339869 14.024499 1.189477 24.625581-.777293 31.344407-5.412945 5.5917-3.849912 8.624107-9.712616 9.179746-18.076379.635166-9.572231-2.096101-21.899975-8.155473-36.098502-6.3537-14.884389-15.950964-31.244282-28.647151-48.603881-10.978266-15.010334-24.176843-30.640056-39.540872-46.726029-4.925709-5.244567-10.08643-10.513813-15.47539-15.797187z"/><path d="m177.677796 643.006931c-31.232845 30.502646-19.652315 91.054454 23.059516 135.980743 42.767696 44.98611 102.255307 59.010936 133.594038 28.404881 23.468902-22.92158 23.088753-63.512401 1.769131-102.232918-2.480033-4.504216-7.971625-6.393582-12.697975-4.368702-11.335337 4.856328-23.988559 3.99755-38.278426-6.375959-18.082911-13.126291-22.84796-29.202863-17.437044-46.039761 1.565299-4.870669-.798042-10.137271-5.477234-12.205781-32.555216-14.391536-64.60614-12.622237-84.532006 6.837497zm68.730204 8.395069-.089753.548613c-3.423302 21.58874 5.074734 42.692881 27.05678 58.649534l.608264.437598c16.435365 11.717064 32.737309 14.685995 47.631885 11.294972l.715824-.168717.105913.223066c13.523965 28.954938 12.595879 56.364-2.079663 70.69729-21.703 21.195601-69.094379 10.022589-105.125001-27.876987-36.087687-37.958706-45.389068-86.593395-23.580618-107.891981 11.803507-11.527384 31.667595-13.820274 54.062491-6.153952z"/></g><path d="m648.778895 528.865557c-9.502558-4.905332-19.224726-10.195682-29.128609-15.858442-9.818369-5.614269-19.680467-11.515603-29.542565-17.687517-10.373228-6.491952-20.869867-13.357285-31.4423-20.580479-10.388776-7.096149-20.793099-14.49876-31.167299-22.190376-10.196374-7.560691-20.422871-15.442391-30.636735-23.631523-10.008829-8.024263-19.971987-16.316196-29.848661-24.86319-10.484006-9.051299-20.610414-18.156908-30.356876-27.279974-9.885419-9.25399-19.344249-18.492464-28.35511-27.680507-9.074024-9.252051-17.748667-18.51477-26.00255-27.748395-8.328706-9.317999-16.146282-18.51671-23.430378-27.557341-5.429061-6.737317-10.603528-13.43875-15.520487-20.087813-2.646995 5.165244-3.724645 11.47972-3.231005 18.807655.518904 4.364175 1.541165 9.053239 3.059009 14.037127 1.525617 5.010073 3.561394 10.330487 6.09664 15.929239 2.091165 4.615357 4.486482 9.342244 7.173318 14.154474 2.696554 4.830657 5.721552 9.810666 9.059448 14.91869 3.308744 5.060503 6.924555 10.235445 10.834801 15.50058 3.908302 5.265135 8.072169 10.571972 12.477026 15.896265 4.48551 5.422245 9.269342 10.919166 14.338862 16.467487 5.022878 5.497891 10.277027 10.993842 15.746901 16.462639 5.432948 5.431943 11.111744 10.873584 17.022783 16.303588 5.828443 5.353388 11.86192 10.677681 18.087801 15.948635 5.865368 4.979039 11.762804 9.7903 17.669956 14.428933 6.027648 4.732705 12.044606 9.269508 18.026582 13.601679 6.085951 4.406847 12.171902 8.628459 18.230645 12.654168 6.167576 4.098445 12.271991 7.970923 18.287977 11.611615 5.719609 3.460306 11.422698 6.748954 17.085946 9.855277 5.712807 3.131538 11.305118 6.037109 16.754586 8.705074 5.553442 2.718397 10.97473 5.206946 16.241512 7.454981 5.261923 2.246096 10.447079 4.28562 15.531176 6.108876 4.702206 1.686511 9.203264 3.151904 13.48957 4.39133 4.337807 1.254942 8.546374 2.312042 12.609181 3.165481 4.039486.84956 7.912805 1.492548 11.606355 1.926056 3.643991.427689 7.147081.651717 10.49761.670151 3.387454.015509 6.570845-.176514 9.534624-.581898 2.921995-.400534 5.660333-1.012488 8.200438-1.839742 2.461395-.803008 4.725528-1.811617 6.776852-3.027768.152562-.091162.295406-.190084.444081-.283186-5.339662-2.582622-10.74443-5.274833-16.221105-8.101849z" stroke="#000" stroke-linejoin="round" stroke-width="20"/><path d="m352.255663 302.281305-.199663-.714305-.974722-1.204645c7.416475 9.204933 15.347579 18.534059 23.76114 27.946991 8.398752 9.395691 17.182018 18.770107 26.318899 28.086249 9.151754 9.331706 18.715595 18.669195 28.660465 27.978839 9.901182 9.26789 20.13011 18.46145 30.656015 27.548922 9.880907 8.550667 19.936329 16.924782 30.128467 25.096008 10.232606 8.204158 20.55642 16.165756 30.935604 23.862003 10.414659 7.721613 20.92245 15.201641 31.483192 22.415253 10.613685 7.251378 21.221883 14.193629 31.777569 20.79977 9.929701 6.214221 19.904891 12.185679 29.883754 17.89172l2.302883 1.311932c5.367446 3.046598 10.692954 5.991006 15.970241 8.830076l1.122493.600882-.135506-.009073c-1.060575-.087389-2.138974-.195335-3.234417-.323905-3.383991-.397175-6.960327-.990713-10.713924-1.780146-3.811161-.800578-7.778659-1.796733-11.888222-2.985644-4.078673-1.179387-8.380838-2.579926-12.892584-4.198126-1.521042-.545476-3.052245-1.111349-4.593243-1.697495l-.314092-.114476c-5.01951-1.749699-9.451488.52415-11.715609 4.152036l-.159403.262829-.068019.009298c-3.160933.421622-6.650168 1.017492-10.461981 1.819698-15.643572 3.292231-33.509617 9.468523-53.485223 19.18304l-1.642113.804142c-53.713133 26.484609-114.361158 74.150388-181.223729 147.939034l-1.500935 1.659788-.114053.087128c-.181227.134806-.386313.282253-.614583.440435l-.397489.270319c-1.082146.722372-2.340925 1.454945-3.757945 2.150548l-.38393.18357-.056645.016565c-5.548426 1.641216-9.877704 7.731208-6.147731 14.505553 17.437709 31.670221 17.728302 62.698575 1.776626 78.278238-21.703 21.195601-69.094379 10.022589-105.125001-27.876987-36.087687-37.958706-45.389068-86.593395-23.580618-107.891981 13.200431-12.89163 36.481916-14.237063 62.128132-3.004809 5.276358 2.310883 11.386826-.304387 13.381982-5.666928l.094783-.265937c1.561275-4.579123 3.871817-8.969305 6.662979-12.794039 45.474907-62.319935 72.505567-122.455823 84.529629-179.84486 8.568614-40.896699 8.921958-75.517765 4.357244-108.303837l-.402281-2.814005-.259697-1.739861-.27473-1.756674-.344672-2.120438.153325-.168604c2.496437-2.833158 3.471751-7.010829 1.26179-11.200546-1.66122-3.149396-3.182386-6.248489-4.559488-9.287857-2.361251-5.214505-4.243855-10.133671-5.638992-14.715248-.169116-.555299-.331104-1.10547-.485972-1.65044zm318.051729 243.461453c6.665324-4.173925 6.126477-14.053419-.953266-17.477662-5.439608-2.630963-10.750312-5.281679-15.988361-7.985517-9.409433-4.857262-19.007102-10.081844-28.751844-15.653612-9.747938-5.573995-19.495707-11.409311-29.201204-17.48322-10.327484-6.463325-20.711606-13.258934-31.106084-20.360548-10.34836-7.068543-20.64583-14.398853-30.852725-21.966426-10.176468-7.545931-20.300848-15.353728-30.337172-23.400514-9.997744-8.015377-19.860727-16.22923-29.560298-24.622964-10.332612-8.920603-20.362284-17.935075-30.066857-27.018931-9.738326-9.116294-19.098437-18.254875-28.049269-27.381708-8.922475-9.097529-17.49491-18.246926-25.686588-27.410961-8.189242-9.161968-15.899479-18.231295-23.098947-27.16689-5.313416-6.593805-10.405443-13.185342-15.267097-19.759619-4.411794-5.965943-13.555823-5.218236-16.939822 1.385168-3.52836 6.885105-4.918547 14.99076-4.308926 24.040418.011445.1699.027228.339481.047334.508575.591779 4.977078 1.738927 10.240563 3.422863 15.769822l.317019 1.023864c1.5085 4.793233 3.423854 9.798867 5.734965 14.999591l.444887.993376-.043699.212472c-.139561.710027-.205822 1.455887-.188706 2.232792l.010285.234226.036109.45638.036963.369432.133041 1.127452.183396 1.377128.426318 2.942142.502248 3.279673 1.53619 9.695596.1149.766321c4.416445 30.944089 4.168904 63.580779-3.978872 102.468885-11.436776 54.586004-37.291994 112.106852-81.110455 172.156754l-.491336.682258c-1.625364 2.287111-3.125727 4.702386-4.477629 7.215573l-.340753.641916-.349199-.120704c-28.976571-9.879195-56.571774-6.643904-74.427005 10.793635-31.232845 30.502646-19.652315 91.054454 23.059516 135.980743 42.767696 44.98611 102.255307 59.010936 133.594038 28.404881l.696915-.692929c20.922913-21.178439 22.120521-56.826971 5.785398-92.22116l-.151663-.324466.053813-.035614c.714033-.494797 1.349928-.965239 1.906199-1.402092l.35154-.280143.421876-.349973c.039809-.033993.077254-.066313.112329-.096917.300997-.262634.585987-.543068.853436-.839794 66.71705-74.020202 126.591331-121.021819 178.805463-146.414544l2.048712-.986924c3.399375-1.621895 6.722986-3.129187 9.970294-4.526184l1.939225-.824998c12.867061-5.412206 24.511548-9.07348 34.898942-11.259534 5.058983-1.064677 9.511582-1.709182 13.347987-2.017149l.863682-.064518.810575-.051171.757371-.038632.704069-.0269.65067-.015977c.103989-.001797.20575-.003173.305279-.004144l.570388-.001106.516744.007799.556728.018284.289916.02223c1.44257.091853 2.779374-.10437 3.983788-.525253l.157974-.057746.76073.247726c2.126561.68541 4.211367 1.32358 6.253333 1.914034 4.575705 1.323767 9.024596 2.44079 13.33123 3.345447 4.326681.909961 8.496664 1.602022 12.496414 2.071468 4.007207.47032 7.879986.717661 11.60828.738174 3.863043.017691 7.510653-.204275 10.944816-.673997 3.509663-.481089 6.827208-1.224647 9.941946-2.239045 3.156518-1.029785 6.089137-2.339062 8.779903-3.934312l.318497-.194648z" fill="#000" fill-rule="nonzero"/><path d="m338.713812 45.2975471c6.730136 3.812 14.983704 11.4470618 24.362415 21.9532989l.004156.0120366c-23.158974-3.4435969-49.149005-4.2213277-69.655435 6.9377489-23.252405 12.6529806-27.504858 37.6029915-22.626317 61.2506435 11.184606 54.21016 48.470212 103.651635 83.816235 145.496714 73.549246 87.071686 165.941386 161.797137 265.364648 219.354275 48.553045 28.108545 100.556031 53.51501 155.596944 66.957362 40.453747 9.879363 109.169691 16.058545 118.362649-34.905225 7.021471 4.368543 13.414688 8.658847 19.060893 12.8451-14.900199 27.368194-54.811202 91.251066-87.739912 137.334449-32.928711 46.083382-113.906773 45.066019-157.368854 34.410834-56.207501-13.780477-109.312687-39.826009-158.894811-68.641588-101.530532-59.004913-195.880917-135.609985-270.989035-224.871846-36.09518-42.897638-74.171052-93.582749-85.592715-149.156494-4.981941-24.242479-12.033895-54.060457 18.848345-89.927435 30.88224-35.866977 114.97508-168.7712725 167.450794-139.0498739z" fill="#000" stroke="#000" stroke-linecap="round" stroke-linejoin="round" stroke-width="20"/><path d="m893.880309 527.826492c-2.858534 60.383756-75.638761 54.048411-117.5869 43.593407-54.249589-13.52158-105.504928-39.077789-153.359926-67.352003-97.993854-57.896374-189.057672-133.06225-261.549502-220.647129-34.837853-42.091711-71.587404-91.824589-82.611209-146.354258-4.808402-23.78703-.617087-48.8840937 22.301019-61.6116498 23.234071-12.9034209 53.610236-9.9400466 78.679664-5.2759438 57.98074 10.7856719 113.184588 37.8130366 163.832383 66.9760526 51.263821 29.518958 99.689253 64.013731 145.157545 101.714088 46.442696 38.507017 90.460515 80.713514 128.134636 127.82527 34.462511 43.094246 79.754796 102.954619 77.00229 161.132166z" stroke="#000" stroke-linejoin="round" stroke-width="20"/></g></svg>