<?xml version="1.0" encoding="UTF-8" standalone="no"?>
<svg
   version="1.2"
   id="Layer_1"
   x="0px"
   y="0px"
   viewBox="0 0 50.3 50.3"
   xml:space="preserve"
   sodipodi:docname="icon.svg"
   inkscape:version="1.1 (c68e22c387, 2021-05-23)"
   xmlns:inkscape="http://www.inkscape.org/namespaces/inkscape"
   xmlns:sodipodi="http://sodipodi.sourceforge.net/DTD/sodipodi-0.dtd"
   xmlns="http://www.w3.org/2000/svg"
   xmlns:svg="http://www.w3.org/2000/svg"
   xmlns:rdf="http://www.w3.org/1999/02/22-rdf-syntax-ns#"
   xmlns:cc="http://creativecommons.org/ns#"
   xmlns:dc="http://purl.org/dc/elements/1.1/"><metadata
   id="metadata19"><rdf:RDF><cc:Work
       rdf:about=""><dc:format>image/svg+xml</dc:format><dc:type
         rdf:resource="http://purl.org/dc/dcmitype/StillImage" /></cc:Work></rdf:RDF></metadata><defs
   id="defs17" /><sodipodi:namedview
   pagecolor="#ffffff"
   bordercolor="#666666"
   borderopacity="1"
   objecttolerance="10"
   gridtolerance="10"
   guidetolerance="10"
   inkscape:pageopacity="0"
   inkscape:pageshadow="2"
   inkscape:window-width="1680"
   inkscape:window-height="987"
   id="namedview15"
   showgrid="false"
   inkscape:zoom="11.313709"
   inkscape:cx="20.285126"
   inkscape:cy="22.671611"
   inkscape:window-x="-8"
   inkscape:window-y="-8"
   inkscape:window-maximized="1"
   inkscape:current-layer="Layer_1"
   inkscape:document-rotation="0"
   inkscape:pagecheckerboard="0" />






<path
   style="fill:none;fill-opacity:1;stroke:#000000;stroke-width:0.1;stroke-linecap:butt;stroke-linejoin:miter;stroke-miterlimit:4;stroke-dasharray:none;stroke-opacity:1"
   d="M 9.140625,18.71875 9.171875,17.734375 11.1875,16.625 l -0.859375,-0.21875 -1.84375,1.0625 24.132686,9.219923 3.855188,1.440499 -0.03504,1.578125 -28.0211815,-11.312258 0.00206,-0.919817"
   id="path952"
   sodipodi:nodetypes="cccccccccc" /><path
   style="fill:none;fill-opacity:1;stroke:#000000;stroke-width:0.1;stroke-linecap:butt;stroke-linejoin:miter;stroke-miterlimit:4;stroke-dasharray:none;stroke-opacity:1"
   d="m 11.1875,16.625 24.366713,7.935912"
   id="path2080" /><path
   style="fill:#000000;fill-opacity:1;stroke:#000000;stroke-width:0.1;stroke-linecap:butt;stroke-linejoin:miter;stroke-miterlimit:4;stroke-dasharray:none;stroke-opacity:1"
   d="M 8.416028,18.395039 8.1367193,18.53125 c -0.059995,0.02926 -0.059913,0.09086 0.082031,0.14845 l 32.039063,13 c 0.154359,0.06266 0.32824,0.06816 0.49481,0.07006 0.177415,0.0021 0.366828,0.01055 0.528627,-0.06226 L 43,30.914063 c 0.350264,-0.157619 0.55109,-0.609677 0.58594,-0.992196 l 0.34375,-3.773437 c 0.04278,-0.46959 -0.05565,-1.186563 -0.507813,-1.320313 0,0 0,0 -33.09375,-9.789062 -0.0874,-0.02585 -0.17873,0.08217 -0.21875,0.164062 -0.0012,0.0024 9.8e-5,0.0054 1.46e-4,0.0081 L 10.132813,16.5 8.4180875,17.475222 Z"
   id="path2195"
   sodipodi:nodetypes="csassssssasssc" /><path
   style="fill:none;fill-opacity:1;stroke:#ffffff;stroke-width:0.1;stroke-linecap:butt;stroke-linejoin:miter;stroke-miterlimit:4;stroke-dasharray:none;stroke-opacity:1"
   d="m 32.84732,26.792718 v 1.458408"
   id="path1770" /><path
   style="fill:none;fill-opacity:1;stroke:#ffffff;stroke-width:0.1;stroke-linecap:butt;stroke-linejoin:miter;stroke-miterlimit:4;stroke-dasharray:none;stroke-opacity:1"
   d="m 32.84732,26.792718 2.706893,-2.231806 3.535534,1.204291 -2.617498,2.363969"
   id="path1965" /><path
   style="fill:none;fill-opacity:1;stroke:#ffffff;stroke-width:0.1;stroke-linecap:butt;stroke-linejoin:miter;stroke-miterlimit:4;stroke-dasharray:none;stroke-opacity:1"
   d="m 39.089747,25.765203 1.96664,0.795495 c 0.281287,0.113779 0.302946,0.691426 0.08839,0.905981 -0.497185,0.497184 -0.302286,0.367007 -0.497185,0.497184 -0.09612,0.0642 -0.230676,0.05973 -0.320407,0.132583 -0.141951,0.115255 -0.186056,0.317972 -0.30936,0.45299 -0.128785,0.141019 0,0 -0.441941,0.364602 -0.183602,0.151472 -0.483803,0.181838 -0.707107,0.09944 L 36.47225,28.129175"
   id="path4571"
   sodipodi:nodetypes="cssaaassc" /><path
   style="fill:none;fill-opacity:1;stroke:#ffffff;stroke-width:0.1;stroke-linecap:butt;stroke-linejoin:miter;stroke-miterlimit:4;stroke-dasharray:none;stroke-opacity:1"
   d="m 41.11163,26.571747 c 0,0 0.400336,0.161618 0.386699,0.486136 -0.05525,1.314777 -0.05525,1.314777 -0.05525,1.314777"
   id="path6282"
   sodipodi:nodetypes="csc" /><path
   style="fill:none;fill-opacity:1;stroke:#ffffff;stroke-width:0.1;stroke-linecap:butt;stroke-linejoin:miter;stroke-miterlimit:4;stroke-dasharray:none;stroke-opacity:1"
   d="m 36.437209,29.707297 2.078013,0.73144 c 0.399441,0.140599 0.837734,0.14528 1.314777,-0.07734 l 0.662912,-0.309359"
   id="path6986"
   sodipodi:nodetypes="cssc" /><path
   style="fill:none;fill-opacity:1;stroke:#ffffff;stroke-width:0.1;stroke-linecap:butt;stroke-linejoin:miter;stroke-miterlimit:4;stroke-dasharray:none;stroke-opacity:1"
   d="m 40.017824,28.560485 c 0,0 -0.177081,0.47406 -0.154679,0.82864 0.0322,0.509754 0.629766,0.662913 0.629766,0.662913"
   id="path7766"
   sodipodi:nodetypes="csc" /><path
   style="fill:none;fill-opacity:1;stroke:#ffffff;stroke-width:0.1;stroke-linecap:butt;stroke-linejoin:miter;stroke-miterlimit:4;stroke-dasharray:none;stroke-opacity:1"
   d="m 40.669688,27.963863 c 0,0 0.267182,0.01957 0.364602,0.09944 0.06368,0.05221 0.110486,0.220971 0.110486,0.220971"
   id="path8280"
   sodipodi:nodetypes="cac" /><path
   style="fill:none;fill-opacity:1;stroke:#ffffff;stroke-width:0.1;stroke-linecap:butt;stroke-linejoin:miter;stroke-miterlimit:4;stroke-dasharray:none;stroke-opacity:1"
   d="m 41.144776,28.284274 -0.419845,-0.05524 -0.342505,0.276213 -0.198873,0.541379 -0.0221,0.508233 0.331456,0.497184 0.375651,0.03315 0.596622,-0.132583 0.331456,-0.673961 0.0221,-0.53033 -0.375659,-0.375659 z"
   id="path8490"
   sodipodi:nodetypes="cccccccccccc" /><path
   style="fill:none;fill-opacity:1;stroke:#ffffff;stroke-width:0.1;stroke-linecap:butt;stroke-linejoin:miter;stroke-miterlimit:4;stroke-dasharray:none;stroke-opacity:1"
   d="m 41.818738,28.748319 -0.320409,-0.232028 -0.309359,0.07734 -0.15468,0.15468 -0.243068,0.640816 0.05524,0.408796 0.187825,0.243068 0.430892,-0.08838"
   id="path8624" /><path
   style="fill:none;fill-opacity:1;stroke:#ffffff;stroke-width:0.1;stroke-linecap:butt;stroke-linejoin:miter;stroke-miterlimit:4;stroke-dasharray:none;stroke-opacity:1"
   d="M 41.03429,28.748311 40.382426,28.505247"
   id="path8739" /><path
   style="fill:none;fill-opacity:1;stroke:#ffffff;stroke-width:0.1;stroke-linecap:butt;stroke-linejoin:miter;stroke-miterlimit:4;stroke-dasharray:none;stroke-opacity:1"
   d="M 40.791222,29.389127 40.161455,29.234446"
   id="path8741" /><path
   style="fill:none;fill-opacity:1;stroke:#ffffff;stroke-width:0.1;stroke-linecap:butt;stroke-linejoin:miter;stroke-miterlimit:4;stroke-dasharray:none;stroke-opacity:1"
   d="m 40.945902,29.908407 -0.640816,-0.07734"
   id="path8743" /><path
   style="fill:none;fill-opacity:1;stroke:#ffffff;stroke-width:0.1;stroke-linecap:butt;stroke-linejoin:miter;stroke-miterlimit:4;stroke-dasharray:none;stroke-opacity:1"
   d="M 41.498329,28.516291 40.724931,28.229034"
   id="path8877"
   sodipodi:nodetypes="cc" /><path
   style="fill:none;fill-opacity:1;stroke:#ffffff;stroke-width:0.1;stroke-linecap:butt;stroke-linejoin:miter;stroke-miterlimit:4;stroke-dasharray:none;stroke-opacity:1"
   d="m 41.465184,28.74831 -0.353554,0.165728 -0.08839,0.364602 0.02209,0.364603 0.29831,3e-6 0.220971,-0.243068 0.01105,-0.342505 z"
   id="path9163"
   sodipodi:nodetypes="cccccccc" /><path
   style="fill:none;fill-opacity:1;stroke:#ffffff;stroke-width:0.1;stroke-linecap:butt;stroke-linejoin:miter;stroke-miterlimit:4;stroke-dasharray:none;stroke-opacity:1"
   d="M 41.575661,29.057673 41.02324,29.27864"
   id="path9278" /><path
   style="fill:none;stroke:#000000;stroke-width:0.1;stroke-linecap:butt;stroke-linejoin:miter;stroke-miterlimit:4;stroke-dasharray:none;stroke-opacity:1"
   d="m 8.4180875,17.508369 c 0,0 -1.0617142,0.283715 -1.5900876,0.434467 -0.5837928,0.166563 -1.1437468,0.44025 -1.7456699,0.519281 -0.7817298,0.10264 -1.5943484,0.103045 -2.3643883,-0.06629 -0.2465387,-0.05421 -0.6960582,-0.29831 -0.6960582,-0.29831"
   id="path9754"
   sodipodi:nodetypes="caaac" /><path
   style="fill:none;stroke:#000000;stroke-width:0.1;stroke-linecap:butt;stroke-linejoin:miter;stroke-miterlimit:4;stroke-dasharray:none;stroke-opacity:1"
   d="m 8.4180875,17.696193 c 0,0 -1.0617142,0.283715 -1.5900876,0.434467 C 6.2442071,18.297223 5.6842531,18.57091 5.08233,18.649941 4.3006002,18.752581 3.4879816,18.752986 2.7179417,18.58365 2.471403,18.529435 2.0218835,18.28534 2.0218835,18.28534"
   id="path9935"
   sodipodi:nodetypes="caaac" /><path
   style="fill:#ffffff;fill-opacity:1;stroke:#ffffff;stroke-width:0.1;stroke-linecap:butt;stroke-linejoin:miter;stroke-miterlimit:4;stroke-dasharray:none;stroke-opacity:1"
   d="m 11.1875,16.625 -2.015625,1.109375 23.675445,9.058343 2.706893,-2.231806 z"
   id="path9988" /><path
   style="fill:none;stroke:#ffffff;stroke-width:0.1;stroke-linecap:butt;stroke-linejoin:miter;stroke-opacity:1;stroke-miterlimit:4;stroke-dasharray:none"
   d="M 36.437209,29.707297 8.4160275,18.395039"
   id="path16646" /><path
   style="fill:none;stroke:#ffffff;stroke-width:0.1;stroke-linecap:butt;stroke-linejoin:miter;stroke-opacity:1;stroke-miterlimit:4;stroke-dasharray:none"
   d="m 32.84732,26.792718 3.62493,1.336457"
   id="path16995" /><path
   style="fill:none;stroke:#ffffff;stroke-width:0.1;stroke-linecap:butt;stroke-linejoin:miter;stroke-opacity:1;stroke-miterlimit:4;stroke-dasharray:none"
   d="M 8.4180875,17.475222 9.296875,17.742187"
   id="path17308" /><path
   style="fill:none;stroke:#ffffff;stroke-width:0.1;stroke-linecap:butt;stroke-linejoin:miter;stroke-miterlimit:4;stroke-dasharray:none;stroke-opacity:1"
   d="M 10.308713,16.358035 11.1875,16.625"
   id="path17614" /></svg>
