<?xml version="1.0" encoding="utf-8"?>
<!-- Generator: Adobe Illustrator 23.0.6, SVG Export Plug-In . SVG Version: 6.00 Build 0)  -->
<svg version="1.1" id="Layer_1" xmlns="http://www.w3.org/2000/svg" xmlns:xlink="http://www.w3.org/1999/xlink" x="0px" y="0px"
	 viewBox="0 0 435 1183" style="enable-background:new 0 0 435 1183;" xml:space="preserve">
<style type="text/css">
	.st0{fill:#FFFFFF;}
</style>
<g id="GGv5jC_1_">
	<g>
		<g>
			<path class="st0" d="M173,898.2l0.2,0.1L173,898.2l0.1,0c0.5-0.2,1.3-0.6,1.6-0.4c2.3,1.4,4.4,3,6.6,4.5
				c3.6,2.5,7.2,5.1,10.9,7.4c1.1,0.7,2.9,0.8,4.2,0.4c19.5-6.2,39-12.5,58.6-18.8c0.9-0.3,2.2-0.5,2.4-1.1c1.2-2.8,3.5-2.1,5.6-2.2
				c1.4-0.1,2.8-0.2,4-0.6c17.8-5.7,35.5-11.5,53.3-17c3.5-1.1,4.5-2.5,4.5-6.2c-0.1-133-0.1-266-0.1-398.9
				c0-73.5,0-146.9,0.1-220.4c0-2.7-1.4-3-3.3-3.4c-23.9-5.5-47.8-11.1-71.8-16.5c-5.3-1.2-10.7-3.1-16-2.7
				c-16.1,1.1-32.1,3.2-48.1,4.9c-23.2,2.5-46.3,5-69.5,7.4c-6,0.6-6,0.5-6,6.4c-0.1,201.9-0.2,403.8-0.2,605.7c0,2.4,1,5.4,2.7,7
				c5.6,5.4,11.6,10.5,17.7,15.4c5.4,4.3,11.1,8.3,16.9,12.1c3.9,2.6,8,4.8,12.1,7.2l-0.2-0.2c3.9,3,7.3,6.9,12.2,8.6
				c0.6,0.2,0.9,0.9,1.4,1.4C172.8,898.2,173,898.2,173,898.2z"/>
			<path class="st0" d="M159.4,888.4c-4-2.4-8.2-4.5-12.1-7.2c-5.7-3.9-11.4-7.8-16.9-12.1c-6.1-4.9-12.1-10-17.7-15.4
				c-1.6-1.6-2.7-4.6-2.7-7c0-201.9,0.1-403.8,0.2-605.7c0-5.9,0-5.8,6-6.4c23.2-2.4,46.3-4.9,69.5-7.4c16-1.7,32-3.8,48.1-4.9
				c5.2-0.4,10.7,1.5,16,2.7c23.9,5.5,47.8,11,71.8,16.5c1.9,0.4,3.3,0.7,3.3,3.4c-0.1,73.5-0.1,146.9-0.1,220.4
				c0,133,0,266,0.1,398.9c0,3.7-1,5.1-4.5,6.2c-17.8,5.5-35.5,11.3-53.3,17c-1.3,0.4-2.7,0.5-4,0.6c-2.1,0.1-4.4-0.6-5.6,2.2
				c-0.3,0.6-1.6,0.8-2.4,1.1c-19.5,6.3-39,12.6-58.6,18.8c-1.2,0.4-3.1,0.3-4.2-0.4c-3.7-2.3-7.3-4.9-10.9-7.4
				c-2.2-1.5-4.4-3.1-6.6-4.5c-0.3-0.2-1,0.3-1.6,0.4c-0.1-0.1-0.3-0.1-0.4-0.1c-0.5-0.5-0.8-1.2-1.4-1.4c-4.9-1.8-8.3-5.6-12.2-8.6
				C159.2,888.2,159.4,888.4,159.4,888.4z M307.2,529.5c0-87.2,0-174.3,0-261.9c-31.8,4-63.4,7.9-95,11.8c0,93.6,0,186.9,0,280.3
				c0.8-0.1,1.4-0.2,2-0.3c13.7-2.9,27.5-5.8,41.2-8.7c15.9-3.4,31.7-6.9,47.6-10.4c3.2-0.7,4.1-4.1,4.1-6 M127.2,530.3
				C125.5,534.9,122,527.8,127.2,530.3c13.4,6.5,26.9,13,40.4,19.5c4.9,2.3,9.8,4.7,15.3,7.3c0-2.7,0-4.9,0-7.1
				c0-30.6-0.1-61.3-0.1-91.9c0-58.6,0-117.2,0.1-175.8c0-3.2-1.1-4.3-4-5.1c-11-2.9-21.8-6.1-32.8-9.2c-6.2-1.7-12.4-3.4-18.9-5.2
				c0,86.2,0,172,0,258"/>
			<path class="st0" d="M159.4,888.4c0,0-0.2-0.2-0.2-0.2C159.2,888.2,159.4,888.4,159.4,888.4z"/>
			<path class="st0" d="M173.2,898.3l0-0.1l-0.1,0.1c0,0-0.2,0-0.2,0C172.9,898.2,173,898.2,173.2,898.3z"/>
			<polygon class="st0" points="173.1,898.1 173.2,898.3 173,898.2 			"/>
			<path class="st0" d="M302.9,540.2c-15.8,3.5-31.7,7-47.6,10.4c-13.7,3-27.5,5.8-41.2,8.7c-0.6,0.1-1.1,0.2-2,0.3
				c0-93.4,0-186.6,0-280.3c31.6-3.9,63.1-7.8,95-11.8c0,87.6,0,174.7,0,261.9c0.1,2.4,0.1,2,0.1,2.4"/>
		</g>
	</g>
</g>
</svg>
