<svg height="960" viewBox="0 0 960 960" width="960" xmlns="http://www.w3.org/2000/svg"><g fill="#000" fill-rule="evenodd"><path d="m800 1h-640c-87.8132752 0-159 71.1867248-159 159v640c0 87.813275 71.1867248 159 159 159h640c87.813275 0 159-71.186725 159-159v-640c0-87.8132752-71.186725-159-159-159zm-640 40h640c65.721885 0 119 53.2781148 119 119v640c0 65.721885-53.278115 119-119 119h-640c-65.7218852 0-119-53.278115-119-119v-640c0-65.7218852 53.2781148-119 119-119z" fill-rule="nonzero"/><circle cx="480" cy="480" r="127"/><circle cx="480" cy="204" r="28"/><path d="m480 285c-107.695526 0-195 87.304474-195 195s87.304474 195 195 195 195-87.304474 195-195-87.304474-195-195-195zm0 20c96.649831 0 175 78.350169 175 175s-78.350169 175-175 175-175-78.350169-175-175 78.350169-175 175-175z" fill-rule="nonzero"/></g></svg>