<?xml version="1.0" encoding="UTF-8" standalone="no"?>
<svg
   xmlns:dc="http://purl.org/dc/elements/1.1/"
   xmlns:cc="http://creativecommons.org/ns#"
   xmlns:rdf="http://www.w3.org/1999/02/22-rdf-syntax-ns#"
   xmlns:svg="http://www.w3.org/2000/svg"
   xmlns="http://www.w3.org/2000/svg"
   xml:space="preserve"
   viewBox="0 0 50.5 50.5"
   y="0px"
   x="0px"
   id="Layer_1"
   version="1.2"><metadata
   id="metadata15"><rdf:RDF><cc:Work
       rdf:about=""><dc:format>image/svg+xml</dc:format><dc:type
         rdf:resource="http://purl.org/dc/dcmitype/StillImage" /><dc:title></dc:title></cc:Work></rdf:RDF></metadata><defs
   id="defs13" />




<path
   id="Shape"
   style="fill:#000000;fill-rule:nonzero;stroke:none;stroke-width:0.11935846"
   d="M 25.318435,0.25767001 C 15.976352,0.25770337 8.402819,2.0425387 8.401705,4.243822 l -0.0457,1.1390369 c 2.39e-4,0.5867456 0.552466,1.1433233 1.51879,1.6449071 l 0.0077,0.2676249 c 0.08092,3.2267821 0.277023,7.3730521 0.780026,11.1021991 0.503004,3.729205 1.236577,7.022608 2.719602,8.712002 l 4.156798,4.734475 0.593062,12.221418 c 0.297246,1.294481 2.004302,2.431464 2.873229,2.662957 l 0.09791,0.06761 0.0033,8.36e-4 v 1.082619 c -0.431561,0.106537 -0.687807,0.27754 -0.688642,0.460183 3.58e-4,0.003 5.85e-4,0.0057 0.0012,0.0086 h -0.0012 v 1.454445 h 0.0023 c -0.0011,0.0057 -0.0018,0.01171 -0.0023,0.01748 0,0.313787 0.740658,0.567885 1.653533,0.567885 0.91282,0 1.652602,-0.254118 1.652602,-0.567885 -4.59e-4,-0.0057 -0.0012,-0.01171 -0.0023,-0.01748 h 0.0023 V 48.34829 h -0.0012 c 4.59e-4,-0.003 5.86e-4,-0.0057 0.0012,-0.0086 -1.18e-4,-0.172449 -0.22846,-0.334912 -0.620104,-0.442698 v -0.779097 c 1.49227,0.206205 3.026417,0.299167 4.614885,0.08486 v 0.659269 c -0.431569,0.106537 -0.688919,0.277536 -0.689811,0.460182 3.59e-4,0.003 0.0018,0.006 0.0023,0.0089 h -0.0023 v 1.454451 h 0.0035 c -0.0011,0.0057 -0.003,0.01144 -0.0035,0.01724 0,0.313783 0.740892,0.567885 1.653768,0.567885 0.912819,0 1.652369,-0.254119 1.652369,-0.567885 -4.6e-4,-0.0057 -9.63e-4,-0.01144 -0.002,-0.01724 h 0.002 v -1.454451 h -9.63e-4 c 4.62e-4,-0.003 3.58e-4,-0.006 9.63e-4,-0.0089 -1.2e-4,-0.172452 -0.228463,-0.334911 -0.620104,-0.442697 v -1.173768 c 1.547917,-0.469908 2.499004,-1.651278 3.102852,-2.94503 l 0.131484,-11.518793 c 1.740695,-1.573706 2.68783,-3.131442 3.954683,-4.602991 1.971576,-2.29007 2.841385,-5.777193 3.280027,-9.452868 0.438607,-3.675727 0.425008,-7.559256 0.480698,-10.6277969 l 0.0098,-0.5329172 C 41.639187,6.5240838 42.189645,5.9687275 42.18998,5.3825333 L 42.23568,4.243502 C 42.234547,2.0421043 34.660996,0.25755277 25.318912,0.25755277 Z m 0.02518,0.73107131 C 33.780068,0.9886746 40.619616,2.4757868 40.62103,4.3102622 40.621615,5.1913979 39.012361,6.0363415 36.147186,6.6594316 33.28201,7.2825244 29.395813,7.6325157 25.343612,7.6324817 21.291605,7.6324531 17.40544,7.2825204 14.540506,6.6594316 11.675572,6.036347 10.066517,5.191357 10.067128,4.3102622 10.068544,2.4758821 16.907593,0.98880804 25.343612,0.98874132 Z M 11.02153,7.5028693 12.012298,7.8520871 c 1.639655,0.4880419 3.760949,0.8808129 6.182862,1.145562 0.02111,1.9071819 0.235369,5.2116109 1.16188,8.2627739 0.514243,1.693406 1.243465,3.286563 2.296483,4.464519 1.053018,1.177952 2.449698,1.933473 4.212282,1.897378 1.745042,-0.03568 3.090972,-0.878075 4.077538,-2.127938 0.986567,-1.249862 1.637279,-2.902869 2.078983,-4.631198 0.774571,-3.030663 0.895026,-6.207686 0.9192,-7.933842 1.783362,-0.2159058 3.394257,-0.5014517 4.7431,-0.8452991 l 1.853786,-0.566955 c -0.0474,2.9937921 -0.05754,7.1542821 -0.461114,10.5364131 -0.427274,3.580706 -1.313773,6.877932 -3.018931,8.858636 -1.589023,1.818789 -2.748981,3.55736 -4.219975,4.855232 l -0.132885,11.626262 c -0.446819,1.225856 -1.269792,2.202216 -2.686033,2.414211 -1.232429,0.184487 -5.976534,0.445186 -7.465965,-0.07297 -1.064484,-0.37023 -2.382104,-1.40115 -2.327017,-2.121412 L 18.634595,31.40067 14.221129,26.372229 C 13.126671,25.125486 12.261204,21.905279 11.767754,18.24676 11.301051,14.786674 11.10993,10.6243 11.02153,7.5028693 Z m 21.359803,1.4929129 c -0.02346,1.6985718 -0.138601,4.7784858 -0.893324,7.7314878 -0.430292,1.68355 -1.065377,3.27086 -1.977807,4.426754 -0.912429,1.155899 -2.079014,1.88559 -3.656286,1.917896 -1.602613,0.0328 -2.81719,-0.626172 -3.789165,-1.713447 -0.971972,-1.087274 -1.680245,-2.611858 -2.180157,-4.257973 -0.899562,-2.962428 -1.10537,-6.185575 -1.125978,-8.0459697 2.007277,0.1988263 4.199216,0.3144679 6.514127,0.3144815 2.543898,-1.77e-5 4.947634,-0.1352551 7.10859,-0.3732296 z" />

    <path stroke="#000000" stroke-width="1.2" transform="translate(35,32) scale(.5,.5)" fill="none" d="M11 9.791v-9.791l8 7-5.586 4.972 5.586 5.028-8 7v-9.847l-4.659 4.211-1.341-1.484 5.431-4.908-5.431-4.908 1.341-1.484 4.659 4.211zm1.998 9.803l2.987-2.614-2.989-2.686.002 5.3zm.002-9.948l2.974-2.636-2.974-2.602v5.238z"/>
</svg>