<svg height="960" viewBox="0 0 960 960" width="960" xmlns="http://www.w3.org/2000/svg"><g fill="#000" fill-rule="evenodd"><path d="m912.96 763.938462h-682.264151-5.458113-10.916227c-54.581132-5.446154-103.704151-21.784616-136.4528298-49.015385-16.3743396-10.892308-27.290566-21.784615-32.7486792-38.123077v70.8 32.676923c0 59.907692 16.3743396 103.476923 43.6649057 130.707692 32.7486793 32.676923 70.9554713 49.015385 130.9947173 49.015385h10.916226 682.264151zm-594.93434 54.461538h125.536604v81.692308h-125.536604zm207.408302 0h130.994717v81.692308h-130.994717zm212.866415 0h125.536604v81.692308h-125.536604zm-496.688302 81.692308c-21.832452 0-43.664905 0-65.497358-5.446154-21.832453 0-43.664906-5.446154-65.497359-21.784616 0-10.892307 0-21.784615 0-32.676923 0-16.338461 0-27.230769 0-38.123077 21.832453 10.892308 43.664906 16.338462 65.497359 16.338462 21.832453 5.446154 43.664906 0 65.497358 0v43.569231z"/><path d="m143.824 737.32c-5.457455-92.775652 38.202182-147.349565 125.521455-152.806957l491.170909-27.286956c87.319272-10.914783 147.351272-65.488696 163.723636-163.721739 0 0 0-5.457391 0-10.914783-5.457455-76.403478-38.202182-125.52-98.234182-147.349565 5.457455 92.775652-38.202182 141.892174-125.521454 147.349565l-513.000728 32.744348c-87.319272 5.457391-147.3512724 60.031304-163.723636 152.806957v10.914782c10.9149091 87.318261 49.1170909 136.434783 120.064 158.264348z"/><path d="m737.758491 197.061538c16.374339 0 32.748679 5.446154 49.123018 5.446154 16.37434 5.446154 32.74868 10.892308 49.123019 16.338462 27.290566 10.892308 54.581132 32.676923 70.955472 59.907692v5.446154-70.8-32.676923c0-59.907692-16.37434-103.4769232-43.664906-136.1538462-27.290566-27.2307693-70.955471-43.5692308-125.536603-43.5692308h-16.37434-682.264151v196.061538h682.264151 5.458113zm-654.9735853-136.1538457h125.5366033v76.2461537h-125.5366033zm207.4083023 0h130.994717v76.2461537h-130.994717zm212.866415 0h125.536603v76.2461537h-125.536603zm207.408302 0c21.832452 0 43.664905-5.4461538 65.497358 0 16.37434 5.4461539 38.206792 10.8923077 60.039245 21.7846154v38.1230773 38.123077c-21.832453-10.892308-43.664905-21.784616-60.039245-21.784616-21.832453 0-43.664906 0-65.497358 0 0-10.892308 0-27.230769 0-38.1230768 0-10.8923077 0-27.2307692 0-38.1230769z"/><path d="m906.96 764.938462h-682.264151-5.458113-10.916227c-54.581132-5.446154-103.704151-21.784616-136.4528298-49.015385-16.3743396-10.892308-27.290566-21.784615-32.7486792-38.123077v70.8 32.676923c0 59.907692 16.3743396 103.476923 43.6649057 130.707692 32.7486793 32.676923 70.9554713 49.015385 130.9947173 49.015385h10.916226 682.264151zm-594.93434 54.461538h125.536604v81.692308h-125.536604zm207.408302 0h130.994717v81.692308h-130.994717zm212.866415 0h125.536604v81.692308h-125.536604zm-496.688302 81.692308c-21.832452 0-43.664905 0-65.497358-5.446154-21.832453 0-43.664906-5.446154-65.497359-21.784616 0-10.892307 0-21.784615 0-32.676923 0-16.338461 0-27.230769 0-38.123077 21.832453 10.892308 43.664906 16.338462 65.497359 16.338462 21.832453 5.446154 43.664906 0 65.497358 0v43.569231z"/></g></svg>