<?xml version="1.0" encoding="UTF-8" standalone="no"?>
<!-- Generator: Adobe Illustrator 19.2.1, SVG Export Plug-In . SVG Version: 6.00 Build 0)  -->

<svg
   xmlns:dc="http://purl.org/dc/elements/1.1/"
   xmlns:cc="http://creativecommons.org/ns#"
   xmlns:rdf="http://www.w3.org/1999/02/22-rdf-syntax-ns#"
   xmlns:svg="http://www.w3.org/2000/svg"
   xmlns="http://www.w3.org/2000/svg"
   xmlns:sodipodi="http://sodipodi.sourceforge.net/DTD/sodipodi-0.dtd"
   xmlns:inkscape="http://www.inkscape.org/namespaces/inkscape"
   version="1.2"
   id="Layer_1"
   x="0px"
   y="0px"
   viewBox="0 0 50.8 50.8"
   xml:space="preserve"
   sodipodi:docname="icon.svg"
   inkscape:version="0.92.3 (2405546, 2018-03-11)"><metadata
   id="metadata37"><rdf:RDF><cc:Work
       rdf:about=""><dc:format>image/svg+xml</dc:format><dc:type
         rdf:resource="http://purl.org/dc/dcmitype/StillImage" /></cc:Work></rdf:RDF></metadata><defs
   id="defs35"><inkscape:perspective
     sodipodi:type="inkscape:persp3d"
     inkscape:vp_x="-12.922613 : -26.022804 : 1"
     inkscape:vp_y="0 : 761.808 : 0"
     inkscape:vp_z="-1.1744217 : -26.022804 : 1"
     inkscape:persp3d-origin="-7.0485173 : -32.472779 : 1"
     id="perspective856" /></defs><sodipodi:namedview
   pagecolor="#ffffff"
   bordercolor="#666666"
   borderopacity="1"
   objecttolerance="10"
   gridtolerance="10"
   guidetolerance="10"
   inkscape:pageopacity="0"
   inkscape:pageshadow="2"
   inkscape:window-width="1680"
   inkscape:window-height="987"
   id="namedview33"
   showgrid="false"
   inkscape:zoom="9.2913387"
   inkscape:cx="23.719754"
   inkscape:cy="15.068902"
   inkscape:window-x="-8"
   inkscape:window-y="-8"
   inkscape:window-maximized="1"
   inkscape:current-layer="layer3" />













<g
   inkscape:groupmode="layer"
   id="layer2"
   inkscape:label="Layer 2" /><g
   inkscape:groupmode="layer"
   id="layer3"
   inkscape:label="Layer 3"><path
     style="fill:#000000;stroke-width:0.29238531"
     d="m 29.297887,25.35728 c 0.444641,0.634265 2.221653,2.698311 3.948916,4.586761 4.521669,4.943641 7.560445,8.456484 7.79158,9.007116 0.110416,0.263058 2.00804,1.78876 4.216932,3.390454 3.533219,2.561974 4.490372,3.428903 3.769887,3.414515 -0.110655,-0.0022 -0.871384,-0.499235 -1.690505,-1.104496 -1.191854,-0.880685 -1.61848,-1.053075 -2.136071,-0.863134 -0.616908,0.226387 -0.590059,0.277749 0.581544,1.112488 1.865785,1.329333 2.265811,1.74735 1.836072,1.918655 -0.243275,0.09698 -1.307582,-0.562838 -2.933086,-1.818351 -3.936232,-3.04028 -4.471179,-3.359923 -4.968254,-2.968627 -1.15912,0.912456 -5.272553,-0.210138 -10.566129,-2.883589 C 23.290602,36.190478 18.584499,33.063757 14.673777,29.531923 11.315976,26.499451 11.184418,26.346459 11.295659,25.603604 11.373893,25.081198 11.166122,24.594592 10.654665,24.102405 9.9223843,23.397704 9.6860744,21.958711 10.181155,21.21898 10.290757,21.055221 9.9966857,20.258843 9.5276785,19.449265 9.0586641,18.639684 8.6950851,17.597104 8.719727,17.13242 c 0.053495,-1.008887 1.0332488,-1.867442 2.056814,-1.802371 1.527458,0.09709 4.571708,1.583112 9.331613,4.555108 l 1.141032,0.712436 -1.025775,-1.031902 C 18.624611,17.957353 11.762952,12.164879 7.9675768,9.2195552 6.0786227,7.7536715 3.8857431,6.0441989 3.0945126,5.4207302 L 1.6559069,4.2871492 2.4168308,3.8066719 C 3.1487681,3.3444812 3.2594096,3.377766 5.3220373,4.6805525 11.865158,8.8132852 14.202029,10.676907 21.471309,17.559363 c 3.859982,3.654589 7.381949,7.163651 7.826593,7.797916 z m -9.974323,-8.791649 c -0.262733,0.206823 -0.569754,0.28745 -0.682276,0.179174 -0.112516,-0.108283 -0.02813,-0.335776 0.187514,-0.505535 0.347526,-0.273572 0.120082,-0.545474 -2.000908,-2.39201 -1.517566,-1.321186 -2.590651,-2.080478 -2.933261,-2.075495 -0.41999,0.0061 -0.433693,0.03587 -0.06156,0.133725 0.320826,0.08437 0.339613,0.151134 0.05698,0.20246 -0.601035,0.109079 -0.87207,-0.242494 -0.445653,-0.578168 0.380786,-0.299756 0.416838,-0.267959 -3.109117,-2.7423915 C 9.5420334,8.2306984 8.823144,7.7094174 8.7377576,7.6289877 8.6524219,7.5485266 8.4212975,7.6096676 8.2242471,7.7647718 8.0271949,7.9198875 7.7224485,7.9086923 7.5470275,7.7398689 7.3716033,7.5710563 7.3924532,7.4030841 7.5933722,7.3665913 8.0996669,7.2745728 7.5657368,6.8135153 5.0457854,5.1664537 3.8502725,4.3850548 2.7758097,3.8215481 2.6580903,3.9142166 2.373212,4.1384715 2.8645491,4.5786464 6.1669445,7.0577792 10.844765,10.569445 14.922315,13.995734 21.370821,19.833327 c 5.870117,5.313994 7.736014,6.733942 6.673847,5.078794 -0.251789,-0.392364 -1.112534,-1.365708 -1.91276,-2.16299 -1.170072,-1.165738 -1.525111,-1.394373 -1.813229,-1.167568 -0.52836,0.415922 -0.865839,-0.07092 -0.435042,-0.627597 0.342051,-0.441995 0.198642,-0.644585 -1.855838,-2.621692 -2.090151,-2.011428 -2.255805,-2.119642 -2.704236,-1.766638 z m 9.526438,9.42012 c -0.01137,0.127899 0.156574,0.304386 0.37327,0.392182 0.239437,0.09704 0.247567,0.0059 0.0207,-0.232541 -0.205286,-0.215707 -0.382576,-0.287545 -0.393962,-0.15965 z m 1.997647,3.341439 c -0.262734,0.206822 -0.569753,0.287449 -0.682277,0.179163 -0.112515,-0.108284 -0.04328,-0.323802 0.15369,-0.478906 0.404435,-0.318369 -0.354388,-1.140818 -2.917257,-3.161865 -1.289905,-1.017203 -1.60351,-1.1537 -1.976348,-0.860203 -0.243736,0.19187 -0.535216,0.260262 -0.647735,0.152004 -0.112505,-0.108284 -0.03114,-0.333397 0.18081,-0.500253 0.323002,-0.254267 0.202163,-0.434373 -0.746449,-1.11253 -3.349316,-2.394412 -4.129912,-2.833597 -4.474715,-2.517607 -0.190998,0.175057 -0.509757,0.244836 -0.708339,0.155052 -0.198578,-0.08976 -0.190882,-0.297143 0.01712,-0.460884 0.474243,-0.373323 0.237506,-0.597895 -2.159222,-2.048282 -1.556406,-0.941861 -2.021596,-1.103197 -2.376145,-0.824098 -0.242468,0.190872 -0.532911,0.258449 -0.64544,0.15014 -0.112506,-0.108284 -0.04328,-0.323804 0.153692,-0.478906 0.474181,-0.373275 0.11736,-0.665786 -1.52735,-1.252063 -0.958719,-0.341752 -1.435139,-0.368631 -1.604322,-0.09053 -0.132364,0.21757 -0.32983,0.309765 -0.43882,0.204882 -0.109001,-0.104885 -0.06662,-0.299154 0.09417,-0.431714 0.163595,-0.134927 0.01857,-0.184947 -0.32949,-0.113677 -0.4364881,0.08934 -0.7054951,0.328713 -0.9025214,0.802961 L 9.0300111,17.3155 9.6244915,16.967515 c 1.1843495,-0.693285 5.5449675,1.803481 13.7425505,7.868593 6.102641,4.515145 11.214306,7.983436 11.323363,7.682972 0.04877,-0.13436 -0.688419,-0.99212 -1.638198,-1.906129 -1.590482,-1.530579 -1.764593,-1.632134 -2.204565,-1.285788 z M 41.82812,40.727064 c -0.86164,-0.601294 -1.62574,-1.148734 -1.698,-1.216535 -0.07223,-0.06782 -0.409245,0.0065 -0.748859,0.165101 -0.541147,0.252735 -0.532409,0.342075 0.07066,0.722705 0.378476,0.238875 1.607064,1.092927 2.730195,1.897888 1.817103,1.302341 2.080622,1.413735 2.392138,1.011196 0.278004,-0.359229 0.192617,-0.558895 -0.414713,-0.969738 -0.420646,-0.284546 -1.46978,-1.00933 -2.331421,-1.610622 z m -5.497455,-5.705486 c -0.892486,-0.858875 -1.012227,-0.897351 -1.366788,-0.439192 -0.325045,0.420009 -0.25975,0.582683 0.399152,0.994491 0.433269,0.270785 1.243146,0.818387 1.799724,1.216892 0.673889,0.482496 1.130785,0.631022 1.367627,0.444581 0.270958,-0.213298 0.167848,-0.398519 -0.432935,-0.777705 -0.433736,-0.273745 -1.228779,-0.92133 -1.76678,-1.439067 z m 2.661233,2.837753 c 0.07439,0.187513 0.304541,0.409002 0.511453,0.492193 0.206911,0.08318 0.146047,-0.07023 -0.135256,-0.340933 -0.281301,-0.270706 -0.45059,-0.338771 -0.3762,-0.151259 z m -7.004302,-6.118719 c -1.651925,-1.184348 -2.033141,-1.352382 -2.40465,-1.05993 -0.242825,0.191151 -0.533559,0.258957 -0.646093,0.150624 -0.112505,-0.108283 -0.03172,-0.332961 0.179586,-0.49929 0.277847,-0.218725 0.220642,-0.396558 -0.20672,-0.642599 -0.324984,-0.187103 -1.615666,-1.001194 -2.868181,-1.809099 -1.918414,-1.237422 -2.327525,-1.404006 -2.596021,-1.057059 -0.175299,0.22651 -0.49104,0.372365 -0.701604,0.324149 -0.352243,-0.08069 -0.148038,-0.437961 0.433665,-0.758757 0.263406,-0.145266 -0.30784,-0.504271 -3.05264,-1.918486 -1.574813,-0.811402 -1.879329,-0.876032 -2.196491,-0.4662 -0.20504,0.26494 -0.469414,0.378404 -0.596654,0.255958 -0.125645,-0.120911 -0.06717,-0.34676 0.129831,-0.50187 0.469676,-0.369727 0.278201,-0.525962 -1.674987,-1.366713 -1.36468,-0.587425 -1.69521,-0.625374 -1.972188,-0.226419 -0.183008,0.263606 -0.424261,0.391213 -0.536112,0.283573 -0.111852,-0.107641 -0.06169,-0.359334 0.111545,-0.559333 0.270331,-0.312154 0.164503,-0.382245 -0.74765,-0.49518 -0.628116,-0.07777 -1.158484,0.02613 -1.297171,0.254114 -0.132175,0.217271 -0.35134,0.273329 -0.501997,0.128359 -0.206307,-0.198539 -0.276674,-0.15298 -0.308054,0.199462 -0.03136,0.35244 0.178255,0.469485 0.917699,0.512424 1.965881,0.114137 4.94813,1.376153 9.836366,4.162507 2.903323,1.654926 9.698318,5.970028 11.635825,7.389222 1.120887,0.821038 1.255685,0.852322 1.480032,0.343501 0.289346,-0.656238 0.166676,-0.790364 -2.417345,-2.642979 z m 4.403661,5.317975 C 34.891015,36.03797 33.862685,35.505042 33.58408,35.60378 c -0.241818,0.08569 -0.29652,0.188608 -0.12158,0.228679 0.174953,0.04006 0.237453,0.192704 0.1389,0.339188 -0.289073,0.429654 4.531525,3.504286 5.233196,3.337788 0.760858,-0.180544 0.48052,-0.461742 -2.443337,-2.450849 z m -6.306788,-4.020179 c -1.902858,-1.19101 -2.280038,-1.333794 -2.561755,-0.969759 -0.201265,0.260072 -0.442794,0.318684 -0.618076,0.150014 -0.158252,-0.152286 -0.11926,-0.409498 0.08665,-0.571587 0.243519,-0.191695 0.206836,-0.381748 -0.104955,-0.543745 -0.26363,-0.136973 -0.95421,-0.519472 -1.534632,-0.849996 -3.241696,-1.845994 -3.254519,-1.850768 -3.638811,-1.354191 -0.255429,0.330064 -0.469839,0.378398 -0.699124,0.157744 -0.181903,-0.175052 -0.169509,-0.445193 0.02753,-0.600308 0.458112,-0.360627 0.439811,-0.375381 -1.827296,-1.473227 -1.357992,-0.657613 -2.003463,-0.827219 -2.239973,-0.588589 -0.182737,0.184376 -0.424315,0.246632 -0.536835,0.138344 -0.112507,-0.108283 -0.0574,-0.290344 0.122394,-0.404559 0.429493,-0.272799 0.38017,-0.305759 -1.178442,-0.78782 -0.731496,-0.226229 -1.581292,-0.293963 -1.888433,-0.150518 -0.307136,0.143446 -0.579385,0.145677 -0.604987,0.005 -0.06842,-0.376067 -0.784709,-0.179281 -1.073131,0.294832 -0.211491,0.347643 -0.120104,0.402097 0.605214,0.360617 1.460601,-0.08354 9.278945,3.680929 16.99563,8.183228 2.082543,1.215062 3.678268,2.093023 3.546054,1.95103 -0.132217,-0.141994 -0.06748,-0.394262 0.143781,-0.560587 0.276638,-0.217767 0.219923,-0.398535 -0.202623,-0.645822 -0.322728,-0.188878 -1.590917,-0.9719 -2.818188,-1.740055 z m 3.905521,5.396146 c -0.959565,-0.132334 -1.703036,-0.20055 -1.652158,-0.151588 0.219826,0.211548 3.759231,1.417937 4.480787,1.527253 0.749778,0.113595 0.741879,0.08606 -0.145588,-0.507471 -0.516107,-0.345174 -1.723478,-0.73586 -2.683045,-0.868193 z M 17.874062,21.862551 c -2.827793,-1.916943 -4.925844,-3.254816 -6.027008,-3.843276 -0.774487,-0.413886 -0.528096,0.367127 0.541278,1.715739 0.658135,0.830001 1.166276,1.210636 1.922944,1.440448 0.565634,0.171792 2.344363,0.928156 3.95273,1.68081 1.60837,0.752657 2.844319,1.288258 2.746555,1.190227 -0.09786,-0.09795 -1.509187,-1.080807 -3.136499,-2.183948 z m 2.732581,8.009953 c -0.632541,-0.247751 -0.584608,-0.166189 0.287623,0.489428 3.136685,2.357702 8.132115,5.003768 9.110871,4.826004 0.309744,-0.05637 -8.067427,-4.794078 -9.398494,-5.315432 z m 8.159143,7.178207 C 26.99986,36.176983 24.742847,34.981103 23.750203,34.393197 21.652656,33.150901 16.562885,29.370237 15.124619,27.986137 14.42389,27.3118 14.071997,27.12581 13.920492,27.349704 c -0.591555,0.874201 4.869727,5.107957 11.741239,9.102169 3.79847,2.207941 5.320168,2.907456 7.104546,3.265907 1.82657,0.366929 2.120115,0.0331 0.511314,-0.581468 -0.715565,-0.273351 -2.745877,-1.211873 -4.511805,-2.085601 z m -5.206672,-4.133543 c -1.045764,-0.653208 -2.731912,-1.858086 -3.746993,-2.6775 -1.015085,-0.819416 -1.88904,-1.370197 -1.94212,-1.223948 -0.421137,1.160261 10.054422,7.622452 11.272913,6.954067 0.393719,-0.215968 0.149785,-0.376615 -1.609177,-1.05976 -1.14028,-0.442862 -2.928863,-1.339648 -3.974623,-1.992859 z m -5.930689,-7.50075 c -0.863146,-0.227321 -0.04539,0.370677 1.178562,0.861854 l 1.054044,0.422989 -0.860782,-0.575125 C 18.526826,25.809811 17.9095,25.490443 17.628425,25.416418 Z"
     id="path2272"
     inkscape:connector-curvature="0" /></g><g
   inkscape:groupmode="layer"
   id="layer1"
   inkscape:label="Layer 1" /></svg>