<?xml version="1.0" encoding="UTF-8" standalone="no"?>
<svg
   xmlns:dc="http://purl.org/dc/elements/1.1/"
   xmlns:cc="http://creativecommons.org/ns#"
   xmlns:rdf="http://www.w3.org/1999/02/22-rdf-syntax-ns#"
   xmlns:svg="http://www.w3.org/2000/svg"
   xmlns="http://www.w3.org/2000/svg"
   xmlns:sodipodi="http://sodipodi.sourceforge.net/DTD/sodipodi-0.dtd"
   xmlns:inkscape="http://www.inkscape.org/namespaces/inkscape"
   version="1.2"
   id="Layer_1"
   x="0px"
   y="0px"
   viewBox="0 0 50.3 50.3"
   xml:space="preserve"
   sodipodi:docname="icon.svg"
   inkscape:version="1.0 (4035a4fb49, 2020-05-01)"><metadata
   id="metadata19"><rdf:RDF><cc:Work
       rdf:about=""><dc:format>image/svg+xml</dc:format><dc:type
         rdf:resource="http://purl.org/dc/dcmitype/StillImage" /></cc:Work></rdf:RDF></metadata><defs
   id="defs17" /><sodipodi:namedview
   pagecolor="#ffffff"
   bordercolor="#666666"
   borderopacity="1"
   objecttolerance="10"
   gridtolerance="10"
   guidetolerance="10"
   inkscape:pageopacity="0"
   inkscape:pageshadow="2"
   inkscape:window-width="1680"
   inkscape:window-height="987"
   id="namedview15"
   showgrid="false"
   inkscape:zoom="13.270553"
   inkscape:cx="25.159848"
   inkscape:cy="22.94571"
   inkscape:window-x="1672"
   inkscape:window-y="-8"
   inkscape:window-maximized="1"
   inkscape:current-layer="Layer_1"
   inkscape:document-rotation="0" />






<path
   id="path853"
   d="M 46.076368,23.023992 V 20.311219 L 19.023992,10.590448 5.3847714,14.584253 V 37.56747 l 4.1445149,0.15071 V 17.82451 l 9.6454147,-2.411354 v -4.822708 4.822708 z"
   style="fill:none;stroke:#000000;stroke-width:0.1;stroke-linecap:butt;stroke-linejoin:miter;stroke-miterlimit:4;stroke-dasharray:none;stroke-opacity:1" /><path
   id="path855"
   d="M 38.239468,25.209281 V 35.53289 L 9.5292863,37.71818 v 0"
   style="fill:none;stroke:#000000;stroke-width:0.1;stroke-linecap:butt;stroke-linejoin:miter;stroke-miterlimit:4;stroke-dasharray:none;stroke-opacity:1" /><path
   id="path857"
   d="m 45.32282,22.948637 v 1.582451 L 18.873282,18.276639 v -2.712774 l -8.590448,2.18529 v 2.562064 l 8.590448,-1.959226 -8.590448,1.959226 27.956634,4.898062 7.007998,-0.753548"
   style="fill:none;stroke:#000000;stroke-width:0.1;stroke-linecap:butt;stroke-linejoin:miter;stroke-miterlimit:4;stroke-dasharray:none;stroke-opacity:1" /><path
   id="path859"
   d="M 32.56036,19.11875 19.241397,15.34264 v -2.281817 c 0,-1.255 0.01341,-2.281818 0.02981,-2.281818 0.01639,0 6.022079,2.153264 13.345968,4.785031 7.32389,2.631766 13.329443,4.78503 13.345673,4.78503 0.01623,0 0.02951,0.576464 0.02951,1.281032 0,0.704567 -0.02543,1.277371 -0.05652,1.272897 -0.03108,-0.0045 -6.050049,-1.707384 -13.375478,-3.784245 z"
   style="fill:#000000;stroke:#000000;stroke-width:0.00753548;stroke-linejoin:round;stroke-miterlimit:4;stroke-dasharray:none;paint-order:markers stroke fill" /><path
   id="path861"
   d="m 6.619467,37.527559 c -0.6216772,-0.02729 -1.1387995,-0.05486 -1.1491608,-0.06128 -0.010361,-0.0064 -0.018839,-5.141597 -0.018839,-11.411509 V 14.654924 L 12.214561,12.67707 c 3.719702,-1.08782 6.788527,-1.976856 6.819611,-1.975637 0.03108,0.0012 0.05652,1.045313 0.05652,2.320209 v 2.317991 l -4.822708,1.204015 -4.8227077,1.204015 v 9.928827 9.928828 l -0.8477415,-0.01407 c -0.4662579,-0.0077 -1.3563866,-0.0364 -1.9780638,-0.06369 z"
   style="fill:#000000;stroke:#000000;stroke-width:0.00753548;stroke-linejoin:round;stroke-miterlimit:4;stroke-dasharray:none;paint-order:markers stroke fill" /><path
   id="path863"
   d="m 9.5959823,27.743257 v -9.862061 l 0.235484,-0.0471 c 0.129516,-0.0259 0.2651537,-0.0471 0.3014187,-0.0471 0.03626,0 0.0661,0.584941 0.0663,1.29987 l 3.69e-4,1.29987 13.978469,2.445881 13.97847,2.445881 -0.01936,5.0896 -0.01936,5.0896 -1.205677,0.09274 C 28.027174,36.233844 9.9174373,37.605313 9.7782423,37.605313 h -0.182264 z"
   style="fill:#000000;stroke:#000000;stroke-width:0.00753548;stroke-linejoin:round;stroke-miterlimit:4;stroke-dasharray:none;paint-order:markers stroke fill" /></svg>
