<?xml version="1.0" encoding="UTF-8" standalone="no"?>
<svg
   xmlns:dc="http://purl.org/dc/elements/1.1/"
   xmlns:cc="http://creativecommons.org/ns#"
   xmlns:rdf="http://www.w3.org/1999/02/22-rdf-syntax-ns#"
   xmlns:svg="http://www.w3.org/2000/svg"
   xmlns="http://www.w3.org/2000/svg"
   version="1.2"
   id="Layer_1"
   x="0px"
   y="0px"
   viewBox="0 0 50.5 50.5"
   xml:space="preserve"><metadata
   id="metadata15"><rdf:RDF><cc:Work
       rdf:about=""><dc:format>image/svg+xml</dc:format><dc:type
         rdf:resource="http://purl.org/dc/dcmitype/StillImage" /><dc:title></dc:title></cc:Work></rdf:RDF></metadata><defs
   id="defs13" />




<path
   d="m 24.358344,42.906347 c -3.253744,-0.43219 -5.86975,-1.82101 -8.63059,-4.581929 -2.864049,-2.864129 -4.59599,-6.352763 -5.259455,-10.594072 -0.346715,-2.21643 -0.131547,-6.293962 0.445587,-8.44408 1.683579,-6.272193 6.214428,-11.1429454 11.768317,-12.6511764 1.872545,-0.508514 5.402878,-0.508514 7.275424,0 7.021639,1.906818 11.995404,8.7627614 12.355751,17.0314364 0.127277,2.920538 -0.145973,4.910596 -1.047622,7.629734 -1.490833,4.49596 -4.670395,8.276848 -8.671174,10.31108 -2.135766,1.085951 -5.657992,1.641472 -8.236238,1.299007 z M 42.582626,24.608053 A 16.262712,18.616526 0 0 1 26.319914,43.224579 16.262712,18.616526 0 0 1 10.057201,24.608053 16.262712,18.616526 0 0 1 26.319914,5.9915276 16.262712,18.616526 0 0 1 42.582626,24.608053 Z m 0.641951,0 A 17.760593,20.756355 0 0 1 25.463984,45.364408 17.760593,20.756355 0 0 1 7.7033901,24.608053 17.760593,20.756355 0 0 1 25.463984,3.8516979 17.760593,20.756355 0 0 1 43.224577,24.608053 Z"
   style="opacity:1;fill:none;fill-opacity:0.89898993;stroke:#000000;stroke-width:0.139;stroke-miterlimit:4;stroke-dasharray:none;stroke-opacity:1"
   id="path923" /></svg>