<?xml version="1.0" encoding="UTF-8" standalone="no"?>
<svg
   xmlns:dc="http://purl.org/dc/elements/1.1/"
   xmlns:cc="http://creativecommons.org/ns#"
   xmlns:rdf="http://www.w3.org/1999/02/22-rdf-syntax-ns#"
   xmlns:svg="http://www.w3.org/2000/svg"
   xmlns="http://www.w3.org/2000/svg"
   xmlns:sodipodi="http://sodipodi.sourceforge.net/DTD/sodipodi-0.dtd"
   xmlns:inkscape="http://www.inkscape.org/namespaces/inkscape"
   inkscape:version="1.0 (4035a4fb49, 2020-05-01)"
   sodipodi:docname="icon.svg"
   xml:space="preserve"
   viewBox="0 0 50.3 50.3"
   y="0px"
   x="0px"
   id="Layer_1"
   version="1.2"><g
   transform="matrix(1.2377366,0,0,1.2377366,-5.9731973,-5.6529828)"
   id="g909"><path
     style="fill:none;stroke:#000000;stroke-width:0.3;stroke-linecap:butt;stroke-linejoin:miter;stroke-miterlimit:4;stroke-dasharray:none;stroke-opacity:1"
     d="m 35.610846,21.383857 -2.298874,-0.08675 -0.390374,-1.344624 -0.08675,-4.90137 -0.347,-0.303625 H 17.696985 l -0.303624,0.26025 -0.08675,4.98812 -0.303625,1.301249 -2.342248,0.04338 -0.303625,8.284618 c 0,0 -0.390952,0.126165 -0.43375,0.1735 -0.03496,0.03867 -0.08675,0.130125 -0.08675,0.130125 0,0 -2.904207,0.0238 -4.207372,0.26025 -0.2246696,0.04077 -0.6103531,0.153842 -0.6142495,0.303219 -0.00306,0.117269 -0.1096725,1.061903 0.007,1.128155 0.1514486,0.086 1.3879985,0.390375 1.3879985,0.390375 0,0 4.370335,0.937937 15.441488,0.780749 10.509863,-0.149219 9.281978,-0.04747 13.836613,-0.824124 0.518802,-0.08847 1.260033,-0.217282 1.518124,-0.43375 0.06959,-0.05837 0.07289,-0.695577 0.04338,-1.084374 -0.0084,-0.110899 -0.248398,-0.162554 -0.390375,-0.1735 -1.510541,-0.116461 -4.467621,-0.347 -4.467621,-0.347 0.05975,-0.05307 -0.303429,-0.220674 -0.47713,-0.347 z"
     id="path860"
     sodipodi:nodetypes="cccccccccccscssscsasssccc" /><path
     style="fill:none;stroke:#000000;stroke-width:0.3;stroke-linecap:butt;stroke-linejoin:miter;stroke-miterlimit:4;stroke-dasharray:none;stroke-opacity:1"
     d="m 32.921598,19.952483 -15.614987,0.04337"
     id="path862" /><path
     style="fill:none;stroke:#000000;stroke-width:0.3;stroke-linecap:butt;stroke-linejoin:miter;stroke-miterlimit:4;stroke-dasharray:none;stroke-opacity:1"
     d="m 17.002986,21.297107 0.607249,0.08675 -2.456748,8.466743"
     id="path864"
     sodipodi:nodetypes="ccc" /><path
     style="fill:none;stroke:#000000;stroke-width:0.3;stroke-linecap:butt;stroke-linejoin:miter;stroke-miterlimit:4;stroke-dasharray:none;stroke-opacity:1"
     d="m 33.311972,21.297107 -0.607249,-0.04338 2.673217,8.685493"
     id="path866"
     sodipodi:nodetypes="ccc" /><path
     style="fill:none;stroke:#000000;stroke-width:0.3;stroke-linecap:butt;stroke-linejoin:miter;stroke-miterlimit:4;stroke-dasharray:none;stroke-opacity:1"
     d="m 13.919457,29.837667 c 0,0 7.749531,0.427071 11.628397,0.438058 3.616417,0.01024 10.843745,-0.346995 10.843745,-0.346995 l 0.0016,0.981046 c 0,0 -7.515839,0.505756 -11.279129,0.493698 -3.7494,-0.01201 -11.234115,-0.563875 -11.234115,-0.563875 z"
     id="path868"
     sodipodi:nodetypes="caccacc" /><path
     style="fill:none;stroke:#000000;stroke-width:0.3;stroke-linecap:butt;stroke-linejoin:miter;stroke-miterlimit:4;stroke-dasharray:none;stroke-opacity:1"
     d="m 11.410303,30.015881 c 0,0 -1.5911213,0.275705 -1.6983602,0.464296 -0.056629,0.09959 0.7765712,0.322747 0.9149232,0.359422 2.381178,0.631209 14.487242,0.563875 14.487242,0.563875 0,0 12.034222,-0.235183 14.073423,-0.532625 0.464132,-0.0677 0.822773,-0.09406 0.804186,-0.378249 -0.02222,-0.339722 -0.827937,-0.347813 -0.827937,-0.347813"
     id="path870"
     sodipodi:nodetypes="csscssc" /><path
     style="fill:none;stroke:#000000;stroke-width:0.3;stroke-linecap:butt;stroke-linejoin:miter;stroke-miterlimit:4;stroke-dasharray:none;stroke-opacity:1"
     d="m 12.217421,29.97107 c 0,0 -1.81686,0.255679 -2.019615,0.500813 -0.09308,0.112536 0.342504,0.348029 0.342504,0.348029"
     id="path872"
     sodipodi:nodetypes="csc" /><path
     style="fill:none;stroke:#000000;stroke-width:0.3;stroke-linecap:butt;stroke-linejoin:miter;stroke-miterlimit:4;stroke-dasharray:none;stroke-opacity:1"
     d="m 36.414062,30.265625 c 0,0 2.542792,0.111216 3.1875,0.382812 0.135249,0.05698 -0.382813,0.210937 -0.382813,0.210937"
     id="path874"
     sodipodi:nodetypes="csc" /><path
     sodipodi:nodetypes="csc"
     id="path876"
     d="m 13.893544,30.256436 c 0,0 -3.194672,0.224429 -3.397427,0.469563 -0.09308,0.112536 -0.0105,0.04313 -0.0105,0.04313"
     style="fill:none;stroke:#000000;stroke-width:0.3;stroke-linecap:butt;stroke-linejoin:miter;stroke-miterlimit:4;stroke-dasharray:none;stroke-opacity:1" /><path
     style="fill:none;stroke:#000000;stroke-width:0.3;stroke-linecap:butt;stroke-linejoin:miter;stroke-miterlimit:4;stroke-dasharray:none;stroke-opacity:1"
     d="m 13.893544,30.256436 c 0,0 -2.178206,0.202332 -2.380961,0.447466 -0.09308,0.112536 0.662908,0.359075 0.662908,0.359075"
     id="path878"
     sodipodi:nodetypes="csc" /><path
     style="fill:none;stroke:#000000;stroke-width:0.3;stroke-linecap:butt;stroke-linejoin:miter;stroke-miterlimit:4;stroke-dasharray:none;stroke-opacity:1"
     d="m 39.603504,30.195669 c 0,0 0.991222,0.141716 0.911505,0.237544 -0.248683,0.298941 -1.193243,0.425369 -1.193243,0.425369"
     id="path880"
     sodipodi:nodetypes="csc" /><path
     style="fill:none;stroke:#000000;stroke-width:0.3;stroke-linecap:butt;stroke-linejoin:miter;stroke-miterlimit:4;stroke-dasharray:none;stroke-opacity:1"
     d="m 7.5793008,32.062873 c 0,0 5.5362582,-7.63104 7.2257472,-10.054174 0.216536,-0.310564 0.938688,-0.307826 0.905981,-0.68501 -0.02647,-0.305218 -0.511362,-0.410823 -0.817592,-0.419845 -0.273604,-0.0081 -0.571472,0.125094 -0.751301,0.331456 -0.176146,0.202135 -0.246825,0.506533 -0.220971,0.773399 0.04066,0.419685 0.542991,0.706482 0.574524,1.126951 0.02961,0.394861 -0.37565,1.126951 -0.37565,1.126951"
     id="path886"
     sodipodi:nodetypes="csaaaaac" /><path
     style="fill:none;stroke:#000000;stroke-width:0.6;stroke-linecap:round;stroke-linejoin:miter;stroke-miterlimit:4;stroke-dasharray:none;stroke-opacity:1"
     d="M 10.783378,27.643456 7.5793008,32.062873"
     id="path888" /><path
     sodipodi:nodetypes="csaaaaac"
     id="path890"
     d="m 42.671237,32.062873 c 0,0 -5.536258,-7.63104 -7.225747,-10.054174 -0.216536,-0.310564 -0.938688,-0.307826 -0.905981,-0.68501 0.02647,-0.305218 0.511362,-0.410823 0.817592,-0.419845 0.273604,-0.0081 0.571472,0.125094 0.751301,0.331456 0.176146,0.202135 0.246825,0.506533 0.220971,0.773399 -0.04066,0.419685 -0.542991,0.706482 -0.574524,1.126951 -0.02961,0.394861 0.37565,1.126951 0.37565,1.126951"
     style="fill:none;stroke:#000000;stroke-width:0.3;stroke-linecap:butt;stroke-linejoin:miter;stroke-miterlimit:4;stroke-dasharray:none;stroke-opacity:1" /><path
     id="path892"
     d="m 39.46716,27.643456 3.204077,4.419417"
     style="fill:none;stroke:#000000;stroke-width:0.6;stroke-linecap:round;stroke-linejoin:miter;stroke-miterlimit:4;stroke-dasharray:none;stroke-opacity:1" /></g><metadata
   id="metadata21"><rdf:RDF><cc:Work
       rdf:about=""><dc:format>image/svg+xml</dc:format><dc:type
         rdf:resource="http://purl.org/dc/dcmitype/StillImage" /></cc:Work></rdf:RDF></metadata><defs
   id="defs19" /><sodipodi:namedview
   inkscape:current-layer="Layer_1"
   inkscape:window-maximized="1"
   inkscape:window-y="-8"
   inkscape:window-x="1672"
   inkscape:cy="0.8722192"
   inkscape:cx="32.060295"
   inkscape:zoom="5.6568543"
   showgrid="false"
   id="namedview17"
   inkscape:window-height="987"
   inkscape:window-width="1680"
   inkscape:pageshadow="2"
   inkscape:pageopacity="0"
   guidetolerance="10"
   gridtolerance="10"
   objecttolerance="10"
   borderopacity="1"
   bordercolor="#666666"
   pagecolor="#ffffff" />







</svg>
