<svg xmlns="http://www.w3.org/2000/svg" width="276" height="374" viewBox="0 0 276 374">
  <g fill="#FFF" fill-rule="evenodd">
    <polygon fill-rule="nonzero" points="136.5 273.5 140.5 273.5 140.5 373.5 136.5 373.5"/>
    <path fill-rule="nonzero" d="M138,275.5 C62.0608469,275.5 0.5,213.939153 0.5,138 C0.5,62.0608469 62.0608469,0.5 138,0.5 C213.939153,0.5 275.5,62.0608469 275.5,138 C275.5,213.939153 213.939153,275.5 138,275.5 Z M138,256.5 C203.445743,256.5 256.5,203.445743 256.5,138 C256.5,72.5542571 203.445743,19.5 138,19.5 C72.5542571,19.5 19.5,72.5542571 19.5,138 C19.5,203.445743 72.5542571,256.5 138,256.5 Z"/>
    <path d="M94.1709814,249.181043 L98.0397868,241.514833 C106.649241,245.934178 119.672403,248.14385 137.109273,248.14385 C154.546143,248.14385 168.105439,245.934178 177.787161,241.514833 L182.426345,249.181043 C171.554607,254.29185 156.448916,256.847253 137.109273,256.847253 C117.76963,256.847253 103.456866,254.29185 94.1709814,249.181043 Z"/>
  </g>
</svg>
