<?xml version="1.0" encoding="UTF-8" standalone="no"?>
<svg
   xmlns:dc="http://purl.org/dc/elements/1.1/"
   xmlns:cc="http://creativecommons.org/ns#"
   xmlns:rdf="http://www.w3.org/1999/02/22-rdf-syntax-ns#"
   xmlns:svg="http://www.w3.org/2000/svg"
   xmlns="http://www.w3.org/2000/svg"
   xmlns:sodipodi="http://sodipodi.sourceforge.net/DTD/sodipodi-0.dtd"
   xmlns:inkscape="http://www.inkscape.org/namespaces/inkscape"
   version="1.2"
   id="Layer_1"
   x="0px"
   y="0px"
   viewBox="0 0 50.3 50.3"
   xml:space="preserve"
   sodipodi:docname="icon.svg"
   inkscape:version="1.0.2 (e86c870879, 2021-01-15, custom)"><metadata
   id="metadata19"><rdf:RDF><cc:Work
       rdf:about=""><dc:format>image/svg+xml</dc:format><dc:type
         rdf:resource="http://purl.org/dc/dcmitype/StillImage" /></cc:Work></rdf:RDF></metadata><defs
   id="defs17" /><sodipodi:namedview
   pagecolor="#ffffff"
   bordercolor="#666666"
   borderopacity="1"
   objecttolerance="10"
   gridtolerance="10"
   guidetolerance="10"
   inkscape:pageopacity="0"
   inkscape:pageshadow="2"
   inkscape:window-width="1680"
   inkscape:window-height="987"
   id="namedview15"
   showgrid="false"
   inkscape:zoom="11.313708"
   inkscape:cx="11.643734"
   inkscape:cy="26.437983"
   inkscape:window-x="-8"
   inkscape:window-y="-8"
   inkscape:window-maximized="1"
   inkscape:current-layer="Layer_1"
   inkscape:document-rotation="0" />






<path
   style="fill:none;fill-rule:evenodd;stroke:#000000;stroke-width:0.30000001;stroke-miterlimit:4;stroke-dasharray:none;stroke-opacity:1"
   id="path837"
   sodipodi:type="arc"
   sodipodi:cx="25.123516"
   sodipodi:cy="25.621346"
   sodipodi:rx="20.141314"
   sodipodi:ry="12.495074"
   sodipodi:start="2.4065996"
   sodipodi:end="2.4059364"
   sodipodi:open="true"
   d="M 10.181976,34.000317 A 20.141314,12.495074 0 0 1 11.614637,16.353446 20.141314,12.495074 0 0 1 40.060576,17.2393 20.141314,12.495074 0 0 1 38.637349,34.886465 20.141314,12.495074 0 0 1 10.190937,34.006463" /><path
   d="m 4.9906707,25.184383 a 20.141314,12.495074 0 0 1 9.9340813,-11.13707 20.141314,12.495074 0 0 1 20.517449,0.04403 20.141314,12.495074 0 0 1 9.809638,11.179441"
   sodipodi:open="true"
   sodipodi:end="0.03591765"
   sodipodi:start="3.1125937"
   sodipodi:ry="12.495074"
   sodipodi:rx="20.141314"
   sodipodi:cy="24.82209"
   sodipodi:cx="25.123516"
   sodipodi:type="arc"
   id="path839"
   style="fill:none;fill-rule:evenodd;stroke:#000000;stroke-width:0.30000001;stroke-miterlimit:4;stroke-dasharray:none;stroke-opacity:1" /><path
   style="fill:none;fill-rule:evenodd;stroke:#000000;stroke-width:0.2;stroke-miterlimit:4;stroke-dasharray:none;stroke-opacity:1"
   id="path841"
   sodipodi:type="arc"
   sodipodi:cx="25.031765"
   sodipodi:cy="26.202068"
   sodipodi:rx="14.147865"
   sodipodi:ry="8.669446"
   sodipodi:start="2.4065996"
   sodipodi:end="2.4059364"
   sodipodi:open="true"
   d="M 14.536378,32.015643 A 14.147865,8.669446 0 0 1 15.542721,19.77173 14.147865,8.669446 0 0 1 35.524006,20.386362 14.147865,8.669446 0 0 1 34.524288,32.630478 14.147865,8.669446 0 0 1 14.542672,32.019907" /><path
   style="fill:none;fill-rule:evenodd;stroke:#000000;stroke-width:0.179851;stroke-miterlimit:4;stroke-dasharray:none;stroke-opacity:1"
   id="path854"
   sodipodi:type="arc"
   sodipodi:cx="25.031765"
   sodipodi:cy="25.229795"
   sodipodi:rx="12.722563"
   sodipodi:ry="7.7960572"
   sodipodi:start="2.4065996"
   sodipodi:end="2.4059364"
   sodipodi:open="true"
   d="m 15.593717,30.457691 a 12.722563,7.7960572 0 0 1 0.904962,-11.01042 12.722563,7.7960572 0 0 1 17.968304,0.552711 12.722563,7.7960572 0 0 1 -0.899003,11.010604 12.722563,7.7960572 0 0 1 -17.968602,-0.54906"
   sodipodi:arc-type="arc" /><path
   style="fill:none;fill-rule:evenodd;stroke:#000000;stroke-width:0.179851;stroke-miterlimit:4;stroke-dasharray:none;stroke-opacity:1"
   id="path856"
   sodipodi:type="arc"
   sodipodi:cx="25.031765"
   sodipodi:cy="25.229795"
   sodipodi:rx="12.722563"
   sodipodi:ry="7.7960572"
   sodipodi:start="2.4065996"
   sodipodi:end="2.4059364"
   sodipodi:open="true"
   d="m 15.593717,30.457691 a 12.722563,7.7960572 0 0 1 0.904962,-11.01042 12.722563,7.7960572 0 0 1 17.968304,0.552711 12.722563,7.7960572 0 0 1 -0.899003,11.010604 12.722563,7.7960572 0 0 1 -17.968602,-0.54906"
   sodipodi:arc-type="arc" /><path
   style="fill:none;fill-rule:evenodd;stroke:#000000;stroke-width:0.162481;stroke-miterlimit:4;stroke-dasharray:none;stroke-opacity:1"
   id="path858"
   sodipodi:type="arc"
   sodipodi:cx="25.031765"
   sodipodi:cy="25.229795"
   sodipodi:rx="11.493817"
   sodipodi:ry="7.0431137"
   sodipodi:start="2.4065996"
   sodipodi:end="2.4059364"
   sodipodi:open="true"
   d="m 16.505244,29.952781 a 11.493817,7.0431137 0 0 1 0.81756,-9.947034 11.493817,7.0431137 0 0 1 16.232925,0.499331 11.493817,7.0431137 0 0 1 -0.812177,9.947199 11.493817,7.0431137 0 0 1 -16.233194,-0.496032"
   sodipodi:arc-type="arc" /></svg>
