<?xml version="1.0" encoding="UTF-8" standalone="no"?>
<svg
   xmlns:dc="http://purl.org/dc/elements/1.1/"
   xmlns:cc="http://creativecommons.org/ns#"
   xmlns:rdf="http://www.w3.org/1999/02/22-rdf-syntax-ns#"
   xmlns:svg="http://www.w3.org/2000/svg"
   xmlns="http://www.w3.org/2000/svg"
   xmlns:sodipodi="http://sodipodi.sourceforge.net/DTD/sodipodi-0.dtd"
   xmlns:inkscape="http://www.inkscape.org/namespaces/inkscape"
   version="1.2"
   id="Layer_1"
   x="0px"
   y="0px"
   viewBox="0 0 50.3 50.3"
   xml:space="preserve"
   sodipodi:docname="icon.svg"
   inkscape:version="1.0 (4035a4fb49, 2020-05-01)"><metadata
   id="metadata19"><rdf:RDF><cc:Work
       rdf:about=""><dc:format>image/svg+xml</dc:format><dc:type
         rdf:resource="http://purl.org/dc/dcmitype/StillImage" /></cc:Work></rdf:RDF></metadata><defs
   id="defs17" /><sodipodi:namedview
   pagecolor="#ffffff"
   bordercolor="#666666"
   borderopacity="1"
   objecttolerance="10"
   gridtolerance="10"
   guidetolerance="10"
   inkscape:pageopacity="0"
   inkscape:pageshadow="2"
   inkscape:window-width="1680"
   inkscape:window-height="987"
   id="namedview15"
   showgrid="false"
   inkscape:zoom="8"
   inkscape:cx="5.399079"
   inkscape:cy="16.707192"
   inkscape:window-x="-8"
   inkscape:window-y="-8"
   inkscape:window-maximized="1"
   inkscape:current-layer="Layer_1"
   inkscape:document-rotation="0" />






<path
   sodipodi:nodetypes="ccsccc"
   id="path852"
   d="m 31.742988,44.409689 0.03828,-37.8086388 c 0,0 -0.916222,-1.9160005 -6.349875,-1.950213 -5.397987,-0.033988 -6.221894,2.3835031 -6.221894,2.3835031 v 0 l -0.10728,37.2811587"
   style="fill:#000000;fill-opacity:1;stroke:#000000;stroke-width:0.2;stroke-linecap:butt;stroke-linejoin:miter;stroke-miterlimit:4;stroke-dasharray:none;stroke-opacity:1" /><path
   sodipodi:nodetypes="csc"
   id="path854"
   d="m 19.026865,42.488145 c 0,0 1.841261,-0.817021 6.38622,-0.800742 4.910512,0.01759 6.424097,0.744226 6.424097,0.744226"
   style="fill:none;stroke:#ffffff;stroke-width:0.05;stroke-linecap:butt;stroke-linejoin:miter;stroke-miterlimit:4;stroke-dasharray:none;stroke-opacity:1" /><path
   transform="scale(1,-1)"
   d="m 29.646929,-43.727798 a 6.3261781,0.79498976 0 0 1 -8.932312,-0.05747 6.3261781,0.79498976 0 0 1 0.452209,-1.122526 6.3261781,0.79498976 0 0 1 8.932829,0.05619 6.3261781,0.79498976 0 0 1 -0.442005,1.122591"
   sodipodi:arc-type="arc"
   sodipodi:open="true"
   sodipodi:end="0.83455187"
   sodipodi:start="0.83683651"
   sodipodi:ry="0.79498976"
   sodipodi:rx="6.3261781"
   sodipodi:cy="-44.3181"
   sodipodi:cx="25.409559"
   sodipodi:type="arc"
   id="path856"
   style="fill:#ffffff;fill-opacity:1;fill-rule:evenodd;stroke:#000000;stroke-width:0.199203;stroke-miterlimit:4;stroke-dasharray:none;stroke-opacity:1" /><path
   style="fill:none;stroke:#ffffff;stroke-width:0.0796571;stroke-linecap:butt;stroke-linejoin:miter;stroke-miterlimit:4;stroke-dasharray:none;stroke-opacity:1"
   d="m 19.158736,8.4767812 c 0,0 1.765906,-2.0925198 6.310865,-2.051202 4.910512,0.044645 6.38642,1.8889201 6.38642,1.8889201"
   id="path858"
   sodipodi:nodetypes="csc" /><path
   id="path860"
   d="m 19.198464,17.671822 -1.252172,0.905826 v 18.995709 l 1.172246,0.239778 z"
   style="fill:#000000;fill-opacity:1;stroke:none;stroke-width:0.2;stroke-linecap:butt;stroke-linejoin:miter;stroke-miterlimit:4;stroke-dasharray:none;stroke-opacity:1" /><path
   sodipodi:nodetypes="cc"
   id="path862"
   d="m 19.050525,17.790146 0.02554,20.031938"
   style="fill:none;stroke:#ffffff;stroke-width:0.05;stroke-linecap:butt;stroke-linejoin:miter;stroke-miterlimit:4;stroke-dasharray:none;stroke-opacity:1" /></svg>
