<?xml version="1.0" encoding="UTF-8" standalone="no"?>
<svg
   width="5.0694in"
   height="9.3611in"
   version="1.1"
   viewBox="0 0 365 674"
   id="svg4"
   sodipodi:docname="icon.svg"
   xml:space="preserve"
   inkscape:version="1.2 (dc2aedaf03, 2022-05-15)"
   xmlns:inkscape="http://www.inkscape.org/namespaces/inkscape"
   xmlns:sodipodi="http://sodipodi.sourceforge.net/DTD/sodipodi-0.dtd"
   xmlns="http://www.w3.org/2000/svg"
   xmlns:svg="http://www.w3.org/2000/svg"><defs
     id="defs8" /><sodipodi:namedview
     id="namedview6"
     pagecolor="#ffffff"
     bordercolor="#666666"
     borderopacity="1.0"
     inkscape:showpageshadow="2"
     inkscape:pageopacity="0.0"
     inkscape:pagecheckerboard="0"
     inkscape:deskcolor="#d1d1d1"
     inkscape:document-units="in"
     showgrid="false"
     inkscape:zoom="0.89799808"
     inkscape:cx="250.00053"
     inkscape:cy="426.50425"
     inkscape:window-width="1680"
     inkscape:window-height="987"
     inkscape:window-x="-8"
     inkscape:window-y="-8"
     inkscape:window-maximized="1"
     inkscape:current-layer="svg4" /><path
     id="path315"
     style="fill:#000000;stroke-width:0.819839"
     d="m 182.64712,56.3109 c -6.92148,-0.0457 -8.30629,0.20272 -12.4425,2.233906 -9.51262,4.671413 -22.40495,21.864594 -36.26692,48.365174 -8.17134,15.62151 -20.54404,49.62106 -26.76732,73.55484 -8.503896,32.70458 -13.343222,59.39876 -15.455706,85.26345 -0.460354,5.63638 -1.241743,15.29764 -1.73732,21.4704 -0.964809,12.01746 -1.14218,47.88088 -0.276858,56.0044 0.580307,5.44785 1.7201,8.22908 4.347695,10.60703 l 1.751968,1.58497 -2.088885,1.69191 -2.088886,1.69191 1.174815,6.55963 c 2.061063,11.50519 7.047762,34.18473 9.193437,41.8114 6.38861,22.7079 29.55682,73.48892 36.51741,80.04124 l 2.28958,2.1548 0.22412,15.06166 0.22412,15.06019 3.89359,0.75293 3.89505,0.75148 v 6.15679 c 0,5.90534 0.10537,6.24428 2.58694,8.31599 2.07126,1.72938 2.48305,2.57244 2.06838,4.22465 -0.28485,1.13488 -1.44886,2.48733 -2.58694,3.00588 -2.84513,1.29632 -2.85627,4.81736 -0.019,5.89605 1.12728,0.42859 2.04933,1.31227 2.04933,1.96291 0,0.65065 0.22207,1.76201 0.49366,2.46975 0.33449,0.87166 -0.32556,1.7533 -2.04494,2.73195 -3.20903,1.82655 -3.43901,4.76272 -0.47901,6.11138 1.13808,0.51855 2.30209,1.87099 2.58694,3.00589 0.41467,1.6522 0.003,2.49527 -2.06838,4.22465 -3.15957,2.63771 -3.38838,5.39989 -0.55371,6.69146 3.48409,1.58747 3.51304,3.93963 0.0835,6.81891 -3.24322,2.72287 -3.33853,4.62496 -0.31201,6.24468 0.88695,0.47468 2.14044,2.12465 2.78469,3.66654 0.64424,1.5419 1.68525,2.80374 2.31447,2.80374 0.62922,0 2.78846,3.04322 4.79741,6.76324 2.63863,4.88599 4.15096,6.83788 5.4478,7.03131 0.98737,0.14727 2.12456,1.13324 2.52688,2.19143 0.40216,1.05776 1.58062,2.10634 2.61916,2.32912 h 0.001 c 1.04002,0.22217 5.71139,0.33135 10.3829,0.24316 7.47273,-0.14108 8.66064,-0.36283 9.86142,-1.84571 0.75079,-0.92718 2.3307,-1.92882 3.51126,-2.22512 1.59452,-0.4002 3.06383,-2.16367 5.71587,-6.857 3.49012,-6.1765 3.66257,-6.33693 7.66999,-7.18072 3.61079,-0.76028 4.13034,-1.1328 4.35941,-3.12308 0.20705,-1.79903 -0.25199,-2.54989 -2.25002,-3.68704 -3.18019,-1.80994 -3.20111,-3.80178 -0.0601,-5.65728 3.13258,-1.85043 3.16378,-4.21754 0.0937,-7.15875 -2.71293,-2.59917 -2.58802,-4.67122 0.40137,-6.62994 2.58385,-1.69299 2.54599,-4.77143 -0.085,-6.84088 -1.18802,-0.93449 -2.04933,-2.45458 -2.04933,-3.61674 0,-1.34302 0.67639,-2.31441 2.04933,-2.93996 2.8666,-1.30611 2.89485,-5.53821 0.0454,-6.83649 -3.54068,-1.61327 -3.53102,-4.47966 0.0234,-6.80865 2.41014,-1.57918 2.51979,-3.6334 0.34131,-6.40289 -2.07141,-2.63334 -2.09265,-5.10501 -0.0557,-6.5318 1.07118,-0.75029 1.66831,-2.29216 1.84425,-4.75785 l 0.26075,-3.64603 3.89359,-0.70752 3.89505,-0.70753 V 504.53506 489.3694 l 2.08595,-1.64064 c 3.00374,-2.36275 24.88273,-46.87174 29.53444,-60.08256 7.1498,-20.30531 10.03821,-30.41998 13.91761,-48.74457 3.72865,-17.61251 3.83967,-18.51333 2.55617,-20.7497 -1.26958,-2.21209 -1.25079,-2.46017 0.35157,-4.62748 2.44278,-3.30401 3.14019,-10.30072 3.72659,-37.37728 0.40368,-18.63973 0.22267,-27.22845 -0.83789,-39.76207 -1.66346,-19.65822 -3.51028,-36.01528 -5.04497,-44.68106 -0.63884,-3.60727 -1.36527,-7.84962 -1.61427,-9.42781 -3.08696,-19.56484 -12.19213,-56.32465 -18.27555,-73.78483 -5.15413,-14.793 -12.36982,-32.17542 -18.2178,-44.45654 -0.59953,-1.60087 -4.16396,-8.478815 -7.86991,-14.701761 -3.25277,-5.461981 1.29079,2.888743 5.35174,11.092711 9.78613,20.93561 14.06665,31.73658 21.50117,52.98012 6.29429,17.98541 7.92492,28.95176 11.5759,44.28822 9.88837,41.53765 12.89229,85.22728 10.54913,125.83297 -0.0749,17.52428 -0.58468,24.47156 -2.01565,27.4646 -0.95353,1.99438 -1.20116,2.04671 -9.16561,1.95411 -4.50167,-0.0524 -25.7091,-0.16851 -47.12736,-0.25781 -21.41826,-0.0893 -52.40761,0.0118 -68.86584,0.22559 -17.31386,0.22487 -28.02419,0.10232 -25.41527,-0.29151 2.99815,-0.45259 -0.0874,-0.56667 -9.20809,-0.34131 l -13.716913,0.33838 -1.450208,-2.21193 c -1.308642,-1.9968 -1.450208,-4.7137 -1.450208,-27.8982 0.180873,-14.22508 1.637298,-28.1443 2.131249,-43.11537 0.521609,-15.80936 7.41444,-62.82409 12.27034,-82.1045 6.74895,-26.79678 10.91274,-43.03161 17.07015,-61.15369 8.90286,-26.20228 36.43632,-78.832613 53.87458,-78.637893 2.36564,0.02642 3.83551,0.12261 3.83551,0.12261 13.13625,-1.208604 21.14428,5.780938 28.94664,16.246916 5.70714,7.655476 11.4761,16.346757 13.27389,19.462126 2.32952,4.036801 0.0826,1.724338 4.04549,6.858431 -1.71108,-4.612315 -4.38258,-8.058907 -7.07087,-12.65903 C 219.65611,85.525628 210.46463,72.110294 205.62448,67.051145 197.47414,58.531088 192.86615,56.37837 182.64712,56.3109 Z m -2.11958,130.89812 c -5.8858,-0.14966 -10.17783,1.85279 -10.17783,4.99663 0,2.48954 -3.80015,3.835 -10.83261,3.835 -4.13084,0 -5.50273,-0.29879 -5.87994,-1.28175 -0.67119,-1.74911 -5.72288,-1.27743 -6.07183,0.56689 -0.21253,1.12336 0.95162,1.4239 7.37116,1.90139 4.19334,0.3119 9.28546,0.69254 11.31455,0.84522 3.41529,0.25698 3.69623,0.45026 3.78373,2.60745 0.21061,5.19227 0.21373,5.19799 2.97952,5.23539 l 2.66457,0.0366 -3.06741,1.09425 c -3.69744,1.31964 -7.18073,3.51629 -7.18073,4.52787 0,0.40555 -1.38381,1.18125 -3.07473,1.72414 -1.69092,0.54288 -3.75883,1.58531 -4.59525,2.3174 -0.83643,0.73208 -1.57378,1.16747 -1.63918,0.96681 -0.20142,-0.61811 -7.25494,3.16067 -12.00596,6.43219 -2.49739,1.71965 -4.8548,4.07554 -5.28228,5.27934 -0.65653,1.84879 -0.41391,2.5456 1.61574,4.6641 2.79381,2.91611 8.69445,6.53473 10.65537,6.53473 1.73961,0 12.69023,-3.53379 12.67833,-4.09135 -0.005,-0.22975 -2.68017,-1.42619 -5.94439,-2.65871 -7.30235,-2.75727 -11.26328,-5.13191 -11.26328,-6.75299 0,-2.52917 12.55191,-8.6324 17.75406,-8.6324 1.70278,0 1.92874,0.39682 1.99074,3.48489 0.12294,6.12878 -0.13848,12.45865 -0.57569,13.93665 -0.30782,1.04061 0.0422,1.43409 1.2715,1.43409 0.93221,0 1.69484,0.19006 1.69484,0.42188 0,0.84976 -5.37765,5.2925 -6.96832,5.75689 -2.40383,0.70178 -15.42973,7.14228 -16.45767,8.13728 -0.48388,0.46838 -2.23563,1.93236 -3.89359,3.25344 -1.65794,1.32109 -3.01467,2.99226 -3.01467,3.71342 0,1.93917 5.06793,6.80922 9.41024,9.04256 l 3.79983,1.95411 5.89752,-1.36378 c 3.24367,-0.74975 8.11103,-1.56148 10.8165,-1.8047 l 4.91899,-0.44239 -2.75833,1.24367 c -1.51724,0.68355 -3.1194,1.24219 -3.5596,1.24219 -0.44019,0 -2.30911,1.29147 -4.15287,2.86966 -1.84376,1.57819 -3.70659,2.86965 -4.13968,2.86965 -0.65888,0 -4.15505,1.47816 -9.43368,3.99027 -0.59845,0.28481 -1.15111,0.88243 -1.22901,1.32716 -0.21214,1.21107 2.70178,1.52629 4.68021,0.50684 3.23372,-1.66627 8.89974,-3.36477 11.2208,-3.36477 2.13072,0 2.32797,0.26856 2.56057,3.48343 0.20958,2.89649 0.56424,3.52932 2.09768,3.7471 1.01455,0.14409 1.84425,0.72889 1.84425,1.29933 0,0.78074 -1.60672,0.94389 -6.49957,0.66065 -3.57486,-0.20695 -8.27897,-0.0839 -10.45321,0.27393 -3.76293,0.61925 -3.83529,0.67887 -1.49416,1.23487 1.35273,0.32126 4.12037,0.63338 6.14947,0.69288 12.64193,0.35366 10.47927,5.72519 10.69543,13.20647 -0.0367,9.77382 -0.32216,51.21982 -0.47131,55.93152 -0.0255,0.80642 1.65416,1.62268 1.73848,-2.59177 0.27893,-13.94273 0.72387,-46.84916 0.54142,-50.42401 L 170.5358,294.19804 172.48833,294 c 1.32669,-0.13456 3.21818,-0.85472 4.25395,-1.27442 2.45033,-0.99292 7.54547,-0.985 7.54547,0.0117 0,0.4262 1.75178,0.88796 3.89359,1.0254 l 3.89359,0.24902 -0.16846,6.02203 c 0.37748,10.12106 -0.27366,12.69821 -2.69969,13.24523 -0.45045,0.0205 1.84918,-4.78751 -2.64181,-0.50712 -1.56428,1.49093 -4.49396,-0.51235 -4.44809,-2.43285 0.0705,-2.95276 1.94338,-2.30494 3.11666,-2.33447 3.66831,-0.0923 0.68962,5.6495 1.34958,5.5008 1.92472,-0.43367 2.72139,-1.14434 2.88999,-2.29392 0.20393,-1.39047 -0.48683,-3.22971 -0.89839,-3.49111 -1.67755,-1.06549 -10.64456,-1.762 -12.18836,-0.0561 -1.20086,1.32691 -1.29171,2.00515 -0.53467,4.01077 0.86717,2.29745 -0.2342,2.43443 -2.411,2.43329 -4.93366,-0.003 -4.55878,2.33462 -3.1966,2.39072 0.98794,0.0407 5.17539,-0.36115 5.47722,0.12721 0.30182,0.48836 0.67783,8.3148 0.83644,17.39224 0.21492,12.3007 0.036,19.48405 -0.7046,19.95468 -0.61858,0.3931 -0.22116,0.63701 1.0547,0.64601 l 2.0508,0.0132 -0.26368,-15.32281 c 0.14115,-14.90415 -0.90716,-22.85655 1.47072,-22.75215 1.49822,0.0658 1.95103,3.60087 2.29836,18.34294 0.29344,12.45432 0.14609,18.42944 -0.75147,18.99813 -0.71087,0.4504 0.37071,0.70985 2.98391,0.71485 l 4.10013,0.007 0.17725,-18.59676 c 0.0976,-8.67758 0.18998,-16.60621 0.20508,-17.62076 0.63329,-2.53643 3.42138,-2.34598 5.30571,-1.10597 0.52683,0.85243 0.23495,12.98671 0.38312,15.96362 0.0678,1.36258 0.0943,11.02553 0.0943,11.02553 -0.0897,11.80511 -0.61944,10.18283 2.11063,9.82112 l -0.28576,-20.78808 c 0.0879,-12.1959 -0.23887,-18.14202 -0.21336,-18.81862 0.26554,-7.04307 0.0322,-17.51913 0.25437,-20.97765 0.1282,-1.30699 -0.0778,-2.22862 0.16604,-3.37852 0,-0.77133 2.51642,-1.16137 9.42928,-1.46193 9.30313,-0.40448 11.47716,-0.89781 11.47716,-2.60744 0,-0.58272 -0.37627,-0.5598 -1.1338,0.0688 -1.53225,1.27165 -18.97731,0.25408 -22.02705,-1.28468 -2.55135,-1.2873 -3.13198,-4.38185 -0.81886,-4.36235 0.78909,0.007 3.64762,0.52364 6.35309,1.14845 9.282,2.14359 13.15051,2.37842 14.63831,0.89064 1.57581,-1.57581 1.78013,-5.39034 0.36475,-6.80573 -0.5411,-0.54109 -1.78588,-0.98438 -2.76565,-0.98438 -0.97978,0 -3.39501,-0.70163 -5.3687,-1.55861 -1.9737,-0.85698 -5.1283,-1.80688 -7.00934,-2.11086 -4.11401,-0.6648 -5.34418,-2.64738 -2.08449,-3.35891 1.22409,-0.26721 6.83687,-1.83082 12.47325,-3.47464 11.15468,-3.25324 14.75697,-5.58686 14.75697,-9.55966 0,-2.56039 -3.56784,-6.1807 -6.06304,-6.1524 -0.94871,0.0108 -3.18154,0.3563 -4.96147,0.76905 -3.61418,0.83808 -6.98523,-0.16656 -3.87308,-1.1543 0.97122,-0.30831 2.13784,-0.32955 2.59279,-0.0483 0.45494,0.28117 0.82525,0.21245 0.82325,-0.15235 -0.003,-0.52073 -10.45072,-4.1835 -16.18813,-5.67485 -0.56364,-0.14651 -1.02393,-0.93122 -1.02393,-1.74318 0,-1.1649 1.51291,-1.87611 7.1734,-3.3721 15.75683,-4.16438 18.10363,-5.01785 19.82683,-7.20856 2.13961,-2.72007 2.15997,-5.56423 0.0542,-7.66999 -2.09572,-2.09574 -5.07171,-2.09574 -6.96832,0 -2.72604,3.01222 -7.99336,1.28652 -11.02012,-3.61087 -1.18349,-1.91493 -2.60134,-3.01328 -4.38285,-3.39408 -3.45854,-0.73929 -4.68314,-1.80505 -4.68314,-4.07669 0,-1.53106 0.54677,-1.93862 3.07327,-2.28664 3.2465,-0.4472 13.72644,-3.06283 18.87467,-4.71098 6.06024,-1.94011 8.52025,-6.47637 5.38921,-9.93613 -1.61242,-1.7817 -2.26515,-1.85581 -3.70902,-0.4248 -1.44031,1.42746 -8.99923,3.85245 -11.89463,3.81595 -1.26801,-0.016 -3.22774,-0.55678 -4.35502,-1.20119 -1.24906,-0.71401 -4.40664,-1.18201 -8.08308,-1.19971 l -6.03228,-0.0293 0.51124,-2.03762 c 0.76852,-3.06209 -1.77407,-5.09547 -7.22028,-5.77593 -0.89803,-0.1122 -1.77101,-0.17784 -2.61184,-0.19922 z m -3.70462,3.33695 c 1.52407,-0.0757 4.15181,0.26929 9.10408,0.97413 0.67637,0.0963 1.24042,0.94833 1.25392,1.89406 0.0135,0.94573 0.25226,1.94709 0.53027,2.22511 0.27803,0.27801 0.24802,1.46582 -0.0659,2.63968 -0.39233,1.46696 -1.46729,2.4447 -3.43949,3.12747 -1.57811,0.54635 -4.39046,1.25166 -6.25054,1.56594 -2.81403,0.47542 -3.49979,0.31926 -4.08402,-0.92579 -1.00884,-2.14995 -0.74426,-7.73286 0.47168,-9.95077 0.53578,-0.97731 0.95592,-1.47417 2.48001,-1.54983 z m -32.73809,6.62554 c -0.78649,-0.0235 -1.19971,0.58026 -1.19971,1.81058 0,1.10229 -0.67059,1.64589 -2.25442,1.82813 -1.24001,0.14269 -2.25441,0.45284 -2.25441,0.68996 0,1.12529 3.73902,4.97315 6.81891,7.01666 1.88594,1.25133 3.95769,2.27584 4.60404,2.27784 1.10741,0.003 10.76558,-3.17235 11.43174,-3.75882 0.17013,-0.14978 -2.22809,-1.46508 -5.32915,-2.92239 -3.10103,-1.45732 -6.87112,-3.70435 -8.37898,-4.9937 -1.49102,-1.27495 -2.65152,-1.92471 -3.43802,-1.94826 z m 46.05656,13.79895 c 1.126,-0.061 2.34377,0.56539 2.34377,1.44143 0,0.96554 -0.57119,0.98815 -2.81399,0.10986 -1.13763,-0.4455 -1.30023,-0.79734 -0.57569,-1.24513 0.30646,-0.18941 0.67058,-0.28582 1.04591,-0.30616 z m 3.93607,1.46779 c 0.47753,0 0.8672,0.36941 0.8672,0.82032 0,0.45091 -0.16298,0.81885 -0.36182,0.81885 -0.19885,0 -0.58852,-0.36794 -0.8672,-0.81885 -0.27868,-0.4509 -0.1157,-0.82032 0.36182,-0.82032 z m -10.08993,0.41602 c 0.21659,0.0766 0.40771,0.32141 0.56543,0.73243 0.26563,0.69223 0.15543,1.46076 -0.24463,1.70802 -1.07197,0.66252 -1.98183,-1.22473 -1.04298,-2.16359 0.26239,-0.2624 0.50559,-0.35348 0.72218,-0.27686 z m 10.36679,3.9932 c 0.0862,-0.0862 0.2002,0.029 0.33106,0.35596 0.23685,0.59182 0.20801,1.29935 -0.0645,1.57179 -0.27242,0.27243 -0.46626,-0.21243 -0.43066,-1.07667 0.0197,-0.47753 0.0779,-0.76488 0.16406,-0.85108 z m -17.14468,1.14405 c 0.51374,-0.13199 1.56671,0.77834 4.42826,3.22415 4.70902,4.02488 4.88568,10.07822 0.29444,10.07822 -0.77943,0 -1.76955,0.3545 -2.20168,0.78662 -0.44038,0.4404 -1.27338,0.48412 -1.89553,0.0996 -0.85048,-0.52564 -0.97133,-1.88478 -0.51563,-5.81109 0.42771,-3.68522 0.33844,-4.96571 -0.31787,-4.56009 -1.02271,0.63206 -1.11353,0.0664 -0.4087,-2.56205 0.19367,-0.72221 0.30846,-1.17618 0.61671,-1.25538 z m -6.65485,1.01808 c 2.24511,0.0275 3.25936,1.60993 3.64164,5.68218 0.40774,4.34364 -0.24257,8.84101 -1.14699,7.93659 -0.27475,-0.27474 -0.94592,-0.13029 -1.49122,0.32227 -1.73997,1.44404 -2.62616,-0.96773 -2.41701,-6.57574 0.27658,-7.41581 0.26981,-7.3793 1.41358,-7.3653 z m 17.37027,4.4473 c 0.26051,-0.0108 0.59201,0.0527 1.01808,0.15967 1.03364,0.25944 2.80724,0.52494 3.94046,0.59034 1.13323,0.0654 2.06074,0.19176 2.06106,0.28125 3.2e-4,0.0895 -0.82971,1.04659 -1.84426,2.12697 -1.01455,1.08038 -2.87476,2.21793 -4.13382,2.52689 -2.23828,0.54925 -2.2854,0.48915 -2.09621,-2.71731 0.13161,-2.23042 0.27317,-2.93529 1.05469,-2.96781 z m 11.32481,2.11086 c 2.02191,0.01 2.36728,0.20406 1.43409,0.80714 -1.61136,1.04136 -4.09866,1.04136 -4.09866,0 0,-0.45091 1.19911,-0.81414 2.66457,-0.80714 z m -8.47273,14.84632 c 0.28481,0.0117 0.5303,0.0864 0.66651,0.22266 0.27243,0.27243 -0.21242,0.46627 -1.07667,0.43067 -0.95507,-0.0393 -1.14913,-0.23341 -0.49512,-0.49512 0.29591,-0.11842 0.62047,-0.16994 0.90528,-0.15821 z m -24.72092,5.49175 0.13037,8.27058 0.13037,8.27206 -2.2881,-0.0601 c -4.24311,-0.1111 -14.51552,-4.35505 -16.5895,-6.85407 -0.82858,-0.99835 -0.84877,-1.5459 -0.0894,-2.46096 1.2091,-1.45689 11.6979,-5.86782 15.72963,-6.61529 z m 11.36143,1.25245 c 0.52664,0.0415 1.14809,0.2003 1.84572,0.48926 3.71407,1.53842 5.2241,3.72093 5.65141,8.16805 l 0.38819,4.04154 -3.17288,0.88184 c -3.90034,1.08304 -3.8812,1.08168 -4.92338,0.0396 -0.53422,-0.53422 -0.61277,-2.2831 -0.21241,-4.71392 0.88647,-5.38205 0.89201,-7.43158 0.0161,-6.04986 -0.54809,0.86464 -0.80955,0.79232 -1.24513,-0.34277 -0.65263,-1.70073 0.0724,-2.63827 1.65236,-2.5137 z m -5.85211,0.30176 c 0.29069,0.0306 0.60647,0.11289 0.94777,0.2461 1.53626,0.59963 1.76483,1.36681 1.83693,6.16997 0.0453,3.0163 -0.13893,6.36222 -0.4087,7.43708 -0.57446,2.28883 -2.81778,2.57529 -4.07523,0.52003 -0.48277,-0.78909 -0.93782,-3.85691 -1.01222,-6.81745 -0.13639,-5.43091 0.67664,-7.76979 2.71145,-7.55573 z m 15.18178,3.55228 2.66311,0.50684 c 1.46547,0.27895 2.81605,0.63572 3.00002,0.79249 0.18397,0.15678 0.82897,-0.12622 1.4341,-0.62843 1.94658,-1.6155 1.24297,1.93656 -0.85548,4.3184 -2.01558,2.28778 -4.75965,3.55636 -5.68657,2.62942 -0.30557,-0.30556 -0.55518,-2.14427 -0.55518,-4.08695 z m 28.62623,0.0601 c 0.28481,0.0117 0.52883,0.0864 0.66504,0.22266 0.27242,0.27243 -0.21096,0.46627 -1.0752,0.43067 -0.95507,-0.0393 -1.1506,-0.23342 -0.49659,-0.49513 0.29591,-0.11842 0.62194,-0.16993 0.90675,-0.1582 z m -17.28971,2.43752 c 0.94365,-0.14812 2.27478,0.0692 3.82914,0.67676 1.60286,0.62652 1.60003,0.65259 -0.13916,1.20558 -4.18685,1.33122 -5.18852,1.26071 -5.18852,-0.36914 0,-0.85155 0.55491,-1.36508 1.49854,-1.5132 z m -21.37225,21.06611 c 0.62742,-0.0534 1.49649,0.25304 2.66896,0.88185 3.3846,1.81518 5.64098,4.68322 6.61383,8.40681 l 0.72364,2.76858 -0.28565,-2.86966 c -0.15725,-1.57817 -0.12062,-3.32995 0.082,-3.89358 0.55597,-1.54598 2.68286,-1.22898 2.75246,0.41016 0.12499,2.94365 0.8297,5.48628 1.8633,6.72076 1.73398,2.07098 0.74142,4.14115 -1.98488,4.14115 -1.85284,0 -2.39797,-0.373 -2.39797,-1.63919 0,-0.90181 -0.32869,-1.63916 -0.7295,-1.63916 -0.40081,0 -0.67784,0.645 -0.61524,1.43409 0.0938,1.18156 -0.68655,1.47755 -4.4268,1.6758 -5.14319,0.27261 -6.01952,-0.17161 -4.65385,-2.35842 0.73415,-1.17564 0.72287,-1.76441 -0.0483,-2.53567 -1.51128,-1.5113 -1.32471,-5.89329 0.22559,-5.29838 0.90316,0.34656 1.22902,-0.10658 1.22902,-1.70803 0,-2.09333 -0.0486,-2.1181 -1.20412,-0.59033 -1.16198,1.53631 -1.20429,1.52159 -1.21729,-0.45704 -0.015,-2.26994 0.35908,-3.36064 1.4048,-3.44974 z m 44.48476,1.67141 c -3.45091,-0.3291 -4.56765,0.7 -3.70608,3.41458 0.38677,1.21868 0.87952,1.28951 3.70755,0.53467 4.50173,-1.20159 4.50014,-3.51991 -0.001,-3.94925 z m -51.66696,0.13769 c 0.45091,0 0.82032,0.73882 0.82032,1.64064 0,0.90183 -0.36941,1.63918 -0.82032,1.63918 -0.45091,0 -0.81885,-0.73735 -0.81885,-1.63918 0,-0.90182 0.36794,-1.64064 0.81885,-1.64064 z m 4.10014,0 c 0.45091,0 0.81885,0.55412 0.81885,1.23048 0,0.67637 -0.36794,1.22902 -0.81885,1.22902 -0.45091,0 -0.82032,-0.55265 -0.82032,-1.22902 0,-0.67636 0.36941,-1.23048 0.82032,-1.23048 z m 0.0425,5.30278 c 0.57598,-0.356 0.78084,1.03763 0.61524,4.19096 -0.13904,2.64744 -0.6661,4.86223 -1.19825,5.03764 -1.24065,0.40891 -2.19476,-1.14657 -1.1133,-1.81496 0.45826,-0.28322 0.83351,-1.94688 0.83351,-3.6973 0,-1.75041 0.38816,-3.42299 0.8628,-3.71634 z m 4.91534,26.77652 c 3.15595,-0.4176 2.13722,1.69544 2.13722,3.7559 0,1.92519 -2.98048,1.20464 -3.83574,-1.04484 -1.02949,-2.70779 0.35143,-2.53281 1.69852,-2.71106 z m 7.40743,8.06816 c 1.44776,-0.13674 1.15152,6.72314 1.04112,22.45613 -0.0708,10.09212 0.23838,14.82183 -0.75148,14.82183 -0.97921,0 -1.24811,-5.13678 -1.12501,-16.55183 0.1359,-12.60206 -0.20034,-20.62832 0.83537,-20.72613 z m 28.71372,172.19085 h 2.61184 l -0.4541,14.30432 c -0.24996,7.86669 -0.69513,14.69197 -0.98878,15.16713 -0.29365,0.47514 -1.98766,0.8628 -3.76468,0.8628 h -3.23001 l -0.0982,-10.86191 c -0.0534,-5.97458 -0.0384,-11.31999 0.0337,-11.87853 0.072,-0.55853 -0.23572,-1.70083 -0.68408,-2.53859 -0.66025,-1.2337 -0.36076,-1.85874 1.57325,-3.28861 1.31332,-0.97099 3.56394,-1.76661 5.00102,-1.76661 z m -49.22943,0.79981 c 5.51718,0.0202 11.29402,0.36795 12.73692,1.0254 l 2.20608,1.00488 -0.52296,10.32871 c -0.28752,5.6809 -0.75985,12.05386 -1.04883,14.16223 l -0.52442,3.83353 -11.16221,-0.0132 c -6.13873,-0.007 -11.59834,-0.28966 -12.13341,-0.62987 -1.07537,-0.68379 -1.74456,-27.12942 -0.72803,-28.77418 0.40215,-0.65069 5.65966,-0.9577 11.17686,-0.93751 z m 40.53404,33.63457 c 2.61812,0 2.86966,0.20753 2.86966,2.37159 0,1.40648 -0.52886,2.57457 -1.29787,2.86966 -3.22493,1.23754 -4.44144,0.58785 -4.44144,-2.3716 0,-2.73279 0.13687,-2.86965 2.86965,-2.86965 z m -37.71273,0.20214 c 4.5091,-0.11425 8.69939,0.11606 9.31209,0.5127 1.8428,1.19296 0.42021,7.39552 -1.80177,7.85604 -2.56532,0.53167 -11.22364,0.90082 -13.90442,0.59326 -2.22176,-0.25492 -2.28869,-0.39923 -2.0508,-4.50883 l 0.2461,-4.24662 z m 34.84308,11.38194 c 0.37149,0 0.74358,0.0562 1.0254,0.16992 0.56364,0.22743 0.10188,0.41309 -1.0254,0.41309 -1.12728,0 -1.58904,-0.18566 -1.0254,-0.41309 0.28182,-0.11371 0.65391,-0.16992 1.0254,-0.16992 z m -29.10377,0.0454 c 6.04995,0.0301 6.78753,0.15867 4.09867,0.71485 -4.48026,0.92665 -15.2936,0.88812 -13.11779,-0.0469 0.9018,-0.38753 4.96091,-0.68817 9.01912,-0.66797 z m 1.12647,3.19192 9.53036,0.0644 -3.48343,1.23341 c -3.98014,1.40886 -4.53813,2.69205 -1.23048,2.83157 1.6866,0.0711 1.84186,0.19176 0.61524,0.47901 -0.90182,0.21119 -2.10759,0.98577 -2.67922,1.72122 -1.47026,1.89155 -16.58254,2.55532 -18.04557,0.79247 -1.2439,-1.49879 -0.50202,-2.26468 2.21047,-2.28078 2.94143,-0.0174 4.77536,-1.21702 2.9385,-1.92189 -0.75106,-0.2882 -2.07209,-0.52442 -2.93704,-0.52442 -2.51812,0 -1.8142,-1.38618 0.98878,-1.94678 1.4091,-0.28183 6.85056,-0.48385 12.09239,-0.44826 z m 30.40017,2.41115 c 0.83678,0.01 1.74427,0.25004 2.02883,0.71046 0.247,0.39965 -0.26316,0.91199 -1.1338,1.13966 -1.62859,0.42589 -2.49758,0.0143 -2.49758,-1.18361 0,-0.45702 0.76578,-0.67651 1.60255,-0.66651 z m -33.88067,7.45027 c 1.20846,-0.0475 2.43632,-0.0409 3.56253,0.0278 1.50163,0.0916 2.82281,0.29353 3.67533,0.62695 1.12856,0.4414 0.0584,0.78898 -3.60501,1.17188 -7.09743,0.74183 -10.7081,0.68356 -10.7081,-0.17285 0,-0.88413 3.44988,-1.51146 7.07525,-1.65382 z m 33.49249,0.17431 c 0.19516,0.0448 0.0535,0.21616 -0.39552,0.52003 -0.67637,0.45772 -1.93655,0.83822 -2.8008,0.84522 -2.09751,0.0168 -1.4427,-0.45365 1.57179,-1.12793 0.8981,-0.20089 1.42935,-0.28207 1.62453,-0.23732 z m -23.27365,3.09818 c 1.67689,0.0649 2.38186,0.26543 2.38186,0.61231 0,0.52036 -0.64502,0.95959 -1.43409,0.97559 -0.7891,0.016 -2.35762,0.55531 -3.4849,1.19972 l -2.04933,1.17188 2.45949,0.0967 2.4595,0.0952 -2.32766,1.0298 c -1.28067,0.56621 -2.59318,1.45729 -2.91653,1.98048 -0.33731,0.54578 -3.71402,1.1439 -7.92048,1.40333 -6.45491,0.3981 -7.54806,0.26333 -9.14217,-1.12647 l -1.81056,-1.57912 4.27152,-0.60205 4.27005,-0.60206 -3.23733,-1.39747 c -4.43353,-1.9155 -2.83259,-2.39239 10.27304,-3.05569 3.88279,-0.19652 6.53071,-0.26709 8.20759,-0.20215 z m 24.38987,2.4258 c 0.21116,-0.0605 0.39428,-0.0469 0.50977,0.0747 0.14998,0.15788 -0.24363,0.76332 -0.87452,1.34473 -0.63089,0.58142 -1.14699,0.6955 -1.14699,0.25342 0,-0.6385 0.87824,-1.49148 1.51174,-1.67286 z m -2.39944,8.25154 c 0.28481,0.0117 0.5303,0.0879 0.66651,0.22412 0.27243,0.27243 -0.21243,0.46627 -1.07667,0.43067 -0.95507,-0.0393 -1.14913,-0.23342 -0.49512,-0.49513 0.29591,-0.11841 0.62047,-0.17139 0.90528,-0.15966 z m -29.82741,0.0322 c 3.29071,0 5.95761,0.22875 4.89116,0.68702 -0.90182,0.38753 -4.77622,0.69299 -8.60897,0.67969 -4.67875,-0.0162 -6.29508,-0.23899 -4.91899,-0.67969 1.43094,-0.45827 5.34609,-0.68702 8.6368,-0.68702 z m 26.61644,0.73536 c 0.19813,0 0.39609,0.0738 0.5464,0.22412 0.30061,0.30061 0.0548,0.54786 -0.5464,0.54786 -0.60114,0 -0.84699,-0.24725 -0.54639,-0.54786 0.15031,-0.1503 0.34828,-0.22412 0.54639,-0.22412 z m -23.86544,2.46682 c 6.83412,0.0436 8.25922,0.2387 6.64898,0.90967 -1.12726,0.46973 -2.97285,1.25171 -4.10013,1.73732 l -2.04933,0.88185 2.86965,0.55957 c 2.35451,0.45874 2.48825,0.57791 0.74122,0.66651 -1.17101,0.0594 -2.98122,0.84576 -4.02103,1.74758 -1.5825,1.3725 -3.03892,1.63451 -8.93856,1.60841 -4.9136,-0.0217 -7.34723,-0.37157 -8.0362,-1.15577 -1.14625,-1.30468 0.17751,-2.09182 3.51565,-2.09182 2.81113,0 2.4627,-1.58433 -0.47754,-2.17238 -6.74494,-1.34899 0.5959,-2.77544 13.84729,-2.69094 z m -3.76468,10.40048 v 10e-4 c 1.35364,-0.002 2.79616,0.0416 4.2642,0.1333 l 4.10013,0.25488 -3.27981,0.67823 v 10e-4 c -4.61389,0.95403 -14.04669,0.9582 -13.07678,0.006 0.67842,-0.66586 3.93133,-1.06975 7.99226,-1.07521 z m 29.99147,0.30616 c 0.44579,0.005 0.86067,0.065 1.1382,0.17724 0.55506,0.22458 -0.0975,0.39464 -1.45021,0.37794 -1.35273,-0.0167 -1.80697,-0.20084 -1.00929,-0.4087 0.39884,-0.10391 0.87552,-0.15199 1.3213,-0.14648 z m -29.48756,3.07034 c 5.11795,-0.1052 10.06445,-0.0138 10.44296,0.36475 0.24818,0.24815 -1.15386,0.89652 -3.11575,1.43995 l -3.56692,0.98731 2.45949,1.0796 2.4595,1.07814 -2.2134,0.0366 c -1.22593,0.0205 -2.57177,0.67769 -3.01614,1.47218 -0.64896,1.16025 -2.18814,1.48803 -8.045,1.71388 -6.50485,0.25083 -7.40034,0.10391 -8.79353,-1.43556 -1.53966,-1.70135 -1.53339,-1.7131 0.83057,-1.7256 1.3099,-0.007 2.92517,-0.35662 3.5889,-0.77637 1.03191,-0.65259 1.00209,-0.82906 -0.20508,-1.2173 -4.41532,-1.41998 -4.39093,-1.39544 -2.29396,-2.20168 1.06145,-0.4081 6.3504,-0.71073 11.46836,-0.81592 z m 31.21463,10.08846 c 0.6281,0 0.64466,0.22497 -0.39991,0.67385 -0.90182,0.38752 -2.37652,0.69445 -3.27835,0.68115 -1.31811,-0.0194 -1.23747,-0.15349 0.41016,-0.68115 1.40162,-0.44888 2.64,-0.67385 3.2681,-0.67385 z m -23.00704,3.20804 c 1.774,0.0697 2.52102,0.27133 2.52102,0.61817 0,0.52045 -0.75908,0.9463 -1.68752,0.9463 -0.92841,0 -1.48694,0.32469 -1.24219,0.72071 0.24474,0.396 -0.70323,0.94865 -2.105,1.22901 -1.40178,0.28038 -2.96298,0.44229 -3.47025,0.35889 -0.50728,-0.0834 -2.95167,-0.26842 -5.43169,-0.41016 -13.87845,-0.79318 -12.37281,-2.60133 2.73489,-3.28421 4.10578,-0.18559 6.90674,-0.24838 8.68074,-0.17871 z m -4.95561,18.8864 c 0.44579,0.005 0.86213,0.065 1.13966,0.17724 0.55505,0.22458 -0.0975,0.39464 -1.45021,0.37794 -1.35274,-0.0167 -1.80696,-0.20084 -1.00928,-0.4087 0.39884,-0.10391 0.87404,-0.15199 1.31983,-0.14648 z"
     sodipodi:nodetypes="ssssssscccccsccccccscsssssssscssssssssccssssssssssssssssscccccccssssssscscscsscsssssccccssssssscccscssssssscccsssssssscssscsssssssccccccsssssssssssssccssccsssccccssssssssssssscccssscccccscccsccsscscssssssssssssscsscsssssssssssscccsccssssssssssscsssscssscsssssssssssssssssssssssssssssssssssssscsssssscsscscsssccccscccsscccssssssssssscsccssssscscssssssssssccccsssssssscssscssssssssssssssssssssssssssssssscccssccsssscsccccccssssssssscssscccsssssssssscccssssssssscsssssssssssssscssssscccccsscccccssssssssssssssssssssssssscccsssssssccccccccccssscsscccccssssssssssssssssssssssscsssc" /></svg>
