<?xml version="1.0" encoding="UTF-8" standalone="no"?>
<!-- Generator: Adobe Illustrator 19.2.1, SVG Export Plug-In . SVG Version: 6.00 Build 0)  -->

<svg
   xmlns:dc="http://purl.org/dc/elements/1.1/"
   xmlns:cc="http://creativecommons.org/ns#"
   xmlns:rdf="http://www.w3.org/1999/02/22-rdf-syntax-ns#"
   xmlns:svg="http://www.w3.org/2000/svg"
   xmlns="http://www.w3.org/2000/svg"
   xmlns:sodipodi="http://sodipodi.sourceforge.net/DTD/sodipodi-0.dtd"
   xmlns:inkscape="http://www.inkscape.org/namespaces/inkscape"
   version="1.2"
   id="Layer_1"
   x="0px"
   y="0px"
   viewBox="0 0 50.3 50.3"
   xml:space="preserve"
   sodipodi:docname="icon.svg"
   inkscape:version="0.92.4 (5da689c313, 2019-01-14)"><metadata
   id="metadata19"><rdf:RDF><cc:Work
       rdf:about=""><dc:format>image/svg+xml</dc:format><dc:type
         rdf:resource="http://purl.org/dc/dcmitype/StillImage" /></cc:Work></rdf:RDF></metadata><defs
   id="defs17" /><sodipodi:namedview
   pagecolor="#ffffff"
   bordercolor="#666666"
   borderopacity="1"
   objecttolerance="10"
   gridtolerance="10"
   guidetolerance="10"
   inkscape:pageopacity="0"
   inkscape:pageshadow="2"
   inkscape:window-width="1680"
   inkscape:window-height="987"
   id="namedview15"
   showgrid="false"
   inkscape:zoom="8"
   inkscape:cx="24.902489"
   inkscape:cy="35.836555"
   inkscape:window-x="1672"
   inkscape:window-y="-8"
   inkscape:window-maximized="1"
   inkscape:current-layer="Layer_1" />






<path
   style="fill:none;stroke:#000000;stroke-width:0.3;stroke-linecap:butt;stroke-linejoin:miter;stroke-opacity:1;stroke-miterlimit:4;stroke-dasharray:none"
   d="M 27.281356,7.0867583 26.215678,6.4473516 9.7509533,13.640678 v 22.912076 l 16.8377117,2.983898 15.45233,-3.676589 -0.05328,-21.206991 -0.69269,-0.426271 -2.717479,1.065678 1.278813,0.586122 0.05328,18.009958 -10.496928,2.717479 -9.857521,-1.918221 7.832733,-2.504343 z"
   id="path885"
   inkscape:connector-curvature="0" /><path
   style="fill:none;stroke:#000000;stroke-width:0.3;stroke-linecap:butt;stroke-linejoin:miter;stroke-opacity:1;stroke-miterlimit:4;stroke-dasharray:none"
   d="m 26.215678,6.4473516 0.05328,25.3631354 -16.5180077,4.742267 v 0"
   id="path887"
   inkscape:connector-curvature="0" /><path
   style="fill:none;stroke:#000000;stroke-width:0.3;stroke-linecap:butt;stroke-linejoin:miter;stroke-opacity:1;stroke-miterlimit:4;stroke-dasharray:none"
   d="M 41.295025,14.226801 41.348305,35.54036 29.679131,38.257838 16.464724,35.593644 19.55519,34.687817"
   id="path889"
   inkscape:connector-curvature="0" /><path
   style="fill:none;stroke:#000000;stroke-width:0.3;stroke-linecap:butt;stroke-linejoin:miter;stroke-opacity:1;stroke-miterlimit:4;stroke-dasharray:none"
   d="m 26.268958,31.810487 1.118965,0.372987"
   id="path891"
   inkscape:connector-curvature="0" /><path
   style="fill:none;stroke:#000000;stroke-width:0.3;stroke-linecap:butt;stroke-linejoin:miter;stroke-opacity:1;stroke-miterlimit:4;stroke-dasharray:none"
   d="m 41.348305,35.54036 0.69269,0.319703"
   id="path893"
   inkscape:connector-curvature="0" /><path
   style="fill:none;stroke:#000000;stroke-width:0.3;stroke-linecap:butt;stroke-linejoin:miter;stroke-opacity:1;stroke-miterlimit:4;stroke-dasharray:none"
   d="m 29.612526,36.539433 0.06661,1.718405"
   id="path895"
   inkscape:connector-curvature="0"
   sodipodi:nodetypes="cc" /><path
   style="fill:none;stroke:#000000;stroke-width:0.1;stroke-linecap:butt;stroke-linejoin:miter;stroke-miterlimit:4;stroke-dasharray:none;stroke-opacity:1"
   d="m 27.491651,30.604411 0.333323,-0.160607 12.084665,3.444755"
   id="path897"
   inkscape:connector-curvature="0"
   sodipodi:nodetypes="ccc" /><path
   style="fill:none;stroke:#000000;stroke-width:0.1;stroke-linecap:butt;stroke-linejoin:miter;stroke-miterlimit:4;stroke-dasharray:none;stroke-opacity:1"
   d="m 27.692893,9.8721433 10.63975,5.4203357"
   id="path899"
   inkscape:connector-curvature="0"
   sodipodi:nodetypes="cc" /><path
   style="fill:none;stroke:#000000;stroke-width:0.1;stroke-linecap:butt;stroke-linejoin:miter;stroke-miterlimit:4;stroke-dasharray:none;stroke-opacity:1"
   d="m 27.735862,9.8721433 -0.31613,0.2072257"
   id="path901"
   inkscape:connector-curvature="0"
   sodipodi:nodetypes="cc" /><path
   style="fill:none;stroke:#000000;stroke-width:0.1;stroke-linecap:butt;stroke-linejoin:miter;stroke-opacity:1;stroke-miterlimit:4;stroke-dasharray:none"
   d="m 27.735862,9.8721433 0.08054,20.5372307"
   id="path903"
   inkscape:connector-curvature="0" /><path
   style="opacity:1;fill:#000000;fill-opacity:1;stroke:#000000;stroke-width:0.00625;stroke-linecap:square;stroke-linejoin:miter;stroke-miterlimit:4;stroke-dasharray:none;stroke-dashoffset:0;stroke-opacity:1;paint-order:markers stroke fill"
   d="m 9.9267257,25.044997 0.015795,-11.290049 8.0204103,-3.503584 c 4.411226,-1.9269711 8.028662,-3.4940188 8.038746,-3.4823281 0.01008,0.011691 0.03828,5.6192361 0.06265,12.4612111 l 0.04432,12.439956 -8.020561,2.302624 C 13.676777,35.23927 10.032292,36.28886 9.98923,36.305248 9.926647,36.329068 9.914105,34.06947 9.92673,25.044997 Z"
   id="path921"
   inkscape:connector-curvature="0" /><path
   style="opacity:1;fill:#000000;fill-opacity:1;stroke:#000000;stroke-width:0.00625;stroke-linecap:square;stroke-linejoin:miter;stroke-miterlimit:4;stroke-dasharray:none;stroke-dashoffset:0;stroke-opacity:1;paint-order:markers stroke fill"
   d="m 18.493892,37.924207 c -4.26862,-0.761154 -7.775105,-1.398212 -7.792187,-1.415686 -0.01708,-0.01747 3.480463,-1.040014 7.772325,-2.27231 l 7.803384,-2.240538 0.270053,0.09115 0.270053,0.09115 -1.125,0.35967 c -5.264528,1.683106 -6.679188,2.127135 -7.890165,2.476542 -1.374123,0.39648 -1.390169,0.403078 -1.390624,0.571793 -3.38e-4,0.12565 0.03664,0.179491 0.140164,0.204064 0.07734,0.01836 3.062205,0.622501 6.633024,1.342538 l 6.492399,1.309157 5.76324,-1.341346 c 5.199076,-1.210043 6.124008,-1.41131 6.023402,-1.310704 -0.07194,0.07194 -14.771796,3.531232 -14.979697,3.525147 -0.126083,-0.0037 -3.72175,-0.629472 -7.990371,-1.390625 z"
   id="path923"
   inkscape:connector-curvature="0" /><path
   style="opacity:1;fill:#000000;fill-opacity:1;stroke:#000000;stroke-width:0.00625;stroke-linecap:square;stroke-linejoin:miter;stroke-miterlimit:4;stroke-dasharray:none;stroke-dashoffset:0;stroke-opacity:1;paint-order:markers stroke fill"
   d="m 23.299528,36.793145 c -3.275522,-0.663028 -5.967438,-1.21745 -5.982036,-1.232048 -0.0146,-0.0146 0.487419,-0.175155 1.115593,-0.356791 l 1.142136,-0.330249 4.843706,0.942492 c 2.664038,0.518371 4.891212,0.942493 4.949275,0.942493 0.09205,0 0.105568,0.08001 0.105568,0.625 0,0.55555 -0.01215,0.624422 -0.109375,0.619804 -0.06016,-0.0029 -2.789346,-0.547672 -6.064867,-1.210701 z"
   id="path925"
   inkscape:connector-curvature="0" /><path
   style="opacity:1;fill:#000000;fill-opacity:1;stroke:#000000;stroke-width:0.00625;stroke-linecap:square;stroke-linejoin:miter;stroke-miterlimit:4;stroke-dasharray:none;stroke-dashoffset:0;stroke-opacity:1;paint-order:markers stroke fill"
   d="m 29.82598,37.37456 c -0.02287,-0.348965 -0.02813,-0.647932 -0.01169,-0.664372 0.02979,-0.02979 1.678753,-0.460922 7.25323,-1.896413 1.615625,-0.416041 2.960392,-0.777541 2.988371,-0.803332 0.02798,-0.02579 0.03056,-4.145643 0.0057,-9.155227 l -0.04513,-9.108334 -0.46847,-0.213489 c -0.257658,-0.117418 -0.457118,-0.224387 -0.443245,-0.237709 0.05286,-0.05076 1.958259,-0.780689 1.98032,-0.758629 0.01276,0.01276 0.02808,4.713316 0.03405,10.445684 l 0.01085,10.422486 -0.34375,0.0795 c -0.189062,0.04373 -2.702863,0.629585 -5.586225,1.301909 -2.883362,0.672323 -5.262728,1.222406 -5.28748,1.222406 -0.02475,0 -0.06372,-0.285517 -0.08658,-0.634482 z"
   id="path927"
   inkscape:connector-curvature="0" /><path
   style="opacity:1;fill:#000000;fill-opacity:1;stroke:#000000;stroke-width:0.00625;stroke-linecap:square;stroke-linejoin:miter;stroke-miterlimit:4;stroke-dasharray:none;stroke-dashoffset:0;stroke-opacity:1;paint-order:markers stroke fill"
   d="m 41.687177,35.495332 -0.130343,-0.05872 -0.0415,-6.323162 c -0.05491,-8.366176 -0.05265,-14.542382 0.0053,-14.539925 0.02578,0.0011 0.102879,0.04431 0.171327,0.09604 0.123215,0.09312 0.124673,0.195416 0.146711,10.294887 0.01224,5.610459 0.01249,10.288306 5.48e-4,10.395214 -0.01917,0.171604 -0.03698,0.1875 -0.152054,0.135662 z"
   id="path929"
   inkscape:connector-curvature="0" /><path
   style="opacity:1;fill:#000000;fill-opacity:1;stroke:#000000;stroke-width:0.00625;stroke-linecap:square;stroke-linejoin:miter;stroke-miterlimit:4;stroke-dasharray:none;stroke-dashoffset:0;stroke-opacity:1;paint-order:markers stroke fill"
   d="m 26.843152,31.811112 -0.349369,-0.118316 -0.04114,-1.732502 c -0.02262,-0.952876 -0.04119,-6.551917 -0.04126,-12.442314 -1.05e-4,-9.2397589 0.01209,-10.7051244 0.08887,-10.6756621 0.04895,0.018782 0.203634,0.1065193 0.34375,0.1949709 l 0.254757,0.160821 0.0027,1.3585909 c 0.0015,0.747225 0.02716,6.3085913 0.05706,12.3585913 0.0299,6.05 0.04979,11.00318 0.04419,11.007068 -0.0056,0.0039 -0.167402,-0.04617 -0.359555,-0.111248 z"
   id="path931"
   inkscape:connector-curvature="0" /></svg>