<?xml version="1.0" encoding="UTF-8" standalone="no"?>
<!-- Generator: Adobe Illustrator 19.2.1, SVG Export Plug-In . SVG Version: 6.00 Build 0)  -->

<svg
   xmlns:dc="http://purl.org/dc/elements/1.1/"
   xmlns:cc="http://creativecommons.org/ns#"
   xmlns:rdf="http://www.w3.org/1999/02/22-rdf-syntax-ns#"
   xmlns:svg="http://www.w3.org/2000/svg"
   xmlns="http://www.w3.org/2000/svg"
   xmlns:sodipodi="http://sodipodi.sourceforge.net/DTD/sodipodi-0.dtd"
   xmlns:inkscape="http://www.inkscape.org/namespaces/inkscape"
   version="1.2"
   id="Layer_1"
   x="0px"
   y="0px"
   viewBox="0 0 50.5 50.5"
   xml:space="preserve"
   sodipodi:docname="icon.svg"
   inkscape:version="0.92.4 (5da689c313, 2019-01-14)"><metadata
   id="metadata15"><rdf:RDF><cc:Work
       rdf:about=""><dc:format>image/svg+xml</dc:format><dc:type
         rdf:resource="http://purl.org/dc/dcmitype/StillImage" /></cc:Work></rdf:RDF></metadata><defs
   id="defs13" /><sodipodi:namedview
   pagecolor="#ffffff"
   bordercolor="#666666"
   borderopacity="1"
   objecttolerance="10"
   gridtolerance="10"
   guidetolerance="10"
   inkscape:pageopacity="0"
   inkscape:pageshadow="2"
   inkscape:window-width="1680"
   inkscape:window-height="987"
   id="namedview11"
   showgrid="false"
   inkscape:zoom="6.608998"
   inkscape:cx="-4.7978987"
   inkscape:cy="14.312044"
   inkscape:window-x="-8"
   inkscape:window-y="-8"
   inkscape:window-maximized="1"
   inkscape:current-layer="layer2" />




<g
   inkscape:groupmode="layer"
   id="layer3"
   inkscape:label="Layer 3" /><g
   inkscape:groupmode="layer"
   id="layer2"
   inkscape:label="Layer 2"><g
     id="g843"
     transform="matrix(0.14148214,0,0,0.14148214,17.610263,16.96163)"><path
       sodipodi:nodetypes="ccsccsc"
       inkscape:connector-curvature="0"
       id="path838"
       d="m 49.651388,-99.093922 0.41909,267.784962 c 0,0 0.80066,0.48986 1.8476,0.34602 0.89145,-0.12247 1.56766,-0.77295 1.56766,-0.77295 V -99.406422 c 0,0 -0.88266,0.78973 -1.63547,0.84375 -0.62085,0.04455 -2.19888,-0.53125 -2.19888,-0.53125 z"
       style="fill:none;stroke:#000000;stroke-width:0.5;stroke-linecap:butt;stroke-linejoin:miter;stroke-miterlimit:4;stroke-dasharray:none;stroke-opacity:1" /><path
       sodipodi:nodetypes="caaaaassccaccac"
       inkscape:connector-curvature="0"
       id="path857"
       d="m 50.016988,167.06098 c -0.42452,0.0835 -2.04121,0.45045 -2.65625,1.20313 -0.47328,0.57919 -0.58551,1.44443 -0.5,2.1875 0.10864,0.94414 0.69403,1.79172 1.25,2.5625 0.81875,1.13509 1.8411,2.15282 3,2.9375 0.32054,0.21703 0.67988,0.41003 1.0625,0.46875 0.45069,0.0692 0.80587,-0.003 1.35949,-0.15144 1.12744,-0.30312 3.02315,-0.82398 4.14051,-1.19231 1.62799,-0.53666 3.22831,-1.15773 4.8125,-1.8125 1.56942,-0.58616 3.73471,-1.57611 4.27473,-1.85248 0.70529,-0.36173 1.13361,-0.47442 1.10027,-0.96002 -0.0271,-0.39471 -0.99261,-0.6508 -0.99261,-0.6508 l -8.19489,-2.3492 c 0,0 -1.64777,-0.51751 -2.5,-0.625 -0.86814,-0.1095 -1.93758,-0.0263 -2.625,-0.0156"
       style="fill:none;stroke:#000000;stroke-width:0.5;stroke-linecap:butt;stroke-linejoin:miter;stroke-miterlimit:4;stroke-dasharray:none;stroke-opacity:1" /><path
       style="fill:none;stroke:#000000;stroke-width:0.5;stroke-linecap:butt;stroke-linejoin:miter;stroke-miterlimit:4;stroke-dasharray:none;stroke-opacity:1"
       d="m 46.860738,212.45161 c 0.10864,0.94414 0.69403,1.79172 1.25,2.5625 0.81875,1.13509 1.8411,2.15282 3,2.9375 0.32054,0.21703 0.67988,0.41003 1.0625,0.46875 0.45069,0.0692 0.80587,-0.003 1.35949,-0.15144 1.12744,-0.30312 3.02315,-0.82398 4.14051,-1.19231 1.62799,-0.53666 3.22831,-1.15773 4.8125,-1.8125 1.56942,-0.58616 3.73471,-1.57611 4.27473,-1.85248 0.70529,-0.36173 1.13361,-0.47442 1.10027,-0.96002"
       id="path859"
       inkscape:connector-curvature="0"
       sodipodi:nodetypes="caaassccc" /><path
       sodipodi:nodetypes="cc"
       inkscape:connector-curvature="0"
       id="path861"
       d="m 67.849408,170.40133 0.0113,42.08934"
       style="fill:none;stroke:#000000;stroke-width:0.5;stroke-linecap:butt;stroke-linejoin:miter;stroke-miterlimit:4;stroke-dasharray:none;stroke-opacity:1" /><path
       sodipodi:nodetypes="cc"
       inkscape:connector-curvature="0"
       id="path863"
       d="m 46.860798,212.49481 -0.0279,-42.35763"
       style="fill:none;stroke:#000000;stroke-width:0.5;stroke-linecap:butt;stroke-linejoin:miter;stroke-miterlimit:4;stroke-dasharray:none;stroke-opacity:1" /><path
       inkscape:connector-curvature="0"
       id="path865"
       d="m 53.062658,176.33896 -0.26516,42.07286"
       style="fill:none;stroke:#000000;stroke-width:0.5;stroke-linecap:butt;stroke-linejoin:miter;stroke-miterlimit:4;stroke-dasharray:none;stroke-opacity:1" /><path
       style="fill:none;stroke:#000000;stroke-width:0.25;stroke-linecap:butt;stroke-linejoin:miter;stroke-miterlimit:4;stroke-dasharray:none;stroke-opacity:1"
       d="m 51.703498,176.33897 -0.26519,41.78558"
       id="path867"
       inkscape:connector-curvature="0" /><path
       sodipodi:nodetypes="cssc"
       inkscape:connector-curvature="0"
       id="path869"
       d="m 53.629958,-99.744896 c 0,0 -1.16785,-0.564794 -1.80115,-0.579214 -0.3263,-0.007 -0.6564,0.028 -1.17297,0.30165 -0.33817,0.179162 -1.09207,0.771604 -1.09207,0.771604"
       style="fill:none;stroke:#000000;stroke-width:0.50545901;stroke-linecap:butt;stroke-linejoin:miter;stroke-miterlimit:4;stroke-dasharray:none;stroke-opacity:1" /></g></g><g
   inkscape:groupmode="layer"
   id="layer1"
   inkscape:label="Layer 1" /></svg>