<?xml version="1.0" encoding="UTF-8" standalone="no"?>
<svg
   xmlns:dc="http://purl.org/dc/elements/1.1/"
   xmlns:cc="http://creativecommons.org/ns#"
   xmlns:rdf="http://www.w3.org/1999/02/22-rdf-syntax-ns#"
   xmlns:svg="http://www.w3.org/2000/svg"
   xmlns="http://www.w3.org/2000/svg"
   xmlns:sodipodi="http://sodipodi.sourceforge.net/DTD/sodipodi-0.dtd"
   xmlns:inkscape="http://www.inkscape.org/namespaces/inkscape"
   inkscape:version="1.0 (4035a4fb49, 2020-05-01)"
   sodipodi:docname="icon.svg"
   xml:space="preserve"
   viewBox="0 0 50.5 50.5"
   y="0px"
   x="0px"
   id="Layer_1"
   version="1.2"><metadata
   id="metadata15"><rdf:RDF><cc:Work
       rdf:about=""><dc:format>image/svg+xml</dc:format><dc:type
         rdf:resource="http://purl.org/dc/dcmitype/StillImage" /></cc:Work></rdf:RDF></metadata><defs
   id="defs13" /><sodipodi:namedview
   inkscape:document-rotation="0"
   inkscape:current-layer="layer2"
   inkscape:window-maximized="1"
   inkscape:window-y="-8"
   inkscape:window-x="-8"
   inkscape:cy="27.580347"
   inkscape:cx="-4.976609"
   inkscape:zoom="8"
   showgrid="false"
   id="namedview11"
   inkscape:window-height="987"
   inkscape:window-width="1680"
   inkscape:pageshadow="2"
   inkscape:pageopacity="0"
   guidetolerance="10"
   gridtolerance="10"
   objecttolerance="10"
   borderopacity="1"
   bordercolor="#666666"
   pagecolor="#ffffff" />




<g
   inkscape:label="Layer 3"
   id="layer3"
   inkscape:groupmode="layer" /><g
   inkscape:label="Layer 2"
   id="layer2"
   inkscape:groupmode="layer"><g
     id="g877"><path
       style="fill:none;stroke:#000000;stroke-width:0.3;stroke-linecap:butt;stroke-linejoin:miter;stroke-miterlimit:4;stroke-dasharray:none;stroke-opacity:1"
       d="m 23.668465,4.6650567 0.07108,35.0205873 c 0,0 0.135811,0.06407 0.313397,0.04526 0.151211,-0.01602 0.265913,-0.101092 0.265913,-0.101092 V 4.6241884 c 0,0 -0.149721,0.1032858 -0.277415,0.1103473 -0.105312,0.00587 -0.372982,-0.069477 -0.372982,-0.069477 z"
       id="path838"
       inkscape:connector-curvature="0"
       sodipodi:nodetypes="ccsccsc" /><path
       style="fill:none;stroke:#000000;stroke-width:0.3;stroke-linecap:butt;stroke-linejoin:miter;stroke-miterlimit:4;stroke-dasharray:none;stroke-opacity:1"
       d="m 23.730478,39.394678 c -0.07201,0.01416 -0.346237,0.07641 -0.450562,0.204079 -0.08028,0.09825 -0.09932,0.24501 -0.08481,0.371053 0.01843,0.160148 0.117721,0.303918 0.21203,0.434661 0.13888,0.192537 0.312295,0.365169 0.508872,0.498269 0.05437,0.03682 0.115323,0.06955 0.180225,0.07951 0.07645,0.01175 0.136695,-5.08e-4 0.230602,-0.02569 0.191241,-0.05142 0.512798,-0.139766 0.702329,-0.202245 0.276146,-0.09103 0.547597,-0.196378 0.816314,-0.307442 0.266211,-0.09943 0.633496,-0.267346 0.725096,-0.314225 0.119639,-0.06136 0.192287,-0.08047 0.186631,-0.162842 -0.0046,-0.06695 -0.168369,-0.110395 -0.168369,-0.110395 l -1.390049,-0.39848 c 0,0 -0.279501,-0.08778 -0.424059,-0.106019 -0.147257,-0.01857 -0.328659,-0.0044 -0.445263,-0.0026"
       id="path857"
       inkscape:connector-curvature="0"
       sodipodi:nodetypes="caaaaassccaccac" /><path
       sodipodi:nodetypes="caaassccc"
       inkscape:connector-curvature="0"
       id="path859"
       d="m 23.195103,47.094007 c 0.01843,0.160149 0.117721,0.303919 0.21203,0.434661 0.13888,0.192538 0.312295,0.36517 0.508872,0.49827 0.05437,0.03682 0.115323,0.06955 0.180224,0.07951 0.07645,0.01175 0.136696,-5.08e-4 0.230603,-0.02569 0.191241,-0.05142 0.512798,-0.139768 0.702328,-0.202245 0.276147,-0.09103 0.547598,-0.196378 0.816315,-0.307442 0.266211,-0.09943 0.633496,-0.267346 0.725096,-0.314225 0.119638,-0.06136 0.192286,-0.08047 0.186631,-0.162843"
       style="fill:none;stroke:#000000;stroke-width:0.3;stroke-linecap:butt;stroke-linejoin:miter;stroke-miterlimit:4;stroke-dasharray:none;stroke-opacity:1" /><path
       style="fill:none;stroke:#000000;stroke-width:0.3;stroke-linecap:butt;stroke-linejoin:miter;stroke-miterlimit:4;stroke-dasharray:none;stroke-opacity:1"
       d="m 26.75528,39.961281 0.0019,7.139352"
       id="path861"
       inkscape:connector-curvature="0"
       sodipodi:nodetypes="cc" /><path
       style="fill:none;stroke:#000000;stroke-width:0.3;stroke-linecap:butt;stroke-linejoin:miter;stroke-miterlimit:4;stroke-dasharray:none;stroke-opacity:1"
       d="m 23.195114,47.101335 -0.0047,-7.184861"
       id="path863"
       inkscape:connector-curvature="0"
       sodipodi:nodetypes="cc" /><path
       style="fill:none;stroke:#000000;stroke-width:0.3;stroke-linecap:butt;stroke-linejoin:miter;stroke-miterlimit:4;stroke-dasharray:none;stroke-opacity:1"
       d="m 24.247096,40.968443 -0.04498,7.136558"
       id="path865"
       inkscape:connector-curvature="0" /><path
       inkscape:connector-curvature="0"
       id="path867"
       d="m 24.016551,40.968446 -0.04498,7.087827"
       style="fill:none;stroke:#000000;stroke-width:0.1;stroke-linecap:butt;stroke-linejoin:miter;stroke-miterlimit:4;stroke-dasharray:none;stroke-opacity:1" /><path
       style="fill:none;stroke:#000000;stroke-width:0.3;stroke-linecap:round;stroke-linejoin:round;stroke-miterlimit:4;stroke-dasharray:none;stroke-opacity:1"
       d="m 24.316036,4.3832148 c 0,0 -0.18873,-0.077066 -0.296152,-0.079511 -0.05535,-0.00119 -0.111354,0.00947 -0.198964,0.055857 -0.02587,0.013703 -0.08366,0.0657 -0.152455,0.1121456"
       id="path869"
       inkscape:connector-curvature="0"
       sodipodi:nodetypes="cssc" /></g></g><g
   inkscape:label="Layer 1"
   id="layer1"
   inkscape:groupmode="layer" /></svg>
