<?xml version="1.0" encoding="UTF-8" standalone="no"?>
<svg
   xmlns:dc="http://purl.org/dc/elements/1.1/"
   xmlns:cc="http://creativecommons.org/ns#"
   xmlns:rdf="http://www.w3.org/1999/02/22-rdf-syntax-ns#"
   xmlns:svg="http://www.w3.org/2000/svg"
   xmlns="http://www.w3.org/2000/svg"
   xmlns:sodipodi="http://sodipodi.sourceforge.net/DTD/sodipodi-0.dtd"
   xmlns:inkscape="http://www.inkscape.org/namespaces/inkscape"
   inkscape:version="1.0 (4035a4fb49, 2020-05-01)"
   sodipodi:docname="icon.svg"
   xml:space="preserve"
   viewBox="0 0 50.5 50.5"
   y="0px"
   x="0px"
   id="Layer_1"
   version="1.2"><sodipodi:namedview
   inkscape:current-layer="Layer_1"
   inkscape:window-maximized="1"
   inkscape:window-y="-8"
   inkscape:window-x="-8"
   inkscape:cy="13.361571"
   inkscape:cx="33.804843"
   inkscape:zoom="8.1188119"
   showgrid="false"
   id="namedview6"
   inkscape:window-height="987"
   inkscape:window-width="1680"
   inkscape:pageshadow="2"
   inkscape:pageopacity="0"
   guidetolerance="10"
   gridtolerance="10"
   objecttolerance="10"
   borderopacity="1"
   bordercolor="#666666"
   pagecolor="#ffffff" /><metadata
   id="metadata15"><rdf:RDF><cc:Work
       rdf:about=""><dc:format>image/svg+xml</dc:format><dc:type
         rdf:resource="http://purl.org/dc/dcmitype/StillImage" /><dc:title /></cc:Work></rdf:RDF></metadata><defs
   id="defs13" />




<path
   d="m 34.869588,36.283367 a 14.82842,13.147725 0 0 1 -20.93714,-0.950432 14.82842,13.147725 0 0 1 1.059969,-18.564606 14.82842,13.147725 0 0 1 20.938351,0.929225 14.82842,13.147725 0 0 1 -1.03605,18.565668"
   sodipodi:arc-type="arc"
   sodipodi:open="true"
   sodipodi:end="0.83455187"
   sodipodi:start="0.83683651"
   sodipodi:ry="13.147725"
   sodipodi:rx="14.82842"
   sodipodi:cy="26.520815"
   sodipodi:cx="24.937288"
   sodipodi:type="arc"
   id="path845"
   style="fill:none;fill-rule:evenodd;stroke:#000000;stroke-width:0.3;stroke-miterlimit:4;stroke-dasharray:none;stroke-opacity:1" /><path
   style="fill:none;fill-rule:evenodd;stroke:#000000;stroke-width:0.3;stroke-miterlimit:4;stroke-dasharray:none;stroke-opacity:1"
   id="path847"
   sodipodi:type="arc"
   sodipodi:cx="24.98337"
   sodipodi:cy="25.251602"
   sodipodi:rx="21.350306"
   sodipodi:ry="19.176186"
   sodipodi:start="0.83683651"
   sodipodi:end="0.83455187"
   sodipodi:open="true"
   sodipodi:arc-type="arc"
   d="M 39.284128,39.490455 A 21.350306,19.176186 0 0 1 9.1383432,38.104232 21.350306,19.176186 0 0 1 10.664512,11.027431 21.350306,19.176186 0 0 1 40.81204,12.382723 21.350306,19.176186 0 0 1 39.32031,39.461073" /><path
   d="M 39.734817,39.778855 A 22.023161,19.688509 0 0 1 8.6389868,38.355597 22.023161,19.688509 0 0 1 10.213252,10.555395 22.023161,19.688509 0 0 1 41.310881,11.946896 22.023161,19.688509 0 0 1 39.772138,39.748688"
   sodipodi:arc-type="arc"
   sodipodi:open="true"
   sodipodi:end="0.83455187"
   sodipodi:start="0.83683651"
   sodipodi:ry="19.688509"
   sodipodi:rx="22.023161"
   sodipodi:cy="25.159588"
   sodipodi:cx="24.98337"
   sodipodi:type="arc"
   id="path849"
   style="fill:none;fill-rule:evenodd;stroke:#000000;stroke-width:0.3;stroke-miterlimit:4;stroke-dasharray:none;stroke-opacity:1" /><path
   style="fill:none;fill-rule:evenodd;stroke:#000000;stroke-width:0.3;stroke-miterlimit:4;stroke-dasharray:none;stroke-opacity:1"
   id="path851"
   sodipodi:type="arc"
   sodipodi:cx="24.948769"
   sodipodi:cy="26.388693"
   sodipodi:rx="15.204624"
   sodipodi:ry="13.453218"
   sodipodi:start="0.83683651"
   sodipodi:end="0.83455187"
   sodipodi:open="true"
   sodipodi:arc-type="arc"
   d="M 35.133056,36.378083 A 15.204624,13.453218 0 0 1 13.66473,35.405567 15.204624,13.453218 0 0 1 14.751591,16.409603 15.204624,13.453218 0 0 1 36.221159,17.36042 15.204624,13.453218 0 0 1 35.158823,36.357469" /></svg>
