<?xml version="1.0" encoding="utf-8"?>
<!-- Generator: Adobe Illustrator 20.0.0, SVG Export Plug-In . SVG Version: 6.00 Build 0)  -->
<svg version="1.1" id="Layer_1" xmlns="http://www.w3.org/2000/svg" xmlns:xlink="http://www.w3.org/1999/xlink" x="0px" y="0px"
	 viewBox="0 0 615.76 1000" style="enable-background:new 0 0 615.76 1000;" xml:space="preserve">
<g>
	<path d="M584.28,0H31.47C14.12,0,0,14.12,0,31.47v937.06C0,985.88,14.12,1000,31.47,1000h552.81c17.35,0,31.47-14.12,31.47-31.47
		V31.47C615.76,14.12,601.64,0,584.28,0z M611.12,968.53c0,14.8-12.04,26.83-26.83,26.83H31.47c-14.8,0-26.83-12.04-26.83-26.83
		V31.47c0-14.8,12.04-26.83,26.83-26.83h552.81c14.8,0,26.83,12.04,26.83,26.83V968.53z"/>
	<path d="M584.28,9.61H31.47c-12.06,0-21.86,9.81-21.86,21.86v937.06c0,12.06,9.81,21.86,21.86,21.86h552.81
		c12.06,0,21.86-9.81,21.86-21.86V31.47C606.15,19.41,596.34,9.61,584.28,9.61z M599.52,968.53c0,8.4-6.84,15.24-15.24,15.24H31.47
		c-8.4,0-15.24-6.84-15.24-15.24V31.47c0-8.4,6.84-15.24,15.24-15.24h552.81c8.4,0,15.24,6.84,15.24,15.24V968.53z"/>
	<path d="M434.93,88.35H180.82c-17.35,0-31.47,14.12-31.47,31.47v760.36c0,17.35,14.12,31.47,31.47,31.47h254.11
		c17.35,0,31.47-14.12,31.47-31.47V119.82C466.4,102.47,452.29,88.35,434.93,88.35z M461.77,880.18c0,14.8-12.04,26.83-26.83,26.83
		H180.82c-14.8,0-26.83-12.04-26.83-26.83V119.82c0-14.8,12.04-26.83,26.83-26.83h254.11c14.8,0,26.83,12.04,26.83,26.83V880.18z"/>
	<path d="M434.93,96.63H180.82c-12.79,0-23.19,10.4-23.19,23.19v760.36c0,12.79,10.4,23.19,23.19,23.19h254.11
		c12.79,0,23.19-10.4,23.19-23.19V119.82C458.12,107.03,447.72,96.63,434.93,96.63z M166.91,355.77h281.94v141.91H166.91V355.77z
		 M166.91,502.32h281.94v141.91H166.91V502.32z M180.82,105.91h254.11c7.67,0,13.91,6.24,13.91,13.91v231.32H166.91V119.82
		C166.91,112.15,173.15,105.91,180.82,105.91z M434.93,894.09H180.82c-7.67,0-13.91-6.24-13.91-13.91V648.87h281.94v231.32
		C448.85,887.85,442.61,894.09,434.93,894.09z"/>
	<polygon points="311.06,937.84 304.51,937.84 304.51,959.31 316.36,959.31 317.35,955 311.06,955 	"/>
	<rect x="319.68" y="937.84" width="6.55" height="21.47"/>
	<path d="M339.16,937.39c-2.6,0-5.75,0.18-7.99,0.45v21.47h6.56v-5.12h2.34c6.1,0,9.96-3.15,9.96-8.62
		C350.02,939.54,345.9,937.39,339.16,937.39z M338.8,950.33h-1.08v-8.87c0.38-0.02,0.74-0.02,1.08-0.02c3.23,0,4.76,1.53,4.76,4.22
		C343.56,948.44,342.22,950.33,338.8,950.33z"/>
	<path d="M358.55,943.32c0-1.17,1.17-1.71,3.05-1.71c2.07,0,4.31,0.45,5.84,1.08l-0.54-4.67c-1.71-0.36-3.23-0.63-6.02-0.63
		c-5.3,0-8.89,2.09-8.89,6.47c0,7.54,10.24,6.02,10.24,9.52c0,1.35-0.99,2.06-3.41,2.06c-2.15,0-5.48-0.72-7.45-1.71l0.72,4.94
		c1.97,0.72,4.67,1.08,6.82,1.08c5.47,0,9.96-1.8,9.96-7.19C368.88,945.39,358.55,946.73,358.55,943.32z"/>
	<rect x="293.11" y="937.84" width="6.55" height="21.47"/>
	<path d="M254.87,937.39c-2.6,0-5.75,0.18-7.99,0.45v21.47h6.55v-5.12h2.33c6.1,0,9.96-3.15,9.96-8.62
		C265.73,939.54,261.6,937.39,254.87,937.39z M254.51,950.33h-1.08v-8.87c0.38-0.02,0.74-0.02,1.08-0.02c3.23,0,4.76,1.53,4.76,4.22
		C259.27,948.44,257.92,950.33,254.51,950.33z"/>
	<polygon points="281.71,946.37 274.89,946.37 274.89,937.84 268.33,937.84 268.33,959.31 274.89,959.31 274.89,950.86 
		281.71,950.86 281.71,959.31 288.26,959.31 288.26,937.84 281.71,937.84 	"/>
	<path d="M307.88,252.08c2.2,0,3.98-1.78,3.98-3.98v-42.42c0-2.2-1.78-3.98-3.98-3.98c-2.2,0-3.98,1.78-3.98,3.98v42.42
		C303.9,250.3,305.68,252.08,307.88,252.08z"/>
	<path d="M307.88,742.8c-13.11,0-23.78,10.67-23.78,23.78c0,13.11,10.67,23.78,23.78,23.78c13.11,0,23.78-10.67,23.78-23.78
		C331.66,753.46,320.99,742.8,307.88,742.8z M307.88,782.41c-8.73,0-15.83-7.1-15.83-15.83c0-8.73,7.1-15.83,15.83-15.83
		s15.83,7.1,15.83,15.83C323.71,775.31,316.61,782.41,307.88,782.41z"/>
	<path d="M309.37,417.91c-5.08,0-9.21,4.13-9.21,9.21c0,5.08,4.13,9.21,9.21,9.21c5.08,0,9.21-4.13,9.21-9.21
		C318.58,422.04,314.45,417.91,309.37,417.91z"/>
	<path d="M297.24,426.9c0-1.1-0.89-1.99-1.99-1.99h-12.62c-1.1,0-1.99,0.89-1.99,1.99c0,1.1,0.89,1.99,1.99,1.99h12.62
		C296.35,428.89,297.24,428,297.24,426.9z"/>
	<path d="M297.82,435.54l-8.92,8.92c-0.78,0.78-0.78,2.03,0,2.81c0.39,0.39,0.9,0.58,1.41,0.58s1.02-0.19,1.41-0.58l8.92-8.92
		c0.78-0.78,0.78-2.03,0-2.81C299.86,434.77,298.6,434.77,297.82,435.54z"/>
	<path d="M309.15,439.25c-1.1,0-1.99,0.89-1.99,1.99v12.62c0,1.1,0.89,1.99,1.99,1.99c1.1,0,1.99-0.89,1.99-1.99v-12.62
		C311.13,440.14,310.24,439.25,309.15,439.25z"/>
	<path d="M320.6,435.86c-0.78-0.78-2.04-0.78-2.81,0c-0.78,0.78-0.78,2.03,0,2.81l8.92,8.92c0.39,0.39,0.9,0.58,1.41,0.58
		c0.51,0,1.02-0.19,1.41-0.58c0.78-0.78,0.78-2.03,0-2.81L320.6,435.86z"/>
	<path d="M336.11,425.36h-12.62c-1.1,0-1.99,0.89-1.99,1.99c0,1.1,0.89,1.99,1.99,1.99h12.62c1.1,0,1.99-0.89,1.99-1.99
		C338.1,426.25,337.21,425.36,336.11,425.36z"/>
	<path d="M319.51,419.29c0.51,0,1.02-0.19,1.41-0.58l8.92-8.92c0.78-0.78,0.78-2.03,0-2.81c-0.78-0.78-2.04-0.78-2.81,0l-8.92,8.92
		c-0.78,0.78-0.78,2.03,0,2.81C318.49,419.09,319,419.29,319.51,419.29z"/>
	<path d="M309.59,414.99c1.1,0,1.99-0.89,1.99-1.99v-12.62c0-1.1-0.89-1.99-1.99-1.99s-1.99,0.89-1.99,1.99v12.62
		C307.61,414.1,308.5,414.99,309.59,414.99z"/>
	<path d="M298.14,418.39c0.39,0.39,0.9,0.58,1.41,0.58s1.02-0.19,1.41-0.58c0.78-0.78,0.78-2.03,0-2.81l-8.92-8.92
		c-0.78-0.78-2.03-0.78-2.81,0c-0.78,0.78-0.78,2.03,0,2.81L298.14,418.39z"/>
	<circle cx="309.37" cy="571.78" r="6.18"/>
	<path d="M301.21,571.63c0-0.73-0.59-1.33-1.32-1.33h-8.48c-0.73,0-1.32,0.59-1.32,1.33c0,0.73,0.59,1.33,1.32,1.33h8.48
		C300.62,572.96,301.21,572.36,301.21,571.63z"/>
	<path d="M301.62,577.44l-5.99,5.99c-0.52,0.52-0.52,1.36,0,1.87c0.26,0.26,0.6,0.39,0.94,0.39s0.68-0.13,0.94-0.39l5.99-5.99
		c0.52-0.52,0.52-1.36,0-1.87C302.98,576.93,302.14,576.93,301.62,577.44z"/>
	<path d="M309.22,579.94c-0.73,0-1.32,0.59-1.32,1.33v8.48c0,0.73,0.59,1.33,1.32,1.33c0.73,0,1.33-0.59,1.33-1.33v-8.48
		C310.54,580.53,309.95,579.94,309.22,579.94z"/>
	<path d="M316.91,577.66c-0.52-0.52-1.36-0.52-1.87,0c-0.52,0.52-0.52,1.36,0,1.87l5.99,5.99c0.26,0.26,0.6,0.39,0.94,0.39
		s0.68-0.13,0.94-0.39c0.52-0.52,0.52-1.36,0-1.87L316.91,577.66z"/>
	<path d="M327.33,570.61h-8.48c-0.73,0-1.33,0.59-1.33,1.33s0.59,1.33,1.33,1.33h8.48c0.73,0,1.33-0.59,1.33-1.33
		S328.06,570.61,327.33,570.61z"/>
	<path d="M316.18,566.51c0.34,0,0.68-0.13,0.94-0.39l5.99-5.99c0.52-0.52,0.52-1.36,0-1.87c-0.52-0.52-1.36-0.52-1.87,0l-5.99,5.99
		c-0.52,0.52-0.52,1.36,0,1.87C315.5,566.38,315.84,566.51,316.18,566.51z"/>
	<path d="M309.52,563.62c0.73,0,1.33-0.59,1.33-1.33v-8.48c0-0.73-0.59-1.33-1.33-1.33c-0.73,0-1.33,0.59-1.33,1.33v8.48
		C308.2,563.03,308.79,563.62,309.52,563.62z"/>
	<path d="M301.83,565.91c0.26,0.26,0.6,0.39,0.94,0.39s0.68-0.13,0.94-0.39c0.52-0.52,0.52-1.36,0-1.87l-5.99-5.99
		c-0.52-0.52-1.36-0.52-1.87,0c-0.52,0.52-0.52,1.36,0,1.87L301.83,565.91z"/>
</g>
</svg>
