<?xml version="1.0" encoding="UTF-8" standalone="no"?>
<svg
   version="1.2"
   id="Layer_1"
   x="0px"
   y="0px"
   viewBox="0 0 50.3 50.3"
   xml:space="preserve"
   sodipodi:docname="icon.svg"
   inkscape:version="1.2 (dc2aedaf03, 2022-05-15)"
   xmlns:inkscape="http://www.inkscape.org/namespaces/inkscape"
   xmlns:sodipodi="http://sodipodi.sourceforge.net/DTD/sodipodi-0.dtd"
   xmlns="http://www.w3.org/2000/svg"
   xmlns:svg="http://www.w3.org/2000/svg"
   xmlns:rdf="http://www.w3.org/1999/02/22-rdf-syntax-ns#"
   xmlns:cc="http://creativecommons.org/ns#"
   xmlns:dc="http://purl.org/dc/elements/1.1/"><metadata
   id="metadata19"><rdf:RDF><cc:Work
       rdf:about=""><dc:format>image/svg+xml</dc:format><dc:type
         rdf:resource="http://purl.org/dc/dcmitype/StillImage" /></cc:Work></rdf:RDF></metadata><defs
   id="defs17" /><sodipodi:namedview
   pagecolor="#ffffff"
   bordercolor="#666666"
   borderopacity="1"
   objecttolerance="10"
   gridtolerance="10"
   guidetolerance="10"
   inkscape:pageopacity="0"
   inkscape:pageshadow="2"
   inkscape:window-width="1680"
   inkscape:window-height="987"
   id="namedview15"
   showgrid="false"
   inkscape:zoom="5.6568543"
   inkscape:cx="0.17677669"
   inkscape:cy="-7.9549512"
   inkscape:window-x="1672"
   inkscape:window-y="-8"
   inkscape:window-maximized="1"
   inkscape:current-layer="Layer_1"
   inkscape:document-rotation="0"
   inkscape:pagecheckerboard="0"
   inkscape:showpageshadow="2"
   inkscape:deskcolor="#d1d1d1" />






<path
   style="fill:none;stroke:#000000;stroke-width:1;stroke-linecap:butt;stroke-linejoin:miter;stroke-opacity:1;stroke-dasharray:none"
   d="m 22.125,35.125 c 0,0 -1.336239,0.01569 -17.0625,0.1875 -0.6249627,0.0068 -1.1177558,-0.875042 -1.125,-1.5 C 3.6505099,9.0537346 3.8824528,32.439459 3.625,7.2499999 3.6173764,6.5041008 4.191562,5.4374849 4.9375,5.4375 c 26.826389,5.417e-4 3.0985308,0.031736 27.625,0 0.813567,-0.00105 1.565432,1.0614375 1.5625,1.8749999 -0.0359,9.9635181 0,11.2500001 0,11.2500001"
   id="path454"
   sodipodi:nodetypes="cssssssc" /><path
   style="fill:none;fill-rule:evenodd;stroke:#000000;stroke-width:1;stroke-opacity:1;stroke-dasharray:none"
   id="path604"
   sodipodi:type="arc"
   sodipodi:cx="19"
   sodipodi:cy="20.8125"
   sodipodi:rx="11.3125"
   sodipodi:ry="11.3125"
   sodipodi:start="1.3020846"
   sodipodi:end="6.1695181"
   sodipodi:open="true"
   sodipodi:arc-type="arc"
   d="M 22.003351,31.719036 A 11.3125,11.3125 0 0 1 9.8104485,27.409833 11.3125,11.3125 0 0 1 9.6265556,14.47916 11.3125,11.3125 0 0 1 21.691986,9.8249676 11.3125,11.3125 0 0 1 30.239499,19.529407" /><path
   style="fill:none;fill-rule:evenodd;stroke:#000000;stroke-width:1.02831;stroke-opacity:1"
   id="path1163"
   sodipodi:type="arc"
   sodipodi:cx="34.4375"
   sodipodi:cy="33"
   sodipodi:rx="12.272539"
   sodipodi:ry="12.022765"
   sodipodi:start="2.4065996"
   sodipodi:end="2.4059364"
   sodipodi:open="true"
   sodipodi:arc-type="arc"
   d="M 25.333296,41.06225 A 12.272539,12.022765 0 0 1 26.206247,24.082424 12.272539,12.022765 0 0 1 43.538975,24.934793 12.272539,12.022765 0 0 1 42.671771,41.914902 12.272539,12.022765 0 0 1 25.338756,41.068163" /><path
   style="fill:none;fill-rule:evenodd;stroke:#000000;stroke-width:1;stroke-opacity:1;stroke-dasharray:none"
   id="path1165"
   sodipodi:type="arc"
   sodipodi:cx="34.5625"
   sodipodi:cy="33"
   sodipodi:rx="10.712178"
   sodipodi:ry="10.524349"
   sodipodi:start="2.4065996"
   sodipodi:end="2.4059364"
   sodipodi:open="true"
   sodipodi:arc-type="arc"
   d="M 26.615827,40.057439 A 10.712178,10.524349 0 0 1 27.377789,25.193835 10.712178,10.524349 0 0 1 42.506791,25.939972 10.712178,10.524349 0 0 1 41.749846,40.803824 10.712178,10.524349 0 0 1 26.620593,40.062615" /><path
   style="fill:none;fill-rule:evenodd;stroke:#000000;stroke-width:1.02831;stroke-opacity:1"
   id="path1169"
   sodipodi:type="arc"
   sodipodi:cx="34.3125"
   sodipodi:cy="30.75"
   sodipodi:rx="12.272539"
   sodipodi:ry="12.022765"
   sodipodi:start="2.9972758"
   sodipodi:end="0.036832519"
   sodipodi:open="true"
   sodipodi:arc-type="arc"
   d="M 22.167541,32.479071 A 12.272539,12.022765 0 0 1 27.306804,20.8786 12.272539,12.022765 0 0 1 40.196787,20.199309 12.272539,12.022765 0 0 1 46.576715,31.192729" /><path
   style="fill:none;stroke:#000000;stroke-width:1px;stroke-linecap:butt;stroke-linejoin:miter;stroke-opacity:1"
   d="m 34.604038,22.627417 -0.04419,20.903844"
   id="path1171" /><path
   style="fill:none;stroke:#000000;stroke-width:1px;stroke-linecap:butt;stroke-linejoin:miter;stroke-opacity:1"
   d="m 23.864854,33.013048 10.650795,0.353553 10.783379,-0.397748"
   id="path1173" /><path
   style="fill:#000000;fill-rule:evenodd;fill-opacity:1"
   id="path1175"
   sodipodi:type="arc"
   sodipodi:cx="30.0625"
   sodipodi:cy="28.875"
   sodipodi:rx="0.34375"
   sodipodi:ry="0.34375"
   sodipodi:start="2.4065996"
   sodipodi:end="2.4059364"
   sodipodi:open="true"
   sodipodi:arc-type="arc"
   d="m 29.807494,29.105513 a 0.34375,0.34375 0 0 1 0.02445,-0.485481 0.34375,0.34375 0 0 1 0.485484,0.02437 0.34375,0.34375 0 0 1 -0.02429,0.485488 0.34375,0.34375 0 0 1 -0.485492,-0.02421" /><path
   style="fill:#000000;fill-opacity:1;fill-rule:evenodd"
   id="path1177"
   sodipodi:type="arc"
   sodipodi:cx="39.25"
   sodipodi:cy="28.3125"
   sodipodi:rx="0.34375"
   sodipodi:ry="0.34375"
   sodipodi:start="2.4065996"
   sodipodi:end="2.4059364"
   sodipodi:open="true"
   sodipodi:arc-type="arc"
   d="m 38.994994,28.543013 a 0.34375,0.34375 0 0 1 0.02445,-0.485481 0.34375,0.34375 0 0 1 0.485484,0.02437 0.34375,0.34375 0 0 1 -0.02429,0.485488 0.34375,0.34375 0 0 1 -0.485492,-0.02421" /><path
   style="fill:#000000;fill-opacity:1;fill-rule:evenodd"
   id="path1179"
   sodipodi:type="arc"
   sodipodi:cx="39.28125"
   sodipodi:cy="29.25"
   sodipodi:rx="0.34375"
   sodipodi:ry="0.34375"
   sodipodi:start="2.4065996"
   sodipodi:end="2.4059364"
   sodipodi:open="true"
   sodipodi:arc-type="arc"
   d="m 39.026244,29.480513 a 0.34375,0.34375 0 0 1 0.02445,-0.485481 0.34375,0.34375 0 0 1 0.485484,0.02437 0.34375,0.34375 0 0 1 -0.02429,0.485488 0.34375,0.34375 0 0 1 -0.485492,-0.02421" /><path
   style="fill:#000000;fill-opacity:1;fill-rule:evenodd"
   id="path1181"
   sodipodi:type="arc"
   sodipodi:cx="38.65625"
   sodipodi:cy="37.25"
   sodipodi:rx="0.34375"
   sodipodi:ry="0.34375"
   sodipodi:start="2.4065996"
   sodipodi:end="2.4059364"
   sodipodi:open="true"
   sodipodi:arc-type="arc"
   d="m 38.401244,37.480513 a 0.34375,0.34375 0 0 1 0.02445,-0.485481 0.34375,0.34375 0 0 1 0.485484,0.02437 0.34375,0.34375 0 0 1 -0.02429,0.485488 0.34375,0.34375 0 0 1 -0.485492,-0.02421" /><path
   style="fill:#000000;fill-opacity:1;fill-rule:evenodd"
   id="path1183"
   sodipodi:type="arc"
   sodipodi:cx="38.6875"
   sodipodi:cy="38.1875"
   sodipodi:rx="0.34375"
   sodipodi:ry="0.34375"
   sodipodi:start="2.4065996"
   sodipodi:end="2.4059364"
   sodipodi:open="true"
   sodipodi:arc-type="arc"
   d="m 38.432494,38.418013 a 0.34375,0.34375 0 0 1 0.02445,-0.485481 0.34375,0.34375 0 0 1 0.485484,0.02437 0.34375,0.34375 0 0 1 -0.02429,0.485488 0.34375,0.34375 0 0 1 -0.485492,-0.02421" /><path
   style="fill:#000000;fill-opacity:1;fill-rule:evenodd"
   id="path1185"
   sodipodi:type="arc"
   sodipodi:cx="39.5625"
   sodipodi:cy="37.25"
   sodipodi:rx="0.34375"
   sodipodi:ry="0.34375"
   sodipodi:start="2.4065996"
   sodipodi:end="2.4059364"
   sodipodi:open="true"
   sodipodi:arc-type="arc"
   d="m 39.307494,37.480513 a 0.34375,0.34375 0 0 1 0.02445,-0.485481 0.34375,0.34375 0 0 1 0.485484,0.02437 0.34375,0.34375 0 0 1 -0.02429,0.485488 0.34375,0.34375 0 0 1 -0.485492,-0.02421" /><path
   style="fill:#000000;fill-opacity:1;fill-rule:evenodd"
   id="path1187"
   sodipodi:type="arc"
   sodipodi:cx="39.59375"
   sodipodi:cy="38.1875"
   sodipodi:rx="0.34375"
   sodipodi:ry="0.34375"
   sodipodi:start="2.4065996"
   sodipodi:end="2.4059364"
   sodipodi:open="true"
   sodipodi:arc-type="arc"
   d="m 39.338744,38.418013 a 0.34375,0.34375 0 0 1 0.02445,-0.485481 0.34375,0.34375 0 0 1 0.485484,0.02437 0.34375,0.34375 0 0 1 -0.02429,0.485488 0.34375,0.34375 0 0 1 -0.485492,-0.02421" /><path
   style="fill:#000000;fill-opacity:1;fill-rule:evenodd"
   id="path1189"
   sodipodi:type="arc"
   sodipodi:cx="29.59375"
   sodipodi:cy="37.0625"
   sodipodi:rx="0.34375"
   sodipodi:ry="0.34375"
   sodipodi:start="2.4065996"
   sodipodi:end="2.4059364"
   sodipodi:open="true"
   sodipodi:arc-type="arc"
   d="m 29.338744,37.293013 a 0.34375,0.34375 0 0 1 0.02445,-0.485481 0.34375,0.34375 0 0 1 0.485484,0.02437 0.34375,0.34375 0 0 1 -0.02429,0.485488 0.34375,0.34375 0 0 1 -0.485492,-0.02421" /><path
   style="fill:#000000;fill-opacity:1;fill-rule:evenodd"
   id="path1191"
   sodipodi:type="arc"
   sodipodi:cx="29.625"
   sodipodi:cy="38"
   sodipodi:rx="0.34375"
   sodipodi:ry="0.34375"
   sodipodi:start="2.4065996"
   sodipodi:end="2.4059364"
   sodipodi:open="true"
   sodipodi:arc-type="arc"
   d="m 29.369994,38.230513 a 0.34375,0.34375 0 0 1 0.02445,-0.485481 0.34375,0.34375 0 0 1 0.485484,0.02437 0.34375,0.34375 0 0 1 -0.02429,0.485488 0.34375,0.34375 0 0 1 -0.485492,-0.02421" /><path
   style="fill:#000000;fill-opacity:1;fill-rule:evenodd"
   id="path1193"
   sodipodi:type="arc"
   sodipodi:cx="30.4375"
   sodipodi:cy="37.53125"
   sodipodi:rx="0.34375"
   sodipodi:ry="0.34375"
   sodipodi:start="2.4065996"
   sodipodi:end="2.4059364"
   sodipodi:open="true"
   sodipodi:arc-type="arc"
   d="m 30.182494,37.761763 a 0.34375,0.34375 0 0 1 0.02445,-0.485481 0.34375,0.34375 0 0 1 0.485484,0.02437 0.34375,0.34375 0 0 1 -0.02429,0.485488 0.34375,0.34375 0 0 1 -0.485492,-0.02421" /></svg>
