<?xml version="1.0" encoding="UTF-8"?>
<svg width="294px" height="520px" viewBox="0 0 294 520" version="1.1" xmlns="http://www.w3.org/2000/svg" xmlns:xlink="http://www.w3.org/1999/xlink">
    <!-- Generator: Sketch 47.1 (45422) - http://www.bohemiancoding.com/sketch -->
    <title>Untitled 4</title>
    <desc>Created with Sketch.</desc>
    <defs></defs>
    <g id="Page-1" stroke="none" stroke-width="1" fill="none" fill-rule="evenodd">
        <g id="icon" fill-rule="nonzero" fill="#000000">
            <path d="M149.778663,0.0233345284 C110.009283,-0.364031066 69.5217686,4.05779244 37.5285174,14.3105027 C23.7802375,18.71688 12.9096788,26.7354804 6.47702386,37.60431 C0.044368891,48.4737159 -1.8356885,62.1009621 1.91727952,77.2347901 C7.49117131,99.7101787 15.4148466,119.208714 24.9972605,136.996639 C26.6262017,140.020234 28.3890293,142.805682 30.5139783,145.046535 C32.6389273,147.287331 35.2363689,149.046815 38.3609989,149.437408 C107.540425,158.084981 190.707893,156.704043 255.483997,148.289029 C259.668018,147.745472 264.120618,144.240854 268.307809,135.758003 C278.237187,115.640466 286.35394,94.1154807 292.502453,68.6130959 C297.79912,46.6368273 281.448039,21.8906151 257.736953,14.5836355 C228.608167,5.60293219 189.548851,0.401939586 149.780623,0.0146316263 L149.778663,0.0233345284 Z M149.732555,6.14821799 C189.046042,6.52982007 227.672519,11.5756589 255.982886,20.30052 C276.741901,26.6991702 291.06538,49.0927171 286.696638,67.2149257 C280.648986,92.2988795 272.705714,113.350105 262.952124,133.10915 C259.21783,140.675488 256.070492,142.18841 254.72183,142.36362 C190.516314,150.70515 107.619731,152.065339 39.1088722,143.500704 C37.7764636,143.334138 36.3888406,142.553182 34.853153,140.933751 C33.3174078,139.31432 31.7516347,136.925402 30.2596345,134.155862 C20.8893179,116.76389 13.1811978,97.7679331 7.73122155,75.7887827 C4.28769645,61.9033313 6.04066842,50.0783351 11.6266636,40.6394327 C17.211506,31.2045647 26.7328267,24.0526235 39.3549165,20.0072149 C70.4087154,10.0530545 110.419011,5.76615483 149.731921,6.14769927 L149.732555,6.14821799 Z" id="Shape"></path>
            <path d="M257.886324,150 C170.442331,160.921854 102.231175,161.550077 29,150.887581 C63.8986373,264.198213 63.4663739,315.654842 64.2732655,369.307369 C65.5646379,370.535919 65.5790466,371.621073 68.664139,372.62865 C68.9967512,374.617292 69.5655521,377.448271 70.6907048,379.169659 C71.4528716,380.335963 73.0532257,381.447975 74.2146309,382.209507 C74.5397506,384.334514 75.0553543,387.081 76.0272552,388.784521 C77.0578287,390.590806 80.4068898,392.882666 80.4068898,392.882666 C120.705937,399.204661 163.534013,397.12461 203.832484,393.513136 C203.832484,393.513136 207.941464,390.650804 209.315428,388.480553 C210.228599,387.038177 211.053242,384.545401 211.645904,382.400625 C213.086378,381.421405 214.835316,380.134067 215.755287,378.865403 C216.838251,377.371962 217.724218,374.885295 218.378549,372.740519 C220.403617,371.958526 222.043739,371.123163 222.915758,370.207341 C220.402868,297.281632 239.491617,222.16579 257.894509,150.006628 L257.886324,150 Z M127.446537,213.859705 C133.567962,213.859705 139.265769,215.669736 144.086946,218.734656 C148.821152,215.829385 154.36444,214.11866 160.310654,214.11866 C177.485342,214.11866 191.463009,228.107278 191.463009,245.282542 C191.463009,257.290241 184.62345,267.712975 174.642778,272.911086 C174.642778,272.998403 174.654305,273.082493 174.654305,273.17004 C174.654305,290.344728 160.66511,304.333922 143.490423,304.333922 C126.315736,304.333922 112.338068,290.345304 112.338068,273.17004 C112.338068,272.8693 112.378413,272.579338 112.384176,272.280615 C102.797151,266.958243 96.2843837,256.737578 96.2843837,245.023818 C96.2843837,227.84913 110.273002,213.859936 127.448266,213.859936 L127.446537,213.859705 Z M127.446537,219.624369 C113.387027,219.624369 102.047319,230.964078 102.047319,245.023587 C102.047319,253.790464 106.453696,261.492821 113.181846,266.05464 C115.279073,257.126961 121.213875,249.678775 129.157723,245.541727 C129.157723,245.45441 129.146196,245.370262 129.146196,245.282772 C129.146196,236.310714 133.015472,228.267158 139.110154,222.573961 C135.605824,220.751943 131.680988,219.624196 127.44596,219.624196 L127.446537,219.624369 Z M160.310654,219.883324 C156.228532,219.883324 152.430782,220.929516 149.018207,222.630444 C154.903328,228.304102 158.599468,236.226567 158.599468,245.023991 C158.599468,245.328535 158.564887,245.622243 158.55336,245.924655 C166.309893,250.228326 172.04574,257.734666 173.955191,266.65197 C181.006271,262.149515 185.697769,254.299613 185.697769,245.283176 C185.697711,231.223666 174.369011,219.883958 160.309502,219.883958 L160.310654,219.883324 Z M144.03104,225.91772 C139.004336,230.144161 135.699308,236.236711 135.125263,243.188658 C137.790944,242.443551 140.590512,242.017743 143.490423,242.017743 C146.682256,242.017743 149.764005,242.506258 152.665933,243.402542 C152.218627,236.398723 148.997227,230.232342 144.030464,225.917778 L144.03104,225.91772 Z M143.490365,247.782177 C140.609301,247.782177 137.894399,248.368383 135.316554,249.24582 C136.265458,255.287133 139.308996,260.563627 143.715719,264.38887 C148.170625,260.64253 151.328741,255.458886 152.384616,249.471174 C149.607065,248.432704 146.636897,247.78235 143.490365,247.78235 L143.490365,247.782177 Z M129.845252,251.801534 C123.984338,255.544013 119.806368,261.608725 118.552805,268.73473 C121.330241,269.774064 124.300524,270.423497 127.447055,270.423497 C131.530273,270.423497 135.327504,269.378169 138.739503,267.676377 C134.348053,263.44717 131.166825,257.974658 129.845252,251.801938 L129.845252,251.801534 Z M157.755056,252.139276 C156.324552,258.230155 153.072261,263.583304 148.646979,267.720929 C152.152289,269.540988 156.076721,270.670694 160.310597,270.670694 C163.191661,270.670694 165.90662,270.084487 168.484408,269.20705 C167.371244,262.120813 163.439722,255.990742 157.755056,252.138988 L157.755056,252.139276 Z M143.670763,271.571531 C138.938286,274.476801 133.39327,276.187527 127.447055,276.187527 C124.255223,276.187527 121.173473,275.699646 118.271545,274.802728 C119.125237,288.080705 129.991646,298.56972 143.490942,298.56972 C156.831741,298.56972 167.59798,288.320467 168.676333,275.264385 C166.010652,276.009492 163.210969,276.4353 160.311173,276.4353 C154.190324,276.4353 148.49367,274.634088 143.670763,271.571588 L143.670763,271.571531 Z" id="Shape"></path>
            <path d="M84.5250211,392 L84.5250211,414.407956 C126.512201,414.670368 169.196766,417.075136 207.270521,405.139077 L206.959234,392.291634 L84.5249635,392.000461 L84.5250211,392 Z M206.34836,414.407956 C168.786404,424.881408 128.223964,423.914291 89.1358302,419.479096 L81.4611385,428.153181 C127.29258,431.283805 177.440892,435.106281 209.411089,417.392129 L206.350665,414.40663 L206.34836,414.407956 Z M205.887221,432.787793 C168.325265,443.261246 127.762825,442.306232 88.6746917,437.871095 L81,446.533076 C126.831442,449.6637 176.979754,453.486176 208.949951,435.772024 L205.889526,432.786525 L205.887221,432.787793 Z M206.497692,450.124435 C168.935736,460.597888 128.373296,459.630771 89.2851628,455.195576 L81.6104711,463.857557 C127.441913,466.988181 177.590225,470.82276 209.560422,453.108608 L206.49556,450.124147 L206.497692,450.124435 Z M206.808979,467.145813 C169.247024,477.619266 128.684584,476.664252 89.59645,472.229115 L81.9217584,480.891096 C127.7532,484.02172 177.901512,487.856299 209.871709,470.142147 L206.806847,467.145583 L206.808979,467.145813 Z M184.258665,499.85374 C161.222487,501.764401 136.997296,502.905865 109.085187,501.649246 C112.120656,504.174587 114.788354,506.000409 122.578143,517.784773 C142.229988,520.985712 157.063537,519.501319 171.055037,517.190324 C171.363443,512.64153 179.492818,505.850039 184.261547,499.853682 L184.258665,499.85374 Z" id="Shape"></path>
        </g>
    </g>
</svg>