<?xml version="1.0" encoding="utf-8"?>
<!-- Generator: Adobe Illustrator 17.1.0, SVG Export Plug-In . SVG Version: 6.00 Build 0)  -->
<!DOCTYPE svg PUBLIC "-//W3C//DTD SVG 1.1//EN" "http://www.w3.org/Graphics/SVG/1.1/DTD/svg11.dtd">
<svg version="1.1" id="Layer_1" xmlns="http://www.w3.org/2000/svg" xmlns:xlink="http://www.w3.org/1999/xlink" x="0px" y="0px"
	 viewBox="19.6 29.9 572.9 579.1" enable-background="new 19.6 29.9 572.9 579.1" xml:space="preserve">
<g>
	<path d="M306,29.9c-158.2,0-286.4,129.7-286.4,289.5c0,159.9,128.2,289.6,286.4,289.6c158.2,0,286.4-129.6,286.4-289.6
		C592.4,159.6,464.3,29.9,306,29.9z M413.4,179.2c21.3,0,38.6,26.9,38.6,60.1s-17.3,60.1-38.6,60.1c-21.3,0-38.6-26.9-38.6-60.1
		S392.1,179.2,413.4,179.2z M183.6,191.5c6.3-7.1,14-11.4,22.4-11.4c21.4,0,38.7,26.9,38.7,60c0,21.3-7.1,39.8-17.8,50.5
		c-6.4,7.2-14.1,11.5-22.6,11.5c-21.4,0-38.6-26.9-38.6-60.1C165.7,220.8,172.8,202.2,183.6,191.5z M479,412.3
		c-17.4,51-82.1,103.2-173,103.2c-90.9,0-155.6-52.2-173-103.2c-0.1-2.3-0.2-5.1-0.3-8.2h346.6C479.2,407.2,479.1,410,479,412.3z"/>
</g>
</svg>
