<?xml version="1.0" encoding="utf-8"?>
<!-- Generator: Adobe Illustrator 23.0.6, SVG Export Plug-In . SVG Version: 6.00 Build 0)  -->
<svg version="1.1" id="Layer_1" xmlns="http://www.w3.org/2000/svg" xmlns:xlink="http://www.w3.org/1999/xlink" x="0px" y="0px"
	 viewBox="0 0 67 185" style="enable-background:new 0 0 67 185;" xml:space="preserve">
<style type="text/css">
	.st0{fill:none;stroke:#000000;stroke-miterlimit:10;}
</style>
<title>Untitled 2</title>
<desc>Created with Sketch.</desc>
<g>
	<path class="st0" d="M26.9,110.7c0,0.6,0.1,1,0.1,1.4c-0.1,15.6-0.2,31.2-0.3,46.8c0,3.4,1.7,6,4.8,7.3c3,1.2,6.2,0.4,8.4-2
		c1.7-1.8,1.9-4,1.9-6.3c0.2-41.5,0.4-83,0.6-124.5c0-2.6,0-5.2,0-7.8c0-3.2-2.3-6.2-5.4-7c-3.3-0.9-6.6,0.3-8.5,3
		c-1.3,1.9-1.2,4-1.2,6.2c0,14.6-0.1,29.2-0.2,43.8c0,0.6,0,1.2,0,2c-5.9,0-11.5-0.1-17.2-0.1C10,85.9,9.9,98.2,9.8,110.7
		C15.6,110.7,21.1,110.7,26.9,110.7z"/>
	<path class="st0" d="M26.9,110.7c-5.8,0-11.4-0.1-17.1-0.1C9.9,98.2,10,85.9,10,73.4c5.7,0,11.3,0.1,17.2,0.1c0-0.8,0-1.4,0-2
		c0.1-14.6,0.2-29.2,0.2-43.8c0-2.2-0.1-4.3,1.2-6.2c1.9-2.7,5.2-4,8.5-3c3,0.8,5.3,3.8,5.4,7c0,2.6,0,5.2,0,7.8
		c-0.2,41.5-0.4,83-0.6,124.5c0,2.3-0.2,4.5-1.9,6.3c-2.3,2.5-5.4,3.3-8.4,2c-3.1-1.3-4.8-3.9-4.8-7.3c0.1-15.6,0.2-31.2,0.3-46.8
		C27,111.7,27,111.4,26.9,110.7z M41.8,92.6c0.1-21.7,0.2-43.3,0.3-65c0-1.1-0.1-2.2-0.3-3.2c-0.7-3.7-3.9-6-8-5.6
		c-3.2,0.3-5.9,3.4-5.9,6.8c-0.1,15.5-0.2,31-0.2,46.5c0,0.6,0.6,1.1,0.9,1.7c0.4,0.8,1.1,1.5,1.1,2.3c0,10.7,0,21.4-0.2,32.1
		c0,0.8-0.7,1.5-1.1,2.3c-0.3,0.6-0.9,1.1-0.9,1.7c-0.1,15.7-0.2,31.4-0.3,47.2c0,3,1.5,5.1,4.2,6.4c2.7,1.2,5.5,0.6,7.7-1.3
		c2-1.9,2.4-4.3,2.4-6.8C41.6,135.9,41.7,114.2,41.8,92.6z M10.4,73.8c-0.1,12.2-0.1,24.3-0.2,36.5c5.7,0,11.2,0.1,16.7,0.1
		c1.5,0,2.2-1,2.2-2.5c0-10.5,0.1-20.9,0.2-31.4c0-1.8-0.7-2.6-2.6-2.6c-2.6,0-5.2,0-7.8-0.1C16.1,73.8,13.3,73.8,10.4,73.8z"/>
	<path class="st0" d="M41.8,92.6c-0.1,21.7-0.2,43.3-0.3,65c0,2.5-0.4,4.9-2.4,6.8c-2.1,2-5,2.6-7.7,1.3c-2.7-1.2-4.2-3.4-4.2-6.4
		c0.1-15.7,0.1-31.4,0.3-47.2c0-0.6,0.6-1.1,0.9-1.7c0.4-0.8,1.1-1.5,1.1-2.3c0.1-10.7,0.2-21.4,0.2-32.1c0-0.8-0.7-1.5-1.1-2.3
		c-0.3-0.6-0.9-1.1-0.9-1.7c0-15.5,0.1-31,0.2-46.5c0-3.4,2.8-6.5,5.9-6.8c4.1-0.4,7.3,1.8,8,5.6"/>
	<path class="st0" d="M26.7,73.9c1.8,0,2.6,0.7,2.6,2.6c0,10.5-0.1,20.9-0.2,31.4c0,1.5-0.7,2.5-2.2,2.5c-5.5,0-11.1,0-16.7-0.1"/>
	<path class="st0" d="M10.4,73.8"/>
</g>
</svg>
