<?xml version="1.0" encoding="UTF-8" standalone="no"?>
<svg xmlns="http://www.w3.org/2000/svg"
     width="14.3611in" height="7.69444in"
     viewBox="0 0 1034 554">
    <path id="Unnamed"
          fill="none" stroke="black" stroke-width="10"
          d="M 189.00,17.00
           C 189.00,17.00 841.00,17.00 841.00,17.00
             841.00,17.00 835.00,66.00 835.00,66.00
             835.00,66.00 193.00,65.00 193.00,65.00
             193.00,65.00 189.00,17.00 189.00,17.00 Z
           M 244.00,163.00
           C 244.00,163.00 394.00,314.00 394.00,314.00
             394.00,314.00 174.00,533.00 174.00,533.00
             174.00,533.00 23.00,383.00 23.00,383.00
             23.00,383.00 244.00,163.00 244.00,163.00 Z
           M 14.00,395.00
           C 14.00,395.00 155.00,536.00 155.00,536.00
             155.00,536.00 167.00,527.00 167.00,527.00
             167.00,527.00 26.00,386.00 26.00,386.00
             26.00,386.00 14.00,395.00 14.00,395.00 Z
           M 260.00,178.00
           C 260.00,178.00 386.00,304.00 386.00,304.00
             386.00,304.00 374.00,255.00 374.00,255.00
             374.00,255.00 313.00,195.00 313.00,195.00
             313.00,195.00 260.00,178.00 260.00,178.00 Z
           M 658.00,254.00
           C 658.00,254.00 647.00,300.00 647.00,300.00
             647.00,300.00 771.00,178.00 771.00,178.00
             771.00,178.00 718.00,193.00 718.00,193.00
             718.00,193.00 658.00,254.00 658.00,254.00 Z
           M 789.00,163.00
           C 789.00,163.00 638.00,312.00 638.00,312.00
             638.00,312.00 859.00,534.00 859.00,534.00
             859.00,534.00 1009.00,384.00 1009.00,384.00
             1009.00,384.00 789.00,163.00 789.00,163.00 Z
           M 878.00,544.00
           C 878.00,544.00 1019.00,403.00 1019.00,403.00
             1019.00,403.00 1005.00,388.00 1005.00,388.00
             1005.00,388.00 864.00,527.00 864.00,527.00
             864.00,527.00 878.00,544.00 878.00,544.00 Z
           M 677.00,67.00
           C 677.00,67.00 733.00,67.00 733.00,67.00
             733.00,67.00 733.00,99.00 733.00,99.00
             733.00,99.00 717.00,98.00 717.00,98.00
             717.00,98.00 719.00,194.00 719.00,194.00
             719.00,194.00 692.00,219.00 692.00,219.00
             692.00,219.00 693.00,101.00 693.00,101.00
             693.00,101.00 680.00,100.00 680.00,100.00
             680.00,100.00 677.00,67.00 677.00,67.00 Z
           M 299.00,67.00
           C 299.00,67.00 353.00,67.00 353.00,67.00
             353.00,67.00 355.00,101.00 355.00,101.00
             355.00,101.00 337.00,101.00 337.00,101.00
             337.00,101.00 340.00,217.00 340.00,217.00
             340.00,217.00 312.00,195.00 312.00,195.00
             312.00,195.00 314.00,99.00 314.00,99.00
             314.00,99.00 298.00,100.00 298.00,100.00
             298.00,100.00 299.00,67.00 299.00,67.00 Z"/>
  <path stroke="#000000" stroke-width="1.2" transform="translate(440,350) scale(5,5)" fill="none" d="M11 9.791v-9.791l8 7-5.586 4.972 5.586 5.028-8 7v-9.847l-4.659 4.211-1.341-1.484 5.431-4.908-5.431-4.908 1.341-1.484 4.659 4.211zm1.998 9.803l2.987-2.614-2.989-2.686.002 5.3zm.002-9.948l2.974-2.636-2.974-2.602v5.238z"/>
</svg>
