<svg height="960" viewBox="0 0 960 960" width="960" xmlns="http://www.w3.org/2000/svg"><g fill="#000" fill-rule="nonzero"><path d="m425.951008 65.5654063c-18.732158 3.7128646-33.409456 13.9249841-42.117816 29.5122832-8.208458 14.6919415-10.558757 33.0565475-7.624998 53.7256405 2.790135 19.659497 10.319123 41.160879 21.999392 63.192402l.669648 1.255228c8.536943 15.902851 19.151553 31.926843 31.560886 47.605147l.62388.784893-.819397.092542c-3.972545.459927-7.874003 1.066396-11.701212 1.821315l-.879377.176325c-24.277096 4.947159-44.500071 15.663337-59.750295 31.74319l-.633719.674628-.575731.565237c-6.488942 6.399115-12.491398 13.166775-18.002501 20.282908l-.501768.650855-.425054-.71978c-3.36114-5.645288-6.948739-11.31275-10.757796-16.991017l-.122855-.180996c-1.848855-2.69202-3.747079-5.393727-5.695026-8.105661-15.637674-21.768789-33.901199-42.970979-53.650774-62.371472-.694444-.682116-1.398272-1.369176-2.11336-2.063134l-1.221566-1.180384c-1.029372-.974191-2.055453-1.93623-3.079187-2.88687-18.955468-17.607968-38.966684-33.17436-58.862992-45.753669-22.365513-14.140325-44.73578-24.734712-65.799645-30.961571-21.685057-6.409987-41.8784323-8.181242-59.7585758-4.640892-21.2741164 4.212026-37.8230507 15.71362-47.6530309 33.289024-9.3472118 16.711595-12.0470279 37.783844-8.6537089 61.664148 3.2641652 22.974048 12.1075278 48.201035 25.8560201 74.104923 13.3600672 25.172446 31.1765896 50.657142 52.6394162 75.108339 20.1415693 22.949559 42.1879443 43.469104 65.0595823 60.748728 23.407627 17.684115 47.345456 31.70874 70.244348 41.193949 21.372974 8.852582 41.653835 13.685377 59.951421 14.073l1.06483.017577.554953.003758.244493 1.895428c7.329479 55.580101 28.410277 113.673727 60.630234 167.956263l1.175273 1.970309-117.772581 113.622539c-.296026.285592-.58317.580247-.861024.883546l-.603981.659293c-.213614.233176-.421667.471386-.623985.714429-8.660493 10.403781-7.936574 23.746072-.097136 33.99987 4.649408 6.081316 11.592361 11.078995 20.702526 15.659909 3.220941 1.619603 6.755027 3.199379 10.573961 4.73075l1.542698.609947c.259626.101221.520502.202221.782618.302999l1.587519.601973c2.937504 1.098643 6.023121 2.169716 9.245689 3.209838l1.771279.56425c.892364.280569 1.794763.558791 2.706972.834596l1.837428.548368c.616791.181701 1.237875.362309 1.863184.541801l1.888537.535114c.316847.088621.634733.176959.953651.26501l1.925811.524853 1.950159.51786c.327033.08572.655064.171144.984083.256269l1.985925.507141c.99883.251756 2.006414.500775 3.022524.746989l2.043521.488668 2.065855.481064 2.087788.473338c.34977.07824.700437.156152 1.051992.233735l2.119931.461522c.710154.15251 1.423795.303681 2.140857.453493l2.16138.44534c.723836.147075 1.451025.29277 2.181501.437067l2.201219.42867c.368491.070738.737787.141122 1.107879.211148l2.230042.415848c63.38543 11.647508 139.377518 11.70076 211.432837-2.923385l.40754-.087136c1.895447-.425937 3.700007-1.12123 5.365259-2.051198l.325542-.186518.609287.330027c100.165271 53.717092 210.152709 59.142058 315.232411 7.637772l2.927302-1.453799-.426424.193295c7.26252-3.228611 14.043081-7.153033 20.293556-11.764671 20.445774-15.079428 34.062069-36.675881 40.559538-63.077898 6.232829-25.325969 5.83845-54.744693-.730504-86.731574-6.294424-30.649791-18.04958-63.399807-34.962682-97.203539-16.518511-33.012749-37.839135-66.809089-63.61336-100.597492-26.350756-34.54382-56.718415-67.796177-89.375235-98.015592l-1.702337-1.570632c-20.358809-18.728062-41.40922-36.100742-62.657959-51.719227l-2.472593-1.80867.363857-.521506c4.354514-6.323893 7.521709-13.572107 9.472846-21.539766 3.307684-13.507103 3.094501-28.859102-.272164-45.331141-3.156478-15.446296-9.008631-31.823929-17.383493-48.645782-5.115751-10.274651-11.159345-20.688188-18.086905-31.143l-1.072854-1.606889c-1.561474-2.276104-3.164424-4.560084-4.809141-6.852403-13.207162-18.405745-28.625028-36.324267-45.29695-52.719684-.58637-.5766-1.180501-1.157221-1.784003-1.743541l-1.052668-1.018077c-.869555-.823854-1.736437-1.637533-2.601445-2.441671-16.019051-14.896811-32.937814-28.072244-49.776564-38.7302494-18.601429-11.7735818-37.234068-20.6655795-54.873419-26.015929l-1.057161-.3167657c-18.633886-5.5141906-36.066796-7.0450099-51.613928-3.9631896zm40.263154 42.3188917c14.170377 4.19367 29.871819 11.638007 45.888702 21.775727 14.696189 9.301882 29.670674 20.963214 43.932057 34.225493l1.162241 1.085675 1.104838 1.042807-.079591-.07788c.836458.808037 1.64882 1.599506 2.441561 2.379039 15.064033 14.814194 28.989339 30.998075 40.843683 47.518508l1.103497 1.546403c.730689 1.029604 1.451422 2.056538 2.162179 3.080758l1.016671 1.475172-.080732-.121869c6.390648 9.537292 11.889769 18.952704 16.459352 28.13041 6.887195 13.833709 11.573612 26.948952 14.000967 38.827266 2.257492 11.045203 2.389366 20.541947.610093 27.807705-1.422118 5.807357-3.950777 9.844648-7.599678 12.549177-1.044218.774221-2.195419 1.458335-3.466827 2.053736l-.552288.249745c-14.488462 6.324267-16.25841 26.16507-3.118161 34.954024l.526689.35228c27.970499 18.72364 56.05097 41.036695 82.890992 65.873663 30.98875 28.675845 59.802657 60.226855 84.739438 92.917064 24.293459 31.847211 44.27856 63.526549 59.644561 94.235971 15.41332 30.806161 25.993346 60.28225 31.55248 87.351649 5.448338 26.530154 5.763782 50.060707 1.071712 69.126083-4.344212 17.652401-12.851169 31.145067-25.463682 40.447208-3.63412 2.681275-7.590667 5.009756-11.874393 6.985326l-.922951.417935c-.286801.1275-.570562.261734-.851045.402589-98.963237 49.698183-201.990466 42.281861-296.109372-13.603278l-.312414-.181782c-9.505838-5.418904-21.641301-2.187042-27.175758 7.303939l-.430983.736159-1.332438.245201c-63.261141 11.496902-129.286865 11.067613-184.513296 1.151133l-2.62058-.479258-2.004475-.378991-1.983583-.386026-1.962198-.392859c-.325223-.066035-.649535-.132346-.972925-.19893l-1.929197-.402734-1.90658-.409066-1.88347-.415197-1.859867-.421128-1.835772-.426857-1.811184-.432386-1.786102-.437715-1.760528-.442841c-.291263-.074223-.58144-.148651-.87052-.223281l-1.721243-.450156c-.284654-.075417-.56819-.151026-.8506-.226825l-1.680849-.457018-1.653303-.461343c-.819683-.231718-1.628852-.464983-2.427229-.699682l-1.582284-.471274c-.261288-.078853-.521357-.157857-.780196-.237008l-1.538192-.476631-1.508183-.479951c-.497672-.160515-.990259-.321549-1.477681-.48307l-1.446685-.485989c-1.192519-.406151-2.352238-.815133-3.477873-1.226424l-1.334319-.494622-1.301106-.496638c-.214056-.082929-.426708-.165935-.637944-.249011l-1.250363-.499284c-.822147-.333382-1.621331-.667773-2.396895-1.002905l-1.145547-.503221-.635793-.287013 117.777378-113.624843c6.869624-6.627484 8.098315-17.185815 2.93416-25.21369-38.943601-60.539311-62.526803-126.856614-66.443326-187.354976-.792116-12.235785-12.29354-20.853964-24.215979-18.249589l-.361405.082364c-4.149222.984925-8.879769 1.44381-14.137207 1.332377-12.91902-.273682-28.426999-3.969131-45.491655-11.037229-19.626893-8.129877-40.641832-20.442048-61.439429-36.154324-20.696478-15.63628-40.750398-34.301359-59.109069-55.21946-19.466713-22.177155-35.5039057-45.116705-47.3700135-67.474299-11.6975641-22.039681-19.021699-42.932849-21.5857964-60.979637-2.2509051-15.840626-.6616508-28.244864 3.9619243-36.511213 3.9534374-7.068504 10.4518539-11.584937 20.5116249-13.576654 10.8935516-2.156973 24.7343687-.94293 40.6503357 3.761744 17.285695 5.109964 36.353126 14.140154 55.763138 26.411898 17.753785 11.224713 35.820439 25.278463 53.017751 41.253258l1.400643 1.306921 1.264397 1.189134 1.489281 1.443182 1.450337 1.41799c18.140608 17.819964 34.910376 37.288046 49.193946 57.171824l1.329293 1.860761c.880226 1.238941 1.748512 2.474744 2.604844 3.707375l1.208827 1.751086-.056151-.08552c7.720024 11.508455 14.368623 22.879345 19.899221 33.974871 1.59953 3.209275 3.103795 6.392074 4.511538 9.543925 6.839173 15.312487 28.354113 15.914117 36.038306 1.007751l.556008-1.069151c7.834581-14.933914 17.788791-28.430147 29.870281-40.367904l.142797-.140972.372905-.347494c.364996-.351777.725861-.721393 1.082132-1.109262 9.591009-10.441659 22.843499-17.526901 40.01234-20.91357 14.058558-2.773059 30.107412-2.873238 47.816342-.277656 19.164291 2.808894 30.731911-20.541313 16.885909-34.085616-6.246163-6.110061-12.322356-12.526524-18.185172-19.214105-16.143861-18.412061-29.43279-37.441601-39.251256-55.961655-9.632839-18.169624-15.645417-35.340422-17.736909-50.077228-1.793735-12.637327-.551596-22.343067 2.941567-28.595318 2.836374-5.076894 7.463068-8.296039 14.975485-9.785061 8.38547-1.662204 19.193332-.760174 31.731851 2.861802z"/><path d="m427.007629 279.959438c26.508458-5.27267 57.308541-2.575803 90.959315 7.416839 33.565703 9.966976 69.609652 27.109684 105.829243 50.11266 32.461988 20.617234 65.223503 46.215152 96.294688 75.208697 30.916038 28.848538 59.66396 60.591349 84.593629 93.54637 24.360964 32.203593 44.486578 64.37327 60.05157 95.741317 15.861968 31.968793 26.855385 62.85351 32.717061 91.63552 6.034711 29.631934 6.394286 56.67943.77968 79.684736-5.727509 23.468556-17.594832 42.4489-35.387387 55.681569-5.147552 3.829752-10.716928 7.126069-16.679044 9.882959l-.835384.379895-2.22566 1.117341c-79.556521 39.537795-162.13544 43.905366-241.372899 16.557304l-2.424586-.847089c-72.502174-25.637632-139.479608-77.231623-191.397754-144.874677-49.921722-65.041957-82.745451-141.036957-91.3985-212.46768-9.185023-75.822153 9.109634-142.317899 55.316895-188.653623l1.235504-1.227576.27361-.295918c13.306674-14.349828 31.119495-23.952505 52.800709-28.42258zm409.508716 541.337841c.121454-.061255.240117-.118865.358474-.174128l.99574-.451782c4.373458-2.029585 8.452635-4.410417 12.232633-7.140949l.805418-.590466c13.893773-10.33307 23.230687-25.26633 27.894475-44.376274 4.856478-19.89895 4.535717-44.026885-.947661-70.951635-5.499473-27.003521-15.913419-56.260282-31.035129-86.737132-14.994899-30.219142-34.459142-61.331654-58.086108-92.56495-24.227256-32.026488-52.202457-62.916077-82.288081-90.989734-30.191715-28.172883-61.981461-53.011518-93.372342-72.948471-34.739094-22.062716-69.127815-38.418188-100.800025-47.822912-30.752993-9.132142-58.359848-11.549408-81.36438-6.973687-18.300467 3.640171-32.754318 11.432523-43.316073 23.027479-.177329.194676-.356993.380235-.53876.556883l-.229526.214479-.840339.835753c-41.087946 41.211304-57.774028 100.786333-49.867917 169.998508l.249706 2.121741c8.204432 67.727398 39.590337 140.393485 87.409154 202.69561 49.669895 64.713857 113.547054 113.919647 182.199899 138.19611 74.954034 26.504638 152.7954 22.72878 228.24321-14.771636z"/><path d="m436.69877 292.914697c26.755133-5.357822 58.244941-2.34111 92.855617 8.280198 32.627194 10.01308 67.650579 26.732181 102.889337 48.910541 32.102152 20.204007 64.563265 45.274529 95.336634 73.58368 31.011115 28.528119 59.863837 59.873832 84.681964 92.158614 13.111611 17.05562 24.987967 34.109249 35.595821 51.065277l1.226177 1.969593c8.169336 13.470741 15.539713 26.860931 22.094072 40.112434 7.399914 14.960625 13.69936 29.684992 18.864107 44.054281 5.216108 14.510204 9.273471 28.650779 12.145482 42.286207 5.948976 28.24388 6.459474 54.019339 1.239916 75.930802-5.217786 21.902586-16.111183 39.687989-32.47715 52.176775l-.586825.443774-.170922.122127-.576498.429508c-8.597907 6.316202-18.461367 11.051221-29.4266 14.196218l-.970376.273373c-11.586674 3.205782-24.346618 4.652391-38.093033 4.378791-13.297491-.265098-27.510483-2.171552-42.476819-5.670961-14.866543-3.47559-30.438624-8.516478-46.534162-15.055062-17.39584-7.066513-35.352885-15.883548-53.549406-26.29956-18.066801-10.342244-36.30623-22.226849-54.421861-35.481484-19.0582-13.944544-37.896067-29.349742-56.217612-46.016519-18.143252-16.50445-35.728708-34.195361-52.525428-52.892898-17.88548-19.849147-34.326681-40.185951-49.139032-60.73529-14.912024-20.688091-28.096872-41.493722-39.371111-62.088772-11.077903-20.237356-20.284432-40.166958-27.465637-59.447039-7.221256-19.386481-12.376769-38.062026-15.357508-55.702656-3.68571-21.812188-4.040506-41.766508-.992499-59.377919.028084-.162272.060173-.323825.096236-.484512 8.467832-37.72982 33.486439-62.693368 72.140483-70.874513l1.175506-.242773 1.891357 9.391068zm86.987974 27.400103c-31.318426-9.610984-59.285915-12.363711-82.287413-7.941238l-.76232.149555c-31.23743 6.292305-50.53081 25.071564-57.542093 54.981066l-.153918.670817-.104648.619437c-2.430077 14.749919-2.126057 31.778316.966866 50.657336l.185154 1.112662c2.761649 16.34401 7.582588 33.807581 14.379128 52.053851 6.835402 18.351668 15.639083 37.409217 26.26702 56.824564 10.870991 19.858424 23.614416 39.967492 38.052101 59.997511 14.384367 19.955591 30.369041 39.727701 47.78265 59.053186 16.357212 18.208274 33.468682 35.422356 51.115573 51.47528 17.799264 16.191667 36.087244 31.147179 54.569264 44.670143 17.523021 12.821041 35.138173 24.298874 52.547894 34.264976 17.440002 9.982968 34.596 18.406683 51.140688 25.127442 15.160821 6.158869 29.744674 10.879854 43.560238 14.10974 13.654471 3.19267 26.485536 4.91376 38.321878 5.149729 11.885171.236554 22.725086-.992378 32.361744-3.658633 9.033311-2.499095 16.988225-6.258842 23.808743-11.252922l.761707-.564302.4744-.358237c12.292264-9.424602 20.613877-22.887651 24.851127-40.042809l.189789-.782321c4.475952-18.789839 4.023404-41.639349-1.354927-67.173983-2.678583-12.717092-6.483236-25.976931-11.39591-39.643042-4.902279-13.639054-10.902095-27.663063-17.970049-41.952554-5.966419-12.062814-12.647758-24.265573-20.031063-36.558838l-1.219367-2.020216-1.142329-1.833148c-9.85759-15.75163-20.863927-31.615125-32.991851-47.505785l-1.460733-1.907005c-24.108493-31.361652-52.184905-61.863977-82.366284-89.628797-29.902675-27.508178-61.403744-51.837235-92.449198-71.376191-33.824349-21.288168-67.272638-37.255366-98.103861-46.717274z"/><path d="m569.03652 452.474583c11.446959-2.294199 24.514952-1.130964 38.645077 3.096387 13.916813 4.162226 28.762054 11.277529 43.638955 20.7953 13.280151 8.496216 26.65877 19.028048 39.344862 30.952934 12.609256 11.852372 24.331651 24.890669 34.503527 38.436354 9.945046 13.243462 18.175293 26.495516 24.55569 39.449813 6.527926 13.253444 11.067898 26.092779 13.498668 38.11603 2.532831 12.526175 2.694305 24.063545.279179 34.032363-2.510845 10.364648-7.79605 18.900679-15.758229 24.865305-8.509857 6.37749-19.378067 9.350194-31.821524 9.084025-11.883181-.2545-25.166066-3.460302-39.235101-9.357523-15.212232-6.375782-31.158512-15.830056-46.772964-27.767624-15.298157-11.69547-30.05296-25.592121-43.534247-41.13617-14.351232-16.544096-26.253317-33.771699-35.163518-50.759122-9.107772-17.365066-14.945621-34.211156-17.085685-49.450998-2.176489-15.500981-.474083-29.013947 5.364862-39.577131 6.052066-10.949146 16.25841-18.119349 29.540448-20.779943zm162.177996 140.423818c-5.737729-11.4507-13.119017-23.25566-22.03839-35.133269-9.473408-12.615549-20.426672-24.798376-32.208799-35.873268-11.808649-11.100093-24.216583-20.867788-36.425079-28.678393-13.393556-8.568775-26.578585-14.88834-38.592242-18.481372-11.216953-3.355809-21.072044-4.233051-28.984232-2.64729-7.650017 1.532415-12.829564 5.171172-15.965775 10.845075-3.518515 6.365313-4.681353 15.595425-3.063091 27.120703 1.797391 12.7996 6.890513 27.496656 14.991567 42.942294 8.173669 15.583212 19.196858 31.538662 32.560425 46.944179 12.595673 14.522927 26.358918 27.485691 40.57281 38.352238 14.308166 10.938885 28.788829 19.52422 42.357118 25.210989 11.897412 4.986957 22.770593 7.611181 31.93187 7.807387 8.236821.176188 14.743061-1.603418 19.401011-5.094197 4.071779-3.050251 6.853162-7.542407 8.313034-13.568688 1.66604-6.876847 1.545087-15.518968-.444766-25.359837-2.012039-9.952089-5.808624-20.814429-11.330389-32.205564l-.50673-1.037004z"/><path d="m504.255925 368.214027c18.732247-3.783102 40.40345-1.844279 64.024106 5.277222 23.550912 7.101037 48.797793 19.296419 74.154273 35.647727 22.244779 14.34483 44.682359 32.078182 66.015371 52.146249l2.065815 1.953753 1.427112 1.362398 1.470794 1.415158.93608.923239 1.837914 1.824556c.302731.301888.60374.602749.903137.902701 22.721386 22.765272 43.730063 47.641116 61.691403 73.143683 1.79138 2.543739 3.54558 5.078936 5.262823 7.605902l1.281006 1.893687-8.273759 5.570698 8.333905-5.480319c9.524957 14.482529 17.819515 28.875422 24.825313 43.033155l.773115 1.572106c11.097095 22.709454 18.792672 44.65154 22.896823 65.113443 4.223561 21.053656 4.485864 40.298644.538925 56.719651-4.022812 16.736863-12.389899 30.347398-24.962079 39.841229-13.532403 10.222328-31.008189 15.050374-51.292964 14.61185-19.761834-.426998-42.060749-5.846741-65.799517-15.875478-25.879748-10.93391-53.098599-27.199106-79.796553-47.7716-26.210255-20.197205-51.50869-44.213566-74.633151-71.087774-24.604604-28.589898-44.986148-58.325492-60.213449-87.588755-15.489392-29.766463-25.382242-58.550548-28.984878-84.412944-3.600541-25.844371-.806412-48.088031 8.569013-65.184633 9.569467-17.451124 25.660748-28.857867 46.949422-33.156904zm58.250687 24.425789c-20.686003-6.236718-39.118786-7.885815-54.291643-4.821555-15.633629 3.157056-26.700053 11.001792-33.372082 23.169075-7.087079 12.923677-9.34695 30.914179-6.296685 52.808712 3.265094 23.439271 12.423116 50.08531 26.917889 77.940383 14.497852 27.861434 34.007629 56.325166 57.6314 83.775362 22.242763 25.849538 46.552956 48.92774 71.68106 68.291056 25.390872 19.565303 51.141843 34.953337 75.372374 45.190471 21.553703 9.105628 41.426351 13.935668 58.448268 14.303465 16.047621.346923 29.132719-3.268105 38.807037-10.576049 8.70162-6.570994 14.586324-16.143496 17.569685-28.555737 3.209629-13.353474 2.986491-29.725017-.702136-48.112124-3.751556-18.703988-10.882103-39.035025-21.256635-60.265804-6.544042-13.39075-14.340014-27.060628-23.334827-40.862425l-1.004355-1.534069-1.173707-1.733598c-1.654245-2.434254-3.344925-4.877645-5.072146-7.33028-17.295828-24.557632-37.56842-48.561898-59.495081-70.530909-1.154568-1.156708-2.336006-2.329434-3.481283-3.45729-1.136741-1.097276-2.268725-2.179793-3.398223-3.249579-20.863784-19.767459-42.813447-37.182534-64.460179-51.141705-23.869413-15.392363-47.450393-26.783039-69.088731-33.3074z"/></g></svg>