<?xml version="1.0" encoding="UTF-8" standalone="no"?>
<!-- Generator: Adobe Illustrator 19.2.1, SVG Export Plug-In . SVG Version: 6.00 Build 0)  -->

<svg
   xmlns:dc="http://purl.org/dc/elements/1.1/"
   xmlns:cc="http://creativecommons.org/ns#"
   xmlns:rdf="http://www.w3.org/1999/02/22-rdf-syntax-ns#"
   xmlns:svg="http://www.w3.org/2000/svg"
   xmlns="http://www.w3.org/2000/svg"
   xmlns:sodipodi="http://sodipodi.sourceforge.net/DTD/sodipodi-0.dtd"
   xmlns:inkscape="http://www.inkscape.org/namespaces/inkscape"
   version="1.2"
   id="Layer_1"
   x="0px"
   y="0px"
   viewBox="0 0 50.3 50.3"
   xml:space="preserve"
   sodipodi:docname="icon.svg"
   inkscape:version="0.92.4 (5da689c313, 2019-01-14)"><metadata
   id="metadata19"><rdf:RDF><cc:Work
       rdf:about=""><dc:format>image/svg+xml</dc:format><dc:type
         rdf:resource="http://purl.org/dc/dcmitype/StillImage" /></cc:Work></rdf:RDF></metadata><defs
   id="defs17" /><sodipodi:namedview
   pagecolor="#ffffff"
   bordercolor="#666666"
   borderopacity="1"
   objecttolerance="10"
   gridtolerance="10"
   guidetolerance="10"
   inkscape:pageopacity="0"
   inkscape:pageshadow="2"
   inkscape:window-width="1680"
   inkscape:window-height="987"
   id="namedview15"
   showgrid="false"
   inkscape:zoom="16.000001"
   inkscape:cx="19.003553"
   inkscape:cy="23.370822"
   inkscape:window-x="-8"
   inkscape:window-y="-8"
   inkscape:window-maximized="1"
   inkscape:current-layer="Layer_1" />






<path
   style="fill:none;stroke:#000000;stroke-width:0.34951365;stroke-linecap:butt;stroke-linejoin:miter;stroke-miterlimit:4;stroke-dasharray:none;stroke-opacity:1"
   d="m 13.678466,7.8062562 -0.01095,34.5680128 17.719523,1.881095 7.169446,-1.134865 v -30.55154 l -1.141292,-0.702334 -2.617454,1.115352 1.980963,1.024572 0.01095,-1.152267 -1.157754,0.526752 1.146775,0.625515 0.02196,22.002816 -3.95063,1.053502 -9.920472,-1.931419 v 6.057633 l -6.145424,1.448564"
   id="path837"
   inkscape:connector-curvature="0"
   sodipodi:nodetypes="cccccccccccccccc" /><path
   style="fill:none;stroke:#000000;stroke-width:0.34951365;stroke-linecap:butt;stroke-linejoin:miter;stroke-miterlimit:4;stroke-dasharray:none;stroke-opacity:1"
   d="M 22.926362,4.4233338 21.167947,3.4537525 13.596162,7.9598919"
   id="path839"
   inkscape:connector-curvature="0"
   sodipodi:nodetypes="ccc" /><path
   style="fill:none;stroke:#000000;stroke-width:0.34951365;stroke-linecap:butt;stroke-linejoin:miter;stroke-miterlimit:4;stroke-dasharray:none;stroke-opacity:1"
   d="M 32.850003,37.062867 32.838586,43.80456 18.973852,42.124683"
   id="path843"
   inkscape:connector-curvature="0"
   sodipodi:nodetypes="ccc" /><path
   style="fill:none;stroke:#000000;stroke-width:0.34951365;stroke-linecap:butt;stroke-linejoin:miter;stroke-miterlimit:4;stroke-dasharray:none;stroke-opacity:1"
   d="m 37.415165,11.866625 0.03168,31.171371 1.109614,0.08251 v 0"
   id="path845"
   inkscape:connector-curvature="0"
   sodipodi:nodetypes="cccc" /><path
   style="fill:none;stroke:#000000;stroke-width:0.34951365;stroke-linecap:butt;stroke-linejoin:miter;stroke-miterlimit:4;stroke-dasharray:none;stroke-opacity:1"
   d="m 22.844058,4.2806723 0.08547,36.9084087"
   id="path847"
   inkscape:connector-curvature="0"
   sodipodi:nodetypes="cc" /><path
   style="fill:none;stroke:#000000;stroke-width:0.34951365;stroke-linecap:butt;stroke-linejoin:miter;stroke-miterlimit:4;stroke-dasharray:none;stroke-opacity:1"
   d="m 22.929526,41.189081 -1.624149,-0.438959 -7.637889,1.624147"
   id="path849"
   inkscape:connector-curvature="0" /><path
   style="fill:none;stroke:#000000;stroke-width:0.34951365;stroke-linecap:butt;stroke-linejoin:miter;stroke-miterlimit:4;stroke-dasharray:none;stroke-opacity:1"
   d="m 21.167947,3.4537525 0.13743,37.2963695 v 0 0"
   id="path851"
   inkscape:connector-curvature="0" /><path
   style="fill:none;stroke:#000000;stroke-width:0.11650455;stroke-linecap:butt;stroke-linejoin:miter;stroke-miterlimit:4;stroke-dasharray:none;stroke-opacity:1"
   d="m 23.014773,7.7061066 0.37247,-0.3414298 c 3.750418,1.9573653 9.705812,4.8342522 13.413379,6.7845342 v 0"
   id="path853"
   inkscape:connector-curvature="0"
   sodipodi:nodetypes="cccc" /><path
   style="fill:none;stroke:#000000;stroke-width:0.11650455;stroke-linecap:butt;stroke-linejoin:miter;stroke-miterlimit:4;stroke-dasharray:none;stroke-opacity:1"
   d="M 36.800633,36.009365 23.356203,32.940881"
   id="path855"
   inkscape:connector-curvature="0"
   sodipodi:nodetypes="cc" /><path
   style="fill:none;stroke:#000000;stroke-width:0.11650455;stroke-linecap:butt;stroke-linejoin:miter;stroke-miterlimit:4;stroke-dasharray:none;stroke-opacity:1"
   d="m 23.387243,7.3646768 -0.03104,25.5762042 -0.338886,0.303043 v 0"
   id="path857"
   inkscape:connector-curvature="0" /><path
   style="fill:none;stroke:#000000;stroke-width:0.34951365;stroke-linecap:butt;stroke-linejoin:miter;stroke-miterlimit:4;stroke-dasharray:none;stroke-opacity:1"
   d="M 37.446843,43.037996 32.838586,43.80456"
   id="path859"
   inkscape:connector-curvature="0" /><path
   style="opacity:1;fill:#000000;fill-opacity:1;stroke:#000000;stroke-width:0.02633753;stroke-linecap:square;stroke-linejoin:miter;stroke-miterlimit:4;stroke-dasharray:none;stroke-dashoffset:0;stroke-opacity:1;paint-order:markers stroke fill"
   d="M 13.91326,25.067194 13.93543,8.0164455 17.315414,6.0009708 c 1.85899,-1.1085115 3.57076,-2.1155072 3.625938,-2.1376475 0.02941,1.5863154 0.002,2.0729623 0.0773,19.7117887 l 0.07262,17.002039 -3.446235,0.726375 c -1.895429,0.399504 -3.292473,0.705225 -3.759376,0.802252 0.0084,-0.513357 0.0065,-0.826181 0.0276,-17.038584 z"
   id="path861"
   inkscape:connector-curvature="0"
   sodipodi:nodetypes="ccscscsccc" /><path
   style="opacity:1;fill:#000000;fill-opacity:1;stroke:#000000;stroke-width:0.02633753;stroke-linecap:square;stroke-linejoin:miter;stroke-miterlimit:4;stroke-dasharray:none;stroke-dashoffset:0;stroke-opacity:1;paint-order:markers stroke fill"
   d="m 22.000977,40.725126 -0.450255,-0.131322 -0.05374,-9.405815 c -0.02956,-5.173199 -0.06763,-13.445574 -0.08459,-18.383056 l -0.03086,-8.9772387 0.622647,0.3423244 0.622647,0.3423244 0.02216,18.1822719 c 0.0177,14.521768 0.07726,17.00242 0.07312,18.223539 -0.06048,-0.0056 -0.473464,-0.120796 -0.721105,-0.193028 z"
   id="path863"
   inkscape:connector-curvature="0"
   sodipodi:nodetypes="ccsccccsccc" /><path
   style="opacity:1;fill:#000000;fill-opacity:1;stroke:#000000;stroke-width:0.02633753;stroke-linecap:square;stroke-linejoin:miter;stroke-miterlimit:4;stroke-dasharray:none;stroke-dashoffset:0;stroke-opacity:1;paint-order:markers stroke fill"
   d="m 14.951653,42.311607 c 0.381896,-0.07814 1.868745,-0.390632 3.463399,-0.728801 2.588708,-0.548974 2.28142,-0.495075 2.88877,-0.620998 0.19191,0.05419 0.341277,0.08469 0.8118,0.214922 -0.826221,0.181724 -5.376222,1.290776 -5.562873,1.280271 -0.671521,-0.04854 -0.99563,-0.09333 -1.601096,-0.145394 z"
   id="path865"
   inkscape:connector-curvature="0"
   sodipodi:nodetypes="cscccc" /><path
   style="opacity:1;fill:#000000;fill-opacity:1;stroke:#000000;stroke-width:0.02633753;stroke-linecap:square;stroke-linejoin:miter;stroke-miterlimit:4;stroke-dasharray:none;stroke-dashoffset:0;stroke-opacity:1;paint-order:markers stroke fill"
   d="m 37.663752,42.846151 c 0.0045,-0.402932 0.01963,-10.420258 -0.01247,-17.583868 l -0.0326,-13.018309 0.32821,0.202596 0.386134,0.241212 0.0033,15.088067 c 0.0017,8.316158 0.01875,15.120247 -0.0016,15.120247 l -0.488828,-0.04085 z"
   id="path867"
   inkscape:connector-curvature="0"
   sodipodi:nodetypes="cscccsccc" /><path
   style="opacity:1;fill:#000000;fill-opacity:1;stroke:#000000;stroke-width:0.02671448;stroke-linecap:square;stroke-linejoin:miter;stroke-miterlimit:4;stroke-dasharray:none;stroke-dashoffset:0;stroke-opacity:1;paint-order:markers stroke fill"
   d="m 33.05741,40.434287 -0.0091,-3.212925 1.945082,-0.507822 2.225633,-0.58064 c -0.0048,0.858292 0,0 -5.78e-4,2.451188 v 4.272867 l -1.985099,0.328199 c -1.091805,0.18051 -2.134304,0.368558 -2.194291,0.367824 0.01727,-0.748962 0.01835,-0.665845 0.01835,-3.118691 z"
   id="path869"
   inkscape:connector-curvature="0"
   sodipodi:nodetypes="ccccccscc" /><path
   style="opacity:1;fill:#000000;fill-opacity:1;stroke:#000000;stroke-width:0.02633753;stroke-linecap:square;stroke-linejoin:miter;stroke-miterlimit:4;stroke-dasharray:none;stroke-dashoffset:0;stroke-opacity:1;paint-order:markers stroke fill"
   d="m 26.055359,42.774398 -5.877388,-0.718302 1.46585,-0.342471 1.502258,-0.369777 c 0.01492,-1.942929 -0.01412,-3.878695 0.005,-5.938872 0.06036,-8.33e-4 2.261963,0.430418 4.809021,0.924962 l 4.631016,0.899172 v 3.140764 l 0.01821,3.181723 c -2.464465,-0.29419 -4.562737,-0.534165 -6.553981,-0.7772 z"
   id="path873"
   inkscape:connector-curvature="0"
   sodipodi:nodetypes="cccccsccccc" /><path
   style="opacity:1;fill:#000000;fill-opacity:1;stroke:#000000;stroke-width:0.02633753;stroke-linecap:square;stroke-linejoin:miter;stroke-miterlimit:4;stroke-dasharray:none;stroke-dashoffset:0;stroke-opacity:1;paint-order:markers stroke fill"
   d="m 31.334323,44.044981 c -0.408263,-0.04306 -13.417535,-1.41806 -13.538248,-1.436798 0.686677,-0.168314 0.769056,-0.168443 1.188332,-0.273074 0.847289,0.111507 0.334887,0.0468 6.487153,0.790841 3.524523,0.426247 5.883029,0.71862 6.685296,0.805464 -0.631427,0.106322 -0.752249,0.120981 -0.822533,0.113567 z"
   id="path875"
   inkscape:connector-curvature="0"
   sodipodi:nodetypes="sccscs" /><path
   style="opacity:1;fill:#000000;fill-opacity:1;stroke:#000000;stroke-width:0.00931173;stroke-linecap:square;stroke-linejoin:miter;stroke-miterlimit:4;stroke-dasharray:none;stroke-dashoffset:0;stroke-opacity:1;paint-order:markers stroke fill"
   d="m 36.978741,24.037696 c -0.0043,-4.041677 -0.0052,-8.273855 -0.0022,-9.404843 0.003,-1.130986 0.02084,-2.082083 0.0079,-2.082083 -0.01287,0 -0.350683,0.163731 -0.71923,0.332382 l -0.670085,0.306637 -0.172483,-0.09776 -0.172483,-0.09776 0.969011,-0.410774 c 0.532955,-0.225926 0.979486,-0.410711 0.99229,-0.410633 0.0128,7.9e-5 0.02328,4.323111 0.02328,9.606739 v 9.606596 h -0.124089 -0.124156 z"
   id="path877"
   inkscape:connector-curvature="0"
   sodipodi:nodetypes="cssscccccscccc" /><path
   style="opacity:1;fill:#000000;fill-opacity:1;stroke:#000000;stroke-width:0.00931173;stroke-linecap:square;stroke-linejoin:miter;stroke-miterlimit:4;stroke-dasharray:none;stroke-dashoffset:0;stroke-opacity:1;paint-order:markers stroke fill"
   d="m 36.295073,13.527263 -0.241361,-0.133775 0.225841,-0.100928 c 0.124214,-0.0555 0.13408,-0.05807 0.310151,-0.139692 9.47e-4,0.243783 -0.0042,0.276227 -0.0072,0.522741 -0.240351,-0.11428 -0.154647,-0.07477 -0.287395,-0.14835 z"
   id="path879"
   inkscape:connector-curvature="0"
   sodipodi:nodetypes="ccccccc" /><path
   style="opacity:1;fill:#000000;fill-opacity:1;stroke:#000000;stroke-width:0.01230084;stroke-linecap:square;stroke-linejoin:miter;stroke-miterlimit:4;stroke-dasharray:none;stroke-dashoffset:0;stroke-opacity:1;paint-order:markers stroke fill"
   d="m 37.007057,36.450744 c -0.0086,0.03725 -0.01675,-1.071787 -0.01811,-2.464505 l -0.0024,-2.618385 h 0.124157 0.124155 v 2.794423 c 0,1.489534 -0.007,2.708245 -0.01552,2.708245 0.04735,-0.318521 -0.107079,-0.112241 -0.212242,-0.419778 z"
   id="path881"
   inkscape:connector-curvature="0"
   sodipodi:nodetypes="cccccscc" /></svg>