<?xml version="1.0" encoding="UTF-8" standalone="no"?>
<!-- Generator: Adobe Illustrator 19.2.1, SVG Export Plug-In . SVG Version: 6.00 Build 0)  -->

<svg
   xmlns:dc="http://purl.org/dc/elements/1.1/"
   xmlns:cc="http://creativecommons.org/ns#"
   xmlns:rdf="http://www.w3.org/1999/02/22-rdf-syntax-ns#"
   xmlns:svg="http://www.w3.org/2000/svg"
   xmlns="http://www.w3.org/2000/svg"
   xmlns:sodipodi="http://sodipodi.sourceforge.net/DTD/sodipodi-0.dtd"
   xmlns:inkscape="http://www.inkscape.org/namespaces/inkscape"
   version="1.2"
   id="Layer_1"
   x="0px"
   y="0px"
   viewBox="0 0 50.5 50.5"
   xml:space="preserve"
   sodipodi:docname="icon.svg"
   inkscape:version="0.92.3 (2405546, 2018-03-11)"><metadata
   id="metadata15"><rdf:RDF><cc:Work
       rdf:about=""><dc:format>image/svg+xml</dc:format><dc:type
         rdf:resource="http://purl.org/dc/dcmitype/StillImage" /></cc:Work></rdf:RDF></metadata><defs
   id="defs13" /><sodipodi:namedview
   pagecolor="#ffffff"
   bordercolor="#666666"
   borderopacity="1"
   objecttolerance="10"
   gridtolerance="10"
   guidetolerance="10"
   inkscape:pageopacity="0"
   inkscape:pageshadow="2"
   inkscape:window-width="1680"
   inkscape:window-height="987"
   id="namedview11"
   showgrid="false"
   inkscape:zoom="9.3465346"
   inkscape:cx="46.126595"
   inkscape:cy="27.509686"
   inkscape:window-x="-8"
   inkscape:window-y="-8"
   inkscape:window-maximized="1"
   inkscape:current-layer="layer2" />




<g
   inkscape:groupmode="layer"
   id="layer3"
   inkscape:label="Layer 3"><path
     style="opacity:1;fill:#f0f0f0;fill-opacity:0.89898993;stroke:#828282;stroke-width:0.28480205;stroke-miterlimit:4;stroke-dasharray:none;stroke-opacity:0.83333333"
     id="path841"
     sodipodi:type="arc"
     sodipodi:cx="42.200535"
     sodipodi:cy="-19.782568"
     sodipodi:rx="5.8627944"
     sodipodi:ry="20.704605"
     sodipodi:start="1.6022143"
     sodipodi:end="4.7292027"
     d="M 42.016368,0.91181932 A 5.8627944,20.704605 0 0 1 36.339445,-20.281829 5.8627944,20.704605 0 0 1 42.299106,-40.484247"
     sodipodi:open="true"
     transform="matrix(0.11820959,0.99298867,-0.99995056,0.00994407,0,0)" /><path
     style="opacity:1;fill:#f0f0f0;fill-opacity:0.89898993;stroke:#828282;stroke-width:0.24527633;stroke-miterlimit:4;stroke-dasharray:none;stroke-opacity:0.83333333"
     id="path859"
     sodipodi:type="arc"
     sodipodi:cx="25.811707"
     sodipodi:cy="10.370031"
     sodipodi:rx="3.7356908"
     sodipodi:ry="1.2149704"
     sodipodi:start="1.602214"
     sodipodi:end="1.5992489"
     sodipodi:open="true"
     d="m 25.694359,11.584402 a 3.7356908,1.2149704 0 0 1 -3.616586,-1.251636 3.7356908,1.2149704 0 0 1 3.845745,-1.1771607 3.7356908,1.2149704 0 0 1 3.622288,1.2498907 3.7356908,1.2149704 0 0 1 -3.840375,1.179014" /><path
     d="m 21.919939,8.0537708 a 4.4688406,1.6372501 0 0 1 4.062418,-0.8833811 4.4688406,1.6372501 0 0 1 3.956295,0.9458254"
     sodipodi:end="5.8474438"
     sodipodi:start="3.6198384"
     sodipodi:ry="1.6372501"
     sodipodi:rx="4.4688406"
     sodipodi:cy="8.8072701"
     sodipodi:cx="25.887392"
     sodipodi:type="arc"
     id="path861"
     style="opacity:1;fill:#f0f0f0;fill-opacity:0.89898993;stroke:#828282;stroke-width:0.31141698;stroke-miterlimit:4;stroke-dasharray:none;stroke-opacity:0.83333333"
     sodipodi:open="true" /><path
     style="fill:none;stroke:#898989;stroke-width:0.20337471;stroke-linecap:butt;stroke-linejoin:miter;stroke-miterlimit:4;stroke-dasharray:none;stroke-opacity:0.88627451"
     d="m 29.943802,7.963395 c -0.37652,2.341771 -0.381191,2.286652 -0.381191,2.286652"
     id="path865"
     inkscape:connector-curvature="0" /><path
     inkscape:connector-curvature="0"
     id="path867"
     d="m 21.889449,7.904198 c 0.191172,2.343364 0.173573,2.291726 0.173573,2.291726"
     style="fill:none;stroke:#898989;stroke-width:0.20234025;stroke-linecap:butt;stroke-linejoin:miter;stroke-miterlimit:4;stroke-dasharray:none;stroke-opacity:0.88627451" /><path
     style="fill:none;stroke:#818181;stroke-width:0.2;stroke-linecap:butt;stroke-linejoin:miter;stroke-miterlimit:4;stroke-dasharray:none;stroke-opacity:0.83529412"
     d="m 23.217161,10.657839 -10.85964,26.212924 v 0.0535 h -0.0535"
     id="path869"
     inkscape:connector-curvature="0"
     sodipodi:nodetypes="cccc" /><path
     style="fill:none;stroke:#818181;stroke-width:0.2;stroke-linecap:butt;stroke-linejoin:miter;stroke-miterlimit:4;stroke-dasharray:none;stroke-opacity:0.83529412"
     d="M 25.945445,9.587924 25.410487,35.907839"
     id="path871"
     inkscape:connector-curvature="0" /><path
     style="fill:none;stroke:#818181;stroke-width:0.2;stroke-linecap:butt;stroke-linejoin:miter;stroke-miterlimit:4;stroke-dasharray:none;stroke-opacity:0.83529412"
     d="m 28.40625,10.711334 7.596398,25.998941"
     id="path873"
     inkscape:connector-curvature="0"
     sodipodi:nodetypes="cc" /><path
     style="fill:none;stroke:#818181;stroke-width:0.2;stroke-linecap:butt;stroke-linejoin:miter;stroke-miterlimit:4;stroke-dasharray:none;stroke-opacity:0.83529412"
     d="m 25.480376,11.049444 c 0,0 -0.961235,2.223516 -0.765333,3.353098 0.20963,1.208736 1.121708,2.225573 1.979343,3.102755 1.455613,1.488789 4.06521,1.724455 5.189089,3.477224 0.302236,0.471359 0.472129,1.137174 0.267478,1.658369 -0.752246,1.915782 -3.008513,2.916167 -4.868114,3.798199 -2.692977,1.277312 -5.874027,1.09324 -8.719809,1.979343 -1.37529,0.42823 -3.240027,0.388905 -4.012182,1.604873 -0.325569,0.512697 -0.221423,1.307977 0.106991,1.818856 0.927393,1.442647 2.954092,1.772099 4.547139,2.407309 1.788343,0.713082 5.563556,1.551377 5.563556,1.551377 v 0"
     id="path883"
     inkscape:connector-curvature="0"
     sodipodi:nodetypes="caaaaaaaaacc" /></g><g
   inkscape:groupmode="layer"
   id="layer2"
   inkscape:label="Layer 2"><ellipse
     style="opacity:1;fill:#f0f0f0;fill-opacity:0.89898993;stroke:#828282;stroke-width:0.2;stroke-miterlimit:4;stroke-dasharray:none;stroke-opacity:0.83333333"
     id="path814"
     cx="24.768538"
     cy="41.73888"
     rx="20.756355"
     ry="1.6048728" /></g><g
   inkscape:groupmode="layer"
   id="layer1"
   inkscape:label="Layer 1" /></svg>