<?xml version="1.0" encoding="UTF-8"?>
<svg width="67px" height="185px" viewBox="0 0 67 185" version="1.1" xmlns="http://www.w3.org/2000/svg" xmlns:xlink="http://www.w3.org/1999/xlink">
    <!-- Generator: Sketch 47.1 (45422) - http://www.bohemiancoding.com/sketch -->
    <title>Untitled 2</title>
    <desc>Created with Sketch.</desc>
    <defs></defs>
    <g id="Page-1" stroke="none" stroke-width="1" fill="none" fill-rule="evenodd">
        <g id="icon" fill-rule="nonzero" fill="#000000">
            <path d="M65.0855518,59.4152928 C58.6067923,25.4205067 47.1689567,9.77537771 42.444947,4.54113906 C41.7129421,3.53336817 40.8180402,2.66750787 39.7911712,1.95795489 C37.9188881,0.670476148 35.7517409,0 33.5000524,0 C31.2504258,0 29.0812167,0.670476148 27.2336773,1.94150148 C26.1820645,2.66545119 25.2912866,3.53336817 24.5530957,4.54113906 C19.8311481,9.77537771 8.3891885,25.4205067 1.9124909,59.4173494 C-0.00721793755,69.4909451 -0.483536672,79.7331881 0.491782642,89.8561439 C1.27327528,97.9532746 2.98266157,105.990762 5.57045383,113.752654 C9.44080129,125.358473 14.0761455,132.768674 15.319523,134.652589 L15.319523,145.694878 C15.319523,147.039944 16.4164995,148.138209 17.7671002,148.138209 L20.0847723,148.138209 L20.0847723,173.692399 C20.0847723,175.037465 21.1817488,176.131616 22.5344115,176.131616 L25.1778774,176.131616 L25.1778774,176.701315 C25.1778774,181.277418 28.9121338,185 33.5041763,185 C38.0962189,185 41.8284133,181.275361 41.8284133,176.701315 L41.8284133,176.131616 L44.4698172,176.131616 C45.8224799,176.131616 46.9194564,175.039522 46.9194564,173.692399 L46.9194564,148.136152 L49.2391905,148.136152 C50.5877292,148.136152 51.6888297,147.039944 51.6888297,145.692822 L51.6888297,134.650532 C52.9301452,132.766617 57.5654894,125.35436 61.4399608,113.750598 C64.0215671,105.990762 65.7330154,97.9512179 66.514508,89.8540872 C67.4815794,79.7311314 67.0031987,69.4909451 65.0855518,59.4152928 Z M29.1265803,135.172927 L37.8694004,135.172927 L46.7854273,135.172927 L46.7854273,143.251548 L44.4656932,143.251548 L22.5323496,143.251548 L20.2146774,143.251548 L20.2146774,135.172927 L29.1265803,135.172927 Z M39.3767121,171.249069 L27.6233927,171.249069 L24.9799268,171.249069 L24.9799268,167.625207 L42.018116,164.081556 L42.018116,171.247012 L39.3767121,171.247012 L39.3767121,171.249069 Z M42.018116,161.09115 L24.9799268,164.630688 L24.9799268,158.292015 L42.018116,154.752476 L42.018116,161.09115 Z M42.018116,151.760014 L24.9799268,155.299552 L24.9799268,146.180254 L42.018116,146.180254 L42.018116,151.760014 Z M33.5000524,180.115396 C31.6092113,180.115396 30.0709699,178.581116 30.0709699,176.701315 L30.0709699,174.177775 L36.9270729,174.177775 L36.9270729,176.701315 C36.9270729,178.581116 35.3888314,180.115396 33.5000524,180.115396 Z M56.8417324,112.031217 C53.2580009,122.841102 48.8948388,129.946916 47.6844531,131.81849 C47.6210945,131.870584 51.5362912,126.684832 54.3895948,120.106761 C58.4079129,110.84284 63.8440646,88.9602313 63.7741288,89.0540405 L39.3395963,89.0540405 L27.6563844,89.0519839 C12.3248323,89.053355 4.65905607,89.0540405 4.65905607,89.0540405 C4.65905607,89.0540405 6.25060337,103.104113 7.99397448,107.574184 C11.7495712,117.20368 19.4157392,131.898003 19.3115276,131.81232 C18.3392462,130.322901 22.3053626,123.040943 19.3115276,115.610827 C18.8907866,114.56663 16.1433018,114.294268 13.7679978,113.842603 C12.0400316,113.514029 10.5090292,113.090565 10.214046,112.206034 C9.95271403,111.422674 9.69195117,110.608507 9.43412706,109.76459 C5.85931784,98.0634363 2.84949027,80.6432019 6.72104194,60.3243433 C13.0100988,27.318818 23.8911982,12.535436 28.2749802,7.71253238 C28.3409637,7.64054874 28.4048853,7.56445176 28.4584969,7.48424142 C28.883266,6.88574891 29.4028865,6.37363676 30.0049863,5.9623017 C31.0442272,5.25069204 32.246365,4.88049049 33.4979904,4.88049049 C34.7454918,4.88049049 35.9496916,5.25274872 36.9744985,5.95201832 C37.5910323,6.37363676 38.1147767,6.88574891 38.5374838,7.48424142 C38.5931575,7.56239508 38.655017,7.64054874 38.7230626,7.71253238 C43.1089065,12.535436 53.9858819,27.318818 60.2728768,60.3243433 C64.4092205,82.0304944 60.693522,100.423342 56.8417324,112.031217 Z" id="Shape"></path>
        </g>
        <g id="Group" transform="translate(23.000000, 100.000000)" stroke="#000000">
            <circle id="Oval" fill="#FFFFFF" cx="10.5" cy="10.5" r="10.5"></circle>
            <path d="M11,2 C15.4,2 19,6.5565367 19,10.4065367 C19,14.2565367 15.4,18.4850917 11,18.4850917 L11,2 Z" id="Shape" fill="#000000"></path>
        </g>
    </g>
</svg>