<?xml version="1.0" encoding="utf-8"?>
<!-- Generator: Adobe Illustrator 23.0.6, SVG Export Plug-In . SVG Version: 6.00 Build 0)  -->
<svg version="1.1"
	 id="Layer_1" xmlns:cc="http://creativecommons.org/ns#" xmlns:dc="http://purl.org/dc/elements/1.1/" xmlns:rdf="http://www.w3.org/1999/02/22-rdf-syntax-ns#" xmlns:svg="http://www.w3.org/2000/svg"
	 xmlns="http://www.w3.org/2000/svg" xmlns:xlink="http://www.w3.org/1999/xlink" x="0px" y="0px" viewBox="0 0 50.5 50.5"
	 style="enable-background:new 0 0 50.5 50.5;" xml:space="preserve">
<style type="text/css">
	.st0{fill:none;stroke:#000000;stroke-miterlimit:10;}
</style>
<path id="Shape" d="M25.3,0.3C16,0.3,8.4,2,8.4,4.2l0,1.1C8.4,6,8.9,6.5,9.9,7l0,0.3c0.1,3.2,0.3,7.4,0.8,11.1
	c0.5,3.7,1.2,7,2.7,8.7l4.2,4.7l0.6,12.2c0.3,1.3,2,2.4,2.9,2.7l0.1,0.1l0,0v1.1c-0.4,0.1-0.7,0.3-0.7,0.5c0,0,0,0,0,0h0v1.5h0
	c0,0,0,0,0,0c0,0.3,0.7,0.6,1.7,0.6c0.9,0,1.7-0.3,1.7-0.6c0,0,0,0,0,0h0v-1.5h0c0,0,0,0,0,0c0-0.2-0.2-0.3-0.6-0.4v-0.8
	c1.5,0.2,3,0.3,4.6,0.1v0.7C27.3,48,27,48.1,27,48.3c0,0,0,0,0,0h0v1.5h0c0,0,0,0,0,0c0,0.3,0.7,0.6,1.7,0.6c0.9,0,1.7-0.3,1.7-0.6
	c0,0,0,0,0,0h0v-1.5h0c0,0,0,0,0,0c0-0.2-0.2-0.3-0.6-0.4v-1.2c1.5-0.5,2.5-1.7,3.1-2.9l0.1-11.5c1.7-1.6,2.7-3.1,4-4.6
	c2-2.3,2.8-5.8,3.3-9.5c0.4-3.7,0.4-7.6,0.5-10.6l0-0.5c1-0.5,1.5-1.1,1.5-1.6l0-1.1C42.2,2,34.7,0.3,25.3,0.3L25.3,0.3z M25.3,1
	c8.4,0,15.3,1.5,15.3,3.3c0,0.9-1.6,1.7-4.5,2.3c-2.9,0.6-6.8,1-10.8,1c-4.1,0-7.9-0.3-10.8-1c-2.9-0.6-4.5-1.5-4.5-2.3
	C10.1,2.5,16.9,1,25.3,1z M11,7.5l1,0.3c1.6,0.5,3.8,0.9,6.2,1.1c0,1.9,0.2,5.2,1.2,8.3c0.5,1.7,1.2,3.3,2.3,4.5
	c1.1,1.2,2.4,1.9,4.2,1.9c1.7,0,3.1-0.9,4.1-2.1s1.6-2.9,2.1-4.6c0.8-3,0.9-6.2,0.9-7.9c1.8-0.2,3.4-0.5,4.7-0.8l1.9-0.6
	c0,3-0.1,7.2-0.5,10.5c-0.4,3.6-1.3,6.9-3,8.9c-1.6,1.8-2.7,3.6-4.2,4.9l-0.1,11.6c-0.4,1.2-1.3,2.2-2.7,2.4c-1.2,0.2-6,0.4-7.5-0.1
	c-1.1-0.4-2.4-1.4-2.3-2.1l-0.6-12.2l-4.4-5c-1.1-1.2-2-4.5-2.5-8.1C11.3,14.8,11.1,10.6,11,7.5z M32.4,9c0,1.7-0.1,4.8-0.9,7.7
	c-0.4,1.7-1.1,3.3-2,4.4c-0.9,1.2-2.1,1.9-3.7,1.9c-1.6,0-2.8-0.6-3.8-1.7c-1-1.1-1.7-2.6-2.2-4.3c-0.9-3-1.1-6.2-1.1-8
	c2,0.2,4.2,0.3,6.5,0.3C27.8,9.4,30.2,9.2,32.4,9z"/>
<circle class="st0" cx="24" cy="28.6" r="3.3"/>
<circle class="st0" cx="27.3" cy="28.6" r="3.3"/>
<circle class="st0" cx="25.7" cy="31.5" r="3.3"/>
</svg>
