<?xml version="1.0" encoding="UTF-8" standalone="no"?>
<!-- Generator: Adobe Illustrator 19.2.1, SVG Export Plug-In . SVG Version: 6.00 Build 0)  -->

<svg
   xmlns:dc="http://purl.org/dc/elements/1.1/"
   xmlns:cc="http://creativecommons.org/ns#"
   xmlns:rdf="http://www.w3.org/1999/02/22-rdf-syntax-ns#"
   xmlns:svg="http://www.w3.org/2000/svg"
   xmlns="http://www.w3.org/2000/svg"
   xmlns:sodipodi="http://sodipodi.sourceforge.net/DTD/sodipodi-0.dtd"
   xmlns:inkscape="http://www.inkscape.org/namespaces/inkscape"
   version="1.2"
   id="Layer_1"
   x="0px"
   y="0px"
   viewBox="0 0 50.3 50.3"
   xml:space="preserve"
   sodipodi:docname="icon.svg"
   inkscape:version="0.92.4 (5da689c313, 2019-01-14)"><metadata
   id="metadata19"><rdf:RDF><cc:Work
       rdf:about=""><dc:format>image/svg+xml</dc:format><dc:type
         rdf:resource="http://purl.org/dc/dcmitype/StillImage" /></cc:Work></rdf:RDF></metadata><defs
   id="defs17" /><sodipodi:namedview
   pagecolor="#ffffff"
   bordercolor="#666666"
   borderopacity="1"
   objecttolerance="10"
   gridtolerance="10"
   guidetolerance="10"
   inkscape:pageopacity="0"
   inkscape:pageshadow="2"
   inkscape:window-width="1680"
   inkscape:window-height="987"
   id="namedview15"
   showgrid="false"
   inkscape:zoom="4.691849"
   inkscape:cx="36.460245"
   inkscape:cy="61.931895"
   inkscape:window-x="1672"
   inkscape:window-y="-8"
   inkscape:window-maximized="1"
   inkscape:current-layer="Layer_1" />






<path
   style="fill:none;stroke:#000000;stroke-width:0.3;stroke-linecap:butt;stroke-linejoin:miter;stroke-miterlimit:4;stroke-dasharray:none;stroke-opacity:1"
   d="m 26.072764,3.8814359 c 5.189762,0.00607 10.416874,3.1225598 13.94064,6.9326431 3.236703,3.499695 5.120483,8.501002 5.350192,13.262446 0.209495,4.342443 -1.230544,8.9256 -3.692386,12.508899 -1.917451,2.790918 -4.851928,5.104343 -8.062964,6.179094 C 28.489924,44.477648 24.394219,44.116526 19.89367,42.16168 16.304347,40.602631 13.165189,37.680819 11.152512,34.324779 9.0375391,30.798165 7.9692784,26.448287 8.2136744,22.343365 8.464052,18.137975 9.8327816,13.636286 12.659608,10.512659 16.006307,6.8145762 21.085162,3.8756004 26.072764,3.8814359 Z"
   id="path839"
   inkscape:connector-curvature="0"
   sodipodi:nodetypes="aaaassaaaa" /><path
   sodipodi:nodetypes="aaaassaaaa"
   inkscape:connector-curvature="0"
   id="path843"
   d="m 26.043593,3.0587071 c 5.403365,0.00632 10.845617,3.2510798 14.514416,7.2179809 3.369921,3.643737 5.331235,8.85089 5.570398,13.808308 0.218118,4.521172 -1.281191,9.292965 -3.844359,13.023747 -1.996371,2.905788 -5.051626,5.31443 -8.394824,6.433417 C 28.56024,45.325799 24.295961,44.949814 19.610176,42.91451 15.873122,41.291292 12.604761,38.249223 10.509245,34.755053 8.3072232,31.083289 7.1949944,26.554377 7.4494494,22.280502 7.7101322,17.902024 9.1351967,13.215052 12.078371,9.9628616 15.562815,6.1125712 20.850708,3.0526314 26.043593,3.0587071 Z"
   style="fill:none;stroke:#000000;stroke-width:0.5;stroke-linecap:butt;stroke-linejoin:miter;stroke-miterlimit:4;stroke-dasharray:none;stroke-opacity:1" /><path
   style="fill:none;stroke:#000000;stroke-width:0.407;stroke-linecap:butt;stroke-linejoin:miter;stroke-miterlimit:4;stroke-dasharray:none;stroke-opacity:1"
   d="m 28.299778,44.664316 c -4.523402,1.149162 -8.334726,0.6652 -12.478311,-1.105927 C 12.114324,41.973815 8.8721244,39.004162 6.7933811,35.593171 4.6089845,32.008814 3.5056582,27.587715 3.7580765,23.415582 4.0166728,19.141336 5.4303311,14.565939 8.3499476,11.391168 10.837322,8.6864143 14.251119,6.3811929 17.889555,5.3033281"
   id="path847"
   inkscape:connector-curvature="0"
   sodipodi:nodetypes="csaasc" /><path
   sodipodi:nodetypes="asaassaaaa"
   inkscape:connector-curvature="0"
   id="path849"
   d="m 26.363089,9.1073582 c 3.971687,0.048101 7.682554,1.2124538 10.752116,5.1362938 2.242362,2.866425 3.468538,6.686382 3.549646,10.324789 0.07308,3.278449 -0.926715,6.733403 -2.780717,9.436616 -1.444023,2.105447 -3.653962,3.850677 -6.072177,4.661461 -3.854582,1.292371 -6.939036,1.019944 -10.328377,-0.454777 -2.703101,-1.176135 -5.067184,-3.380327 -6.582922,-5.912097 -1.592775,-2.66045 -2.355798,-5.940062 -2.213223,-9.038686 0.153805,-3.342682 1.014733,-7.020728 3.272855,-9.490153 2.564406,-2.804369 6.602991,-4.7094658 10.402799,-4.6634468 z"
   style="fill:none;stroke:#000000;stroke-width:0.07537433;stroke-linecap:butt;stroke-linejoin:miter;stroke-miterlimit:4;stroke-dasharray:none;stroke-opacity:1" /><path
   style="opacity:1;fill:#000000;fill-opacity:1;stroke:#000000;stroke-width:0.00532839;stroke-linecap:square;stroke-linejoin:miter;stroke-miterlimit:4;stroke-dasharray:none;stroke-dashoffset:0;stroke-opacity:1;paint-order:markers stroke fill"
   d="M 22.611526,45.083871 C 19.871576,44.939899 16.407745,43.863144 13.904465,42.377224 11.015462,40.662342 8.4576837,38.081361 6.748884,35.156732 5.3795107,32.813034 4.4462237,30.035583 4.0719615,27.190241 3.4704126,22.616942 4.5704823,17.304913 6.8801479,13.630037 c 1.0623396,-1.690273 2.710466,-3.404483 4.6976181,-4.885974 0.833766,-0.621601 1.711626,-1.1900922 2.576747,-1.6686691 0.630434,-0.3487496 2.085046,-1.0339734 2.120239,-0.9987804 0.01186,0.011865 -0.164017,0.1500017 -0.390848,0.306971 -2.06759,1.4307931 -4.087388,3.4040309 -5.228807,5.1082725 -1.8098227,2.702228 -2.887399,5.912721 -3.3198305,9.890987 -0.1035298,0.95245 -0.087804,3.538569 0.027218,4.475848 0.528471,4.306374 2.0400973,8.051433 4.5201135,11.198597 1.891938,2.400888 4.400383,4.455592 6.945772,5.689386 2.26316,1.096993 5.001744,1.895519 6.976942,2.034361 0.282168,0.01983 0.523154,0.05244 0.535524,0.07245 0.02894,0.04682 -0.766287,0.149892 -1.651238,0.214024 -0.658557,0.04772 -1.37395,0.05336 -2.078072,0.01636 z"
   id="path859"
   inkscape:connector-curvature="0" /></svg>