<?xml version="1.0" encoding="utf-8"?>
<!-- Generator: Adobe Illustrator 22.1.0, SVG Export Plug-In . SVG Version: 6.00 Build 0)  -->
<svg version="1.0" id="Layer_1" xmlns="http://www.w3.org/2000/svg" xmlns:xlink="http://www.w3.org/1999/xlink" x="0px" y="0px"
	 viewBox="0 0 1181.8 1423.9" style="enable-background:new 0 0 1181.8 1423.9;" xml:space="preserve">
<style type="text/css">
	.st0{fill:none;stroke:#000000;stroke-width:9;stroke-miterlimit:10;}
	.st1{fill:none;stroke:#000000;stroke-width:7;stroke-miterlimit:10;}
</style>
<polyline class="st0" points="20.5,425.5 11.5,462.5 621.5,579.5 621.5,536.5 "/>
<polyline class="st0" points="621.5,536.5 621.5,579.5 1175.5,467.5 1167.5,425.5 "/>
<polygon class="st0" points="586.5,627.5 114.5,528.5 227.5,967.5 580.5,1082.5 "/>
<polygon class="st0" points="1073.5,531.5 641.5,625.5 626.5,1082.5 953.5,967.5 "/>
<polygon class="st0" points="944.5,1003.5 626.5,1115.5 621.5,1317.5 889.5,1207.5 "/>
<polygon class="st0" points="578.5,1111.5 236.5,1001.5 286.5,1205.5 574.5,1317.5 "/>
<path class="st0" d="M621.5,536.5c113-42,266-120,546-111"/>
<path class="st0" d="M20.5,425.5c252-9,367,26,601,111"/>
<path class="st0" d="M20.5,425.5c140-44,254-85,498-84"/>
<path class="st0" d="M676.5,341.5c222,2,312,37,491,84"/>
<path class="st0" d="M508.5,368.5c35,4,107,15,176-5"/>
<path class="st0" d="M508.5,368.5c36-96,48-161,88-161"/>
<path class="st0" d="M684.5,363.5c-33-100-45-156-88-156"/>
<path class="st0" d="M527.5,323.5c35,4,72,5,144,0"/>
<polygon class="st0" points="621.5,579.5 11.5,462.5 218.5,1248.5 596.9,1405.8 "/>
<polygon class="st0" points="1175.5,467.5 621.5,579.5 596.9,1405.8 956.5,1248.5 "/>
<line class="st0" x1="11" y1="462" x2="114" y2="528"/>
<line class="st0" x1="286.5" y1="1205.5" x2="218.5" y2="1248.5"/>
<line class="st0" x1="889.5" y1="1207.5" x2="956" y2="1248"/>
<line class="st1" x1="856.5" y1="1001.5" x2="971.5" y2="553.5"/>
<polyline class="st1" points="622.5,1286.5 802.5,1209.5 846.5,1038.5 "/>
<polyline class="st1" points="331.5,1032.5 374.5,1213.5 575.5,1289.5 "/>
<path class="st0" d="M334.5,1043"/>
<line class="st1" x1="217.5" y1="550.5" x2="323.6" y2="997.1"/>
<line class="st0" x1="218.5" y1="1248.5" x2="223.5" y2="1269.5"/>
<line class="st0" x1="956.5" y1="1248.5" x2="948.5" y2="1269.5"/>
<path class="st0" d="M948.5,1269.5c-107.7,65.5-165,102-352,150"/>
<path class="st0" d="M223.5,1269.5c93,55,204,109,373,150"/>
<line class="st0" x1="621.5" y1="579.5" x2="586.5" y2="627.5"/>
<line class="st0" x1="641.5" y1="625.5" x2="621.5" y2="579.5"/>
<line class="st0" x1="1073.5" y1="531.5" x2="1175.5" y2="467.5"/>
<line class="st0" x1="221.5" y1="943.5" x2="304.5" y2="918.5"/>
<line class="st0" x1="236.5" y1="970.5" x2="311.5" y2="945.5"/>
<line class="st0" x1="947.5" y1="969.5" x2="870.5" y2="947.5"/>
<line class="st0" x1="960.5" y1="943.5" x2="877.5" y2="920.5"/>
<line class="st0" x1="286.5" y1="1205.5" x2="364.5" y2="1173.5"/>
<line class="st0" x1="889.5" y1="1207.5" x2="810.5" y2="1178.5"/>
<path class="st0" d="M390.1,283.5c-4.1,22.7-11,44.1-20.5,63.4"/>
<path class="st0" d="M100.7,400.8c-37.1-37-57.2-93.7-57.2-159.3c0-116.5,73.6-231,183-231c97.2,0,154.3,84.1,165.8,184.6"/>
<path class="st0" d="M369.6,346.9"/>
<path class="st0" d="M57.3,413.9"/>
<path class="st0" d="M329.8,350.9"/>
<path class="st0" d="M57.3,413.9C21.2,375.1,4.5,317.4,4.5,252.5c0-116.5,70.6-248,180-248"/>
<line class="st0" x1="184.5" y1="4.5" x2="242.5" y2="11.5"/>
<polyline class="st0" points="213.5,355.5 206.5,112.5 286.5,106.5 "/>
<path class="st0" d="M290.1,356.1c0.9-4.2,1.4-9,1.4-14.6"/>
<path class="st0" d="M213.5,353.5c0,6.1,1.3,11.4,3.4,16"/>
<path class="st0" d="M291.5,341.5c8-80,111.7-54,246-54"/>
<path class="st0" d="M286.5,106.5c66,92,121,99,272,130"/>
<path class="st0" d="M206.5,112.5c63,62,159.7,118.5,346,136.2"/>
<line class="st0" x1="574.5" y1="1317.5" x2="596.9" y2="1405.8"/>
<line class="st0" x1="621.5" y1="1317.5" x2="596.9" y2="1405.8"/>
<line class="st0" x1="596.9" y1="1405.8" x2="596.5" y2="1419.5"/>
<line class="st0" x1="236.5" y1="1001.5" x2="146.1" y2="973.5"/>
<line class="st0" x1="227.5" y1="967.5" x2="146.1" y2="973.5"/>
<line class="st0" x1="578.5" y1="1111.5" x2="605.4" y2="1119"/>
<line class="st0" x1="580.5" y1="1082.5" x2="605.4" y2="1119"/>
<line class="st0" x1="626.5" y1="1115.5" x2="605.4" y2="1119"/>
<line class="st0" x1="626.5" y1="1082.5" x2="605.4" y2="1119"/>
<line class="st0" x1="944.5" y1="1003.5" x2="1033.9" y2="972.5"/>
<line class="st0" x1="953.5" y1="967.5" x2="1033.9" y2="972.5"/>
</svg>
