<?xml version="1.0" encoding="UTF-8" standalone="no"?>
<!-- Generator: Adobe Illustrator 19.2.1, SVG Export Plug-In . SVG Version: 6.00 Build 0)  -->

<svg
   xmlns:dc="http://purl.org/dc/elements/1.1/"
   xmlns:cc="http://creativecommons.org/ns#"
   xmlns:rdf="http://www.w3.org/1999/02/22-rdf-syntax-ns#"
   xmlns:svg="http://www.w3.org/2000/svg"
   xmlns="http://www.w3.org/2000/svg"
   xmlns:sodipodi="http://sodipodi.sourceforge.net/DTD/sodipodi-0.dtd"
   xmlns:inkscape="http://www.inkscape.org/namespaces/inkscape"
   version="1.2"
   id="Layer_1"
   x="0px"
   y="0px"
   viewBox="0 0 50.3 50.3"
   xml:space="preserve"
   sodipodi:docname="icon.svg"
   inkscape:version="0.92.4 (5da689c313, 2019-01-14)"><metadata
   id="metadata19"><rdf:RDF><cc:Work
       rdf:about=""><dc:format>image/svg+xml</dc:format><dc:type
         rdf:resource="http://purl.org/dc/dcmitype/StillImage" /></cc:Work></rdf:RDF></metadata><defs
   id="defs17" /><sodipodi:namedview
   pagecolor="#ffffff"
   bordercolor="#666666"
   borderopacity="1"
   objecttolerance="10"
   gridtolerance="10"
   guidetolerance="10"
   inkscape:pageopacity="0"
   inkscape:pageshadow="2"
   inkscape:window-width="1680"
   inkscape:window-height="987"
   id="namedview15"
   showgrid="false"
   inkscape:zoom="8"
   inkscape:cx="-7.6124825"
   inkscape:cy="31.777996"
   inkscape:window-x="1672"
   inkscape:window-y="-8"
   inkscape:window-maximized="1"
   inkscape:current-layer="Layer_1" />






<path
   style="fill:none;fill-rule:evenodd;stroke:#000000;stroke-width:0.30000001;stroke-miterlimit:4;stroke-dasharray:none;stroke-opacity:1"
   id="path837"
   sodipodi:type="arc"
   sodipodi:cx="25.123516"
   sodipodi:cy="25.621346"
   sodipodi:rx="20.141314"
   sodipodi:ry="12.495074"
   sodipodi:start="2.4065996"
   sodipodi:end="2.4059364"
   sodipodi:open="true"
   d="M 10.181976,34.000317 A 20.141314,12.495074 0 0 1 11.614637,16.353446 20.141314,12.495074 0 0 1 40.060576,17.2393 20.141314,12.495074 0 0 1 38.637349,34.886465 20.141314,12.495074 0 0 1 10.190937,34.006463" /><path
   d="m 4.9906707,25.184383 a 20.141314,12.495074 0 0 1 9.9340813,-11.13707 20.141314,12.495074 0 0 1 20.517449,0.04403 20.141314,12.495074 0 0 1 9.809638,11.179441"
   sodipodi:open="true"
   sodipodi:end="0.03591765"
   sodipodi:start="3.1125937"
   sodipodi:ry="12.495074"
   sodipodi:rx="20.141314"
   sodipodi:cy="24.82209"
   sodipodi:cx="25.123516"
   sodipodi:type="arc"
   id="path839"
   style="fill:none;fill-rule:evenodd;stroke:#000000;stroke-width:0.30000001;stroke-miterlimit:4;stroke-dasharray:none;stroke-opacity:1" /><path
   style="fill:none;fill-rule:evenodd;stroke:#000000;stroke-width:0.2;stroke-miterlimit:4;stroke-dasharray:none;stroke-opacity:1"
   id="path841"
   sodipodi:type="arc"
   sodipodi:cx="25.031765"
   sodipodi:cy="26.202068"
   sodipodi:rx="14.147865"
   sodipodi:ry="8.669446"
   sodipodi:start="2.4065996"
   sodipodi:end="2.4059364"
   sodipodi:open="true"
   d="M 14.536378,32.015643 A 14.147865,8.669446 0 0 1 15.542721,19.77173 14.147865,8.669446 0 0 1 35.524006,20.386362 14.147865,8.669446 0 0 1 34.524288,32.630478 14.147865,8.669446 0 0 1 14.542672,32.019907" /><path
   d="m 26.885275,9.9061919 a 13.332563,8.0036306 0 0 1 12.541174,0.9957641 13.332563,8.0036306 0 0 1 5.510354,6.83582"
   sodipodi:open="true"
   sodipodi:end="0.043611087"
   sodipodi:start="4.3495887"
   sodipodi:ry="8.0036306"
   sodipodi:rx="13.332563"
   sodipodi:cy="17.38884"
   sodipodi:cx="31.616917"
   sodipodi:type="arc"
   id="path843"
   style="fill:none;fill-rule:evenodd;stroke:#000000;stroke-width:0.3000153;stroke-miterlimit:4;stroke-dasharray:none;stroke-opacity:1"
   transform="matrix(0.95007936,0.31200834,-0.32555018,0.94552477,0,0)" /><path
   transform="matrix(0.95007936,0.31200834,-0.32555018,0.94552477,0,0)"
   style="fill:none;fill-rule:evenodd;stroke:#000000;stroke-width:0.3000153;stroke-linecap:butt;stroke-miterlimit:4;stroke-dasharray:none;stroke-opacity:1"
   id="path845"
   sodipodi:type="arc"
   sodipodi:cx="31.589512"
   sodipodi:cy="17.444622"
   sodipodi:rx="13.332563"
   sodipodi:ry="8.0036306"
   sodipodi:start="1.2750777"
   sodipodi:end="2.9191641"
   sodipodi:open="true"
   d="M 35.474986,25.100839 A 13.332563,8.0036306 0 0 1 24.891782,24.365036 13.332563,8.0036306 0 0 1 18.585402,19.210215" /><path
   transform="matrix(0.9432507,0.33208148,-0.35548011,0.93468385,0,0)"
   style="fill:none;fill-rule:evenodd;stroke:#000000;stroke-width:0.20003106;stroke-miterlimit:4;stroke-dasharray:none;stroke-opacity:1"
   id="path849"
   sodipodi:type="arc"
   sodipodi:cx="32.154987"
   sodipodi:cy="16.77643"
   sodipodi:rx="11.033114"
   sodipodi:ry="6.7182298"
   sodipodi:start="4.3212585"
   sodipodi:end="4.3208918"
   sodipodi:open="true"
   d="m 27.948792,10.56557 a 11.033114,6.7182298 0 0 1 14.405689,3.649075 11.033114,6.7182298 0 0 1 -5.991428,8.772176 11.033114,6.7182298 0 0 1 -14.406787,-3.647467 11.033114,6.7182298 0 0 1 5.988786,-8.772844" /><path
   d="M 42.438532,14.174384 A 10.556307,6.5694561 0 0 1 32.325987,20.461528 10.556307,6.5694561 0 0 1 21.416946,14.713174"
   sodipodi:open="true"
   sodipodi:end="3.0171308"
   sodipodi:start="0.042138844"
   sodipodi:ry="6.5694561"
   sodipodi:rx="10.556307"
   sodipodi:cy="13.897636"
   sodipodi:cx="31.891596"
   sodipodi:type="arc"
   id="path851"
   style="fill:none;fill-rule:evenodd;stroke:#000000;stroke-width:0.19348247;stroke-miterlimit:4;stroke-dasharray:none;stroke-opacity:1"
   transform="matrix(0.94021177,0.34059041,-0.34669947,0.93797627,0,0)" /><path
   transform="matrix(0.93771807,0.34739721,-0.3399027,0.94046061,0,0)"
   style="fill:none;fill-rule:evenodd;stroke:#000000;stroke-width:0.10000159;stroke-miterlimit:4;stroke-dasharray:none;stroke-opacity:1"
   id="path857"
   sodipodi:type="arc"
   sodipodi:cx="31.757318"
   sodipodi:cy="13.674368"
   sodipodi:rx="9.0781221"
   sodipodi:ry="5.7472315"
   sodipodi:start="5.9310771"
   sodipodi:end="3.3252003"
   sodipodi:open="true"
   d="m 40.278477,11.692277 a 9.0781221,5.7472315 0 0 1 -2.692788,6.388405 9.0781221,5.7472315 0 0 1 -10.406964,0.556401 9.0781221,5.7472315 0 0 1 -4.346938,-6.012032" /><path
   style="fill:#000000;fill-opacity:1;stroke:#000000;stroke-width:0.09642377;stroke-linecap:butt;stroke-linejoin:miter;stroke-miterlimit:4;stroke-dasharray:none;stroke-opacity:1"
   d="m 37.110685,30.676255 1.585348,-6.613117 c 0,0 0.895247,1.577919 0.216073,3.811784 -0.560943,1.844994 -1.801421,2.801333 -1.801421,2.801333 z"
   id="path859"
   inkscape:connector-curvature="0"
   sodipodi:nodetypes="ccsc" /><path
   d="M 36.294933,24.832149 A 13.332563,8.0036306 0 0 1 25.116427,24.300223 13.332563,8.0036306 0 0 1 18.567875,18.835761"
   sodipodi:open="true"
   sodipodi:end="2.9519969"
   sodipodi:start="1.2158654"
   sodipodi:ry="8.0036306"
   sodipodi:rx="13.332563"
   sodipodi:cy="17.327381"
   sodipodi:cx="31.661526"
   sodipodi:type="arc"
   id="path861"
   style="fill:none;fill-rule:evenodd;stroke:#000000;stroke-width:0.15000767;stroke-linecap:butt;stroke-miterlimit:4;stroke-dasharray:none;stroke-opacity:1"
   transform="matrix(0.95007936,0.31200834,-0.32555018,0.94552477,0,0)" /><path
   transform="matrix(0.94934885,0.31422407,-0.32327285,0.9463058,0,0)"
   style="fill:none;fill-rule:evenodd;stroke:#000000;stroke-width:0.1494202;stroke-miterlimit:4;stroke-dasharray:none;stroke-opacity:1"
   id="path863"
   sodipodi:type="arc"
   sodipodi:cx="31.579941"
   sodipodi:cy="17.394514"
   sodipodi:rx="13.23891"
   sodipodi:ry="7.997242"
   sodipodi:start="4.3041146"
   sodipodi:end="0.071531817"
   sodipodi:open="true"
   d="m 26.323748,10.054587 a 13.23891,7.997242 0 0 1 12.916396,0.817358 13.23891,7.997242 0 0 1 5.544851,7.094139" /></svg>