<?xml version="1.0" encoding="UTF-8" standalone="no"?>
<!-- Generator: Adobe Illustrator 19.2.1, SVG Export Plug-In . SVG Version: 6.00 Build 0)  -->

<svg
   xmlns:dc="http://purl.org/dc/elements/1.1/"
   xmlns:cc="http://creativecommons.org/ns#"
   xmlns:rdf="http://www.w3.org/1999/02/22-rdf-syntax-ns#"
   xmlns:svg="http://www.w3.org/2000/svg"
   xmlns="http://www.w3.org/2000/svg"
   xmlns:sodipodi="http://sodipodi.sourceforge.net/DTD/sodipodi-0.dtd"
   xmlns:inkscape="http://www.inkscape.org/namespaces/inkscape"
   version="1.2"
   id="Layer_1"
   x="0px"
   y="0px"
   viewBox="0 0 50.3 50.3"
   xml:space="preserve"
   sodipodi:docname="icon.svg"
   inkscape:version="0.92.4 (5da689c313, 2019-01-14)"><metadata
   id="metadata19"><rdf:RDF><cc:Work
       rdf:about=""><dc:format>image/svg+xml</dc:format><dc:type
         rdf:resource="http://purl.org/dc/dcmitype/StillImage" /></cc:Work></rdf:RDF></metadata><defs
   id="defs17" /><sodipodi:namedview
   pagecolor="#ffffff"
   bordercolor="#666666"
   borderopacity="1"
   objecttolerance="10"
   gridtolerance="10"
   guidetolerance="10"
   inkscape:pageopacity="0"
   inkscape:pageshadow="2"
   inkscape:window-width="1680"
   inkscape:window-height="987"
   id="namedview15"
   showgrid="false"
   inkscape:zoom="4.691849"
   inkscape:cx="5.3174718"
   inkscape:cy="22.84322"
   inkscape:window-x="1672"
   inkscape:window-y="-8"
   inkscape:window-maximized="1"
   inkscape:current-layer="Layer_1" />






<g
   id="g857"
   transform="matrix(1.1384181,0,0,1.1384181,-1.0435226,-1.3369648)"><path
     sodipodi:nodetypes="csccscc"
     inkscape:connector-curvature="0"
     id="path837"
     d="m 30.158686,37.778283 c 0,0 -0.972401,4.005225 -7.406462,3.845583 -5.31493,-0.131874 -6.447351,-4.112002 -6.447351,-4.112002 L 15.931885,8.2057202 c 0,0 -0.08876,-3.6952304 7.033475,-3.8364406 7.767253,-0.1539987 7.832733,3.7831567 7.832733,3.7831567 z"
     style="fill:none;stroke:#000000;stroke-width:0.30000001;stroke-linecap:butt;stroke-linejoin:miter;stroke-miterlimit:4;stroke-dasharray:none;stroke-opacity:1" /><path
     sodipodi:nodetypes="cscc"
     inkscape:connector-curvature="0"
     id="path839"
     d="m 15.958527,8.5520655 c 0,0 1.007187,3.2078315 7.353178,3.1437505 6.301198,-0.06363 7.37982,-3.2503183 7.37982,-3.2503183 l 0.09325,-0.4395922"
     style="fill:none;stroke:#000000;stroke-width:0.30000001;stroke-linecap:butt;stroke-linejoin:miter;stroke-miterlimit:4;stroke-dasharray:none;stroke-opacity:1" /><path
     style="fill:none;stroke:#000000;stroke-width:0.30000001;stroke-linecap:butt;stroke-linejoin:miter;stroke-miterlimit:4;stroke-dasharray:none;stroke-opacity:1"
     d="m 15.940831,9.5505167 c 0,0 0.987206,3.2078313 7.333197,3.1437503 6.301198,-0.06363 7.466406,-3.2036947 7.466406,-3.2036947 l 0.0067,-0.4862156"
     id="path841"
     inkscape:connector-curvature="0"
     sodipodi:nodetypes="cscc" /><path
     sodipodi:nodetypes="cscc"
     inkscape:connector-curvature="0"
     id="path843"
     d="m 16.034078,16.771239 c 0,0 0.893959,3.241133 7.23995,3.177052 6.301198,-0.06363 7.296858,-3.024727 7.296858,-3.024727 l 0.03496,-0.203635"
     style="fill:none;stroke:#000000;stroke-width:0.30000001;stroke-linecap:butt;stroke-linejoin:miter;stroke-miterlimit:4;stroke-dasharray:none;stroke-opacity:1" /><path
     d="M 18.894901,9.9935333 A 6.0077596,2.9838984 0 0 1 19.322229,5.7793576 6.0077596,2.9838984 0 0 1 27.807091,5.9908964 6.0077596,2.9838984 0 0 1 27.382599,10.205143 6.0077596,2.9838984 0 0 1 18.897595,9.9950126"
     sodipodi:open="true"
     sodipodi:end="2.4059311"
     sodipodi:start="2.4065996"
     sodipodi:ry="2.9838984"
     sodipodi:rx="6.0077596"
     sodipodi:cy="7.9925847"
     sodipodi:cx="23.351669"
     sodipodi:type="arc"
     id="path845"
     style="fill:none;fill-rule:evenodd;stroke:#000000;stroke-width:0.30000001;stroke-miterlimit:4;stroke-dasharray:none;stroke-opacity:1" /><path
     sodipodi:nodetypes="cczccac"
     inkscape:connector-curvature="0"
     id="path847"
     d="m 28.31457,24.773557 -0.09419,4.785031 c 0,0 -0.578388,0.302437 -0.979613,0.452128 -0.401225,0.149691 -1.431741,0.414452 -1.431741,0.414452 l 0.05652,-4.860385 c 0,0 0.87954,-0.126659 1.29987,-0.263742 0.400707,-0.130683 1.149154,-0.527484 1.149154,-0.527484 z"
     style="fill:none;stroke:#000000;stroke-width:0.1;stroke-linecap:butt;stroke-linejoin:miter;stroke-miterlimit:4;stroke-dasharray:none;stroke-opacity:1" /></g></svg>