<?xml version="1.0" encoding="UTF-8" standalone="no"?>
<svg
   xmlns:dc="http://purl.org/dc/elements/1.1/"
   xmlns:cc="http://creativecommons.org/ns#"
   xmlns:rdf="http://www.w3.org/1999/02/22-rdf-syntax-ns#"
   xmlns:svg="http://www.w3.org/2000/svg"
   xmlns="http://www.w3.org/2000/svg"
   xmlns:sodipodi="http://sodipodi.sourceforge.net/DTD/sodipodi-0.dtd"
   xmlns:inkscape="http://www.inkscape.org/namespaces/inkscape"
   version="1.2"
   id="Layer_1"
   x="0px"
   y="0px"
   viewBox="0 0 50.8 50.8"
   xml:space="preserve"
   sodipodi:docname="icon.svg"
   inkscape:version="1.0.2 (e86c870879, 2021-01-15, custom)"><metadata
   id="metadata37"><rdf:RDF><cc:Work
       rdf:about=""><dc:format>image/svg+xml</dc:format><dc:type
         rdf:resource="http://purl.org/dc/dcmitype/StillImage" /></cc:Work></rdf:RDF></metadata><defs
   id="defs35" /><sodipodi:namedview
   pagecolor="#ffffff"
   bordercolor="#666666"
   borderopacity="1"
   objecttolerance="10"
   gridtolerance="10"
   guidetolerance="10"
   inkscape:pageopacity="0"
   inkscape:pageshadow="2"
   inkscape:window-width="1680"
   inkscape:window-height="987"
   id="namedview33"
   showgrid="false"
   inkscape:zoom="8.0708662"
   inkscape:cx="31.853863"
   inkscape:cy="4.6644982"
   inkscape:window-x="-8"
   inkscape:window-y="-8"
   inkscape:window-maximized="1"
   inkscape:current-layer="Layer_1"
   inkscape:document-rotation="0" />













<path
   style="fill:none;fill-rule:evenodd;stroke:#000000;stroke-width:0.387274;stroke-linecap:butt;stroke-linejoin:miter;stroke-miterlimit:4;stroke-dasharray:none;stroke-opacity:1"
   d="M 36.509624,11.583155 5.8055232,17.636937 5.7943343,22.42193 36.509624,16.575192 Z"
   id="path850"
   sodipodi:nodetypes="ccccc" /><path
   style="fill:none;fill-rule:evenodd;stroke:#000000;stroke-width:0.387274;stroke-linecap:butt;stroke-linejoin:miter;stroke-miterlimit:4;stroke-dasharray:none;stroke-opacity:1"
   d="m 36.509624,11.583155 8.083097,7.76589 v 4.724604 l -8.083097,-7.498457 v 0"
   id="path852"
   sodipodi:nodetypes="ccccc" /><path
   style="fill:none;fill-rule:evenodd;stroke:#000000;stroke-width:0.387274;stroke-linecap:butt;stroke-linejoin:miter;stroke-miterlimit:4;stroke-dasharray:none;stroke-opacity:1"
   d="M 12.593278,28.030818 5.6962049,22.474768"
   id="path897"
   sodipodi:nodetypes="cc" /><g
   id="g936"
   transform="matrix(0.08606074,0,0,0.08606074,-46.068161,11.564695)"><path
     style="fill:none;fill-rule:evenodd;stroke:#000000;stroke-width:4.5;stroke-linecap:butt;stroke-linejoin:miter;stroke-miterlimit:4;stroke-dasharray:none;stroke-opacity:1"
     d="m 758.93795,176.03311 18.24699,-5.76221 0.48019,-16.08616 -77.06953,-28.09077 -19.20736,7.20277 0.96037,105.40037 12.72488,4.56175 17.52671,-4.80184 -13.92533,-5.04193 -16.08617,5.52212"
     id="path914" /><path
     style="fill:none;fill-rule:evenodd;stroke:#000000;stroke-width:4.5;stroke-linecap:butt;stroke-linejoin:miter;stroke-miterlimit:4;stroke-dasharray:none;stroke-opacity:1"
     d="M 698.67487,233.41509 700.5956,126.09397"
     id="path916" /><path
     style="fill:none;fill-rule:evenodd;stroke:#000000;stroke-width:4.5;stroke-linecap:butt;stroke-linejoin:miter;stroke-miterlimit:4;stroke-dasharray:none;stroke-opacity:1"
     d="m 777.18495,170.2709 -61.46355,-20.64791 -3.1212,88.83403"
     id="path918" /><path
     style="fill:none;fill-rule:evenodd;stroke:#000000;stroke-width:4.5;stroke-linecap:butt;stroke-linejoin:miter;stroke-miterlimit:4;stroke-dasharray:none;stroke-opacity:1"
     d="M 726.28544,167.1497 715.4813,163.30823"
     id="path920" /><path
     style="fill:none;fill-rule:evenodd;stroke:#000000;stroke-width:4.5;stroke-linecap:butt;stroke-linejoin:miter;stroke-miterlimit:4;stroke-dasharray:none;stroke-opacity:1"
     d="m 759.71825,147.61222 c 0,0 0.17295,-6.07177 -3.98138,-7.02534 -10.79006,-2.4767 -15.10593,0.12269 -15.10593,0.12269"
     id="path922"
     sodipodi:nodetypes="csc" /><path
     style="fill:none;fill-rule:evenodd;stroke:#000000;stroke-width:4.5;stroke-linecap:butt;stroke-linejoin:miter;stroke-miterlimit:4;stroke-dasharray:none;stroke-opacity:1"
     d="m 715.00112,170.75108 c 0,0 27.78478,-9.62747 36.0138,-1.68065 27.38747,26.44831 76.10915,73.70825 76.10915,73.70825"
     id="path924"
     sodipodi:nodetypes="csc" /><path
     style="fill:none;fill-rule:evenodd;stroke:#000000;stroke-width:4.5;stroke-linecap:butt;stroke-linejoin:miter;stroke-miterlimit:4;stroke-dasharray:none;stroke-opacity:1"
     d="m 681.62833,201.00268 c 0,0 -13.80672,27.17955 -2.04078,40.81563 30.89037,35.80025 65.66516,75.38888 65.66516,75.38888"
     id="path926"
     sodipodi:nodetypes="csc" /><path
     style="fill:none;fill-rule:evenodd;stroke:#000000;stroke-width:4.5;stroke-linecap:butt;stroke-linejoin:miter;stroke-miterlimit:4;stroke-dasharray:none;stroke-opacity:1"
     d="m 713.44052,215.58826 c 0,0 3.9445,1.52203 3.54136,8.82338 -0.21163,3.8329 -4.19433,9.37753 -4.19433,9.37753"
     id="path928"
     sodipodi:nodetypes="csc" /><path
     style="fill:none;fill-rule:evenodd;stroke:#000000;stroke-width:4.5;stroke-linecap:butt;stroke-linejoin:miter;stroke-miterlimit:4;stroke-dasharray:none;stroke-opacity:1"
     d="m 827.12408,242.77868 c 0,0 -24.09195,-17.16577 -58.43773,11.2198 -37.64648,31.11348 -23.43364,63.20871 -23.43364,63.20871 0,0 18.50897,28.04393 56.70869,1.81345 14.42844,-9.90753 17.80599,-14.12009 23.56649,-22.98989 24.42861,-37.61422 1.59619,-53.25207 1.59619,-53.25207 z"
     id="path930"
     sodipodi:nodetypes="cscssc" /><path
     style="fill:none;fill-rule:evenodd;stroke:#000000;stroke-width:4.5;stroke-linecap:butt;stroke-linejoin:miter;stroke-miterlimit:4;stroke-dasharray:none;stroke-opacity:1"
     d="m 769.0259,255.35664 c 17.45096,-15.64397 46.98059,-23.0998 60.26858,-7.80945 14.67948,16.8915 0.61813,45.39758 -15.95844,61.45698 -21.0225,20.36662 -53.33763,25.90761 -64.51285,9.33739 -11.64259,-17.26323 -0.78992,-44.16603 20.20271,-62.98492 z"
     id="path932"
     sodipodi:nodetypes="sssss" /><path
     style="fill:none;fill-rule:evenodd;stroke:#000000;stroke-width:4.5;stroke-linecap:butt;stroke-linejoin:miter;stroke-miterlimit:4;stroke-dasharray:none;stroke-opacity:1"
     d="m 773.34553,261.06069 c 12.67195,-11.35982 34.11479,-16.77384 43.76383,-5.67081 10.65945,12.2657 0.44885,32.9653 -11.58817,44.62677 -15.26542,14.78916 -38.73094,18.81273 -46.84579,6.78032 -8.45423,-12.53563 -0.5736,-32.07102 14.67013,-45.73628 z"
     id="path934"
     sodipodi:nodetypes="sssss" /></g><g
   id="g1054"
   transform="matrix(0.08606074,0,0,0.08606074,-28.797501,8.5453492)"><path
     style="fill:none;fill-rule:evenodd;stroke:#000000;stroke-width:4.5;stroke-linecap:butt;stroke-linejoin:miter;stroke-miterlimit:4;stroke-dasharray:none;stroke-opacity:1"
     d="m 758.93795,176.03311 18.24699,-5.76221 0.48019,-16.08616 -77.06953,-28.09077 -19.20736,7.20277 0.96037,105.40037 12.72488,4.56175 17.52671,-4.80184 -13.92533,-5.04193 -16.08617,5.52212"
     id="path1032" /><path
     style="fill:none;fill-rule:evenodd;stroke:#000000;stroke-width:4.5;stroke-linecap:butt;stroke-linejoin:miter;stroke-miterlimit:4;stroke-dasharray:none;stroke-opacity:1"
     d="M 698.67487,233.41509 700.5956,126.09397"
     id="path1034" /><path
     style="fill:none;fill-rule:evenodd;stroke:#000000;stroke-width:4.5;stroke-linecap:butt;stroke-linejoin:miter;stroke-miterlimit:4;stroke-dasharray:none;stroke-opacity:1"
     d="m 777.18495,170.2709 -61.46355,-20.64791 -3.1212,88.83403"
     id="path1036" /><path
     style="fill:none;fill-rule:evenodd;stroke:#000000;stroke-width:4.5;stroke-linecap:butt;stroke-linejoin:miter;stroke-miterlimit:4;stroke-dasharray:none;stroke-opacity:1"
     d="M 726.28544,167.1497 715.4813,163.30823"
     id="path1038" /><path
     style="fill:none;fill-rule:evenodd;stroke:#000000;stroke-width:4.5;stroke-linecap:butt;stroke-linejoin:miter;stroke-miterlimit:4;stroke-dasharray:none;stroke-opacity:1"
     d="m 759.71825,147.61222 c 0,0 0.17295,-6.07177 -3.98138,-7.02534 -10.79006,-2.4767 -15.10593,0.12269 -15.10593,0.12269"
     id="path1040"
     sodipodi:nodetypes="csc" /><path
     style="fill:none;fill-rule:evenodd;stroke:#000000;stroke-width:4.5;stroke-linecap:butt;stroke-linejoin:miter;stroke-miterlimit:4;stroke-dasharray:none;stroke-opacity:1"
     d="m 715.00112,170.75108 c 0,0 27.78478,-9.62747 36.0138,-1.68065 27.38747,26.44831 76.10915,73.70825 76.10915,73.70825"
     id="path1042"
     sodipodi:nodetypes="csc" /><path
     style="fill:none;fill-rule:evenodd;stroke:#000000;stroke-width:4.5;stroke-linecap:butt;stroke-linejoin:miter;stroke-miterlimit:4;stroke-dasharray:none;stroke-opacity:1"
     d="m 681.62833,201.00268 c 0,0 -13.80672,27.17955 -2.04078,40.81563 30.89037,35.80025 65.66516,75.38888 65.66516,75.38888"
     id="path1044"
     sodipodi:nodetypes="csc" /><path
     style="fill:none;fill-rule:evenodd;stroke:#000000;stroke-width:4.5;stroke-linecap:butt;stroke-linejoin:miter;stroke-miterlimit:4;stroke-dasharray:none;stroke-opacity:1"
     d="m 713.44052,215.58826 c 0,0 3.9445,1.52203 3.54136,8.82338 -0.21163,3.8329 -4.19433,9.37753 -4.19433,9.37753"
     id="path1046"
     sodipodi:nodetypes="csc" /><path
     style="fill:none;fill-rule:evenodd;stroke:#000000;stroke-width:4.5;stroke-linecap:butt;stroke-linejoin:miter;stroke-miterlimit:4;stroke-dasharray:none;stroke-opacity:1"
     d="m 827.12408,242.77868 c 0,0 -24.09195,-17.16577 -58.43773,11.2198 -37.64648,31.11348 -23.43364,63.20871 -23.43364,63.20871 0,0 18.50897,28.04393 56.70869,1.81345 14.42844,-9.90753 17.80599,-14.12009 23.56649,-22.98989 24.42861,-37.61422 1.59619,-53.25207 1.59619,-53.25207 z"
     id="path1048"
     sodipodi:nodetypes="cscssc" /><path
     style="fill:none;fill-rule:evenodd;stroke:#000000;stroke-width:4.5;stroke-linecap:butt;stroke-linejoin:miter;stroke-miterlimit:4;stroke-dasharray:none;stroke-opacity:1"
     d="m 769.0259,255.35664 c 17.45096,-15.64397 46.98059,-23.0998 60.26858,-7.80945 14.67948,16.8915 0.61813,45.39758 -15.95844,61.45698 -21.0225,20.36662 -53.33763,25.90761 -64.51285,9.33739 -11.64259,-17.26323 -0.78992,-44.16603 20.20271,-62.98492 z"
     id="path1050"
     sodipodi:nodetypes="sssss" /><path
     style="fill:none;fill-rule:evenodd;stroke:#000000;stroke-width:4.5;stroke-linecap:butt;stroke-linejoin:miter;stroke-miterlimit:4;stroke-dasharray:none;stroke-opacity:1"
     d="m 773.34553,261.06069 c 12.67195,-11.35982 34.11479,-16.77384 43.76383,-5.67081 10.65945,12.2657 0.44885,32.9653 -11.58817,44.62677 -15.26542,14.78916 -38.73094,18.81273 -46.84579,6.78032 -8.45423,-12.53563 -0.5736,-32.07102 14.67013,-45.73628 z"
     id="path1052"
     sodipodi:nodetypes="sssss" /></g><path
   style="fill:none;fill-rule:evenodd;stroke:#000000;stroke-width:0.387274;stroke-linecap:butt;stroke-linejoin:miter;stroke-miterlimit:4;stroke-dasharray:none;stroke-opacity:1"
   d="m 44.762398,24.318612 -6.588925,0.93538 m -8.682051,1.449742 -8.948457,1.332664"
   id="path1078"
   sodipodi:nodetypes="cccc" /></svg>
