<?xml version="1.0" standalone="no"?>
<!DOCTYPE svg PUBLIC "-//W3C//DTD SVG 20010904//EN"
 "http://www.w3.org/TR/2001/REC-SVG-20010904/DTD/svg10.dtd">
<svg version="1.0" xmlns="http://www.w3.org/2000/svg"
 width="36.000000pt" height="36.000000pt" viewBox="0 0 36.000000 36.000000"
 preserveAspectRatio="xMidYMid meet">
<metadata>
Created by potrace 1.15, written by Peter Selinger 2001-2017
</metadata>
<g transform="translate(0.000000,36.000000) scale(0.024000,-0.024000)"
fill="#000000" stroke="none">
<path d="M726 1361 c-3 -4 -23 -11 -44 -14 -22 -2 -55 -12 -75 -22 -32 -15
-35 -20 -27 -40 5 -13 7 -34 5 -46 -3 -12 0 -28 5 -35 8 -8 4 -11 -15 -11 -16
0 -22 4 -18 11 4 6 8 16 9 21 1 6 5 18 9 28 9 21 -4 21 -30 0 -16 -13 -17 -15
-3 -10 14 5 17 1 14 -15 -1 -12 -9 -24 -16 -26 -8 -3 -10 0 -5 8 4 7 2 16 -5
20 -16 10 -42 1 -34 -11 3 -5 1 -9 -5 -9 -5 0 -17 -3 -25 -6 -11 -4 -15 -2
-13 7 2 8 2 10 -1 6 -2 -4 -11 -2 -20 5 -9 7 -13 9 -10 3 6 -10 -16 -37 -24
-29 -3 2 -5 -3 -5 -11 0 -12 5 -11 23 6 l22 21 16 -29 c11 -18 15 -22 14 -9
-2 10 2 21 9 23 7 3 10 -6 8 -23 l-3 -27 20 24 19 24 -6 -24 c-5 -16 -4 -21 4
-17 6 4 11 14 11 22 0 8 5 14 11 14 5 0 8 -4 4 -9 -3 -6 4 -15 16 -21 13 -8
19 -8 15 -1 -4 5 2 15 13 21 14 7 22 7 26 0 5 -8 11 -7 21 1 11 9 18 9 26 1
14 -14 28 -16 28 -4 0 4 -15 13 -33 20 -19 7 -34 19 -34 27 0 10 6 14 14 10 8
-3 20 -5 26 -5 8 0 7 -3 -1 -9 -11 -7 -11 -9 2 -14 9 -4 16 -3 17 1 6 45 4 62
-7 62 -7 0 -16 -4 -19 -10 -3 -5 -1 -10 6 -10 7 0 9 -3 6 -6 -4 -4 -13 -2 -20
4 -8 7 -18 8 -22 4 -5 -4 -5 -1 -1 6 4 7 11 10 16 7 5 -3 12 1 17 9 4 8 13 16
18 18 6 2 9 7 7 11 -1 5 2 6 8 2 5 -3 13 1 16 9 4 10 15 14 30 12 13 -3 24 -1
24 2 0 4 12 7 26 7 32 -2 60 -46 46 -71 -8 -15 -10 -15 -15 1 -4 9 -12 13 -17
10 -8 -5 -7 -11 1 -21 10 -12 9 -17 0 -27 -10 -9 -11 -8 -6 8 6 17 5 18 -5 5
-10 -13 -11 -13 -6 3 3 9 2 17 -3 17 -5 0 -11 -11 -13 -24 -4 -18 -1 -23 10
-18 11 4 13 1 7 -8 -6 -10 -4 -11 6 -4 19 12 39 14 39 4 0 -5 -4 -12 -10 -15
-5 -3 -10 -14 -10 -23 0 -25 -47 -107 -59 -104 -6 1 -11 -4 -11 -12 0 -8 -6
-21 -13 -28 -8 -7 -20 -24 -26 -37 -9 -17 -15 -20 -21 -11 -4 6 -7 -27 -8 -75
0 -47 2 -84 5 -81 3 3 19 -15 35 -41 16 -25 36 -52 44 -60 24 -24 46 -74 40
-89 -3 -8 -2 -13 3 -9 5 3 12 -1 14 -7 3 -7 5 7 4 32 0 24 -2 39 -5 32 -2 -7
-18 9 -35 35 -18 26 -30 52 -29 58 2 5 0 7 -4 3 -7 -8 -50 51 -46 65 1 4 -2 7
-8 7 -5 0 -10 20 -10 44 0 40 18 79 60 129 48 57 79 112 95 167 10 36 18 73
17 82 0 10 5 15 13 12 7 -3 16 0 21 7 4 8 3 10 -4 5 -7 -4 -12 -2 -12 5 0 8
-4 8 -15 -1 -8 -7 -15 -9 -16 -4 -2 22 -8 46 -13 51 -3 3 -26 5 -51 5 -27 -1
-43 3 -40 8 3 6 4 10 1 10 -3 0 -7 -4 -10 -9z m-112 -132 c2 -13 5 -28 5 -32
1 -5 6 -5 13 -1 7 5 8 3 4 -5 -12 -19 -46 17 -41 43 2 11 4 23 4 25 2 10 11
-7 15 -30z m-88 -25 c1 -9 0 -13 -3 -10 -4 3 -12 1 -20 -6 -12 -10 -12 -7 -2
15 13 28 21 28 25 1z m49 -24 c-3 -5 -12 -10 -18 -10 -7 0 -6 4 3 10 19 12 23
12 15 0z"/>
<path d="M849 1348 c-8 -28 -4 -35 17 -35 13 0 21 3 18 8 -3 5 -12 9 -20 9 -8
0 -12 5 -9 10 3 6 4 10 1 10 -3 0 -6 -1 -7 -2z"/>
<path d="M791 1321 c-8 -5 -23 -8 -33 -6 -10 2 -16 0 -13 -5 3 -5 17 -7 31 -4
14 3 23 1 20 -4 -3 -5 1 -9 9 -9 10 0 12 4 5 12 -5 7 -7 15 -3 18 9 10 1 8
-16 -2z"/>
<path d="M706 1302 c-17 -19 -17 -22 -2 -37 9 -9 16 -21 16 -28 0 -6 -6 -3
-13 7 -12 16 -13 16 -13 -8 0 -14 6 -28 14 -31 8 -3 10 0 6 6 -4 7 -1 10 7 7
8 -3 16 -24 19 -49 6 -43 6 -43 11 20 4 46 11 67 24 77 10 8 15 15 9 16 -5 0
-13 2 -19 3 -5 2 -15 3 -22 4 -6 0 -13 8 -15 17 -3 14 -6 13 -22 -4z m57 -26
c4 4 1 -5 -6 -20 -7 -14 -16 -26 -20 -26 -5 0 -5 5 -2 10 3 6 1 10 -5 10 -6 0
-8 5 -5 10 3 6 1 10 -4 10 -6 0 -11 7 -11 15 0 14 2 14 23 0 13 -8 26 -12 30
-9z"/>
<path d="M519 1293 c-13 -16 -12 -17 4 -4 9 7 17 15 17 17 0 8 -8 3 -21 -13z"/>
<path d="M373 1265 c0 -8 4 -12 9 -9 5 3 6 10 3 15 -9 13 -12 11 -12 -6z"/>
<path d="M506 1258 c3 -5 10 -6 15 -3 13 9 11 12 -6 12 -8 0 -12 -4 -9 -9z"/>
<path d="M480 1251 c0 -7 -4 -9 -10 -6 -6 4 -7 -1 -3 -11 6 -15 7 -15 15 1 6
9 7 19 4 22 -3 4 -6 1 -6 -6z"/>
<path d="M396 1241 c-17 -6 -17 -8 -4 -14 10 -3 19 0 22 9 3 8 4 14 3 13 -1 0
-11 -4 -21 -8z"/>
<path d="M339 1213 c-12 -16 -12 -17 2 -5 9 7 25 10 35 6 16 -5 16 -4 4 5 -20
15 -25 14 -41 -6z"/>
<path d="M330 1181 c0 -6 4 -13 10 -16 6 -3 7 1 4 9 -7 18 -14 21 -14 7z"/>
<path d="M420 1175 c-7 -9 -11 -17 -9 -20 3 -2 10 5 17 15 14 24 10 26 -8 5z"/>
<path d="M370 1171 c0 -6 4 -13 10 -16 6 -3 7 1 4 9 -7 18 -14 21 -14 7z"/>
<path d="M435 1160 c-3 -5 -1 -10 4 -10 6 0 11 5 11 10 0 6 -2 10 -4 10 -3 0
-8 -4 -11 -10z"/>
<path d="M590 1160 c0 -5 5 -10 10 -10 6 0 10 5 10 10 0 6 -4 10 -10 10 -5 0
-10 -4 -10 -10z"/>
<path d="M671 1139 c0 -13 3 -18 6 -11 2 6 9 10 13 7 5 -3 12 0 16 7 4 7 4 10
-1 6 -4 -4 -14 -3 -22 3 -10 9 -13 6 -12 -12z"/>
<path d="M626 1138 c3 -5 10 -6 15 -3 13 9 11 12 -6 12 -8 0 -12 -4 -9 -9z"/>
<path d="M638 616 c-10 -7 -18 -17 -18 -22 0 -4 5 -3 12 4 16 16 31 15 22 0
-5 -8 0 -7 11 2 10 8 20 14 22 13 1 -2 5 -2 8 -2 3 1 9 2 14 3 18 2 21 13 4
13 -10 0 -21 -5 -25 -11 -5 -8 -8 -7 -8 2 0 16 -20 15 -42 -2z"/>
<path d="M563 581 c-23 -14 -43 -32 -43 -40 0 -8 -3 -11 -7 -8 -9 9 -34 -13
-27 -24 3 -5 1 -9 -5 -9 -15 0 -36 -71 -33 -110 2 -19 11 -48 21 -65 33 -57
141 -121 141 -84 0 6 -6 9 -14 6 -7 -3 -28 7 -47 22 -24 21 -29 30 -19 36 9 6
11 4 5 -5 -6 -10 -4 -12 8 -7 11 4 14 2 10 -9 -3 -8 1 -14 11 -14 9 0 16 -5
16 -11 0 -8 4 -8 14 0 11 9 15 9 18 0 3 -10 48 -22 48 -13 0 9 -57 31 -69 26
-8 -3 -11 0 -7 7 4 7 1 9 -8 5 -12 -4 -14 0 -10 20 3 16 -1 28 -12 34 -11 6
-13 12 -6 16 6 3 17 -3 25 -14 13 -19 15 -19 21 -4 4 9 4 19 1 22 -3 3 -5 0
-5 -7 0 -20 -46 20 -47 42 -2 15 1 16 12 7 23 -19 38 -2 22 24 -12 18 -12 23
-1 34 8 7 14 11 15 10 0 -2 2 -16 4 -32 2 -15 7 -31 11 -35 4 -3 4 7 0 23 -6
26 -5 28 8 17 9 -8 16 -9 16 -5 0 5 -9 15 -20 22 -12 7 -18 17 -14 23 4 8 10
7 16 -2 7 -11 8 -9 4 4 -4 12 -2 17 6 14 7 -2 12 -11 10 -19 -1 -9 6 -18 16
-20 11 -3 19 0 19 7 0 8 -7 11 -16 7 -9 -3 -13 -2 -9 3 4 4 3 14 -3 21 -7 9
-4 16 11 27 21 15 21 15 2 21 -11 4 -24 5 -28 4 -5 -2 -19 4 -32 13 -19 14
-20 17 -7 23 9 3 14 2 11 -3 -7 -11 22 -23 35 -15 6 3 16 0 24 -6 8 -7 20 -10
27 -7 8 3 6 6 -5 6 -10 1 -15 6 -12 11 3 6 18 8 32 6 14 -3 23 -2 19 1 -10 10
-38 13 -50 6 -23 -15 -55 -11 -58 6 -3 15 -8 14 -45 -8z m4 -26 c-4 -8 -2 -17
3 -20 6 -4 10 -12 9 -18 0 -9 -2 -9 -6 1 -7 17 -20 15 -20 -3 0 -8 4 -12 9 -9
4 3 8 1 8 -3 0 -5 -9 -14 -20 -21 -12 -7 -18 -17 -15 -22 7 -11 28 -3 22 8 -5
9 25 36 44 40 8 2 2 -9 -13 -23 -15 -14 -35 -39 -43 -54 -10 -21 -20 -28 -34
-24 -26 7 -35 -12 -14 -28 15 -12 16 -12 10 4 -7 19 0 22 22 8 11 -7 10 -11
-7 -20 -14 -7 -23 -8 -27 -1 -4 6 -10 8 -14 6 -4 -3 -8 4 -8 15 -1 10 3 19 8
19 6 0 7 5 4 11 -8 12 27 8 36 -4 3 -5 9 -2 11 5 3 8 -1 23 -9 33 -14 17 -15
18 -9 2 4 -12 2 -16 -6 -11 -7 5 -8 3 -3 -7 7 -11 6 -12 -6 -2 -12 10 -18 10
-29 0 -12 -10 -12 -9 -1 5 7 10 17 15 22 12 13 -8 11 10 -3 24 -9 9 -9 12 0
12 7 0 12 -4 12 -8 0 -5 6 -9 14 -9 17 0 39 44 27 52 -5 2 -12 -5 -15 -18 -6
-21 -7 -21 -17 -4 -6 10 -8 21 -5 24 3 4 6 0 6 -8 1 -8 7 -3 15 11 9 16 15 19
15 10 1 -9 5 -6 10 8 5 12 12 22 16 22 3 0 4 -7 1 -15z m69 -18 c17 6 17 5 5
-10 -16 -20 -41 -19 -58 3 -17 22 -4 34 17 15 11 -10 24 -13 36 -8z m-62 -123
c4 -10 1 -14 -6 -12 -15 5 -23 28 -10 28 5 0 13 -7 16 -16z m-36 -55 c-2 -6
-7 -10 -12 -9 -4 1 -14 -7 -23 -17 -8 -10 -12 -13 -9 -6 4 6 -2 17 -11 23 -16
10 -16 10 2 6 11 -3 27 -1 35 4 19 12 22 12 18 -1z m22 -41 c0 -5 -6 -8 -12
-5 -7 2 -21 0 -30 -5 -22 -11 -23 -4 -3 16 16 15 45 12 45 -6z"/>
<path d="M776 575 c-9 -26 -7 -32 5 -12 6 10 9 21 6 23 -2 3 -7 -2 -11 -11z"/>
<path d="M708 553 c6 -2 10 -8 7 -13 -7 -11 22 -7 32 5 4 4 3 5 -4 1 -6 -3
-14 -2 -18 4 -3 5 -12 10 -18 9 -9 0 -8 -2 1 -6z"/>
<path d="M950 539 c0 -5 5 -7 10 -4 6 3 10 8 10 11 0 2 -4 4 -10 4 -5 0 -10
-5 -10 -11z"/>
<path d="M773 515 c0 -8 4 -12 9 -9 5 3 6 10 3 15 -9 13 -12 11 -12 -6z"/>
<path d="M970 519 c0 -5 5 -7 10 -4 6 3 10 8 10 11 0 2 -4 4 -10 4 -5 0 -10
-5 -10 -11z"/>
<path d="M670 505 c0 -8 4 -15 8 -15 5 0 9 7 9 15 0 8 -4 15 -9 15 -4 0 -8 -7
-8 -15z"/>
<path d="M994 509 c-4 -7 0 -16 9 -20 8 -5 13 -17 10 -28 -3 -11 2 -21 13 -25
14 -5 15 -4 5 8 -7 8 -10 19 -7 24 3 6 -1 15 -9 22 -8 7 -12 16 -9 21 3 5 3 9
0 9 -3 0 -8 -5 -12 -11z"/>
<path d="M730 479 c0 -5 5 -7 10 -4 6 3 10 8 10 11 0 2 -4 4 -10 4 -5 0 -10
-5 -10 -11z"/>
<path d="M642 422 c-6 -2 -12 -8 -12 -14 0 -7 4 -7 13 -1 6 6 24 9 40 8 15 -1
25 1 22 4 -7 7 -46 9 -63 3z"/>
<path d="M1010 420 c0 -6 4 -10 9 -10 9 0 8 -22 -3 -63 -5 -17 -14 -26 -22
-23 -9 3 -11 0 -7 -11 5 -12 2 -15 -9 -10 -17 6 -19 -16 -3 -30 4 -4 5 -3 2 3
-4 7 0 14 7 17 39 15 71 119 41 131 -8 3 -15 1 -15 -4z"/>
<path d="M655 391 c-3 -5 -2 -12 3 -15 5 -3 9 1 9 9 0 17 -3 19 -12 6z"/>
<path d="M996 387 c3 -10 9 -15 12 -12 3 3 0 11 -7 18 -10 9 -11 8 -5 -6z"/>
<path d="M577 378 c-7 -5 0 -6 17 -4 16 3 31 7 33 10 8 8 -37 2 -50 -6z"/>
<path d="M613 358 c-3 -7 -1 -8 5 -4 13 8 16 -5 5 -20 -5 -5 -1 -2 8 8 9 9 18
16 20 15 2 -1 3 0 1 2 -6 10 -32 9 -39 -1z"/>
<path d="M916 265 c4 -10 0 -15 -11 -15 -9 0 -14 4 -11 8 3 5 -1 9 -9 9 -8 0
-12 -4 -9 -8 2 -4 1 -9 -3 -12 -5 -2 -3 -2 4 -1 6 2 13 -2 15 -7 6 -17 38 2
38 22 0 10 -4 19 -10 19 -5 0 -7 -7 -4 -15z"/>
<path d="M660 266 c0 -3 9 -10 20 -16 11 -6 20 -8 20 -6 0 3 -9 10 -20 16 -11
6 -20 8 -20 6z"/>
<path d="M756 254 c-11 -8 -16 -14 -10 -14 13 0 39 18 34 24 -3 2 -14 -2 -24
-10z"/>
<path d="M940 259 c0 -5 5 -7 10 -4 6 3 10 8 10 11 0 2 -4 4 -10 4 -5 0 -10
-5 -10 -11z"/>
</g>
</svg>
