<?xml version="1.0" encoding="UTF-8" standalone="no"?>
<svg
   xmlns:dc="http://purl.org/dc/elements/1.1/"
   xmlns:cc="http://creativecommons.org/ns#"
   xmlns:rdf="http://www.w3.org/1999/02/22-rdf-syntax-ns#"
   xmlns:svg="http://www.w3.org/2000/svg"
   xmlns="http://www.w3.org/2000/svg"
   xmlns:sodipodi="http://sodipodi.sourceforge.net/DTD/sodipodi-0.dtd"
   xmlns:inkscape="http://www.inkscape.org/namespaces/inkscape"
   version="1.2"
   id="Layer_1"
   x="0px"
   y="0px"
   viewBox="0 0 50.5 50.5"
   xml:space="preserve"
   sodipodi:docname="icon.svg"
   inkscape:version="0.92.4 (5da689c313, 2019-01-14)"><sodipodi:namedview
   pagecolor="#ffffff"
   bordercolor="#666666"
   borderopacity="1"
   objecttolerance="10"
   gridtolerance="10"
   guidetolerance="10"
   inkscape:pageopacity="0"
   inkscape:pageshadow="2"
   inkscape:window-width="1680"
   inkscape:window-height="987"
   id="namedview6"
   showgrid="false"
   inkscape:zoom="8"
   inkscape:cx="-6.4976256"
   inkscape:cy="47.652871"
   inkscape:window-x="1672"
   inkscape:window-y="-8"
   inkscape:window-maximized="1"
   inkscape:current-layer="Layer_1" /><metadata
   id="metadata15"><rdf:RDF><cc:Work
       rdf:about=""><dc:format>image/svg+xml</dc:format><dc:type
         rdf:resource="http://purl.org/dc/dcmitype/StillImage" /><dc:title /></cc:Work></rdf:RDF></metadata><defs
   id="defs13" />




<path
   style="fill:none;stroke:#000000;stroke-width:0.10518396;stroke-linecap:butt;stroke-linejoin:miter;stroke-miterlimit:4;stroke-dasharray:none;stroke-opacity:1"
   d="m 29.474672,31.147836 c -1.074838,-0.218941 -2.189141,-0.193639 -3.285936,-0.177634 -0.976947,0.01425 -1.980481,-0.02106 -2.921017,0.243556 -2.342899,0.65916 -4.845259,1.51524 -6.525258,3.276283 -1.44262,1.512213 -2.593905,3.640072 -2.546442,5.729495 0.04041,1.778922 1.18763,3.460421 2.387289,4.77458 0.967734,1.060098 2.295288,1.824665 3.660512,2.267925 1.897253,0.615999 3.973481,0.431948 5.968223,0.43767 1.96735,0.0057 4.017985,0.211313 5.888648,-0.397881 1.490485,-0.485386 2.887418,-1.381491 3.978816,-2.506655 0.910639,-0.93881 1.673263,-2.11287 1.98941,-3.381995 0.295216,-1.185106 0.188942,-2.489844 -0.159154,-3.660509 -0.333869,-1.122822 -1.008467,-2.151737 -1.790467,-3.023901 -0.841115,-0.938095 -1.915592,-1.668636 -3.0239,-2.267925 -1.129293,-0.610638 -2.362741,-1.056764 -3.620724,-1.313009 z"
   id="path860"
   inkscape:connector-curvature="0"
   sodipodi:nodetypes="aaaaaaaaaaaaaaa" /><path
   style="fill:none;stroke:#000000;stroke-width:0.10518396;stroke-linecap:butt;stroke-linejoin:miter;stroke-miterlimit:4;stroke-dasharray:none;stroke-opacity:1"
   d="m 20.10556,47.205979 c 0,0 1.432249,-0.396399 2.167456,-0.481078 1.20564,-0.138863 2.427025,-0.04671 3.640616,-0.03979 1.18729,0.0067 2.374755,0.03026 3.56104,0.07957 0.693492,0.02882 1.400793,-0.02381 2.078432,0.126398 0.284557,0.06308 0.813452,0.320718 0.813452,0.320718"
   id="path862"
   inkscape:connector-curvature="0"
   sodipodi:nodetypes="caaaac" /><path
   style="fill:none;stroke:#000000;stroke-width:0.10518396;stroke-linecap:butt;stroke-linejoin:miter;stroke-miterlimit:4;stroke-dasharray:none;stroke-opacity:1"
   d="M 23.426872,5.8823516 23.247825,31.217465"
   id="path864"
   inkscape:connector-curvature="0"
   sodipodi:nodetypes="cc" /><path
   style="fill:none;stroke:#000000;stroke-width:0.10518396;stroke-linecap:butt;stroke-linejoin:miter;stroke-miterlimit:4;stroke-dasharray:none;stroke-opacity:1"
   d="M 26.29162,7.7126072 26.212048,30.978736"
   id="path866"
   inkscape:connector-curvature="0"
   sodipodi:nodetypes="cc" /><path
   style="fill:none;stroke:#000000;stroke-width:0.10518396;stroke-linecap:butt;stroke-linejoin:miter;stroke-miterlimit:4;stroke-dasharray:none;stroke-opacity:1"
   d="M 29.076791,6.1608688 29.136473,31.0981"
   id="path868"
   inkscape:connector-curvature="0"
   sodipodi:nodetypes="cc" /><path
   style="fill:none;stroke:#000000;stroke-width:0.21036792;stroke-linecap:butt;stroke-linejoin:miter;stroke-miterlimit:4;stroke-dasharray:none;stroke-opacity:1"
   d="m 30.031707,5.7629871 c 0,0 -0.115308,2.0383548 -0.358093,3.0239004 -0.230953,0.9375127 -0.595162,1.8457945 -1.034492,2.7055955 -0.396685,0.776341 -0.896135,1.500954 -1.432374,2.188348 -0.577297,0.740024 -1.356372,1.310969 -1.909832,2.068985 -0.60241,0.825055 -1.173544,1.701911 -1.511951,2.665806 -0.249188,0.709771 -0.401255,1.477134 -0.358093,2.228138 0.0506,0.880294 0.34917,1.74471 0.716187,2.546442 0.430243,0.939844 1.113221,1.742901 1.710891,2.586231 0.596637,0.841871 1.285369,1.616645 1.870044,2.466867 0.327399,0.476095 0.663422,0.952064 0.915128,1.472162 0.213365,0.440873 0.49735,1.382638 0.49735,1.382638"
   id="path870"
   inkscape:connector-curvature="0"
   sodipodi:nodetypes="caaaaaaaaaac" /><path
   style="fill:none;stroke:#000000;stroke-width:0.10518396;stroke-linecap:butt;stroke-linejoin:miter;stroke-miterlimit:4;stroke-dasharray:none;stroke-opacity:1"
   d="m 21.283078,3.7393019 c 0,0 0.538945,-0.5657306 0.872169,-0.7596309 0.489642,-0.2849196 1.050314,-0.4413154 1.603665,-0.5626897 0.777512,-0.1705431 1.581444,-0.2138426 2.377363,-0.2250758 0.780017,-0.011008 1.565968,0.024782 2.335161,0.1547396 0.522708,0.088313 1.044219,0.217586 1.53333,0.4220173 0.390008,0.1630099 0.790233,0.344369 1.098462,0.6336342 0.122994,0.1154267 0.280128,0.4214087 0.280128,0.4214087 l -0.112538,2.1100861 c 0,0 -0.207829,-0.5660114 -0.717429,-0.8440344 C 29.93237,4.7509468 29.221186,4.5965256 28.527705,4.4567311 27.75198,4.3003572 26.955739,4.2325738 26.164409,4.2316554 c -0.861795,-0.001 -1.740065,0.022953 -2.574304,0.239143 -0.49591,0.1285134 -0.969464,0.3520399 -1.406724,0.6189586 -0.273157,0.1667437 -0.815413,0.7569149 -0.815413,0.7569149 l 0.0077,0.1844759 z"
   id="path874"
   inkscape:connector-curvature="0"
   sodipodi:nodetypes="cssssssccsssssccc" /><path
   style="fill:none;stroke:#000000;stroke-width:0.10518396;stroke-linecap:butt;stroke-linejoin:miter;stroke-miterlimit:4;stroke-dasharray:none;stroke-opacity:1"
   d="m 31.270818,5.9337914 c 0.02365,0.2285279 -0.101766,0.524343 -0.422018,0.7736982 -0.225324,0.1754426 -0.484907,0.3053565 -0.745563,0.4220171 -0.280166,0.1253927 -0.573991,0.2225647 -0.87217,0.295412 -0.539217,0.1317358 -1.093376,0.1996822 -1.645866,0.2532104 -0.345659,0.033489 -0.693711,0.039172 -1.040975,0.042202 -0.609721,0.00532 -1.22261,0.024056 -1.828743,-0.042202 C 24.378158,7.6412559 24.045067,7.5668011 23.71671,7.4811878 23.263289,7.3629664 22.791512,7.2698023 22.380322,7.0451032 22.061566,6.8709157 21.742473,6.6548644 21.536288,6.3558085 21.437616,6.2126873 21.367481,5.9900603 21.367481,5.9900603"
   id="path876"
   inkscape:connector-curvature="0"
   sodipodi:nodetypes="csaaaaaaasc" /></svg>