<?xml version="1.0" encoding="UTF-8" standalone="no"?>
<svg
   xmlns:dc="http://purl.org/dc/elements/1.1/"
   xmlns:cc="http://creativecommons.org/ns#"
   xmlns:rdf="http://www.w3.org/1999/02/22-rdf-syntax-ns#"
   xmlns:svg="http://www.w3.org/2000/svg"
   xmlns="http://www.w3.org/2000/svg"
   xmlns:sodipodi="http://sodipodi.sourceforge.net/DTD/sodipodi-0.dtd"
   xmlns:inkscape="http://www.inkscape.org/namespaces/inkscape"
   version="1.2"
   id="Layer_1"
   x="0px"
   y="0px"
   viewBox="0 0 50.3 50.3"
   xml:space="preserve"
   sodipodi:docname="icon.svg"
   inkscape:version="1.0.2 (e86c870879, 2021-01-15, custom)"><metadata
   id="metadata19"><rdf:RDF><cc:Work
       rdf:about=""><dc:format>image/svg+xml</dc:format><dc:type
         rdf:resource="http://purl.org/dc/dcmitype/StillImage" /></cc:Work></rdf:RDF></metadata><defs
   id="defs17" /><sodipodi:namedview
   pagecolor="#ffffff"
   bordercolor="#666666"
   borderopacity="1"
   objecttolerance="10"
   gridtolerance="10"
   guidetolerance="10"
   inkscape:pageopacity="0"
   inkscape:pageshadow="2"
   inkscape:window-width="1680"
   inkscape:window-height="987"
   id="namedview15"
   showgrid="false"
   inkscape:zoom="5.6568543"
   inkscape:cx="26.11727"
   inkscape:cy="27.598552"
   inkscape:window-x="1672"
   inkscape:window-y="-8"
   inkscape:window-maximized="1"
   inkscape:current-layer="Layer_1"
   inkscape:document-rotation="0" />






<g
   id="g975"
   transform="matrix(1.2690633,0,0,1.2690633,-6.660262,-6.6380359)"><path
     style="fill:none;stroke:#000000;stroke-width:0.1;stroke-linecap:butt;stroke-linejoin:miter;stroke-miterlimit:4;stroke-dasharray:none;stroke-opacity:1"
     d="m 8.312288,22.112817 h 32.876165 l -0.319704,2.291208 H 8.3655719 Z"
     id="path848" /><path
     style="fill:none;stroke:#000000;stroke-width:0.1;stroke-linecap:butt;stroke-linejoin:miter;stroke-miterlimit:4;stroke-dasharray:none;stroke-opacity:1"
     d="m 8.3655719,24.404025 0.2248765,0.651449 0.3548625,-0.0012 m 1.8827621,-0.0068 0.750045,-0.0024 m 1.804692,-0.0067 22.533072,-0.0785 m 1.780269,-0.0062 0.819572,-0.0029 m 1.782318,-0.0066 0.581944,-0.0017 -0.01124,-0.538417"
     id="path850"
     sodipodi:nodetypes="cccccccccccc" /><path
     style="fill:none;stroke:#000000;stroke-width:0.1;stroke-linecap:butt;stroke-linejoin:miter;stroke-miterlimit:4;stroke-dasharray:none;stroke-opacity:1"
     d="m 41.188453,22.112817 v 0.639408 l -0.308468,2.190217"
     id="path852"
     sodipodi:nodetypes="ccc" /><path
     style="fill:none;stroke:#000000;stroke-width:0.1;stroke-linecap:butt;stroke-linejoin:miter;stroke-miterlimit:4;stroke-dasharray:none;stroke-opacity:1"
     d="m 35.42618,24.39612 -0.160129,0.555742"
     id="path854" /><path
     style="fill:none;stroke:#000000;stroke-width:0.1;stroke-linecap:butt;stroke-linejoin:miter;stroke-miterlimit:4;stroke-dasharray:none;stroke-opacity:1"
     d="m 36.829663,24.414959 c -0.332889,-0.013 -0.907317,0.07195 -0.913677,0.405032 -0.0065,0.342563 0.580485,0.455118 0.923097,0.452128 0.303299,-0.0026 0.806666,-0.11116 0.810064,-0.414451 0.0035,-0.310454 -0.509247,-0.430597 -0.819484,-0.442709 z"
     id="path856"
     sodipodi:nodetypes="aaaaa" /><path
     style="fill:none;stroke:#000000;stroke-width:0.1;stroke-linecap:butt;stroke-linejoin:miter;stroke-miterlimit:4;stroke-dasharray:none;stroke-opacity:1"
     d="m 35.916005,24.82941 0.0094,1.930967 c -0.0065,0.342563 0.580485,0.455128 0.923097,0.452128 0.303299,-0.0026 0.806664,-0.11116 0.810064,-0.414451 v -1.959225"
     id="path858"
     sodipodi:nodetypes="cac" /><path
     style="fill:none;stroke:#000000;stroke-width:0.1;stroke-linecap:butt;stroke-linejoin:miter;stroke-miterlimit:4;stroke-dasharray:none;stroke-opacity:1"
     d="m 40.173534,25.54528 c -0.558826,0.07135 -0.963961,0.658105 -0.819484,1.083226 0.146888,0.432215 0.598051,0.519668 0.913677,0.442709 0.465486,-0.113499 0.792195,-0.571998 0.72529,-0.970193 -0.05469,-0.325488 -0.322144,-0.61924 -0.819483,-0.555742 z"
     id="path860"
     sodipodi:nodetypes="sssas" /><path
     style="fill:none;stroke:#000000;stroke-width:0.1;stroke-linecap:butt;stroke-linejoin:miter;stroke-miterlimit:4;stroke-dasharray:none;stroke-opacity:1"
     d="M 39.372888,26.694442 38.525147,25.309797"
     id="path862" /><path
     style="fill:none;stroke:#000000;stroke-width:0.1;stroke-linecap:butt;stroke-linejoin:miter;stroke-miterlimit:4;stroke-dasharray:none;stroke-opacity:1"
     d="M 40.898823,25.837281 40.079339,24.622185"
     id="path864"
     sodipodi:nodetypes="cc" /><path
     style="fill:none;stroke:#000000;stroke-width:0.1;stroke-linecap:butt;stroke-linejoin:miter;stroke-miterlimit:4;stroke-dasharray:none;stroke-opacity:1"
     d="m 39.207246,24.407146 c -0.857669,0.09527 -0.662568,0.94562 -0.662568,0.94562"
     id="path866"
     sodipodi:nodetypes="cc" /><path
     style="fill:none;stroke:#000000;stroke-width:0.1;stroke-linecap:butt;stroke-linejoin:miter;stroke-miterlimit:4;stroke-dasharray:none;stroke-opacity:1"
     d="M 40.078125,24.84375 V 24.421875"
     id="path868" /><path
     style="fill:none;stroke:#000000;stroke-width:0.1;stroke-linecap:butt;stroke-linejoin:miter;stroke-miterlimit:4;stroke-dasharray:none;stroke-opacity:1"
     d="M 39.605469,24.832031 V 24.410156"
     id="path870" /><path
     style="fill:none;stroke:#000000;stroke-width:0.1;stroke-linecap:butt;stroke-linejoin:miter;stroke-miterlimit:4;stroke-dasharray:none;stroke-opacity:1"
     d="m 39.589844,24.789058 c 0,0 0.09188,0.09604 0.257812,0.09766 0.150523,0.0015 0.246094,-0.09375 0.246094,-0.09375"
     id="path872"
     sodipodi:nodetypes="csc" /><g
     id="g903"
     transform="rotate(-28.158131,8.3022903,22.696929)"><path
       style="fill:none;stroke:#000000;stroke-width:0.1;stroke-linecap:butt;stroke-linejoin:miter;stroke-miterlimit:4;stroke-dasharray:none;stroke-opacity:1"
       d="m 10.845288,26.180584 c -0.332889,-0.013 -0.907317,0.07195 -0.913677,0.405032 -0.0065,0.342563 0.580485,0.455118 0.923097,0.452128 0.303299,-0.0026 0.806666,-0.11116 0.810064,-0.414451 0.0035,-0.310454 -0.509247,-0.430597 -0.819484,-0.442709 z"
       id="path874"
       sodipodi:nodetypes="aaaaa" /><path
       style="fill:none;stroke:#000000;stroke-width:0.1;stroke-linecap:butt;stroke-linejoin:miter;stroke-miterlimit:4;stroke-dasharray:none;stroke-opacity:1"
       d="m 9.93163,26.595035 0.0094,1.930967 c -0.0065,0.342563 0.580485,0.455128 0.923097,0.452128 0.303299,-0.0026 0.806664,-0.11116 0.810064,-0.414451 v -1.959225"
       id="path876"
       sodipodi:nodetypes="cac" /></g><path
     style="fill:none;stroke:#000000;stroke-width:0.1;stroke-linecap:butt;stroke-linejoin:miter;stroke-miterlimit:4;stroke-dasharray:none;stroke-opacity:1"
     d="m 9.182016,25.537468 c 0.558826,0.07135 0.963961,0.658104 0.819484,1.083226 -0.146888,0.432214 -0.598051,0.519667 -0.913677,0.442709 -0.465486,-0.113499 -0.792195,-0.571998 -0.72529,-0.970193 0.05469,-0.325488 0.322144,-0.61924 0.819483,-0.555742 z"
     id="path878"
     sodipodi:nodetypes="sssas" /><path
     style="fill:none;stroke:#000000;stroke-width:0.1;stroke-linecap:butt;stroke-linejoin:miter;stroke-miterlimit:4;stroke-dasharray:none;stroke-opacity:1"
     d="m 9.982662,26.686629 0.847741,-1.384645"
     id="path880" /><path
     style="fill:none;stroke:#000000;stroke-width:0.1;stroke-linecap:butt;stroke-linejoin:miter;stroke-miterlimit:4;stroke-dasharray:none;stroke-opacity:1"
     d="M 8.456727,25.829468 9.276211,24.614373"
     id="path882"
     sodipodi:nodetypes="cc" /><path
     style="fill:none;stroke:#000000;stroke-width:0.1;stroke-linecap:butt;stroke-linejoin:miter;stroke-miterlimit:4;stroke-dasharray:none;stroke-opacity:1"
     d="m 10.148304,24.399333 c 0.857669,0.09527 0.662568,0.945621 0.662568,0.945621"
     id="path884"
     sodipodi:nodetypes="cc" /><path
     style="fill:none;stroke:#000000;stroke-width:0.1;stroke-linecap:butt;stroke-linejoin:miter;stroke-miterlimit:4;stroke-dasharray:none;stroke-opacity:1"
     d="M 9.277425,24.835937 V 24.414062"
     id="path886" /><path
     style="fill:none;stroke:#000000;stroke-width:0.1;stroke-linecap:butt;stroke-linejoin:miter;stroke-miterlimit:4;stroke-dasharray:none;stroke-opacity:1"
     d="M 9.750081,24.824218 V 24.402343"
     id="path888" /><path
     style="fill:none;stroke:#000000;stroke-width:0.1;stroke-linecap:butt;stroke-linejoin:miter;stroke-miterlimit:4;stroke-dasharray:none;stroke-opacity:1"
     d="m 9.765706,24.781245 c 0,0 -0.09188,0.09604 -0.257812,0.09766 -0.150523,0.0015 -0.246094,-0.09375 -0.246094,-0.09375"
     id="path890"
     sodipodi:nodetypes="csc" /><path
     style="fill:none;stroke:#000000;stroke-width:0.1;stroke-linecap:butt;stroke-linejoin:miter;stroke-miterlimit:4;stroke-dasharray:none;stroke-opacity:1"
     d="m 13.738864,24.411757 0.392223,0.618718"
     id="path905" /><path
     style="fill:#ffffff;stroke-width:0.00110485;stroke-linecap:round;stroke-linejoin:round;stroke-miterlimit:4;stroke-dasharray:none;paint-order:stroke fill markers"
     d="m 37.713636,24.863938 c -0.02832,-0.178025 -0.0984,-0.269372 -0.277963,-0.36229 l -0.08453,-0.04374 h 0.742741 0.742742 l -0.05084,0.03368 c -0.113082,0.0749 -0.228289,0.229886 -0.272684,0.366832 l -0.01343,0.04143 h -0.390158 -0.390157 z"
     id="path909" /><path
     style="fill:#000000;fill-opacity:1;stroke:#000000;stroke-width:0.1;stroke-linecap:butt;stroke-linejoin:miter;stroke-miterlimit:4;stroke-dasharray:none;stroke-opacity:1"
     d="m 35.42618,24.39612 -0.160129,0.555742 0.649831,0.008 c 0,0 -0.05494,-0.267422 0.162149,-0.396257 0.286188,-0.169843 0.751632,-0.148658 0.751632,-0.148658 z"
     id="path919"
     sodipodi:nodetypes="cccscc" /><path
     style="fill:#000000;fill-opacity:1;stroke:#000000;stroke-width:0.1;stroke-linecap:butt;stroke-linejoin:miter;stroke-miterlimit:4;stroke-dasharray:none;stroke-opacity:1"
     d="m 36.789062,24.402344 2.418184,0.0048 c 0,0 -0.281979,0.02775 -0.454434,0.179183 -0.171494,0.150588 -0.209745,0.364445 -0.209745,0.364445 l -0.882072,0.0029 c 0,0 0.02595,-0.198875 -0.138124,-0.338073 -0.194236,-0.164791 -0.733809,-0.213255 -0.733809,-0.213255 z"
     id="path921"
     sodipodi:nodetypes="ccsccsc" /><path
     style="fill:#000000;fill-opacity:1;stroke:#000000;stroke-width:0.1;stroke-linecap:butt;stroke-linejoin:miter;stroke-miterlimit:4;stroke-dasharray:none;stroke-opacity:1"
     d="m 40.078125,24.421875 0.79062,-0.01782 0.01124,0.538417 -0.581944,0.0017 -0.218702,-0.321989 -0.0012,-0.20031"
     id="path923" /><path
     style="fill:#000000;fill-opacity:1;stroke:none;stroke-width:0.1;stroke-linecap:butt;stroke-linejoin:miter;stroke-miterlimit:4;stroke-dasharray:none;stroke-opacity:1"
     d="m 13.738864,24.411757 0.392223,0.618718 -0.748277,0.0079 c -0.05082,-0.08859 -0.169951,-0.452447 -0.373719,-0.631161 z"
     id="path925"
     sodipodi:nodetypes="ccccc" /><path
     style="fill:#010000;fill-opacity:1;stroke:none;stroke-width:0.1;stroke-linecap:butt;stroke-linejoin:miter;stroke-miterlimit:4;stroke-dasharray:none;stroke-opacity:1"
     d="m 12.616099,24.402422 -2.418184,0.0048 c 0,0 0.250728,0.03166 0.423183,0.183089 0.171494,0.150588 0.206975,0.457163 0.206975,0.457163 l 0.750045,-0.0024 c 0,0 0.176356,-0.223806 0.433077,-0.382522 0.234028,-0.144686 0.604903,-0.26013 0.604904,-0.26013 z"
     id="path927"
     sodipodi:nodetypes="ccsccsc" /><path
     style="fill:#010000;fill-opacity:1;stroke:none;stroke-width:0.1;stroke-linecap:butt;stroke-linejoin:miter;stroke-miterlimit:4;stroke-dasharray:none;stroke-opacity:1"
     d="m 9.277425,24.414062 -0.9118531,-0.01004 0.2248765,0.651449 0.3548625,-0.0012 0.3309001,-0.439901 0.00121,-0.200311"
     id="path929"
     sodipodi:nodetypes="cccccc" /><path
     style="fill:none;stroke:#000000;stroke-width:0.0826928;stroke-linecap:butt;stroke-linejoin:miter;stroke-miterlimit:4;stroke-dasharray:none;stroke-opacity:1"
     d="m 9.1838135,25.670955 c 0.4621086,0.059 0.7971259,0.544204 0.6776539,0.895749 -0.1214657,0.35741 -0.4945449,0.429727 -0.7555447,0.366088 -0.3849232,-0.09385 -0.6550879,-0.473 -0.5997623,-0.802279 0.045225,-0.269155 0.2663897,-0.512067 0.6776531,-0.459558 z"
     id="path938"
     sodipodi:nodetypes="sssas" /><path
     style="fill:none;stroke:#000000;stroke-width:0.0813614;stroke-linecap:butt;stroke-linejoin:miter;stroke-miterlimit:4;stroke-dasharray:none;stroke-opacity:1"
     d="m 40.171598,25.689035 c -0.454669,0.05805 -0.784292,0.535444 -0.666744,0.881328 0.11951,0.351657 0.486583,0.42281 0.743381,0.360195 0.378726,-0.09235 0.644541,-0.465386 0.590106,-0.789363 -0.0445,-0.264822 -0.262101,-0.503823 -0.666743,-0.45216 z"
     id="path940"
     sodipodi:nodetypes="sssas" /></g></svg>
