<svg xmlns="http://www.w3.org/2000/svg" width="253" height="63" viewBox="0 0 253 63">
  <g fill="#FFF">
    <path d="M5.29391583,15.0349936 L248.258129,15.0349936 L241.538049,60.1008387 L11.5237219,60.1008387 L5.29391583,15.0349936 Z M6.44166333,16.0349936 L12.3949937,59.1008387 L240.676109,59.1008387 L247.097955,16.0349936 L6.44166333,16.0349936 Z"/>
    <path d="M8.9087812,61.8366438 L244.100516,61.8366438 L251.500501,12.6614751 L1.57405196,12.6614751 L8.9087812,61.8366438 Z M252.662242,11.6614751 L244.961293,62.8366438 L8.0468739,62.8366438 L0.413834375,11.6614751 L252.662242,11.6614751 Z"/>
    <polygon points=".757 4.584 1.757 4.584 1.757 12.496 .757 12.496"/>
    <polygon points=".978 5.198 .978 4.198 252.537 4.198 252.537 12.126 251.537 12.126 251.537 5.198"/>
    <path d="M66.9357347,1.34006277 C66.6567115,1.34006277 66.1862583,2.51517635 65.8505896,4.8577834 L64.8607,4.71594357 C65.279073,1.79614966 65.862013,0.34006277 66.9357347,0.34006277 L186.958621,0.34006277 L187.157922,0.381501128 C188.161529,0.81769265 188.578485,2.28719261 188.578485,4.78686348 L187.578485,4.78686348 C187.578485,2.7842474 187.282619,1.6362032 186.835197,1.34006277 L66.9357347,1.34006277 Z"/>
  </g>
</svg>
