<svg xmlns="http://www.w3.org/2000/svg" width="51" height="67" viewBox="0 0 51 67">
  <g fill="none" fill-rule="evenodd">
    <g transform="translate(0 39)">
      <path d="M1 23.7L1.3 23.8 49.8 23.8 50.1 23.7C49.5 22.1 46.8 15.2 39.8 10.8L11.3 10.8C10.4 11.3 3.4 16 1 23.7zM25.8 1.2C25.7 1.2 14.9.6 7.6 10L43.5 10C42.5 8.6 37.2 1.6 25.8 1.2z"/>
      <path fill="#010202" fill-rule="nonzero" d="M11.5,10.2 C11.6,10.4 11.6,10.6 11.4,10.7 C11.4,10.7 11.4,10.7 11.3,10.8 L39.8,10.8 C39.8,10.8 39.7,10.8 39.7,10.7 C39.5,10.6 39.5,10.3 39.6,10.1 C39.7,9.9 40,9.9 40.2,10 C40.6,10.2 40.9,10.5 41.3,10.7 L44.2,10.7 L44.5,9.9 L44.4,9.7 C44.3,9.6 39,0.7 25.9,0.3 C25.8,0.3 14.4,-0.3 6.8,9.7 L6.6,10 L7,10.8 L9.8,10.8 C10.4,10.4 10.8,10.1 10.9,10.1 C11.1,9.9 11.4,10 11.5,10.2 Z M25.8,1.2 C37.3,1.6 42.6,8.6 43.5,10 L7.6,10 C14.9,0.6 25.6,1.2 25.8,1.2 Z"/>
      <path fill="#010202" fill-rule="nonzero" d="M51,24.2 L50.9,23.8 C50.9,23.7 48.6,16 41.2,10.8 C40.8,10.5 40.5,10.3 40.1,10.1 C39.9,10 39.7,10 39.5,10.2 C39.4,10.4 39.4,10.6 39.6,10.8 C39.6,10.8 39.7,10.8 39.7,10.9 C46.7,15.3 49.4,22.2 50,23.8 L49.7,23.9 L1.2,23.9 L1,23.7 C3.4,16 10.4,11.4 11.3,10.8 C11.4,10.8 11.4,10.7 11.4,10.7 C11.6,10.6 11.6,10.3 11.5,10.2 C11.4,10 11.1,9.9 11,10.1 C10.9,10.1 10.5,10.4 9.9,10.8 C7.6,12.5 2.2,17 0.2,23.8 L0,24.2 L1,24.6 L49.8,24.6 L51,24.2 Z"/>
    </g>
    <path stroke="#1D1D1A" stroke-linecap="round" stroke-linejoin="round" stroke-width=".5" d="M0.2,62.8 L0.2,30.6" transform="translate(25 -23)"/>
    <path stroke="#1D1D1A" stroke-linecap="round" stroke-linejoin="round" stroke-width=".7" d="M25.2,39.8 C25.2,38.7 24.7,38.8 28.3,35.4 C31.8,32 35.6,28 30.4,24.2 C25.2,20.4 17.2,17.8 19.3,12.5 C19.9,10.2 23,7.3 23,7.3"/>
    <path stroke="#1D1D1A" stroke-width=".7" d="M20.1,3.2 C20.1,5.6 22.4,7.6 25.1,7.6 C27.9,7.6 30.1,5.6 30.1,3.2 L20.1,3.2 Z"/>
  </g>
</svg>
