<svg height="960" viewBox="0 0 960 960" width="960" xmlns="http://www.w3.org/2000/svg"><g fill="#000" fill-rule="evenodd"><g fill-rule="nonzero"><path d="m357.141585 693.2253c4.084973 0 7.950471 1.240036 11.1761 3.413978l.227315.155722 3.042289-1.605523c1.973836 3.739827 3.423093 7.288321 4.296062 11.031397l.012649.059126.032082.084394c.043479.119153.085897.2389.127241.359233l.120797.362742c.161074.499431.319676 1.00804.476062 1.526549l.309891 1.050432.304435 1.078115.299435 1.10708.29489 1.137327.290798 1.168858c.048151.197509.09615.396384.144007.596654l.285515 1.218558.282561 1.253295c.046873.211849.093641.425198.140315.640075l.278983 1.307806.277167 1.345749.275806 1.384975c.045879.234169.091721.470026.137534.707598l.274616 1.446219.274391 1.488652.274622 1.532366.275308 1.577365.447712 2.654747.224249 1.461972.218641 1.473497.284076 1.992084.277178 2.035355.272039 2.091642.268656 2.160946.267029 2.243267.334178 2.939678.337814 3.114068.275176 2.633899.42509 4.219099.521712 5.381569c.025643.26907.051411.540048.077308.812968l.033764.398051.800028 14.58574.263675 5.16288.196956 4.136935.171498 3.923952.112113 2.819037.098117 2.72516.057703 1.770106.075097 2.593388.042486 1.692546c.344601 12.749797.39383 24.95326.146465 36.5463l-.040216 1.763072 27.098175 32.03259.323836.392012.342989.438398 8.277457 7.817061 26.339543 25.112939.147505.107828c.451548.33844.888706.69594 1.310271 1.071573l.421583.386602.581437.546303.615673.565767.25411.223759.226984.190611.206375.162162.192283.138415.184708.119368.183652.105022c.030883.016569.061993.032736.093467.0486l.194287.092316.209525.089722.357113.14.133718.050461c.201078.075519.41239.150146.634163.223814l.457561.146041c.078608.02412.158394.04813.239368.072026l.500163.14199c.085758.023432.172721.046744.260896.069936l.543675.137679.573189.13466.603106.131523.633429.128271.664156.124903.695287.121417c.118498.019939.23831.039728.359444.059365l.742743.115971.774885.112196.807433.108302c.137307.01772.275987.035273.416048.052656l.857011.102246c.145621.016696.29264.033217.441065.049562l1.374038.142265.958899.089348.993672.084815 1.028847.080167 1.064429.075402 1.100413.07052 1.136803.065523 1.042586.052893 1.612861-.083711 1.120416-.066848 1.614209-.109247 1.032427-.078654.997905-.083185.963769-.087605.93002-.091917c.152212-.015672.303034-.03152.452474-.04754l.880118-.098177 1.258824-.1548.798876-.108062.767053-.111825c.125212-.018945.249114-.038042.371715-.057288l.720044-.117262.689186-.12075.658713-.124127.628627-.127396.598925-.130554.56961-.133602.54068-.136542c.087724-.022995.174258-.046109.259612-.069338l.498007-.140744.470042-.143408.442461-.145963.411165-.146881.38354-.145516.221785-.089916.202352-.08975c.064944-.030414.127748-.061587.189511-.094307l.183265-.103587.183611-.11759c.061995-.042055.125145-.08723.190552-.136314l.204086-.159763.224213-.187933.250934-.220826.440926-.403245.751708-.705112.416843-.382198c.421743-.375855.859095-.73356 1.310853-1.072186l.145082-.106331 26.412488-25.180288 8.208512-7.753712.103473-.134513c.103045-.132465.208098-.264279.315172-.395414l.327297-.39134 27.027058-31.557733-.000107-.042798c-.286185-11.60753-.270246-23.844436.048158-36.699772l.052788-2.034928.15394-4.580311.206098-5.376516.242016-5.633572.320067-6.782394.376033-7.404432.490217-9.147747c.014581-.266505.034495-.532691.059731-.798399l.453975-4.714775.361007-3.638618.348962-3.401995.272821-2.568453.335993-3.040669.266926-2.312614.267183-2.220234.337036-2.665378.343659-2.567175.282021-2.000259.290242-1.966939.224142-1.461233.07123-.426554.659831-3.665046.410811-2.230343.486838-2.571881.372316-1.901028.360787-1.776485.265089-1.258708.261984-1.201867.346986-1.523863.260372-1.091268.17445-.706075.264049-1.031149.268187-1.002631.273773-.979775.186335-.643283.18989-.637322.193875-.633037.299224-.945195c.103634-.321153.215253-.63924.334695-.953986l.09737-.249293.128367-.50309c.201486-.763817.425093-1.528477.670394-2.30169l.252515-.77635c.240394-.721765.493018-1.434942.775732-2.198052l.430856-1.142455.641325-1.658313 37.29896 14.449484-.890349 2.319697-.255059.717256-.164051.501762-.089587.295048c-.28168 1.997673-.86202 3.930738-1.712652 5.736475l-.070451.143228-.247564.947909-.262185 1.065981-.337323 1.464866-.352298 1.63083-.295733 1.437744-.39092 1.980508-.595259 3.151152-.465745 2.548628-.355973 1.980382-.166178 1.088973-.259001 1.759273-.315835 2.261991-.248235 1.874428-.245985 1.944964-.245294 2.02741-.308022 2.668349-.186732 1.681455-.380853 3.567362-.395092 3.873465-.343918 3.490717-.321855 3.335613-.467126 8.744388-.412228 8.155564-.246077 5.228764-.214166 4.918723-.184944 4.683372-.115703 3.242547-.083069 2.540348c-.382852 14.129579-.382852 27.496628-.001948 39.992357l.006964.30465.002321.30472v4.297078c0 4.617663-1.597672 9.088086-4.51387 12.656222l-.296005.353778-29.365149 34.285489-.065384.113835c-.848003 1.41716-1.901579 2.772388-3.173374 4.033875l-.388098.375603-10.737774 10.140455-27.606386 26.319599c-.560302.534186-1.150791 1.03505-1.768381 1.5002l-.400603.291433-.615081.544324-.639899.549936c-.213747.181152-.427974.360151-.642778.537019l-.646241.524231-.650292.511575c-.326256.252645-.654251.500592-.984313.743916l-.662981.480504c-.110989.079064-.222232.157619-.333742.235669l-.672353.462253c-.112624.076038-.225539.151576-.338757.226617l-.683043.444295c-.114479.073062-.229286.145632-.344432.217712l-.695052.426632c-.233108.140267-.467672.2786-.70379.415018l-.713115.403537-.723026.392185c-1.092264.579828-2.219955 1.121784-3.391973 1.62785l-.788009.332081c-.529848.217872-1.068843.428742-1.617766.632783l-.830928.300962c-1.257854.443825-2.567946.853522-3.939178 1.231071l-.92331.246959c-1.08799.282612-2.214162.546044-3.382705.791227l-1.012081.20571c-.170442.033547-.341774.066728-.514006.099544l-1.04431.192547c-.351773.06274-.70725.124045-1.066527.183936l-1.089331.175454c-.183488.028543-.36795.056737-.5534.084587l-1.124635.162977-1.148904.154821c-.193539.025131-.388114.049928-.583737.074393l-1.186406.142834-1.212141.135004-1.238461.127306-1.265367.119737-1.292859.1123-1.320937.104993-1.349602.097817-1.378852.09077-2.124405.123229-1.454542.073726-.786408.036522-.449534.015171-.449762.005058h-.393942c-.304434 0-.608828-.006951-.912944-.020848l-.738292-.034755-1.45307-.07459-1.422215-.081473-1.391957-.088489-1.362295-.095639-1.333231-.10292-1.304764-.110334-1.276892-.117881c-.210526-.020284-.419916-.040887-.628181-.061813l-1.236205-.129451-1.209826-.13733-1.184043-.145342c-.195225-.024899-.389401-.050137-.58254-.075717l-1.146488-.157609-1.122199-.165953c-.370084-.056723-.736219-.114858-1.098504-.174429l-1.075408-.183039c-.177343-.031231-.353748-.062826-.529229-.094789l-1.041881-.196201-1.020276-.205143c-.168279-.034943-.335683-.070264-.502223-.105966l-.988988-.218803c-1.305108-.297891-2.556582-.62051-3.760787-.969273l-.894389-.266497c-1.033347-.316684-2.031721-.653656-2.999387-1.011865l-.822007-.312259c-.678905-.264587-1.342764-.540147-1.993132-.827026l-.774064-.349711c-.639823-.29599-1.266776-.603437-1.882412-.922688l-.733432-.388788c-.121367-.06575-.242306-.131977-.362829-.198685l-.718256-.406034c-.594559-.343202-1.179356-.698554-1.755945-1.066401l-.688067-.447435c-.228108-.151159-.455003-.304339-.680784-.459563l-.674098-.471823-.668008-.484217c-.110861-.081743-.221493-.164007-.331908-.246797l-.659994-.503055-.655396-.515781c-.108883-.087031-.217599-.174598-.326161-.262703l-.649619-.535117c-.107994-.090271-.21586-.181086-.323608-.272447l-.645185-.554753c-.10733-.093559-.214568-.187671-.321726-.282339l-.295242-.263021-.399631-.291525c-.463231-.348896-.911214-.717885-1.342647-1.105957l-.42587-.394396-27.536534-26.25425-10.806386-10.205559c-1.447122-1.366663-2.628669-2.850602-3.561472-4.409478l-.13446-.231835-26.922-31.824-.151081-.126241c-4.22243-3.599192-6.929317-8.923678-7.02996-14.882759l-.002907-.344489v-4.297078c0-.202651.00308-.405291.009239-.607848.362709-11.928684.379196-24.651249.046236-38.133967l-.112467-4.344093-.075574-2.479968-.121385-3.430872-.106745-2.681187-.163621-3.740737-.400693-8.135078-.793042-14.554683-.528943-5.472033-.334751-3.338673-.323212-3.113597-.376869-3.471626-.247002-2.172414-.184121-1.563139-.183875-1.511944-.245913-1.944883-.248179-1.874496-.251991-1.815895-.322702-2.205414-.190442-1.236886-.200941-1.197196-.23082-1.342174-.341739-1.927714-.224988-1.228704-.333494-1.759411-.219828-1.117767-.217952-1.074103-.216183-1.030844-.214521-.98799-.212967-.945541-.211521-.903498-.210181-.86186-.184865-.726198-.123426-.241739c-1.063223-2.117934-1.761313-4.450826-2.011673-6.916077l-.010901-.114184-.125216-.28502-.169835-.358152c-.031693-.064771-.065109-.1321-.10029-.202013l-.23261-.450708.537951-.284107-.002357-.3507v-.428634l1.480357-.000666 18.519-9.774.000643-9.7967z"/><path d="m498.230308 308.518139h-48.662016l-25.961562-.031701-17.349319-.048337-12.470041-.058084-9.949808-.067624-9.02352-.08435-5.229737-.061926-7.808311-.114954-5.475157-.099869-4.359372-.092711-5.036998-.123224-4.074575-.113121-5.583594-.175097-3.445772-.119604-3.614937-.137951-1.756864-.072513-4.24622-.19185-1.640653-.081051-3.183299-.169664-2.302529-.133989-2.230494-.139887-1.44732-.096585-2.111984-.149951-2.706934-.209566-1.307198-.108982-1.903542-.168811-1.835456-.17531-1.768066-.181916-1.141616-.125001-1.112181-.128015-1.082952-.131061-1.053931-.134139-1.025115-.137249-.996506-.140389-.663663-.097598-1.292431-.200312c-4.231085-.679384-7.695471-1.477597-10.497985-2.456006-3.870629-1.351307-6.904195-3.099727-8.954461-5.892762l-.078189-.110979-.089014-.103592c-.388223-.467175-.736639-.973206-1.0388-1.514175l-.147196-.273378-1.304294-2.514732c-.110036-.212154-.212431-.428184-.306988-.647675l-.343047-.790881-.34658-.788108-.519716-1.161651-.530943-1.162606-.544268-1.167739-.750046-1.572188-.386859-.795395-.596833-1.208198-.61855-1.230037-.642368-1.256055-.668281-1.286248-.934981-1.769184-.989755-1.840188-.781253-1.432693-.81696-1.482379-1.446647-2.592388-1.239454-2.19463-1.660149-2.91043-2.935282-5.088557-.85416-1.472537-4.830663-8.58026-1.534602-2.754961-.98938-1.789328-.963271-1.753467-.937882-1.719313-1.360797-2.518665-.877564-1.641394-.854698-1.613213-1.24075-2.370712-1.193356-2.316901-.770441-1.51755-.751179-1.497901-.732637-1.479957-.714815-1.46372-.697716-1.44919-.681335-1.436365-.665677-1.425247-.650739-1.415835-.63652-1.40813-.623024-1.402131c-.102753-.233283-.204973-.466388-.306676-.699349l-.60413-1.396332-.592435-1.394599-.581461-1.394572-.571207-1.396252-.561674-1.399637-.552861-1.40473c-6.340786-16.269206-10.000275-31.824665-10.709564-47.543774l-.042912-1.048193-.201749-12.500852-.024073-2.593711v-1.000321-3.686213c0-.263838 0-.526272 0-.78732l.01906-1.54981c.006507-.511157.014747-1.016917.024772-1.517423l.035479-1.485904c.013645-.490144.029126-.975179.046495-1.45525l.057821-1.425462c.021196-.470285.044331-.935751.069456-1.39654l.081401-1.368485c.801865-12.418504 3.14826-21.410009 8.111912-29.9765498l.330686-.562568c6.558031-10.8087237 16.783089-19.4353648 33.446873-27.9915786l1.487114-.754831c.751982-.3773779 1.516655-.7547395 2.294257-1.1322663l1.572513-.7553275c.264982-.1259425.531418-.2519168.799317-.3779296l1.625021-.7565924 1.660556-.7578387 1.696514-.7594072c1.143088-.506866 2.310431-1.0149927 3.502592-1.5248098l1.806925-.7660472 1.844576-.7689053 1.882648-.7720856 1.921145-.7755884c.646845-.2591491 1.300177-.5189357 1.960065-.7794135l1.999407-.783561c.673074-.2619141 1.352774-.5245731 2.039173-.7880308 29.528746-11.0883018 60.479952-19.5891098 91.282916-25.1913039 11.617564-2.0880636 23.323269-3.8285533 34.995663-5.2169125 19.598631-2.3413295 38.634067-3.6003835 56.529725-3.7597705l4.014035-.0251923 1.832537.0123406c18.444948.0836869 38.13939 1.3476739 58.433769 3.7720153 11.676361 1.3888325 23.381312 3.1292768 35.020256 5.2212051 30.782579 5.5985084 61.733785 14.0993164 91.330472 25.2134127l2.035211.7865057c.33589.1307079.67013.2612322 1.002728.3915794l1.975959.7800129c.326066.1296659.650509.2591683.973337.3885136l1.91765.7742426c.949204.3862332 1.884028.7711743 2.804707 1.1550041l1.82257.766231 1.785273.7635885c.883382.381187 1.752935.7615035 2.608895 1.1411301l1.693865.7583867c1.117255.5050492 2.210624 1.0090859 3.280668 1.5125383l1.587641.7547938c19.105161 9.1792953 30.534695 18.2352727 37.691418 29.7704413l.349055.571156c3.311477 5.5977492 5.49328 11.3542012 6.846219 18.1035752l.217867 1.134232c.490689 2.668662.858552 5.494497 1.121282 8.526568l.106214 1.312229.093649 1.33834c.043735.675842.082875 1.361797.117593 2.058348l.063594 1.407375.052112 1.43649c.015492.483778.029122.972551.040941 1.466464l.030079 1.497296c.004125.252166.007811.505653.011063.760478l.017807 1.545153v.78489 4.144859l-.037978 4.40845-.182144 11.091115-.00526.194841c-.590932 16.077712-4.271278 31.963966-10.753762 48.596023l-.552931 1.404845-.561744 1.399752-.571279 1.396365-.581534 1.394686-.59251 1.394713-.604206 1.396446c-.101716.23298-.20395.466103-.306715.699405l-.623103 1.402245-.636602 1.408244-.650821 1.415949-.665761 1.425361c-.112245.238439-.225143.477342-.338709.716743l-.689522 1.442678-.706265 1.456357-.723728 1.47174c-.122116.246667-.24499.494046-.368637.742173l-.751273 1.498016-.770538 1.517667-.790523 1.539024-.81123 1.562087-.832656 1.586856-.854804 1.613333-.877673 1.641515-.901262 1.671403-1.397699 2.56688-.963389 1.753592-.9895 1.789453-1.016333 1.82702-5.407772 9.610242-2.303494 3.977289-2.433696 4.243146-1.277705 2.251989-1.201763 2.138802-1.402995 2.529428-1.049095 1.92036-.501826.929192-.726086 1.358538-.69597 1.319953-.667955 1.285548-.642039 1.255325-.618225 1.229281-.790883 1.605755-.570824 1.184771-.55401 1.172662-.716155 1.551941-.349824.773782-.350684.786467c-.232326.524666-.461871 1.050331-.689505 1.578728l-.14769.326589-.159299.321086-1.304293 2.514732c-.334324.644591-.733069 1.242516-1.185996 1.787553l-.086461.100592-.08075.113989c-1.977052 2.693291-4.868429 4.415238-8.543016 5.74643l-.411503.146332c-2.522277.880564-5.580677 1.615172-9.251617 2.248558l-1.246438.207441c-.423112.067938-.853891.134688-1.292441.200311l-1.158362.168187-1.010793.138815-1.570089.202372-1.082961.131062-1.11219.128015-1.141625.125-1.76808.181916-1.216115.117601-1.880784.170965-1.291897.110399-1.995424.16031-1.368969.103394-2.112.14995-2.926368.190503-2.278457.135944-2.350957.130117-2.424155.124398-3.347272.157152-3.480292.147425-3.614962.137951-5.03116.171675-3.998262.123026-4.074599.113121-5.037026.123224-4.359396.092711-5.475185.099869-5.795446.088091-7.242659.088789-9.023554.08435-9.949841.067624-12.470076.058083-14.008105.041234-21.404585.032717zm-227.46014-60.849482 1.985002 3.423912 1.530077 2.657416 1.439931 2.518906 2.00297 3.543024.935926 1.675794 1.185156 2.145693.844834 1.548836 1.072171 1.993474 1.015214 1.921811.963789 1.86129.917896 1.811909.661633 1.333229.641262 1.316419.623227 1.304311.607524 1.296901.397445.862806.392195.862995.387636.864577.479188 1.085066.329756.756974.204.393.083822.030388c.225838.078844.469447.157787.730614.236694l.545681.157726c.189655.052532.38705.105008.592122.157388l.638183.15681c.110181.026073.222265.052112.336245.078113l.706563.15549.751674.154311c.129018.025606.259899.051154.392636.076637l.81863.152088c.140129.025207.282098.050339.4259.075391l.884731.149325.928324.14718.971538.144797.88799.125001 1.387096.182925.961648.118919 1.498148.173868 1.565324.168497 1.632906.163174 1.700897.157897 1.769296.152668 1.217731.098898 1.8842.144058 1.953686.138956 2.02358.1339 3.529062.212062 1.466727.080978 3.805631.192953 2.379169.109333 4.126241.171641 3.446945.127918 4.033162.136155 3.997486.122866 3.2548.091094 5.017618.125119 5.232254.111903 5.505544.099375 5.837486.087532 7.308189.088071 7.932972.073977 8.650894.060975 12.327375.061046 17.17628.051251 23.756843.032897 21.177278.00905 31.676976-.006236 24.381401-.02885 17.633067-.046988 12.652234-.056985 11.267513-.07616 7.933002-.073978 7.30822-.08807 5.837514-.087532 5.505572-.099375 5.232282-.111903 3.365326-.081902 4.907141-.134311 5.581391-.174894 4.189081-.14705 4.207181-.166401 3.220428-.142591 2.331186-.11254 2.259525-.11739 2.90193-.164148 2.093899-.128892 2.023598-.133901 1.953702-.138956 1.884217-.144058 1.217741-.098898 1.187161-.1012 1.723667-.156149 1.655539-.16141 1.587821-.166717 1.021126-.114117.991331-.116512.961657-.118919 1.38711-.182925.887999-.125001.971549-.144797.928336-.147181.884742-.149325.840769-.151228c.136443-.02535.271038-.050769.403777-.076252l.774098-.153631c.125283-.02572.248694-.051494.370226-.077318l.706572-.155491.66108-.156431c.319104-.07841.621006-.157083.905492-.235882l.545689-.157726c.174114-.052605.340425-.105226.498868-.157823l.315143-.109251.203-.391.617926-1.410422.579817-1.297602.586736-1.286814.592381-1.273473.606747-1.278999.623337-1.289007.425872-.86711.655929-1.315639.90999-1.789108.71194-1.37383.739651-1.406234.769587-1.443118 1.076528-1.989276 1.138974-2.073429.898384-1.616685 1.587996-2.825106 1.357951-2.389599 2.195205-3.825141 2.400959-4.145885 4.725863-8.395459 1.441833-2.587916 1.384467-2.506505.892193-1.628297 1.293743-2.38217 1.242241-2.314377 1.19294-2.251693.768988-1.468826.748706-1.444749.729074-1.422185.710095-1.401135 1.03098-2.065542.665497-1.355129.648797-1.339374.63275-1.325134.617355-1.312405.60261-1.301191.588518-1.291489.575077-1.283301c.094763-.213285.188992-.426292.282703-.639053l.556138-1.273856c.091687-.2119.182882-.423616.273599-.635181l.538665-1.267815.527831-1.26568.517648-1.265057.508118-1.265949c.167857-.422299.334233-.844999.499239-1.268352 5.585115-14.329686 8.750323-27.764936 9.362489-41.114238l.035933-.887465.18911-11.706455.027051-3.406847v-2.467238-.717854-1.406894l-.015328-1.369266-.02066-1.332584-.029599-1.296851c-.005689-.213216-.01176-.424983-.018215-.63532l-.043393-1.245025-.052846-1.211659c-.009607-.199215-.019617-.39708-.030033-.593613l-.067413-1.163385c-.024121-.382576-.049903-.759985-.077381-1.132386l-.087555-1.102335c-.015452-.181271-.031336-.361329-.047657-.540194l-.103203-1.059033c-.018085-.174173-.036616-.347191-.055597-.519076l-.119313-1.017863c-.166371-1.339431-.36207-2.608827-.589293-3.81829l-.176362-.896018c-.030391-.147516-.061282-.294135-.092679-.439877l-.194481-.864081c-.902768-3.842416-2.180255-7.074079-3.916905-10.083357l-.167248-.285499-.174723-.284873c-2.701635-4.338454-6.586544-8.3799022-12.161089-12.3959627l-.848918-.6022527c-.861716-.6021301-1.762019-1.2039946-2.702617-1.8065101l-.954093-.6027665-.981337-.6034042-1.00896-.6042457-1.036963-.6052909c-.175182-.1009802-.351546-.2020125-.529101-.303101l-1.07968-.6072406-1.108631-.6087951c-.187206-.1016067-.375634-.2032866-.565292-.3050441l-1.152772-.6115087c-.19461-.1020844-.390466-.2042548-.587576-.3065155l-1.197768-.6146807-1.228239-.61705-1.25909-.6196231-1.290321-.6223997-1.321932-.6253803-1.353923-.6285643-1.386293-.6319523-1.419043-.6355439-1.452173-.6393391-1.485682-.6433382-1.519572-.6475409c-.256108-.108285-.513643-.2167537-.772614-.3254101l-1.571118-.654227-1.605957-.658939-1.641175-.6638547-1.676774-.6689741-1.712753-.6742973-1.74911-.6798241-.906532-.349044c-28.399217-10.6641538-58.194946-18.8476079-87.790073-24.230173-11.225133-2.0175309-22.538077-3.6996864-33.829162-5.0426941-18.882889-2.2557252-37.184839-3.4663362-54.32176-3.6192724l-3.822806-.0245018-1.768634.0121468c-17.666737.080152-36.600799 1.295338-56.162281 3.6322282-11.287205 1.3425448-22.600905 3.0247482-33.80462 5.0384076-29.615512 5.3862508-59.411241 13.5697049-87.742431 24.2080312l-1.807462.6981185-1.769252.6921991-1.73145.6864972-1.694054.6810131-1.657065.6757466-1.620482.6706978-1.584307.6658668-1.548537.6612533-1.513175.6568576-1.47822.6526795-1.443671.6487191c-.237755.1078019-.474088.2154479-.709006.3229424l-1.392611.6431867c-.229296.1069071-.457195.2136718-.683705.3202987l-1.342465.6381441-1.309543.6350543c-.215536.1055971-.429718.2110744-.642553.3164366l-1.260923.6308281c-1.452387.7344388-2.839634 1.4636807-4.164649 2.189281l-1.120554.6210877c-.184242.103378-.36723.2066909-.548974.309943l-1.075594.6188204c-1.237594.7211918-2.415031 1.4398532-3.535218 2.1575397l-.946208.6149574-.918574.6146975c-.452446.3073201-.894682.6146244-1.326936.9220353l-.851268.6150003c-5.307934 3.8963619-9.038871 7.8229303-11.657787 12.0285483l-.160169.259871-.179004.305653c-.522855.90568-1.00411 1.831501-1.446067 2.788162l-.324136.723447c-1.372968 3.161441-2.336931 6.676897-2.970933 10.913697l-.140487.990695c-.0449.334611-.087884.673658-.128988 1.017308l-.117705 1.044924c-.01869.176511-.036918.354215-.054689.533132l-.101186 1.08823-.090443 1.118353-.079915 1.149481-.069605 1.181612c-.010753.199669-.021086.400718-.031002.603168l-.054542 1.231688c-.00827.20814-.016133.417724-.023593.628771l-.039965 1.284022-.030517 1.320166-.021285 1.357311-.01509 1.395461v.71235 3.894299l.035109 4.084562.131033 8.198088.04801 2.77142.036493.887374c.597529 13.030217 3.627652 26.142401 8.966545 40.088593l.394769 1.021953.499174 1.268244.508052 1.265841.517582 1.26495.527763 1.265573.538595 1.267708.55008 1.271357c.092673.212281.185852.424777.27955.63752l.568528 1.279667.581641 1.287099.595406 1.296043.609822 1.306501.62489 1.318472.64061 1.331957c.108114.2232.216911.447026.326403.671507l.665411 1.35502.68276 1.372287.70076 1.391066.719411 1.41136.738715 1.433167 1.145692 2.193946.789824 1.494302 1.225409 2.292744.845006 1.564895 1.311237 2.405726 1.365665 2.480324 1.422292 2.56003z"/><path d="m642.619 310.965.105374-.409024c.081207-.303764.169572-.605593.265024-.905232.792124-2.486602 1.770874-4.773054 2.929271-6.849684l.137331-.24206.030715-.088118c.050066-.155684.076217-.281617.10333-.466791l.040283-.300517.028104-.232467.050652-.507988c.007809-.08952.015294-.181491.022449-.275949l.038893-.596882.030553-.658289c.004375-.114928.008387-.232486.012025-.35271l.012996-.586289-.050141-.125987c-2.561007-6.514046-1.859896-14.306774 3.257523-20.229074l.216618-.244939.633337-1.42941.611727-1.353622.413861-.900627.63164-1.351878.429367-.903988.436821-.907868.670767-1.372242.927107-1.856746.723019-1.419213.74943-1.447487.515484-.983113 1.072255-2.016235.84313-1.561633 1.180674-2.157414.931007-1.680822 1.306594-2.334069 1.386405-2.450942 2.241755-3.920889 2.453472-4.249013.395148-.682789 4.68047-8.324795 1.109897-1.994661 1.084487-1.964659 1.059242-1.935385 1.034165-1.906838 1.009251-1.879021.984503-1.851929c.162031-.306438.323038-.611777.483023-.916033l.947693-1.812658.923358-1.787387.899191-1.762843.875187-1.739027c.143873-.287893.286754-.574825.428644-.86081l.839493-1.704668c.137945-.282258.274908-.563599.41089-.844039l.804172-1.671946.78083-1.651041c.384608-.820416.760525-1.633265 1.127844-2.438957l.723202-1.601963c.118632-.265444.236316-.530123.353055-.794052l.689121-1.574699.666608-1.557433c1.310813-3.098085 2.487538-6.096939 3.536132-9.022762l.513647-1.456947c3.856523-11.125127 5.84483-21.241261 6.300506-31.824154l.021389-.542293.185229-11.507063.026945-3.720738-.001389-2.128123.001375-.656095-.002558-1.282742-.009735-1.244249c-.002228-.204219-.00476-.406872-.007598-.60798l-.020733-1.188248-.028218-1.152072-.035827-1.116822-.043559-1.082498c-.007911-.177607-.016149-.353823-.024717-.528667l-.055387-1.032749c-.009898-.169432-.02013-.33753-.0307-.504314l-.067492-.985084-.075716-.954466-.084063-.924773-.092533-.896008-.101126-.868167-.109843-.841254c-.03808-.276035-.077634-.547739-.118681-.815266l-.127644-.790206-.13673-.766071c-.047104-.251437-.095743-.499006-.145938-.742862l-.155269-.72058-.164724-.699225c-.508478-2.066565-1.146255-3.857331-1.928284-5.48484l-.26604-.536611-.276848-.525444c-.047049-.086695-.094553-.172964-.142515-.258824l-.231682-.404959-.108321-.1763c-.959344-1.537715-2.153255-3.057397-3.627542-4.578094l-.501876-.506963-.523022-.507195c-.355813-.338242-.725975-.676744-1.110988-1.015714l-.588721-.508831-.611375-.509691c-.622827-.510173-1.2802-1.02187-1.973816-1.535796l-.70576-.514696c-.239322-.17183-.482734-.343934-.730299-.516338l-.755214-.518139-.780507-.520095-.806178-.522208c-.273046-.17444-.550433-.349257-.832224-.524479l-.858648-.5269057-.885449-.5294894-.912627-.5322299-.940183-.5351272-.968114-.5381814-.996423-.5413922-1.02511-.5447599c-.173263-.0910827-.347737-.1823122-.52343-.2736918l-1.068845-.5501054-1.098475-.5538649-1.12848-.5577814-1.158863-.5618545-1.189622-.5660845-1.220759-.5704712-1.252274-.5750148-1.284164-.579715-1.316431-.5845721-1.349077-.589586-1.382099-.5947567-1.415497-.600084-1.449274-.6055683-1.483426-.6112092c-.250105-.102347-.501649-.2049356-.754639-.307769l-1.535363-.6199646-1.570458-.6259977c-.264689-.1048444-.530855-.2099466-.798508-.3153101l-1.623808-.635341-1.657111-.6406331-1.783712-.6658498c-26.62741-9.8849374-54.481951-17.5484527-82.163062-22.7077431l-1.976908-.364258c-11.038296-1.9867289-22.155448-3.6423006-33.244907-4.9623078-18.520642-2.215648-36.455856-3.4038828-53.214427-3.5545871l-4.020051-.0222922-1.442706.0100777c-17.278516.0793538-35.831714 1.2719774-55.02592 3.5682011-11.07937 1.3188029-22.197133 2.9744337-33.19246 4.9535362-28.371287 5.1670338-56.919865 12.9589705-84.181551 23.0793659l-1.784296.6658571-1.656341.6405719-1.623777.6353456-1.588117.6290775-1.552833.6229659-1.517928.6170113-1.483398.6112134-1.449247.6055722-1.415471.6000879-1.382074.5947604-1.349052.5895895-1.316409.5845756-1.284141.5797184-1.252251.5750179-1.220739.5704742-1.189602.5660874-1.158844.5618573-1.128462.557784-1.098456.5538674-1.068829.5501077c-.17569.09138-.350161.1826099-.523422.2736929l-1.025093.544762c-.336896.1810173-.669012.3614733-.996409.5413942l-.968099.5381832-.940169.5351289-.912614.5322315-.885437.5294908-.858636.526907-.832213.52448-.806167.522209c-.132211.086855-.263353.173621-.393433.260302l-.767804.519098-.742701.51722c-.365137.258166-.721001.515687-1.067805.77265l-.68159.51321c-1.227664.939617-2.335416 1.87253-3.333709 2.803088l-.533731.507369c-1.830505 1.775157-3.269002 3.544607-4.38823 5.338599l-.089767.144299-.104971.180579c-.195524.340261-.383678.686731-.564627 1.040646l-.26604.53661c-.912367 1.898758-1.628393 4.019727-2.171825 6.541627l-.150591.731608-.14132.754352c-.068364.383018-.133297.774912-.19487 1.176204l-.118684.81527-.109846.841257c-.017578.142427-.034793.285975-.051647.430664l-.096818.881976-.088286.91028-.079879.939509c-.012619.159072-.024893.319401-.036824.481005l-.067497.985092-.059397 1.016636-.051419 1.049109-.043565 1.082507-.035833 1.116832-.028226 1.152083-.02074 1.18826-.013378 1.225363-.00614 1.263393.000405 3.842562.034782 4.02927.10023 6.406987.075006 4.379319.02195.542224c.592118 13.751782 3.772287 26.715405 10.276997 42.129641l.650554 1.524171c.110222.255384.221343.511455.333368.768227l.683011 1.549165.704843 1.566684c.477208 1.050447.969074 2.11303 1.475807 3.188661l.771275 1.623349c.130412.272227.261761.545298.394048.819228l.805016 1.653992c.136056.27742.273057.555727.411006.834935l.839108 1.686177.86203 1.70849c.145591.286645.292143.574249.43966.862826l.896705 1.743243.920018 1.767268.943485 1.791978.967109 1.817373.990887 1.843453 1.014823 1.870218 1.038912 1.897667 1.06316 1.925801 4.064921 7.258391 1.745307 3.097838 2.78021 4.809915 2.208128 3.860454 1.696861 3.001262 1.577934 2.827993.894081 1.622557.857366 1.572546.82294 1.527171 1.047655 1.973661.99594 1.912229.716279 1.40047.692527 1.376735.449619.906927.440757.899812.646002 1.339385.629874 1.331105.412086.885095.413829.900656.611674 1.353679.614238 1.387348.200817.222738c5.224025 5.964198 5.915642 13.859003 3.288246 20.43009l-.051063.123172.002348.145402c.004817.244987.011041.479121.018606.702694l.026652.63933.034297.577716c.00633.091249.012963.180004.019889.266301l.04501.48858c.008066.076612.016409.150839.02502.222718l.080128.569677c.009968.057064.021331.107585.039839.167616l.035211.104966.314433.567755c.939813 1.732879 1.771304 3.595176 2.488618 5.631971l.234868.685457c.081478.244494.158222.490539.230189.737999l.789023 2.738925 1.047823 3.710545.852499 3.065934 1.126636 4.110834.948989 3.511108.940987 3.522577 1.056268 4.001343.710803 2.720679 1.075603 4.159822.723017 2.825244.727523 2.866459.731815 2.907328 1.105293 4.436857 1.11373 4.52685 1.121436 4.615668.751546 3.125874.75443 3.164478c10.205609 42.989178 19.367902 88.836973 26.552149 135.933137 9.38436 61.271857 14.631755 117.475999 15.0314 171.126264l.010922 1.946892.50355.970799c1.897292 3.626175 3.98992 7.242586 6.164133 10.527951l.55601.829602c.184575.271901.368325.539112.551064.801464l.54499.77231c.180526.252465.359851.499901.537789.742138l.52946.71095.520005.678743.50942.645521c.083959.104762.16743.208097.250389.309984l.49143.593781c.08082.096011.161081.190532.24076.283541l.470903.539751c1.004346 1.129429 1.902404 1.99627 2.642564 2.553973l.167979.123192-23.211897 32.576184c-6.680928-4.760441-12.522259-11.570289-18.157803-20.085928-3.003081-4.537833-5.760677-9.303418-8.249024-14.05924l-.634343-1.223907-.599574-1.179264-.564181-1.131563-.653026-1.339628-.678626-1.435512-.129728-.283192c-1.178702-2.596616-1.788506-5.415269-1.788506-8.266891 0-41.447309-3.079335-84.678852-8.895652-130.926537l-.600912-4.7136c-.40688-3.149395-.826287-6.312846-1.258114-9.490736l-.657042-4.777713c-.888442-6.38485-1.82635-12.828225-2.812873-19.333196l-.372223-2.442257c-6.851235-44.91309-15.556603-88.716032-25.251735-129.870866l-1.046171-4.414527-1.100121-4.585455-.729483-3.008803-.726087-2.969855-1.082288-4.380977-1.073429-4.291348-.710337-2.810511-1.057043-4.139301-.698737-2.708039-.693719-2.666428-1.030697-3.920845-1.01819-3.825225-.989973-3.67239-.710707-2.606282-.682937-2.479248-1.557204-5.552044-.634064-2.207576-.146818-.239732c-.322932-.544971-.619789-1.104978-.889569-1.678126l-.260716-.577457-.178951-.417351-.344721-.826753c-.33599-.822016-.645901-1.630949-.930739-2.436935l-.276518-.805381c-1.609414-4.830897-2.328334-9.677415-2.37453-16.729424l-.001508-1.196131c.001549-.405768.005137-.818719.010726-1.239227l.022736-1.284575.009608-.435908-.614563-1.388577-.338321-.748681-.344087-.750773-.708012-1.512844-.550863-1.149463-.377885-.775727-.38714-.784725-.80458-1.601469-.632444-1.234064-.886009-1.697426-.939515-1.766072-.998094-1.844766-1.061748-1.933506-1.130474-2.032291-.896009-1.595091-1.262953-2.229343-1.001194-1.754417-2.529001-4.39398-1.296715-2.240645-4.453831-7.917684-.925687-1.658353-2.049981-3.701665-1.468114-2.681208-.94709-1.745521-1.375001-2.559763-.887319-1.670069-.8647-1.642973-.842819-1.617643-.821675-1.594074-.801269-1.57227-.781599-1.552229-.762667-1.533952-.744472-1.517437c-.122603-.251628-.244479-.502642-.365643-.753077l-.718562-1.495973-.70221-1.483868-.686596-1.473525c-.113172-.244824-.225724-.48929-.337672-.733436l-.664556-1.461319c-.109592-.24301-.218609-.485773-.327068-.728325l-.644175-1.45308-.63151-1.449793c-.104237-.241456-.207978-.482849-.311236-.724214l-.613894-1.448167-.603071-1.449288-.592987-1.452172-.583638-1.456819c-.19307-.486577-.384705-.974222-.575028-1.46323-6.862016-17.631001-10.789996-34.610387-11.425003-51.911439l-.010538-.39185-.197817-12.429745-.023806-2.85989v-3.684596c0-1.113001.005836-2.204775.019384-3.276406l.025811-1.592476c.010452-.52588.022773-1.04686.037017-1.563076l.04856-1.534489c.580736-16.218321 3.18912-27.696801 9.669009-38.879524l.420777-.7148556c8.098414-13.3670916 20.508265-23.4864444 40.684775-33.3828409l1.675904-.8129626c2.540302-1.2188774 5.200095-2.4356255 7.985854-3.6559127l1.875906-.8141112 1.913655-.8155331c.644224-.2721228 1.29481-.5445448 1.951831-.8173282l1.990433-.8194964c.334979-.1367841.671584-.2736742 1.009825-.4106779l2.049136-.8234486 2.088804-.8265499 2.128898-.8300245 1.21579-.4682042c30.094973-11.3167552 61.625268-19.9886777 93.033788-25.7088153 11.824186-2.1283391 23.728223-3.9010599 35.579348-5.311723 19.979444-2.3901663 39.404796-3.6757151 57.701843-3.8369469l4.044914-.0242144 1.865506.011585c18.837512.0865179 38.913842 1.3770356 59.570128 3.8481768 11.861158 1.411861 23.764418 3.1845 35.631637 5.3204666 30.685592 5.5886865 61.526913 14.0092021 91.027632 24.9671832l2.100713.7859943 1.079638.4164284 2.128939.8300179c.35147.1380364.701269.275928 1.049407.4136827l2.068955.8249465c1.707631.6861892 3.374161 1.3693426 5.000702 2.0504322l1.932726.8163789c.956836.4077564 1.899436.8149097 2.828039 1.2216699l1.838615.8130585 1.801718.8123834c1.486176.6768086 2.93436 1.3533028 4.345664 2.0304546l1.675933.8129598c2.487558 1.2200999 4.857061 2.4435897 7.114985 3.6761379l1.488822.8231029c14.969753 8.3831217 24.879822 17.2402319 31.746299 28.3362135l.335251.5475168.114189.1908651c5.191239 8.7876065 7.970471 17.7152165 9.234352 28.9439265l.141755 1.331771.128097 1.353787c.020229.227509.039903.455968.059028.685393l.108218 1.388274c.169568 2.333549.285607 4.766971.354877 7.316559l.036004 1.543823c.010166.519342.018516 1.04346.025103 1.572485l.018029 1.601929v.81225 4.127453l-.038252 4.47805-.183394 11.191203c-.002235.129744-.005733.259463-.010492.389139-.63506 17.302517-4.563503 34.283283-11.426342 51.915636l-.286519.732586-.579313 1.459921c-.09728.242811-.194934.485391-.292978.727777l-.59306 1.452289-.603147 1.449404c-.101406.241425-.203263.482803-.305586.724171l-.61966 1.448385-.631589 1.449908-.644256 1.453197-.657661 1.458248-.671803 1.465064-.686682 1.473642-.702298 1.483984c-.118392.24829-.237466.497085-.357236.746421l-.727106 1.502804-.744565 1.517555-.762762 1.534069c-.128685.257153-.258158.515067-.388436.773779l-.79144 1.562148-.81148 1.583071-.832259 1.605758-.853773 1.630208-.876025 1.656423-.899015 1.684399-1.39324 2.582916-.959715 1.762058-.985284 1.796209-1.527484 2.762202-5.508219 9.816271-.452162.801282-1.612383 2.785178-1.455872 2.527799-1.695318 2.965571-1.262816 2.229353-1.470041 2.624287-1.358754 2.462146-1.013532 1.866153-.720617 1.345795-.912184 1.730686-.436672.840865-.632517 1.234229-.804698 1.601704-.577304 1.173818-.373573.771823-.544998 1.144788-.354015.756393-.518634 1.127527-.505668 1.12282-.445553 1.007706.011035.480223.020161 1.311262c.011413 1.073784.009285 2.10099-.006909 3.087299l-.026217 1.164302-.039921 1.127222-.053827 1.092322c-.334661 5.915794-1.309448 10.346981-3.075276 14.92655l-.316545.801828-.419405 1.026864c-.351817.858985-.76275 1.691807-1.229574 2.492562l-.234522.387566-3.128145 11.589891-2.051938 7.711814-1.944285 7.401952-1.531752 5.932247-.23866.936521c-1.546776 6.083535-3.085048 12.28059-4.611264 18.590192l-1.142346 4.753289c-.949979 3.978635-1.894903 8.001138-2.833904 12.067273l-1.123904 4.900289-1.117885 4.942085c-2.601121 11.580221-5.150376 23.501025-7.628745 35.757202-5.046974 24.958598-9.563259 50.189129-13.418189 75.459712-8.725828 58.033475-13.775668 114.17746-14.233386 166.236776l-.018088 2.43728.000365 2.964093c0 .339569-.008648.679055-.025931 1.018129l-.0324.50826-.022062.288229c-.083083 1.085436-.254647 2.162277-.512984 3.219791l-.204315.80214-.292079 1.079005-.247873.878009-.344063 1.173393c-.299002.999102-.628807 2.050374-.990142 3.14621-1.658938 5.031137-3.668512 10.079155-6.095244 14.926531-4.512942 9.014559-9.93566 16.407143-17.075653 21.663368l-.538732.390203-23.211898-32.576184c.207273-.147691.499651-.418157.853674-.808917l.276709-.315586c.143767-.169031.295378-.354891.453596-.55745l.324878-.427342c1.032349-1.393797 2.102872-3.184318 3.149328-5.274605 1.471517-2.939342 2.783187-6.234236 3.875193-9.546011.109912-.333337.214981-.658962.315155-.975977l.343969-1.121812.00124-.695323c.331461-54.82072 5.567212-113.670405 14.701772-174.42195 3.961725-25.970988 8.590593-51.830474 13.760714-77.398059 4.348959-21.506731 8.910889-42.003441 13.589825-61.471793l1.172116-4.845654c.782962-3.216138 1.568951-6.403669 2.357525-9.562507l1.184742-4.716726.854935-3.367219 1.102416-4.282894.869671-3.341006 3.224927-12.197567 3.072051-11.389692.711912-2.557811.019541-.054813z"/><path d="m348.32457 674.12417c.138134.089203.277228.176151.418307.261318l.43022.250633c.073037.041039.146828.081752.2215.122198l.459626.239935c.39354.198062.815514.392399 1.281947.590418l.582085.239865c.100912.04043.20386.081125.30897.122146l.657643.2505.715707.261145.944102.333181c.198676.072805.403508.145442.614447.217898l.651089.216815c.111551.036042.224618.072035.339193.107978l.7055.215052.741407.213784.777022.212445c.132455.035291.266382.070524.401774.105696l.829892.210296c.141231.034925.283914.069786.428045.104582l.882102.207983.916542.206349.950688.204643.984542.202862 1.0181.201009 1.051366.199082 1.084338.197081 1.117017.195008 1.736155.288464 1.197429.189504 1.22908.187173 1.902324.27623 1.306923.181027 2.158948.286013c.243729.031355.488732.06257.734999.093643l1.492713.184746 1.522651.181361 1.552172.177978 1.581277.174597 1.609965.171219 2.467828.250497 1.679863.16278 2.570724.23785 2.630587.230272 2.689045.222699 2.746097.215135 1.861733.139224 2.838061.202543 2.891366.194997 2.943264.187458 2.993757.179927 2.023196.11577 3.07479.167389 4.17219.2115 4.251961.19816 3.239316.139876 3.280907.13239 3.321093.124909 4.488206.154922 3.409394.107483 2.292738.067512 4.631145.125091 4.68926.11186 3.553078.075223 4.782943.088746 3.619515.057906 1.140566.015854 7.588365-.002854 12.476192-.14903 6.07311-.086852 6.228594-.106012 6.303568-.133203 4.105942-.10597 4.460885-.136926 3.760291-.135947 2.58826-.105512 2.537177-.113231 1.266834-.060185 2.286272-.114672 2.489051-.133408 2.527015-.14402 2.5812-.155256 2.273207-.143137 2.840427-.190544 1.86742-.133089 1.8463-.137957 1.82504-.142843 1.803642-.147747 1.782104-.152668 1.760427-.157608 1.738612-.162564 1.716657-.167539 1.694564-.172531 1.67233-.177541 1.649959-.182568 2.432687-.283319 1.593422-.195216 1.570563-.200306 1.547566-.205413 1.524429-.210538 1.501154-.215682 1.47774-.220842 1.454186-.22602 1.430493-.231217 1.406663-.236431c.23245-.03984.463901-.079899.694351-.120176l1.370654-.244284c.226431-.041152.451855-.082523.676269-.124113l1.334334-.252179 1.309946-.257464 1.285419-.262766c.212185-.044237.423343-.088696.633469-.133377l1.248369-.270753c.205993-.04557.410949-.091364.614866-.13738l1.211006-.27878 1.185923-.284154c.195556-.047807.390061-.09584.583512-.144097l1.148038-.292247 1.122608-.297664 1.097039-.3031c.180702-.050971.360332-.102169.538888-.153594l1.058424-.311287 1.032508-.316766 1.006452-.322264.980257-.32778c.967113-.330542 1.894726-.669385 2.782212-1.016606l.440396-.174309 7.434763 18.566752c-2.676819 1.07189-5.590211 2.065851-8.736222 2.986543l-1.270801.364381c-.213865.060082-.428761.119842-.644688.17928l-1.307914.352782-1.332587.345132c-.224151.056889-.449327.113461-.675528.169719l-1.369489.333782-1.394021.326299-1.418495.318881-1.442915.311529c-.242518.051313-.48605.102322-.730597.153029l-1.479437.300627-1.503716.293442c-.252639.048312-.506288.096327-.760945.144047l-1.540027.282788c-.517369.093088-1.03876.185007-1.564165.275767l-1.588247.268815-1.612271.261927c-.812133.129252-1.633254.255947-2.463332.380122l-1.672088.244999-1.695916.238343-1.719689.231755-1.743404.225232-1.767063.218776-1.790667.212386-1.814213.206062-1.837705.199804-1.861139.193613-1.884516.187488c-.316032.030742-.633035.061231-.951008.091468l-1.919479.178425-1.942716.172466-1.965898.166573-1.989022.160747-2.012092.154986-3.061268.221823-3.112856.209236-3.672204.228751-2.559962.150384-2.512206.139601-3.518105.181009-3.068853.143276-3.082644.129924-2.601008.09891-4.26804.142329-5.035884.139708-5.381328.121873-5.827832.107962-10.979773.159679-10.959608.128472-7.640746-.000383-3.738285-.057161-4.940561-.088257-3.670772-.075252-3.639542-.083043-4.801765-.122879-4.740537-.136818-3.513258-.111792-4.625535-.161337-3.423259-.13024-3.382393-.138184-2.231546-.096545-2.212364-.100093-3.281687-.156801-3.236232-.164817-2.131557-.114342-2.110334-.117921-3.124819-.183605-3.074776-.191694-3.023356-.199804-2.970559-.207936-1.950362-.143152-1.925877-.146783-2.842014-.226996-2.784629-.235201-2.725867-.243427-2.665728-.251676-2.604213-.259946-1.701288-.177903-1.672927-.181595-1.644159-.185293-1.614984-.188998-1.585401-.192709-1.555409-.196428-1.52501-.200151-1.55508-.211926-1.580799-.224093c-.260421-.037708-.519321-.075596-.776698-.113668l-1.525998-.230649-1.489474-.235157c-.245203-.039574-.488884-.079341-.731043-.119303l-1.434702-.242125-1.398198-.246907-1.361699-.251799c-.223909-.042381-.446298-.084969-.667166-.127769l-1.306968-.259343-1.27049-.264511c-.208709-.044521-.415898-.089263-.621568-.134226l-1.215786-.272466-1.179328-.277908c-2.709233-.654883-5.120779-1.355098-7.235072-2.10692l-.380648-.137234-.472172-.165c-3.735583-1.318796-6.404321-2.507289-9.168561-4.243899l-.415498-.264687z"/></g><path d="m366.09701 829.524792c-8.415558 41.333333 27.530706 62 107.838791 62 80.308086 0 114.533252-20.666667 102.675499-62-32.443355 6.577329-66.619541 9.865993-102.528558 9.865993-35.909016 0-71.90426-3.288664-107.985732-9.865993z"/><path d="m366.539574 718.660173.947485.156016 1.920886.307372 1.955434.301158 1.989975.294939 2.024508.288719c.340295.047602.682029.094944 1.025202.142026l2.076294.279385c.348925.046045.699289.091831 1.05109.137358l2.128064.270044 2.162566.263815 2.197063.257582c.369051.042411.739539.084562 1.111465.126454l2.248792.248229c.755344.081704 1.516434.162368 2.28327.241992l2.317739.235751 2.352202.229508 2.386656.223263c.400647.03669.802729.07312 1.206246.109289l2.438325.21389 2.472761.207639c.414996.034086.831426.067911 1.249291.101475l2.524401.198257 2.558818.192001 2.593229.18574 2.62763.179478 2.662026.173214c.446537.028347.894506.056433 1.343908.084257l2.713604.163813 2.747981.157542 2.782349.151269 2.816711.144994 2.851064.138716 2.885411.132436 2.919749.126154 2.954082.119869 2.988405.113581 3.022721.107292 3.057031.100999 3.091332.094705 3.125626.088408 3.159913.082109 3.194192.075808 3.228463.069503 3.262728.063196 3.296984.056888 3.331234.050577 3.365475.044262 3.399709.037947 5.163737.045072 5.240722.030848 5.317682.016615c.595128.001055 1.191681.001846 1.789659.002374l1.798205.000791v20l-3.6481-.003235-5.408003-.016985-3.562581-.019416-3.528386-.025892-5.22848-.050988-3.442931-.042095-3.408762-.04858-3.374602-.055068-3.340447-.061557-3.306301-.06805-3.272163-.074545-3.238031-.081041-3.203907-.087542-3.16979-.094043-3.135682-.100547-3.10158-.107054-3.067486-.113563-3.0334-.120075c-.502727-.020555-1.004033-.041382-1.50392-.06248l-2.982284-.129846-4.409551-.206991-2.897128-.146145-2.86308-.152668-2.829037-.159194-2.795004-.165722-2.760977-.172253-2.726957-.178786-2.692946-.185322-2.658941-.19186-2.624945-.198399c-.434658-.033612-.8679-.067496-1.299726-.101654l-2.573964-.208214-2.539985-.214761-2.506015-.22131-2.472052-.227861-2.438096-.234414-2.404147-.24097-2.370207-.247528-2.336274-.254089-2.302348-.260652-2.26843-.267218c-.375246-.045083-.749078-.09044-1.121498-.136071l-2.217566-.27707c-.366769-.046726-.732126-.093726-1.096071-.141l-2.166719-.286928c-.358296-.048369-.71518-.097012-1.070651-.145929l-2.11589-.296792-2.082013-.303371-2.048143-.309951-2.014281-.316535-1.980426-.323121z" fill-rule="nonzero"/><path d="m366.738008 753.695219.945219.175096 1.91638.34497c.644558.113828 1.294879.226496 1.950962.338001l1.985535.33103c.667607.109181 1.340974.217199 2.020101.324055l2.054657.317078c.690645.10453 1.387047.207896 2.089206.310098l2.123747.303115c.356836.049937.715111.099582 1.074824.148937l2.175543.292634 2.210062.285644c.37122.047024.743879.093757 1.117974.140199l2.261828.275151c.759694.090551 1.525137.179936 2.296328.268154l2.33082.261152c.391344.042941.784124.085591 1.178342.127949l2.382541.250645 2.417014.243636 2.451476.236624c.411451.038853.824337.077413 1.238659.115681l2.503156.226101 2.537598.219082 2.572033.212059 2.606459.205035 2.640878.198006 2.675288.190974 2.709689.183941 2.744084.176903 2.778468.169863 2.812847.16282 2.847215.155774 2.881577.148725 2.915929.141672 2.950275.134618 2.984611.127559 3.018939.120498 3.053259.113434 3.087572.106366c.517454.017139 1.036338.033983 1.55665.050533l4.721397.140987 3.190459.085147 3.224739.078069 3.259009.070985 3.293273.063901 3.327528.056813 3.361775.049722 3.396013.042627 3.430244.03553 3.464466.028431 3.49868.021327 5.312154.018666 3.584179.003556v20l-3.651785-.003644-3.617572-.010933c-.600078-.00243-1.198731-.005163-1.795959-.008201l-3.566268-.021873-5.285293-.046492-3.480802-.04012-3.44663-.047425-3.412465-.054733-3.37831-.062043-3.344162-.069356-3.310022-.076673-3.275892-.083992-3.241767-.091314-3.207653-.09864-3.173546-.105968-3.139448-.113299-3.105356-.120634-3.071275-.127971-3.0372-.135311-3.003134-.142655-2.969076-.150001-2.935027-.15735-2.900985-.164703-2.866951-.172058-2.832926-.179416-2.79891-.186778-2.7649-.194142-2.730899-.201509c-.452317-.034199-.903218-.068705-1.352702-.103519l-2.679914-.212565-2.645934-.219941-2.611961-.227318-2.577997-.234699-2.544041-.242083-2.510094-.24947-2.476154-.256859-2.442223-.264253-2.4083-.271648-2.374384-.279046-2.340478-.286449c-.387254-.048358-.773096-.097025-1.157526-.146001l-2.289633-.297556-2.255746-.304966-2.221868-.312378-2.187998-.319794c-.361844-.053917-.722278-.108143-1.0813-.162678l-2.137208-.330922c-1.413521-.223088-2.804476-.451125-4.172875-.684115l-2.035684-.353199-2.001858-.36063-.988247-.183104z" fill-rule="nonzero"/><path d="m366.539574 790.660173.947485.156016 1.920886.307372 1.955434.301158 1.989975.294939 2.024508.288719c.340295.047602.682029.094944 1.025202.142026l2.076294.279385c.348925.046045.699289.091831 1.05109.137358l2.128064.270044 2.162566.263815 2.197063.257582c.369051.042411.739539.084562 1.111465.126454l2.248792.248229c.755344.081704 1.516434.162368 2.28327.241992l2.317739.235751 2.352202.229508 2.386656.223263c.400647.03669.802729.07312 1.206246.109289l2.438325.21389 2.472761.207639c.414996.034086.831426.067911 1.249291.101475l2.524401.198257 2.558818.192001 2.593229.18574 2.62763.179478 2.662026.173214c.446537.028347.894506.056433 1.343908.084257l2.713604.163813 2.747981.157542 2.782349.151269 2.816711.144994 2.851064.138716 2.885411.132436 2.919749.126154 2.954082.119869 2.988405.113581 3.022721.107292 3.057031.100999 3.091332.094705 3.125626.088408 3.159913.082109 3.194192.075808 3.228463.069503 3.262728.063196 3.296984.056888 3.331234.050577 3.365475.044262 3.399709.037947 5.163737.045072 5.240722.030848 5.317682.016615c.595128.001055 1.191681.001846 1.789659.002374l1.798205.000791v20l-3.6481-.003235-5.408003-.016985-3.562581-.019416-3.528386-.025892-5.22848-.050988-3.442931-.042095-3.408762-.04858-3.374602-.055068-3.340447-.061557-3.306301-.06805-3.272163-.074545-3.238031-.081041-3.203907-.087542-3.16979-.094043-3.135682-.100547-3.10158-.107054-3.067486-.113563-3.0334-.120075c-.502727-.020555-1.004033-.041382-1.50392-.06248l-2.982284-.129846-4.409551-.206991-2.897128-.146145-2.86308-.152668-2.829037-.159194-2.795004-.165722-2.760977-.172253-2.726957-.178786-2.692946-.185322-2.658941-.19186-2.624945-.198399c-.434658-.033612-.8679-.067496-1.299726-.101654l-2.573964-.208214-2.539985-.214761-2.506015-.22131-2.472052-.227861-2.438096-.234414-2.404147-.24097-2.370207-.247528-2.336274-.254089-2.302348-.260652-2.26843-.267218c-.375246-.045083-.749078-.09044-1.121498-.136071l-2.217566-.27707c-.366769-.046726-.732126-.093726-1.096071-.141l-2.166719-.286928c-.358296-.048369-.71518-.097012-1.070651-.145929l-2.11589-.296792-2.082013-.303371-2.048143-.309951-2.014281-.316535-1.980426-.323121z" fill-rule="nonzero"/></g></svg>