<?xml version="1.0" encoding="utf-8"?>
<!-- Generator: Adobe Illustrator 22.1.0, SVG Export Plug-In . SVG Version: 6.00 Build 0)  -->
<svg version="1.1" id="Layer_1" xmlns="http://www.w3.org/2000/svg" xmlns:xlink="http://www.w3.org/1999/xlink" x="0px" y="0px"
	 viewBox="0 0 887 496" style="enable-background:new 0 0 887 496;" xml:space="preserve">
<style type="text/css">
	.st0{fill:none;stroke:#000000;stroke-width:10;stroke-miterlimit:10;}
</style>
<path d="M0,314c0-60,92-164,431-174s453,120,454,154V180c0,0,1-180-439-180S0,184,0,184V314z"/>
<path d="M652,317c0-38-91-75-221-75c-91.7,0-197,33.6-197,75c0,48,85,86,198,86C555,403,652,384,652,317z"/>
<path class="st0" d="M5,268v55c0,0-1,168,434,168s443-176,443-176l-2-64.7"/>
</svg>
