<?xml version="1.0" encoding="UTF-8" standalone="no"?>
<svg
   xmlns:dc="http://purl.org/dc/elements/1.1/"
   xmlns:cc="http://creativecommons.org/ns#"
   xmlns:rdf="http://www.w3.org/1999/02/22-rdf-syntax-ns#"
   xmlns:svg="http://www.w3.org/2000/svg"
   xmlns="http://www.w3.org/2000/svg"
   xmlns:sodipodi="http://sodipodi.sourceforge.net/DTD/sodipodi-0.dtd"
   xmlns:inkscape="http://www.inkscape.org/namespaces/inkscape"
   inkscape:version="1.0 (4035a4fb49, 2020-05-01)"
   sodipodi:docname="icon.svg"
   xml:space="preserve"
   viewBox="0 0 50.5 50.5"
   y="0px"
   x="0px"
   id="Layer_1"
   version="1.2"><sodipodi:namedview
   inkscape:current-layer="Layer_1"
   inkscape:window-maximized="1"
   inkscape:window-y="-8"
   inkscape:window-x="1672"
   inkscape:cy="26.92258"
   inkscape:cx="60.611443"
   inkscape:zoom="8.1188119"
   showgrid="false"
   id="namedview8"
   inkscape:window-height="987"
   inkscape:window-width="1680"
   inkscape:pageshadow="2"
   inkscape:pageopacity="0"
   guidetolerance="10"
   gridtolerance="10"
   objecttolerance="10"
   borderopacity="1"
   bordercolor="#666666"
   pagecolor="#ffffff" /><metadata
   id="metadata15"><rdf:RDF><cc:Work
       rdf:about=""><dc:format>image/svg+xml</dc:format><dc:type
         rdf:resource="http://purl.org/dc/dcmitype/StillImage" /><dc:title /></cc:Work></rdf:RDF></metadata><defs
   id="defs13" />




<g
   id="layer3" /><g
   id="layer1" /><path
   sodipodi:nodetypes="cccccsssc"
   id="path863"
   d="m 9.8924359,12.328055 5.3690051,25.526319 11.020588,-0.94193 13.092835,0.659351 4.803847,-26.656635 C 44.335049,9.6471214 40.155611,7.9562066 35.160428,6.0097439 32.252628,4.8766672 26.845906,3.0516852 25.71285,3.1374045 24.377805,3.2384054 21.66576,4.5618935 17.774372,6.6029619 13.665206,8.7582555 10.110191,11.29951 9.8924359,12.328055 Z"
   style="fill:none;stroke:#000000;stroke-width:0.0497129;stroke-linecap:butt;stroke-linejoin:miter;stroke-miterlimit:4;stroke-dasharray:none;stroke-opacity:1" /><path
   sodipodi:nodetypes="ccc"
   id="path865"
   d="m 25.528484,3.2384255 0.859512,33.6740185 v 0"
   style="fill:none;stroke:#000000;stroke-width:0.0497129px;stroke-linecap:butt;stroke-linejoin:miter;stroke-opacity:1" /><path
   id="path867"
   d="m 25.905255,4.1803558 18.320552,6.7819012 -3.061274,1.88386 -14.55283,-4.8980388 z"
   style="fill:none;stroke:#000000;stroke-width:0.0497129px;stroke-linecap:butt;stroke-linejoin:miter;stroke-opacity:1" /><path
   id="path869"
   d="M 25.151712,4.6513213 24.963326,8.0893671 12.671132,14.117724 10.222111,12.846117 Z"
   style="fill:none;stroke:#000000;stroke-width:0.0497129px;stroke-linecap:butt;stroke-linejoin:miter;stroke-opacity:1" /><path
   id="path871"
   d="M 41.400015,26.739593 26.093641,24.33767 15.355633,26.92798 12.671132,14.117724"
   style="fill:none;stroke:#000000;stroke-width:0.0497129px;stroke-linecap:butt;stroke-linejoin:miter;stroke-opacity:1" /><path
   id="path873"
   d="M 41.164533,12.846117 38.715512,26.315725"
   style="fill:none;stroke:#000000;stroke-width:0.0497129px;stroke-linecap:butt;stroke-linejoin:miter;stroke-opacity:1" /><path
   id="path875"
   d="m 26.093641,24.33767 0.989028,0.894834 11.444456,1.836764 -1.507088,8.241893 -9.890271,-0.706447 -0.09419,-9.325113"
   style="fill:none;stroke:#000000;stroke-width:0.0497129px;stroke-linecap:butt;stroke-linejoin:miter;stroke-opacity:1" /><path
   sodipodi:nodetypes="cccc"
   id="path877"
   d="M 27.129766,34.604714 26.364447,36.17656 39.56325,36.771154 37.020037,35.311161"
   style="fill:none;stroke:#000000;stroke-width:0.0497129px;stroke-linecap:butt;stroke-linejoin:miter;stroke-opacity:1" /><path
   id="path879"
   d="m 41.400015,26.739593 -2.87289,0.329675"
   style="fill:none;stroke:#000000;stroke-width:0.0497129px;stroke-linecap:butt;stroke-linejoin:miter;stroke-opacity:1" /><path
   id="path881"
   d="m 26.093641,24.33767 -0.753543,0.989027 -9.890271,2.213537 1.836764,7.86512 8.383184,-0.847737 -0.235484,-9.23092"
   style="fill:none;stroke:#000000;stroke-width:0.0497129px;stroke-linecap:butt;stroke-linejoin:miter;stroke-opacity:1" /><path
   sodipodi:nodetypes="ccc"
   id="path883"
   d="M 26.364447,36.17656 25.669775,34.557617 Z"
   style="fill:none;stroke:#000000;stroke-width:0.0497129px;stroke-linecap:butt;stroke-linejoin:miter;stroke-opacity:1" /><path
   sodipodi:nodetypes="ccc"
   id="path885"
   d="m 15.167247,36.865347 11.1972,-0.688787 v 0"
   style="fill:none;stroke:#000000;stroke-width:0.0497129px;stroke-linecap:butt;stroke-linejoin:miter;stroke-opacity:1" /><path
   id="path887"
   d="m 17.286591,35.405354 -2.119344,1.459993"
   style="fill:none;stroke:#000000;stroke-width:0.0497129px;stroke-linecap:butt;stroke-linejoin:miter;stroke-opacity:1" /><path
   id="path889"
   d="M 15.449827,27.540234 13.095,27.398944"
   style="fill:none;stroke:#000000;stroke-width:0.0497129px;stroke-linecap:butt;stroke-linejoin:miter;stroke-opacity:1" /><path
   id="path891"
   d="M 15.355633,26.92798 13.095,27.398944"
   style="fill:none;stroke:#000000;stroke-width:0.0497129px;stroke-linecap:butt;stroke-linejoin:miter;stroke-opacity:1" /><path
   id="path893"
   d="M 26.611703,7.9480782 27.082669,24.384766"
   style="fill:none;stroke:#000000;stroke-width:0.0497129px;stroke-linecap:butt;stroke-linejoin:miter;stroke-opacity:1" /><path
   id="path895"
   d="M 24.963326,8.0893671 25.293002,24.47896"
   style="fill:none;stroke:#000000;stroke-width:0.0497129px;stroke-linecap:butt;stroke-linejoin:miter;stroke-opacity:1" /><path
   id="path897"
   d="m 39.374864,37.571795 -3.53224,0.659352 -9.560595,-1.318703 -7.865121,1.365799 -2.025151,-0.423869"
   style="fill:none;stroke:#000000;stroke-width:0.0497129px;stroke-linecap:butt;stroke-linejoin:miter;stroke-opacity:1" /><path
   sodipodi:nodetypes="cssc"
   id="path899"
   d="m 14.297635,33.433015 c 0,0 -4.7627691,2.076963 -4.169716,7.576827 0.298611,2.769257 2.576853,6.185328 6.263838,5.887066 4.976203,-0.402557 5.83997,-5.227715 5.83997,-5.227715"
   style="fill:none;stroke:#000000;stroke-width:0.0497129px;stroke-linecap:butt;stroke-linejoin:miter;stroke-opacity:1" /><path
   id="path901"
   d="m 16.391757,37.854374 -0.188386,6.216743 2.260634,0.235481 2.590308,-2.496115 4.662557,-0.423869 0.753544,1.036123 h 1.318703 l 1.130317,-2.119343 0.423869,-1.412896 -4.568363,0.09419 0.14129,0.565158 0.80064,1.742572"
   style="fill:none;stroke:#000000;stroke-width:0.0497129px;stroke-linecap:butt;stroke-linejoin:miter;stroke-opacity:1" /><path
   id="path903"
   d="M 24.91623,39.549849 20.865927,39.173076 18.416908,38.278243"
   style="fill:none;stroke:#000000;stroke-width:0.0497129px;stroke-linecap:butt;stroke-linejoin:miter;stroke-opacity:1" /><path
   id="path905"
   d="m 24.91623,39.549849 -4.568363,0.376774 -3.95611,-2.072249"
   style="fill:none;stroke:#000000;stroke-width:0.0497129px;stroke-linecap:butt;stroke-linejoin:miter;stroke-opacity:1" /><path
   id="path907"
   d="m 35.842624,38.231147 -4.144494,0.565159 -2.354827,0.09419 -4.568363,0.09419 -2.684503,-0.28258 -3.673529,-0.423869"
   style="fill:none;stroke:#000000;stroke-width:0.0497129px;stroke-linecap:butt;stroke-linejoin:miter;stroke-opacity:1" /><path
   id="path909"
   d="m 22.137534,38.749209 0.188385,0.565157"
   style="fill:none;stroke:#000000;stroke-width:0.0497129px;stroke-linecap:butt;stroke-linejoin:miter;stroke-opacity:1" /><path
   sodipodi:nodetypes="cc"
   id="path911"
   d="M 19.965624,35.128489 18.228522,26.880883"
   style="fill:none;stroke:#000000;stroke-width:0.0497129px;stroke-linecap:butt;stroke-linejoin:miter;stroke-opacity:1" /><path
   sodipodi:nodetypes="cc"
   id="path913"
   d="m 18.347937,27.540234 -2.463795,-0.07468"
   style="fill:none;stroke:#000000;stroke-width:0.0497129px;stroke-linecap:butt;stroke-linejoin:miter;stroke-opacity:1" /><path
   sodipodi:nodetypes="cc"
   id="path915"
   d="M 18.4778,28.01928 15.549735,27.873257"
   style="fill:none;stroke:#000000;stroke-width:0.0497129px;stroke-linecap:butt;stroke-linejoin:miter;stroke-opacity:1" /><path
   id="path917"
   d="m 38.527125,27.069268 -2.919983,0.235483"
   style="fill:none;stroke:#000000;stroke-width:0.0497129px;stroke-linecap:butt;stroke-linejoin:miter;stroke-opacity:1" /><path
   id="path919"
   d="m 38.527125,27.069268 -2.919983,0.235483"
   style="fill:none;stroke:#000000;stroke-width:0.0497129px;stroke-linecap:butt;stroke-linejoin:miter;stroke-opacity:1" /><path
   sodipodi:nodetypes="cccc"
   id="path921"
   d="m 38.527125,27.069268 v 0 l -0.09419,0.518064 -2.972796,0.296372"
   style="fill:none;stroke:#000000;stroke-width:0.0497129px;stroke-linecap:butt;stroke-linejoin:miter;stroke-opacity:1" /><path
   id="path923"
   d="m 35.701335,26.598304 -1.695476,8.336085"
   style="fill:none;stroke:#000000;stroke-width:0.0497129px;stroke-linecap:butt;stroke-linejoin:miter;stroke-opacity:1" /><path
   sodipodi:nodetypes="cc"
   id="path925"
   d="M 38.338741,13.0816 35.842624,25.703469"
   style="fill:none;stroke:#000000;stroke-width:0.0497129px;stroke-linecap:butt;stroke-linejoin:miter;stroke-opacity:1" /><path
   id="path927"
   d="m 24.963326,9.502264 -9.748982,4.568363 2.825792,12.103808"
   style="fill:none;stroke:#000000;stroke-width:0.0497129px;stroke-linecap:butt;stroke-linejoin:miter;stroke-opacity:1" /><path
   id="path929"
   d="M 15.449827,14.918363 12.671132,14.117724"
   style="fill:none;stroke:#000000;stroke-width:0.0497129px;stroke-linecap:butt;stroke-linejoin:miter;stroke-opacity:1" /><path
   sodipodi:nodetypes="cc"
   id="path931"
   d="m 41.164533,12.846117 -3.002405,1.200962"
   style="fill:none;stroke:#000000;stroke-width:0.0497129px;stroke-linecap:butt;stroke-linejoin:miter;stroke-opacity:1" /><path
   id="path933"
   d="M 26.6588,9.125491 38.338741,13.0816"
   style="fill:none;stroke:#000000;stroke-width:0.0497129px;stroke-linecap:butt;stroke-linejoin:miter;stroke-opacity:1" /><path
   id="path935"
   d="m 14.759386,46.703017 c -1.477457,-0.358007 -2.925745,-1.572322 -3.722045,-3.120743 -0.650461,-1.264837 -0.857127,-2.104711 -0.856003,-3.478719 5.13e-4,-0.621674 0.05223,-1.340331 0.11495,-1.597014 0.319712,-1.308593 1.049918,-2.604963 1.98699,-3.527598 0.661584,-0.651393 1.865697,-1.483894 1.971456,-1.363028 0.0397,0.04538 0.251316,0.951444 0.470235,2.013471 0.21892,1.062026 0.420794,2.009912 0.448609,2.106413 0.04389,0.15227 0.125237,0.170055 0.615584,0.134587 l 0.565009,-0.04086 -0.05565,1.184116 c -0.03061,0.651263 -0.0824,2.061556 -0.115092,3.133982 l -0.05944,1.949868 0.223264,0.04692 c 0.122797,0.0258 0.519974,0.07259 0.882617,0.103969 0.362643,0.03138 0.790709,0.07945 0.951258,0.106827 0.270366,0.04609 0.388521,-0.04357 1.601282,-1.215215 l 1.309376,-1.264985 0.538,-0.05435 0.538,-0.05435 -0.27275,0.747356 c -0.606609,1.662146 -1.74008,2.986595 -3.125439,3.652041 -1.286142,0.617789 -2.826431,0.824173 -4.010208,0.537328 z"
   style="fill:#000000;stroke:#000000;stroke-width:0.19388;stroke-linejoin:round;stroke-miterlimit:4;stroke-dasharray:none;paint-order:markers stroke fill" /><path
   sodipodi:nodetypes="sssscssssscss"
   id="path937"
   d="m 17.00333,44.095637 c -0.383626,-0.04448 -0.705167,-0.09197 -0.714537,-0.105517 -0.02213,-0.03201 0.155997,-5.952179 0.179919,-5.97979 0.01002,-0.01154 0.881614,0.42971 1.936928,0.980554 l 1.918752,1.001536 2.07917,-0.160418 c 1.143543,-0.08823 2.166307,-0.178529 2.272808,-0.200664 0.163548,-0.03399 0.247764,0.08008 0.541952,0.73405 0.191573,0.425861 0.501225,0.80051 0.501036,0.854136 -1.98e-4,0.05871 -1.055989,0.198018 -2.422148,0.323427 l -2.268741,0.208264 -1.287046,1.223632 c -1.44589,1.374648 -1.24786,1.293588 -2.738093,1.120794 z"
   style="fill:#000000;stroke:#000000;stroke-width:0.248564;stroke-linejoin:round;stroke-miterlimit:4;stroke-dasharray:none;paint-order:markers stroke fill" /><path
   sodipodi:nodetypes="ssssscccs"
   id="path939"
   d="m 25.777566,41.379933 c -0.206065,-0.283316 -0.906288,-1.879745 -0.941609,-2.373511 -0.0089,-0.124302 0.365868,0.0271 2.213536,-0.004 1.178591,-0.01987 2.197498,-0.196004 2.219104,-0.09869 0.02308,0.103959 -0.283288,1.261589 -0.831894,2.247773 l -0.674636,1.212736 -0.65947,0.0048 -0.606488,-0.0011 z"
   style="fill:#000000;stroke:#000000;stroke-width:0.0941926;stroke-linejoin:round;stroke-miterlimit:4;stroke-dasharray:none;paint-order:markers stroke fill" /><path
   sodipodi:nodetypes="ssscsssss"
   id="path941"
   d="m 21.912259,38.609796 c -1.451351,-0.179207 -3.287311,-0.377788 -3.313218,-0.405678 -0.02591,-0.02789 2.206238,-0.353657 4.188546,-0.723931 l 3.604198,-0.673227 4.324002,0.643207 c 2.378201,0.353764 4.566263,0.772597 4.697689,0.757853 0.996456,-0.111789 -0.757221,0.122991 -1.779289,0.279642 -1.797709,0.275528 -2.0248,0.279881 -5.032261,0.364137 -4.026767,0.112814 -3.586,0.141226 -6.689667,-0.242003 z"
   style="fill:#000000;stroke:#000000;stroke-width:0.0988898;stroke-linejoin:round;stroke-miterlimit:4;stroke-dasharray:none;paint-order:markers stroke fill" /><path
   sodipodi:nodetypes="sssscsss"
   id="path943"
   d="M 18.228518,38.914186 C 17.252231,38.389913 16.493562,37.947478 16.542587,37.931 c 0.137668,-0.04628 1.789899,0.419093 3.153646,0.888257 1.076565,0.370366 1.42684,0.439588 2.8174,0.556784 l 1.952986,0.198593 -2.011857,0.126284 c -0.874692,0.0549 -1.73658,0.09427 -1.990146,0.119897 -0.424057,0.04287 -0.603385,-0.02985 -2.236098,-0.906629 z"
   style="fill:#000000;stroke:#000000;stroke-width:0.102881;stroke-linejoin:round;stroke-miterlimit:4;stroke-dasharray:none;paint-order:markers stroke fill" /><path
   id="path945"
   d="m 32.176308,36.379548 c -3.073205,-0.143668 -5.608542,-0.28211 -5.634081,-0.307649 -0.07953,-0.07953 0.620804,-1.384354 0.743933,-1.386051 0.06411,-8.5e-4 2.273875,0.153436 4.910598,0.342935 l 4.79404,0.344539 0.998833,0.566528 c 0.549357,0.311589 1.0391,0.602332 1.088316,0.646093 0.124571,0.110765 -0.546666,0.09069 -6.901639,-0.206395 z"
   style="fill:#000000;stroke:#000000;stroke-width:0.0941926;stroke-linejoin:round;stroke-miterlimit:4;stroke-dasharray:none;paint-order:markers stroke fill" /><path
   sodipodi:nodetypes="ssscsss"
   id="path949"
   d="m 30.441877,37.581913 c -2.392735,-0.316496 -4.200567,-0.591542 -4.017407,-0.611214 0.359028,-0.03856 9.928266,0.364619 11.499187,0.511174 l 1.389161,0.04015 -2.048418,0.369435 c -3.275375,0.59072 -1.497641,0.291099 -1.918808,0.305899 -0.2634,0.0092 -2.510983,-0.29894 -4.903715,-0.615438 z"
   style="fill:#000000;stroke:#000000;stroke-width:0.115299;stroke-linejoin:round;stroke-miterlimit:4;stroke-dasharray:none;paint-order:markers stroke fill" /><path
   sodipodi:nodetypes="ssscssssss"
   id="path951"
   d="m 32.26687,37.17848 c -3.506621,-0.171183 -6.526066,-0.314243 -6.709881,-0.317913 -0.301169,-0.006 -0.334207,-0.0346 -0.334207,-0.289251 v -0.282579 l 0.745542,0.0031 c 1.309,0.0053 13.394831,0.494629 13.472199,0.519421 0.09055,0.02902 -0.02955,0.267159 -0.05887,0.448038 -0.06978,0.430378 -0.128648,0.252491 -0.413075,0.242231 -0.179318,-0.0065 -3.195088,-0.151823 -6.701706,-0.323006 z"
   style="fill:#000000;stroke:#000000;stroke-width:0.0984186;stroke-linejoin:round;stroke-miterlimit:4;stroke-dasharray:none;paint-order:markers stroke fill" /><path
   id="path953"
   d="m 15.227654,37.401444 c -0.04658,-0.223443 -0.07443,-0.420282 -0.0619,-0.437422 0.02651,-0.03625 10.1576,-0.67073 10.753423,-0.673455 0.382412,-0.0018 0.400319,0.01081 0.400319,0.280749 0,0.155418 -0.03259,0.282579 -0.0724,0.282579 -0.150897,0 -9.981726,0.845286 -10.446948,0.898261 l -0.487796,0.05555 z"
   style="fill:#000000;stroke:#000000;stroke-width:0.0941926;stroke-linejoin:round;stroke-miterlimit:4;stroke-dasharray:none;paint-order:markers stroke fill" /><path
   sodipodi:nodetypes="scccssss"
   id="path955"
   d="m 16.390323,36.11363 0.933738,-0.646073 4.157979,-0.417451 4.157979,-0.417453 0.29304,0.702054 c 0.161171,0.386129 0.274129,0.720965 0.251017,0.744077 -0.04021,0.04022 -9.741439,0.645762 -10.406008,0.67813 -0.416916,0.02031 -0.5402,0.154124 0.612255,-0.643284 z"
   style="fill:#000000;stroke:#000000;stroke-width:0.0941926;stroke-linejoin:round;stroke-miterlimit:4;stroke-dasharray:none;paint-order:markers stroke fill" /><path
   id="path959"
   d="m 17.213496,37.956129 c -0.538529,-0.105051 -0.956829,-0.211913 -0.929559,-0.237463 0.07744,-0.07255 9.514885,-0.818297 9.826767,-0.776511 0.339395,0.04547 -7.110403,1.246297 -7.582179,1.222164 -0.18474,-0.0094 -0.776503,-0.103139 -1.315029,-0.20819 z"
   style="fill:#000000;stroke:#000000;stroke-width:0.130052;stroke-linejoin:round;stroke-miterlimit:4;stroke-dasharray:none;paint-order:markers stroke fill" /><path
   sodipodi:nodetypes="ssss"
   id="path961"
   d="m 20.727932,39.097364 c -0.543872,-0.06407 -3.236985,-0.88712 -3.153386,-0.96371 0.125777,-0.115231 4.284294,0.0851 4.474998,0.529801 0.480063,1.119472 0.0064,0.590368 -1.321612,0.433909 z"
   style="fill:#000000;stroke:#000000;stroke-width:0.143;stroke-linejoin:round;stroke-miterlimit:4;stroke-dasharray:none;paint-order:markers stroke fill" /><path
   id="path963"
   d="m 15.0635,36.554459 c -0.103321,-0.41855 -1.913042,-9.072817 -1.898539,-9.079028 0.076,-0.03256 2.156829,0.139028 2.199141,0.18134 0.05435,0.05435 1.808678,7.446581 1.815355,7.649375 0.0027,0.08119 -1.719571,1.325266 -1.988898,1.436699 -0.04019,0.01663 -0.09738,-0.06814 -0.127059,-0.188386 z"
   style="fill:#000000;stroke:#000000;stroke-width:0.0941926;stroke-linejoin:round;stroke-miterlimit:4;stroke-dasharray:none;paint-order:markers stroke fill" /><path
   id="path965"
   d="m 38.305565,35.968842 c -0.84317,-0.483098 -1.153867,-0.70963 -1.153867,-0.841299 0,-0.229362 1.411936,-7.911777 1.463582,-7.963422 0.07016,-0.07016 2.493504,-0.325111 2.550305,-0.26831 0.04248,0.04248 -1.593062,9.431955 -1.68637,9.681275 -0.01093,0.02908 -0.539025,-0.244634 -1.17365,-0.608244 z"
   style="fill:#000000;stroke:#000000;stroke-width:0.0941926;stroke-linejoin:round;stroke-miterlimit:4;stroke-dasharray:none;paint-order:markers stroke fill" /><path
   id="path967"
   d="m 40.021214,26.458427 -1.227883,-0.188779 1.218243,-6.693944 1.218242,-6.693942 1.359207,-0.832573 c 0.747565,-0.457914 1.379421,-0.812359 1.404127,-0.787654 0.03673,0.03673 -2.682539,15.357383 -2.729636,15.379043 -0.008,0.0036 -0.566965,-0.07832 -1.2423,-0.182151 z"
   style="fill:#000000;stroke:#000000;stroke-width:0.0941926;stroke-linejoin:round;stroke-miterlimit:4;stroke-dasharray:none;paint-order:markers stroke fill" /><path
   id="path969"
   d="M 13.092098,27.162338 C 12.933294,26.623373 10.113387,12.996557 10.152555,12.95739 c 0.02677,-0.02677 0.59172,0.235528 1.255436,0.582893 l 1.206759,0.631572 1.327116,6.325239 c 0.729913,3.478883 1.314301,6.341257 1.298639,6.360832 -0.01566,0.01958 -0.49541,0.130191 -1.066104,0.245812 -0.937597,0.189952 -1.041935,0.195601 -1.082303,0.0586 z"
   style="fill:#000000;stroke:#000000;stroke-width:0.0941926;stroke-linejoin:round;stroke-miterlimit:4;stroke-dasharray:none;paint-order:markers stroke fill" /><path
   id="path971"
   d="m 11.529611,13.44613 -1.163417,-0.583203 0.417659,-0.23986 c 0.855396,-0.491252 14.043017,-7.7120805 14.182712,-7.7656868 0.123622,-0.047437 0.137388,0.020026 0.09226,0.4520717 -0.02917,0.2793072 -0.07988,1.0112479 -0.112677,1.6265358 l -0.05962,1.1187055 -2.650917,1.2952134 c -1.458003,0.7123654 -4.201539,2.0566604 -6.096749,2.9873184 l -3.445833,1.692108 z"
   style="fill:#000000;stroke:#000000;stroke-width:0.0941926;stroke-linejoin:round;stroke-miterlimit:4;stroke-dasharray:none;paint-order:markers stroke fill" /><path
   id="path973"
   d="m 25.373836,24.404348 c -0.002,-0.01706 -0.07924,-3.739885 -0.171524,-8.272927 -0.108591,-5.333984 -0.139466,-8.7071561 -0.08751,-9.560594 0.04415,-0.7252866 0.06837,-1.4719751 0.05378,-1.6593086 L 25.142075,4.5709128 17.616009,8.7043175 C 13.476674,10.97769 10.076438,12.824217 10.059932,12.80771 9.9401059,12.687884 10.018373,12.165322 10.192854,11.920294 10.872865,10.965306 13.300035,9.2080326 16.335027,7.4733558 19.093458,5.8967486 24.054379,3.5557795 25.212722,3.284131 l 0.25903,-0.060747 0.0057,0.684694 c 0.0031,0.3765818 0.122734,5.1141232 0.265792,10.5278682 0.143059,5.413747 0.257064,9.848821 0.253346,9.85572 -0.01682,0.03121 -0.619434,0.140247 -0.622748,0.112677 z"
   style="fill:#000000;stroke:#000000;stroke-width:0.0941926;stroke-linejoin:round;stroke-miterlimit:4;stroke-dasharray:none;paint-order:markers stroke fill" /><path
   id="path975"
   d="M 33.854943,10.31952 C 29.943575,8.996953 26.719454,7.8770138 26.690229,7.830767 26.602753,7.6923431 26.02057,4.4364336 26.073781,4.3832229 c 0.04279,-0.042788 16.655222,6.0532981 17.606534,6.4608801 l 0.358968,0.153798 -1.419293,0.871286 c -0.780613,0.479207 -1.471984,0.867621 -1.536383,0.863144 -0.0644,-0.0044 -3.317298,-1.090243 -7.228664,-2.412811 z"
   style="fill:#000000;stroke:#000000;stroke-width:0.0941926;stroke-linejoin:round;stroke-miterlimit:4;stroke-dasharray:none;paint-order:markers stroke fill" /><path
   id="path977"
   d="m 26.484334,24.351794 c -0.240227,-0.02513 -0.353223,-0.08362 -0.353223,-0.182837 0,-0.517658 -0.470928,-18.8586336 -0.508422,-19.8012578 l -0.04642,-1.1670037 0.585626,0.054686 c 1.210933,0.1130791 5.317078,1.4188314 9.388523,2.9855483 5.123688,1.9716256 7.785887,3.29035 8.359634,4.1409533 0.116563,0.172811 0.211934,0.348877 0.211934,0.391257 0,0.04238 -0.222532,-0.0072 -0.494513,-0.110048 C 38.821027,8.8444886 25.88845,4.115254 25.867934,4.1687157 c -0.01523,0.039695 0.126508,0.8719241 0.31498,1.8493986 l 0.342672,1.7772263 0.222646,7.3470574 c 0.244087,8.054696 0.265351,9.285802 0.159974,9.262183 -0.03886,-0.0088 -0.229596,-0.03245 -0.423869,-0.05278 z"
   style="fill:#000000;stroke:#000000;stroke-width:0.0941926;stroke-linejoin:round;stroke-miterlimit:4;stroke-dasharray:none;paint-order:markers stroke fill" /><path
   id="path979"
   d="m 26.416439,35.252613 c -0.0036,-0.33674 -0.0684,-2.837566 -0.144038,-5.557391 -0.07564,-2.719824 -0.138371,-5.000956 -0.139407,-5.069183 -0.0011,-0.0693 0.178485,0.02375 0.406793,0.210833 l 0.408677,0.334879 0.06525,4.707461 0.06524,4.70746 -0.328001,0.639097 -0.328004,0.639099 z"
   style="fill:#000000;stroke:#000000;stroke-width:0.0941926;stroke-linejoin:round;stroke-miterlimit:4;stroke-dasharray:none;paint-order:markers stroke fill" /><path
   id="path981"
   d="m 26.004802,35.162517 -0.264436,-0.642718 -0.12107,-4.649373 -0.121069,-4.649374 0.245797,-0.322998 0.245798,-0.322998 0.02598,0.793963 c 0.06033,1.844093 0.279853,10.403104 0.267225,10.418935 -0.0076,0.0094 -0.13278,-0.271942 -0.27822,-0.625437 z"
   style="fill:#000000;stroke:#000000;stroke-width:0.0941926;stroke-linejoin:round;stroke-miterlimit:4;stroke-dasharray:none;paint-order:markers stroke fill" /><path
   id="path983"
   d="M 32.600492,26.057227 27.15445,25.172646 26.739287,24.825612 c -0.228339,-0.190867 -0.405607,-0.354989 -0.393929,-0.364714 0.01168,-0.0097 3.200251,0.484145 7.085715,1.097487 3.885464,0.613341 7.149253,1.122178 7.252866,1.130749 0.353168,0.02921 -1.504995,0.258305 -2.072248,0.255484 -0.310837,-0.0016 -3.015876,-0.400872 -6.011199,-0.887391 z"
   style="fill:#000000;stroke:#000000;stroke-width:0.0941926;stroke-linejoin:round;stroke-miterlimit:4;stroke-dasharray:none;paint-order:markers stroke fill" /><path
   id="path985"
   d="m 14.034659,27.352298 c -0.02797,-0.04527 0.21325,-0.133347 0.536051,-0.195748 0.322801,-0.0624 2.955837,-0.683946 5.851194,-1.38121 2.895357,-0.697264 5.303185,-1.254786 5.350728,-1.238939 0.04755,0.01584 -0.05369,0.189995 -0.224957,0.386992 l -0.311399,0.358179 -4.803845,1.074809 c -3.961293,0.886297 -4.939167,1.075108 -5.575379,1.076509 -0.424344,9.21e-4 -0.79442,-0.03533 -0.822393,-0.08059 z"
   style="fill:#000000;stroke:#000000;stroke-width:0.0941926;stroke-linejoin:round;stroke-miterlimit:4;stroke-dasharray:none;paint-order:markers stroke fill" /><path
   id="path987"
   d="m 16.123098,27.835947 c -0.394726,-0.02477 -0.541609,-0.07103 -0.541609,-0.170576 0,-0.104812 0.136951,-0.136457 0.588706,-0.136024 1.134048,0.0011 2.130783,0.114595 2.182168,0.248504 0.04956,0.129152 -0.760493,0.150264 -2.229265,0.0581 z"
   style="fill:#000000;stroke:#000000;stroke-width:0.0941926;stroke-linejoin:round;stroke-miterlimit:4;stroke-dasharray:none;paint-order:markers stroke fill" /><path
   id="path991"
   d="m 35.567414,27.599427 c 0.0326,-0.229518 0.06147,-0.234983 2.071102,-0.392143 0.790898,-0.06185 0.814913,-0.05781 0.766107,0.128823 -0.02771,0.105973 -0.07723,0.193518 -0.110048,0.194548 -0.03282,0.0011 -0.631883,0.06377 -1.331265,0.139416 -0.699384,0.07565 -1.306345,0.138388 -1.348803,0.139418 -0.04246,0.0011 -0.06365,-0.0935 -0.0471,-0.210062 z"
   style="fill:#000000;stroke:#000000;stroke-width:0.0941926;stroke-linejoin:round;stroke-miterlimit:4;stroke-dasharray:none;paint-order:markers stroke fill" /><path
   sodipodi:open="true"
   d="m 16.710912,33.104718 a 4.5695305,3.377759 0 0 1 3.0558,1.034531"
   sodipodi:arc-type="arc"
   sodipodi:end="5.518479"
   sodipodi:start="4.7652654"
   sodipodi:ry="3.377759"
   sodipodi:rx="4.5695305"
   sodipodi:cy="36.477757"
   sodipodi:cx="16.469404"
   sodipodi:type="arc"
   id="path1013"
   style="fill:#000000;fill-opacity:1;fill-rule:evenodd;stroke:#000000;stroke-width:0.057826;stroke-opacity:1" /><path
   sodipodi:nodetypes="cccc"
   id="path1017"
   d="m 16.731653,33.105562 0.554938,2.299792 2.679033,-0.276865 -0.224322,-1.018744"
   style="fill:#000000;fill-opacity:1;stroke:#000000;stroke-width:0.0646266;stroke-linecap:butt;stroke-linejoin:miter;stroke-miterlimit:4;stroke-dasharray:none;stroke-opacity:1" /></svg>
