<svg height="960" viewBox="0 0 960 960" width="960" xmlns="http://www.w3.org/2000/svg"><g fill="none" fill-rule="evenodd" stroke="#000" stroke-linecap="round" stroke-linejoin="round"><path d="m20.6072792 586.560352v-492.0371846c0-12.1502645 9.8497355-22 22-22h874.7854418c12.150264 0 22 9.8497355 22 22v492.0371846c0 79.381313-192.370565 299.962815-459.392721 299.962815-260.233557-4.28838-455.6708895-219.455815-459.3927208-299.962815z" stroke-width="40"/><path d="m432.295769 145c-9.038904 0-16.954336-6.062558-19.309288-14.789297l-5.532917-20.503318c-2.29235-8.494754-3.453564-17.2548945-3.453564-26.0535145v-1.6538705h152v1.6538705c0 8.79862-1.161214 17.5587605-3.453564 26.0535145l-5.532917 20.503318c-2.354952 8.726739-10.270384 14.789297-19.309288 14.789297z" stroke-width="20"/></g></svg>