<?xml version="1.0" encoding="utf-8"?>
<!-- Generator: Adobe Illustrator 22.1.0, SVG Export Plug-In . SVG Version: 6.00 Build 0)  -->
<svg version="1.1" id="Layer_1" xmlns="http://www.w3.org/2000/svg" xmlns:xlink="http://www.w3.org/1999/xlink" x="0px" y="0px"
	 viewBox="0 0 1034 554" style="enable-background:new 0 0 1034 554;" xml:space="preserve">
<style type="text/css">
	.st0{fill:none;stroke:#000000;stroke-width:10;}
	.st1{fill:none;stroke:#000000;stroke-width:2.5;}
</style>
<path id="Unnamed" class="st0" d="M189,17h652v49l-652-1V17z M244,163l150,151L174,533L23,383L244,163z M27,387l-10.4,10.4
	l142.2,142.8L170,529 M386.5,306.1L374,255l-61-60l-54.1-17 M773.8,178L718,193l-60,61l-11,49.1 M789,163L638,312l221,222l150-150
	L789,163z M863.1,529.9l11.2,11.6l142.3-142L1005,388 M692.1,219.4l0.8-124.3l-16-0.3l0.2-28.8 M733.6,65.8v29.8h-16l0.5,97.3
	 M353.1,65.3l0.2,28.9h-15.1l1.9,127.7L313,195l1.2-100.9L299,93.9l0.1-28.7"/>
<path class="st1" d="M518,328.6l14.9-13.1L518,302.1V328.6z M518,278.9l14.9-13.2l-14.9-13V278.9z M508,279.6v-49l40,35l-27.9,24.9
	l27.9,25.1l-40,35v-49.2l-23.3,21.1L478,315l27.2-24.5L478,266l6.7-7.4L508,279.6z"/>
<line class="st0" x1="617" y1="230" x2="638" y2="466"/>
<line class="st0" x1="394.7" y1="468.8" x2="414.8" y2="226.2"/>
<path class="st0" d="M565.9,186.8"/>
<path class="st0" d="M609,213"/>
<path class="st0" d="M430.9,213"/>
<path class="st0" d="M480.4,187.5"/>
<polyline class="st0" points="543.7,65.5 544.2,94.6 528.2,94.6 529.8,174 "/>
<polyline class="st0" points="503.3,173.5 505,95.1 490.2,95.1 489.9,65.5 "/>
<ellipse class="st0" cx="516.4" cy="468.8" rx="121.6" ry="67.2"/>
<path class="st0" d="M635.5,438c0-29.3-52.9-53.1-118.9-53.1S397.3,408.6,397.3,438"/>
<path class="st0" d="M617.1,231.5c0-22.4-39.9-58-98.9-58S414.7,205.6,414.7,228"/>
</svg>
