<?xml version="1.0" encoding="UTF-8" standalone="no"?>
<svg
   xmlns:dc="http://purl.org/dc/elements/1.1/"
   xmlns:cc="http://creativecommons.org/ns#"
   xmlns:rdf="http://www.w3.org/1999/02/22-rdf-syntax-ns#"
   xmlns:svg="http://www.w3.org/2000/svg"
   xmlns="http://www.w3.org/2000/svg"
   version="1.2"
   id="Layer_1"
   x="0px"
   y="0px"
   viewBox="0 0 50.5 50.5"
   xml:space="preserve"><metadata
   id="metadata15"><rdf:RDF><cc:Work
       rdf:about=""><dc:format>image/svg+xml</dc:format><dc:type
         rdf:resource="http://purl.org/dc/dcmitype/StillImage" /><dc:title></dc:title></cc:Work></rdf:RDF></metadata><defs
   id="defs13" />




<g
   id="layer3" /><g
   id="layer1" /><path
   d="m 12.265009,9.9332283 c -1.19011,-0.0816 -2.3954884,0.7814967 -2.7019396,1.9343657 L 4.4205347,31.213318 c -0.3064521,1.15287 0.4047137,2.147037 1.5948236,2.228638 l 35.4812227,2.432363 c 1.19011,0.0816 2.39343,-0.781498 2.699882,-1.934367 l 5.142535,-19.345724 c 0.306451,-1.152869 -0.404714,-2.147037 -1.594824,-2.228637 z m -0.123033,0.4293977 c -1.173381,-0.07932 -2.362752,0.769999 -2.6689169,1.905505 L 7.4713712,19.691794 H 4.8605673 c -0.8316227,0 -1.556352,0.668137 -1.6269947,1.496754 l -1.186183,13.905591 c -0.070638,0.828616 0.5429071,1.494751 1.3745299,1.494751 H 24.492705 c 0.831623,0 1.558356,-0.666134 1.628999,-1.494751 l 0.01803,-0.210387 15.26409,1.031899 c 1.173381,0.07931 2.36275,-0.769999 2.668913,-1.905507 l 5.13946,-19.055067 c 0.306163,-1.135509 -0.393502,-2.114722 -1.566883,-2.194038 z m 1.108249,-0.4373527 c -1.158794,-0.07945 -2.332454,0.7609327 -2.630842,1.8834657 L 5.6121676,30.645404 c -0.2983882,1.122534 0.3940641,2.090541 1.5528578,2.169994 l 34.5475786,2.368359 c 1.158794,0.07945 2.33045,-0.760934 2.628838,-1.883467 l 5.007216,-18.836665 c 0.298387,-1.122533 -0.394064,-2.09054 -1.552858,-2.169993 z"
   style="opacity:1;fill:none;fill-opacity:1;stroke:#000000;stroke-width:0.59352082;stroke-linecap:round;stroke-linejoin:round;stroke-miterlimit:4;stroke-dasharray:none;stroke-dashoffset:0;stroke-opacity:1"
   id="path4648" /></svg>