<?xml version="1.0" encoding="UTF-8" standalone="no"?>
<svg
   xmlns:dc="http://purl.org/dc/elements/1.1/"
   xmlns:cc="http://creativecommons.org/ns#"
   xmlns:rdf="http://www.w3.org/1999/02/22-rdf-syntax-ns#"
   xmlns:svg="http://www.w3.org/2000/svg"
   xmlns="http://www.w3.org/2000/svg"
   xml:space="preserve"
   viewBox="0 0 50.5 50.5"
   y="0px"
   x="0px"
   id="Layer_1"
   version="1.2"><metadata
   id="metadata15"><rdf:RDF><cc:Work
       rdf:about=""><dc:format>image/svg+xml</dc:format><dc:type
         rdf:resource="http://purl.org/dc/dcmitype/StillImage" /><dc:title></dc:title></cc:Work></rdf:RDF></metadata><defs
   id="defs13" />




<g
   id="layer3" /><g
   id="layer2" /><g
   id="layer5"><path
     d="m 25.669818,28.941068 a 3.6897285,1.2318068 0 0 1 -3.642797,-1.246312 3.6897285,1.2318068 0 0 1 3.730289,-1.217127 3.6897285,1.2318068 0 0 1 3.648714,1.244382 3.6897285,1.2318068 0 0 1 -3.724503,1.219101 m 22.859088,-4.367523 a 23.834103,7.9569992 0.44829843 0 1 -9.978294,7.886699 23.834103,7.9569992 0.44829843 0 1 -25.82419,0.06758 23.834103,7.9569992 0.44829843 0 1 -11.3267911,-7.830951 m 0.00704,1.765591 A 23.674001,6.6330403 0.0710282 0 1 25.134362,19.927677 23.674001,6.6330403 0.0710282 0 1 48.764396,26.540888 M 1.3449197,25.100636 A 23.674001,6.6330403 0.0710282 0 1 25.060904,18.565807 23.674001,6.6330403 0.0710282 0 1 48.690939,25.179019 M 1.664366,23.742952 a 23.48463,6.5799821 0.0710282 0 1 11.879606,-5.993042 23.48463,6.5799821 0.0710282 0 1 24.496113,0.255842 23.48463,6.5799821 0.0710282 0 1 10.431559,6.226064"
     style="opacity:1;fill:none;fill-opacity:1;stroke:#000000;stroke-width:0.23400001;stroke-linecap:round;stroke-linejoin:round;stroke-miterlimit:4;stroke-dasharray:none;stroke-dashoffset:0;stroke-opacity:0.99065423"
     transform="matrix(0.99999919,-0.00126901,0.00161336,0.9999987,0,0)"
     id="path862" /></g><g
   id="layer4" /><g
   id="layer1" /></svg>