<?xml version="1.0" encoding="utf-8"?>
<!-- Generator: Adobe Illustrator 19.2.1, SVG Export Plug-In . SVG Version: 6.00 Build 0)  -->
<svg version="1.2" baseProfile="tiny" id="Layer_1" xmlns="http://www.w3.org/2000/svg" xmlns:xlink="http://www.w3.org/1999/xlink"
	 x="0px" y="0px" viewBox="0 0 50.8 50.8" xml:space="preserve">
<rect x="5.3" y="4.4" fill="none" stroke="#000000" stroke-width="0.8" stroke-miterlimit="10" width="2.5" height="2.5"/>
<rect x="15" y="4.4" fill="none" stroke="#000000" stroke-width="0.8" stroke-miterlimit="10" width="2.5" height="2.5"/>
<rect x="24.7" y="4.4" fill="none" stroke="#000000" stroke-width="0.8" stroke-miterlimit="10" width="2.5" height="2.5"/>
<rect x="34.4" y="4.4" fill="none" stroke="#000000" stroke-width="0.8" stroke-miterlimit="10" width="2.5" height="2.5"/>
<rect x="43" y="6.3" transform="matrix(0.4283 -0.9036 0.9036 0.4283 18.4701 44.3679)" fill="none" stroke="#000000" stroke-width="0.8" stroke-miterlimit="10" width="2.5" height="2.5"/>
<rect x="43.5" y="44.4" fill="none" stroke="#000000" stroke-width="0.8" stroke-miterlimit="10" width="2.5" height="2.5"/>
<rect x="33.8" y="44.4" fill="none" stroke="#000000" stroke-width="0.8" stroke-miterlimit="10" width="2.5" height="2.5"/>
<rect x="24.1" y="44.4" fill="none" stroke="#000000" stroke-width="0.8" stroke-miterlimit="10" width="2.5" height="2.5"/>
<rect x="14.4" y="44.4" fill="none" stroke="#000000" stroke-width="0.8" stroke-miterlimit="10" width="2.5" height="2.5"/>
<rect x="5.7" y="42.5" transform="matrix(0.4293 -0.9031 0.9031 0.4293 -35.5419 31.2419)" fill="none" stroke="#000000" stroke-width="0.8" stroke-miterlimit="10" width="2.5" height="2.5"/>
<path fill="none" stroke="#000000" stroke-width="0.8" stroke-miterlimit="10" d="M0.4,0.4v10.4h35.1c0,0,13.4-0.9,14.9,9.9
	c0-9.2,0-9.6,0-9.6S50.7,0.4,35,0.4C22.7,0.4,0.4,0.4,0.4,0.4z"/>
<g>
	<path fill="none" stroke="#000000" stroke-width="0.8" stroke-miterlimit="10" d="M0.4,30.5c0,0.1,0,0.2,0,0.3c0,0.1,0,0.2,0,0.2
		C0.4,30.8,0.4,30.7,0.4,30.5z"/>
	<path fill="none" stroke="#000000" stroke-width="0.8" stroke-miterlimit="10" d="M6.1,38.1c0.2-1.8,1.2-4.3,5.6-5.7
		c3.2-1,22.4-2.1,22.4-2.1s15.7-0.1,16.3-9.7c-0.6-4.1-3-6.6-5.6-8c-0.1,1.9-1.1,4.5-5.6,5.6c-6.2,1.5-22.4,2.1-22.4,2.1
		S1,20.2,0.5,30.2C1,34.4,3.4,36.8,6.1,38.1z"/>
</g>
<path fill="none" stroke="#000000" stroke-width="0.8" stroke-miterlimit="10" d="M50.4,50.4V40H15.3c0,0-13.4,0.9-14.9-9.8
	c0,9.2,0,9.6,0,9.6S0.1,50.4,15.8,50.4C28.1,50.4,50.4,50.4,50.4,50.4z"/>
</svg>
