<?xml version="1.0" encoding="utf-8"?>
<!-- Generator: Adobe Illustrator 24.0.1, SVG Export Plug-In . SVG Version: 6.00 Build 0)  -->
<svg version="1.1"
	 id="Layer_1" xmlns:cc="http://creativecommons.org/ns#" xmlns:dc="http://purl.org/dc/elements/1.1/" xmlns:rdf="http://www.w3.org/1999/02/22-rdf-syntax-ns#" xmlns:svg="http://www.w3.org/2000/svg"
	 xmlns="http://www.w3.org/2000/svg" xmlns:xlink="http://www.w3.org/1999/xlink" x="0px" y="0px" viewBox="0 0 50.5 50.5"
	 style="enable-background:new 0 0 50.5 50.5;" xml:space="preserve">
<style type="text/css">
	.st0{fill:#FFFFFF;}
</style>
<g>
	<path d="M37.2,20.5c0-1.3,0-2.5,0-3.8c1.4-0.4,2.8-0.9,4.2-1.3c0.4-0.1,1,0.4,1,0.9c0,1.6,0,3.3,0,4.9c0,5.8,0,11.5,0,17.3
		c0,0.5-0.1,0.8-0.7,0.9c-5.2,1.2-10.4,2.5-15.7,3.7c-0.5,0.1-1.1,0.1-1.6,0c-3.5-0.6-7-1.2-10.5-1.8c-1.7-0.3-3.3-0.6-5-0.9
		c-0.6-0.1-0.8-0.3-0.8-0.9c0-7.9,0-15.7,0-23.6c0-0.5,0.1-0.7,0.6-0.9c5.7-2.4,11.3-4.9,17-7.4c0.8-0.4,1.7,0.2,1.7,1.1
		c0,2.3,0,4.6,0,6.9c0,0.5,0.1,0.8,0.7,1.1c2.9,1.2,5.7,2.5,8.6,3.8C36.9,20.4,37,20.4,37.2,20.5z M27.5,29.1c0,0.3,0,0.6,0,0.8
		c0,1.7,0,3.3,0,5c0,0.4-0.1,0.6-0.5,0.7c-2.9,0.9-5.8,1.8-8.7,2.6c-0.5,0.2-1.1,0.3-1.8,0.6c0.3,0.1,0.5,0.1,0.7,0.2
		c2.5,0.5,5,1,7.5,1.5c1.2,0.2,2.4,0.5,3.7,0.1c2.7-0.8,5.4-1.3,8.2-1.9c0.5-0.1,0.7-0.4,0.7-0.9c0-1.7,0-3.4,0-5.1
		c0-0.4-0.1-0.6-0.5-0.7c-1.1-0.3-2.1-0.7-3.2-1C31.6,30.4,29.6,29.7,27.5,29.1z"/>
	<path class="st0" d="M27.5,29.1c2.1,0.7,4.1,1.3,6,1.9c1.1,0.3,2.1,0.7,3.2,1c0.4,0.1,0.5,0.3,0.5,0.7c0,1.7,0,3.4,0,5.1
		c0,0.6-0.2,0.8-0.7,0.9c-2.7,0.6-5.5,1.1-8.2,1.9c-1.3,0.4-2.4,0.1-3.7-0.1c-2.5-0.5-5-1-7.5-1.5c-0.2,0-0.3-0.1-0.7-0.2
		c0.7-0.2,1.3-0.4,1.8-0.6c2.9-0.9,5.8-1.8,8.7-2.6c0.4-0.1,0.5-0.3,0.5-0.7c0-1.7,0-3.3,0-5C27.5,29.6,27.5,29.4,27.5,29.1z"/>
</g>
</svg>
